<?xml version="1.0" encoding="utf-8"?>
<!-- Generator: Adobe Illustrator 16.0.0, SVG Export Plug-In . SVG Version: 6.00 Build 0)  -->
<!DOCTYPE svg PUBLIC "-//W3C//DTD SVG 1.1//EN" "http://www.w3.org/Graphics/SVG/1.1/DTD/svg11.dtd">
<svg version="1.1" id="Calque_1" xmlns="http://www.w3.org/2000/svg" xmlns:xlink="http://www.w3.org/1999/xlink" x="0px" y="0px"
	 width="89.003px" height="97.166px" viewBox="0 0 89.003 97.166" enable-background="new 0 0 89.003 97.166" xml:space="preserve">
<g id="Calque_1_1_">
</g>
<g id="V2">
	<g id="resto">
		<path fill="#ED595F" d="M43.791,94.599c-0.477,0-5.039-12.695-6.33-12.899C18.48,78.665,3.977,62.22,3.977,42.384
			c0-21.99,17.826-39.816,39.814-39.816c21.99,0,39.816,17.826,39.816,39.816c0,20.021-14.781,36.594-34.027,39.396
			C48.457,81.942,44.262,94.599,43.791,94.599"/>
		<g>
			<path fill="#FFFFFF" stroke="#FFFFFF" stroke-width="0.5" stroke-miterlimit="10" d="M48.971,48.685v12.16
				c0,2.732,2.168,5.047,4.807,5.09c0.048,0,0.095,0,0.144,0c2.731,0,4.996-2.215,4.996-4.996v-8.625V38.505V23.851
				c0-1.934-1.604-3.535-3.535-3.535c-4.525,0-8.201,3.676-8.201,8.201v17.58C47.227,47.272,47.934,48.261,48.971,48.685z
				 M55.365,23.095c0.863,0,1.588,0.727,1.588,1.592v14.119V52.11v8.309c0,1.633-1.315,2.996-2.996,2.996c-0.045,0-0.045,0-0.092,0
				c-1.633-0.045-2.906-1.453-2.906-3.086V47.843c0-0.455-0.36-0.865-0.86-0.865c-0.455,0-0.863-0.363-0.863-0.861V29.181
				C49.279,25.819,52.003,23.095,55.365,23.095L55.365,23.095z"/>
			<path fill="#FFFFFF" stroke="#FFFFFF" stroke-width="0.5" stroke-miterlimit="10" d="M31.377,41.388l-0.783,19.349v0.046v0.049
				c0,2.806,2.514,5.088,5.602,5.088c3.09,0,5.604-2.282,5.604-5.088v-0.049v-0.046l-0.787-19.349
				c2.199-1.141,3.615-3.277,3.615-5.656V22.706c0-1.566-1.416-2.85-3.143-2.85c-1.1,0-2.094,0.523-2.67,1.33
				c-0.525-0.807-1.467-1.33-2.619-1.33c-1.098,0-2.094,0.523-2.67,1.33c-0.576-0.807-1.518-1.33-2.67-1.33
				c-1.727,0-3.141,1.283-3.141,2.85v12.979C27.768,38.062,29.182,40.247,31.377,41.388z M30.506,23.298
				c0-0.516,0.42-0.936,0.936-0.936l0,0c0.516,0,0.939,0.42,0.939,0.936v8.193c0,0.514,0.418,0.936,0.934,0.936h0.984
				c0.514,0,0.936-0.422,0.936-0.936v-8.193c0-0.516,0.42-0.936,0.936-0.936l0,0c0.514,0,0.938,0.42,0.938,0.936v8.193
				c0,0.514,0.42,0.936,0.936,0.936h0.982c0.516,0,0.938-0.422,0.938-0.936v-8.193c0-0.516,0.42-0.936,0.934-0.936
				c0.518,0,0.939,0.42,0.939,0.936v12.781c0,2.059-1.406,3.838-3.279,4.354l0.752,20.318c0,1.732-1.408,3.137-3.139,3.137l0,0
				c-1.732,0-3.137-1.404-3.137-3.137l0.748-20.318c-1.918-0.562-3.275-2.295-3.275-4.354V23.298H30.506z"/>
		</g>
	</g>
	<g id="bar_1_">
	</g>
	<g id="resto-u">
	</g>
	<g id="asso">
	</g>
	<g id="bar">
	</g>
	<g id="bilbio">
	</g>
	<g id="snack">
	</g>
</g>
</svg>
