<?xml version="1.0" encoding="utf-8"?>
<!-- Generator: Adobe Illustrator 16.0.0, SVG Export Plug-In . SVG Version: 6.00 Build 0)  -->
<!DOCTYPE svg PUBLIC "-//W3C//DTD SVG 1.1//EN" "http://www.w3.org/Graphics/SVG/1.1/DTD/svg11.dtd">
<svg version="1.1" id="Calque_1" xmlns="http://www.w3.org/2000/svg" xmlns:xlink="http://www.w3.org/1999/xlink" x="0px" y="0px"
	 width="87.832px" height="96px" viewBox="0 0 87.832 96" enable-background="new 0 0 87.832 96" xml:space="preserve">
<g id="Calque_1_1_">
</g>
<g id="V2">
	<g id="resto">
	</g>
	<g id="bar_1_">
	</g>
	<g id="resto-u">
	</g>
	<g id="asso">
		<path fill="#4EC4DA" d="M43.915,94.016c-0.477,0-5.039-12.695-6.33-12.901C18.604,78.082,4.101,61.635,4.101,41.799
			c0-21.988,17.826-39.814,39.814-39.814c21.989,0,39.815,17.826,39.815,39.814c0,20.023-14.78,36.594-34.028,39.396
			C48.581,81.359,44.386,94.016,43.915,94.016"/>
		<path fill="#FFFFFF" stroke="#FFFFFF" stroke-width="1.5" stroke-miterlimit="10" d="M41.943,45.811
			c0.691,0.28,0.922,1.048,0.615,1.688c-0.309,0.642-1.051,0.95-1.691,0.616h-0.025c-1.18-0.538-2.281-1.307-3.254-2.304
			c-4.51-4.484-4.51-11.788,0-16.297l9.044-9.045c4.509-4.51,11.812-4.51,16.294,0c4.51,4.485,4.51,11.786,0,16.295L58.75,40.94
			l-0.382-3.227l2.765-2.769c3.485-3.483,3.485-9.173,0-12.682c-3.511-3.484-9.195-3.484-12.683,0l-9.07,9.07
			c-3.483,3.484-3.483,9.171,0,12.681C40.15,44.783,41.021,45.373,41.943,45.811L41.943,45.811 M24.904,58.484
			c-4.508-4.479-4.508-11.778,0-16.289l4.177-4.177l0.386,3.228l-2.768,2.767c-3.484,3.484-3.484,9.169,0,12.679
			c3.509,3.484,9.197,3.484,12.681,0l9.07-9.062c3.485-3.487,3.485-9.174,0-12.686c-0.771-0.769-1.64-1.357-2.562-1.791v0.024
			c-0.693-0.309-0.925-1.077-0.615-1.717c0.307-0.642,1.052-0.949,1.689-0.615h0.025c1.18,0.537,2.281,1.306,3.255,2.308
			c4.509,4.481,4.509,11.786,0,16.292L41.2,58.484C36.689,62.992,29.388,62.992,24.904,58.484z"/>
	</g>
	<g id="bar">
	</g>
	<g id="bilbio">
	</g>
	<g id="snack">
	</g>
</g>
</svg>
