<?xml version="1.0" encoding="utf-8"?>
<!-- Generator: Adobe Illustrator 16.0.0, SVG Export Plug-In . SVG Version: 6.00 Build 0)  -->
<!DOCTYPE svg PUBLIC "-//W3C//DTD SVG 1.1//EN" "http://www.w3.org/Graphics/SVG/1.1/DTD/svg11.dtd">
<svg version="1.1" id="Calque_1" xmlns="http://www.w3.org/2000/svg" xmlns:xlink="http://www.w3.org/1999/xlink" x="0px" y="0px"
	 width="87.832px" height="97.166px" viewBox="0 0 87.832 97.166" enable-background="new 0 0 87.832 97.166" xml:space="preserve">
<g id="Calque_1_1_">
</g>
<g id="V2">
	<g id="resto">
	</g>
	<g id="bar_1_">
	</g>
	<g id="resto-u">
	</g>
	<g id="asso">
	</g>
	<g id="bar">
	</g>
	<g id="bilbio">
	</g>
	<g id="snack">
		<path fill="#F69B58" d="M43.915,94.599c-0.477,0-5.039-12.695-6.33-12.902C18.604,78.665,4.101,62.218,4.101,42.382
			c0-21.988,17.826-39.814,39.814-39.814c21.989,0,39.815,17.826,39.815,39.814c0,20.023-14.78,36.594-34.028,39.396
			C48.581,81.942,44.386,94.599,43.915,94.599"/>
		<g>
			<path fill="#FFFFFF" stroke="#FFFFFF" stroke-miterlimit="10" d="M41.941,52.853c-4.539,0-8.227-3.688-8.227-8.224
				c0-4.538,3.688-8.228,8.227-8.228c4.536,0,8.225,3.689,8.225,8.228C50.166,49.165,46.477,52.853,41.941,52.853z M41.941,38.44
				c-3.414,0-6.188,2.775-6.188,6.188c0,3.411,2.773,6.186,6.188,6.186c3.411,0,6.186-2.776,6.186-6.186
				C48.127,41.216,45.352,38.44,41.941,38.44z"/>
			<path fill="#FFFFFF" stroke="#FFFFFF" stroke-miterlimit="10" d="M54.969,62.914H28.906V27.691h26.062L54.969,62.914
				L54.969,62.914z M30.949,60.876h21.982V29.732H30.949V60.876z"/>
			<path fill="#FFFFFF" stroke="#FFFFFF" stroke-miterlimit="10" d="M51.578,66.517H32.301l-2.822-5.641h24.919L51.578,66.517z
				 M33.561,64.478h16.757l0.781-1.562H32.781L33.561,64.478z"/>
			<path fill="#FFFFFF" stroke="#FFFFFF" stroke-miterlimit="10" d="M54.369,29.732H29.51l2.779-5.793H51.59L54.369,29.732z
				 M32.75,27.691h18.379l-0.824-1.715H33.575L32.75,27.691z"/>
			<path fill="#FFFFFF" stroke="#FFFFFF" stroke-miterlimit="10" d="M47.51,25.195l-1.941-0.624l1.781-5.552
				c0.453-1.641,1.994-2.813,3.734-2.813h7.842v2.039h-7.842c-0.826,0-1.559,0.557-1.779,1.356L47.51,25.195z"/>
		</g>
	</g>
</g>
</svg>
