<?xml version="1.0" encoding="utf-8"?>
<!-- Generator: Adobe Illustrator 16.0.0, SVG Export Plug-In . SVG Version: 6.00 Build 0)  -->
<!DOCTYPE svg PUBLIC "-//W3C//DTD SVG 1.1//EN" "http://www.w3.org/Graphics/SVG/1.1/DTD/svg11.dtd">
<svg version="1.1" id="Calque_1" xmlns="http://www.w3.org/2000/svg" xmlns:xlink="http://www.w3.org/1999/xlink" x="0px" y="0px"
	 width="87.833px" height="97.166px" viewBox="0 0 87.833 97.166" enable-background="new 0 0 87.833 97.166" xml:space="preserve">
<g id="Calque_1_1_">
</g>
<g id="V2">
	<g id="resto">
	</g>
	<g id="bar_1_">
	</g>
	<g id="resto-u">
	</g>
	<g id="asso">
	</g>
	<g id="bar">
		<path fill="#58585A" d="M43.23,94.599c-0.477,0-5.039-12.695-6.33-12.902C17.92,78.665,3.416,62.218,3.416,42.382
			c0-21.988,17.826-39.814,39.814-39.814c21.99,0,39.815,17.826,39.815,39.814c0,20.023-14.78,36.594-34.028,39.396
			C47.896,81.942,43.701,94.599,43.23,94.599"/>
		<g transform="translate(0,-952.36218)">
			<path fill="#FFFFFF" stroke="#FFFFFF" stroke-width="1.5" stroke-miterlimit="10" d="M33.797,973.125
				c0.635,0.867,1.281,1.512,1.598,2.082c0.682,1.633-0.576,2.723-1.291,3.984c-0.449,0.805-0.719,1.857-0.441,3.439
				c0.053,0.373,0.447,0.662,0.82,0.596c0.369-0.061,0.643-0.469,0.562-0.838c-0.24-1.361-0.043-1.934,0.285-2.52
				c1.039-1.582,2.352-3.336,1.27-5.342c-0.455-0.822-1.102-1.465-1.664-2.234c-0.137-0.195-0.377-0.318-0.613-0.305
				C33.6,972,33.6,972.701,33.797,973.125L33.797,973.125z M39.404,973.125c0.639,0.867,1.283,1.512,1.6,2.082
				c0.684,1.633-0.576,2.723-1.291,3.984c-0.449,0.805-0.719,1.857-0.441,3.439c0.053,0.373,0.445,0.662,0.818,0.596
				c0.371-0.061,0.645-0.469,0.564-0.838c-0.242-1.361-0.043-1.934,0.285-2.52c1.043-1.582,2.352-3.336,1.271-5.342
				c-0.459-0.822-1.102-1.465-1.666-2.234c-0.133-0.195-0.375-0.318-0.613-0.305C39.209,972,39.209,972.701,39.404,973.125
				L39.404,973.125z M45.014,973.125c0.639,0.867,1.283,1.512,1.602,2.082c0.682,1.633-0.576,2.723-1.295,3.984
				c-0.445,0.805-0.715,1.857-0.438,3.439c0.049,0.373,0.447,0.662,0.816,0.596c0.37-0.061,0.645-0.469,0.563-0.838
				c-0.24-1.361-0.046-1.934,0.282-2.52c1.045-1.582,2.354-3.336,1.273-5.342c-0.459-0.822-1.102-1.465-1.668-2.234
				c-0.133-0.195-0.373-0.318-0.613-0.305C44.816,972,44.816,972.701,45.014,973.125L45.014,973.125z M23.324,986.002
				c-0.945,0.014-1.248,0.645-1.295,1.445c0,12.662,2.195,19.977,10.016,27.789c0.127,0.141,0.316,0.219,0.502,0.223l16.829-0.043
				c0.184,0.006,0.371-0.072,0.504-0.199c2.084-2.07,3.756-4.123,5.104-6.242v0.177c2.677,0,6.099-1.238,8.938-3.593
				c2.836-2.354,5.084-5.886,5.084-10.423c-0.233-2.322-2.045-3.467-4.012-3.898c-1.815-0.303-3.535-0.287-5.19,0.197
				c0.059-1.271,0.088-2.592,0.088-3.986c0.065-0.582-0.246-0.922-0.57-1.291C47.025,986.039,34.438,985.984,23.324,986.002
				L23.324,986.002z M58.491,987.447c0,12.387-1.994,19.078-9.425,26.564l-16.189,0.045c-7.449-7.525-9.445-14.209-9.445-26.609
				C35.441,987.447,47.827,987.424,58.491,987.447L58.491,987.447z M64.713,992.615c1.369,0.33,2.873,1.143,2.889,2.52
				c0,4.082-1.961,7.203-4.555,9.35c-2.31,1.916-5.131,3.004-7.297,3.221c2.405-4.25,3.565-8.896,3.967-14.76
				C61.418,992.433,63.075,992.279,64.713,992.615z"/>
		</g>
	</g>
	<g id="bilbio">
	</g>
	<g id="snack">
	</g>
</g>
</svg>
