<?xml version="1.0" encoding="utf-8"?>
<!-- Generator: Adobe Illustrator 16.0.0, SVG Export Plug-In . SVG Version: 6.00 Build 0)  -->
<!DOCTYPE svg PUBLIC "-//W3C//DTD SVG 1.1//EN" "http://www.w3.org/Graphics/SVG/1.1/DTD/svg11.dtd">
<svg version="1.1" id="Calque_1" xmlns="http://www.w3.org/2000/svg" xmlns:xlink="http://www.w3.org/1999/xlink" x="0px" y="0px"
	 width="87.832px" height="96px" viewBox="0 0 87.832 96" enable-background="new 0 0 87.832 96" xml:space="preserve">
<g id="Calque_1_1_">
</g>
<g id="V2">
	<g id="resto">
	</g>
	<g id="bar_1_">
	</g>
	<g id="resto-u">
		<path fill="#ED5A5F" d="M43.915,94.016c-0.477,0-5.039-12.695-6.33-12.901C18.604,78.082,4.101,61.635,4.101,41.799
			c0-21.988,17.826-39.814,39.814-39.814c21.989,0,39.815,17.826,39.815,39.814c0,20.023-14.78,36.594-34.028,39.396
			C48.581,81.359,44.386,94.016,43.915,94.016"/>
		<g>
			<path fill="#FFFFFF" stroke="#FFFFFF" stroke-width="1.5" stroke-miterlimit="10" d="M56.908,16.85
				c-0.282-0.236-0.623-0.409-1.04-0.55l-9.13-3.111c-0.831-0.284-1.825-0.422-2.823-0.422c-0.997,0-1.993,0.138-2.823,0.422
				L31.961,16.3c-0.415,0.141-0.756,0.312-1.038,0.55c-0.284,0.236-0.533,0.59-0.533,1.021c0,0.434,0.249,0.795,0.533,1.031
				c0.282,0.236,0.623,0.4,1.04,0.542l9.13,3.11c1.661,0.567,3.984,0.567,5.646,0l9.131-3.11c0.416-0.142,0.757-0.306,1.039-0.542
				c0.283-0.236,0.533-0.598,0.533-1.031C57.441,17.439,57.189,17.086,56.908,16.85z M55.396,18.067l-9.121,3.11
				c-1.211,0.412-3.508,0.412-4.718,0l-9.121-3.11c-0.195-0.068-0.338-0.136-0.439-0.196c0.102-0.06,0.244-0.127,0.439-0.193
				l9.121-3.11c0.605-0.207,1.482-0.313,2.358-0.313s1.754,0.106,2.358,0.313l9.121,3.11c0.195,0.066,0.338,0.134,0.439,0.193
				C55.732,17.932,55.591,17.999,55.396,18.067z"/>
			<path fill="#FFFFFF" stroke="#FFFFFF" stroke-width="1.5" stroke-miterlimit="10" d="M51.018,24.415v0.566
				c0,0.107-0.06,0.271-0.348,0.515c-0.287,0.246-0.779,0.517-1.421,0.744c-1.276,0.459-3.131,0.762-5.19,0.762h-0.286
				c-2.06,0-3.913-0.303-5.19-0.762c-0.641-0.228-1.134-0.498-1.421-0.744c-0.288-0.244-0.347-0.407-0.347-0.515v-0.566v-1.826
				L35.36,22.09v2.325v0.566c0,0.654,0.365,1.209,0.854,1.623c0.488,0.415,1.127,0.737,1.877,1.005
				c1.502,0.538,3.481,0.847,5.682,0.847h0.286c2.2,0,4.181-0.309,5.682-0.847c0.75-0.268,1.389-0.59,1.877-1.005
				c0.487-0.414,0.854-0.969,0.854-1.623v-0.566V22.09l-1.455,0.499V24.415L51.018,24.415z"/>
		</g>
		<g>
			<path fill="#FFFFFF" stroke="#FFFFFF" stroke-width="1.5" stroke-miterlimit="10" d="M48.637,55.96v10.147
				c0,2.279,1.809,4.209,4.012,4.246c0.039,0,0.078,0,0.117,0c2.282,0,4.172-1.849,4.172-4.168v-7.199v-11.52V35.234
				c0-1.612-1.34-2.949-2.951-2.949c-3.776,0-6.844,3.067-6.844,6.843v14.669C47.182,54.779,47.771,55.605,48.637,55.96z
				 M54.105,33.751c0.785,0,1.447,0.633,1.447,1.386v12.311v11.591v7.244c0,1.425-1.199,2.611-2.73,2.611c-0.04,0-0.04,0-0.081,0
				c-1.49-0.041-2.647-1.269-2.647-2.692V55.318c0-0.396-0.33-0.754-0.785-0.754c-0.412,0-0.787-0.313-0.787-0.748v-14.76
				C48.562,36.127,51.047,33.751,54.105,33.751L54.105,33.751z"/>
			<path fill="#FFFFFF" stroke="#FFFFFF" stroke-width="1.5" stroke-miterlimit="10" d="M33.953,49.872l-0.655,16.146v0.037v0.039
				c0,2.34,2.099,4.248,4.676,4.248c2.577,0,4.676-1.908,4.676-4.248v-0.039v-0.037l-0.657-16.146
				c1.835-0.952,3.016-2.737,3.016-4.722V34.281c0-1.309-1.181-2.379-2.622-2.379c-0.917,0-1.466,0.593-1.947,1.268
				c-0.438-0.675-1.503-1.268-2.465-1.268c-0.918,0-1.748,0.437-2.229,1.109c-0.479-0.673-1.267-1.109-2.228-1.109
				c-1.442,0-2.622,1.07-2.622,2.379v10.83C30.939,47.096,32.12,48.92,33.953,49.872z M32.458,34.575c0-0.43,0.72-0.743,1.232-0.743
				l0.157,0.038c0.515,0,1.156,0.254,1.156,0.684v6.875c0,0.429,0.42,0.755,0.932,0.755l-0.127,0.01
				c0.514,0,0.876-0.373,0.876-0.802v-6.745c0-0.429,0.79-0.843,1.306-0.843l0.115-0.009c0.514,0,1.667,0.311,1.667,0.739
				l-0.019,6.818c0,0.654,0.533,0.808,0.807,0.808l-0.312,0.033c0.513,0,0.97-0.248,0.97-0.678v-6.93c0-0.43,0.72-0.747,1.232-0.747
				c0.512,0,1.301,0.307,1.301,0.736V45.24c0,1.719-1.4,3.204-3.269,3.633l0.748,16.956c0,1.444-1.4,2.616-3.126,2.616l0,0
				c-1.729,0-3.127-1.172-3.127-2.616l0.746-16.956c-1.914-0.468-3.267-1.914-3.267-3.633V34.575H32.458z"/>
		</g>
	</g>
	<g id="asso">
	</g>
	<g id="bar">
	</g>
	<g id="bilbio">
	</g>
	<g id="snack">
	</g>
</g>
</svg>
