<?xml version="1.0" encoding="utf-8"?>
<!-- Generator: Adobe Illustrator 16.0.0, SVG Export Plug-In . SVG Version: 6.00 Build 0)  -->
<!DOCTYPE svg PUBLIC "-//W3C//DTD SVG 1.1//EN" "http://www.w3.org/Graphics/SVG/1.1/DTD/svg11.dtd">
<svg version="1.1" id="Calque_1" xmlns="http://www.w3.org/2000/svg" xmlns:xlink="http://www.w3.org/1999/xlink" x="0px" y="0px"
	 width="87.832px" height="96.582px" viewBox="0 0 87.832 96.582" enable-background="new 0 0 87.832 96.582" xml:space="preserve">
<g id="Calque_1_1_">
</g>
<g id="V2">
	<g id="resto">
	</g>
	<g id="bar_1_">
	</g>
	<g id="resto-u">
	</g>
	<g id="asso">
	</g>
	<g id="bar">
	</g>
	<g id="bilbio">
		<path fill="#9A5C3C" d="M43.915,94.307c-0.477,0-5.039-12.695-6.33-12.902C18.604,78.373,4.101,61.926,4.101,42.09
			c0-21.988,17.826-39.814,39.814-39.814c21.989,0,39.815,17.826,39.815,39.814c0,20.023-14.78,36.594-34.028,39.396
			C48.581,81.65,44.386,94.307,43.915,94.307"/>
		<g transform="translate(5.9921265,958.35431)">
			<path fill="#FFFFFF" stroke="#FFFFFF" stroke-miterlimit="10" d="M26.911-938.507c-4.274,0-8.581,1.556-12.856,4.47
				c-0.52,0.355-0.809,0.94-0.809,1.522v32.383c0,0.679,0.422,1.358,1.067,1.653c0.618,0.29,1.396,0.192,1.945-0.259
				c5.473-4.6,12.014-5.054,20.758,0.159c0.584,0.355,1.327,0.327,1.878,0c4.438-2.687,7.645-3.883,10.621-3.883
				c3.014-0.031,6.057,1.13,10.266,3.853c1.104,0.713,2.82-0.228,2.82-1.521c0-14.865,0-17.52,0-32.385
				c0-0.583-0.293-1.134-0.744-1.489c-4.049-2.947-8.227-4.502-12.504-4.502c-3.883,0-7.738,1.36-11.463,3.822
				C34.329-936.757,30.829-938.507,26.911-938.507z M26.269-935.842c3.315,0,6.563,1.103,9.812,3.487v30.299
				c-7.635-3.662-14.685-3.662-20.484-0.413v-29.713C19.36-934.599,22.916-935.842,26.269-935.842z M49.82-935.653
				c3.344,0,6.756,1.252,10.305,3.653c0,13.23,0.035,18.383,0.035,30.43c-3.549-1.915-6.859-3.24-10.164-3.204
				c-3.379,0-6.754,1.218-10.482,3.167v-30.532C42.826-934.019,46.545-935.617,49.82-935.653z M26.49-930.377
				c-2.461,0-4.92,0.712-7.319,2.136c-0.421,0.259-0.583,0.844-0.323,1.264c0.226,0.42,0.842,0.549,1.263,0.322
				c2.172-1.295,4.273-1.94,6.379-1.94c2.105,0,4.209,0.645,6.382,1.94c0.421,0.227,1.002,0.098,1.262-0.322
				c0.261-0.42,0.099-1.003-0.324-1.264C31.413-929.664,28.952-930.377,26.49-930.377z M49.354-930.377
				c-2.459,0-4.922,0.712-7.35,2.136c-0.391,0.259-0.551,0.844-0.291,1.264c0.225,0.42,0.84,0.549,1.23,0.322
				c2.17-1.295,4.271-1.94,6.377-1.94c2.107,0,4.244,0.645,6.412,1.94c0.422,0.227,1.004,0.098,1.266-0.322
				c0.223-0.42,0.096-1.003-0.324-1.264C54.279-929.664,51.815-930.377,49.354-930.377z M26.49-924.872
				c-2.461,0-4.92,0.681-7.319,2.138c-0.421,0.227-0.583,0.841-0.323,1.231c0.226,0.421,0.842,0.579,1.263,0.323
				c2.138-1.296,4.245-1.944,6.317-1.944c2.137,0,4.272,0.648,6.445,1.944c0.42,0.256,1.001,0.098,1.262-0.323
				c0.26-0.39,0.099-1.004-0.324-1.231C31.413-924.191,28.952-924.872,26.49-924.872z M49.354-924.872
				c-2.459,0-4.922,0.681-7.35,2.138c-0.391,0.227-0.551,0.841-0.291,1.231c0.225,0.421,0.84,0.579,1.23,0.323
				c2.17-1.296,4.271-1.944,6.377-1.944c2.107,0,4.244,0.648,6.412,1.944c0.422,0.256,1.004,0.098,1.266-0.323
				c0.223-0.39,0.096-1.004-0.324-1.231C54.279-924.191,51.815-924.872,49.354-924.872z M26.49-919.398
				c-2.461,0-4.92,0.678-7.319,2.138c-0.421,0.257-0.583,0.84-0.323,1.263c0.226,0.389,0.842,0.549,1.263,0.292
				c2.106-1.262,4.179-1.911,6.251-1.946c2.135-0.028,4.307,0.619,6.51,1.946c0.421,0.258,1.002,0.098,1.262-0.292
				c0.259-0.423,0.099-1.005-0.324-1.263C31.413-918.72,28.952-919.398,26.49-919.398z M49.354-919.398
				c-2.459,0-4.922,0.678-7.35,2.138c-0.391,0.257-0.551,0.84-0.291,1.263c0.225,0.389,0.84,0.549,1.23,0.292
				c2.137-1.262,4.209-1.911,6.281-1.946c2.139-0.028,4.275,0.619,6.508,1.946c0.422,0.258,1.004,0.098,1.266-0.292
				c0.223-0.423,0.096-1.005-0.324-1.263C54.279-918.72,51.815-919.398,49.354-919.398L49.354-919.398z M26.49-913.925
				c-2.461,0-4.92,0.713-7.319,2.138c-0.421,0.255-0.583,0.841-0.323,1.261c0.226,0.421,0.842,0.551,1.263,0.323
				c2.172-1.328,4.273-1.975,6.412-1.975c2.105,0.034,4.177,0.682,6.349,1.975c0.421,0.228,1.002,0.098,1.262-0.323
				c0.261-0.419,0.099-1.004-0.324-1.261C31.413-913.212,28.952-913.925,26.49-913.925z M49.354-913.925
				c-2.459,0-4.922,0.713-7.35,2.138c-0.391,0.255-0.551,0.841-0.291,1.261c0.225,0.421,0.84,0.551,1.23,0.323
				c2.137-1.261,4.178-1.909,6.217-1.975c2.172-0.031,4.34,0.617,6.574,1.975c0.42,0.228,1.004,0.098,1.264-0.323
				c0.225-0.419,0.096-1.004-0.324-1.261C54.279-913.212,51.815-913.925,49.354-913.925z"/>
		</g>
	</g>
	<g id="snack">
	</g>
</g>
</svg>
