<?xml version="1.0" encoding="utf-8"?>
<!-- Generator: Adobe Illustrator 16.0.0, SVG Export Plug-In . SVG Version: 6.00 Build 0)  -->
<!DOCTYPE svg PUBLIC "-//W3C//DTD SVG 1.1//EN" "http://www.w3.org/Graphics/SVG/1.1/DTD/svg11.dtd">
<svg version="1.1" id="Calque_1" xmlns="http://www.w3.org/2000/svg" xmlns:xlink="http://www.w3.org/1999/xlink" x="0px" y="0px"
	 width="31.364px" height="34.091px" viewBox="0 0 31.364 34.091" enable-background="new 0 0 31.364 34.091" xml:space="preserve">
<g>
	<ellipse fill="none" stroke="#333333" stroke-miterlimit="10" cx="15.306" cy="6.755" rx="2.537" ry="2.477"/>
	<path fill="none" stroke="#333333" stroke-miterlimit="10" d="M21.625,23.607c-0.854,4.66-5.417,7.765-10.191,6.932
		s-7.951-5.289-7.099-9.95c0.727-3.966,4.182-6.902,8.305-7.06"/>
	<path fill="none" stroke="#333333" stroke-miterlimit="10" d="M26.94,28.84c0.251,0.607-0.051,1.299-0.674,1.543
		c-0.621,0.245-1.329-0.05-1.581-0.657l-2.514-6.136c-0.069-0.246-0.303-0.412-0.563-0.402h-5.131c-1.939,0-3.51-1.536-3.51-3.429
		v-6.487c-0.023-1.202,0.886-2.227,2.108-2.378c1.288-0.121,2.434,0.8,2.558,2.059c0.008,0.073,0.012,0.147,0.012,0.219l0.613,5.542
		c0.019,0.275,0.243,0.493,0.525,0.514l4.148,0.385c0.925,0.085,1.71,0.696,2.001,1.556L26.94,28.84z"/>
</g>
</svg>
