<?xml version="1.0" encoding="utf-8"?>
<!-- Generator: Adobe Illustrator 16.0.0, SVG Export Plug-In . SVG Version: 6.00 Build 0)  -->
<!DOCTYPE svg PUBLIC "-//W3C//DTD SVG 1.1//EN" "http://www.w3.org/Graphics/SVG/1.1/DTD/svg11.dtd">
<svg version="1.1" id="Calque_1" xmlns="http://www.w3.org/2000/svg" xmlns:xlink="http://www.w3.org/1999/xlink" x="0px" y="0px"
	 width="29.182px" height="29px" viewBox="0 0 29.182 29" enable-background="new 0 0 29.182 29" xml:space="preserve">
<circle fill="#D8D9D8" cx="14.591" cy="14.499" r="13.625"/>
<g>
	<path fill="none" stroke="#FFFFFF" stroke-miterlimit="10" d="M8.388,20.945L21.386,6.885c0.156-0.169,0.409-0.169,0.565,0
		c0.154,0.169,0.154,0.442,0,0.611L8.952,21.557c-0.156,0.168-0.409,0.168-0.564,0C8.231,21.389,8.231,21.113,8.388,20.945z"/>
	<path fill="none" stroke="#FFFFFF" stroke-miterlimit="10" d="M8.952,6.886l12.999,14.06c0.154,0.169,0.154,0.443,0,0.611
		c-0.156,0.168-0.409,0.168-0.565,0L8.388,7.497c-0.156-0.169-0.156-0.442,0-0.611C8.543,6.717,8.796,6.717,8.952,6.886z"/>
</g>
</svg>
