<?xml version="1.0" encoding="utf-8"?>
<!-- Generator: Adobe Illustrator 16.0.0, SVG Export Plug-In . SVG Version: 6.00 Build 0)  -->
<!DOCTYPE svg PUBLIC "-//W3C//DTD SVG 1.1//EN" "http://www.w3.org/Graphics/SVG/1.1/DTD/svg11.dtd">
<svg version="1.1" id="Calque_1" xmlns="http://www.w3.org/2000/svg" xmlns:xlink="http://www.w3.org/1999/xlink" x="0px" y="0px"
	 width="100px" height="100px" viewBox="0 0 100 100" enable-background="new 0 0 100 100" xml:space="preserve">
<g id="Calque_3">
</g>
<g id="Calque_7">
</g>
<g id="Calque_6">
	<g id="Calque_5">
	</g>
</g>
<g id="Calque_2">
</g>
<path fill="#4FC5DA" stroke="#4FC5DA" stroke-width="1.5" stroke-miterlimit="10" d="M12.081,66.369l3.146,20.134
	c0.174,1.114,0.679,2.121,1.42,2.834c0.685,0.658,1.533,1.016,2.38,1.016c0.156,0,0.311-0.013,0.466-0.037l2.271-0.354
	c0.642,1.994,2.506,3.365,4.602,3.365c0.248,0,0.498-0.019,0.749-0.058l6.578-1.029c1.279-0.2,2.403-0.885,3.167-1.931
	c0.762-1.046,1.072-2.325,0.873-3.604l-4.574-29.268c-0.414-2.64-2.899-4.453-5.535-4.039l-6.578,1.028
	c-2.639,0.412-4.449,2.895-4.038,5.534l0.177,1.136l-1.573,0.243c-0.877-3.39-1.431-12.702-1.431-16.686
	c0-19.749,16.068-35.816,35.818-35.816s35.819,16.067,35.819,35.816c0,3.983-0.557,13.296-1.433,16.686l-1.572-0.243l0.177-1.136
	c0.412-2.64-1.4-5.122-4.038-5.534l-6.578-1.028c-2.646-0.414-5.121,1.399-5.534,4.039l-4.574,29.268
	c-0.201,1.278,0.11,2.558,0.872,3.604c0.765,1.046,1.887,1.73,3.167,1.931l6.578,1.029c0.251,0.039,0.503,0.058,0.748,0.058
	c2.097,0,3.96-1.371,4.604-3.365l2.27,0.354c0.155,0.024,0.311,0.037,0.465,0.037c0.85,0,1.695-0.355,2.381-1.016
	c0.743-0.713,1.246-1.72,1.42-2.834l3.147-20.134c0.275-1.766-0.355-3.416-1.485-4.299c1.021-3.723,1.552-13.811,1.552-17.417
	c0-20.942-17.039-37.98-37.983-37.98s-37.983,17.038-37.983,37.98c0,3.606,0.528,13.694,1.551,17.417
	C12.436,62.951,11.806,64.604,12.081,66.369z M76.274,88.894c-0.227,1.459-1.593,2.468-3.06,2.233l-6.579-1.028
	c-0.706-0.112-1.329-0.49-1.752-1.068c-0.421-0.578-0.592-1.285-0.48-1.994l4.574-29.267c0.206-1.319,1.349-2.266,2.646-2.266
	c0.138,0,0.275,0.011,0.416,0.03l6.577,1.03c0.707,0.11,1.33,0.488,1.751,1.066s0.595,1.285,0.483,1.994L76.274,88.894z
	 M85.776,66.036l-3.147,20.132c-0.1,0.64-0.383,1.227-0.78,1.608c-0.188,0.178-0.558,0.472-1.014,0.398l-2.202-0.344l3.844-24.599
	l2.202,0.346C85.449,63.698,85.961,64.847,85.776,66.036z M19.628,57.633c0.422-0.578,1.044-0.958,1.75-1.068l6.578-1.027
	c0.14-0.022,0.278-0.031,0.416-0.031c1.296,0,2.439,0.944,2.645,2.266l4.574,29.268c0.112,0.706-0.06,1.415-0.481,1.993
	c-0.424,0.578-1.045,0.959-1.752,1.069l-6.578,1.027c-1.467,0.23-2.833-0.774-3.062-2.233l-4.574-29.271
	C19.036,58.918,19.208,58.211,19.628,57.633z M21.362,87.831l-2.205,0.346c-0.442,0.069-0.825-0.221-1.01-0.4
	c-0.397-0.382-0.683-0.969-0.782-1.606l-3.146-20.132c-0.186-1.191,0.327-2.34,1.095-2.46l2.203-0.343L21.362,87.831z"/>
</svg>
