<?xml version="1.0" encoding="utf-8"?>
<!-- Generator: Adobe Illustrator 16.0.0, SVG Export Plug-In . SVG Version: 6.00 Build 0)  -->
<!DOCTYPE svg PUBLIC "-//W3C//DTD SVG 1.1//EN" "http://www.w3.org/Graphics/SVG/1.1/DTD/svg11.dtd">
<svg version="1.1" id="Calque_1" xmlns="http://www.w3.org/2000/svg" xmlns:xlink="http://www.w3.org/1999/xlink" x="0px" y="0px"
	 width="100px" height="100px" viewBox="0 0 100 100" enable-background="new 0 0 100 100" xml:space="preserve">
<g id="Calque_4">
</g>
<g id="Calque_3">
</g>
<g id="Calque_7">
	<g>
		<g>
			<g>
				<path fill="#4FC5DA" stroke="#4FC5DA" stroke-miterlimit="10" d="M50,86.896c-21.669,0-39.215-16.511-39.215-36.895
					c0-20.389,17.546-36.896,39.215-36.896c21.669,0,39.215,16.584,39.215,36.896C89.212,70.385,71.666,86.896,50,86.896z
					 M50,14.245c-20.94,0-38,16.052-38,35.755c0,19.699,17.061,35.751,38,35.751c20.939,0,37.996-16.052,37.996-35.751
					C87.997,30.297,70.937,14.245,50,14.245z"/>
			</g>
			<g>
				<rect x="11.351" y="49.392" fill="#4FC5DA" stroke="#4FC5DA" stroke-miterlimit="10" width="77.62" height="1.144"/>
			</g>
		</g>
		<g>
			<path fill="#4FC5DA" stroke="#4FC5DA" stroke-miterlimit="10" d="M49.434,34.481c-4.365,0-8.327-0.457-11.64-0.988
				c-10.674-1.905-17.71-5.782-18.114-6.239l0.082-0.763l0.89,0.838l-0.402-0.38h0.644c0-0.229-0.159-0.381-0.159-0.381
				c0.241,0.15,2.019,1.217,5.094,2.434c2.749,1.068,7.196,2.585,12.772,3.498c9.542,1.599,24.499,1.829,41.074-6.087l0.566,1.068
				C68.756,32.809,58.082,34.481,49.434,34.481z"/>
		</g>
		<g>
			<path fill="#4FC5DA" stroke="#4FC5DA" stroke-miterlimit="10" d="M79.67,73.198c-16.576-7.909-31.451-7.683-41.073-6.084
				c-5.578,0.916-10.025,2.434-12.773,3.501c-3.073,1.217-4.853,2.281-5.094,2.434c0,0,0.159-0.152,0.159-0.379h-0.646l-0.406,0.379
				l-0.08-0.763c0.404-0.456,7.44-4.414,18.11-6.239c9.866-1.747,25.226-2.052,42.286,6.091L79.67,73.198z"/>
		</g>
		<g>
			<path fill="#4FC5DA" stroke="#4FC5DA" stroke-miterlimit="10" d="M50,86.896c-11.24,0-20.377-16.583-20.377-37.044
				c0-9.736,2.099-18.942,5.82-25.862c3.882-7.001,9.056-10.881,14.554-10.881s10.672,3.879,14.552,10.955
				c3.804,6.92,5.82,16.126,5.82,25.862C70.374,70.312,61.237,86.896,50,86.896z M50,14.245c-10.592,0-19.163,15.977-19.163,35.603
				c0,9.585,2.021,18.64,5.74,25.483c3.637,6.772,8.41,10.423,13.425,10.423c5.01,0,9.78-3.729,13.42-10.423
				c3.717-6.844,5.737-15.898,5.737-25.483C69.16,30.223,60.589,14.245,50,14.245z"/>
		</g>
		<g>
			<rect x="49.354" y="13.641" fill="#4FC5DA" stroke="#4FC5DA" stroke-miterlimit="10" width="1.214" height="72.722"/>
		</g>
	</g>
</g>
<g id="Calque_6">
	<g id="Calque_5">
	</g>
</g>
<g id="Calque_2">
</g>
</svg>
