<?xml version="1.0" encoding="utf-8"?>
<!-- Generator: Adobe Illustrator 16.0.0, SVG Export Plug-In . SVG Version: 6.00 Build 0)  -->
<!DOCTYPE svg PUBLIC "-//W3C//DTD SVG 1.1//EN" "http://www.w3.org/Graphics/SVG/1.1/DTD/svg11.dtd">
<svg version="1.1" id="Calque_1" xmlns="http://www.w3.org/2000/svg" xmlns:xlink="http://www.w3.org/1999/xlink" x="0px" y="0px"
	 width="100px" height="100px" viewBox="0 0 100 100" enable-background="new 0 0 100 100" xml:space="preserve">
<g id="Calque_4">
</g>
<g id="Calque_3">
</g>
<g id="Calque_7">
</g>
<g id="Calque_6">
	<g id="Calque_5">
	</g>
</g>
<g id="Calque_2">
</g>
<path fill="#4EC4DA" d="M93.5,53.185L93.5,53.185c0,0.933-0.622,1.554-1.554,1.554H74.857c-0.622,0-1.088-0.311-1.398-0.777
	L61.184,30.659l-16,43.188c-0.156,0.62-0.777,1.087-1.398,1.087l0,0c-0.621,0-1.243-0.467-1.398-1.087L31.202,39.048l-6.214,14.758
	c-0.155,0.622-0.776,0.933-1.397,0.933H8.055c-0.932,0-1.554-0.621-1.554-1.554l0,0c0-0.933,0.622-1.554,1.554-1.554h14.447
	l7.301-17.709c0.311-0.622,0.933-0.932,1.554-0.932c0.622,0,1.243,0.466,1.398,1.087l11.03,34.488L59.32,26.154
	c0.155-0.622,0.776-0.932,1.398-1.087c0.62,0,1.242,0.311,1.553,0.777L75.79,51.631h16.156C92.878,51.631,93.5,52.252,93.5,53.185z"
	/>
</svg>
