<?xml version="1.0" encoding="utf-8"?>
<!-- Generator: Adobe Illustrator 16.0.0, SVG Export Plug-In . SVG Version: 6.00 Build 0)  -->
<!DOCTYPE svg PUBLIC "-//W3C//DTD SVG 1.1//EN" "http://www.w3.org/Graphics/SVG/1.1/DTD/svg11.dtd">
<svg version="1.1" id="Calque_1" xmlns="http://www.w3.org/2000/svg" xmlns:xlink="http://www.w3.org/1999/xlink" x="0px" y="0px"
	 width="109px" height="100px" viewBox="-4.75 0 109 100" enable-background="new -4.75 0 109 100" xml:space="preserve">
<g id="Calque_4">
</g>
<g id="Calque_3">
</g>
<g id="Calque_7">
</g>
<g id="Calque_6">
	<g id="Calque_5">
	</g>
</g>
<g id="Calque_2">
</g>
<path fill="#4FC5DA" stroke="#4FC5DA" stroke-miterlimit="10" d="M87.488,44.986c-3.748-0.689-7.992-1.468-12.293-2.904
	c-13.83-4.608-33.734-19.759-33.931-19.911c-0.305-0.23-0.701-0.302-1.066-0.191c-0.366,0.112-0.652,0.396-0.775,0.756
	c-0.045,0.135-4.583,13.378-15.427,13.378c-10.459,0-10.634-9.074-10.638-9.456c0-0.426-0.227-0.819-0.598-1.03
	c-0.368-0.21-0.824-0.204-1.19,0.017c-0.258,0.153-6.357,3.911-8.813,13.729c-1.155,4.631-1.221,10.365-1.218,11.789
	c-0.734,1.272-3.628,6.528-4.703,11.903c-0.08,0.388,0.043,0.789,0.322,1.067c2.763,2.762,10.528,7.438,22.111,7.438H31.09
	c2.416,0,4.529-0.556,6.767-1.146c2.279-0.6,4.637-1.217,7.414-1.217c2.985,0,5.862,0.714,8.398,1.349
	c2.094,0.521,4.07,1.014,5.784,1.014H74.82c0.677,0,1.365-0.023,2.057-0.062c0.1,0.029,0.203,0.062,0.308,0.062
	c0.173,0,0.339-0.048,0.499-0.122c9.692-0.733,20.387-4.963,24.042-9.747c1.391-1.49,1.462-4.832,1.462-5.496
	C103.188,47.869,95.911,46.532,87.488,44.986z M11.285,28.874c0.741,3.424,3.372,9.602,12.711,9.602
	c10.272,0,15.439-9.666,17.083-13.486c1.944,1.446,5.944,4.345,10.842,7.53l-5.12,5.121c-0.464,0.463-0.464,1.21,0,1.673
	c0.229,0.229,0.533,0.346,0.834,0.346c0.304,0,0.604-0.117,0.835-0.346l5.487-5.487c0.989,0.628,2.009,1.259,3.045,1.887
	l-5.474,5.474c-0.462,0.463-0.462,1.211,0,1.671c0.23,0.229,0.534,0.349,0.835,0.349c0.302,0,0.605-0.119,0.834-0.349l5.899-5.897
	c1.036,0.609,2.087,1.208,3.145,1.789l-4.804,4.802c-0.463,0.461-0.463,1.209,0,1.669c0.229,0.232,0.534,0.348,0.834,0.348
	c0.305,0,0.606-0.116,0.836-0.346l5.307-5.308c1.103,0.578,2.2,1.127,3.289,1.643l-4.356,4.36c-0.463,0.462-0.463,1.208,0,1.671
	c0.231,0.229,0.533,0.345,0.834,0.345c0.304,0,0.606-0.116,0.838-0.345l4.728-4.729c0.084-0.082,0.135-0.183,0.189-0.287
	c1.222,0.539,2.423,1.016,3.593,1.434l-4.272,4.274c-0.462,0.462-0.462,1.208,0,1.67c0.23,0.232,0.534,0.346,0.836,0.346
	c0.304,0,0.605-0.113,0.837-0.346l4.726-4.728c0.132-0.131,0.217-0.287,0.272-0.449c3.93,1.187,7.734,1.914,11.132,2.539
	c8.733,1.603,13.421,2.742,13.731,8.3c-1.572,1.019-7.232,4.141-17.698,4.141H63.001c-5.983,0-12.651-0.93-19.101-1.834
	c-6.314-0.879-12.277-1.712-17.54-1.712c-6.201,0-13.763-1.866-22.455-5.519c0.02-1.875,0.164-6.816,1.146-10.742
	C6.531,34.028,9.487,30.537,11.285,28.874z M99.988,60.098c-0.039,0.039-0.077,0.083-0.109,0.128
	c-2.614,3.481-10.77,7.302-19.411,8.551l1.098-1.098c0.463-0.464,0.463-1.212,0-1.672c-0.462-0.463-1.208-0.463-1.671,0
	l-3.145,3.146c-0.646,0.039-1.289,0.057-1.93,0.057h-1.873l1.527-1.53c0.461-0.46,0.461-1.21,0-1.67
	c-0.464-0.463-1.21-0.463-1.672,0l-3.2,3.2h-3.748l1.529-1.53c0.463-0.46,0.463-1.21,0-1.67c-0.462-0.463-1.209-0.463-1.672,0
	l-3.198,3.2h-3.061c-0.204,0-0.428-0.029-0.646-0.047l1.485-1.483c0.462-0.46,0.462-1.21,0-1.67c-0.464-0.463-1.21-0.463-1.673,0
	l-2.364,2.362c-0.094,0.098-0.159,0.211-0.215,0.324c-0.573-0.131-1.17-0.273-1.799-0.433c-0.424-0.104-0.862-0.213-1.304-0.322
	l1.443-1.442c0.463-0.465,0.463-1.211,0-1.67c-0.461-0.465-1.207-0.465-1.671,0l-2.364,2.361c-0.048,0.049-0.072,0.11-0.108,0.164
	c-1.082-0.205-2.204-0.361-3.36-0.446l1.592-1.591c0.462-0.465,0.462-1.21,0-1.673c-0.459-0.462-1.208-0.462-1.669,0l-3.289,3.29
	c-1.621,0.132-3.104,0.418-4.509,0.76l2.378-2.377c0.462-0.465,0.462-1.21,0-1.673c-0.463-0.462-1.209-0.462-1.673,0l-4.728,4.728
	c-0.113,0.115-0.198,0.247-0.256,0.388c-1.199,0.26-2.394,0.45-3.635,0.45h-0.693l3.892-3.893c0.461-0.465,0.461-1.21,0-1.673
	c-0.463-0.462-1.208-0.462-1.67,0l-5.566,5.565h-3.749l3.895-3.893c0.459-0.465,0.459-1.21,0-1.673c-0.464-0.462-1.21-0.462-1.673,0
	l-5.563,5.565h-0.694c-1.013,0-1.985-0.048-2.935-0.122l3.772-3.771c0.461-0.465,0.461-1.21,0-1.673
	c-0.464-0.462-1.21-0.462-1.673,0l-4.728,4.728c-0.113,0.117-0.196,0.247-0.255,0.39c-1.132-0.175-2.211-0.396-3.229-0.649
	l3.977-3.978c0.462-0.461,0.462-1.209,0-1.671c-0.463-0.462-1.209-0.462-1.671,0l-4.728,4.727c-0.054,0.055-0.08,0.123-0.123,0.185
	c-0.986-0.33-1.9-0.688-2.746-1.063l4.54-4.542c0.461-0.462,0.461-1.206,0-1.671c-0.463-0.462-1.21-0.462-1.671,0l-4.728,4.73
	c-0.128,0.125-0.213,0.277-0.27,0.438c-0.936-0.513-1.744-1.026-2.411-1.509l4.351-4.352c0.461-0.462,0.461-1.21,0-1.671
	c-0.463-0.462-1.208-0.462-1.671,0l-3.261,3.261c1.042-3.415,2.623-6.541,3.427-8.02C12.124,56.689,19.9,58.57,26.36,58.57
	c5.098,0,10.984,0.821,17.213,1.692c6.529,0.909,13.28,1.854,19.427,1.854h20.092c8.971,0,14.68-2.188,17.515-3.667
	C100.465,59.188,100.258,59.827,99.988,60.098z"/>
</svg>
