<?xml version="1.0" encoding="utf-8"?>
<!-- Generator: Adobe Illustrator 16.0.0, SVG Export Plug-In . SVG Version: 6.00 Build 0)  -->
<!DOCTYPE svg PUBLIC "-//W3C//DTD SVG 1.1//EN" "http://www.w3.org/Graphics/SVG/1.1/DTD/svg11.dtd">
<svg version="1.1" xmlns="http://www.w3.org/2000/svg" xmlns:xlink="http://www.w3.org/1999/xlink" x="0px" y="0px" width="100px"
	 height="100px" viewBox="0 0 100 100" enable-background="new 0 0 100 100" xml:space="preserve">
<g id="dab">
</g>
<g id="bar">
</g>
<g id="asso">
</g>
<g id="biblio">
</g>
<g id="detente">
	<g>
		<defs>
			<path id="SVGID_1_" d="M-167.674,271.402h-44.648c-1.28,0-2.321,1.023-2.321,2.28v32.635c0,1.256,1.041,2.28,2.321,2.28h6.17
				c0.684,0,1.299-0.292,1.726-0.757c0.423,0.465,1.039,0.757,1.723,0.757h6.17c0.683,0,1.299-0.292,1.726-0.757
				c0.423,0.465,1.04,0.757,1.722,0.757h6.172c0.683,0,1.298-0.292,1.725-0.757c0.423,0.465,1.039,0.757,1.723,0.757h6.17
				c0.685,0,1.299-0.292,1.724-0.757c0.426,0.465,1.041,0.757,1.725,0.757h6.17c1.28,0,2.32-1.024,2.32-2.28v-32.635
				C-165.354,272.426-166.396,271.402-167.674,271.402z M-205.414,306.317c0,0.399-0.331,0.727-0.739,0.727h-6.17
				c-0.408,0-0.74-0.327-0.74-0.727v-32.635c0-0.4,0.333-0.727,0.74-0.727h5.175v19.758c0,0.284,0.236,0.516,0.525,0.516h1.208
				V306.317z M-195.794,306.317c0,0.399-0.332,0.727-0.737,0.727h-6.172c-0.406,0-0.738-0.327-0.738-0.727v-13.086h1.208
				c0.289,0,0.525-0.233,0.525-0.516v-19.76h4.18v19.758c0,0.284,0.236,0.516,0.524,0.516h1.209L-195.794,306.317L-195.794,306.317z
				 M-186.175,306.317c0,0.399-0.332,0.727-0.737,0.727h-6.173c-0.405,0-0.738-0.327-0.738-0.727v-13.086h1.209
				c0.29,0,0.526-0.233,0.526-0.516v-19.76h5.176c0.405,0,0.737,0.326,0.737,0.727V306.317z M-176.554,306.317
				c0,0.399-0.333,0.727-0.739,0.727h-6.172c-0.405,0-0.739-0.327-0.739-0.727v-32.635c0-0.4,0.334-0.727,0.739-0.727h5.177v19.758
				c0,0.284,0.235,0.516,0.526,0.516h1.208V306.317z M-166.935,306.317c0,0.399-0.333,0.727-0.739,0.727h-6.172
				c-0.405,0-0.738-0.327-0.738-0.727v-13.086h1.208c0.292,0,0.526-0.233,0.526-0.516v-19.76h5.176c0.406,0,0.739,0.326,0.739,0.727
				V306.317z"/>
		</defs>
		<use xlink:href="#SVGID_1_"  overflow="visible" fill-rule="evenodd" clip-rule="evenodd" fill="#FFFFFF"/>
		<clipPath id="SVGID_2_">
			<use xlink:href="#SVGID_1_"  overflow="visible"/>
		</clipPath>
		<g clip-path="url(#SVGID_2_)">
			<defs>
				<rect id="SVGID_3_" x="-451.487" y="-269.456" width="512.316" height="911.241"/>
			</defs>
			<use xlink:href="#SVGID_3_"  overflow="visible" fill="#FFFFFF"/>
			<clipPath id="SVGID_4_">
				<use xlink:href="#SVGID_3_"  overflow="visible"/>
			</clipPath>
		</g>
	</g>
</g>
<g id="soins">
</g>
<g id="laverie">
	<g id="machine">
	</g>
</g>
<g id="culture">
</g>
<g id="impressions">
</g>
<g id="resto-u">
</g>
<g id="restau">
	<ellipse fill="#EE585F" stroke="#FFFFFF" stroke-width="3" stroke-miterlimit="10" cx="50" cy="50" rx="46.776" ry="45.485"/>
	<g>
		<g enable-background="new    ">
			<g>
				<defs>
					<rect id="SVGID_13_" x="28.753" y="19.796" width="24.441" height="60.387"/>
				</defs>
				<clipPath id="SVGID_6_">
					<use xlink:href="#SVGID_13_"  overflow="visible"/>
				</clipPath>
				<g clip-path="url(#SVGID_6_)">
					<defs>
						<path id="SVGID_15_" d="M34.213,48.09l-1.054,25.303v0.059v0.063c0,3.668,3.378,6.653,7.531,6.653
							c4.157,0,7.536-2.985,7.536-6.653v-0.063v-0.059L47.169,48.09c2.957-1.491,4.858-4.289,4.858-7.396V23.662
							c0-2.05-1.901-3.729-4.225-3.729c-1.479,0-2.815,0.686-3.591,1.739c-0.704-1.054-1.972-1.739-3.521-1.739
							c-1.478,0-2.814,0.686-3.59,1.739c-0.773-1.054-2.042-1.739-3.589-1.739c-2.324,0-4.227,1.678-4.227,3.729v16.97
							C29.356,43.74,31.258,46.6,34.213,48.09z M33.04,24.434c0-0.673,0.563-1.224,1.258-1.224c0.693,0,1.26,0.551,1.26,1.224
							v10.715c0,0.672,0.564,1.223,1.259,1.223h1.321c0.692,0,1.261-0.551,1.261-1.223V24.434c0-0.673,0.564-1.224,1.259-1.224
							c0.692,0,1.261,0.551,1.261,1.224v10.715c0,0.672,0.567,1.223,1.258,1.223h1.322c0.691,0,1.261-0.551,1.261-1.223V24.434
							c0-0.673,0.563-1.224,1.255-1.224c0.694,0,1.262,0.551,1.262,1.224v16.712c0,2.694-1.89,5.02-4.408,5.695l1.01,26.569
							c0,2.266-1.893,4.103-4.22,4.103c-2.33,0-4.218-1.836-4.218-4.103l1.005-26.569c-2.582-0.734-4.404-3.001-4.404-5.695V24.434z
							"/>
					</defs>
					<use xlink:href="#SVGID_15_"  overflow="visible" fill-rule="evenodd" clip-rule="evenodd" fill="#FFFFFF"/>
					<clipPath id="SVGID_8_">
						<use xlink:href="#SVGID_15_"  overflow="visible"/>
					</clipPath>
					<g clip-path="url(#SVGID_8_)">
						<defs>
							<rect id="SVGID_17_" x="28.753" y="19.796" width="24.441" height="60.387"/>
						</defs>
						<use xlink:href="#SVGID_17_"  overflow="visible" fill="#FFFFFF"/>
						<clipPath id="SVGID_10_">
							<use xlink:href="#SVGID_17_"  overflow="visible"/>
						</clipPath>
						<rect x="22.096" y="12.744" clip-path="url(#SVGID_10_)" fill="#FFFFFF" width="37.12" height="74.613"/>
					</g>
				</g>
			</g>
		</g>
		<g>
			<defs>
				<path id="SVGID_19_" d="M57.874,57.635v15.9c0,3.572,2.913,6.598,6.465,6.655h0.189c3.674,0,6.719-2.897,6.719-6.534V62.379
					V44.321V25.156c0-2.528-2.157-4.623-4.754-4.623c-6.087,0-11.029,4.805-11.029,10.724v22.989
					C55.526,55.784,56.475,57.077,57.874,57.635 M66.471,24.169c1.159,0,2.137,0.948,2.137,2.077v18.466v17.396v10.867
					c0,2.137-1.772,3.919-4.031,3.919h-0.121c-2.197-0.059-3.907-1.9-3.907-4.037V56.53c0-0.595-0.489-1.13-1.16-1.13
					c-0.611,0-1.161-0.475-1.161-1.126V32.125C58.287,27.731,61.951,24.169,66.471,24.169"/>
			</defs>
			<use xlink:href="#SVGID_19_"  overflow="visible" fill-rule="evenodd" clip-rule="evenodd" fill="#FFFFFF"/>
			<clipPath id="SVGID_12_">
				<use xlink:href="#SVGID_19_"  overflow="visible"/>
			</clipPath>
			<g clip-path="url(#SVGID_12_)">
				<rect x="48.275" y="13.344" fill="#FFFFFF" width="30.16" height="74.036"/>
			</g>
		</g>
	</g>
</g>
<g id="cafe">
</g>
</svg>
