<?xml version="1.0" encoding="utf-8"?>
<!-- Generator: Adobe Illustrator 16.0.0, SVG Export Plug-In . SVG Version: 6.00 Build 0)  -->
<!DOCTYPE svg PUBLIC "-//W3C//DTD SVG 1.1//EN" "http://www.w3.org/Graphics/SVG/1.1/DTD/svg11.dtd">
<svg version="1.1" xmlns="http://www.w3.org/2000/svg" xmlns:xlink="http://www.w3.org/1999/xlink" x="0px" y="0px" width="100px"
	 height="100px" viewBox="0 0 100 100" enable-background="new 0 0 100 100" xml:space="preserve">
<g id="dab">
</g>
<g id="bar">
</g>
<g id="asso">
</g>
<g id="biblio">
</g>
<g id="detente">
	<g>
		<defs>
			<path id="SVGID_1_" d="M-167.674,31.402h-44.648c-1.28,0-2.321,1.023-2.321,2.28v32.635c0,1.256,1.041,2.28,2.321,2.28h6.17
				c0.684,0,1.299-0.292,1.726-0.757c0.423,0.465,1.039,0.757,1.723,0.757h6.17c0.683,0,1.299-0.292,1.726-0.757
				c0.423,0.465,1.04,0.757,1.722,0.757h6.172c0.683,0,1.298-0.292,1.725-0.757c0.423,0.465,1.039,0.757,1.723,0.757h6.17
				c0.685,0,1.299-0.292,1.724-0.757c0.426,0.465,1.041,0.757,1.725,0.757h6.17c1.28,0,2.32-1.024,2.32-2.28V33.683
				C-165.354,32.426-166.396,31.402-167.674,31.402z M-205.414,66.317c0,0.399-0.331,0.727-0.739,0.727h-6.17
				c-0.408,0-0.74-0.327-0.74-0.727V33.683c0-0.4,0.333-0.727,0.74-0.727h5.175v19.758c0,0.284,0.236,0.516,0.525,0.516h1.208
				V66.317z M-195.794,66.317c0,0.399-0.332,0.727-0.737,0.727h-6.172c-0.406,0-0.738-0.327-0.738-0.727V53.231h1.208
				c0.289,0,0.525-0.233,0.525-0.516v-19.76h4.18v19.758c0,0.284,0.236,0.516,0.524,0.516h1.209L-195.794,66.317L-195.794,66.317z
				 M-186.175,66.317c0,0.399-0.332,0.727-0.737,0.727h-6.173c-0.405,0-0.738-0.327-0.738-0.727V53.231h1.209
				c0.29,0,0.526-0.233,0.526-0.516v-19.76h5.176c0.405,0,0.737,0.326,0.737,0.727V66.317z M-176.554,66.317
				c0,0.399-0.333,0.727-0.739,0.727h-6.172c-0.405,0-0.739-0.327-0.739-0.727V33.683c0-0.4,0.334-0.727,0.739-0.727h5.177v19.758
				c0,0.284,0.235,0.516,0.526,0.516h1.208V66.317z M-166.935,66.317c0,0.399-0.333,0.727-0.739,0.727h-6.172
				c-0.405,0-0.738-0.327-0.738-0.727V53.231h1.208c0.292,0,0.526-0.233,0.526-0.516v-19.76h5.176c0.406,0,0.739,0.326,0.739,0.727
				V66.317z"/>
		</defs>
		<use xlink:href="#SVGID_1_"  overflow="visible" fill-rule="evenodd" clip-rule="evenodd" fill="#FFFFFF"/>
		<clipPath id="SVGID_2_">
			<use xlink:href="#SVGID_1_"  overflow="visible"/>
		</clipPath>
		<g clip-path="url(#SVGID_2_)">
			<defs>
				<rect id="SVGID_3_" x="-451.487" y="-509.456" width="512.316" height="911.241"/>
			</defs>
			<use xlink:href="#SVGID_3_"  overflow="visible" fill="#FFFFFF"/>
			<clipPath id="SVGID_4_">
				<use xlink:href="#SVGID_3_"  overflow="visible"/>
			</clipPath>
		</g>
	</g>
</g>
<g id="soins">
</g>
<g id="laverie">
	<ellipse fill="#8CB5C8" stroke="#FFFFFF" stroke-width="3" stroke-miterlimit="10" cx="50" cy="50" rx="46.776" ry="45.485"/>
	<g id="machine">
		<path fill="#FFFFFF" d="M64.774,22.645H35.12c-3.579,0-6.492,2.913-6.492,6.492v43.237c0,3.579,2.913,6.492,6.492,6.492h29.653
			c3.579,0,6.492-2.913,6.492-6.492V29.137C71.266,25.557,68.353,22.645,64.774,22.645z M35.12,24.562h29.653
			c2.521,0,4.574,2.052,4.574,4.575v6.069H30.544v-6.069C30.544,26.613,32.598,24.562,35.12,24.562z M64.774,76.95H35.12
			c-2.522,0-4.576-2.053-4.576-4.576V37.122h38.804v35.253C69.348,74.897,67.296,76.95,64.774,76.95z"/>
		<path fill="#FFFFFF" d="M34.614,33.426h8.204c1.195,0,2.169-0.973,2.169-2.169v-1.39c0-1.196-0.973-2.17-2.169-2.17h-8.204
			c-1.197,0-2.17,0.973-2.17,2.17v1.39C32.444,32.453,33.417,33.426,34.614,33.426z M34.362,29.867c0-0.14,0.112-0.254,0.252-0.254
			h8.204c0.14,0,0.253,0.113,0.253,0.254v1.39c0,0.138-0.113,0.253-0.253,0.253h-8.204c-0.141,0-0.253-0.115-0.253-0.253
			L34.362,29.867L34.362,29.867z"/>
		<path fill="#FFFFFF" d="M56.75,33.426c1.58,0,2.863-1.285,2.863-2.864c0-1.578-1.284-2.863-2.863-2.863s-2.864,1.285-2.864,2.863
			C53.886,32.141,55.171,33.426,56.75,33.426z M56.75,29.613c0.521,0,0.947,0.426,0.947,0.948c0,0.521-0.426,0.946-0.947,0.946
			c-0.522,0-0.947-0.425-0.947-0.946C55.803,30.039,56.228,29.613,56.75,29.613z"/>
		<path fill="#FFFFFF" d="M64.548,33.426c1.58,0,2.862-1.285,2.862-2.864c0-1.578-1.283-2.863-2.862-2.863
			c-1.58,0-2.865,1.285-2.865,2.863C61.683,32.141,62.968,33.426,64.548,33.426z M64.548,29.613c0.521,0,0.946,0.426,0.946,0.948
			c0,0.521-0.426,0.946-0.946,0.946c-0.523,0-0.947-0.425-0.947-0.946C63.601,30.039,64.024,29.613,64.548,29.613z"/>
		<path fill="#FFFFFF" d="M49.917,41.493c-8.412,0-15.254,6.843-15.254,15.255c0,8.411,6.842,15.255,15.254,15.255
			s15.256-6.844,15.256-15.255C65.173,48.336,58.329,41.493,49.917,41.493z M49.917,70.086c-7.354,0-13.338-5.983-13.338-13.338
			c0-7.355,5.983-13.338,13.338-13.338s13.338,5.982,13.338,13.338C63.255,64.103,57.271,70.086,49.917,70.086z"/>
		<path fill="#FFFFFF" d="M49.946,45.129c-6.405,0-11.618,5.213-11.618,11.619c0,0.062,0.009,0.123,0.01,0.187
			c-0.003,0.032-0.01,0.063-0.01,0.094c0,0.073,0.01,0.144,0.025,0.212c0.261,6.177,5.354,11.125,11.593,11.125
			c6.406,0,11.618-5.212,11.618-11.617C61.564,50.342,56.354,45.129,49.946,45.129z M49.946,47.047c5.146,0,9.355,4.029,9.67,9.098
			c-1.036,0.162-1.697,0.576-2.245,0.928c-0.61,0.389-1.093,0.698-2.143,0.698c-1.048,0-1.529-0.31-2.142-0.698
			c-0.696-0.447-1.564-1.003-3.174-1.003c-1.608,0-2.477,0.556-3.174,1.003c-0.608,0.389-1.091,0.698-2.14,0.698
			c-1.047,0-1.529-0.31-2.141-0.698c-0.538-0.346-1.181-0.752-2.185-0.921C40.588,51.081,44.799,47.047,49.946,47.047z
			 M49.946,66.448c-4.877,0-8.913-3.62-9.589-8.312c0.402,0.126,0.716,0.323,1.07,0.549c0.697,0.447,1.564,1.002,3.174,1.002
			s2.477-0.555,3.173-1.002c0.609-0.39,1.092-0.698,2.139-0.698c1.049,0,1.531,0.309,2.143,0.698
			c0.697,0.446,1.565,1.002,3.174,1.002c1.611,0,2.479-0.556,3.176-1.002c0.372-0.238,0.699-0.445,1.136-0.572
			C58.872,62.816,54.83,66.448,49.946,66.448z"/>
	</g>
</g>
<g id="culture">
</g>
<g id="impressions">
</g>
<g id="resto-u">
</g>
<g id="restau">
</g>
<g id="cafe">
</g>
</svg>
