<?xml version="1.0" encoding="utf-8"?>
<!-- Generator: Adobe Illustrator 16.0.0, SVG Export Plug-In . SVG Version: 6.00 Build 0)  -->
<!DOCTYPE svg PUBLIC "-//W3C//DTD SVG 1.1//EN" "http://www.w3.org/Graphics/SVG/1.1/DTD/svg11.dtd">
<svg version="1.1" xmlns="http://www.w3.org/2000/svg" xmlns:xlink="http://www.w3.org/1999/xlink" x="0px" y="0px" width="100px"
	 height="100px" viewBox="0 0 100 100" enable-background="new 0 0 100 100" xml:space="preserve">
<g id="dab">
</g>
<g id="bar">
	<ellipse fill="#DA644E" stroke="#FFFFFF" stroke-width="3" stroke-miterlimit="10" cx="50" cy="50" rx="46.776" ry="45.485"/>
	<path fill="#FFFFFF" d="M73.781,46.929h-7.688v-2.854c1.153-1.479,1.844-3.314,1.844-5.315c0-4.866-4.061-8.818-9.059-8.818
		c-0.979,0-1.947,0.155-2.875,0.46c-1.133-4.078-4.934-7.034-9.454-7.034c-4.438,0-8.197,2.83-9.402,6.826
		c-1.627-0.326-3.359-0.074-4.814,0.715c-1.637,0.878-2.832,2.334-3.35,4.087c-0.518,1.751-0.549,4.585,1.574,6.479v30.701
		c0,2.453,2.043,4.457,4.572,4.457h26.397c2.521,0,4.576-1.992,4.576-4.457v-3.053c0,0,9.21-7.075,9.21-20.729
		C75.302,47.588,74.625,46.929,73.781,46.929z M63.057,72.176c0,0.818-0.689,1.488-1.529,1.488H35.122
		c-0.84,0-1.529-0.67-1.529-1.488v-28.78c1.174,0.364,2.475,0.428,3.694,0.155c1.247,3.281,4.499,5.579,8.204,5.579
		c2.982,0,5.707-1.499,7.304-3.837c1.635,1.457,3.779,2.285,6.072,2.285c1.467,0,2.896-0.348,4.168-0.996v25.594H63.057z
		 M58.879,44.609c-2.109,0-4.027-1.059-5.136-2.818c-0.313-0.505-0.897-0.777-1.499-0.705c-0.593,0.073-1.088,0.493-1.261,1.061
		c-0.699,2.369-2.961,4.015-5.492,4.015c-2.818,0-5.254-2.057-5.654-4.78c-0.074-0.483-0.375-0.893-0.817-1.113
		c-0.441-0.217-0.968-0.207-1.409,0.021c-1.272,0.672-2.844,0.588-4.039-0.158c-0.033-0.018-2.725-1.496-1.68-4.329
		c0.355-0.976,0.969-1.812,1.896-2.315c1.163-0.62,2.615-0.629,3.789-0.035c0.45,0.232,0.989,0.232,1.432-0.01
		c0.441-0.227,0.745-0.671,0.789-1.164c0.331-3.396,3.217-5.964,6.727-5.964c3.641,0,6.604,2.778,6.755,6.321
		c0.02,0.535,0.334,1.008,0.817,1.249c0.487,0.239,1.067,0.222,1.519-0.063c0.971-0.605,2.091-0.931,3.24-0.931
		c3.319,0,6.012,2.629,6.012,5.849C64.898,43.529,60.302,44.609,58.879,44.609z M66.094,64.814v-14.93h6.129
		C71.9,55.408,69.756,60.611,66.094,64.814z"/>
</g>
<g id="asso">
</g>
<g id="biblio">
</g>
<g id="detente">
	<g>
		<defs>
			<path id="SVGID_1_" d="M-47.674-88.598h-44.648c-1.28,0-2.321,1.023-2.321,2.28v32.635c0,1.256,1.041,2.28,2.321,2.28h6.17
				c0.684,0,1.299-0.292,1.726-0.757c0.423,0.465,1.039,0.757,1.723,0.757h6.17c0.683,0,1.299-0.292,1.726-0.757
				c0.423,0.465,1.04,0.757,1.722,0.757h6.172c0.683,0,1.298-0.292,1.725-0.757c0.423,0.465,1.039,0.757,1.723,0.757h6.17
				c0.685,0,1.299-0.292,1.724-0.757c0.426,0.465,1.041,0.757,1.725,0.757h6.17c1.28,0,2.32-1.024,2.32-2.28v-32.635
				C-45.354-87.574-46.396-88.598-47.674-88.598z M-85.414-53.683c0,0.399-0.331,0.727-0.739,0.727h-6.17
				c-0.408,0-0.74-0.327-0.74-0.727v-32.635c0-0.4,0.333-0.727,0.74-0.727h5.175v19.758c0,0.284,0.236,0.516,0.525,0.516h1.208
				V-53.683z M-75.794-53.683c0,0.399-0.332,0.727-0.737,0.727h-6.172c-0.406,0-0.738-0.327-0.738-0.727v-13.086h1.208
				c0.289,0,0.525-0.233,0.525-0.516v-19.76h4.18v19.758c0,0.284,0.236,0.516,0.524,0.516h1.209L-75.794-53.683L-75.794-53.683z
				 M-66.175-53.683c0,0.399-0.332,0.727-0.737,0.727h-6.173c-0.405,0-0.738-0.327-0.738-0.727v-13.086h1.209
				c0.29,0,0.526-0.233,0.526-0.516v-19.76h5.176c0.405,0,0.737,0.326,0.737,0.727V-53.683z M-56.554-53.683
				c0,0.399-0.333,0.727-0.739,0.727h-6.172c-0.405,0-0.739-0.327-0.739-0.727v-32.635c0-0.4,0.334-0.727,0.739-0.727h5.177v19.758
				c0,0.284,0.235,0.516,0.526,0.516h1.208V-53.683z M-46.935-53.683c0,0.399-0.333,0.727-0.739,0.727h-6.172
				c-0.405,0-0.738-0.327-0.738-0.727v-13.086h1.208c0.292,0,0.526-0.233,0.526-0.516v-19.76h5.176c0.406,0,0.739,0.326,0.739,0.727
				V-53.683z"/>
		</defs>
		<use xlink:href="#SVGID_1_"  overflow="visible" fill-rule="evenodd" clip-rule="evenodd" fill="#FFFFFF"/>
		<clipPath id="SVGID_2_">
			<use xlink:href="#SVGID_1_"  overflow="visible"/>
		</clipPath>
		<g clip-path="url(#SVGID_2_)">
			<defs>
				<rect id="SVGID_3_" x="-331.487" y="-629.456" width="512.316" height="911.241"/>
			</defs>
			<use xlink:href="#SVGID_3_"  overflow="visible" fill="#FFFFFF"/>
			<clipPath id="SVGID_4_">
				<use xlink:href="#SVGID_3_"  overflow="visible"/>
			</clipPath>
		</g>
	</g>
</g>
<g id="soins">
</g>
<g id="laverie">
	<g id="machine">
	</g>
</g>
<g id="culture">
</g>
<g id="impressions">
</g>
<g id="resto-u">
</g>
<g id="restau">
</g>
<g id="cafe">
</g>
</svg>
