<?xml version="1.0" encoding="utf-8"?>
<!-- Generator: Adobe Illustrator 16.0.0, SVG Export Plug-In . SVG Version: 6.00 Build 0)  -->
<!DOCTYPE svg PUBLIC "-//W3C//DTD SVG 1.1//EN" "http://www.w3.org/Graphics/SVG/1.1/DTD/svg11.dtd">
<svg version="1.1" xmlns="http://www.w3.org/2000/svg" xmlns:xlink="http://www.w3.org/1999/xlink" x="0px" y="0px" width="100px"
	 height="100px" viewBox="0 0 100 100" enable-background="new 0 0 100 100" xml:space="preserve">
<g id="dab">
</g>
<g id="bar">
</g>
<g id="asso">
</g>
<g id="biblio">
</g>
<g id="detente">
	<g>
		<defs>
			<path id="SVGID_1_" d="M-47.674,271.402h-44.648c-1.28,0-2.321,1.023-2.321,2.28v32.635c0,1.256,1.041,2.28,2.321,2.28h6.17
				c0.684,0,1.299-0.292,1.726-0.757c0.423,0.465,1.039,0.757,1.723,0.757h6.17c0.683,0,1.299-0.292,1.726-0.757
				c0.423,0.465,1.04,0.757,1.722,0.757h6.172c0.683,0,1.298-0.292,1.725-0.757c0.423,0.465,1.039,0.757,1.723,0.757h6.17
				c0.685,0,1.299-0.292,1.724-0.757c0.426,0.465,1.041,0.757,1.725,0.757h6.17c1.28,0,2.32-1.024,2.32-2.28v-32.635
				C-45.354,272.426-46.396,271.402-47.674,271.402z M-85.414,306.317c0,0.399-0.331,0.727-0.739,0.727h-6.17
				c-0.408,0-0.74-0.327-0.74-0.727v-32.635c0-0.4,0.333-0.727,0.74-0.727h5.175v19.758c0,0.284,0.236,0.516,0.525,0.516h1.208
				V306.317z M-75.794,306.317c0,0.399-0.332,0.727-0.737,0.727h-6.172c-0.406,0-0.738-0.327-0.738-0.727v-13.086h1.208
				c0.289,0,0.525-0.233,0.525-0.516v-19.76h4.18v19.758c0,0.284,0.236,0.516,0.524,0.516h1.209L-75.794,306.317L-75.794,306.317z
				 M-66.175,306.317c0,0.399-0.332,0.727-0.737,0.727h-6.173c-0.405,0-0.738-0.327-0.738-0.727v-13.086h1.209
				c0.29,0,0.526-0.233,0.526-0.516v-19.76h5.176c0.405,0,0.737,0.326,0.737,0.727V306.317z M-56.554,306.317
				c0,0.399-0.333,0.727-0.739,0.727h-6.172c-0.405,0-0.739-0.327-0.739-0.727v-32.635c0-0.4,0.334-0.727,0.739-0.727h5.177v19.758
				c0,0.284,0.235,0.516,0.526,0.516h1.208V306.317z M-46.935,306.317c0,0.399-0.333,0.727-0.739,0.727h-6.172
				c-0.405,0-0.738-0.327-0.738-0.727v-13.086h1.208c0.292,0,0.526-0.233,0.526-0.516v-19.76h5.176c0.406,0,0.739,0.326,0.739,0.727
				V306.317z"/>
		</defs>
		<use xlink:href="#SVGID_1_"  overflow="visible" fill-rule="evenodd" clip-rule="evenodd" fill="#FFFFFF"/>
		<clipPath id="SVGID_2_">
			<use xlink:href="#SVGID_1_"  overflow="visible"/>
		</clipPath>
		<g clip-path="url(#SVGID_2_)">
			<defs>
				<rect id="SVGID_3_" x="-331.487" y="-269.456" width="512.316" height="911.241"/>
			</defs>
			<use xlink:href="#SVGID_3_"  overflow="visible" fill="#FFFFFF"/>
			<clipPath id="SVGID_4_">
				<use xlink:href="#SVGID_3_"  overflow="visible"/>
			</clipPath>
		</g>
	</g>
</g>
<g id="soins">
</g>
<g id="laverie">
	<g id="machine">
	</g>
</g>
<g id="culture">
</g>
<g id="impressions">
</g>
<g id="resto-u">
</g>
<g id="restau">
</g>
<g id="cafe">
	<ellipse fill="#59595B" stroke="#FFFFFF" stroke-width="3" stroke-miterlimit="10" cx="50" cy="49.99" rx="46.776" ry="45.485"/>
	<path fill-rule="evenodd" clip-rule="evenodd" fill="#FFFFFF" d="M38.497,24.368c-1.039,0.011-1.354,0.57-1.745,1.23
		c-0.195,1.546,0.108,3.063,0.059,4.617c-0.034,0.529-0.179,0.995-0.076,0.788c-0.386,0.805-0.818,1.697-1.159,2.462
		c-0.771,1.388-0.692,3.173-0.493,4.56c0.39,1.312,1.051,2.502,1.652,3.751c0.392,0.909,1.618,1.358,2.526,0.942
		c0.91-0.416,1.331-1.619,0.879-2.499c-0.61-1.119-1.273-2.728-1.353-2.864c-0.218-1.281,0.13-2.271,0.175-2.35l1.178-2.445
		c0.388-0.819,0.392-1.438,0.435-2.152c0.018-1.586,0.057-3.337-0.273-4.793C39.755,24.922,39.188,24.394,38.497,24.368z
		 M47.276,24.368c-1.042,0.011-1.353,0.57-1.745,1.23c-0.196,1.546,0.108,3.063,0.059,4.617c-0.032,0.529-0.178,0.995-0.079,0.788
		c-0.385,0.805-0.818,1.697-1.153,2.462c-0.77,1.388-0.691,3.173-0.492,4.56c0.387,1.312,1.049,2.502,1.646,3.751
		c0.395,0.909,1.618,1.358,2.528,0.942c0.908-0.416,1.333-1.619,0.882-2.499c-0.614-1.119-1.276-2.728-1.349-2.864
		c-0.221-1.281,0.125-2.271,0.174-2.35l1.175-2.445c0.391-0.819,0.393-1.438,0.433-2.152c0.019-1.586,0.058-3.337-0.275-4.793
		C48.535,24.922,47.97,24.394,47.276,24.368z M56.056,24.368c-1.039,0.011-1.354,0.57-1.746,1.23
		c-0.195,1.546,0.109,3.063,0.059,4.617c-0.03,0.529-0.178,0.995-0.076,0.788c-0.383,0.805-0.817,1.697-1.157,2.462
		c-0.766,1.388-0.687,3.173-0.488,4.56c0.384,1.312,1.048,2.502,1.646,3.751c0.396,0.909,1.616,1.358,2.528,0.942
		c0.914-0.416,1.333-1.619,0.88-2.499c-0.61-1.119-1.276-2.728-1.353-2.864c-0.215-1.281,0.127-2.271,0.181-2.35L57.7,32.56
		c0.391-0.819,0.391-1.438,0.435-2.152c0.019-1.586,0.058-3.337-0.276-4.793C57.311,24.922,56.749,24.394,56.056,24.368z
		 M24.402,44.081c-0.919,0.097-1.688,0.943-1.685,1.852c0,12.895,10.69,23.39,23.834,23.39c6.222,0,11.898-2.364,16.146-6.214
		c4.97-0.905,9.597-2.904,12.76-6.426c1.019-1.148,1.825-2.422,1.825-4c-0.244-4.322-2.89-6.371-6.585-6.76
		c0-1.232-1.253-1.85-2.198-1.842H24.402z M26.675,47.778h39.748c-0.963,10.01-9.416,17.846-19.871,17.846
		C36.091,65.624,27.641,57.788,26.675,47.778z M70.068,49.72c2.231,0.189,3.439,1.283,3.448,2.963c0,0.119-0.208,0.793-0.898,1.578
		c-1.723,1.748-3.636,2.95-5.747,3.865C68.45,55.601,69.562,52.758,70.068,49.72z M25.659,69.917
		c-0.985,0.05-1.837,0.978-1.787,1.943c0.052,0.967,0.995,1.801,1.984,1.748h41.391c0.991,0.017,1.905-0.869,1.905-1.846
		c0-0.976-0.914-1.855-1.905-1.846H25.659z"/>
</g>
</svg>
