<?xml version="1.0" encoding="utf-8"?>
<!-- Generator: Adobe Illustrator 16.0.0, SVG Export Plug-In . SVG Version: 6.00 Build 0)  -->
<!DOCTYPE svg PUBLIC "-//W3C//DTD SVG 1.1//EN" "http://www.w3.org/Graphics/SVG/1.1/DTD/svg11.dtd">
<svg version="1.1" xmlns="http://www.w3.org/2000/svg" xmlns:xlink="http://www.w3.org/1999/xlink" x="0px" y="0px" width="100px"
	 height="100px" viewBox="0 0 100 100" enable-background="new 0 0 100 100" xml:space="preserve">
<g id="dab">
</g>
<g id="bar">
</g>
<g id="asso">
</g>
<g id="biblio">
</g>
<g id="detente">
	<g>
		<defs>
			<path id="SVGID_1_" d="M72.326-88.598H27.677c-1.28,0-2.321,1.023-2.321,2.28v32.635c0,1.256,1.041,2.28,2.321,2.28h6.17
				c0.684,0,1.299-0.292,1.726-0.757c0.423,0.465,1.039,0.757,1.723,0.757h6.17c0.683,0,1.299-0.292,1.726-0.757
				c0.423,0.465,1.04,0.757,1.722,0.757h6.172c0.683,0,1.298-0.292,1.725-0.757c0.423,0.465,1.039,0.757,1.723,0.757h6.17
				c0.685,0,1.299-0.292,1.724-0.757c0.426,0.465,1.041,0.757,1.725,0.757h6.17c1.28,0,2.32-1.024,2.32-2.28v-32.635
				C74.646-87.574,73.604-88.598,72.326-88.598z M34.586-53.683c0,0.399-0.331,0.727-0.739,0.727h-6.17
				c-0.408,0-0.74-0.327-0.74-0.727v-32.635c0-0.4,0.333-0.727,0.74-0.727h5.175v19.758c0,0.284,0.236,0.516,0.525,0.516h1.208
				V-53.683z M44.206-53.683c0,0.399-0.332,0.727-0.737,0.727h-6.172c-0.406,0-0.738-0.327-0.738-0.727v-13.086h1.208
				c0.289,0,0.525-0.233,0.525-0.516v-19.76h4.18v19.758c0,0.284,0.236,0.516,0.524,0.516h1.209L44.206-53.683L44.206-53.683z
				 M53.825-53.683c0,0.399-0.332,0.727-0.737,0.727h-6.173c-0.405,0-0.738-0.327-0.738-0.727v-13.086h1.209
				c0.29,0,0.526-0.233,0.526-0.516v-19.76h5.176c0.405,0,0.737,0.326,0.737,0.727V-53.683z M63.446-53.683
				c0,0.399-0.333,0.727-0.739,0.727h-6.172c-0.405,0-0.739-0.327-0.739-0.727v-32.635c0-0.4,0.334-0.727,0.739-0.727h5.177v19.758
				c0,0.284,0.235,0.516,0.526,0.516h1.208V-53.683z M73.065-53.683c0,0.399-0.333,0.727-0.739,0.727h-6.172
				c-0.405,0-0.738-0.327-0.738-0.727v-13.086h1.208c0.292,0,0.526-0.233,0.526-0.516v-19.76h5.176c0.406,0,0.739,0.326,0.739,0.727
				V-53.683z"/>
		</defs>
		<use xlink:href="#SVGID_1_"  overflow="visible" fill-rule="evenodd" clip-rule="evenodd" fill="#FFFFFF"/>
		<clipPath id="SVGID_2_">
			<use xlink:href="#SVGID_1_"  overflow="visible"/>
		</clipPath>
		<g clip-path="url(#SVGID_2_)">
			<defs>
				<rect id="SVGID_3_" x="-211.487" y="-629.456" width="512.316" height="911.241"/>
			</defs>
			<use xlink:href="#SVGID_3_"  overflow="visible" fill="#FFFFFF"/>
			<clipPath id="SVGID_4_">
				<use xlink:href="#SVGID_3_"  overflow="visible"/>
			</clipPath>
		</g>
	</g>
</g>
<g id="soins">
</g>
<g id="laverie">
	<g id="machine">
	</g>
</g>
<g id="culture">
</g>
<g id="impressions">
	<ellipse fill="#C9BE8C" stroke="#FFFFFF" stroke-width="3" stroke-miterlimit="10" cx="50" cy="51.598" rx="46.776" ry="45.485"/>
	<path fill="#FFFFFF" stroke="#FFFFFF" stroke-miterlimit="10" d="M71.974,35.525h-7.486v-8.232H35.513v8.233h-7.487
		c-3.55,0-6.437,3.417-6.437,7.613v19.042c0,4.197,2.887,7.612,6.437,7.612h4.295c0.311,0,0.563-0.297,0.563-0.666
		c0-0.367-0.252-0.666-0.563-0.666h-4.295c-2.928,0-5.31-2.817-5.31-6.28V43.14c0-3.463,2.382-6.281,5.31-6.281h7.487h28.975h7.486
		c2.929,0,5.311,2.818,5.311,6.281v19.041c0,3.464-2.382,6.28-5.311,6.28H67.68c-0.311,0-0.563,0.299-0.563,0.666
		c0,0.369,0.252,0.667,0.563,0.667h4.294c3.55,0,6.438-3.416,6.438-7.613V43.14C78.411,38.943,75.524,35.525,71.974,35.525z
		 M36.64,35.525v-6.9h26.721v6.9H36.64z"/>
	<path fill="#FFFFFF" stroke="#FFFFFF" stroke-miterlimit="10" d="M60.472,51.994H39.528c-2.213,0-4.015,2.132-4.015,4.748v21.286
		h28.975V56.742C64.487,54.126,62.686,51.994,60.472,51.994z M63.36,76.696H36.639V56.742c0-1.884,1.296-3.415,2.889-3.415h20.944
		c1.593,0,2.889,1.531,2.889,3.415L63.36,76.696L63.36,76.696z"/>
	<rect x="39.832" y="68.462" fill="#FFFFFF" stroke="#FFFFFF" stroke-miterlimit="10" width="20.337" height="1.332"/>
	<rect x="39.832" y="60.228" fill="#FFFFFF" stroke="#FFFFFF" stroke-miterlimit="10" width="20.337" height="1.332"/>
</g>
<g id="resto-u">
</g>
<g id="restau">
</g>
<g id="cafe">
</g>
</svg>
