<?xml version="1.0" encoding="utf-8"?>
<!-- Generator: Adobe Illustrator 16.0.0, SVG Export Plug-In . SVG Version: 6.00 Build 0)  -->
<!DOCTYPE svg PUBLIC "-//W3C//DTD SVG 1.1//EN" "http://www.w3.org/Graphics/SVG/1.1/DTD/svg11.dtd">
<svg version="1.1" xmlns="http://www.w3.org/2000/svg" xmlns:xlink="http://www.w3.org/1999/xlink" x="0px" y="0px" width="100px"
	 height="100px" viewBox="0 0 100 100" enable-background="new 0 0 100 100" xml:space="preserve">
<g id="dab">
</g>
<g id="bar">
</g>
<g id="asso">
</g>
<g id="biblio">
	<ellipse fill="#CDA18C" stroke="#FFFFFF" stroke-width="3" stroke-miterlimit="10" cx="50" cy="50.054" rx="46.776" ry="45.486"/>
	<g transform="translate(5.9921265,958.35431)">
		<path fill="#FFFFFF" d="M32.223-931.244c-4.575,0-9.183,1.777-13.758,5.104c-0.557,0.403-0.866,1.071-0.866,1.737v36.975
			c0,0.774,0.451,1.551,1.143,1.885c0.66,0.336,1.489,0.221,2.08-0.294c5.854-5.251,12.855-5.768,22.214,0.183
			c0.627,0.405,1.42,0.373,2.012,0c4.747-3.069,8.181-4.435,11.366-4.435c3.226-0.041,6.481,1.291,10.988,4.395
			c1.179,0.816,3.017-0.257,3.017-1.735c0-16.968,0-20.004,0-36.973c0-0.666-0.312-1.296-0.8-1.7
			c-4.33-3.367-8.8-5.143-13.377-5.143c-4.157,0-8.281,1.553-12.268,4.363C40.161-929.246,36.415-931.244,32.223-931.244z
			 M31.535-928.201c3.546,0,7.023,1.26,10.499,3.982v34.593c-8.17-4.177-15.713-4.177-21.923-0.473v-33.921
			C24.141-926.783,27.949-928.201,31.535-928.201z M56.736-927.986c3.581,0,7.232,1.428,11.03,4.17
			c0,15.105,0.037,20.988,0.037,34.746c-3.8-2.188-7.339-3.699-10.878-3.659c-3.616,0-7.229,1.389-11.218,3.616v-34.86
			C49.254-926.121,53.235-927.949,56.736-927.986z M31.772-921.962c-2.634,0-5.266,0.812-7.832,2.438
			c-0.451,0.297-0.624,0.961-0.347,1.441c0.244,0.482,0.899,0.631,1.353,0.37c2.324-1.478,4.573-2.216,6.826-2.216
			c2.254,0,4.504,0.738,6.829,2.216c0.45,0.261,1.073,0.11,1.352-0.37c0.276-0.479,0.105-1.145-0.348-1.441
			C37.042-921.149,34.406-921.962,31.772-921.962z M56.237-921.962c-2.629,0-5.264,0.812-7.863,2.438
			c-0.416,0.297-0.588,0.961-0.313,1.441c0.243,0.482,0.899,0.631,1.318,0.37c2.322-1.478,4.574-2.216,6.825-2.216
			c2.255,0,4.543,0.738,6.864,2.216c0.45,0.261,1.072,0.11,1.353-0.37c0.241-0.479,0.104-1.145-0.347-1.441
			C61.512-921.149,58.875-921.962,56.237-921.962z M31.772-915.678c-2.634,0-5.266,0.778-7.832,2.44
			c-0.451,0.26-0.624,0.961-0.347,1.405c0.244,0.481,0.899,0.664,1.353,0.368c2.285-1.477,4.542-2.217,6.76-2.217
			c2.286,0,4.57,0.74,6.896,2.217c0.45,0.296,1.073,0.113,1.352-0.368c0.276-0.444,0.105-1.146-0.348-1.405
			C37.042-914.9,34.406-915.678,31.772-915.678z M56.237-915.678c-2.629,0-5.264,0.778-7.863,2.44
			c-0.416,0.26-0.588,0.961-0.313,1.405c0.243,0.481,0.899,0.664,1.318,0.368c2.322-1.477,4.574-2.217,6.825-2.217
			c2.255,0,4.543,0.74,6.864,2.217c0.45,0.296,1.072,0.113,1.353-0.368c0.241-0.444,0.104-1.146-0.347-1.405
			C61.512-914.9,58.875-915.678,56.237-915.678z M31.772-909.428c-2.634,0-5.266,0.775-7.832,2.44
			c-0.451,0.294-0.624,0.96-0.347,1.443c0.244,0.443,0.899,0.629,1.353,0.332c2.253-1.441,4.473-2.179,6.688-2.218
			c2.286-0.037,4.608,0.705,6.967,2.218c0.45,0.297,1.073,0.111,1.352-0.332c0.276-0.48,0.105-1.146-0.348-1.443
			C37.042-908.653,34.406-909.428,31.772-909.428z M56.237-909.428c-2.629,0-5.264,0.775-7.863,2.44
			c-0.416,0.294-0.588,0.96-0.313,1.443c0.243,0.443,0.899,0.629,1.318,0.332c2.287-1.441,4.503-2.179,6.722-2.218
			c2.291-0.037,4.576,0.705,6.968,2.218c0.45,0.297,1.072,0.111,1.353-0.332c0.241-0.48,0.104-1.146-0.347-1.443
			C61.512-908.653,58.875-909.428,56.237-909.428L56.237-909.428z M31.772-903.178c-2.634,0-5.266,0.813-7.832,2.441
			c-0.451,0.294-0.624,0.958-0.347,1.443c0.244,0.477,0.899,0.626,1.353,0.368c2.324-1.518,4.573-2.258,6.862-2.258
			c2.252,0.038,4.468,0.779,6.792,2.258c0.451,0.258,1.072,0.108,1.352-0.368c0.275-0.48,0.104-1.149-0.348-1.443
			C37.042-902.368,34.406-903.178,31.772-903.178z M56.237-903.178c-2.629,0-5.264,0.813-7.863,2.441
			c-0.416,0.294-0.588,0.958-0.313,1.443c0.243,0.477,0.899,0.626,1.318,0.368c2.287-1.442,4.473-2.183,6.653-2.258
			c2.324-0.037,4.645,0.704,7.036,2.258c0.45,0.258,1.072,0.108,1.353-0.368c0.241-0.48,0.104-1.149-0.347-1.443
			C61.512-902.368,58.875-903.178,56.237-903.178z"/>
	</g>
</g>
<g id="detente">
	<g>
		<defs>
			<path id="SVGID_1_" d="M-167.674,151.402h-44.648c-1.28,0-2.321,1.023-2.321,2.28v32.635c0,1.256,1.041,2.28,2.321,2.28h6.17
				c0.684,0,1.299-0.292,1.726-0.757c0.423,0.465,1.039,0.757,1.723,0.757h6.17c0.683,0,1.299-0.292,1.726-0.757
				c0.423,0.465,1.04,0.757,1.722,0.757h6.172c0.683,0,1.298-0.292,1.725-0.757c0.423,0.465,1.039,0.757,1.723,0.757h6.17
				c0.685,0,1.299-0.292,1.724-0.757c0.426,0.465,1.041,0.757,1.725,0.757h6.17c1.28,0,2.32-1.024,2.32-2.28v-32.635
				C-165.354,152.426-166.396,151.402-167.674,151.402z M-205.414,186.317c0,0.399-0.331,0.727-0.739,0.727h-6.17
				c-0.408,0-0.74-0.327-0.74-0.727v-32.635c0-0.4,0.333-0.727,0.74-0.727h5.175v19.758c0,0.284,0.236,0.516,0.525,0.516h1.208
				V186.317z M-195.794,186.317c0,0.399-0.332,0.727-0.737,0.727h-6.172c-0.406,0-0.738-0.327-0.738-0.727v-13.086h1.208
				c0.289,0,0.525-0.233,0.525-0.516v-19.76h4.18v19.758c0,0.284,0.236,0.516,0.524,0.516h1.209L-195.794,186.317L-195.794,186.317z
				 M-186.175,186.317c0,0.399-0.332,0.727-0.737,0.727h-6.173c-0.405,0-0.738-0.327-0.738-0.727v-13.086h1.209
				c0.29,0,0.526-0.233,0.526-0.516v-19.76h5.176c0.405,0,0.737,0.326,0.737,0.727V186.317z M-176.554,186.317
				c0,0.399-0.333,0.727-0.739,0.727h-6.172c-0.405,0-0.739-0.327-0.739-0.727v-32.635c0-0.4,0.334-0.727,0.739-0.727h5.177v19.758
				c0,0.284,0.235,0.516,0.526,0.516h1.208V186.317z M-166.935,186.317c0,0.399-0.333,0.727-0.739,0.727h-6.172
				c-0.405,0-0.738-0.327-0.738-0.727v-13.086h1.208c0.292,0,0.526-0.233,0.526-0.516v-19.76h5.176c0.406,0,0.739,0.326,0.739,0.727
				V186.317z"/>
		</defs>
		<use xlink:href="#SVGID_1_"  overflow="visible" fill-rule="evenodd" clip-rule="evenodd" fill="#FFFFFF"/>
		<clipPath id="SVGID_2_">
			<use xlink:href="#SVGID_1_"  overflow="visible"/>
		</clipPath>
		<g clip-path="url(#SVGID_2_)">
			<defs>
				<rect id="SVGID_3_" x="-451.487" y="-389.456" width="512.316" height="911.241"/>
			</defs>
			<use xlink:href="#SVGID_3_"  overflow="visible" fill="#FFFFFF"/>
			<clipPath id="SVGID_4_">
				<use xlink:href="#SVGID_3_"  overflow="visible"/>
			</clipPath>
		</g>
	</g>
</g>
<g id="soins">
</g>
<g id="laverie">
	<g id="machine">
	</g>
</g>
<g id="culture">
</g>
<g id="impressions">
</g>
<g id="resto-u">
</g>
<g id="restau">
</g>
<g id="cafe">
</g>
</svg>
