<?xml version="1.0" encoding="utf-8"?>
<!-- Generator: Adobe Illustrator 16.0.0, SVG Export Plug-In . SVG Version: 6.00 Build 0)  -->
<!DOCTYPE svg PUBLIC "-//W3C//DTD SVG 1.1//EN" "http://www.w3.org/Graphics/SVG/1.1/DTD/svg11.dtd">
<svg version="1.1" xmlns="http://www.w3.org/2000/svg" xmlns:xlink="http://www.w3.org/1999/xlink" x="0px" y="0px" width="100px"
	 height="100px" viewBox="0 0 100 100" enable-background="new 0 0 100 100" xml:space="preserve">
<g id="dab">
</g>
<g id="bar">
</g>
<g id="asso">
</g>
<g id="biblio">
</g>
<g id="detente">
	<g>
		<defs>
			<path id="SVGID_1_" d="M-47.674,31.402h-44.648c-1.28,0-2.321,1.023-2.321,2.28v32.635c0,1.256,1.041,2.28,2.321,2.28h6.17
				c0.684,0,1.299-0.292,1.726-0.757c0.423,0.465,1.039,0.757,1.723,0.757h6.17c0.683,0,1.299-0.292,1.726-0.757
				c0.423,0.465,1.04,0.757,1.722,0.757h6.172c0.683,0,1.298-0.292,1.725-0.757c0.423,0.465,1.039,0.757,1.723,0.757h6.17
				c0.685,0,1.299-0.292,1.724-0.757c0.426,0.465,1.041,0.757,1.725,0.757h6.17c1.28,0,2.32-1.024,2.32-2.28V33.683
				C-45.354,32.426-46.396,31.402-47.674,31.402z M-85.414,66.317c0,0.399-0.331,0.727-0.739,0.727h-6.17
				c-0.408,0-0.74-0.327-0.74-0.727V33.683c0-0.4,0.333-0.727,0.74-0.727h5.175v19.758c0,0.284,0.236,0.516,0.525,0.516h1.208
				V66.317z M-75.794,66.317c0,0.399-0.332,0.727-0.737,0.727h-6.172c-0.406,0-0.738-0.327-0.738-0.727V53.231h1.208
				c0.289,0,0.525-0.233,0.525-0.516v-19.76h4.18v19.758c0,0.284,0.236,0.516,0.524,0.516h1.209L-75.794,66.317L-75.794,66.317z
				 M-66.175,66.317c0,0.399-0.332,0.727-0.737,0.727h-6.173c-0.405,0-0.738-0.327-0.738-0.727V53.231h1.209
				c0.29,0,0.526-0.233,0.526-0.516v-19.76h5.176c0.405,0,0.737,0.326,0.737,0.727V66.317z M-56.554,66.317
				c0,0.399-0.333,0.727-0.739,0.727h-6.172c-0.405,0-0.739-0.327-0.739-0.727V33.683c0-0.4,0.334-0.727,0.739-0.727h5.177v19.758
				c0,0.284,0.235,0.516,0.526,0.516h1.208V66.317z M-46.935,66.317c0,0.399-0.333,0.727-0.739,0.727h-6.172
				c-0.405,0-0.738-0.327-0.738-0.727V53.231h1.208c0.292,0,0.526-0.233,0.526-0.516v-19.76h5.176c0.406,0,0.739,0.326,0.739,0.727
				V66.317z"/>
		</defs>
		<use xlink:href="#SVGID_1_"  overflow="visible" fill-rule="evenodd" clip-rule="evenodd" fill="#FFFFFF"/>
		<clipPath id="SVGID_2_">
			<use xlink:href="#SVGID_1_"  overflow="visible"/>
		</clipPath>
		<g clip-path="url(#SVGID_2_)">
			<defs>
				<rect id="SVGID_3_" x="-331.487" y="-509.456" width="512.316" height="911.241"/>
			</defs>
			<use xlink:href="#SVGID_3_"  overflow="visible" fill="#FFFFFF"/>
			<clipPath id="SVGID_4_">
				<use xlink:href="#SVGID_3_"  overflow="visible"/>
			</clipPath>
		</g>
	</g>
</g>
<g id="soins">
</g>
<g id="laverie">
	<g id="machine">
	</g>
</g>
<g id="culture">
	<ellipse fill="#CD8CB8" stroke="#FFFFFF" stroke-width="3" stroke-miterlimit="10" cx="50" cy="50" rx="46.776" ry="45.485"/>
	<path fill="#FFFFFF" stroke="#FFFFFF" stroke-miterlimit="10" d="M49.881,20.732c-0.302,0.059-0.52,0.325-0.515,0.635v14.604
		c-8.532,0.253-15.796,5.563-18.964,13.058c-0.131,0.324,0.025,0.695,0.351,0.826c0.071,0.028,0.148,0.044,0.224,0.047h3.807v13.95
		h-3.807c-0.02-0.003-0.038-0.003-0.058,0c-0.328,0.031-0.576,0.306-0.575,0.633v3.805h-3.171c-0.351,0.001-0.634,0.284-0.634,0.635
		v5.706c0,0.351,0.283,0.635,0.634,0.635h45.655c0.35,0,0.633-0.284,0.633-0.635v-5.706c0-0.351-0.283-0.634-0.633-0.635h-3.171
		v-3.805c0-0.35-0.283-0.633-0.635-0.633h-3.805v-13.95h3.805c0.352-0.008,0.63-0.298,0.622-0.647
		c-0.002-0.077-0.019-0.154-0.047-0.226c-3.166-7.494-10.432-12.805-18.963-13.058V29.63c2.915,0.112,4.07,0.917,5.429,1.822
		c1.409,0.939,3.078,1.962,6.618,1.962c0.351,0,0.635-0.283,0.635-0.634v-7.608c0-0.352-0.284-0.635-0.635-0.635
		c-3.373,0-4.389-0.825-5.746-1.782c-1.357-0.959-3.025-2.022-6.936-2.022c-0.019-0.001-0.04-0.001-0.06,0
		C49.921,20.731,49.901,20.731,49.881,20.732z M50.635,22.04c3.14,0.104,4.34,0.864,5.587,1.744c1.248,0.88,2.722,1.851,5.826,1.981
		v6.341c-2.786-0.109-4-0.844-5.29-1.704c-1.355-0.902-2.914-1.922-6.123-2.04V22.04z M50,37.219c7.939,0,14.747,4.67,17.993,11.414
		H32.009C35.254,41.889,42.062,37.219,50,37.219z M36.051,49.901h3.804v13.95h-3.804V49.901z M41.123,49.901h5.706v13.95h-5.706
		V49.901z M48.098,49.901h3.806v13.95h-3.806V49.901z M53.171,49.901h5.706v13.95h-5.706V49.901z M60.146,49.901h3.805v13.95h-3.805
		V49.901z M31.611,65.119H68.39v3.805c0,0.35,0.282,0.635,0.633,0.635h3.172v4.438H27.807v-4.438h3.17
		c0.351,0,0.635-0.285,0.635-0.635V65.119z"/>
</g>
<g id="impressions">
</g>
<g id="resto-u">
</g>
<g id="restau">
</g>
<g id="cafe">
</g>
</svg>
