<?xml version="1.0" encoding="utf-8"?>
<!-- Generator: Adobe Illustrator 16.0.0, SVG Export Plug-In . SVG Version: 6.00 Build 0)  -->
<!DOCTYPE svg PUBLIC "-//W3C//DTD SVG 1.1//EN" "http://www.w3.org/Graphics/SVG/1.1/DTD/svg11.dtd">
<svg version="1.1" xmlns="http://www.w3.org/2000/svg" xmlns:xlink="http://www.w3.org/1999/xlink" x="0px" y="0px" width="100px"
	 height="100px" viewBox="0 0 100 100" enable-background="new 0 0 100 100" xml:space="preserve">
<g id="dab">
</g>
<g id="bar">
</g>
<g id="asso">
</g>
<g id="biblio">
</g>
<g id="detente">
	<g>
		<defs>
			<path id="SVGID_1_" d="M-167.674-88.598h-44.648c-1.28,0-2.321,1.023-2.321,2.28v32.635c0,1.256,1.041,2.28,2.321,2.28h6.17
				c0.684,0,1.299-0.292,1.726-0.757c0.423,0.465,1.039,0.757,1.723,0.757h6.17c0.683,0,1.299-0.292,1.726-0.757
				c0.423,0.465,1.04,0.757,1.722,0.757h6.172c0.683,0,1.298-0.292,1.725-0.757c0.423,0.465,1.039,0.757,1.723,0.757h6.17
				c0.685,0,1.299-0.292,1.724-0.757c0.426,0.465,1.041,0.757,1.725,0.757h6.17c1.28,0,2.32-1.024,2.32-2.28v-32.635
				C-165.354-87.574-166.396-88.598-167.674-88.598z M-205.414-53.683c0,0.399-0.331,0.727-0.739,0.727h-6.17
				c-0.408,0-0.74-0.327-0.74-0.727v-32.635c0-0.4,0.333-0.727,0.74-0.727h5.175v19.758c0,0.284,0.236,0.516,0.525,0.516h1.208
				V-53.683z M-195.794-53.683c0,0.399-0.332,0.727-0.737,0.727h-6.172c-0.406,0-0.738-0.327-0.738-0.727v-13.086h1.208
				c0.289,0,0.525-0.233,0.525-0.516v-19.76h4.18v19.758c0,0.284,0.236,0.516,0.524,0.516h1.209L-195.794-53.683L-195.794-53.683z
				 M-186.175-53.683c0,0.399-0.332,0.727-0.737,0.727h-6.173c-0.405,0-0.738-0.327-0.738-0.727v-13.086h1.209
				c0.29,0,0.526-0.233,0.526-0.516v-19.76h5.176c0.405,0,0.737,0.326,0.737,0.727V-53.683z M-176.554-53.683
				c0,0.399-0.333,0.727-0.739,0.727h-6.172c-0.405,0-0.739-0.327-0.739-0.727v-32.635c0-0.4,0.334-0.727,0.739-0.727h5.177v19.758
				c0,0.284,0.235,0.516,0.526,0.516h1.208V-53.683z M-166.935-53.683c0,0.399-0.333,0.727-0.739,0.727h-6.172
				c-0.405,0-0.738-0.327-0.738-0.727v-13.086h1.208c0.292,0,0.526-0.233,0.526-0.516v-19.76h5.176c0.406,0,0.739,0.326,0.739,0.727
				V-53.683z"/>
		</defs>
		<use xlink:href="#SVGID_1_"  overflow="visible" fill-rule="evenodd" clip-rule="evenodd" fill="#FFFFFF"/>
		<clipPath id="SVGID_2_">
			<use xlink:href="#SVGID_1_"  overflow="visible"/>
		</clipPath>
		<g clip-path="url(#SVGID_2_)">
			<defs>
				<rect id="SVGID_3_" x="-451.487" y="-629.456" width="512.316" height="911.241"/>
			</defs>
			<use xlink:href="#SVGID_3_"  overflow="visible" fill="#FFFFFF"/>
			<clipPath id="SVGID_4_">
				<use xlink:href="#SVGID_3_"  overflow="visible"/>
			</clipPath>
		</g>
	</g>
</g>
<g id="soins">
</g>
<g id="laverie">
	<g id="machine">
	</g>
</g>
<g id="culture">
</g>
<g id="impressions">
</g>
<g id="resto-u">
	<ellipse fill="#EE585F" stroke="#FFFFFF" stroke-width="3" stroke-miterlimit="10" cx="50.001" cy="50" rx="46.776" ry="45.485"/>
	<g>
		<g enable-background="new    ">
			<g>
				<defs>
					<rect id="SVGID_5_" x="33.343" y="37.813" width="19.161" height="47.342"/>
				</defs>
				<clipPath id="SVGID_6_">
					<use xlink:href="#SVGID_5_"  overflow="visible"/>
				</clipPath>
				<g clip-path="url(#SVGID_6_)">
					<defs>
						<path id="SVGID_7_" d="M37.623,59.995l-0.826,19.837v0.046v0.051c0,2.875,2.648,5.215,5.904,5.215
							c3.259,0,5.908-2.34,5.908-5.215v-0.051v-0.046L47.78,59.995c2.318-1.169,3.81-3.362,3.81-5.798V40.844
							c0-1.607-1.491-2.923-3.312-2.923c-1.158,0-2.207,0.538-2.815,1.363c-0.552-0.825-1.546-1.363-2.761-1.363
							c-1.158,0-2.206,0.538-2.813,1.363c-0.607-0.825-1.602-1.363-2.814-1.363c-1.822,0-3.313,1.315-3.313,2.923v13.304
							C33.816,56.585,35.307,58.826,37.623,59.995z M36.704,41.449c0-0.528,0.441-0.961,0.985-0.961s0.988,0.433,0.988,0.961v8.399
							c0,0.527,0.442,0.959,0.986,0.959H40.7c0.542,0,0.988-0.432,0.988-0.959v-8.399c0-0.528,0.442-0.961,0.987-0.961
							c0.543,0,0.987,0.433,0.987,0.961v8.399c0,0.527,0.445,0.959,0.986,0.959h1.037c0.542,0,0.988-0.432,0.988-0.959v-8.399
							c0-0.528,0.442-0.961,0.984-0.961c0.544,0,0.988,0.433,0.988,0.961v13.102c0,2.112-1.48,3.936-3.456,4.465l0.792,20.83
							c0,1.776-1.483,3.216-3.308,3.216c-1.827,0-3.308-1.439-3.308-3.216l0.788-20.83c-2.023-0.575-3.452-2.353-3.452-4.465V41.449
							z"/>
					</defs>
					<use xlink:href="#SVGID_7_"  overflow="visible" fill-rule="evenodd" clip-rule="evenodd" fill="#FFFFFF"/>
					<clipPath id="SVGID_8_">
						<use xlink:href="#SVGID_7_"  overflow="visible"/>
					</clipPath>
					<g clip-path="url(#SVGID_8_)">
						<defs>
							<rect id="SVGID_9_" x="33.343" y="37.813" width="19.161" height="47.342"/>
						</defs>
						<use xlink:href="#SVGID_9_"  overflow="visible" fill="#FFFFFF"/>
						<clipPath id="SVGID_10_">
							<use xlink:href="#SVGID_9_"  overflow="visible"/>
						</clipPath>
						<rect x="28.123" y="32.285" clip-path="url(#SVGID_10_)" fill="#FFFFFF" width="29.103" height="58.495"/>
					</g>
				</g>
			</g>
		</g>
		<g>
			<defs>
				<path id="SVGID_11_" d="M56.173,67.478v12.467c0,2.8,2.284,5.172,5.068,5.218h0.148c2.88,0,5.268-2.272,5.268-5.123v-8.842
					V57.04V42.016c0-1.983-1.691-3.624-3.728-3.624c-4.771,0-8.646,3.767-8.646,8.406v18.023
					C54.333,66.027,55.075,67.041,56.173,67.478 M62.913,41.242c0.908,0,1.675,0.743,1.675,1.628v14.478v13.639v8.52
					c0,1.675-1.39,3.071-3.16,3.071h-0.095c-1.724-0.045-3.063-1.488-3.063-3.165V66.611c0-0.467-0.384-0.886-0.91-0.886
					c-0.479,0-0.909-0.372-0.909-0.883V47.479C56.497,44.034,59.37,41.242,62.913,41.242"/>
			</defs>
			<use xlink:href="#SVGID_11_"  overflow="visible" fill-rule="evenodd" clip-rule="evenodd" fill="#FFFFFF"/>
			<clipPath id="SVGID_12_">
				<use xlink:href="#SVGID_11_"  overflow="visible"/>
			</clipPath>
			<g clip-path="url(#SVGID_12_)">
				<rect x="48.647" y="32.755" fill="#FFFFFF" width="23.646" height="58.042"/>
			</g>
		</g>
	</g>
	<g>
		<path fill="#FFFFFF" stroke="#FFFFFF" stroke-width="0.7" stroke-miterlimit="10" d="M65.809,18.836
			c-0.346-0.287-0.758-0.495-1.268-0.671l-11.109-3.783c-1.008-0.346-2.219-0.513-3.434-0.513c-1.213,0-2.424,0.168-3.434,0.513
			l-11.109,3.783c-0.508,0.176-0.922,0.381-1.268,0.671c-0.344,0.288-0.646,0.721-0.646,1.243c0,0.526,0.303,0.97,0.646,1.256
			c0.346,0.286,0.76,0.488,1.268,0.659l11.113,3.786c2.018,0.689,4.844,0.689,6.869,0l11.107-3.786
			c0.508-0.171,0.922-0.37,1.266-0.659c0.346-0.286,0.648-0.729,0.648-1.256C66.457,19.557,66.152,19.124,65.809,18.836z
			 M63.969,20.318l-11.096,3.785c-1.473,0.504-4.268,0.504-5.742,0l-11.1-3.785c-0.236-0.082-0.41-0.164-0.533-0.239
			c0.123-0.072,0.297-0.154,0.533-0.235l11.1-3.784c0.736-0.253,1.803-0.38,2.871-0.38c1.064,0,2.131,0.127,2.871,0.38l11.1,3.784
			c0.236,0.081,0.41,0.163,0.531,0.235C64.379,20.154,64.209,20.236,63.969,20.318z"/>
		<path fill="#FFFFFF" stroke="#FFFFFF" stroke-width="0.7" stroke-miterlimit="10" d="M58.639,28.042v0.689
			c0,0.128-0.07,0.331-0.422,0.627c-0.352,0.299-0.949,0.627-1.727,0.904c-1.559,0.562-3.812,0.927-6.32,0.927h-0.346
			c-2.506,0-4.76-0.365-6.314-0.927c-0.781-0.277-1.381-0.605-1.73-0.904c-0.352-0.296-0.422-0.499-0.422-0.627v-0.689V25.82
			l-1.77-0.606v2.828v0.689c0,0.798,0.445,1.469,1.039,1.975c0.592,0.506,1.373,0.896,2.283,1.223
			c1.826,0.656,4.236,1.029,6.912,1.029h0.35c2.678,0,5.086-0.373,6.912-1.029c0.912-0.327,1.689-0.72,2.285-1.223
			c0.594-0.506,1.037-1.177,1.037-1.975v-0.689v-2.828l-1.768,0.606V28.042L58.639,28.042z"/>
	</g>
</g>
<g id="restau">
</g>
<g id="cafe">
</g>
</svg>
