<?xml version="1.0" encoding="utf-8"?>
<!-- Generator: Adobe Illustrator 16.0.0, SVG Export Plug-In . SVG Version: 6.00 Build 0)  -->
<!DOCTYPE svg PUBLIC "-//W3C//DTD SVG 1.1//EN" "http://www.w3.org/Graphics/SVG/1.1/DTD/svg11.dtd">
<svg version="1.1" id="Calque_1" xmlns="http://www.w3.org/2000/svg" xmlns:xlink="http://www.w3.org/1999/xlink" x="0px" y="0px"
	 width="100px" height="100px" viewBox="0 0 100 100" enable-background="new 0 0 100 100" xml:space="preserve">
<g id="dab">
	<ellipse fill="#DDDDDC" stroke="#FFFFFF" stroke-width="3" stroke-miterlimit="10" cx="50" cy="50" rx="46.775" ry="45.485"/>
	<path fill="#FFFFFF" d="M76.376,31.118H23.623c-0.502,0-0.91,0.408-0.91,0.91v30.33c0,0.502,0.407,0.91,0.91,0.91h10.794
		c-0.332,0.814-0.379,1.61-0.123,2.33c0,0.004,0.001,0.006,0.001,0.008l1.185,3.324c0.005,0.012,0.014,0.022,0.02,0.035
		c0.582,1.562,2.46,2.444,5.131,2.444c0.364,0,0.741-0.019,1.132-0.05c1.336-0.111,2.732-0.41,4.154-0.887
		c0.002,0,0.003-0.003,0.005-0.003c0.005-0.002,0.009,0,0.014-0.002c0.01-0.003,0.019-0.01,0.03-0.014
		c0.008-0.003,0.016-0.005,0.023-0.008c0.084-0.028,0.173-0.059,0.26-0.089c0.823-0.293,1.593-0.645,2.329-1.021
		c1.423,1.308,3.686,2.413,6.441,3.046c0.033,0.012,0.064,0.025,0.1,0.031c0.021,0.005,0.041,0.004,0.062,0.007
		c0.088,0.021,0.174,0.042,0.266,0.062c1.289,0.268,2.57,0.401,3.771,0.401c1.049,0,2.039-0.102,2.926-0.308
		c1.582-0.368,2.726-1.044,3.334-1.947c0.168-0.128,0.293-0.311,0.34-0.534l0.101-0.487c0.002-0.002,0.003-0.008,0.005-0.014
		c0.001-0.003,0-0.008,0.001-0.014l0.718-3.45c0.199-0.964-0.121-1.942-0.834-2.862h10.568c0.504,0,0.911-0.408,0.911-0.91v-30.33
		C77.287,31.526,76.88,31.118,76.376,31.118z M33.636,57.877c-0.404-2.864-2.67-5.131-5.535-5.534V42.042
		c2.865-0.402,5.132-2.67,5.536-5.536h32.727c0.403,2.866,2.671,5.134,5.538,5.536v10.301c-2.865,0.402-5.133,2.669-5.537,5.534
		H51.659c-1.799-1.579-5.77-1.677-9.921-0.197c-0.167,0.059-0.339,0.124-0.528,0.197H33.636L33.636,57.877z M64.859,65.761
		c-0.19,0.917-1.943,1.843-4.928,1.843c-1.091,0-2.234-0.123-3.395-0.364c-2.164-0.448-4.105-1.251-5.465-2.261
		c-1.129-0.836-1.72-1.738-1.581-2.41c0.147-0.706,1.057-1.271,2.407-1.582c0.041-0.006,0.082-0.017,0.121-0.028
		c0.703-0.147,1.515-0.233,2.4-0.233c1.092,0,2.234,0.123,3.395,0.363C62.214,62,65.162,64.309,64.859,65.761z M41.754,59.617
		c0.193-0.077,0.386-0.152,0.59-0.223c3.959-1.414,7.306-1.117,8.244-0.022c0.023,0.028,0.041,0.056,0.061,0.084
		c-1.625,0.555-2.682,1.504-2.939,2.742l-0.368,1.774c-0.874,0.512-1.838,0.965-2.886,1.336c-4.226,1.506-7.938,1.076-8.446-0.314
		l-0.003-0.008c0-0.002,0-0.004-0.001-0.004c-0.183-0.527,0.073-1.256,0.727-2.047C37.754,61.689,39.571,60.486,41.754,59.617z
		 M37.195,68.316c-0.001-0.006-0.005-0.008-0.007-0.017L37,67.773c0.721,0.203,1.546,0.314,2.455,0.314
		c1.666,0,3.596-0.346,5.611-1.064c0.65-0.232,1.275-0.489,1.871-0.773c0,0.551,0.165,1.105,0.466,1.645
		c-0.395,0.19-0.806,0.368-1.229,0.532l-0.078-0.218c-0.17-0.475-0.69-0.72-1.163-0.551c-0.473,0.167-0.72,0.689-0.553,1.162
		l0.071,0.197c-0.733,0.205-1.452,0.354-2.154,0.448l-0.182-0.512c-0.169-0.472-0.69-0.72-1.163-0.552
		c-0.473,0.17-0.719,0.69-0.55,1.162l0.004,0.014C38.708,69.539,37.466,69.076,37.195,68.316z M61.732,70.804
		c-1.506,0.353-3.389,0.347-5.351,0.003l0.05-0.236c0.101-0.493-0.215-0.975-0.707-1.076s-0.974,0.214-1.076,0.708l-0.041,0.203
		c-0.75-0.212-1.443-0.46-2.073-0.737l0.11-0.532c0.103-0.489-0.213-0.971-0.705-1.075c-0.494-0.103-0.974,0.215-1.076,0.707
		l-0.004,0.018c-0.583-0.373-1.062-0.762-1.411-1.146c-0.009-0.01-0.017-0.017-0.026-0.025c-0.509-0.565-0.747-1.116-0.65-1.58
		l0.117-0.564c0.311,0.332,0.676,0.657,1.1,0.973c1.567,1.164,3.762,2.08,6.18,2.582c1.282,0.268,2.549,0.4,3.765,0.4
		c1.724,0,3.195-0.273,4.327-0.768l-0.12,0.578C63.993,69.902,63.094,70.489,61.732,70.804z M75.467,61.449H63.73
		c-1.096-0.701-2.451-1.303-4-1.752h7.455c0.004,0,0.012,0.001,0.018,0.001c0.439,0,0.806-0.313,0.89-0.729
		c0.013-0.059,0.019-0.12,0.019-0.184c0,0,0,0,0-0.001c0.003-2.589,2.108-4.694,4.699-4.694c0.502,0,0.908-0.407,0.908-0.909V41.205
		c0-0.502-0.406-0.91-0.908-0.91c-2.591,0-4.699-2.107-4.699-4.697c0-0.501-0.405-0.91-0.908-0.91H32.797
		c-0.502,0-0.909,0.409-0.909,0.91c0,2.59-2.107,4.697-4.697,4.697c-0.503,0-0.91,0.408-0.91,0.91v11.977
		c0,0.504,0.407,0.91,0.91,0.91c2.588,0,4.694,2.105,4.697,4.694c0,0.001,0,0.001,0,0.001c0,0.064,0.006,0.125,0.018,0.184
		c0.085,0.415,0.451,0.729,0.892,0.729c0.005,0,0.011-0.001,0.018-0.001h4.877c-0.811,0.547-1.508,1.141-2.068,1.752H24.532V32.938
		h50.935V61.449z"/>
</g>
<g id="bar">
</g>
<g id="asso">
</g>
<g id="biblio">
</g>
<g id="soins">
</g>
<g id="laverie">
	<g id="machine">
	</g>
</g>
<g id="culture">
</g>
<g id="impressions">
</g>
<g id="resto-u">
</g>
<g id="restau">
</g>
<g id="cafe">
</g>
</svg>
