<?xml version="1.0" encoding="utf-8"?>
<!-- Generator: Adobe Illustrator 16.0.0, SVG Export Plug-In . SVG Version: 6.00 Build 0)  -->
<!DOCTYPE svg PUBLIC "-//W3C//DTD SVG 1.1//EN" "http://www.w3.org/Graphics/SVG/1.1/DTD/svg11.dtd">
<svg version="1.1" xmlns="http://www.w3.org/2000/svg" xmlns:xlink="http://www.w3.org/1999/xlink" x="0px" y="0px"
	 width="96.776px" height="93.151px" viewBox="0 0 96.776 93.151" enable-background="new 0 0 96.776 93.151" xml:space="preserve">
<g id="dab">
</g>
<g id="bar">
</g>
<g id="defribrilateur">
	
		<ellipse fill="#98CD8C" stroke="#FFFFFF" stroke-width="3" stroke-miterlimit="10" cx="48.389" cy="46.575" rx="46.775" ry="45.485"/>
	<path fill="#FFFFFF" d="M48.389,74.705c-0.126,0-0.252-0.023-0.369-0.074c-13.852-5.939-28.684-21.256-28.684-34.602
		c0-12.143,7.783-17.58,15.497-17.58c5.532,0,11.336,3.006,13.556,8.668c2.219-5.662,8.023-8.668,13.555-8.668
		c7.713,0,15.497,5.438,15.497,17.58c0,13.346-14.831,28.662-28.684,34.602C48.64,74.682,48.514,74.705,48.389,74.705z
		 M34.833,24.324c-6.78,0-13.623,4.855-13.623,15.705c0,12.301,14.245,27.012,27.179,32.717
		c12.933-5.705,27.178-20.416,27.178-32.717c0-10.85-6.842-15.705-13.623-15.705c-6.271,0-12.618,4.107-12.618,11.957
		c0,0.518-0.42,0.938-0.937,0.938c-0.518,0-0.938-0.42-0.938-0.938C47.451,28.432,41.104,24.324,34.833,24.324z M54.515,50.27
		l-2.824-1.41l3.365-8.412c0.212-0.535-0.012-1.145-0.522-1.414c-0.508-0.266-1.137-0.107-1.457,0.373l-7.498,11.246
		c-0.174,0.262-0.23,0.58-0.157,0.887c0.073,0.305,0.271,0.564,0.544,0.719l2.88,1.613l-3.372,8.225
		c-0.219,0.535,0.003,1.148,0.513,1.42c0.168,0.09,0.349,0.133,0.527,0.133c0.365,0,0.721-0.178,0.937-0.5L54.946,51.9
		c0.179-0.268,0.234-0.6,0.151-0.912S54.804,50.416,54.515,50.27z"/>
</g>
<g id="asso">
</g>
<g id="biblio">
</g>
<g id="detente">
	<g>
		<defs>
			<path id="SVGID_1_" d="M-47.674-209.266h-44.648c-1.28,0-2.321,1.023-2.321,2.28v32.635c0,1.256,1.041,2.28,2.321,2.28h6.17
				c0.684,0,1.299-0.292,1.726-0.757c0.423,0.465,1.039,0.757,1.723,0.757h6.17c0.683,0,1.299-0.292,1.726-0.757
				c0.423,0.465,1.04,0.757,1.722,0.757h6.172c0.683,0,1.298-0.292,1.725-0.757c0.423,0.465,1.039,0.757,1.723,0.757h6.17
				c0.685,0,1.299-0.292,1.724-0.757c0.426,0.465,1.041,0.757,1.725,0.757h6.17c1.28,0,2.32-1.024,2.32-2.28v-32.635
				C-45.354-208.242-46.396-209.266-47.674-209.266z M-85.414-174.351c0,0.399-0.331,0.727-0.739,0.727h-6.17
				c-0.408,0-0.74-0.327-0.74-0.727v-32.635c0-0.4,0.333-0.727,0.74-0.727h5.175v19.758c0,0.284,0.236,0.516,0.525,0.516h1.208
				V-174.351z M-75.794-174.351c0,0.399-0.332,0.727-0.737,0.727h-6.172c-0.406,0-0.738-0.327-0.738-0.727v-13.086h1.208
				c0.289,0,0.525-0.233,0.525-0.516v-19.76h4.18v19.758c0,0.284,0.236,0.516,0.524,0.516h1.209L-75.794-174.351L-75.794-174.351z
				 M-66.175-174.351c0,0.399-0.332,0.727-0.737,0.727h-6.173c-0.405,0-0.738-0.327-0.738-0.727v-13.086h1.209
				c0.29,0,0.526-0.233,0.526-0.516v-19.76h5.176c0.405,0,0.737,0.326,0.737,0.727V-174.351z M-56.554-174.351
				c0,0.399-0.333,0.727-0.739,0.727h-6.172c-0.405,0-0.739-0.327-0.739-0.727v-32.635c0-0.4,0.334-0.727,0.739-0.727h5.177v19.758
				c0,0.284,0.235,0.516,0.526,0.516h1.208V-174.351z M-46.935-174.351c0,0.399-0.333,0.727-0.739,0.727h-6.172
				c-0.405,0-0.738-0.327-0.738-0.727v-13.086h1.208c0.292,0,0.526-0.233,0.526-0.516v-19.76h5.176c0.406,0,0.739,0.326,0.739,0.727
				V-174.351z"/>
		</defs>
		<use xlink:href="#SVGID_1_"  overflow="visible" fill-rule="evenodd" clip-rule="evenodd" fill="#FFFFFF"/>
		<clipPath id="SVGID_2_">
			<use xlink:href="#SVGID_1_"  overflow="visible"/>
		</clipPath>
		<g clip-path="url(#SVGID_2_)">
			<defs>
				<rect id="SVGID_3_" x="-331.487" y="-750.124" width="512.316" height="911.241"/>
			</defs>
			<use xlink:href="#SVGID_3_"  overflow="visible" fill="#FFFFFF"/>
			<clipPath id="SVGID_4_">
				<use xlink:href="#SVGID_3_"  overflow="visible"/>
			</clipPath>
		</g>
	</g>
</g>
<g id="soins">
</g>
<g id="laverie">
	<g id="machine">
	</g>
</g>
<g id="culture">
</g>
<g id="impressions">
</g>
<g id="resto-u">
</g>
<g id="restau">
</g>
<g id="cafe">
</g>
<g id="default">
</g>
</svg>
