<?xml version="1.0" encoding="utf-8"?>
<!-- Generator: Adobe Illustrator 16.0.0, SVG Export Plug-In . SVG Version: 6.00 Build 0)  -->
<!DOCTYPE svg PUBLIC "-//W3C//DTD SVG 1.1//EN" "http://www.w3.org/Graphics/SVG/1.1/DTD/svg11.dtd">
<svg version="1.1" id="Calque_1" xmlns="http://www.w3.org/2000/svg" xmlns:xlink="http://www.w3.org/1999/xlink" x="0px" y="0px"
	 width="55px" height="86.714px" viewBox="0 0 55 86.714" enable-background="new 0 0 55 86.714" xml:space="preserve">
<g>
	<path fill="#F69B57" stroke="#FFFFFF" stroke-width="2.5" stroke-miterlimit="10" d="M5.44,40.372L26.068,81.63
		c0.213,0.423,0.641,0.688,1.113,0.688c0.471,0,0.902-0.265,1.111-0.688l20.629-41.258c1.777-3.55,2.6-7.256,2.596-10.862
		c0-6.388-2.561-12.457-6.881-16.938c-4.314-4.485-10.426-7.383-17.455-7.38l0,0c-7.027-0.003-13.139,2.897-17.456,7.379
		c-4.32,4.482-6.88,10.551-6.882,16.938C2.844,33.116,3.666,36.822,5.44,40.372z"/>
</g>
<g>
	<path fill="#FFFFFF" stroke="#FFFFFF" stroke-width="0.8" stroke-miterlimit="10" d="M26.554,39.108
		c-3.013,0-5.463-2.449-5.463-5.461c0-3.014,2.451-5.464,5.463-5.464c3.013,0,5.463,2.45,5.463,5.464
		C32.017,36.659,29.566,39.108,26.554,39.108z M26.554,29.536c-2.266,0-4.109,1.844-4.109,4.11c0,2.266,1.843,4.107,4.109,4.107
		s4.109-1.843,4.109-4.107C30.663,31.38,28.819,29.536,26.554,29.536z"/>
	<path fill="#FFFFFF" stroke="#FFFFFF" stroke-width="0.8" stroke-miterlimit="10" d="M35.207,45.79H17.899V22.399h17.308V45.79z
		 M19.254,44.437h14.6V23.753h-14.6V44.437z"/>
	<path fill="#FFFFFF" stroke="#FFFFFF" stroke-width="0.8" stroke-miterlimit="10" d="M32.956,48.183H20.152l-1.874-3.746h16.55
		L32.956,48.183z M20.989,46.829h11.129l0.519-1.039H20.47L20.989,46.829z"/>
	<path fill="#FFFFFF" stroke="#FFFFFF" stroke-width="0.8" stroke-miterlimit="10" d="M34.809,23.753h-16.51l1.846-3.847h12.818
		L34.809,23.753z M20.45,22.399h12.207L32.11,21.26H20.998L20.45,22.399z"/>
	<path fill="#FFFFFF" stroke="#FFFFFF" stroke-width="0.8" stroke-miterlimit="10" d="M30.251,20.741l-1.289-0.415l1.185-3.687
		c0.3-1.089,1.323-1.868,2.48-1.868h5.206v1.354h-5.206c-0.55,0-1.037,0.371-1.183,0.901L30.251,20.741z"/>
</g>
</svg>
