<?xml version="1.0" encoding="utf-8"?>
<!-- Generator: Adobe Illustrator 16.0.0, SVG Export Plug-In . SVG Version: 6.00 Build 0)  -->
<!DOCTYPE svg PUBLIC "-//W3C//DTD SVG 1.1//EN" "http://www.w3.org/Graphics/SVG/1.1/DTD/svg11.dtd">
<svg version="1.1" id="Calque_1" xmlns="http://www.w3.org/2000/svg" xmlns:xlink="http://www.w3.org/1999/xlink" x="0px" y="0px"
	 width="59.5px" height="86.714px" viewBox="0 0 59.5 86.714" enable-background="new 0 0 59.5 86.714" xml:space="preserve">
<g>
	<path fill="#4EC4DA" stroke="#FFFFFF" stroke-width="2.5" stroke-miterlimit="10" d="M8.345,40.766l20.628,41.256
		c0.213,0.423,0.641,0.688,1.113,0.688c0.471,0,0.902-0.265,1.111-0.688l20.629-41.256c1.777-3.549,2.6-7.255,2.596-10.861
		c0-6.388-2.561-12.458-6.881-16.938c-4.314-4.485-10.426-7.383-17.455-7.38l0,0c-7.027-0.003-13.139,2.897-17.456,7.379
		c-4.319,4.482-6.88,10.551-6.882,16.938C5.748,33.511,6.57,37.217,8.345,40.766z"/>
</g>
<path fill="#FFFFFF" stroke="#FFFFFF" stroke-miterlimit="10" d="M29.459,33.138c0.429,0.174,0.572,0.651,0.382,1.048
	c-0.191,0.398-0.652,0.589-1.05,0.382h-0.016c-0.732-0.333-1.416-0.811-2.02-1.43c-2.799-2.783-2.799-7.315,0-10.113l5.612-5.613
	c2.798-2.799,7.33-2.799,10.112,0c2.798,2.783,2.798,7.314,0,10.112l-2.592,2.592l-0.237-2.003l1.716-1.718
	c2.163-2.162,2.163-5.692,0-7.871c-2.179-2.162-5.707-2.162-7.87,0l-5.629,5.629c-2.162,2.162-2.162,5.692,0,7.87
	C28.346,32.501,28.887,32.868,29.459,33.138L29.459,33.138 M18.885,41.004c-2.798-2.781-2.798-7.31,0-10.109l2.592-2.592
	l0.239,2.003l-1.718,1.717c-2.162,2.162-2.162,5.69,0,7.869c2.178,2.162,5.708,2.162,7.87,0l5.629-5.625
	c2.163-2.164,2.163-5.693,0-7.872c-0.478-0.477-1.018-0.842-1.59-1.113v0.016c-0.43-0.191-0.573-0.667-0.382-1.065
	c0.19-0.398,0.652-0.588,1.049-0.382h0.017c0.731,0.334,1.415,0.811,2.02,1.431c2.798,2.783,2.798,7.314,0,10.112l-5.613,5.609
	C26.198,43.802,21.667,43.802,18.885,41.004z"/>
</svg>
