<?xml version="1.0" encoding="utf-8"?>
<!-- Generator: Adobe Illustrator 16.0.0, SVG Export Plug-In . SVG Version: 6.00 Build 0)  -->
<!DOCTYPE svg PUBLIC "-//W3C//DTD SVG 1.1//EN" "http://www.w3.org/Graphics/SVG/1.1/DTD/svg11.dtd">
<svg version="1.1" id="Calque_1" xmlns="http://www.w3.org/2000/svg" xmlns:xlink="http://www.w3.org/1999/xlink" x="0px" y="0px"
	 width="55.5px" height="86.714px" viewBox="0 0 55.5 86.714" enable-background="new 0 0 55.5 86.714" xml:space="preserve">
<g>
	<path fill="#EE575F" stroke="#FFFFFF" stroke-width="2.5" stroke-miterlimit="10" d="M6.288,42.276l20.628,41.258
		c0.213,0.423,0.641,0.688,1.113,0.688c0.471,0,0.902-0.265,1.111-0.688L49.77,42.276c1.777-3.55,2.6-7.256,2.596-10.862
		c0-6.388-2.561-12.457-6.881-16.938c-4.314-4.485-10.426-7.383-17.455-7.38l0,0c-7.027-0.003-13.139,2.897-17.456,7.379
		c-4.32,4.482-6.88,10.551-6.882,16.938C3.691,35.021,4.513,38.727,6.288,42.276z"/>
</g>
<g>
	<path fill="#FFFFFF" stroke="#FFFFFF" stroke-miterlimit="10" d="M31.39,34.896v8.511c0,1.913,1.517,3.532,3.365,3.563
		c0.033,0,0.066,0,0.099,0c1.913,0,3.497-1.551,3.497-3.497v-6.038v-9.666V17.512c0-1.353-1.122-2.474-2.474-2.474
		c-3.167,0-5.741,2.573-5.741,5.74v12.305C30.169,33.907,30.664,34.599,31.39,34.896z M35.865,16.984
		c0.604,0,1.112,0.508,1.112,1.112v9.884v9.312v5.816c0,1.144-0.922,2.098-2.098,2.098c-0.031,0-0.031,0-0.063,0
		c-1.144-0.032-2.034-1.018-2.034-2.161v-8.74c0-0.318-0.254-0.604-0.604-0.604c-0.318,0-0.604-0.254-0.604-0.604V21.243
		C31.606,18.891,33.513,16.984,35.865,16.984L35.865,16.984z"/>
	<path fill="#FFFFFF" stroke="#FFFFFF" stroke-miterlimit="10" d="M19.075,29.789l-0.549,13.543v0.032v0.034
		c0,1.963,1.759,3.562,3.922,3.562c2.162,0,3.921-1.599,3.921-3.562v-0.034v-0.032l-0.55-13.543
		c1.539-0.798,2.529-2.296,2.529-3.959v-9.117c0-1.098-0.99-1.996-2.199-1.996c-0.769,0-1.465,0.367-1.869,0.931
		c-0.366-0.564-1.026-0.931-1.832-0.931c-0.77,0-1.466,0.367-1.869,0.931c-0.403-0.564-1.063-0.931-1.869-0.931
		c-1.21,0-2.199,0.898-2.199,1.996v9.083C16.547,27.46,17.538,28.99,19.075,29.789z M18.464,17.125c0-0.36,0.294-0.655,0.655-0.655
		l0,0c0.361,0,0.656,0.294,0.656,0.655v5.735c0,0.36,0.294,0.655,0.655,0.655h0.688c0.361,0,0.655-0.295,0.655-0.655v-5.735
		c0-0.36,0.295-0.655,0.655-0.655l0,0c0.361,0,0.656,0.294,0.656,0.655v5.735c0,0.36,0.295,0.655,0.655,0.655h0.688
		c0.36,0,0.655-0.295,0.655-0.655v-5.735c0-0.36,0.294-0.655,0.655-0.655c0.361,0,0.656,0.294,0.656,0.655v8.946
		c0,1.442-0.983,2.688-2.294,3.048l0.525,14.222c0,1.213-0.983,2.195-2.196,2.195l0,0c-1.212,0-2.195-0.982-2.195-2.195
		l0.524-14.222c-1.343-0.394-2.293-1.606-2.293-3.048V17.125L18.464,17.125z"/>
</g>
</svg>
