<?xml version="1.0" encoding="utf-8"?>
<!-- Generator: Adobe Illustrator 16.0.0, SVG Export Plug-In . SVG Version: 6.00 Build 0)  -->
<!DOCTYPE svg PUBLIC "-//W3C//DTD SVG 1.1//EN" "http://www.w3.org/Graphics/SVG/1.1/DTD/svg11.dtd">
<svg version="1.1" id="Calque_1" xmlns="http://www.w3.org/2000/svg" xmlns:xlink="http://www.w3.org/1999/xlink" x="0px" y="0px"
	 width="55.5px" height="86.714px" viewBox="0 0 55.5 86.714" enable-background="new 0 0 55.5 86.714" xml:space="preserve">
<g>
	<path fill="#58595B" stroke="#FFFFFF" stroke-width="2.5" stroke-miterlimit="10" d="M7.095,41.828l20.628,41.258
		c0.213,0.423,0.641,0.688,1.113,0.688c0.471,0,0.902-0.265,1.111-0.688l20.629-41.258c1.777-3.55,2.6-7.256,2.596-10.862
		c0-6.388-2.561-12.457-6.881-16.938c-4.314-4.485-10.426-7.383-17.455-7.38l0,0c-7.027-0.003-13.139,2.897-17.456,7.379
		C7.061,18.509,4.5,24.579,4.498,30.965C4.498,34.572,5.32,38.278,7.095,41.828z"/>
</g>
<g transform="translate(0,-952.36218)">
	<path fill="#FFFFFF" stroke="#FFFFFF" stroke-miterlimit="10" d="M21.902,967.467c0.437,0.596,0.88,1.039,1.099,1.43
		c0.468,1.123-0.396,1.871-0.888,2.739c-0.309,0.552-0.494,1.276-0.303,2.363c0.035,0.256,0.307,0.455,0.562,0.411
		c0.254-0.044,0.442-0.323,0.387-0.577c-0.165-0.936-0.029-1.328,0.196-1.73c0.715-1.088,1.615-2.292,0.872-3.672
		c-0.313-0.564-0.756-1.007-1.143-1.535c-0.094-0.136-0.259-0.219-0.423-0.21C21.767,966.694,21.767,967.176,21.902,967.467
		L21.902,967.467z M25.756,967.467c0.438,0.596,0.881,1.039,1.099,1.43c0.47,1.123-0.396,1.871-0.888,2.739
		c-0.308,0.552-0.492,1.276-0.302,2.363c0.035,0.256,0.306,0.455,0.562,0.411c0.255-0.044,0.442-0.323,0.388-0.577
		c-0.166-0.936-0.029-1.328,0.196-1.73c0.717-1.088,1.616-2.292,0.873-3.672c-0.315-0.564-0.757-1.007-1.144-1.535
		c-0.093-0.136-0.259-0.219-0.422-0.21C25.621,966.694,25.621,967.176,25.756,967.467L25.756,967.467z M29.61,967.467
		c0.438,0.596,0.882,1.039,1.1,1.43c0.469,1.123-0.396,1.871-0.889,2.739c-0.307,0.552-0.491,1.276-0.301,2.363
		c0.033,0.256,0.307,0.455,0.561,0.411c0.256-0.044,0.443-0.323,0.388-0.577c-0.165-0.936-0.03-1.328,0.195-1.73
		c0.717-1.088,1.617-2.292,0.875-3.672c-0.315-0.564-0.758-1.007-1.146-1.535c-0.092-0.136-0.257-0.219-0.422-0.21
		C29.475,966.694,29.475,967.176,29.61,967.467L29.61,967.467z M14.705,976.316c-0.648,0.009-0.856,0.443-0.889,0.993
		c0,8.702,1.509,13.727,6.882,19.096c0.088,0.096,0.217,0.15,0.346,0.152l11.563-0.029c0.126,0.004,0.254-0.049,0.347-0.137
		c1.432-1.424,2.58-2.833,3.508-4.289v0.12c1.839,0,4.189-0.85,6.143-2.467c1.951-1.618,3.493-4.045,3.493-7.164
		c-0.159-1.597-1.403-2.383-2.756-2.679c-1.249-0.208-2.43-0.197-3.568,0.135c0.04-0.874,0.062-1.781,0.062-2.739
		c0.045-0.4-0.17-0.634-0.393-0.888C30.993,976.342,22.342,976.304,14.705,976.316L14.705,976.316z M38.871,977.309
		c0,8.512-1.371,13.11-6.476,18.254l-11.126,0.03c-5.118-5.171-6.489-9.763-6.489-18.285
		C23.033,977.309,31.543,977.293,38.871,977.309L38.871,977.309z M43.146,980.86c0.943,0.227,1.976,0.786,1.986,1.731
		c0,2.806-1.348,4.95-3.131,6.425c-1.587,1.315-3.526,2.064-5.014,2.213c1.652-2.92,2.45-6.114,2.726-10.143
		C40.883,980.735,42.021,980.629,43.146,980.86z"/>
</g>
</svg>
