<?xml version="1.0" encoding="utf-8"?>
<!-- Generator: Adobe Illustrator 16.0.0, SVG Export Plug-In . SVG Version: 6.00 Build 0)  -->
<!DOCTYPE svg PUBLIC "-//W3C//DTD SVG 1.1//EN" "http://www.w3.org/Graphics/SVG/1.1/DTD/svg11.dtd">
<svg version="1.1" id="Calque_1" xmlns="http://www.w3.org/2000/svg" xmlns:xlink="http://www.w3.org/1999/xlink" x="0px" y="0px"
	 width="55.5px" height="86.714px" viewBox="0 0 55.5 86.714" enable-background="new 0 0 55.5 86.714" xml:space="preserve">
<g>
	<path fill="#9BCE91" stroke="#FFFFFF" stroke-width="2.5" stroke-miterlimit="10" d="M5.692,42.277L26.32,83.535
		c0.213,0.422,0.641,0.688,1.113,0.688c0.471,0,0.902-0.266,1.111-0.688l20.629-41.258c1.777-3.55,2.6-7.256,2.596-10.862
		c0-6.388-2.561-12.457-6.881-16.938c-4.314-4.485-10.426-7.383-17.455-7.38l0,0c-7.027-0.003-13.139,2.897-17.456,7.379
		c-4.32,4.482-6.88,10.551-6.882,16.938C3.096,35.021,3.917,38.727,5.692,42.277z"/>
</g>
<path fill="#FFFFFF" stroke="#FFFFFF" stroke-miterlimit="10" d="M41.372,30.088h-4.568v-1.741c0.686-0.902,1.096-2.021,1.096-3.243
	c0-2.969-2.412-5.38-5.381-5.38c-0.582,0-1.158,0.096-1.709,0.281c-0.672-2.488-2.929-4.292-5.615-4.292
	c-2.637,0-4.869,1.727-5.586,4.165c-0.965-0.198-1.996-0.045-2.859,0.436c-0.973,0.537-1.682,1.426-1.99,2.495
	c-0.307,1.068-0.326,2.796,0.934,3.954v18.731c0,1.498,1.217,2.719,2.719,2.719h15.679c1.498,0,2.719-1.215,2.719-2.719v-1.861
	c0,0,5.471-4.318,5.471-12.647C42.274,30.49,41.872,30.088,41.372,30.088z M35.001,45.492c0,0.5-0.41,0.908-0.91,0.908H18.406
	c-0.498,0-0.908-0.408-0.908-0.908v-17.56c0.697,0.224,1.471,0.262,2.195,0.096c0.74,2.002,2.672,3.403,4.873,3.403
	c1.771,0,3.391-0.915,4.337-2.341c0.973,0.889,2.246,1.395,3.607,1.395c0.871,0,1.721-0.211,2.477-0.607v15.615H35.001z
	 M32.519,28.673c-1.254,0-2.393-0.646-3.051-1.72c-0.188-0.308-0.533-0.474-0.891-0.429c-0.352,0.045-0.646,0.3-0.748,0.646
	c-0.416,1.445-1.76,2.45-3.264,2.45c-1.674,0-3.121-1.254-3.357-2.917c-0.045-0.294-0.225-0.544-0.486-0.679
	c-0.262-0.134-0.576-0.128-0.838,0.013c-0.756,0.409-1.689,0.358-2.4-0.097c-0.018-0.012-1.617-0.914-0.996-2.642
	c0.211-0.595,0.574-1.106,1.125-1.413c0.691-0.378,1.555-0.384,2.252-0.021c0.268,0.142,0.588,0.142,0.852-0.006
	c0.262-0.14,0.441-0.409,0.467-0.71c0.197-2.072,1.912-3.64,3.996-3.64c2.164,0,3.923,1.695,4.011,3.858
	c0.014,0.326,0.199,0.614,0.486,0.761c0.289,0.147,0.635,0.134,0.902-0.039c0.576-0.37,1.242-0.569,1.926-0.569
	c1.971,0,3.57,1.605,3.57,3.569C36.095,28.015,33.362,28.673,32.519,28.673z M36.804,41.001v-9.11h3.641
	C40.253,35.263,38.979,38.437,36.804,41.001z"/>
</svg>
