<?xml version="1.0" encoding="utf-8"?>
<!-- Generator: Adobe Illustrator 16.0.0, SVG Export Plug-In . SVG Version: 6.00 Build 0)  -->
<!DOCTYPE svg PUBLIC "-//W3C//DTD SVG 1.1//EN" "http://www.w3.org/Graphics/SVG/1.1/DTD/svg11.dtd">
<svg version="1.1" id="Calque_1" xmlns="http://www.w3.org/2000/svg" xmlns:xlink="http://www.w3.org/1999/xlink" x="0px" y="0px"
	 width="55.5px" height="86.714px" viewBox="0 0 55.5 86.714" enable-background="new 0 0 55.5 86.714" xml:space="preserve">
<g>
	<path fill="#BCBEC0" stroke="#FFFFFF" stroke-width="2.5" stroke-miterlimit="10" d="M5.256,42.206l20.628,41.257
		c0.213,0.422,0.641,0.688,1.113,0.688c0.471,0,0.902-0.266,1.111-0.688l20.629-41.257c1.777-3.549,2.6-7.255,2.596-10.86
		c0-6.389-2.561-12.457-6.881-16.938c-4.314-4.485-10.426-7.383-17.455-7.38l0,0C19.97,7.024,13.858,9.924,9.541,14.406
		c-4.319,4.482-6.88,10.551-6.882,16.938C2.659,34.951,3.481,38.657,5.256,42.206z"/>
</g>
<g transform="translate(0,-952.36218)">
	<path fill="#FFFFFF" stroke="#FFFFFF" stroke-width="0.5" stroke-miterlimit="10" d="M27.009,967.039
		c-4.789,0-8.7,3.162-9.648,6.957c-0.186,0.624,0.235,1.36,0.867,1.519c0.631,0.157,1.349-0.294,1.479-0.933
		c0.631-2.525,3.613-5.123,7.303-5.123c1.827,0,3.711,0.657,5.07,1.758s2.176,2.578,2.176,4.292c0,2.081-0.453,3.129-1.078,3.933
		s-1.524,1.403-2.63,2.193c-1.105,0.789-2.36,1.803-3.273,3.498c-0.912,1.694-1.476,4.005-1.476,7.313
		c0,0.634,0.577,1.21,1.211,1.21s1.211-0.576,1.211-1.21c0-3.039,0.498-4.907,1.174-6.161c0.675-1.253,1.542-1.961,2.554-2.685
		c1.012-0.723,2.196-1.428,3.159-2.665c0.963-1.238,1.57-2.97,1.57-5.427c0-2.521-1.287-4.693-3.103-6.164
		C31.758,967.875,29.413,967.039,27.009,967.039L27.009,967.039z M27.009,996.075c-1.003,0-1.815,0.812-1.815,1.814
		c0,1.004,0.812,1.816,1.815,1.816s1.816-0.812,1.816-1.816C28.825,996.888,28.012,996.075,27.009,996.075z"/>
</g>
</svg>
