<?xml version="1.0" encoding="utf-8"?>
<!-- Generator: Adobe Illustrator 16.0.0, SVG Export Plug-In . SVG Version: 6.00 Build 0)  -->
<!DOCTYPE svg PUBLIC "-//W3C//DTD SVG 1.1//EN" "http://www.w3.org/Graphics/SVG/1.1/DTD/svg11.dtd">
<svg version="1.1" id="Calque_1" xmlns="http://www.w3.org/2000/svg" xmlns:xlink="http://www.w3.org/1999/xlink" x="0px" y="0px"
	 width="55.5px" height="86.714px" viewBox="0 0 55.5 86.714" enable-background="new 0 0 55.5 86.714" xml:space="preserve">
<g>
	<path fill="#9A5C3D" stroke="#FFFFFF" stroke-width="2.5" stroke-miterlimit="10" d="M7.548,40.373l20.628,41.258
		c0.213,0.422,0.641,0.688,1.113,0.688c0.471,0,0.902-0.266,1.111-0.688l20.629-41.258c1.777-3.55,2.6-7.256,2.596-10.862
		c0-6.388-2.561-12.457-6.881-16.938C42.43,8.088,36.318,5.19,29.289,5.193l0,0C22.262,5.19,16.15,8.09,11.833,12.572
		c-4.32,4.482-6.88,10.551-6.882,16.938C4.951,33.117,5.772,36.823,7.548,40.373z"/>
</g>
<g transform="translate(5.9921265,958.35431)">
	<path fill="#FFFFFF" stroke="#FFFFFF" stroke-width="0.5" stroke-miterlimit="10" d="M15.842-941.614
		c-2.663,0-5.346,0.969-8.009,2.784c-0.323,0.221-0.504,0.585-0.504,0.948v20.173c0,0.422,0.263,0.846,0.664,1.029
		c0.385,0.182,0.869,0.121,1.212-0.161c3.409-2.865,7.483-3.147,12.931,0.1c0.364,0.221,0.827,0.203,1.171,0
		c2.764-1.674,4.761-2.42,6.616-2.42c1.877-0.021,3.772,0.705,6.395,2.399c0.687,0.445,1.756-0.141,1.756-0.947
		c0-9.259,0-10.914,0-20.173c0-0.363-0.182-0.707-0.464-0.928c-2.521-1.836-5.124-2.805-7.788-2.805c-2.42,0-4.82,0.847-7.141,2.381
		C20.462-940.524,18.282-941.614,15.842-941.614z M15.441-939.954c2.065,0,4.089,0.688,6.112,2.173v18.874
		c-4.756-2.28-9.147-2.28-12.761-0.258v-18.508C11.138-939.18,13.354-939.954,15.441-939.954z M30.112-939.837
		c2.083,0,4.209,0.78,6.419,2.276c0,8.241,0.022,11.451,0.022,18.956c-2.212-1.193-4.272-2.018-6.332-1.996
		c-2.105,0-4.208,0.759-6.529,1.973v-19.02C25.755-938.819,28.072-939.816,30.112-939.837z M15.579-936.55
		c-1.533,0-3.065,0.444-4.559,1.331c-0.263,0.161-0.363,0.524-0.201,0.787c0.141,0.262,0.523,0.343,0.786,0.201
		c1.353-0.806,2.662-1.209,3.974-1.209s2.622,0.403,3.976,1.209c0.262,0.142,0.624,0.061,0.786-0.201
		c0.161-0.262,0.061-0.625-0.202-0.787C18.646-936.106,17.113-936.55,15.579-936.55z M29.821-936.55
		c-1.531,0-3.065,0.444-4.578,1.331c-0.242,0.161-0.343,0.524-0.182,0.787c0.141,0.262,0.523,0.343,0.767,0.201
		c1.352-0.806,2.662-1.209,3.973-1.209c1.312,0,2.644,0.403,3.995,1.209c0.262,0.142,0.625,0.061,0.788-0.201
		c0.14-0.262,0.06-0.625-0.202-0.787C32.89-936.106,31.355-936.55,29.821-936.55z M15.579-933.122c-1.533,0-3.065,0.425-4.559,1.332
		c-0.263,0.142-0.363,0.524-0.201,0.767c0.141,0.263,0.523,0.362,0.786,0.201c1.331-0.806,2.644-1.21,3.935-1.21
		c1.331,0,2.661,0.404,4.015,1.21c0.262,0.161,0.624,0.062,0.786-0.201c0.161-0.243,0.061-0.625-0.202-0.767
		C18.646-932.697,17.113-933.122,15.579-933.122z M29.821-933.122c-1.531,0-3.065,0.425-4.578,1.332
		c-0.242,0.142-0.343,0.524-0.182,0.767c0.141,0.263,0.523,0.362,0.767,0.201c1.352-0.806,2.662-1.21,3.973-1.21
		c1.312,0,2.644,0.404,3.995,1.21c0.262,0.161,0.625,0.062,0.788-0.201c0.14-0.243,0.06-0.625-0.202-0.767
		C32.89-932.697,31.355-933.122,29.821-933.122z M15.579-929.712c-1.533,0-3.065,0.423-4.559,1.332
		c-0.263,0.161-0.363,0.524-0.201,0.787c0.141,0.242,0.523,0.343,0.786,0.182c1.312-0.787,2.604-1.19,3.894-1.211
		c1.33-0.019,2.683,0.385,4.056,1.211c0.262,0.161,0.624,0.061,0.786-0.182c0.161-0.262,0.061-0.625-0.202-0.787
		C18.646-929.289,17.113-929.712,15.579-929.712z M29.821-929.712c-1.531,0-3.065,0.423-4.578,1.332
		c-0.242,0.161-0.343,0.524-0.182,0.787c0.141,0.242,0.523,0.343,0.767,0.182c1.331-0.787,2.622-1.19,3.913-1.211
		c1.333-0.019,2.663,0.385,4.055,1.211c0.262,0.161,0.625,0.061,0.788-0.182c0.14-0.262,0.06-0.625-0.202-0.787
		C32.89-929.289,31.355-929.712,29.821-929.712L29.821-929.712z M15.579-926.302c-1.533,0-3.065,0.444-4.559,1.332
		c-0.263,0.16-0.363,0.524-0.201,0.787c0.141,0.261,0.523,0.342,0.786,0.201c1.353-0.828,2.662-1.231,3.994-1.231
		c1.312,0.021,2.602,0.425,3.955,1.231c0.262,0.141,0.624,0.06,0.786-0.201c0.161-0.262,0.061-0.626-0.202-0.787
		C18.646-925.859,17.113-926.302,15.579-926.302z M29.821-926.302c-1.531,0-3.065,0.444-4.578,1.332
		c-0.242,0.16-0.343,0.524-0.182,0.787c0.141,0.261,0.523,0.342,0.767,0.201c1.331-0.787,2.603-1.191,3.873-1.231
		c1.353-0.021,2.703,0.384,4.095,1.231c0.262,0.141,0.625,0.06,0.788-0.201c0.14-0.262,0.06-0.626-0.202-0.787
		C32.89-925.859,31.355-926.302,29.821-926.302z"/>
</g>
</svg>
