<?xml version="1.0" encoding="utf-8"?>
<!-- Generator: Adobe Illustrator 16.0.0, SVG Export Plug-In . SVG Version: 6.00 Build 0)  -->
<!DOCTYPE svg PUBLIC "-//W3C//DTD SVG 1.1//EN" "http://www.w3.org/Graphics/SVG/1.1/DTD/svg11.dtd">
<svg version="1.1" id="Calque_1" xmlns="http://www.w3.org/2000/svg" xmlns:xlink="http://www.w3.org/1999/xlink" x="0px" y="0px"
	 width="30.625px" height="28.175px" viewBox="-5.625 -8.175 30.625 28.175" enable-background="new -5.625 -8.175 30.625 28.175"
	 xml:space="preserve">
<desc>Created with Sketch.</desc>
<g>
	<path fill="#FFFFFF" d="M5.988-4.691v8.075L3.406,0.8l-0.85,0.85l3.266,3.265l-3.266,3.27l0.85,0.845l2.582-2.58v7.974l5.83-5.443
		L7.417,4.866l4.401-4.111L5.988-4.691z M10.058,8.979l-2.871,2.679v-5.36L10.058,8.979z M7.187,3.435v-5.361l2.871,2.681
		L7.187,3.435z"/>
	<path fill="#FFFFFF" d="M18.917,6.497c0.073-0.535,0.113-1.078,0.113-1.631c0-6.657-5.415-12.072-12.07-12.072
		c-6.657,0-12.073,5.415-12.073,12.072c0,6.656,5.416,12.072,12.073,12.072c1.956,0,3.804-0.471,5.439-1.299
		c1.007,2.335,3.326,3.973,6.029,3.973c3.63,0,6.572-2.94,6.572-6.568C25,9.579,22.316,6.747,18.917,6.497z M11.86,13.043
		c0,0.493,0.063,0.975,0.167,1.438c-1.515,0.801-3.239,1.255-5.066,1.255c-5.996,0-10.872-4.873-10.872-10.871
		c0-5.993,4.875-10.873,10.872-10.873c5.994,0,10.871,4.88,10.871,10.873c0,0.561-0.043,1.11-0.126,1.65
		C14.419,6.875,11.86,9.658,11.86,13.043z M21.944,14.811L20.2,16.555l-1.772-1.77l-1.768,1.77l-1.745-1.744l1.769-1.768
		l-1.769-1.772l1.745-1.741l1.768,1.766L20.2,9.529l1.744,1.741l-1.77,1.772L21.944,14.811z"/>
</g>
<g>
	<path fill="#FFFFFF" d="M5.732-4.691v8.075L3.15,0.8L2.3,1.649l3.266,3.265L2.3,8.184l0.85,0.845l2.582-2.58v7.974l5.83-5.443
		L7.161,4.866l4.401-4.111L5.732-4.691z M9.802,8.979l-2.871,2.679v-5.36L9.802,8.979z M6.931,3.435v-5.361l2.871,2.681L6.931,3.435
		z"/>
	<path fill="#FFFFFF" d="M18.661,6.497c0.073-0.535,0.113-1.078,0.113-1.631c0-6.657-5.415-12.072-12.07-12.072
		c-6.657,0-12.073,5.415-12.073,12.072c0,6.656,5.416,12.072,12.073,12.072c1.956,0,3.804-0.471,5.439-1.299
		c1.007,2.335,3.326,3.973,6.029,3.973c3.63,0,6.572-2.94,6.572-6.568C24.744,9.579,22.061,6.747,18.661,6.497z M11.604,13.043
		c0,0.493,0.063,0.975,0.167,1.438c-1.515,0.801-3.239,1.255-5.066,1.255c-5.996,0-10.872-4.873-10.872-10.871
		c0-5.993,4.875-10.873,10.872-10.873c5.994,0,10.871,4.88,10.871,10.873c0,0.561-0.043,1.11-0.126,1.65
		C14.163,6.875,11.604,9.658,11.604,13.043z M21.688,14.811l-1.744,1.744l-1.772-1.77l-1.768,1.77l-1.745-1.744l1.769-1.768
		l-1.769-1.772l1.745-1.741l1.768,1.766l1.772-1.766l1.744,1.741l-1.77,1.772L21.688,14.811z"/>
</g>
</svg>
