<?xml version="1.0" encoding="utf-8"?>
<!-- Generator: Adobe Illustrator 16.0.0, SVG Export Plug-In . SVG Version: 6.00 Build 0)  -->
<!DOCTYPE svg PUBLIC "-//W3C//DTD SVG 1.1//EN" "http://www.w3.org/Graphics/SVG/1.1/DTD/svg11.dtd">
<svg version="1.1"
	 id="Calque_1" xmlns:cc="http://creativecommons.org/ns#" xmlns:sodipodi="http://sodipodi.sourceforge.net/DTD/sodipodi-0.dtd" xmlns:svg="http://www.w3.org/2000/svg" xmlns:inkscape="http://www.inkscape.org/namespaces/inkscape" xmlns:rdf="http://www.w3.org/1999/02/22-rdf-syntax-ns#" xmlns:dc="http://purl.org/dc/elements/1.1/"
	 xmlns="http://www.w3.org/2000/svg" xmlns:xlink="http://www.w3.org/1999/xlink" x="0px" y="0px" width="42.014px"
	 height="42.875px" viewBox="0 -8.125 42.014 42.875" enable-background="new 0 -8.125 42.014 42.875" xml:space="preserve">
<rect x="14.596" y="11.558" fill="#46C4DB" stroke="#46C4DB" stroke-width="0.5" stroke-miterlimit="10" width="0.826" height="3.681"/>
<rect x="14.596" y="5.012" fill="#46C4DB" stroke="#46C4DB" stroke-width="0.5" stroke-miterlimit="10" width="0.826" height="3.681"/>
<path fill="#46C4DB" stroke="#46C4DB" stroke-width="0.5" stroke-miterlimit="10" d="M26.022,29.967l11.013-6.609V-3.068
	l-6.006,3.881c-1.309-1.18-3.026-1.919-4.925-1.919c-1.938,0-3.688,0.763-5.005,1.984l-6.121-3.946L3.997,2.526v27.44l11.012-6.864
	L26.022,29.967z M26.106-0.28c3.614,0,6.555,2.941,6.555,6.556c0,0.594-0.079,1.184-0.237,1.752
	c-0.065,0.232-0.143,0.461-0.22,0.659l-0.172,0.399l-5.926,10.952L20.216,9.163l-0.212-0.479c-0.084-0.214-0.157-0.431-0.22-0.654
	c-0.157-0.569-0.238-1.16-0.238-1.753C19.548,2.661,22.489-0.28,26.106-0.28z M14.596,22.386L14.573,22.4l-9.749,6.076V3.032
	l9.772-4.98v4.094h0.826v-3.943l5.105,3.289c-1.111,1.291-1.808,2.95-1.808,4.786c0,0.685,0.095,1.344,0.269,1.974
	c0.07,0.251,0.152,0.497,0.247,0.739L19.458,9.5l6.645,12.277l6.653-12.293l0.201-0.46c0.101-0.251,0.187-0.507,0.258-0.771
	c0.174-0.627,0.269-1.29,0.269-1.974c0-1.871-0.718-3.561-1.864-4.86l4.59-2.967v24.438l-9.688,5.817v-4.067h-0.826v4.146
	L15.448,22.4l-0.023-0.014v-4.281H14.6v4.28H14.596z"/>
<path fill="#46C4DB" stroke="#46C4DB" stroke-width="0.5" stroke-miterlimit="10" d="M26.106,9.475c1.804,0,3.263-1.462,3.263-3.265
	c0-1.804-1.459-3.266-3.263-3.266c-1.806,0-3.268,1.462-3.268,3.266C22.839,8.013,24.301,9.475,26.106,9.475z M26.106,3.77
	c1.346,0,2.438,1.096,2.438,2.44s-1.095,2.439-2.438,2.439c-1.348,0-2.441-1.095-2.441-2.439C23.664,4.865,24.758,3.77,26.106,3.77z
	"/>
</svg>
