<?xml version="1.0" encoding="utf-8"?>
<!-- Generator: Adobe Illustrator 16.0.0, SVG Export Plug-In . SVG Version: 6.00 Build 0)  -->
<!DOCTYPE svg PUBLIC "-//W3C//DTD SVG 1.1//EN" "http://www.w3.org/Graphics/SVG/1.1/DTD/svg11.dtd">
<svg version="1.1" id="Calque_1" xmlns="http://www.w3.org/2000/svg" xmlns:xlink="http://www.w3.org/1999/xlink" x="0px" y="0px"
	 width="38px" height="34.101px" viewBox="0 120.899 38 34.101" enable-background="new 0 120.899 38 34.101" xml:space="preserve">
<path stroke="#000000" stroke-miterlimit="10" d="M19,121.992c-8.777,0-15.958,7.182-15.958,15.958S10.223,153.908,19,153.908
	s15.958-7.182,15.958-15.958S27.778,121.992,19,121.992z M19,152.769c-8.15,0-14.818-6.668-14.818-14.818
	c0-8.149,6.668-14.818,14.818-14.818s14.818,6.669,14.818,14.818C33.819,146.101,27.151,152.769,19,152.769z M24.016,133.79
	c0.513,2.679-1.026,5.243-3.647,5.984c-0.456,0.113-0.798,0.569-0.798,1.082v0.799c0,0.764-1.14,0.765-1.14,0v-0.799
	c0-1.025,0.684-1.937,1.652-2.165c1.994-0.57,3.248-2.564,2.85-4.674c-0.285-1.539-1.539-2.792-3.078-3.078
	c-2.305-0.438-4.844,1.199-4.844,3.876c0,0.765-1.14,0.764-1.14,0c0-3.215,2.967-5.605,6.155-5.015
	C22.021,130.199,23.617,131.795,24.016,133.79z M20.14,145.645c0,0.627-0.513,1.14-1.14,1.14s-1.14-0.513-1.14-1.14
	s0.513-1.14,1.14-1.14S20.14,145.018,20.14,145.645z"/>
</svg>
