<?xml version="1.0" encoding="utf-8"?>
<!-- Generator: Adobe Illustrator 16.0.0, SVG Export Plug-In . SVG Version: 6.00 Build 0)  -->
<!DOCTYPE svg PUBLIC "-//W3C//DTD SVG 1.1//EN" "http://www.w3.org/Graphics/SVG/1.1/DTD/svg11.dtd">
<svg version="1.1" id="Calque_1" xmlns="http://www.w3.org/2000/svg" xmlns:xlink="http://www.w3.org/1999/xlink" x="0px" y="0px"
	 width="37.551px" height="48.25px" viewBox="0 0 37.551 48.25" enable-background="new 0 0 37.551 48.25" xml:space="preserve">
<g>
	<path fill="#000333" d="M23.073,30.748v-1.451c3.335-1.549,5.65-4.929,5.65-8.842v-4.101c2.202-1.43,3.665-3.908,3.665-6.725V9.551
		c0-0.282-0.138-0.53-0.348-0.688c-0.158-0.2-0.4-0.328-0.675-0.328c-0.477,0-0.862,0.386-0.862,0.863v0.043
		c-0.003,0.224-0.015,0.407-0.074,0.555c-0.061,0.156-0.16,0.297-0.285,0.411c-0.144,0.122-0.325,0.204-0.522,0.231
		c-0.047,0.007-0.095,0.012-0.146,0.012c-0.317,0-0.603-0.146-0.792-0.374c-0.004-0.001-0.005-0.003-0.008-0.005
		c-0.001-0.003-0.001-0.003-0.003-0.004c-0.002-0.003-0.002-0.004-0.004-0.005c-0.064-0.08-0.151-0.24-0.176-0.306
		c-0.001-0.002-0.001-0.007-0.005-0.013c0-0.001,0-0.005-0.001-0.007c0-0.005,0-0.01-0.002-0.016
		c-0.013-0.054-0.026-0.108-0.039-0.161c-1.045-4.355-4.92-7.448-9.47-7.448h-0.095c-5.374,0-9.745,4.372-9.745,9.744v8.4
		c0,3.785,2.168,7.072,5.327,8.684v1.609c-2.596,0.82-4.873,2.361-6.617,4.494c-1.918,2.346-3.008,5.186-3.146,8.211
		C4.7,43.465,4.7,43.48,4.7,43.492v0.615c0,0.346,0.209,0.658,0.532,0.793c2.042,0.854,4.211,1.285,6.444,1.285h15.025
		c1.91,0,3.783-0.318,5.571-0.947c0.342-0.121,0.57-0.441,0.575-0.805l0.003-0.33C32.852,37.975,28.863,32.578,23.073,30.748z
		 M18.882,4.034h0.096c3.942,0,7.27,2.816,7.913,6.698c0.042,0.255,0.524,0.866,0.644,0.972c0.527,0.469,1.2,0.709,1.877,0.709
		c0.214,0,0.427-0.027,0.64-0.075c-1.016,2.114-3.177,3.579-5.675,3.579h-6.762c-3.468,0-6.289-2.821-6.289-6.288V9.552
		c0-0.05-0.004-0.1-0.012-0.147C12.411,6.28,15.387,4.034,18.882,4.034z M10.861,20.455V13.93c1.424,2.23,3.916,3.713,6.753,3.713
		h6.762c0.918,0,1.801-0.159,2.625-0.446v3.258c0,4.426-3.6,8.023-8.023,8.023h-0.096C14.458,28.479,10.861,24.881,10.861,20.455z
		 M21.35,29.91v1.051c0,1.412-1.15,2.561-2.562,2.561H18.75c-1.412,0-2.562-1.148-2.562-2.561V29.82
		c0.855,0.248,1.76,0.381,2.693,0.381h0.095C19.795,30.203,20.59,30.1,21.35,29.91z M26.702,44.463H11.677
		c-1.812,0-3.576-0.316-5.252-0.943v-0.008c0.125-2.646,1.08-5.127,2.756-7.18c1.476-1.803,3.384-3.125,5.56-3.861
		c0.613,1.621,2.178,2.775,4.01,2.775h0.038c1.83,0,3.396-1.154,4.009-2.775c4.854,1.646,8.204,6.168,8.325,11.332
		C29.697,44.24,28.214,44.463,26.702,44.463z"/>
	<path fill="#000333" d="M19.109,41.848c-0.227,0-0.45,0.092-0.609,0.252c-0.16,0.158-0.253,0.381-0.253,0.609
		c0,0.227,0.093,0.449,0.253,0.609c0.16,0.158,0.382,0.252,0.609,0.252s0.45-0.094,0.61-0.252c0.16-0.16,0.252-0.383,0.252-0.609
		c0-0.229-0.092-0.451-0.252-0.609C19.559,41.939,19.336,41.848,19.109,41.848z"/>
	<path fill="#000333" d="M19.109,39.137c-0.227,0-0.45,0.092-0.609,0.254c-0.16,0.158-0.253,0.381-0.253,0.607
		c0,0.229,0.093,0.449,0.253,0.611c0.16,0.16,0.382,0.25,0.609,0.25s0.449-0.09,0.61-0.25c0.16-0.164,0.252-0.385,0.252-0.611
		s-0.092-0.449-0.252-0.607C19.559,39.23,19.336,39.137,19.109,39.137z"/>
	<path fill="#000333" d="M19.109,36.402c-0.227,0-0.45,0.092-0.609,0.25c-0.16,0.162-0.253,0.383-0.253,0.611
		c0,0.227,0.093,0.447,0.253,0.609c0.162,0.158,0.382,0.252,0.609,0.252s0.449-0.094,0.61-0.252c0.16-0.162,0.252-0.383,0.252-0.609
		c0-0.229-0.092-0.449-0.252-0.611C19.559,36.494,19.336,36.402,19.109,36.402z"/>
</g>
</svg>
