<?xml version="1.0" encoding="utf-8"?>
<!-- Generator: Adobe Illustrator 16.0.0, SVG Export Plug-In . SVG Version: 6.00 Build 0)  -->
<!DOCTYPE svg PUBLIC "-//W3C//DTD SVG 1.1//EN" "http://www.w3.org/Graphics/SVG/1.1/DTD/svg11.dtd">
<svg version="1.1" id="Calque_1" xmlns="http://www.w3.org/2000/svg" xmlns:xlink="http://www.w3.org/1999/xlink" x="0px" y="0px"
	 width="37.551px" height="48.25px" viewBox="0 178.75 37.551 48.25" enable-background="new 0 178.75 37.551 48.25"
	 xml:space="preserve">
<path fill="#000333" d="M13.072,219.831H7.708c-0.296,0-0.537-0.24-0.537-0.536v-5.364c0-0.296,0.24-0.536,0.537-0.536h5.364
	c0.296,0,0.537,0.24,0.537,0.536v5.364C13.608,219.591,13.368,219.831,13.072,219.831z M8.244,218.759h4.291v-4.291H8.244V218.759z"
	/>
<path fill="#000333" d="M28.896,198.645H16.022c-0.148,0-0.269-0.121-0.269-0.27v-1.073c0-0.147,0.121-0.268,0.269-0.268h12.874
	c0.149,0,0.268,0.12,0.268,0.268v1.073C29.164,198.523,29.044,198.645,28.896,198.645z"/>
<path fill="#000333" d="M28.896,208.029H16.022c-0.148,0-0.269-0.12-0.269-0.268v-1.072c0-0.148,0.121-0.268,0.269-0.268h12.874
	c0.149,0,0.268,0.119,0.268,0.268v1.072C29.164,207.909,29.044,208.029,28.896,208.029z"/>
<path fill="#000333" d="M28.896,217.417H16.022c-0.148,0-0.269-0.121-0.269-0.268v-1.073c0-0.148,0.121-0.268,0.269-0.268h12.874
	c0.149,0,0.268,0.119,0.268,0.268v1.073C29.164,217.296,29.044,217.417,28.896,217.417z"/>
<path fill="#000333" d="M31.846,187.451h-6.169v1.396h6.169c0.709,0,1.287,0.577,1.287,1.286v32.185
	c0,0.708-0.578,1.287-1.287,1.287H5.026c-0.71,0-1.288-0.579-1.288-1.287v-32.185c0-0.71,0.577-1.287,1.288-1.287h6.168v-1.396
	H5.026c-1.481,0-2.682,1.201-2.682,2.682v32.185c0,1.48,1.201,2.682,2.682,2.682h26.82c1.481,0,2.681-1.201,2.681-2.682v-32.184
	C34.528,188.651,33.328,187.451,31.846,187.451z"/>
<path fill="#000333" d="M18.436,182.409c1.153,0,2.092,0.939,2.092,2.092c0,1.153-0.939,2.092-2.092,2.092
	c-1.154,0-2.092-0.938-2.092-2.092C16.344,183.349,17.282,182.409,18.436,182.409 M18.436,181.015c-1.926,0-3.487,1.562-3.487,3.486
	s1.561,3.487,3.487,3.487c1.926,0,3.486-1.562,3.486-3.487C21.922,182.576,20.362,181.015,18.436,181.015L18.436,181.015z"/>
<path fill="#000333" d="M12.536,197.937v2.049H8.245v-4.292h3.461l1.015-1.072H7.708c-0.296,0-0.537,0.239-0.537,0.537v5.363
	c0,0.297,0.24,0.537,0.537,0.537h5.365c0.296,0,0.537-0.24,0.537-0.537v-3.718L12.536,197.937z"/>
<path fill="#000333" d="M12.536,207.323v2.047H8.245v-4.29h3.461l1.015-1.072H7.708c-0.296,0-0.537,0.24-0.537,0.537v5.364
	c0,0.295,0.24,0.536,0.537,0.536h5.365c0.296,0,0.537-0.238,0.537-0.536v-3.719L12.536,207.323z"/>
<path fill="#000333" d="M24.336,184.607h-3.229c-0.021,0.515-0.178,0.995-0.449,1.396h3.678c0.356,0,0.644,0.289,0.644,0.645v2.682
	c0,0.355-0.289,0.644-0.644,0.644h-11.8c-0.356,0-0.644-0.289-0.644-0.644v-2.682c0-0.355,0.289-0.645,0.644-0.645h3.678
	c-0.271-0.4-0.429-0.881-0.449-1.396h-3.229c-1.124,0-2.039,0.916-2.039,2.04v2.682c0,1.124,0.915,2.037,2.039,2.037h11.801
	c1.124,0,2.039-0.913,2.039-2.037v-2.682C26.375,185.523,25.46,184.607,24.336,184.607z"/>
<path fill="#000333" d="M10.389,199.181c-0.019,0-0.039-0.001-0.059-0.004c-0.167-0.018-0.316-0.115-0.402-0.26l-0.881-1.481
	c-0.153-0.255-0.068-0.584,0.186-0.735c0.255-0.152,0.584-0.068,0.736,0.188l0.519,0.872l3.065-3.239
	c0.205-0.215,0.544-0.224,0.759-0.021c0.215,0.204,0.225,0.543,0.021,0.76l-3.554,3.755
	C10.677,199.119,10.537,199.181,10.389,199.181z"/>
<path fill="#000333" d="M10.389,208.567c-0.019,0-0.039-0.001-0.059-0.004c-0.167-0.019-0.316-0.115-0.402-0.26l-0.881-1.481
	c-0.153-0.255-0.068-0.583,0.186-0.735c0.255-0.152,0.584-0.067,0.736,0.188l0.519,0.872l3.065-3.239
	c0.205-0.215,0.544-0.224,0.759-0.021c0.215,0.204,0.225,0.543,0.021,0.76l-3.554,3.754
	C10.677,208.507,10.537,208.567,10.389,208.567z"/>
</svg>
