<?xml version="1.0" encoding="utf-8"?>
<!-- Generator: Adobe Illustrator 16.0.0, SVG Export Plug-In . SVG Version: 6.00 Build 0)  -->
<!DOCTYPE svg PUBLIC "-//W3C//DTD SVG 1.1//EN" "http://www.w3.org/Graphics/SVG/1.1/DTD/svg11.dtd">
<svg version="1.1" id="Calque_1" xmlns="http://www.w3.org/2000/svg" xmlns:xlink="http://www.w3.org/1999/xlink" x="0px" y="0px"
	 width="38.5px" height="44px" viewBox="18 99.75 38.5 44" enable-background="new 18 99.75 38.5 44" xml:space="preserve">
<g>
	<ellipse fill="none" stroke="#000333" stroke-width="2" stroke-miterlimit="10" cx="36.87" cy="106.881" rx="3.632" ry="3.547"/>
	<path fill="none" stroke="#000333" stroke-width="2" stroke-miterlimit="10" d="M45.918,131.013
		c-1.224,6.674-7.757,11.118-14.594,9.927c-6.835-1.194-11.385-7.572-10.165-14.249c1.04-5.678,5.988-9.883,11.892-10.109"/>
	<path fill="none" stroke="#000333" stroke-width="2" stroke-miterlimit="10" d="M53.528,138.507
		c0.36,0.869-0.073,1.858-0.965,2.208c-0.889,0.35-1.903-0.072-2.264-0.938l-3.6-8.788c-0.099-0.353-0.433-0.589-0.807-0.575h-7.347
		c-2.776,0-5.026-2.2-5.026-4.911v-9.289c-0.034-1.721,1.269-3.188,3.019-3.404c1.844-0.173,3.485,1.145,3.663,2.948
		c0.011,0.104,0.017,0.211,0.017,0.312l0.878,7.937c0.027,0.394,0.349,0.707,0.753,0.736l5.938,0.551
		c1.324,0.122,2.449,0.996,2.865,2.227L53.528,138.507z"/>
</g>
</svg>
