<?xml version="1.0" encoding="utf-8"?>
<!-- Generator: Adobe Illustrator 16.0.0, SVG Export Plug-In . SVG Version: 6.00 Build 0)  -->
<!DOCTYPE svg PUBLIC "-//W3C//DTD SVG 1.1//EN" "http://www.w3.org/Graphics/SVG/1.1/DTD/svg11.dtd">
<svg version="1.1" id="Calque_1" xmlns="http://www.w3.org/2000/svg" xmlns:xlink="http://www.w3.org/1999/xlink" x="0px" y="0px"
	 width="38px" height="34.102px" viewBox="0 0 38 34.102" enable-background="new 0 0 38 34.102" xml:space="preserve">
<g transform="translate(0,-952.36218)">
	<path fill="#000333" d="M15.522,952.893c-0.453,0-0.815,0.401-0.869,0.761l-0.354,3.166c-0.3,0.115-0.596,0.232-0.883,0.367
		l-2.486-1.984c-0.327-0.265-0.853-0.24-1.154,0.055l-4.917,4.918c-0.306,0.299-0.337,0.835-0.069,1.168l1.984,2.486
		c-0.133,0.285-0.252,0.583-0.366,0.882l-3.152,0.354c-0.423,0.046-0.777,0.444-0.774,0.869v6.958
		c0.003,0.419,0.356,0.809,0.774,0.855l3.152,0.353c0.116,0.303,0.231,0.607,0.366,0.896l-1.984,2.486
		c-0.261,0.331-0.23,0.857,0.069,1.154l4.917,4.918c0.298,0.299,0.825,0.329,1.154,0.068l2.5-1.998
		c0.284,0.134,0.571,0.255,0.869,0.367l0.354,3.167c0.046,0.421,0.444,0.776,0.869,0.772h6.957c0.425,0.006,0.822-0.352,0.868-0.772
		l0.354-3.167c0.299-0.112,0.586-0.233,0.869-0.367l2.5,1.998c0.331,0.261,0.857,0.23,1.155-0.068l4.918-4.918
		c0.299-0.297,0.329-0.823,0.067-1.154l-1.983-2.486c0.135-0.289,0.251-0.594,0.367-0.896l3.152-0.353
		c0.418-0.047,0.77-0.437,0.773-0.855v-6.958c0.003-0.424-0.352-0.822-0.773-0.869l-3.152-0.354
		c-0.115-0.299-0.233-0.598-0.367-0.882l1.983-2.486c0.27-0.333,0.238-0.869-0.067-1.168l-4.918-4.918
		c-0.302-0.295-0.827-0.32-1.155-0.055l-2.486,1.984c-0.287-0.135-0.581-0.252-0.883-0.367l-0.354-3.166
		c-0.053-0.418-0.448-0.764-0.868-0.761H15.522L15.522,952.893z M16.311,954.631h5.379l0.325,2.881
		c0.041,0.327,0.285,0.619,0.598,0.72c0.583,0.189,1.152,0.448,1.711,0.733c0.297,0.151,0.679,0.112,0.938-0.095l2.296-1.82
		l3.804,3.804l-1.82,2.296c-0.207,0.26-0.246,0.642-0.095,0.938c0.285,0.56,0.531,1.115,0.72,1.698
		c0.102,0.318,0.402,0.562,0.733,0.598l2.881,0.326v5.394l-2.881,0.324c-0.331,0.036-0.632,0.283-0.733,0.6
		c-0.188,0.583-0.435,1.138-0.72,1.697c-0.156,0.299-0.118,0.69,0.095,0.952l1.82,2.282l-3.817,3.816l-2.282-1.82
		c-0.26-0.206-0.642-0.246-0.938-0.095c-0.559,0.286-1.128,0.531-1.711,0.721c-0.312,0.101-0.557,0.394-0.598,0.72l-0.325,2.895
		h-5.379l-0.327-2.895c-0.04-0.326-0.283-0.619-0.597-0.72c-0.583-0.189-1.152-0.435-1.712-0.721
		c-0.295-0.151-0.678-0.111-0.937,0.095l-2.283,1.82l-3.818-3.816l1.821-2.282c0.213-0.262,0.251-0.653,0.095-0.952
		c-0.286-0.56-0.532-1.114-0.719-1.697c-0.103-0.316-0.403-0.563-0.735-0.6l-2.88-0.324v-5.394l2.88-0.326
		c0.332-0.036,0.632-0.28,0.735-0.598c0.188-0.583,0.434-1.139,0.719-1.698c0.15-0.295,0.112-0.678-0.095-0.938l-1.821-2.296
		l3.804-3.804l2.297,1.82c0.259,0.207,0.642,0.246,0.937,0.095c0.56-0.286,1.129-0.544,1.712-0.733
		c0.314-0.101,0.557-0.393,0.597-0.72L16.311,954.631z M19,961.589c-4.312,0-7.825,3.514-7.825,7.825
		c0,4.31,3.513,7.825,7.825,7.825c4.311,0,7.825-3.516,7.825-7.825C26.825,965.102,23.311,961.589,19,961.589z M19,963.327
		c3.371,0,6.086,2.715,6.086,6.087c0,3.371-2.715,6.085-6.086,6.085c-3.372,0-6.086-2.714-6.086-6.085
		C12.914,966.042,15.628,963.327,19,963.327z"/>
</g>
</svg>
