<?xml version="1.0" encoding="utf-8"?>
<!-- Generator: Adobe Illustrator 16.0.0, SVG Export Plug-In . SVG Version: 6.00 Build 0)  -->
<!DOCTYPE svg PUBLIC "-//W3C//DTD SVG 1.1//EN" "http://www.w3.org/Graphics/SVG/1.1/DTD/svg11.dtd">
<svg version="1.1" id="Calque_1" xmlns="http://www.w3.org/2000/svg" xmlns:xlink="http://www.w3.org/1999/xlink" x="0px" y="0px"
	 width="90px" height="90px" viewBox="0 0 90 90" enable-background="new 0 0 90 90" xml:space="preserve">
<circle opacity="0.2" fill="#FFFFFF" cx="45" cy="45" r="43.615"/>
<path fill="#FFFFFF" stroke="#FFFFFF" stroke-miterlimit="10" d="M67.6,44.288c-0.192-6.036-2.735-11.489-6.747-15.465
	c0.651-0.35,1.284-0.763,1.871-1.271c2.283-1.978,3.44-4.873,3.44-8.604h-1.467c0,3.277-0.982,5.795-2.919,7.481
	c-0.674-5.254-4.761-5.574-4.806-5.576l-0.09,1.465c0.035,0.002,3.276,0.259,3.509,5.086c-0.226,0.129-0.457,0.247-0.69,0.356
	c-3.781-3.268-8.639-5.319-13.965-5.535v-3.233h-1.468v3.223c-5.417,0.124-10.37,2.142-14.227,5.419
	c-0.145-0.073-0.288-0.15-0.43-0.23c0.229-4.773,3.375-5.076,3.515-5.087l-0.051-0.732l-0.045-0.732
	c-0.044,0.003-4.131,0.322-4.804,5.577c-1.937-1.687-2.919-4.204-2.919-7.481h-1.468c0,3.731,1.158,6.625,3.441,8.604
	c0.508,0.439,1.05,0.809,1.61,1.128c-4.096,3.989-6.7,9.498-6.895,15.607H18.97v1.468h3.024
	c0.384,12.068,10.178,21.796,22.272,22.074v3.222h1.468V67.82c11.906-0.484,21.484-10.131,21.865-22.064h3.431v-1.468H67.6
	L67.6,44.288z M44.267,23.682v4.145h1.468v-4.134c4.675,0.202,8.961,1.917,12.389,4.662c-3.196,0.948-6.385,0.516-6.429,0.51
	l-0.49-0.07l-3.788,6.508c-0.82-0.324-1.648-0.503-2.438-0.503c-0.779,0-1.594,0.175-2.402,0.489l-3.781-6.494l-0.489,0.07
	c-0.045,0.006-3.43,0.461-6.72-0.601C35.094,25.493,39.487,23.799,44.267,23.682z M51.951,42.193
	c0.448,1.249,0.677,2.609,0.677,4.043c0,1.198-2.097,3.604-3.417,4.837l-0.2,0.188l-0.029,0.272c-0.008,0.067-0.8,6.712-4.001,6.712
	c-3.428,0-3.992-6.624-3.998-6.691l-0.022-0.284l-0.208-0.194c-1.418-1.326-3.417-3.702-3.417-4.839
	c0-1.435,0.227-2.794,0.675-4.044l0.416-1.157l-1.216,0.184c-0.738,0.112-1.614-0.016-2.548-0.374
	c-1.752-0.67-3.117-2.914-3.716-4.053c0.863-0.32,2.396-0.799,3.853-0.799c0.621,0,1.166,0.089,1.62,0.261
	c1.317,0.504,2.233,1.264,2.578,2.138l0.418,1.06l0.792-0.819c1.412-1.458,3.241-2.364,4.774-2.364c1.534,0,3.364,0.906,4.776,2.365
	l0.792,0.818l0.418-1.06c0.344-0.874,1.26-1.632,2.578-2.137c0.454-0.173,0.999-0.262,1.62-0.262c1.458,0,2.994,0.48,3.856,0.802
	c-0.687,1.305-2.081,3.423-3.72,4.051c-0.935,0.357-1.808,0.488-2.55,0.374l-1.216-0.184L51.951,42.193z M66.132,45.755
	c-0.378,11.124-9.301,20.114-20.397,20.597v-4.136h-1.468v4.147c-11.285-0.277-20.422-9.347-20.805-20.607h4.344v-1.468h-4.344
	c0.2-5.886,2.791-11.175,6.835-14.923c3.137,1.264,6.474,1.123,7.72,1.009l3.239,5.565c-0.482,0.289-0.955,0.622-1.402,1.007
	c-0.631-0.858-1.634-1.573-2.914-2.063c-0.622-0.238-1.343-0.358-2.144-0.358c-2.505,0-5.059,1.167-5.167,1.217l-0.65,0.3
	l0.284,0.656c0.077,0.179,1.923,4.388,4.87,5.518c0.755,0.289,1.484,0.457,2.176,0.5c-0.295,1.117-0.445,2.296-0.445,3.521
	c0,2.002,2.83,4.894,3.681,5.719c0.162,1.454,1.113,7.758,5.432,7.758c4.133,0,5.231-6.324,5.426-7.751
	c0.843-0.815,3.689-3.718,3.689-5.725c0-1.225-0.15-2.404-0.446-3.521c0.692-0.043,1.421-0.211,2.176-0.5
	c2.948-1.13,4.793-5.338,4.869-5.518l0.284-0.656l-0.649-0.3c-0.107-0.05-2.661-1.217-5.165-1.217c-0.801,0-1.522,0.12-2.145,0.358
	c-1.28,0.49-2.282,1.205-2.914,2.063c-0.438-0.377-0.898-0.704-1.37-0.989l3.249-5.583c1.208,0.11,4.376,0.241,7.427-0.901
	c3.978,3.741,6.522,8.984,6.721,14.814h-3.936v1.468L66.132,45.755L66.132,45.755z"/>
</svg>
