<?xml version="1.0" encoding="utf-8"?>
<!-- Generator: Adobe Illustrator 16.0.0, SVG Export Plug-In . SVG Version: 6.00 Build 0)  -->
<!DOCTYPE svg PUBLIC "-//W3C//DTD SVG 1.1//EN" "http://www.w3.org/Graphics/SVG/1.1/DTD/svg11.dtd">
<svg version="1.1" id="Calque_1" xmlns="http://www.w3.org/2000/svg" xmlns:xlink="http://www.w3.org/1999/xlink" x="0px" y="0px"
	 width="91.667px" height="90.667px" viewBox="0 0 91.667 90.667" enable-background="new 0 0 91.667 90.667" xml:space="preserve">
<circle opacity="0.2" fill="#FFFFFF" stroke="#FFFFFF" stroke-miterlimit="10" enable-background="new    " cx="46.016" cy="45.528" r="43.615"/>
<path fill="#FFFFFF" d="M45.833,16.821c0.549,0,1.082,0.119,1.429,0.318L68.85,29.602L47.255,42.133
	c-0.345,0.199-0.875,0.318-1.422,0.318c-0.546,0-1.078-0.118-1.421-0.317L22.816,29.605l21.591-12.466
	C44.752,16.939,45.286,16.821,45.833,16.821 M45.833,15.372c-0.78,0-1.559,0.17-2.151,0.513L22.075,28.36
	c-1.184,0.683-1.185,1.803-0.002,2.49l21.613,12.538c0.59,0.343,1.369,0.514,2.148,0.514c0.78,0,1.559-0.171,2.151-0.515
	l21.607-12.54c1.184-0.687,1.181-1.807-0.003-2.491L47.987,15.883C47.395,15.542,46.615,15.372,45.833,15.372L45.833,15.372z"/>
<path fill="#FFFFFF" d="M20.377,33.697l21.649,12.558c0.734,0.426,1.428,1.631,1.428,2.479v25L21.805,61.236
	c-0.734-0.426-1.428-1.627-1.428-2.475V33.697 M20.12,32.133c-0.705,0-1.192,0.562-1.192,1.533v25.095
	c0,1.367,0.968,3.045,2.152,3.729l21.67,12.512c0.343,0.199,0.668,0.293,0.957,0.293c0.708,0,1.195-0.564,1.195-1.535V48.734
	c0-1.367-0.967-3.046-2.149-3.732L21.077,32.427C20.734,32.229,20.409,32.133,20.12,32.133L20.12,32.133z"/>
<path fill="#FFFFFF" d="M71.292,33.692v25.069c0,0.848-0.694,2.049-1.429,2.475L48.215,73.734v-25c0-0.848,0.695-2.053,1.429-2.479
	L71.292,33.692 M71.548,32.129c-0.287,0-0.613,0.094-0.957,0.293L48.917,45.001c-1.183,0.686-2.15,2.365-2.15,3.732v25.023
	c0,0.973,0.489,1.535,1.196,1.535c0.289,0,0.614-0.094,0.956-0.291l21.67-12.512c1.184-0.684,2.152-2.361,2.152-3.729V33.66
	C72.742,32.69,72.254,32.129,71.548,32.129L71.548,32.129z"/>
</svg>
