<?xml version="1.0" encoding="utf-8"?>
<!-- Generator: Adobe Illustrator 16.0.0, SVG Export Plug-In . SVG Version: 6.00 Build 0)  -->
<!DOCTYPE svg PUBLIC "-//W3C//DTD SVG 1.1//EN" "http://www.w3.org/Graphics/SVG/1.1/DTD/svg11.dtd">
<svg version="1.1" id="Calque_1" xmlns="http://www.w3.org/2000/svg" xmlns:xlink="http://www.w3.org/1999/xlink" x="0px" y="0px"
	 width="90px" height="90px" viewBox="0 0 90 90" enable-background="new 0 0 90 90" xml:space="preserve">
<circle opacity="0.2" fill="#FFFFFF" cx="45" cy="45" r="43.614"/>
<path fill="#FFFFFF" stroke="#FFFFFF" stroke-miterlimit="10" d="M65.305,44.044c-2.03-0.373-4.329-0.795-6.658-1.572
	c-7.491-2.496-18.271-10.702-18.378-10.784c-0.165-0.125-0.38-0.164-0.577-0.104c-0.198,0.061-0.354,0.214-0.42,0.409
	c-0.024,0.073-2.482,7.246-8.355,7.246c-5.665,0-5.76-4.915-5.762-5.122c0-0.23-0.123-0.443-0.324-0.558
	c-0.199-0.114-0.446-0.11-0.645,0.009c-0.14,0.083-3.443,2.118-4.773,7.437c-0.626,2.508-0.661,5.613-0.66,6.385
	c-0.397,0.689-1.965,3.536-2.547,6.447c-0.043,0.21,0.023,0.428,0.175,0.578c1.496,1.496,5.702,4.028,11.976,4.028h6.402
	c1.309,0,2.453-0.301,3.665-0.62c1.234-0.325,2.512-0.659,4.016-0.659c1.617,0,3.175,0.387,4.549,0.73
	c1.134,0.282,2.204,0.549,3.133,0.549h8.323c0.366,0,0.739-0.013,1.113-0.033c0.055,0.016,0.11,0.033,0.167,0.033
	c0.094,0,0.184-0.026,0.271-0.066c5.25-0.396,11.042-2.688,13.021-5.279c0.753-0.807,0.792-2.617,0.792-2.977
	C73.808,45.605,69.866,44.882,65.305,44.044z M24.031,35.317c0.401,1.854,1.826,5.201,6.885,5.201c5.563,0,8.362-5.235,9.253-7.305
	c1.053,0.783,3.22,2.354,5.872,4.078l-2.773,2.773c-0.251,0.251-0.251,0.655,0,0.906c0.124,0.124,0.289,0.188,0.452,0.188
	c0.164,0,0.327-0.063,0.452-0.188L47.144,38c0.536,0.34,1.088,0.682,1.649,1.021l-2.965,2.965c-0.25,0.251-0.25,0.656,0,0.905
	c0.125,0.124,0.289,0.188,0.452,0.188c0.164,0,0.328-0.064,0.452-0.188l3.195-3.194c0.561,0.33,1.13,0.654,1.703,0.969l-2.602,2.601
	c-0.251,0.25-0.251,0.655,0,0.904c0.124,0.126,0.289,0.188,0.451,0.188c0.165,0,0.329-0.062,0.453-0.188l2.874-2.875
	c0.597,0.312,1.191,0.61,1.781,0.89l-2.359,2.361c-0.251,0.25-0.251,0.654,0,0.905c0.125,0.124,0.289,0.187,0.452,0.187
	c0.164,0,0.328-0.062,0.453-0.187l2.561-2.562c0.046-0.045,0.073-0.1,0.103-0.155c0.662,0.291,1.312,0.55,1.946,0.776l-2.314,2.315
	c-0.25,0.25-0.25,0.654,0,0.904c0.125,0.126,0.289,0.188,0.453,0.188s0.328-0.062,0.453-0.188l2.56-2.561
	c0.071-0.071,0.117-0.155,0.147-0.243c2.129,0.643,4.189,1.036,6.029,1.375c4.73,0.868,7.27,1.485,7.438,4.495
	c-0.852,0.552-3.917,2.243-9.586,2.243H52.042c-3.241,0-6.853-0.504-10.346-0.993c-3.42-0.477-6.649-0.928-9.5-0.928
	c-3.358,0-7.454-1.011-12.162-2.989c0.011-1.015,0.089-3.691,0.62-5.817C21.456,38.109,23.058,36.219,24.031,35.317z M72.075,52.229
	c-0.021,0.021-0.042,0.045-0.06,0.069c-1.416,1.886-5.833,3.955-10.514,4.632l0.595-0.595c0.251-0.251,0.251-0.656,0-0.905
	c-0.25-0.251-0.654-0.251-0.905,0l-1.703,1.703c-0.35,0.021-0.698,0.031-1.045,0.031h-1.015l0.827-0.829
	c0.25-0.249,0.25-0.655,0-0.904c-0.251-0.251-0.655-0.251-0.905,0l-1.733,1.733h-2.03l0.828-0.829c0.251-0.249,0.251-0.655,0-0.904
	c-0.25-0.251-0.654-0.251-0.905,0l-1.732,1.733H50.12c-0.11,0-0.231-0.016-0.351-0.025l0.805-0.804c0.25-0.249,0.25-0.655,0-0.904
	c-0.251-0.251-0.655-0.251-0.906,0l-1.28,1.279c-0.051,0.053-0.086,0.114-0.116,0.176c-0.311-0.071-0.634-0.148-0.975-0.234
	c-0.229-0.057-0.467-0.115-0.706-0.175l0.782-0.781c0.251-0.251,0.251-0.655,0-0.904c-0.25-0.252-0.654-0.252-0.905,0l-1.28,1.279
	c-0.026,0.026-0.039,0.06-0.059,0.089c-0.586-0.111-1.193-0.196-1.819-0.242l0.862-0.861c0.25-0.252,0.25-0.655,0-0.906
	c-0.249-0.25-0.654-0.25-0.904,0l-1.781,1.782c-0.878,0.071-1.682,0.227-2.442,0.411l1.288-1.287c0.25-0.252,0.25-0.655,0-0.906
	c-0.251-0.25-0.655-0.25-0.906,0l-2.561,2.561c-0.062,0.062-0.107,0.134-0.139,0.21c-0.649,0.141-1.297,0.244-1.969,0.244h-0.375
	l2.107-2.108c0.25-0.252,0.25-0.655,0-0.906c-0.251-0.25-0.654-0.25-0.904,0l-3.015,3.015h-2.03l2.109-2.108
	c0.249-0.252,0.249-0.655,0-0.906c-0.251-0.25-0.655-0.25-0.906,0l-3.013,3.015h-0.376c-0.549,0-1.075-0.026-1.59-0.066l2.043-2.042
	c0.25-0.252,0.25-0.655,0-0.906c-0.251-0.25-0.655-0.25-0.906,0l-2.561,2.561c-0.062,0.063-0.106,0.134-0.139,0.211
	c-0.613-0.095-1.197-0.214-1.749-0.352l2.154-2.154c0.25-0.25,0.25-0.655,0-0.905c-0.251-0.25-0.655-0.25-0.905,0l-2.561,2.561
	c-0.029,0.029-0.043,0.066-0.066,0.1c-0.534-0.179-1.029-0.373-1.487-0.576l2.459-2.46c0.25-0.25,0.25-0.653,0-0.905
	c-0.251-0.25-0.655-0.25-0.905,0l-2.561,2.562c-0.069,0.067-0.115,0.15-0.146,0.237c-0.507-0.277-0.944-0.556-1.306-0.816
	l2.356-2.357c0.25-0.25,0.25-0.655,0-0.905c-0.251-0.25-0.654-0.25-0.905,0l-1.767,1.767c0.564-1.85,1.421-3.543,1.856-4.344
	c4.814,2.011,9.026,3.029,12.525,3.029c2.761,0,5.949,0.445,9.323,0.917c3.536,0.492,7.192,1.004,10.522,1.004h10.882
	c4.858,0,7.951-1.185,9.486-1.986C72.333,51.736,72.221,52.083,72.075,52.229z"/>
</svg>
