<?xml version="1.0" encoding="utf-8"?>
<!-- Generator: Adobe Illustrator 16.0.0, SVG Export Plug-In . SVG Version: 6.00 Build 0)  -->
<!DOCTYPE svg PUBLIC "-//W3C//DTD SVG 1.1//EN" "http://www.w3.org/Graphics/SVG/1.1/DTD/svg11.dtd">
<svg version="1.1" id="Calque_1" xmlns="http://www.w3.org/2000/svg" xmlns:xlink="http://www.w3.org/1999/xlink" x="0px" y="0px"
	 width="90px" height="88.614px" viewBox="0 0 90 88.614" enable-background="new 0 0 90 88.614" xml:space="preserve">
<g>
	<circle opacity="0.2" fill="#FFFFFF" cx="45" cy="44.308" r="43.614"/>
</g>
<path fill="#FFFFFF" stroke="#FFFFFF" stroke-miterlimit="10" d="M47.646,68.744c-13.44,0-24.437-10.996-24.437-24.438
	c0-13.44,10.997-24.437,24.437-24.437c0.57,0,1.222,0,1.873,0.082c0.489,0,0.814,0.325,1.059,0.732
	c0.163,0.407,0.082,0.896-0.163,1.222c-3.258,3.91-5.05,8.88-5.05,14.012c0,11.403,8.878,21.016,20.282,21.91
	c0.489,0,0.814,0.327,1.059,0.734c0.163,0.407,0.082,0.896-0.163,1.222C61.819,65.486,54.896,68.744,47.646,68.744z M46.994,22.313
	C35.183,22.64,25.653,32.415,25.653,44.307c0,12.138,9.856,21.994,21.993,21.994c5.783,0,11.322-2.281,15.395-6.272
	c-11.485-2.036-20.12-12.137-20.12-24.029C42.84,31.111,44.306,26.306,46.994,22.313z"/>
</svg>
