<?xml version="1.0" encoding="utf-8"?>
<!-- Generator: Adobe Illustrator 16.0.0, SVG Export Plug-In . SVG Version: 6.00 Build 0)  -->
<!DOCTYPE svg PUBLIC "-//W3C//DTD SVG 1.1//EN" "http://www.w3.org/Graphics/SVG/1.1/DTD/svg11.dtd">
<svg version="1.1" id="Calque_1" xmlns="http://www.w3.org/2000/svg" xmlns:xlink="http://www.w3.org/1999/xlink" x="0px" y="0px"
	 width="90px" height="90px" viewBox="0 0 90 90" enable-background="new 0 0 90 90" xml:space="preserve">
<circle opacity="0.2" fill="#FFFFFF" cx="45" cy="45" r="43.614"/>
<g transform="translate(0,-952.36218)">
	<path fill="#FFFFFF" stroke="#FFFFFF" stroke-miterlimit="10" d="M41.508,968.411c-0.323,0.062-0.554,0.346-0.547,0.674v7.406
		h-1.347c-0.042-0.004-0.084-0.004-0.126,0c-0.323,0.061-0.553,0.346-0.547,0.674v3.682c-2.841,1.668-4.714,4.949-4.714,8.438
		v36.359c0,0.371,0.302,0.674,0.674,0.674h20.2c0.373,0,0.674-0.303,0.674-0.674v-36.359c0-3.488-1.873-6.77-4.714-8.438v-3.682
		c0-0.373-0.3-0.674-0.673-0.674h-1.346v-7.406c0-0.371-0.301-0.674-0.674-0.674h-6.733
		C41.591,968.407,41.549,968.407,41.508,968.411z M42.306,969.759h5.388v6.732h-5.388V969.759z M45,971.102
		c-1.108,0-2.02,0.914-2.02,2.021c0,1.109,0.912,2.02,2.02,2.02s2.02-0.91,2.02-2.02C47.02,972.016,46.108,971.102,45,971.102z
		 M45,972.45c0.379,0,0.674,0.295,0.674,0.674c0,0.381-0.294,0.674-0.674,0.674s-0.674-0.293-0.674-0.674
		C44.326,972.745,44.621,972.45,45,972.45z M40.287,977.839h1.242h6.965h1.221v3.365c0.001,0.248,0.139,0.475,0.357,0.59
		c1.397,0.725,2.571,1.967,3.346,3.451H36.583c0.774-1.484,1.948-2.727,3.345-3.451c0.219-0.115,0.356-0.342,0.358-0.59V977.839z
		 M53.943,986.569c0.007,0,0.015,0,0.021,0c0.29,0.869,0.463,1.785,0.463,2.715v35.686H35.573v-35.686
		c0-0.922,0.157-1.83,0.441-2.693c0.077,0.014,0.155,0.014,0.231,0h17.508C53.818,986.595,53.881,986.585,53.943,986.569
		L53.943,986.569z"/>
</g>
</svg>
