<?xml version="1.0" encoding="utf-8"?>
<!-- Generator: Adobe Illustrator 16.0.0, SVG Export Plug-In . SVG Version: 6.00 Build 0)  -->
<!DOCTYPE svg PUBLIC "-//W3C//DTD SVG 1.1//EN" "http://www.w3.org/Graphics/SVG/1.1/DTD/svg11.dtd">
<svg version="1.1" id="Calque_1" xmlns="http://www.w3.org/2000/svg" xmlns:xlink="http://www.w3.org/1999/xlink" x="0px" y="0px"
	 width="90px" height="88.614px" viewBox="0 0 90 88.614" enable-background="new 0 0 90 88.614" xml:space="preserve">
<circle opacity="0.2" fill="#FFFFFF" cx="44.993" cy="44.308" r="43.614"/>
<g transform="translate(0,-952.36218)">
	<path fill="#FFFFFF" stroke="#FFFFFF" stroke-miterlimit="10" d="M63.507,973.983c-2.091,0-4.415,1.199-6.362,3.135
		c-0.01,0.01-5.943,5.73-8.768,8.768l-23.562-4.719c-0.256-0.053-0.537,0.084-0.654,0.316l-1.791,3.582
		c-0.138,0.283-0.004,0.666,0.28,0.803l17.22,8.619l-9.402,11.062c-1.125-0.355-2.456-0.713-3.676-0.672
		c-0.676,0.023-1.342,0.156-1.865,0.578s-0.82,1.123-0.82,1.959c0,0.908,0.271,1.672,0.764,2.221l7.164,7.164
		c0.607,0.525,1.516,0.766,2.221,0.766c0.836,0,1.537-0.299,1.959-0.822s0.555-1.189,0.578-1.865
		c0.041-1.219-0.316-2.549-0.672-3.676l11.063-9.402l8.619,17.221c0.136,0.283,0.519,0.418,0.802,0.279l3.582-1.791
		c0.232-0.117,0.369-0.398,0.317-0.652l-4.72-23.564c3.036-2.824,8.76-8.758,8.768-8.768c1.936-1.947,3.135-4.271,3.135-6.361
		c0-1.135-0.36-2.256-1.139-3.041C65.762,974.345,64.642,973.983,63.507,973.983z M63.507,975.177c0.875,0,1.669,0.297,2.183,0.803
		c0.507,0.514,0.803,1.309,0.803,2.184c0,1.623-1.035,3.758-2.818,5.541c-0.006,0.012-5.824,6.066-8.936,8.955
		c-0.141,0.137-0.206,0.348-0.168,0.541l4.683,23.432l-2.649,1.324l-8.675-17.369c-0.16-0.33-0.658-0.43-0.933-0.186l-11.94,10.148
		c-0.172,0.154-0.241,0.414-0.168,0.635c0.375,1.139,0.745,2.605,0.709,3.656c-0.017,0.525-0.13,0.906-0.317,1.137
		c-0.187,0.232-0.445,0.393-1.025,0.393c-0.442,0-0.864-0.107-1.399-0.467l-7.089-7.088c-0.359-0.535-0.467-0.957-0.467-1.4
		c0-0.58,0.16-0.838,0.392-1.025c0.232-0.188,0.613-0.299,1.138-0.316c1.051-0.035,2.518,0.334,3.657,0.709
		c0.22,0.072,0.479,0.004,0.634-0.17l10.148-11.939c0.244-0.273,0.145-0.771-0.186-0.932l-17.369-8.676l1.324-2.648l23.433,4.682
		c0.192,0.039,0.403-0.027,0.541-0.168c2.888-3.111,8.942-8.93,8.954-8.936C59.449,976.444,61.842,975.177,63.507,975.177
		L63.507,975.177z"/>
</g>
</svg>
