<?xml version="1.0" encoding="utf-8"?>
<!-- Generator: Adobe Illustrator 16.0.0, SVG Export Plug-In . SVG Version: 6.00 Build 0)  -->
<!DOCTYPE svg PUBLIC "-//W3C//DTD SVG 1.1//EN" "http://www.w3.org/Graphics/SVG/1.1/DTD/svg11.dtd">
<svg version="1.1" id="Calque_1" xmlns="http://www.w3.org/2000/svg" xmlns:xlink="http://www.w3.org/1999/xlink" x="0px" y="0px"
	 width="90px" height="90px" viewBox="0 0 90 90" enable-background="new 0 0 90 90" xml:space="preserve">
<circle opacity="0.2" fill="#FFFFFF" cx="45" cy="45" r="43.615"/>
<g>
	<path fill="#FFFFFF" stroke="#FFFFFF" stroke-miterlimit="10" d="M67.289,48.972l-0.012-0.018l-0.007-0.017l-4.022-6.815
		c-0.2-0.339-0.636-0.46-0.982-0.271l-9.087,4.938c-0.176,0.097-0.304,0.259-0.356,0.454c-0.054,0.195-0.022,0.399,0.081,0.571
		l3.357,5.534l-3.548,0.004c-0.193,0-0.38,0.077-0.519,0.213l-4.914,4.89c-0.253,0.251-0.289,0.647-0.085,0.939l3.913,5.613
		c0.134,0.194,0.356,0.311,0.594,0.314l3.616,0.048l0,0l0,0h0.096c2.516,0,4.855-1.304,6.178-3.45l5.527-8.969l0.015-0.032
		c0.388-0.621,0.608-1.348,0.608-2.106C67.744,50.2,67.599,49.566,67.289,48.972z M54.557,47.711l7.787-4.232l3.647,6.179
		c0.196,0.384,0.285,0.773,0.285,1.155c0.002,0.658-0.267,1.296-0.718,1.765c-0.453,0.468-1.071,0.765-1.812,0.766h-0.039h-0.004
		h-0.005l-5.722,0.004L54.557,47.711z M60.343,61.149c-1.056,1.712-2.922,2.753-4.929,2.753h-0.077l0,0l-3.24-0.043l-3.344-4.799
		l4.264-4.242l10.676-0.009l0,0l0,0h0.001h0.054c0.179,0,0.354-0.016,0.526-0.038L60.343,61.149z"/>
	<path fill="#FFFFFF" stroke="#FFFFFF" stroke-miterlimit="10" d="M40.317,53.294h-6.726l1.377-3
		c0.082-0.176,0.089-0.378,0.023-0.559l-2.387-6.511c-0.125-0.341-0.478-0.539-0.835-0.467l-6.584,1.337
		c-0.214,0.043-0.395,0.176-0.499,0.368L22.981,47.6l-0.008,0.019l-0.012,0.017l0,0c-0.472,0.991-0.704,2.058-0.704,3.12
		c0,1.407,0.408,2.81,1.215,4.021l5.834,8.771l0.004,0.007c0.142,0.217,0.304,0.42,0.483,0.606c0.707,0.733,1.718,1.211,2.857,1.209
		l0.132-0.003l0.032,0.003h7.502c0.193,0,0.383-0.077,0.519-0.215c0.136-0.137,0.215-0.325,0.215-0.519V54.027
		c0-0.192-0.079-0.382-0.215-0.52C40.7,53.372,40.511,53.294,40.317,53.294z M23.724,50.755c0-0.845,0.185-1.692,0.56-2.48
		l1.53-2.811l5.633-1.143l2.064,5.635l-1.663,3.617c-0.073,0.092-0.126,0.2-0.146,0.321l-2.652,5.77l-0.003,0.009
		c-0.083,0.174-0.147,0.352-0.202,0.528l-4.15-6.238C24.051,52.996,23.724,51.879,23.724,50.755z M39.583,63.902H32.84L32.783,63.9
		c-0.045,0.001-0.089,0.002-0.132,0.002c-0.729-0.001-1.347-0.295-1.803-0.763c-0.453-0.466-0.724-1.104-0.722-1.765
		c0-0.357,0.077-0.724,0.25-1.089l0.001-0.003l0.004-0.006l2.534-5.518h6.667V63.902L39.583,63.902z"/>
	<path fill="#FFFFFF" stroke="#FFFFFF" stroke-miterlimit="10" d="M54.492,38.202l2.612-6.277c0.087-0.207,0.072-0.444-0.037-0.643
		l-1.744-3.104l-0.005-0.007l-0.007-0.01l0,0c-1.309-2.19-3.674-3.531-6.227-3.531H38.55l-0.015,0.001l-0.029-0.001
		c-0.661,0-1.324,0.161-1.921,0.485c-0.598,0.323-1.128,0.815-1.512,1.458l-0.002,0.005l-0.002,0.002l0,0l-3.784,6.44
		c-0.2,0.341-0.095,0.78,0.242,0.992l8.833,5.577c0.171,0.107,0.377,0.141,0.574,0.091c0.194-0.051,0.362-0.178,0.458-0.355
		l3.165-5.702l1.892,3.062c0.103,0.164,0.265,0.282,0.451,0.327l6.743,1.619C53.995,38.718,54.354,38.535,54.492,38.202z
		 M40.488,37.936l-7.579-4.784l3.423-5.823l0,0c0.251-0.417,0.58-0.719,0.954-0.923s0.797-0.308,1.22-0.308
		c0.422,0,0.841,0.104,1.215,0.309c0.375,0.204,0.703,0.507,0.951,0.922l0.003,0.005l0.002,0.004l2.999,4.854L40.488,37.936z
		 M47.537,35.659l-5.611-9.093l-0.007-0.011c-0.101-0.162-0.208-0.315-0.323-0.458h7.489c2.036,0,3.922,1.068,4.967,2.815
		l1.561,2.778l-2.235,5.368L47.537,35.659z"/>
</g>
</svg>
