<?xml version="1.0" encoding="utf-8"?>
<!-- Generator: Adobe Illustrator 16.0.0, SVG Export Plug-In . SVG Version: 6.00 Build 0)  -->
<!DOCTYPE svg PUBLIC "-//W3C//DTD SVG 1.1//EN" "http://www.w3.org/Graphics/SVG/1.1/DTD/svg11.dtd">
<svg version="1.1" id="Calque_1" xmlns="http://www.w3.org/2000/svg" xmlns:xlink="http://www.w3.org/1999/xlink" x="0px" y="0px"
	 width="90px" height="88.614px" viewBox="0 0 90 88.614" enable-background="new 0 0 90 88.614" xml:space="preserve">
<circle opacity="0.2" fill="#FFFFFF" enable-background="new    " cx="44.993" cy="44.308" r="43.614"/>
<g>
	<g>
		<g>
			<g enable-background="new    ">
				<g>
					<path id="SVGID_1_" fill="#FFFFFF" d="M33.269,42.621l-0.77,21.624v0.047v0.058c0,3.133,2.469,5.685,5.503,5.685
						c3.038,0,5.507-2.552,5.507-5.685v-0.058v-0.047l-0.773-21.624c2.161-1.273,3.551-3.664,3.551-6.319V21.747
						c0-1.752-1.39-3.186-3.087-3.186c-1.08,0-2.058,0.586-2.625,1.485c-0.514-0.899-1.441-1.485-2.573-1.485
						c-1.08,0-2.056,0.586-2.623,1.485c-0.566-0.899-1.493-1.485-2.624-1.485c-1.699,0-3.088,1.434-3.088,3.186v14.5
						C29.72,38.904,31.109,41.347,33.269,42.621z M32.412,22.407c0-0.576,0.412-1.048,0.919-1.048s0.921,0.472,0.921,1.048v9.154
						c0,0.574,0.412,1.045,0.919,1.045h0.966c0.505,0,0.921-0.471,0.921-1.045v-9.154c0-0.576,0.412-1.048,0.92-1.048
						c0.506,0,0.92,0.472,0.92,1.048v9.154c0,0.574,0.415,1.045,0.919,1.045h0.967c0.505,0,0.921-0.471,0.921-1.045v-9.154
						c0-0.576,0.413-1.048,0.918-1.048c0.507,0,0.921,0.472,0.921,1.048v14.279c0,2.302-1.38,4.29-3.222,4.867l0.738,22.706
						c0,1.936-1.382,3.504-3.083,3.504c-1.703,0-3.083-1.568-3.083-3.504l0.734-22.706c-1.886-0.628-3.218-2.564-3.218-4.867V22.407
						H32.412z"/>
				</g>
			</g>
			<g>
				<g>
					<path id="SVGID_5_" fill="#FFFFFF" d="M50.559,50.776v13.588c0,3.053,2.129,5.639,4.726,5.689h0.139
						c2.685,0,4.91-2.479,4.91-5.584v-9.639V39.399V23.024c0-2.162-1.576-3.95-3.476-3.95c-4.446,0-8.059,4.104-8.059,9.162v19.646
						C48.844,49.198,49.537,50.301,50.559,50.776 M56.842,22.181c0.848,0,1.561,0.809,1.561,1.774v15.78v14.866v9.284
						c0,1.824-1.295,3.349-2.944,3.349H55.37c-1.606-0.049-2.854-1.624-2.854-3.448V49.833c0-0.508-0.357-0.967-0.851-0.967
						c-0.445,0-0.847-0.404-0.847-0.961V28.978C50.861,25.224,53.539,22.181,56.842,22.181"/>
				</g>
			</g>
		</g>
	</g>
</g>
</svg>
