<?xml version="1.0" encoding="utf-8"?>
<!-- Generator: Adobe Illustrator 16.0.0, SVG Export Plug-In . SVG Version: 6.00 Build 0)  -->
<!DOCTYPE svg PUBLIC "-//W3C//DTD SVG 1.1//EN" "http://www.w3.org/Graphics/SVG/1.1/DTD/svg11.dtd">
<svg version="1.1" id="Calque_1" xmlns="http://www.w3.org/2000/svg" xmlns:xlink="http://www.w3.org/1999/xlink" x="0px" y="0px"
	 width="90px" height="90px" viewBox="0 0 90 90" enable-background="new 0 0 90 90" xml:space="preserve">
<circle opacity="0.2" fill="#FFFFFF" cx="45" cy="45" r="43.615"/>
<path fill="#FFFFFF" stroke="#FFFFFF" stroke-miterlimit="10" d="M67.69,66.725h-3.56v-1.838l1.305-0.89
	c2.372-1.66,2.966-5.041,1.245-7.414l-2.669-3.735l0.059-0.059c0.297-0.178,0.357-0.534,0.119-0.83
	c-0.178-0.297-0.534-0.356-0.83-0.119l-2.788,1.957l-5.694-14.647l11.745-10.261c0.236-0.237,0.296-0.593,0.059-0.831
	c-0.237-0.237-0.594-0.296-0.829-0.059l-11.39,9.964l-6.052-15.54c-0.117-0.297-0.474-0.475-0.77-0.356
	c-0.298,0.118-0.477,0.475-0.357,0.771l6.228,15.956l-8.542,7.472l-8.479-7.472l6.227-15.956c0.121-0.296-0.058-0.653-0.354-0.771
	c-0.298-0.119-0.654,0.059-0.771,0.356l-6.051,15.54l-11.388-9.964c-0.238-0.238-0.593-0.178-0.83,0.059
	c-0.236,0.237-0.178,0.593,0.059,0.831l11.745,10.261l-5.696,14.647l-2.846-1.957c-0.297-0.179-0.653-0.119-0.831,0.119
	c-0.176,0.296-0.117,0.652,0.119,0.83l0.059,0.059l-2.608,3.735c-1.721,2.433-1.127,5.754,1.305,7.472l1.304,0.891v1.837h-3.557
	c-0.357,0-0.596,0.238-0.596,0.594s0.238,0.593,0.596,0.593h8.243c0.356,0,0.593-0.236,0.593-0.593s-0.236-0.594-0.593-0.594h-3.559
	v-1.126c0.712,0.297,1.424,0.475,2.194,0.475c0.296,0,0.594,0,0.891-0.061c1.424-0.237,2.609-1.007,3.44-2.194l2.667-3.737
	l0.061,0.061c0.119,0.06,0.237,0.118,0.354,0.118c0.18,0,0.356-0.058,0.476-0.238c0.18-0.295,0.118-0.651-0.119-0.83l-0.532-0.356
	l0,0l-2.196-1.543l10.736-9.427l10.736,9.427l-2.193,1.543l0,0l-0.594,0.297c-0.297,0.177-0.355,0.534-0.119,0.83
	c0.119,0.179,0.297,0.239,0.477,0.239c0.118,0,0.236-0.06,0.354-0.121l0.061-0.06l2.667,3.737c0.831,1.187,2.077,1.958,3.44,2.196
	c0.296,0.058,0.595,0.058,0.892,0.058c0.77,0,1.48-0.177,2.193-0.474v1.127h-3.559c-0.357,0-0.594,0.239-0.594,0.593
	c0,0.356,0.236,0.594,0.594,0.594h8.244c0.357,0,0.594-0.237,0.594-0.594C68.223,66.963,67.986,66.725,67.69,66.725z M32.633,63.166
	c-0.651,0.889-1.602,1.483-2.669,1.721c-1.066,0.178-2.194-0.06-3.084-0.711l-1.603-1.127c-1.897-1.304-2.312-3.916-1.007-5.813
	l2.668-3.736l8.364,5.931L32.633,63.166z M33.228,56.523l-1.483-1.007l-1.423-1.008l5.692-14.528l8.068,7.058L33.228,56.523z
	 M45.92,47.038l8.067-7.058l5.635,14.528l-1.424,1.008l-1.481,1.007L45.92,47.038z M60.036,64.886
	c-1.066-0.178-2.075-0.771-2.669-1.721l-2.67-3.736l8.364-5.931l2.668,3.736c1.306,1.897,0.893,4.448-1.005,5.813l-1.603,1.127
	C62.23,64.827,61.105,65.064,60.036,64.886z"/>
</svg>
