<?xml version="1.0" encoding="utf-8"?>
<!-- Generator: Adobe Illustrator 16.0.0, SVG Export Plug-In . SVG Version: 6.00 Build 0)  -->
<!DOCTYPE svg PUBLIC "-//W3C//DTD SVG 1.1//EN" "http://www.w3.org/Graphics/SVG/1.1/DTD/svg11.dtd">
<svg version="1.1" id="Calque_1" xmlns="http://www.w3.org/2000/svg" xmlns:xlink="http://www.w3.org/1999/xlink" x="0px" y="0px"
	 width="90px" height="90px" viewBox="0 0 90 90" enable-background="new 0 0 90 90" xml:space="preserve">
<circle opacity="0.2" fill="#FFFFFF" cx="45" cy="45.089" r="43.615"/>
<g>
	<g>
		<path fill="#FFFFFF" d="M50.589,57.852l-1.388-9.479c0.292-0.074,0.5-0.338,0.5-0.65v-4.245c0-0.374-0.303-0.678-0.676-0.678
			h-2.012v-22.48l0.807-1.395c0.062-0.102,0.089-0.223,0.089-0.338v-6.589c0-0.373-0.307-0.677-0.678-0.677h-4.464
			c-0.379,0-0.677,0.304-0.677,0.677v6.589c0,0.115,0.028,0.236,0.088,0.338l0.8,1.395v22.48h-2.004
			c-0.378,0-0.676,0.304-0.676,0.678v4.245c0,0.325,0.229,0.603,0.548,0.664l-1.436,9.459c-0.008,0.033-0.008,0.067-0.008,0.101
			v20.056c0,0.373,0.298,0.677,0.677,0.677h9.839c0.373,0,0.678-0.304,0.678-0.677V57.947
			C50.597,57.913,50.597,57.879,50.589,57.852z M43.445,12.676h3.109v1.211h-3.109V12.676z M43.445,15.242h3.109v3.162l-0.799,1.395
			c-0.062,0.108-0.097,0.225-0.097,0.339v22.438h-1.325V20.137c0-0.115-0.028-0.237-0.089-0.339l-0.8-1.395V15.242z M41.65,44.154
			h6.699v2.892H41.65V44.154z M49.242,77.325h-8.485V58.001l1.422-9.377h5.694l1.369,9.37V77.325z"/>
	</g>
	<g>
		<g>
			<path fill="#FFFFFF" d="M44.998,74.54c-0.372,0-0.677-0.304-0.677-0.677V52.978c0-0.374,0.305-0.676,0.677-0.676
				c0.375,0,0.677,0.302,0.677,0.676v20.885C45.675,74.236,45.373,74.54,44.998,74.54z"/>
		</g>
	</g>
</g>
</svg>
