<?xml version="1.0" encoding="utf-8"?>
<!-- Generator: Adobe Illustrator 16.0.0, SVG Export Plug-In . SVG Version: 6.00 Build 0)  -->
<!DOCTYPE svg PUBLIC "-//W3C//DTD SVG 1.1//EN" "http://www.w3.org/Graphics/SVG/1.1/DTD/svg11.dtd">
<svg version="1.1" id="Calque_1" xmlns="http://www.w3.org/2000/svg" xmlns:xlink="http://www.w3.org/1999/xlink" x="0px" y="0px"
	 width="90px" height="90px" viewBox="0 0 90 90" enable-background="new 0 0 90 90" xml:space="preserve">
<circle opacity="0.2" fill="#FFFFFF" enable-background="new    " cx="45" cy="45.089" r="43.615"/>
<g>
	<g>
		<g>
			<path fill="#FFFFFF" d="M34.459,35.154l-0.999-1.436c0.115-0.08,11.708-7.983,22.863,0.007l-1.019,1.421
				C45.144,27.87,34.566,35.08,34.459,35.154z"/>
		</g>
	</g>
	<g>
		<g>
			<g>
				<path fill="#FFFFFF" d="M45.15,51.629l-0.104-0.007c-1.507-0.104-4.076-0.506-4.346-2.05c-0.21-1.2,0.951-2.262,3.883-3.553
					l0.328-0.145l0.336,0.127c1.192,0.454,3.953,1.691,3.791,3.366c-0.14,1.434-2.097,1.95-3.784,2.241L45.15,51.629z
					 M42.498,49.268c0.394,0.25,1.52,0.52,2.564,0.603c1.495-0.267,2.02-0.56,2.19-0.69c-0.252-0.355-1.255-0.971-2.296-1.41
					C43.24,48.554,42.677,49.055,42.498,49.268z"/>
			</g>
		</g>
		<g>
			<g>
				<path fill="#FFFFFF" d="M35.927,47.695c-1.325,0-2.404-1.079-2.404-2.404s1.079-2.405,2.404-2.405
					c1.325,0,2.404,1.079,2.404,2.405S37.252,47.695,35.927,47.695z M35.927,44.636c-0.362,0-0.656,0.294-0.656,0.655
					c0,0.361,0.294,0.656,0.656,0.656c0.361,0,0.656-0.295,0.656-0.656C36.583,44.93,36.289,44.636,35.927,44.636z"/>
			</g>
		</g>
		<g>
			<g>
				<path fill="#FFFFFF" d="M53.848,47.695c-1.324,0-2.404-1.079-2.404-2.404s1.08-2.405,2.404-2.405
					c1.325,0,2.404,1.079,2.404,2.405S55.173,47.695,53.848,47.695z M53.848,44.636c-0.361,0-0.656,0.294-0.656,0.655
					c0,0.361,0.293,0.656,0.656,0.656c0.361,0,0.656-0.295,0.656-0.656C54.504,44.93,54.209,44.636,53.848,44.636z"/>
			</g>
		</g>
		<g>
			<g>
				<path fill="#FFFFFF" d="M44.937,69.294c-11.623,0-21.079-9.282-21.079-20.69c0-1.851,0.254-3.695,0.757-5.49l-1-18.403
					l15.035,6.33c4.099-1.257,8.545-1.25,12.64,0.021l15.096-6.354l-1.12,18.438c0.498,1.784,0.748,3.619,0.748,5.458
					C66.016,60.012,56.559,69.294,44.937,69.294z M25.512,27.407l0.864,15.905l-0.041,0.143c-0.483,1.681-0.729,3.414-0.729,5.148
					c0,10.445,8.671,18.942,19.331,18.942c10.659,0,19.331-8.498,19.331-18.942c0-1.727-0.242-3.451-0.722-5.123l-0.042-0.145
					l0.967-15.926L51.37,32.924l-0.312-0.102c-3.936-1.289-8.244-1.295-12.185-0.021l-0.309,0.101L25.512,27.407z"/>
			</g>
		</g>
		<g>
			<g>
				<polygon fill="#FFFFFF" points="51.807,57.715 44.271,55.566 44.271,50.458 46.125,50.458 46.125,54.247 52.348,56.033 				"/>
			</g>
		</g>
		<g>
			<g>
				<polygon fill="#FFFFFF" points="38.497,57.715 38.002,56.033 44.271,54.247 44.271,50.458 46.125,50.458 46.125,55.566 				"/>
			</g>
		</g>
		<g>
			<g>
				<path fill="#FFFFFF" d="M44.995,60.191c-2.419,0-3.979-3.475-4.148-3.86l1.599-0.714c0.395,0.891,1.538,2.721,2.55,2.721
					c0,0,0.001,0,0.002,0c0.722,0,1.585-1.072,2.372-2.874l1.603,0.771c-1.14,2.613-2.438,3.957-3.973,3.957
					C44.998,60.191,44.997,60.191,44.995,60.191z"/>
			</g>
		</g>
	</g>
</g>
</svg>
