<?xml version="1.0" encoding="utf-8"?>
<!-- Generator: Adobe Illustrator 16.0.0, SVG Export Plug-In . SVG Version: 6.00 Build 0)  -->
<!DOCTYPE svg PUBLIC "-//W3C//DTD SVG 1.1//EN" "http://www.w3.org/Graphics/SVG/1.1/DTD/svg11.dtd">
<svg version="1.1" id="Calque_1" xmlns="http://www.w3.org/2000/svg" xmlns:xlink="http://www.w3.org/1999/xlink" x="0px" y="0px"
	 width="91.667px" height="90.667px" viewBox="0 0 91.667 90.667" enable-background="new 0 0 91.667 90.667" xml:space="preserve">
<circle opacity="0.2" fill="#FFFFFF" stroke="#FFFFFF" stroke-miterlimit="10" enable-background="new    " cx="46.016" cy="45.528" r="43.615"/>
<g>
	<g>
		<path fill="#FFFFFF" stroke="#FFFFFF" stroke-width="0.5" stroke-miterlimit="10" d="M32.991,46.302
			c-5.932,0-10.762-4.827-10.762-10.76c0-5.934,4.83-10.762,10.762-10.762c5.935,0,10.764,4.828,10.764,10.762
			C43.754,41.475,38.926,46.302,32.991,46.302z M32.991,26.045c-5.235,0-9.495,4.26-9.495,9.497c0,5.235,4.26,9.496,9.495,9.496
			c5.236,0,9.497-4.26,9.497-9.496S38.227,26.045,32.991,26.045z"/>
	</g>
	<g>
		<path fill="#FFFFFF" stroke="#FFFFFF" stroke-width="0.5" stroke-miterlimit="10" d="M69.408,60.962
			c-0.221-0.237-0.427-0.49-0.646-0.734c-0.005-0.005-0.005-0.01-0.009-0.014L45.682,36.042c-0.124-0.103-0.229-0.224-0.332-0.346
			c-0.047-0.04-0.088-0.084-0.124-0.131l-0.029-0.032c-0.01-0.007-0.022-0.014-0.031-0.024c-0.025-0.021-0.042-0.046-0.06-0.069
			l-1.526-1.6l-0.917,0.875l26.588,27.852c0.098-0.323,0.15-0.69,0.188-1.062C69.43,61.324,69.43,61.143,69.408,60.962z"/>
	</g>
	<g>
		<path fill="#FFFFFF" stroke="#FFFFFF" stroke-width="0.5" stroke-miterlimit="10" d="M64.964,65.806l0.642-1.053L33.322,45.13
			l-0.66,1.083l1.719,1.043c0.081,0.049,0.161,0.098,0.241,0.146l0.966,0.586c0.099,0.051,0.194,0.11,0.294,0.159
			c0.043,0.022,0.072,0.048,0.097,0.076c0.047,0.017,0.085,0.038,0.118,0.073l28.516,17.336
			C64.733,65.691,64.851,65.75,64.964,65.806z"/>
	</g>
	<g>
		<path fill="#FFFFFF" stroke="#FFFFFF" stroke-width="0.5" stroke-miterlimit="10" d="M69.408,60.958
			c-0.22-0.238-0.427-0.483-0.643-0.729h-0.321c0,2.444-1.704,4.431-3.799,4.431v0.986c0.161,0.082,0.319,0.161,0.479,0.24
			c1.83-0.194,3.379-1.479,4.117-3.28c0.104-0.338,0.159-0.718,0.195-1.104C69.43,61.324,69.43,61.138,69.408,60.958z"/>
	</g>
	<g>
		<path fill="#FFFFFF" stroke="#FFFFFF" stroke-width="0.5" stroke-miterlimit="10" d="M45.363,35.703
			c-0.057-0.045-0.107-0.1-0.15-0.16c0,0-0.003-0.001-0.004-0.001h-0.821c0,6.215-4.723,11.272-10.566,11.383
			c0.458,0.269,0.93,0.537,1.361,0.844c0.146,0.079,0.292,0.162,0.439,0.236c5.541-0.979,9.802-5.95,10.009-12.006
			C45.532,35.913,45.446,35.806,45.363,35.703z"/>
	</g>
</g>
</svg>
