<?xml version="1.0" encoding="utf-8"?>
<!-- Generator: Adobe Illustrator 16.0.0, SVG Export Plug-In . SVG Version: 6.00 Build 0)  -->
<!DOCTYPE svg PUBLIC "-//W3C//DTD SVG 1.1//EN" "http://www.w3.org/Graphics/SVG/1.1/DTD/svg11.dtd">
<svg version="1.1" id="Calque_1" xmlns="http://www.w3.org/2000/svg" xmlns:xlink="http://www.w3.org/1999/xlink" x="0px" y="0px"
	 width="91.667px" height="90.667px" viewBox="0 0 91.667 90.667" enable-background="new 0 0 91.667 90.667" xml:space="preserve">
<circle opacity="0.2" fill="#FFFFFF" stroke="#FFFFFF" stroke-miterlimit="10" enable-background="new    " cx="46.016" cy="45.528" r="43.615"/>
<path fill="#FFFFFF" d="M22.924,67.699v1.657c0,1.657,1.297,2.955,2.955,2.955h38.13c1.658,0,2.955-1.298,2.955-2.955V42.687
	l2.738,1.296c0.072,0.073,0.217,0.073,0.289,0.073c0.288,0,0.506-0.145,0.648-0.433l1.658-3.532
	c2.018-4.397,0.145-9.587-4.182-11.678L44.115,17.171c-4.396-2.019-9.586-0.145-11.677,4.18l-1.658,3.532
	c-0.072,0.144-0.072,0.36,0,0.576c0.072,0.146,0.216,0.361,0.361,0.433l13.839,6.487l-1.802,3.532
	c-1.298-0.505-2.667-0.505-4.037-0.072c-1.585,0.505-2.811,1.586-3.604,3.028c-1.514,2.882-2.019,9.587,1.081,11.245
	c0.505,0.216,1.009,0.36,1.514,0.36c3.1,0,6.992-3.532,8.217-5.983l0,0c1.443-2.812,0.506-6.126-2.018-7.857l1.946-3.604
	l17.229,8.073h-6.703c-0.434,0-0.721,0.289-0.721,0.72v25.157H46.061c2.163-1.37,3.677-3.82,3.677-6.632v-8.074
	c0-0.433-0.287-0.72-0.721-0.72H28.33c-0.432,0-0.721,0.287-0.721,0.72v8.146c0,2.812,1.441,5.189,3.676,6.631h-7.64
	C23.212,66.978,22.924,67.337,22.924,67.699z M37.412,48.813L37.412,48.813c-0.577-0.576,0.289-5.189,1.802-8.073
	c1.082-2.09,2.595-3.315,3.604-3.315c0.144,0,0.288,0,0.433,0.072c0.864,0.432,0.937,2.739-0.289,5.118l0,0
	C41.448,45.497,38.205,48.884,37.412,48.813z M36.907,39.514c0.577-1.081,1.513-1.945,2.739-2.306
	c0.216-0.072,0.433-0.145,0.649-0.145c-0.866,0.721-1.73,1.73-2.379,2.956c-0.505,0.937-1.514,3.604-1.946,5.982
	C35.682,43.839,36.114,41.101,36.907,39.514z M45.197,43.767L45.197,43.767c-0.793,1.587-2.812,3.533-4.758,4.542
	c1.658-1.729,3.244-4.109,3.748-5.046l0,0c0.649-1.226,1.01-2.523,1.082-3.676C45.845,40.884,45.917,42.398,45.197,43.767z
	 M33.735,21.999c1.73-3.676,6.055-5.261,9.731-3.531L67.47,29.712c3.676,1.73,5.262,6.055,3.531,9.73l-1.371,2.883L32.367,24.883
	L33.735,21.999z M29.05,60.417v-7.424h19.247v7.424c0,3.531-2.884,6.344-6.344,6.344h-6.487
	C31.934,66.761,29.05,63.876,29.05,60.417z M24.366,68.417h32.437c0.433,0,0.721-0.287,0.721-0.721V42.542h8.001v26.814
	c0,0.865-0.648,1.515-1.514,1.515H25.879c-0.865,0-1.513-0.648-1.513-1.515V68.417z"/>
</svg>
