<?xml version="1.0" encoding="utf-8"?>
<!-- Generator: Adobe Illustrator 16.0.0, SVG Export Plug-In . SVG Version: 6.00 Build 0)  -->
<!DOCTYPE svg PUBLIC "-//W3C//DTD SVG 1.1//EN" "http://www.w3.org/Graphics/SVG/1.1/DTD/svg11.dtd">
<svg version="1.1" id="Calque_1" xmlns="http://www.w3.org/2000/svg" xmlns:xlink="http://www.w3.org/1999/xlink" x="0px" y="0px"
	 width="90px" height="90px" viewBox="0 0 90 90" enable-background="new 0 0 90 90" xml:space="preserve">
<circle opacity="0.2" fill="#FFFFFF" cx="45.949" cy="43.634" r="43.614"/>
<g>
	<path fill="#FFFFFF" stroke="#FFFFFF" stroke-miterlimit="10" d="M48.194,61.912c-2.724-0.629-5.237,0-5.342,0
		c-0.261,0.052-0.471,0.366-0.366,0.627c0.053,0.263,0.366,0.471,0.629,0.367c0,0,2.355-0.576,4.869,0c0.052,0,0.104,0,0.104,0
		c0.263,0,0.471-0.156,0.523-0.418C48.665,62.226,48.508,61.964,48.194,61.912z"/>
	<path fill="#FFFFFF" stroke="#FFFFFF" stroke-miterlimit="10" d="M48.665,54.687l0.629-0.575c-0.054-0.054-0.576-0.63-1.729-0.263
		c-0.418,0.156-0.68,0.471-0.941,0.732c-0.367,0.419-0.576,0.682-1.1,0.682s-0.732-0.263-1.1-0.682
		c-0.262-0.313-0.523-0.628-0.942-0.732c-1.1-0.367-1.676,0.209-1.728,0.263l0.419,0.365l0.209,0.262
		c-0.995,0.575-2.618,1.885-3.036,4.556c-0.053,0.418,0.104,0.838,0.418,1.151c0.315,0.313,0.785,0.367,1.205,0.262
		c0.68-0.208,1.78-0.419,2.983-0.157c1.048,0.263,2.095,0.263,3.142,0c1.205-0.313,2.252-0.104,2.984,0.157
		c0.104,0.052,0.262,0.052,0.419,0.052c0.314,0,0.577-0.104,0.837-0.313c0.316-0.262,0.473-0.733,0.42-1.151
		C51.283,56.571,49.66,55.263,48.665,54.687z M50.602,59.607c-0.052,0-0.104,0.053-0.21,0.053c-0.838-0.262-2.146-0.523-3.559-0.157
		c-0.891,0.209-1.729,0.209-2.619,0c-1.414-0.366-2.722-0.104-3.56,0.157c-0.105,0.052-0.157,0-0.21-0.053
		c-0.052-0.054-0.104-0.104-0.052-0.209c0.523-3.143,2.984-4.031,3.089-4.085c0.054,0,0.105-0.051,0.105-0.051s0,0.051,0.051,0.051
		c0.367,0.42,0.892,1.048,1.886,1.048c0.995,0,1.52-0.577,1.884-1.048c0,0,0-0.051,0.053-0.051c0.054,0.051,0.104,0.051,0.104,0.051
		s2.567,0.892,3.09,4.085C50.707,59.503,50.654,59.554,50.602,59.607z"/>
	<path fill="#FFFFFF" stroke="#FFFFFF" stroke-miterlimit="10" d="M68.037,34.896c0-0.524,0-2.095-7.802-3.298c0,0,0,0-0.051,0
		l-0.473-7.437c-0.104-0.994-0.837-1.779-1.832-2.041c-1.781-0.419-5.759-1.1-12.356-1.1s-10.576,0.785-12.356,1.151
		c-0.941,0.21-1.676,1.049-1.833,2.043l-0.471,7.277c-8.9,1.151-8.9,2.879-8.9,3.403c0,0.472,0,1.988,7.016,3.141
		c0.629,0.104,1.257,0.209,1.938,0.263c0,0.366,0.051,1.884,0.156,3.927c-0.156,0.052-0.263,0.104-0.419,0.157
		c-0.995-0.471-1.936-0.471-2.669,0c-1.204,0.732-0.733,4.292-0.157,6.334c0.472,1.623,1.78,5.341,4.556,5.708
		c0.522,2.198,1.413,5.183,2.932,7.854c2.564,4.45,5.968,6.701,10.262,6.701c4.293,0,7.645-2.199,10.209-6.649
		c1.519-2.67,2.409-5.654,2.932-7.801c2.881-0.262,4.241-4.085,4.713-5.759c0.575-2.043,1.046-5.604-0.156-6.336
		c-0.786-0.472-1.729-0.419-2.775,0.053c-0.157-0.104-0.313-0.21-0.472-0.21c0.104-2.303,0.158-3.979,0.158-3.979v-0.054
		c0.313-0.052,0.575-0.104,0.837-0.156C68.037,36.884,68.037,35.418,68.037,34.896z M23.011,34.896c0-0.366,1.413-1.519,7.799-2.355
		l-0.103,1.568c0,0.315,0.209,0.524,0.471,0.578c0,0,0,0,0.052,0c0.262,0,0.524-0.211,0.524-0.471l0.629-9.844
		c0.051-0.576,0.47-0.995,0.994-1.151c1.728-0.42,5.653-1.049,12.146-1.049c6.492,0,10.418,0.682,12.147,1.049
		c0.523,0.103,0.941,0.575,0.995,1.099l0.627,9.738c0,0.313,0.262,0.523,0.576,0.472c0.315,0,0.523-0.263,0.472-0.576l-0.105-1.31
		c5.498,0.89,6.754,1.938,6.754,2.252c0,1.1-7.539,3.193-21.989,3.193S23.011,36.047,23.011,34.896z M59.765,43.272
		C59.817,43.272,59.817,43.325,59.765,43.272l-0.053,1.623c0,0.157-0.052,0.262-0.21,0.365c-0.522,0.42-1.414,1.414-1.779,3.562
		c-0.419,2.304-3.246,2.355-6.282,2.095c-3.038-0.315-3.561-1.309-3.719-2.2c-0.208-1.518-1.099-2.407-2.198-2.407
		s-1.988,0.94-2.199,2.407c-0.157,0.838-0.681,1.885-3.718,2.2c-3.036,0.313-5.863,0.261-6.281-2.095
		c-0.367-2.147-1.258-3.142-1.78-3.562c-0.105-0.104-0.157-0.208-0.157-0.365l-0.104-1.57c0,0,0-0.053,0.051-0.053
		c1.571-0.209,6.074-0.681,14.242-0.681C53.691,42.592,58.194,43.063,59.765,43.272z M29.188,49.504
		c-1.047-2.934-0.994-5.865-0.628-6.179c0.523-0.315,1.205-0.158,1.676,0.052l0,0l0.104,1.57c0.052,0.419,0.262,0.838,0.576,1.101
		c0.104,0.104,0.262,0.262,0.472,0.471l0,0c0.157,2.198,0.366,4.031,0.575,5.445c0.053,0.366,0.104,0.785,0.209,1.36
		C30.55,52.801,29.554,50.55,29.188,49.504z M54.79,61.858c0.053-0.366,0.106-0.732,0.106-1.1v-2.827
		c0-1.151,0.313-2.303,0.994-3.299l0.262-0.365c0.156-0.263,0.104-0.576-0.158-0.732c-0.261-0.158-0.575-0.105-0.732,0.156
		l-0.261,0.366c-0.733,1.151-1.153,2.514-1.153,3.874v2.827c0,2.305-1.466,4.189-1.884,4.661c-1.676,1.517-3.77,2.513-6.44,2.513
		s-4.764-0.996-6.439-2.513c-0.419-0.523-1.885-2.41-1.885-4.713v-2.88c0-1.309-0.472-2.618-1.309-3.611l-0.158-0.158
		c-0.209-0.209-0.522-0.263-0.733-0.053c-0.209,0.211-0.261,0.524-0.052,0.733l0.157,0.157c0.68,0.838,1.1,1.885,1.1,2.985v2.878
		c0,0.367,0.053,0.733,0.104,1.1c-2.304-3.927-3.142-8.534-3.351-9.999c-0.053-0.473-0.157-1.048-0.21-1.624
		c1.361,2.251,5.078,1.938,6.964,1.729c2.88-0.263,4.396-1.258,4.659-3.038c0.158-0.941,0.575-1.518,1.205-1.518
		c0.629,0,1.047,0.576,1.204,1.518c0.263,1.834,1.779,2.775,4.66,3.038c0.627,0.052,1.413,0.156,2.303,0.156
		c1.78,0,3.77-0.313,4.66-1.832c-0.053,0.575-0.104,1.152-0.209,1.623C57.933,53.324,57.094,57.932,54.79,61.858z M62.645,43.325
		c0.418,0.366,0.472,3.298-0.576,6.229c-0.367,1.101-1.413,3.456-3.143,3.875c0.105-0.576,0.21-1.048,0.263-1.414
		c0.209-1.518,0.42-3.717,0.523-5.445c0.157-0.209,0.314-0.418,0.473-0.522c0.313-0.263,0.575-0.682,0.575-1.101l0.104-1.518
		C61.282,43.22,62.068,42.958,62.645,43.325z M58.926,42.121c-2.093-0.209-6.438-0.576-13.402-0.576
		c-6.963,0-11.258,0.367-13.403,0.576c-0.104-1.729-0.104-3.09-0.157-3.665c3.77,0.418,8.272,0.681,12.983,0.681
		c5.186,0,10.106-0.314,14.085-0.838C59.084,38.718,59.031,40.235,58.926,42.121z"/>
</g>
</svg>
