<?xml version="1.0" encoding="utf-8"?>
<!-- Generator: Adobe Illustrator 16.0.0, SVG Export Plug-In . SVG Version: 6.00 Build 0)  -->
<!DOCTYPE svg PUBLIC "-//W3C//DTD SVG 1.1//EN" "http://www.w3.org/Graphics/SVG/1.1/DTD/svg11.dtd">
<svg version="1.1" id="Calque_1" xmlns="http://www.w3.org/2000/svg" xmlns:xlink="http://www.w3.org/1999/xlink" x="0px" y="0px"
	 width="90px" height="90px" viewBox="0 0 90 90" enable-background="new 0 0 90 90" xml:space="preserve">
<circle opacity="0.2" fill="#FFFFFF" cx="45.949" cy="43.634" r="43.614"/>
<g>
	<g>
		<path fill="#FFFFFF" stroke="#FFFFFF" stroke-miterlimit="10" d="M60.211,34.919c0.225,0.006,0.442,0.007,0.66,0.007
			c0.907,0.002,1.763-0.037,2.54-0.06v-9.925c-0.777-0.025-1.633-0.064-2.54-0.064c-1.522,0-3.176,0.11-4.816,0.569v8.914
			c1.404,0.392,2.821,0.528,4.154,0.559C60.211,34.919,60.211,34.919,60.211,34.919z M64.342,24.031
			c0.098,0.098,0.156,0.232,0.156,0.38v0.011V35.38v0.014c0,0.147-0.059,0.281-0.156,0.379c-0.01,0.015-0.023,0.023-0.037,0.036
			c-0.021,0.018-0.041,0.031-0.062,0.046c-0.021,0.011-0.043,0.023-0.066,0.034c-0.018,0.009-0.034,0.016-0.052,0.02
			c-0.012,0.005-0.025,0.009-0.038,0.012c-0.014,0.004-0.027,0.006-0.039,0.009c-0.026,0.004-0.053,0.006-0.081,0.006h-0.067
			c-0.865,0.024-1.898,0.078-3.027,0.078h-0.117v5.803c0,0.836-0.222,1.618-0.608,2.296c-0.333,0.586-0.792,1.093-1.339,1.484v3.267
			c2.169,0.247,3.854,2.09,3.854,4.326v3.868c0,1.202-0.487,2.292-1.278,3.08c-0.676,0.676-1.575,1.133-2.575,1.244v0.634
			c0,2.314-1.878,4.196-4.197,4.196H35.393c-2.321,0-4.199-1.88-4.199-4.196v-0.637c-2.149-0.267-3.814-2.101-3.814-4.321v-3.868
			c0-1.203,0.488-2.294,1.279-3.081c0.667-0.667,1.55-1.121,2.535-1.241v-3.271c-1.176-0.839-1.947-2.221-1.947-3.78v-5.803h-0.117
			c-1.153,0-2.205-0.057-3.085-0.074c-0.01,0-0.023,0-0.033-0.004c-0.011,0-0.021,0-0.031-0.002c-0.013,0-0.023-0.002-0.036-0.007
			c-0.014,0-0.026-0.004-0.038-0.009c-0.013-0.002-0.026-0.006-0.037-0.009c-0.012-0.002-0.024-0.01-0.034-0.015
			c-0.021-0.009-0.044-0.02-0.064-0.032c-0.024-0.016-0.049-0.033-0.069-0.05c-0.003,0-0.006-0.003-0.008-0.005
			c-0.023-0.02-0.049-0.045-0.067-0.067c-0.017-0.021-0.033-0.047-0.048-0.069c-0.008-0.011-0.016-0.023-0.021-0.038
			c-0.012-0.022-0.024-0.05-0.031-0.078c-0.007-0.026-0.014-0.053-0.018-0.082c-0.005-0.026-0.006-0.051-0.006-0.078V35.38V24.424
			v-0.013c0-0.024,0.001-0.052,0.006-0.076c0.002-0.026,0.009-0.052,0.015-0.074c0.007-0.023,0.016-0.047,0.026-0.068
			c0-0.005,0.002-0.007,0.004-0.011c0.008-0.016,0.017-0.03,0.024-0.046c0.015-0.024,0.03-0.05,0.05-0.071
			c0.003-0.002,0.005-0.005,0.007-0.007c0.022-0.026,0.044-0.048,0.069-0.067c0.024-0.02,0.05-0.037,0.077-0.052
			c0.003-0.002,0.006-0.002,0.006-0.002c0.009-0.007,0.02-0.013,0.028-0.016c0.02-0.009,0.041-0.018,0.061-0.025
			c0.009-0.003,0.017-0.005,0.026-0.009s0.024-0.007,0.038-0.009c0.014-0.004,0.027-0.004,0.039-0.005
			c0.012-0.002,0.021-0.002,0.03-0.002c0.012-0.002,0.025-0.002,0.035-0.002c0.88-0.018,1.932-0.08,3.085-0.08
			c1.669,0,3.551,0.128,5.443,0.706h2.806c0.405-0.067,3.65-0.592,7.901-0.592c2.257,0,4.796,0.147,7.348,0.592h2.8
			c1.894-0.578,3.774-0.706,5.443-0.706c1.153,0,2.206,0.062,3.083,0.08c0.013,0,0.024,0,0.036,0.002c0.008,0,0.021,0,0.03,0.002
			c0.025,0.001,0.051,0.007,0.079,0.014c0.008,0.002,0.016,0.006,0.025,0.009c0.067,0.023,0.128,0.056,0.181,0.102
			C64.318,24.008,64.332,24.019,64.342,24.031z M57.718,54.578v-8.402c-0.505,0.187-1.047,0.286-1.611,0.286h-2.99v4.319
			c0,0.146-0.058,0.284-0.159,0.386c-0.101,0.1-0.241,0.16-0.385,0.16h-2.938c-0.142,0-0.281-0.061-0.382-0.16
			c-0.103-0.102-0.16-0.24-0.16-0.386v-4.319h-8.184v4.319c0,0.146-0.058,0.284-0.158,0.386c-0.102,0.1-0.242,0.16-0.384,0.16
			h-2.938c-0.144,0-0.282-0.061-0.385-0.16c-0.102-0.102-0.159-0.24-0.159-0.386v-4.319h-2.989c-0.446,0-0.882-0.062-1.29-0.18
			c-0.109-0.034-0.216-0.067-0.322-0.106v3.198v5.204H57.718z M29.791,34.919c1.333-0.03,2.752-0.167,4.157-0.559v-8.914
			c-1.641-0.459-3.298-0.569-4.819-0.569c-0.907,0-1.763,0.039-2.54,0.064v9.925c0.776,0.022,1.633,0.062,2.54,0.06
			c0.218,0,0.436-0.001,0.66-0.007C29.789,34.919,29.789,34.919,29.791,34.919z M32.044,44.855c0.542,0.329,1.169,0.52,1.849,0.52
			h2.991v-4.322c0-0.143,0.058-0.283,0.159-0.385s0.241-0.158,0.385-0.158h2.938c0.142,0,0.28,0.057,0.384,0.158
			c0.101,0.102,0.158,0.242,0.158,0.385v4.322h8.182v-4.322c0-0.143,0.059-0.283,0.158-0.385c0.104-0.102,0.242-0.158,0.385-0.158
			h2.938c0.144,0,0.284,0.057,0.384,0.158c0.104,0.102,0.158,0.242,0.158,0.385v4.322h2.993c0.679,0,1.312-0.19,1.85-0.521
			c0.007-0.006,0.011-0.008,0.018-0.011h0.002c0.009-0.006,0.018-0.011,0.026-0.018c0.998-0.63,1.662-1.739,1.662-3.011v-5.827
			c-1.348-0.058-2.79-0.233-4.238-0.678h-2.812c-2.547,0.444-5.081,0.59-7.336,0.59c-4.214,0-7.441-0.514-7.89-0.59h-2.818
			c-1.448,0.444-2.892,0.62-4.235,0.678v5.827c0,0.642,0.166,1.239,0.462,1.76c0.292,0.509,0.703,0.938,1.2,1.251
			c0.009,0.007,0.017,0.012,0.026,0.018C32.03,44.847,32.037,44.851,32.044,44.855z M61.571,57.057v-3.868
			c0-0.905-0.365-1.719-0.958-2.313c-0.296-0.295-0.648-0.535-1.04-0.7c-0.229-0.098-0.474-0.169-0.728-0.212
			c-0.014-0.002-0.027-0.003-0.039-0.005v5.162v5.166c0.012-0.002,0.025-0.004,0.039-0.006c0.685-0.113,1.296-0.442,1.768-0.912
			C61.206,58.774,61.571,57.962,61.571,57.057z M57.718,62.015v-6.349H32.282v5.203v1.146c0,0.858,0.345,1.632,0.908,2.197
			c0.565,0.562,1.34,0.911,2.202,0.911h19.217c0.861,0,1.634-0.348,2.2-0.911C57.371,63.646,57.718,62.873,57.718,62.015z
			 M54.966,34.224V25.58h-1.85v8.644H54.966z M52.026,50.238v-3.776h-1.849v3.776H52.026z M52.026,45.375v-3.778h-1.849v3.778
			H52.026z M52.026,34.308v-8.81c-2.331-0.379-4.66-0.509-6.747-0.509c-3.463,0-6.256,0.357-7.307,0.513V34.3
			c0.039,0.008,0.082,0.015,0.129,0.021c0.379,0.057,0.933,0.129,1.626,0.2c1.388,0.146,3.332,0.292,5.552,0.292
			C47.366,34.812,49.695,34.685,52.026,34.308z M39.821,50.238v-3.776h-1.849v3.776H39.821z M39.821,45.375v-3.778h-1.849v3.778
			H39.821z M36.884,34.224V25.58h-1.849v8.644H36.884z M31.193,60.28V49.963c-0.686,0.114-1.296,0.443-1.769,0.912
			c-0.591,0.595-0.957,1.407-0.957,2.313v3.868c0,0.903,0.366,1.718,0.957,2.312C29.897,59.838,30.508,60.167,31.193,60.28z"/>
	</g>
</g>
</svg>
