<?xml version="1.0" encoding="utf-8"?>
<!-- Generator: Adobe Illustrator 16.0.0, SVG Export Plug-In . SVG Version: 6.00 Build 0)  -->
<!DOCTYPE svg PUBLIC "-//W3C//DTD SVG 1.1//EN" "http://www.w3.org/Graphics/SVG/1.1/DTD/svg11.dtd">
<svg version="1.1" id="Calque_1" xmlns="http://www.w3.org/2000/svg" xmlns:xlink="http://www.w3.org/1999/xlink" x="0px" y="0px"
	 width="90px" height="90px" viewBox="0 0 90 90" enable-background="new 0 0 90 90" xml:space="preserve">
<circle opacity="0.2" fill="#FFFFFF" cx="45.002" cy="45" r="43.615"/>
<g>
	<path fill="#FFFFFF" stroke="#FFFFFF" stroke-miterlimit="10" d="M57.586,28.733h5.592c1.048,0,1.9-0.849,1.9-1.894
		c0-1.047-0.853-1.899-1.9-1.899h-5.592c-1.049,0-1.9,0.853-1.9,1.899C55.686,27.885,56.538,28.733,57.586,28.733z M57.586,25.941
		h5.592c0.496,0,0.9,0.403,0.9,0.898c0,0.493-0.404,0.894-0.9,0.894h-5.592c-0.497,0-0.9-0.4-0.9-0.894
		C56.686,26.345,57.09,25.941,57.586,25.941z"/>
	<path fill="#FFFFFF" stroke="#FFFFFF" stroke-miterlimit="10" d="M65.979,58.497H24.022c-1.048,0-1.901,0.853-1.901,1.899v2.763
		c0,1.048,0.853,1.9,1.901,1.9h41.957c1.048,0,1.9-0.853,1.9-1.9v-2.763C67.879,59.368,67.009,58.497,65.979,58.497z M66.879,63.159
		c0,0.487-0.412,0.9-0.9,0.9H24.022c-0.496,0-0.9-0.403-0.9-0.9v-2.762c0-0.487,0.412-0.899,0.9-0.899h41.957
		c0.488,0,0.9,0.412,0.9,0.899V63.159z"/>
	<path fill="#FFFFFF" stroke="#FFFFFF" stroke-miterlimit="10" d="M25.421,58.105h20.972c1.047,0,1.9-0.852,1.9-1.899
		s-0.853-1.9-1.9-1.9H45c-1.639,0-3.253-0.91-4.547-2.561c-1.218-1.556-1.946-3.549-1.946-5.334v-6.983c0-0.496,0.403-0.9,0.9-0.9
		h15.378c0.496,0,0.899,0.404,0.899,0.9v8.385c0,1.049,0.853,1.9,1.901,1.9h5.592c1.047,0,1.9-0.853,1.9-1.9l0.001-16.754
		c0-1.049-0.854-1.9-1.901-1.9c-5.11,0-10.322-0.006-15.361-0.012c-5.052-0.006-10.276-0.012-15.411-0.012
		c-4.127,0-7.485,3.361-7.485,7.493v17.745c-0.805,0.22-1.4,0.958-1.4,1.833C23.522,57.254,24.374,58.105,25.421,58.105z
		 M25.421,55.306c0.276,0,0.501-0.225,0.501-0.5V36.627c0-3.58,2.909-6.493,6.484-6.493c5.133,0,10.357,0.006,15.409,0.012
		c5.04,0.005,10.252,0.011,15.363,0.011c0.488,0,0.9,0.413,0.9,0.901l-0.001,16.754c0,0.497-0.403,0.9-0.899,0.9h-5.592
		c-0.497,0-0.901-0.403-0.901-0.9v-8.385c0-1.049-0.852-1.899-1.9-1.899H39.408c-1.048,0-1.9,0.852-1.9,1.899v6.984
		c0,2,0.808,4.225,2.158,5.949c1.488,1.898,3.382,2.944,5.334,2.944h1.394c0.495,0,0.899,0.404,0.899,0.899
		c0,0.497-0.404,0.9-0.899,0.9H25.422c-0.496,0-0.9-0.403-0.9-0.9C24.522,55.71,24.925,55.306,25.421,55.306z"/>
	<path fill="#FFFFFF" stroke="#FFFFFF" stroke-miterlimit="10" d="M58.978,50.112c-0.276,0-0.5,0.224-0.5,0.499v5.594
		c0,1.049,0.853,1.9,1.901,1.9c1.046,0,1.899-0.853,1.899-1.9v-5.594c0-0.275-0.224-0.499-0.5-0.499H58.978z M61.278,56.205
		c0,0.496-0.403,0.901-0.899,0.901c-0.488,0-0.9-0.413-0.9-0.901v-5.093h1.8L61.278,56.205L61.278,56.205z"/>
</g>
</svg>
