<?xml version="1.0" encoding="utf-8"?>
<!-- Generator: Adobe Illustrator 16.0.0, SVG Export Plug-In . SVG Version: 6.00 Build 0)  -->
<!DOCTYPE svg PUBLIC "-//W3C//DTD SVG 1.1//EN" "http://www.w3.org/Graphics/SVG/1.1/DTD/svg11.dtd">
<svg version="1.1" id="Calque_1" xmlns="http://www.w3.org/2000/svg" xmlns:xlink="http://www.w3.org/1999/xlink" x="0px" y="0px"
	 width="90px" height="90px" viewBox="0 0 90 90" enable-background="new 0 0 90 90" xml:space="preserve">
<circle opacity="0.2" fill="#FFFFFF" cx="45" cy="45.089" r="43.615"/>
<path fill="#FFFFFF" stroke="#FFFFFF" stroke-miterlimit="10" d="M67.181,66.078c-4.464-2.338-6.966-19.065-7.554-25.314
	c-0.02-0.213-0.148-0.401-0.338-0.497c-0.006-0.002-0.044-0.021-0.097-0.049V40.2h-0.035C57.967,39.593,49,34.983,45.707,32.234
	v-2.021l5.308-3.064c0.191-0.111,0.311-0.316,0.311-0.539c0-0.223-0.12-0.428-0.311-0.539l-5.61-3.239
	c-0.193-0.111-0.429-0.111-0.622,0c-0.192,0.111-0.312,0.316-0.312,0.539v2.836h-0.01v6.026c-3.517,2.93-13.643,7.979-13.747,8.031
	c-0.193,0.095-0.322,0.285-0.342,0.499c-0.587,6.249-3.089,22.975-7.554,25.313c-0.253,0.132-0.384,0.422-0.315,0.701
	c0.068,0.278,0.318,0.474,0.604,0.474h43.785c0.286,0,0.536-0.196,0.605-0.474C67.564,66.5,67.435,66.21,67.181,66.078z
	 M45.716,24.45l3.742,2.161l-3.742,2.16V24.45z M49.959,66.006h-9.751v-10c0-2.688,2.187-4.876,4.876-4.876
	c2.688,0,4.875,2.188,4.875,4.876V66.006z M51.204,66.006v-10c0-3.375-2.746-6.121-6.12-6.121c-3.375,0-6.121,2.746-6.121,6.121v10
	H24.825c4.49-5.094,6.385-21.271,6.729-24.562h0.682v-0.553c2.608-1.33,9.726-5.044,12.847-7.557
	c3.183,2.571,10.454,6.4,12.863,7.643v0.467h0.499c0.344,3.292,2.239,19.467,6.729,24.562H51.204z"/>
</svg>
