<?xml version="1.0" encoding="utf-8"?>
<!-- Generator: Adobe Illustrator 16.0.0, SVG Export Plug-In . SVG Version: 6.00 Build 0)  -->
<!DOCTYPE svg PUBLIC "-//W3C//DTD SVG 1.1//EN" "http://www.w3.org/Graphics/SVG/1.1/DTD/svg11.dtd">
<svg version="1.1" id="Calque_1" xmlns="http://www.w3.org/2000/svg" xmlns:xlink="http://www.w3.org/1999/xlink" x="0px" y="0px"
	 width="91.667px" height="90.667px" viewBox="0 0 91.667 90.667" enable-background="new 0 0 91.667 90.667" xml:space="preserve">
<circle opacity="0.2" fill="#FFFFFF" stroke="#FFFFFF" stroke-miterlimit="10" enable-background="new    " cx="46.016" cy="45.528" r="43.615"/>
<path fill="#FFFFFF" d="M75.809,39.696c0-9.974-8.115-18.088-18.089-18.088c-8.747,0-16.257,6.354-17.784,14.889
	c-1.302,0.695-2.202,2.051-2.202,3.627v7.423c-5.537-2.977-10.841-8.742-12.619-10.784l0.079-0.081
	c0.868-0.867,0.738-2.354-0.292-3.385l-1.056-1.054c-0.98-0.979-2.699-0.979-3.677,0l-4.659,4.659c-1.013,1.014-1.013,2.665,0,3.677
	l1.057,1.056c0.979,0.979,2.588,1.089,3.438,0.236l0.042-0.041c7.146,7.925,17.687,20.701,17.687,23.75
	c0,2.274,1.85,4.127,4.127,4.127h22.498c2.275,0,4.127-1.853,4.127-4.127V54.22C73.08,50.812,75.809,45.433,75.809,39.696z
	 M66.334,41.377h-26.45v-1.253c0-1.089,0.887-1.974,1.977-1.974h22.498c1.088,0,1.976,0.885,1.976,1.974V41.377z M64.359,67.556
	H41.861c-1.09,0-1.977-0.886-1.977-1.975c0-4.92-15.831-22.551-19.003-26.036c-0.197-0.216-0.477-0.342-0.771-0.35
	c-0.008,0-0.017,0-0.024,0c-0.284,0-0.56,0.112-0.76,0.314L18.5,40.325c-0.093,0-0.257-0.055-0.415-0.208L17.03,39.06
	c-0.112-0.112-0.128-0.246-0.128-0.317c0-0.071,0.017-0.204,0.128-0.317l4.658-4.659c0.224-0.226,0.41-0.226,0.634,0l1.057,1.054
	c0.158,0.161,0.218,0.324,0.229,0.404l-0.721,0.721c-0.39,0.389-0.422,1.013-0.073,1.44c0.315,0.386,7.795,9.485,15.565,12.869
	c0.333,0.145,0.715,0.112,1.019-0.087c0.302-0.2,0.485-0.537,0.485-0.899v-5.737h26.45v22.052
	C66.334,66.67,65.447,67.556,64.359,67.556z M64.359,35.999H42.218c1.685-7.075,8.097-12.24,15.502-12.24
	c8.788,0,15.938,7.148,15.938,15.937c0,4.493-1.908,8.733-5.172,11.731V40.125C68.486,37.85,66.636,35.999,64.359,35.999z"/>
</svg>
