<?xml version="1.0" encoding="utf-8"?>
<!-- Generator: Adobe Illustrator 16.0.0, SVG Export Plug-In . SVG Version: 6.00 Build 0)  -->
<!DOCTYPE svg PUBLIC "-//W3C//DTD SVG 1.1//EN" "http://www.w3.org/Graphics/SVG/1.1/DTD/svg11.dtd">
<svg version="1.1" id="Calque_1" xmlns="http://www.w3.org/2000/svg" xmlns:xlink="http://www.w3.org/1999/xlink" x="0px" y="0px"
	 width="91.667px" height="90.667px" viewBox="0 0 91.667 90.667" enable-background="new 0 0 91.667 90.667" xml:space="preserve">
<circle opacity="0.2" fill="#FFFFFF" stroke="#FFFFFF" stroke-miterlimit="10" enable-background="new    " cx="46.016" cy="45.528" r="43.615"/>
<g>
	<path fill="#FFFFFF" d="M68.938,31.731H61.25l-3.606-9.021H34.769l-3.608,9.021h-1.193v-4.51h-5.413v4.51h-1.083
		c-2.388,0-4.329,1.941-4.329,4.33v26.494c0,2.403,1.956,4.358,4.36,4.358H68.91c2.404,0,4.359-1.955,4.359-4.358V36.061
		C73.268,33.673,71.328,31.731,68.938,31.731z M26.359,29.025h1.804v2.706h-1.804V29.025z M71.464,62.555
		c0,1.409-1.147,2.555-2.557,2.555H23.502c-1.409,0-2.556-1.146-2.556-2.555V36.061c0-1.392,1.133-2.525,2.525-2.525h1.083h5.413
		h2.415l3.608-9.02h20.429l3.607,9.02h8.91c1.393,0,2.525,1.133,2.525,2.525v26.494H71.464z"/>
	<path fill="#FFFFFF" d="M46.204,30.83c-8.953,0-16.237,7.285-16.237,16.238c0,8.954,7.284,16.237,16.237,16.237
		c8.956,0,16.239-7.283,16.239-16.237C62.443,38.114,55.16,30.83,46.204,30.83z M46.204,61.501c-7.958,0-14.433-6.475-14.433-14.435
		c0-7.959,6.475-14.434,14.433-14.434c7.959,0,14.434,6.475,14.434,14.434C60.638,55.028,54.164,61.501,46.204,61.501z"/>
	<path fill="#FFFFFF" d="M46.204,36.242c-5.969,0-10.825,4.856-10.825,10.826c0,5.971,4.856,10.825,10.825,10.825
		c5.971,0,10.827-4.854,10.827-10.825C57.031,41.098,52.175,36.242,46.204,36.242z M46.204,56.087c-4.974,0-9.021-4.045-9.021-9.021
		c0-4.975,4.047-9.021,9.021-9.021c4.976,0,9.022,4.046,9.022,9.021C55.226,52.042,51.18,56.087,46.204,56.087z"/>
	<path fill="#FFFFFF" d="M66.05,35.34c-1.988,0-3.607,1.618-3.607,3.607c0,1.991,1.619,3.609,3.607,3.609
		c1.99,0,3.609-1.618,3.609-3.609C69.66,36.958,68.041,35.34,66.05,35.34z M66.05,40.752c-0.993,0-1.803-0.81-1.803-1.805
		c0-0.994,0.81-1.803,1.803-1.803c0.996,0,1.806,0.809,1.806,1.803C67.856,39.943,67.046,40.752,66.05,40.752z"/>
</g>
</svg>
