<?xml version="1.0" encoding="utf-8"?>
<!-- Generator: Adobe Illustrator 16.0.0, SVG Export Plug-In . SVG Version: 6.00 Build 0)  -->
<!DOCTYPE svg PUBLIC "-//W3C//DTD SVG 1.1//EN" "http://www.w3.org/Graphics/SVG/1.1/DTD/svg11.dtd">
<svg version="1.1" id="Calque_1" xmlns="http://www.w3.org/2000/svg" xmlns:xlink="http://www.w3.org/1999/xlink" x="0px" y="0px"
	 width="90px" height="90px" viewBox="0 0 90 90" enable-background="new 0 0 90 90" xml:space="preserve">
<circle opacity="0.2" fill="#FFFFFF" enable-background="new    " cx="44.953" cy="45" r="43.615"/>
<g>
	<path fill="#FFFFFF" stroke="#FFFFFF" stroke-width="0.5" stroke-miterlimit="10" d="M61.768,68.876
		c0.377,0,0.629-0.252,0.629-0.629V21.753c0-0.377-0.252-0.629-0.629-0.629H28.232c-0.376,0-0.628,0.252-0.628,0.629v46.494
		c0,0.377,0.252,0.629,0.628,0.629H61.768z M28.862,22.382h32.275v45.236H28.862V22.382z"/>
	<path fill="#FFFFFF" stroke="#FFFFFF" stroke-width="0.5" stroke-miterlimit="10" d="M56.607,39.495H33.204
		c-0.377,0-0.629,0.252-0.629,0.63c0,0.377,0.252,0.628,0.629,0.628h23.403c0.377,0,0.629-0.251,0.629-0.628
		C57.236,39.747,56.922,39.495,56.607,39.495z"/>
	<path fill="#FFFFFF" stroke="#FFFFFF" stroke-width="0.5" stroke-miterlimit="10" d="M56.607,43.71H33.204
		c-0.377,0-0.629,0.252-0.629,0.63c0,0.377,0.252,0.628,0.629,0.628h23.403c0.377,0,0.629-0.251,0.629-0.628
		C57.236,43.962,56.922,43.71,56.607,43.71z"/>
	<path fill="#FFFFFF" stroke="#FFFFFF" stroke-width="0.5" stroke-miterlimit="10" d="M56.607,47.988H33.204
		c-0.377,0-0.629,0.252-0.629,0.629s0.252,0.629,0.629,0.629h23.403c0.377,0,0.629-0.252,0.629-0.629S56.922,47.988,56.607,47.988z"
		/>
	<path fill="#FFFFFF" stroke="#FFFFFF" stroke-width="0.5" stroke-miterlimit="10" d="M56.607,52.266H33.204
		c-0.377,0-0.629,0.252-0.629,0.629s0.252,0.631,0.629,0.631h23.403c0.377,0,0.629-0.252,0.629-0.631
		C57.236,52.518,56.922,52.266,56.607,52.266z"/>
	<path fill="#FFFFFF" stroke="#FFFFFF" stroke-width="0.5" stroke-miterlimit="10" d="M56.607,56.482H33.204
		c-0.377,0-0.629,0.252-0.629,0.629s0.252,0.629,0.629,0.629h23.403c0.377,0,0.629-0.252,0.629-0.629S56.922,56.482,56.607,56.482z"
		/>
	<path fill="#FFFFFF" stroke="#FFFFFF" stroke-width="0.5" stroke-miterlimit="10" d="M42.2,35.468c0.189,0,0.377-0.062,0.502-0.251
		l2.328-3.146l2.329,3.146c0.125,0.189,0.312,0.251,0.502,0.251c0.125,0,0.252-0.062,0.379-0.125
		c0.189-0.126,0.251-0.312,0.251-0.503c0-0.126-0.062-0.251-0.126-0.377l-2.518-3.46c0.565-0.755,1.572-2.391,1.572-3.46
		c0-1.321-1.068-2.391-2.392-2.391c-1.321,0-2.39,1.069-2.39,2.391c0,1.133,1.069,2.705,1.573,3.46l-2.517,3.46
		c-0.062,0.126-0.126,0.251-0.126,0.377c0,0.189,0.063,0.377,0.252,0.503C41.948,35.468,42.075,35.468,42.2,35.468z M44.969,26.472
		c0.629,0,1.133,0.503,1.133,1.132c0,0.503-0.565,1.51-1.133,2.391c-0.566-0.818-1.133-1.824-1.133-2.391
		C43.899,26.975,44.402,26.472,44.969,26.472z"/>
</g>
</svg>
