<?xml version="1.0" encoding="utf-8"?>
<!-- Generator: Adobe Illustrator 16.0.0, SVG Export Plug-In . SVG Version: 6.00 Build 0)  -->
<!DOCTYPE svg PUBLIC "-//W3C//DTD SVG 1.1//EN" "http://www.w3.org/Graphics/SVG/1.1/DTD/svg11.dtd">
<svg version="1.1" id="Calque_1" xmlns="http://www.w3.org/2000/svg" xmlns:xlink="http://www.w3.org/1999/xlink" x="0px" y="0px"
	 width="90px" height="90px" viewBox="0 0 90 90" enable-background="new 0 0 90 90" xml:space="preserve">
<circle opacity="0.2" fill="#FFFFFF" cx="45.001" cy="45" r="43.614"/>
<g>
	<g>
		<path fill="#FFFFFF" stroke="#FFFFFF" stroke-miterlimit="10" d="M25.991,64.905c-5.644,0-10.233-4.589-10.233-10.23
			c0-5.641,4.59-10.23,10.233-10.23c5.638,0,10.229,4.59,10.229,10.23C36.22,60.316,31.629,64.905,25.991,64.905z M25.991,46.069
			c-4.747,0-8.608,3.861-8.608,8.605c0,4.745,3.861,8.604,8.608,8.604c4.745,0,8.604-3.859,8.604-8.604
			C34.596,49.931,30.736,46.069,25.991,46.069z"/>
	</g>
	<g>
		<path fill="#FFFFFF" stroke="#FFFFFF" stroke-miterlimit="10" d="M63.535,53.499c-0.346,0-0.665-0.222-0.774-0.569l-8.286-26.211
			h-3.667c-0.448,0-0.812-0.363-0.812-0.812c0-0.447,0.364-0.812,0.812-0.812h4.261c0.355,0,0.67,0.229,0.775,0.568l8.465,26.778
			c0.137,0.427-0.102,0.885-0.529,1.018C63.697,53.484,63.616,53.499,63.535,53.499z"/>
	</g>
	<g>
		<path fill="#FFFFFF" stroke="#FFFFFF" stroke-miterlimit="10" d="M34.439,41.768c-0.109,0-0.22-0.021-0.323-0.066l-8.448-3.67
			l-4.807-1.371c-0.349-0.101-0.588-0.419-0.588-0.78v-0.757c0-0.45,0.362-0.812,0.812-0.812h11.944
			c0.449,0,0.812,0.362,0.812,0.812c0,0.448-0.363,0.812-0.812,0.812h-8.806l1.991,0.571l8.547,3.704
			c0.411,0.179,0.602,0.657,0.422,1.069C35.052,41.586,34.75,41.768,34.439,41.768z"/>
	</g>
	<g>
		<path fill="#FFFFFF" stroke="#FFFFFF" stroke-miterlimit="10" d="M31.995,40.874h-8.622c-0.447,0-0.812-0.361-0.812-0.812v-3.527
			c0-0.449,0.364-0.812,0.812-0.812c0.45,0,0.813,0.363,0.813,0.812v2.715h7.809c0.449,0,0.812,0.364,0.812,0.812
			C32.808,40.513,32.444,40.874,31.995,40.874z"/>
	</g>
	<g>
		<path fill="#FFFFFF" stroke="#FFFFFF" stroke-miterlimit="10" d="M26.538,55.03c-0.259,0-0.514-0.124-0.67-0.355
			c-0.252-0.371-0.158-0.875,0.215-1.128l11.178-7.597c0.367-0.25,0.874-0.158,1.127,0.213s0.158,0.876-0.214,1.128l-11.18,7.598
			C26.856,54.984,26.696,55.03,26.538,55.03z"/>
	</g>
	<g>
		<path fill="#FFFFFF" stroke="#FFFFFF" stroke-miterlimit="10" d="M60.943,35.531c-0.343,0-0.664-0.221-0.773-0.567l-1.785-5.613
			c-0.138-0.427,0.098-0.884,0.527-1.021c0.426-0.132,0.887,0.101,1.02,0.528l1.786,5.614c0.138,0.426-0.099,0.884-0.528,1.02
			C61.11,35.519,61.025,35.531,60.943,35.531z"/>
	</g>
	<g>
		<path fill="#FFFFFF" stroke="#FFFFFF" stroke-miterlimit="10" d="M72.021,40.683c-0.092,0-0.185-0.014-0.273-0.047
			c-1.787-0.634-5.272-1.698-8.528-1.698c-1.423,0-2.669,0.202-3.707,0.598c-0.216,0.085-0.46,0.072-0.666-0.037
			c-0.206-0.108-0.356-0.298-0.413-0.523l-0.911-3.656c-0.053-0.22-0.014-0.454,0.112-0.644c0.125-0.19,0.325-0.319,0.55-0.355
			c0.083-0.013,7.058-1.057,14.565,4.366c0.319,0.229,0.426,0.657,0.256,1.012l-0.253,0.525
			C72.612,40.513,72.324,40.683,72.021,40.683z M63.219,37.313c1.765,0,3.569,0.275,5.217,0.657
			c-4.009-1.976-7.472-2.162-9.104-2.114l0.468,1.88C60.819,37.454,61.964,37.313,63.219,37.313z"/>
	</g>
	<g>
		<path fill="#FFFFFF" stroke="#FFFFFF" stroke-miterlimit="10" d="M49.115,49.075h-3.708c-0.255,0-0.493-0.118-0.647-0.321
			c-0.156-0.202-0.204-0.466-0.136-0.71l1.377-4.916c0.099-0.35,0.417-0.593,0.782-0.593h4.887c0.284,0,0.549,0.148,0.695,0.39
			c0.146,0.244,0.156,0.545,0.025,0.797l-2.556,4.915C49.695,48.907,49.418,49.075,49.115,49.075z M46.478,47.452h2.144l1.712-3.291
			h-2.936L46.478,47.452z"/>
	</g>
	<g>
		<path fill="#FFFFFF" stroke="#FFFFFF" stroke-miterlimit="10" d="M26.214,58.077c0,0,0,0-0.002,0c-1.22,0-2.354-0.604-3.03-1.615
			c-0.545-0.807-0.738-1.781-0.552-2.736c0.188-0.957,0.739-1.782,1.549-2.323l11.697-7.854c0.187-0.126,0.418-0.168,0.634-0.117
			c0.218,0.051,0.409,0.189,0.521,0.385l2.848,4.92c0.215,0.369,0.105,0.842-0.25,1.08L28.241,57.46
			C27.641,57.863,26.939,58.077,26.214,58.077z M36.06,45.379l-10.978,7.372c-0.447,0.3-0.753,0.758-0.858,1.287
			c-0.103,0.533,0.003,1.071,0.305,1.52c0.377,0.562,1.006,0.895,1.686,0.895l0,0c0.4,0,0.79-0.118,1.125-0.342l10.753-7.22
			L36.06,45.379z"/>
	</g>
	<g>
		<path fill="#FFFFFF" stroke="#FFFFFF" stroke-miterlimit="10" d="M64.008,57.478c-1.544,0-2.802-1.256-2.802-2.802
			c0-1.544,1.258-2.802,2.802-2.802c1.546,0,2.803,1.258,2.803,2.802C66.812,56.221,65.554,57.478,64.008,57.478z M64.008,53.499
			c-0.648,0-1.177,0.527-1.177,1.177c0,0.65,0.528,1.179,1.177,1.179c0.65,0,1.18-0.528,1.18-1.179
			C65.188,54.026,64.658,53.499,64.008,53.499z"/>
	</g>
	<g>
		<path fill="#FFFFFF" stroke="#FFFFFF" stroke-miterlimit="10" d="M64.011,64.905c-5.641,0-10.23-4.589-10.23-10.23
			c0-5.641,4.59-10.23,10.23-10.23c5.643,0,10.231,4.59,10.231,10.23C74.242,60.316,69.653,64.905,64.011,64.905z M64.011,46.069
			c-4.745,0-8.606,3.861-8.606,8.605c0,4.745,3.861,8.604,8.606,8.604c4.746,0,8.605-3.859,8.605-8.604
			C72.616,49.931,68.757,46.069,64.011,46.069z"/>
	</g>
	<g>
		<path fill="#FFFFFF" stroke="#FFFFFF" stroke-miterlimit="10" d="M55.7,41.768H42.53c-0.158,0-0.312-0.045-0.444-0.131
			l-9.501-6.208c-0.3-0.196-0.437-0.567-0.334-0.912c0.103-0.344,0.42-0.581,0.778-0.581h15.756
			c3.146-4.288,7.799-4.019,7.999-4.009c0.448,0.033,0.782,0.418,0.754,0.864c-0.032,0.446-0.438,0.806-0.862,0.759
			c-0.172-0.016-4.185-0.215-6.796,3.653c-0.15,0.225-0.402,0.358-0.672,0.358H35.757l7.016,4.582h12.432l2.384-4.666
			c0.206-0.399,0.695-0.556,1.093-0.354c0.4,0.204,0.558,0.693,0.354,1.093l-2.611,5.109C56.283,41.596,56.004,41.768,55.7,41.768z"
			/>
	</g>
	<g>
		<path fill="#FFFFFF" stroke="#FFFFFF" stroke-miterlimit="10" d="M50.808,51.363H39.99c-0.291,0-0.559-0.156-0.702-0.408
			l-5.552-9.594c-0.146-0.25-0.146-0.56-0.002-0.812c0.146-0.25,0.414-0.407,0.704-0.407h10.727c0.449,0,0.812,0.363,0.812,0.813
			c0,0.448-0.363,0.812-0.812,0.812h-9.317l4.61,7.97h9.852l6.924-13.572c0.204-0.4,0.698-0.555,1.094-0.354
			c0.4,0.203,0.559,0.694,0.354,1.094L51.531,50.92C51.393,51.19,51.112,51.363,50.808,51.363z"/>
	</g>
</g>
</svg>
