<?xml version="1.0" encoding="utf-8"?>
<!-- Generator: Adobe Illustrator 16.0.0, SVG Export Plug-In . SVG Version: 6.00 Build 0)  -->
<!DOCTYPE svg PUBLIC "-//W3C//DTD SVG 1.1//EN" "http://www.w3.org/Graphics/SVG/1.1/DTD/svg11.dtd">
<svg version="1.1" id="Calque_1" xmlns="http://www.w3.org/2000/svg" xmlns:xlink="http://www.w3.org/1999/xlink" x="0px" y="0px"
	 width="90px" height="88.614px" viewBox="0 0 90 88.614" enable-background="new 0 0 90 88.614" xml:space="preserve">
<g>
	<circle opacity="0.2" fill="#FFFFFF" cx="44.267" cy="44.308" r="43.614"/>
</g>
<path fill="#FFFFFF" stroke="#FFFFFF" stroke-miterlimit="10" d="M45,32.757c-3.625,0-6.563-2.939-6.563-6.564
	c0-3.624,2.938-6.563,6.563-6.563s6.563,2.939,6.563,6.563C51.563,29.817,48.625,32.757,45,32.757z M45,21.27
	c-2.719,0-4.922,2.205-4.922,4.923c0,2.719,2.204,4.923,4.922,4.923s4.922-2.204,4.922-4.923C49.922,23.475,47.719,21.27,45,21.27z"
	/>
<path fill="#FFFFFF" stroke="#FFFFFF" stroke-miterlimit="10" d="M58.127,63.933H31.874c-0.453,0-0.821-0.368-0.821-0.821
	s0.368-0.82,0.821-0.82h26.253c0.453,0,0.82,0.367,0.82,0.82S58.58,63.933,58.127,63.933z"/>
<path fill="#FFFFFF" stroke="#FFFFFF" stroke-miterlimit="10" d="M59.641,68.854H30.417c-2.805,0.015-5.09-2.247-5.104-5.052
	c-0.001-0.182,0.008-0.363,0.026-0.544c0.245-2.067,1.701-3.788,3.7-4.372l9.426-2.945V45.128
	c-3.487,2.249-8.073,2.929-13.512,1.977c-0.67-0.11-1.263-0.493-1.641-1.058c-0.749-1.135-0.435-2.662,0.7-3.409
	c0.519-0.343,1.148-0.476,1.761-0.373c10.485,1.846,12.766-4.2,12.864-4.463c0.027-0.076,0.066-0.148,0.115-0.213
	c0.725-1.93,2.575-3.203,4.636-3.192h3.282c2.043,0.01,3.868,1.279,4.586,3.192c0.045,0.062,0.082,0.131,0.106,0.204
	c0.09,0.263,2.379,6.31,12.864,4.464c1.341-0.225,2.609,0.681,2.833,2.021c0.103,0.612-0.03,1.241-0.372,1.761
	c-0.378,0.563-0.972,0.946-1.641,1.059c-5.431,0.959-10.026,0.279-13.513-1.979v10.822l9.402,2.937
	c2.033,0.558,3.528,2.288,3.782,4.381c0.286,2.79-1.745,5.284-4.535,5.569C60.003,68.847,59.822,68.855,59.641,68.854z
	 M39.286,42.684c0.453,0,0.82,0.366,0.82,0.819v13.046c0.017,0.371-0.219,0.709-0.575,0.819l-9.976,3.118
	c-1.361,0.388-2.369,1.536-2.576,2.938c-0.195,1.889,1.178,3.577,3.066,3.772c0.124,0.012,0.248,0.019,0.371,0.018h29.224
	c1.898,0.011,3.446-1.521,3.456-3.419c0.001-0.124-0.005-0.248-0.018-0.371c-0.191-1.406-1.19-2.569-2.551-2.97l0,0l-10.001-3.086
	c-0.355-0.11-0.591-0.448-0.575-0.819V43.503c0-0.453,0.366-0.82,0.819-0.821c0.192,0,0.379,0.066,0.526,0.19
	c3.282,2.716,7.852,3.609,13.521,2.608c0.218-0.041,0.41-0.167,0.533-0.353c0.251-0.377,0.149-0.887-0.228-1.138
	c-0.174-0.115-0.386-0.16-0.592-0.126c-10.796,1.912-14.038-3.986-14.579-5.283c-0.062-0.075-0.11-0.161-0.139-0.255
	c-0.434-1.367-1.707-2.295-3.142-2.289h-3.282c-1.423,0.009-2.679,0.933-3.109,2.289c-0.033,0.103-0.086,0.197-0.156,0.279
	c-0.607,1.346-3.873,7.154-14.587,5.268c-0.447-0.076-0.871,0.225-0.946,0.671c-0.035,0.206,0.01,0.419,0.125,0.593
	c0.123,0.185,0.315,0.312,0.534,0.353c5.669,1.001,10.28,0.106,13.521-2.609C38.914,42.757,39.096,42.688,39.286,42.684z"/>
<rect x="44.179" y="63.111" fill="#FFFFFF" stroke="#FFFFFF" stroke-miterlimit="10" width="1.642" height="4.923"/>
</svg>
