<?xml version="1.0" encoding="utf-8"?>
<!-- Generator: Adobe Illustrator 16.0.0, SVG Export Plug-In . SVG Version: 6.00 Build 0)  -->
<!DOCTYPE svg PUBLIC "-//W3C//DTD SVG 1.1//EN" "http://www.w3.org/Graphics/SVG/1.1/DTD/svg11.dtd">
<svg version="1.1" id="Calque_1" xmlns="http://www.w3.org/2000/svg" xmlns:xlink="http://www.w3.org/1999/xlink" x="0px" y="0px"
	 width="90px" height="90px" viewBox="0 0 90 90" enable-background="new 0 0 90 90" xml:space="preserve">
<circle opacity="0.2" fill="#FFFFFF" cx="45.004" cy="45" r="43.614"/>
<g>
	<g>
		<path fill="#FFFFFF" stroke="#FFFFFF" stroke-miterlimit="10" d="M26.049,37.811l16.562,3.025
			c-1.754,7.279-6.021,12.77-10.113,12.77c-0.256,0-0.516-0.023-0.764-0.07c-2.049-0.375-3.768-2.264-4.84-5.322
			C25.857,45.26,25.568,41.615,26.049,37.811 M24.684,35.889c-1.76,9.635,1.264,18.26,6.754,19.266
			c0.352,0.064,0.705,0.092,1.061,0.092c5.168,0,10.422-6.705,12.072-15.723L24.684,35.889L24.684,35.889z"/>
	</g>
	
		<rect x="29.473" y="54.764" transform="matrix(-0.9836 -0.1806 0.1806 -0.9836 49.01 127.2132)" fill="#FFFFFF" stroke="#FFFFFF" stroke-miterlimit="10" width="1.644" height="13.225"/>
	
		<rect x="25.181" y="67.06" transform="matrix(-0.9837 -0.18 0.18 -0.9837 45.5343 139.8955)" fill="#FFFFFF" stroke="#FFFFFF" stroke-miterlimit="10" width="7.867" height="1.644"/>
	<g>
		<g>
			<path fill="#FFFFFF" stroke="#FFFFFF" stroke-miterlimit="10" d="M64.086,38.701c0.609,7.975-2.174,14.865-6.434,15.432
				c-0.186,0.025-0.373,0.039-0.561,0.039c-4.102,0-8.264-5.807-9.691-13.248L64.086,38.701 M65.545,36.848l-20.039,2.668
				c1.234,9.258,6.318,16.299,11.586,16.299c0.258,0,0.518-0.018,0.775-0.051C63.402,55.025,66.84,46.559,65.545,36.848
				L65.545,36.848z"/>
		</g>
		
			<rect x="52.09" y="61.216" transform="matrix(-0.132 -0.9912 0.9912 -0.132 4.9565 128.4182)" fill="#FFFFFF" stroke="#FFFFFF" stroke-miterlimit="10" width="13.225" height="1.645"/>
		
			<rect x="58.752" y="64.654" transform="matrix(-0.1318 -0.9913 0.9913 -0.1318 -0.5652 136.6808)" fill="#FFFFFF" stroke="#FFFFFF" stroke-miterlimit="10" width="1.645" height="7.868"/>
	</g>
	
		<rect x="27.886" y="31.085" transform="matrix(-0.7078 -0.7064 0.7064 -0.7078 32.242 77.1509)" fill="#FFFFFF" stroke="#FFFFFF" stroke-miterlimit="10" width="8.383" height="1.643"/>
	
		<rect x="30.253" y="26.529" transform="matrix(-0.5378 -0.8431 0.8431 -0.5378 29.5286 70.8919)" fill="#FFFFFF" stroke="#FFFFFF" stroke-miterlimit="10" width="7.888" height="1.645"/>
	
		<rect x="35.747" y="26.53" transform="matrix(-0.3384 -0.941 0.941 -0.3384 27.8713 74.2995)" fill="#FFFFFF" stroke="#FFFFFF" stroke-miterlimit="10" width="8.618" height="1.643"/>
	
		<rect x="41.001" y="23.978" transform="matrix(-0.0406 -0.9992 0.9992 -0.0406 22.7693 71.4653)" fill="#FFFFFF" stroke="#FFFFFF" stroke-miterlimit="10" width="9.391" height="1.646"/>
	
		<rect x="50.214" y="23.028" transform="matrix(-0.9374 -0.3481 0.3481 -0.9374 89.358 70.7593)" fill="#FFFFFF" stroke="#FFFFFF" stroke-miterlimit="10" width="1.644" height="8.647"/>
	
		<rect x="55.346" y="24.765" transform="matrix(-0.7768 -0.6297 0.6297 -0.7768 81.6739 86.5176)" fill="#FFFFFF" stroke="#FFFFFF" stroke-miterlimit="10" width="1.647" height="8.04"/>
	
		<rect x="55.023" y="31.004" transform="matrix(-0.4899 -0.8718 0.8718 -0.4899 53.3204 99.7571)" fill="#FFFFFF" stroke="#FFFFFF" stroke-miterlimit="10" width="1.647" height="6.548"/>
	<rect x="25.242" y="43.158" fill="#FFFFFF" stroke="#FFFFFF" stroke-miterlimit="10" width="17.271" height="1.645"/>
	<rect x="47.533" y="43.158" fill="#FFFFFF" stroke="#FFFFFF" stroke-miterlimit="10" width="17.27" height="1.645"/>
</g>
</svg>
