<?xml version="1.0" encoding="utf-8"?>
<!-- Generator: Adobe Illustrator 16.0.0, SVG Export Plug-In . SVG Version: 6.00 Build 0)  -->
<!DOCTYPE svg PUBLIC "-//W3C//DTD SVG 1.1//EN" "http://www.w3.org/Graphics/SVG/1.1/DTD/svg11.dtd">
<svg version="1.1" id="Calque_1" xmlns="http://www.w3.org/2000/svg" xmlns:xlink="http://www.w3.org/1999/xlink" x="0px" y="0px"
	 width="90px" height="90px" viewBox="0 0 90 90" enable-background="new 0 0 90 90" xml:space="preserve">
<circle opacity="0.2" fill="#FFFFFF" cx="45" cy="45" r="43.615"/>
<g>
	<path fill="#FFFFFF" stroke="#FFFFFF" stroke-miterlimit="10" d="M21.69,43.543l12.807-8.552c0.557-0.373,0.708-1.128,0.335-1.686
		c-0.373-0.558-1.127-0.709-1.686-0.336l-12.807,8.553c-1.093,0.729-1.745,1.949-1.745,3.264c0,1.314,0.652,2.534,1.745,3.263
		l12.807,8.552c0.208,0.139,0.442,0.205,0.674,0.205c0.393,0,0.778-0.19,1.012-0.54c0.374-0.559,0.222-1.313-0.335-1.686
		L21.69,46.028c-0.422-0.282-0.665-0.734-0.665-1.242C21.025,44.278,21.269,43.826,21.69,43.543z"/>
	<path fill="#FFFFFF" stroke="#FFFFFF" stroke-miterlimit="10" d="M69.661,41.523L56.853,32.97
		c-0.559-0.373-1.313-0.222-1.686,0.336c-0.373,0.558-0.223,1.313,0.335,1.686l12.808,8.552c0.422,0.283,0.664,0.735,0.664,1.242
		s-0.241,0.96-0.664,1.242l-12.807,8.553c-0.558,0.373-0.708,1.127-0.335,1.686c0.234,0.35,0.619,0.54,1.012,0.54
		c0.231,0,0.466-0.066,0.674-0.205l12.807-8.552c1.093-0.729,1.745-1.949,1.745-3.263C71.406,43.472,70.753,42.252,69.661,41.523z"
		/>
	<path fill="#FFFFFF" stroke="#FFFFFF" stroke-miterlimit="10" d="M50.908,26.488c-0.64-0.204-1.323,0.149-1.527,0.788
		L38.303,61.985c-0.204,0.64,0.149,1.323,0.788,1.527c0.124,0.04,0.248,0.058,0.37,0.058c0.515,0,0.993-0.329,1.158-0.847
		l11.077-34.708C51.901,27.375,51.548,26.692,50.908,26.488z"/>
</g>
</svg>
