<?xml version="1.0" encoding="utf-8"?>
<!-- Generator: Adobe Illustrator 16.0.0, SVG Export Plug-In . SVG Version: 6.00 Build 0)  -->
<!DOCTYPE svg PUBLIC "-//W3C//DTD SVG 1.1//EN" "http://www.w3.org/Graphics/SVG/1.1/DTD/svg11.dtd">
<svg version="1.1" id="Calque_1" xmlns="http://www.w3.org/2000/svg" xmlns:xlink="http://www.w3.org/1999/xlink" x="0px" y="0px"
	 width="90px" height="90px" viewBox="0 0 90 90" enable-background="new 0 0 90 90" xml:space="preserve">
<circle opacity="0.2" fill="#FFFFFF" cx="45" cy="45" r="43.615"/>
<g>
	<path fill="#FFFFFF" stroke="#FFFFFF" stroke-miterlimit="10" d="M69.154,26.845c-0.115-0.117-0.291-0.175-0.466-0.117
		l-0.467,0.117v-2.159c0-0.174-0.06-0.35-0.234-0.466c-0.175-0.118-0.35-0.118-0.524-0.058l-0.875,0.291v-1.809
		c0-0.175-0.118-0.35-0.293-0.467s-0.407-0.117-0.582-0.059L45.41,31.863L45,31.979l-0.234-0.058l-20.419-9.802
		c-0.175-0.058-0.41-0.058-0.584,0.059c-0.176,0.059-0.292,0.292-0.292,0.467v1.925l-0.934-0.35
		c-0.175-0.058-0.349-0.058-0.524,0.058c-0.117,0.118-0.234,0.292-0.234,0.467v2.042l-0.467-0.116c-0.175-0.059-0.349,0-0.466,0.116
		c-0.176,0.117-0.233,0.292-0.233,0.467V61.91c0,0.292,0.176,0.525,0.468,0.583l23.804,5.426c0.057,0,0.057,0,0.116,0
		s0.06,0,0.116,0l23.804-5.368c0.294-0.058,0.468-0.292,0.468-0.583V27.312C69.388,27.136,69.271,26.961,69.154,26.845z
		 M67.055,27.079l-12.603,2.858l11.494-4.026h0.058c0.175,0,0.351-0.058,0.466-0.174l0.585-0.234V27.079z M65.422,23.578v1.284
		L55.327,28.42L65.422,23.578z M24.638,23.578l10.561,5.076l-10.561-3.734V23.578z M22.945,25.562l0.876,0.292c0,0,0,0,0.059,0
		l11.026,3.851L23.004,27.02v-1.458H22.945z M21.778,28.012l22.64,5.134v33.49l-22.64-5.134V28.012z M68.222,61.502l-22.64,5.134
		v-33.49l22.64-5.134V61.502z"/>
	<path fill="#FFFFFF" stroke="#FFFFFF" stroke-miterlimit="10" d="M48.734,41.781c0.057,0,0.116,0,0.116,0l16.627-3.792
		c0.292-0.059,0.469-0.292,0.469-0.583v-4.201c0-0.175-0.118-0.35-0.233-0.467c-0.117-0.117-0.291-0.175-0.467-0.117l-16.629,3.792
		c-0.291,0.059-0.468,0.292-0.468,0.583v4.201c0,0.175,0.117,0.351,0.234,0.467C48.5,41.723,48.617,41.781,48.734,41.781z
		 M49.318,37.463l15.46-3.559v2.977l-15.46,3.559V37.463z"/>
	<path fill="#FFFFFF" stroke="#FFFFFF" stroke-miterlimit="10" d="M38.991,39.973l-13.827-3.151c-0.176,0-0.351,0-0.467,0.117
		c-0.175,0.117-0.234,0.292-0.234,0.467v21.296c0,0.292,0.175,0.524,0.466,0.583l13.827,3.151c0.06,0,0.06,0,0.117,0
		c0.118,0,0.233-0.059,0.35-0.117c0.177-0.117,0.234-0.292,0.234-0.467V40.556C39.457,40.264,39.282,40.031,38.991,39.973z
		 M38.23,61.152l-12.659-2.859V38.164l12.659,2.859V61.152z"/>
	<path fill="#FFFFFF" stroke="#FFFFFF" stroke-miterlimit="10" d="M64.021,50.591l1.105-2.042c0.06-0.175,0.06-0.35,0-0.525
		c-0.115-0.174-0.231-0.292-0.406-0.35l-1.75-0.467l0.06-1.985c0-0.174-0.06-0.35-0.237-0.466c-0.173-0.116-0.349-0.175-0.523-0.116
		l-1.983,0.583l-0.933-1.516c-0.06-0.175-0.235-0.292-0.41-0.292c-0.176-0.058-0.351,0-0.467,0.118l-1.75,1.575l-1.75-0.7
		c-0.291-0.117-0.642,0-0.757,0.292l-0.992,2.159l-2.159,0.408c-0.293,0.058-0.467,0.292-0.467,0.584l0.116,2.1l-1.927,1.459
		c-0.114,0.116-0.231,0.233-0.231,0.409c0,0.116,0,0.292,0.117,0.408l1.106,1.4l-1.106,2.042c-0.06,0.175-0.06,0.35,0,0.525
		c0.114,0.174,0.231,0.292,0.407,0.35l1.75,0.467l-0.059,1.984c0,0.175,0.059,0.351,0.233,0.466
		c0.176,0.117,0.351,0.175,0.526,0.117l1.983-0.583l0.934,1.517c0.059,0.175,0.233,0.292,0.409,0.292h0.058
		c0.175,0,0.293-0.059,0.408-0.234l1.75-1.575l1.75,0.7c0.291,0.117,0.642,0,0.758-0.292l0.992-2.042l2.159-0.409
		c0.294-0.059,0.466-0.291,0.466-0.584l-0.116-2.1l1.926-1.459c0.115-0.116,0.234-0.233,0.234-0.408c0-0.116,0-0.291-0.119-0.408
		L64.021,50.591z M62.094,53.333c-0.174,0.117-0.233,0.35-0.233,0.525l0.118,1.866l-1.926,0.409
		c-0.175,0.059-0.35,0.175-0.408,0.351l-0.877,1.925l-1.574-0.583c-0.176-0.058-0.407-0.058-0.582,0.117l-1.518,1.341l-0.759-1.283
		c-0.115-0.175-0.351-0.292-0.524-0.292c-0.06,0-0.117,0-0.176,0.059l-1.634,0.466v-1.633c0.06-0.292-0.175-0.525-0.407-0.583
		l-1.46-0.408l0.935-1.692c0.116-0.234,0.057-0.467-0.06-0.642l-0.989-1.284l1.69-1.284c0.176-0.117,0.233-0.35,0.233-0.525
		l-0.117-1.867l1.925-0.409c0.233,0,0.351-0.175,0.409-0.292l0.874-1.924l1.577,0.583c0.175,0.059,0.406,0,0.582-0.116l1.574-1.342
		l0.761,1.283c0.116,0.175,0.407,0.292,0.642,0.234l1.69-0.467l-0.058,1.634c-0.059,0.292,0.176,0.525,0.408,0.583l1.461,0.408
		l-0.936,1.633c-0.116,0.234-0.057,0.467,0.057,0.643l0.992,1.283L62.094,53.333z"/>
	<path fill="#FFFFFF" stroke="#FFFFFF" stroke-miterlimit="10" d="M24.871,35.071l6.709,1.517c0.06,0,0.06,0,0.118,0
		c0.232,0,0.523-0.175,0.523-0.466c0.06-0.292-0.173-0.642-0.467-0.7l-6.65-1.517c-0.291-0.058-0.642,0.175-0.7,0.467
		C24.347,34.663,24.578,35.013,24.871,35.071z"/>
</g>
</svg>
