<?xml version="1.0" encoding="utf-8"?>
<!-- Generator: Adobe Illustrator 16.0.0, SVG Export Plug-In . SVG Version: 6.00 Build 0)  -->
<!DOCTYPE svg PUBLIC "-//W3C//DTD SVG 1.1//EN" "http://www.w3.org/Graphics/SVG/1.1/DTD/svg11.dtd">
<svg version="1.1" id="Calque_1" xmlns="http://www.w3.org/2000/svg" xmlns:xlink="http://www.w3.org/1999/xlink" x="0px" y="0px"
	 width="90px" height="90px" viewBox="0 0 90 90" enable-background="new 0 0 90 90" xml:space="preserve">
<g>
	<circle opacity="0.2" fill="#FFFFFF" cx="45" cy="45" r="43.614"/>
</g>
<g>
	<path fill="#FFFFFF" stroke="#FFFFFF" stroke-miterlimit="10" d="M76.332,60.118H13.667c-0.595,0-1.075-0.483-1.073-1.08
		c0-0.253,0.092-0.497,0.255-0.691l18.727-22.128c0.344-0.409,0.936-0.504,1.392-0.223l8.402,5.201l10.454-10.985
		c0.208-0.225,0.504-0.346,0.81-0.328c0.306,0.011,0.592,0.149,0.791,0.382l23.726,28.081c0.385,0.454,0.329,1.132-0.124,1.519
		c-0.196,0.164-0.444,0.257-0.7,0.253H76.332z M15.991,57.967h58.024L52.561,32.568L42.323,43.329
		c-0.351,0.371-0.915,0.442-1.349,0.174l-8.359-5.183L15.991,57.967z"/>
	<path fill="#FFFFFF" stroke="#FFFFFF" stroke-width="2" stroke-miterlimit="10" d="M44.361,49.041
		c-5.516,0.019-9.985,4.487-10.008,10.001h20.009C54.339,53.528,49.875,49.065,44.361,49.041z"/>
	<path fill="#FFFFFF" stroke="#FFFFFF" stroke-miterlimit="10" d="M25.354,57.758c-0.457,0.002-0.827-0.369-0.828-0.825
		c0-0.203,0.075-0.4,0.211-0.552l6.098-6.866c0.304-0.34,0.829-0.369,1.17-0.064c0.341,0.303,0.371,0.828,0.065,1.168l0,0
		l-6.103,6.865C25.811,57.658,25.589,57.758,25.354,57.758z"/>
	<path fill="#FFFFFF" stroke="#FFFFFF" stroke-miterlimit="10" d="M56.408,46.749c-0.243,0.003-0.471-0.104-0.629-0.284l-3.308-3.86
		l-2.52,2.977c-0.295,0.349-0.818,0.391-1.167,0.097c-0.349-0.296-0.392-0.817-0.096-1.166l0,0l3.148-3.722
		c0.157-0.184,0.386-0.292,0.629-0.292l0,0c0.241,0,0.47,0.104,0.628,0.287l3.925,4.576c0.3,0.346,0.261,0.867-0.086,1.167
		c-0.15,0.128-0.343,0.2-0.542,0.2L56.408,46.749z"/>
</g>
</svg>
