<?xml version="1.0" encoding="utf-8"?>
<!-- Generator: Adobe Illustrator 16.0.0, SVG Export Plug-In . SVG Version: 6.00 Build 0)  -->
<!DOCTYPE svg PUBLIC "-//W3C//DTD SVG 1.1//EN" "http://www.w3.org/Graphics/SVG/1.1/DTD/svg11.dtd">
<svg version="1.1" id="Calque_1" xmlns="http://www.w3.org/2000/svg" xmlns:xlink="http://www.w3.org/1999/xlink" x="0px" y="0px"
	 width="90px" height="90px" viewBox="0 0 90 90" enable-background="new 0 0 90 90" xml:space="preserve">
<circle opacity="0.2" fill="#FFFFFF" cx="45.146" cy="45" r="43.615"/>
<g>
	<path fill="#FFFFFF" d="M46.752,41.001c-0.398-0.682-0.938-1.084-1.564-1.162c-0.053-0.007-0.107-0.007-0.161,0
		c-0.625,0.078-1.166,0.48-1.564,1.162c-0.092,0.157-0.167,0.313-0.224,0.45l-3.823,0.205c-0.358,0.019-0.633,0.325-0.614,0.684
		c0.02,0.357,0.326,0.636,0.684,0.614l4.255-0.229c0.28-0.014,0.521-0.211,0.593-0.482c0.086-0.32,0.38-0.971,0.774-1.096
		c0.393,0.125,0.688,0.777,0.773,1.094c0.071,0.272,0.311,0.469,0.594,0.484l4.255,0.229c0.012,0.001,0.023,0.001,0.035,0.001
		c0.343,0,0.629-0.269,0.648-0.615c0.019-0.359-0.256-0.666-0.615-0.684l-3.822-0.205C46.918,41.314,46.845,41.158,46.752,41.001z"
		/>
	<path fill="#FFFFFF" d="M41.323,30.355c-0.164-0.243-0.441-0.403-0.756-0.405c-0.504-0.003-0.917,0.405-0.919,0.91
		c0,0.109,0.019,0.214,0.054,0.312c0.126,0.353,0.461,0.606,0.857,0.608c0.506,0.002,0.918-0.405,0.92-0.91
		C41.48,30.679,41.422,30.501,41.323,30.355z"/>
	<path fill="#FFFFFF" d="M49.393,29.992c-0.299-0.001-0.564,0.141-0.732,0.362c-0.116,0.153-0.187,0.342-0.188,0.55
		c-0.001,0.505,0.406,0.917,0.912,0.919c0.418,0.002,0.771-0.277,0.883-0.66c0.023-0.08,0.036-0.164,0.037-0.25
		C50.306,30.407,49.897,29.996,49.393,29.992z"/>
	<path fill="#FFFFFF" d="M48.469,27.856c-1.032-2.467-3.465-2.654-3.465-2.654s-2.437,0.165-3.492,2.622l-1.344,0.462l1.887,0.067
		c0,0,2.099-2.298,2.895-2.236c0.794-0.055,2.97,2.264,2.97,2.264l1.889-0.049L48.469,27.856z"/>
	<g>
		<path fill="#FFFFFF" d="M53.698,32.378c-0.438-0.181-0.876-0.348-1.305-0.504c0.125-0.429,0.131-0.868,0.083-1.232l1.857-1.584
			c0.008-0.007,0.016-0.013,0.022-0.02c1.438-1.347,1.988-2.561,1.634-3.607c-0.457-1.353-2.263-1.853-3.186-2.022l-0.16-1.339l0,0
			l-0.138-1.909c-0.081-2.266-1.429-3.911-3.902-4.754c-1.702-0.582-3.36-0.582-3.549-0.578c-0.189-0.006-1.847-0.022-3.554,0.543
			c-2.48,0.821-3.845,2.451-3.948,4.717l-0.157,1.908l0,0l-0.174,1.337c-0.925,0.161-2.736,0.643-3.206,1.991
			c-0.364,1.043,0.174,2.262,1.6,3.623c0.007,0.008,0.014,0.015,0.022,0.021l1.841,1.602c-0.056,0.388-0.048,0.86,0.097,1.316
			c-0.419,0.154-0.847,0.317-1.273,0.493c-4.034,1.656-5.913,3.448-5.586,5.325c0.094,0.536,0.192,1.023,0.295,1.467v15.249
			c0,1.664,1.354,3.021,3.019,3.021c0.639,0,1.23-0.201,1.719-0.541v0.037v14.15c0,2.253,1.833,4.088,4.088,4.088
			c2.254,0,4.088-1.835,4.088-4.088v-10.79l1.069,0.468l1.069-0.468v10.79c0,2.253,1.833,4.088,4.088,4.088
			c2.255,0,4.088-1.835,4.088-4.088v-14.15v-0.045c0.491,0.345,1.087,0.549,1.731,0.549c1.665,0,3.019-1.356,3.019-3.021V39.17
			c0.103-0.443,0.202-0.931,0.294-1.467C59.61,35.826,57.731,34.034,53.698,32.378z M38.847,20.181l0.003-0.025
			c0.071-1.701,1.091-2.893,3.029-3.542c1.56-0.522,3.137-0.488,3.152-0.487h0.016h0.014c0.015,0,1.594-0.021,3.147,0.518
			c1.932,0.668,2.939,1.869,2.996,3.571l0.092,1.277L44.56,21.46l-5.815-0.028L38.847,20.181z M36.501,27.997
			c-0.987-0.945-1.434-1.742-1.259-2.244c0.258-0.743,1.877-1.128,2.619-1.198c0.303-0.027,0.545-0.262,0.584-0.563l0.164-1.26
			l1.431,0.007c0.007,0.541,0.15,2.251,1.717,2.036l2.221-2.017l2.072,0.01l2.203,2.039c1.565,0.231,1.725-1.479,1.735-2.02
			l1.432,0.007l0.152,1.263c0.037,0.302,0.276,0.539,0.58,0.569c0.741,0.075,2.354,0.472,2.606,1.222
			c0.17,0.503-0.284,1.295-1.28,2.232l-2.137,1.822c-0.193,0.165-0.271,0.432-0.202,0.676c0.02,0.071,0.123,0.471,0.021,0.87
			c-0.07,0.28-0.243,0.56-0.618,0.724c-0.229,0.072-0.573,0.153-0.938,0.202c-0.555,0.073-1.158,0.07-1.474-0.16
			c-0.077-0.057-0.172-0.155-0.214-0.363c-0.013-0.062-0.021-0.131-0.022-0.215l0.133-1.074c0.022-0.177-0.03-0.354-0.143-0.492
			c-0.004-0.005-0.009-0.009-0.014-0.015c-0.113-0.128-0.271-0.209-0.443-0.22l-0.498-0.035l-0.134-0.009v-0.018l0.002-0.593
			l-0.776-0.004l0.004-0.851l-2.073-0.01l-0.004,0.852l-0.777-0.004l-0.002,0.612l-0.634,0.038
			c-0.178,0.011-0.344,0.094-0.459,0.231c-0.009,0.011-0.018,0.023-0.026,0.036c-0.096,0.131-0.14,0.293-0.122,0.456l0.123,1.075
			c-0.004,0.105-0.016,0.189-0.037,0.261c-0.047,0.177-0.134,0.263-0.206,0.314c-0.299,0.214-0.852,0.224-1.38,0.158
			c-0.399-0.049-0.784-0.142-1.033-0.222c-0.341-0.154-0.513-0.403-0.591-0.658c-0.129-0.422-0.013-0.865,0.01-0.938
			c0.075-0.246-0.001-0.513-0.194-0.682L36.501,27.997z M35.748,50.554v2.122v1.766c-0.013,0.938-0.778,1.696-1.718,1.696
			c-0.949,0-1.72-0.772-1.72-1.72v-5.993h3.438V50.554z M35.748,45.828H32.31V42.21c0.221,0.233,0.461,0.394,0.724,0.489
			c0.19,0.07,0.375,0.1,0.558,0.1c0.785,0,1.504-0.571,2.157-1.118L35.748,45.828L35.748,45.828z M35.748,38.838v1.177
			c-0.249,0.181-0.492,0.384-0.731,0.585c-0.532,0.447-1.194,1.005-1.538,0.879c-0.208-0.075-0.684-0.478-1.169-2.468
			c-0.105-0.431-0.21-0.937-0.314-1.531c-0.152-0.872,0.828-1.905,2.738-2.937c0.596-0.321,1.279-0.643,2.05-0.96
			c0.284-0.117,0.568-0.229,0.852-0.334C36.451,34.803,35.748,36.739,35.748,38.838z M42.625,71.085c0,1.538-1.25,2.789-2.788,2.789
			c-1.539,0-2.79-1.251-2.79-2.789V57.28l5.578,2.445V71.085z M52.939,71.085c0,1.538-1.251,2.789-2.789,2.789
			c-1.539,0-2.789-1.251-2.789-2.789V59.726l5.578-2.445V71.085z M52.939,55.637v0.226l-2.452,1.073l-3.126,1.37l-1.299,0.569
			l-1.07,0.469l-1.069-0.469l-1.299-0.569l-3.127-1.37l-2.45-1.073v-0.226v-1.169c0-0.016,0.001-0.031,0.001-0.049v-1.743h5.576h1.3
			h2.138h1.299h5.578L52.939,55.637L52.939,55.637z M52.939,50.554v0.823h-5.578h-1.299h-2.139h-1.3h-5.575v-2.794h5.576h1.3h2.138
			h1.299h5.578L52.939,50.554L52.939,50.554z M52.939,43.517v2.985v0.782h-5.578h-1.299h-2.139h-1.3h-5.575v-6.516
			c0.004-0.001,0.003-0.005-0.001-0.011v-0.391l0.001-0.003v-0.324l-0.001,0v-1.201c0-2.097,0.817-4.004,2.148-5.426
			c0.645,0.184,2.342,0.561,3.37-0.174c0.356-0.254,0.782-0.75,0.786-1.662c0-0.025-0.001-0.051-0.004-0.078l-0.048-0.424
			l-0.001-0.01l0.069-0.004l1.61-0.097l1.677,0.117L46.6,31.514c-0.003,0.026-0.006,0.051-0.006,0.076
			c-0.003,0.912,0.417,1.411,0.771,1.668c0.463,0.339,1.068,0.449,1.651,0.452c0.763,0.004,1.485-0.176,1.804-0.269
			c1.313,1.418,2.12,3.314,2.12,5.394V43.517z M57.689,54.419c0,0.948-0.771,1.72-1.719,1.72c-0.948,0-1.719-0.772-1.719-1.72
			v-5.993h3.438L57.689,54.419L57.689,54.419z M57.689,45.828H54.25v-4.146c0.652,0.546,1.371,1.119,2.156,1.119
			c0.182,0,0.369-0.031,0.559-0.1c0.264-0.096,0.502-0.257,0.724-0.49V45.828z M58.003,37.48c-0.103,0.594-0.208,1.1-0.314,1.531
			c-0.486,1.99-0.961,2.392-1.169,2.468c-0.343,0.127-1.005-0.432-1.538-0.879c-0.239-0.203-0.483-0.407-0.731-0.585
			c-0.004-0.003-0.008-0.006-0.012-0.008v-1.169c0-2.102-0.707-4.041-1.891-5.596c0.288,0.11,0.579,0.223,0.868,0.342
			c0.771,0.317,1.456,0.638,2.05,0.96C57.176,35.576,58.156,36.609,58.003,37.48z"/>
	</g>
</g>
</svg>
