<?xml version="1.0" encoding="utf-8"?>
<!-- Generator: Adobe Illustrator 16.0.0, SVG Export Plug-In . SVG Version: 6.00 Build 0)  -->
<!DOCTYPE svg PUBLIC "-//W3C//DTD SVG 1.1//EN" "http://www.w3.org/Graphics/SVG/1.1/DTD/svg11.dtd">
<svg version="1.1" id="Calque_1" xmlns="http://www.w3.org/2000/svg" xmlns:xlink="http://www.w3.org/1999/xlink" x="0px" y="0px"
	 width="90px" height="90px" viewBox="0 0 90 90" enable-background="new 0 0 90 90" xml:space="preserve">
<circle opacity="0.2" fill="#FFFFFF" cx="45" cy="45" r="43.614"/>
<path fill="#FFFFFF" stroke="#FFFFFF" stroke-miterlimit="10" d="M64.652,36.555c0-0.075-0.009-0.15-0.027-0.222
	c-0.865-10.11-9.459-18.007-19.631-18.007c-10.219,0-18.848,7.977-19.645,18.157c-0.018,0.245,0.07,0.474,0.223,0.653
	c0,0.002,11.62,13.469,11.62,13.469h-1.815c-0.504,0-0.91,0.408-0.91,0.91v19.249c0,0.503,0.406,0.909,0.91,0.909h19.248
	c0.502,0,0.91-0.406,0.91-0.909V51.518c0-0.504-0.408-0.909-0.91-0.909h-1.817l11.569-13.401
	C64.547,37.041,64.652,36.812,64.652,36.555z M27.531,36.633c1.387-1.125,3.098-1.737,4.903-1.737c2.067,0,4.003,0.808,5.479,2.265
	l3.934,13.448h-2.252L27.531,36.633z M39.744,36.938c1.449-1.316,3.291-2.042,5.25-2.042c1.963,0,3.808,0.729,5.258,2.052
	l-3.994,13.661h-2.516L39.744,36.938z M53.715,52.427v17.431h-17.43V52.427H53.715z M50.404,50.608h-2.25l3.935-13.463
	c1.478-1.449,3.407-2.251,5.467-2.251c1.809,0,3.523,0.615,4.909,1.741L50.404,50.608z M57.556,33.076
	c-2.329,0-4.526,0.824-6.278,2.336c-1.754-1.512-3.953-2.336-6.282-2.336c-2.33,0-4.53,0.824-6.283,2.336
	c-1.749-1.512-3.946-2.336-6.276-2.336c-1.777,0-3.48,0.48-4.965,1.377c1.676-8.178,8.988-14.308,17.523-14.308
	c8.537,0,15.851,6.13,17.524,14.306C61.036,33.555,59.332,33.076,57.556,33.076z M40.563,62.046h3.528v3.53
	c0,0.505,0.405,0.91,0.908,0.91c0.504,0,0.909-0.405,0.909-0.91v-3.53h3.527c0.502,0,0.909-0.406,0.909-0.909
	c0-0.501-0.407-0.909-0.909-0.909h-3.527v-3.524c0-0.504-0.405-0.909-0.909-0.909c-0.503,0-0.908,0.405-0.908,0.909v3.524h-3.528
	c-0.503,0-0.909,0.408-0.909,0.909C39.654,61.64,40.061,62.046,40.563,62.046z"/>
</svg>
