<?xml version="1.0" encoding="utf-8"?>
<!-- Generator: Adobe Illustrator 16.0.0, SVG Export Plug-In . SVG Version: 6.00 Build 0)  -->
<!DOCTYPE svg PUBLIC "-//W3C//DTD SVG 1.1//EN" "http://www.w3.org/Graphics/SVG/1.1/DTD/svg11.dtd">
<svg version="1.1" id="Calque_1" xmlns="http://www.w3.org/2000/svg" xmlns:xlink="http://www.w3.org/1999/xlink" x="0px" y="0px"
	 width="91.667px" height="90.667px" viewBox="0 0 91.667 90.667" enable-background="new 0 0 91.667 90.667" xml:space="preserve">
<circle opacity="0.2" fill="#FFFFFF" enable-background="new    " cx="46.016" cy="45.528" r="43.615"/>
<path fill="#FFFFFF" stroke="#FFFFFF" stroke-width="0.5" stroke-miterlimit="10" d="M24.003,54.759l1.812,11.59
	c0.101,0.643,0.391,1.221,0.818,1.633c0.395,0.377,0.882,0.584,1.37,0.584c0.09,0,0.179-0.008,0.268-0.02l1.308-0.205
	c0.369,1.148,1.442,1.938,2.648,1.938c0.144,0,0.287-0.012,0.432-0.033l3.787-0.592c0.736-0.117,1.383-0.51,1.823-1.111
	c0.439-0.604,0.618-1.34,0.502-2.076l-2.633-16.85c-0.238-1.521-1.669-2.564-3.187-2.326l-3.787,0.594
	c-1.519,0.236-2.562,1.666-2.325,3.186l0.102,0.652l-0.905,0.143c-0.505-1.953-0.824-7.315-0.824-9.608
	c0-11.37,9.25-20.621,20.622-20.621c11.37,0,20.621,9.25,20.621,20.621c0,2.293-0.319,7.655-0.824,9.608l-0.904-0.143l0.102-0.652
	c0.236-1.52-0.808-2.949-2.325-3.186l-3.787-0.594c-1.522-0.238-2.948,0.807-3.187,2.326l-2.634,16.85
	c-0.115,0.736,0.063,1.473,0.503,2.076c0.439,0.602,1.087,0.996,1.823,1.111l3.787,0.592c0.144,0.021,0.29,0.033,0.431,0.033
	c1.207,0,2.28-0.789,2.65-1.938l1.307,0.205c0.09,0.012,0.179,0.02,0.269,0.02c0.487,0,0.976-0.205,1.37-0.584
	c0.427-0.412,0.717-0.99,0.817-1.633l1.812-11.59c0.158-1.018-0.204-1.969-0.854-2.475c0.589-2.145,0.893-7.952,0.893-10.029
	c0-12.058-9.81-21.867-21.868-21.867s-21.868,9.809-21.868,21.867c0,2.077,0.304,7.884,0.893,10.029
	C24.208,52.791,23.845,53.742,24.003,54.759z M60.961,67.726c-0.131,0.84-0.918,1.422-1.763,1.285l-3.787-0.592
	c-0.407-0.062-0.765-0.281-1.008-0.615c-0.244-0.33-0.342-0.74-0.277-1.146l2.634-16.85c0.118-0.762,0.776-1.305,1.522-1.305
	c0.079,0,0.159,0.004,0.24,0.018l3.786,0.592c0.407,0.064,0.765,0.281,1.009,0.615c0.242,0.332,0.342,0.74,0.277,1.146
	L60.961,67.726z M66.431,54.566L64.62,66.158c-0.057,0.369-0.222,0.705-0.45,0.926c-0.107,0.104-0.321,0.271-0.583,0.229
	l-1.268-0.197l2.212-14.162l1.269,0.199C66.243,53.22,66.539,53.882,66.431,54.566z M28.348,49.728
	c0.243-0.332,0.602-0.551,1.008-0.613l3.787-0.594c0.08-0.012,0.16-0.018,0.24-0.018c0.747,0,1.404,0.545,1.523,1.305l2.634,16.85
	c0.063,0.408-0.035,0.816-0.277,1.148c-0.244,0.332-0.602,0.551-1.008,0.615l-3.787,0.592c-0.845,0.133-1.632-0.447-1.762-1.285
	l-2.634-16.854C28.007,50.468,28.106,50.062,28.348,49.728z M29.346,67.115l-1.269,0.199c-0.255,0.039-0.476-0.127-0.582-0.23
	c-0.229-0.221-0.393-0.557-0.45-0.926l-1.812-11.59c-0.107-0.686,0.188-1.348,0.631-1.416l1.268-0.199L29.346,67.115z"/>
</svg>
