<?xml version="1.0" encoding="utf-8"?>
<!-- Generator: Adobe Illustrator 16.0.0, SVG Export Plug-In . SVG Version: 6.00 Build 0)  -->
<!DOCTYPE svg PUBLIC "-//W3C//DTD SVG 1.1//EN" "http://www.w3.org/Graphics/SVG/1.1/DTD/svg11.dtd">
<svg version="1.1" id="Calque_1" xmlns="http://www.w3.org/2000/svg" xmlns:xlink="http://www.w3.org/1999/xlink" x="0px" y="0px"
	 width="91.667px" height="90.667px" viewBox="0 0 91.667 90.667" enable-background="new 0 0 91.667 90.667" xml:space="preserve">
<circle opacity="0.2" fill="#FFFFFF" stroke="#FFFFFF" stroke-miterlimit="10" enable-background="new    " cx="46.016" cy="45.528" r="43.615"/>
<g>
	<path fill="#FFFFFF" d="M26.091,60.781c-0.329-0.328-0.329-0.877,0-1.207l9.21-9.209c0.329-0.33,0.877-0.33,1.206,0
		c0.329,0.328,0.329,0.877,0,1.206l-9.266,9.21C26.914,61.11,26.365,61.11,26.091,60.781z M27.516,63.466
		c-0.329-0.328-0.329-0.877,0-1.205l10.472-10.471c0.329-0.328,0.877-0.328,1.207,0c0.329,0.328,0.329,0.877,0,1.205L28.668,63.466
		C28.338,63.794,27.845,63.794,27.516,63.466z M40.619,55.682l-9.21,9.267c-0.329,0.328-0.877,0.328-1.206,0
		c-0.329-0.33-0.329-0.878,0-1.207l9.21-9.211c0.329-0.328,0.877-0.328,1.206,0C40.949,54.805,40.949,55.353,40.619,55.682z"/>
	<path fill="#FFFFFF" d="M69.841,22.951l-1.811-1.81c-0.273-0.274-0.713-0.329-1.042-0.164l-5.591,3.125
		c-0.221,0.11-0.33,0.274-0.439,0.494l-1.15,3.563L42.209,45.704l-2.632-2.633c-0.164-0.164-0.383-0.273-0.603-0.273
		c-0.22,0-0.438,0.109-0.603,0.273l-1.646,1.646c-0.329,0.329-0.329,0.932,0,1.261l0.603,0.549l-0.164,0.107h-2.139
		c-0.219,0-0.438,0.166-0.603,0.33L22.747,58.699c-2.631,2.631-2.631,6.906,0,9.538c1.316,1.315,3.016,1.974,4.77,1.974
		c1.755,0,3.454-0.656,4.77-1.974L43.91,56.559c0.165-0.164,0.22-0.384,0.22-0.604v-2.138l0.219-0.164l0.658,0.604
		c0.33,0.328,0.933,0.328,1.262,0l1.643-1.646c0.33-0.328,0.33-0.877,0-1.261l-2.632-2.63l17.599-17.6l3.564-1.207
		c0.219-0.054,0.383-0.22,0.492-0.384l3.126-5.592C70.225,23.609,70.117,23.226,69.841,22.951z M45.992,52.007l-0.438,0.439
		l-0.603-0.604c-0.329-0.329-0.877-0.329-1.261,0l-1.042,1.041c-0.109,0.109-0.219,0.328-0.219,0.549v2.139L31.025,66.976
		c-1.919,1.919-5.099,1.919-7.018,0c-1.918-1.919-1.918-5.208,0-7.182l11.404-11.514h2.138c0.22,0,0.438,0.055,0.604-0.111
		l1.042-0.985c0.329-0.329,0.329-0.876,0-1.206l-0.603-0.604l0.438-0.384l1.974,1.974l1.261,1.264l0.548,0.547l1.261,1.262
		L45.992,52.007z M65.509,28.434l-3.398,1.151c-0.107,0.055-0.273,0.109-0.33,0.22L44.019,47.513l-0.548-0.549l17.708-17.763
		c0.109-0.11,0.164-0.22,0.221-0.329l1.15-3.4l4.715-2.631l0.877,0.877L65.509,28.434z"/>
	<path fill="#FFFFFF" d="M39.194,51.791c-0.33-0.328-0.878-0.328-1.207,0L27.516,62.316c-0.329,0.329-0.329,0.877,0,1.206
		s0.877,0.329,1.207,0L39.195,53.05C39.523,52.667,39.523,52.119,39.194,51.791z"/>
	<path fill="#FFFFFF" d="M36.508,50.365c-0.329-0.33-0.877-0.33-1.206,0l-9.21,9.266c-0.329,0.328-0.329,0.877,0,1.205
		c0.328,0.33,0.876,0.33,1.206,0l9.21-9.265C36.836,51.242,36.836,50.693,36.508,50.365z"/>
	<path fill="#FFFFFF" d="M39.414,54.476l-9.21,9.266c-0.329,0.329-0.329,0.877,0,1.207c0.329,0.328,0.877,0.328,1.206,0l9.21-9.212
		c0.33-0.327,0.33-0.877,0-1.206C40.291,54.203,39.743,54.203,39.414,54.476z"/>
</g>
</svg>
