<?xml version="1.0" encoding="utf-8"?>
<!-- Generator: Adobe Illustrator 16.0.0, SVG Export Plug-In . SVG Version: 6.00 Build 0)  -->
<!DOCTYPE svg PUBLIC "-//W3C//DTD SVG 1.1//EN" "http://www.w3.org/Graphics/SVG/1.1/DTD/svg11.dtd">
<svg version="1.1" id="Calque_1" xmlns="http://www.w3.org/2000/svg" xmlns:xlink="http://www.w3.org/1999/xlink" x="0px" y="0px"
	 width="90px" height="90px" viewBox="0 0 90 90" enable-background="new 0 0 90 90" xml:space="preserve">
<circle opacity="0.2" fill="#FFFFFF" cx="44.957" cy="45.02" r="43.614"/>
<g>
	<g>
		<path fill="#FFFFFF" stroke="#FFFFFF" stroke-miterlimit="10" d="M68.369,50.014c-0.03-0.535-0.475-0.957-1.012-0.957V29.794
			c0-0.56-0.454-1.014-1.014-1.014h-1.218c-0.943-4.62-5.037-8.109-9.933-8.109c-1.93,0-3.716,0.572-5.253,1.51
			c-0.381-0.196-0.857-0.149-1.178,0.171c-3.161,3.163-8.306,3.163-11.469,0c-0.32-0.32-0.794-0.367-1.176-0.171
			c-1.537-0.938-3.323-1.51-5.253-1.51c-5.589,0-10.137,4.547-10.137,10.137s4.548,10.138,10.137,10.138
			c5.59,0,10.137-4.548,10.137-10.138c0-1.67-0.444-3.226-1.164-4.616c1.039,0.343,2.108,0.558,3.191,0.558s2.153-0.213,3.191-0.558
			c-0.718,1.391-1.164,2.946-1.164,4.616c0,5.59,4.548,10.138,10.137,10.138S65.33,36.397,65.33,30.808v18.249
			c-0.537,0-0.981,0.42-1.012,0.957l-0.9,16.222c-0.046,0.801,0.245,1.594,0.797,2.178c0.549,0.581,1.326,0.916,2.129,0.916
			s1.579-0.335,2.129-0.916c0.551-0.582,0.841-1.377,0.796-2.178L68.369,50.014z M30.864,38.918c-4.473,0-8.109-3.638-8.109-8.11
			c0-4.472,3.637-8.109,8.109-8.109c4.472,0,8.11,3.638,8.11,8.109C38.974,35.28,35.336,38.918,30.864,38.918z M55.193,38.918
			c-4.473,0-8.11-3.638-8.11-8.11c0-4.472,3.637-8.109,8.11-8.109c4.472,0,8.11,3.638,8.11,8.109
			C63.303,35.28,59.665,38.918,55.193,38.918z M67,67.018c-0.342,0.367-0.967,0.367-1.312,0c-0.174-0.183-0.262-0.42-0.248-0.671
			l0.847-15.265H66.4l0.848,15.265C67.26,66.596,67.173,66.835,67,67.018z"/>
	</g>
</g>
</svg>
