<?xml version="1.0" encoding="utf-8"?>
<!-- Generator: Adobe Illustrator 16.0.0, SVG Export Plug-In . SVG Version: 6.00 Build 0)  -->
<!DOCTYPE svg PUBLIC "-//W3C//DTD SVG 1.1//EN" "http://www.w3.org/Graphics/SVG/1.1/DTD/svg11.dtd">
<svg version="1.1" id="Calque_1" xmlns="http://www.w3.org/2000/svg" xmlns:xlink="http://www.w3.org/1999/xlink" x="0px" y="0px"
	 width="90px" height="90px" viewBox="0 0 90 90" enable-background="new 0 0 90 90" xml:space="preserve">
<circle opacity="0.2" fill="#FFFFFF" cx="45.988" cy="43.614" r="43.614"/>
<g transform="translate(0,-952.36218)">
	<path fill="#FFFFFF" stroke="#FFFFFF" stroke-miterlimit="10" d="M45.643,972.123c-0.251,0.058-0.467,0.052-0.688,0.067
		c-0.259,0.032-0.477,0.287-0.468,0.553v6.283c-9.982,0.074-17.175,6.182-19.543,13.856c-0.208,0-0.742,0-0.773,0.561
		c0.011,0.282,0.278,0.525,0.558,0.512c0.091,1.211,0.375,2.181,1.07,2.967v18.483c-0.372,0-0.753,0-1.118,0
		c-0.281,0.012-0.523,0.278-0.51,0.561c0.011,0.281,0.278,0.523,0.558,0.51h40.588c0.283,0.006,0.541-0.251,0.541-0.537
		c0-0.279-0.258-0.538-0.541-0.533h-1.068v-18.483c0.757-0.84,1.061-2.073,1.068-2.967c0.283,0.004,0.541-0.252,0.541-0.536
		c0-0.537-0.534-0.537-0.759-0.537c-2.414-7.834-9.902-13.513-19.541-13.839v-3.134c1.032-0.152,1.589,0.144,2.187,0.503
		c0.875,0.655,1.906,0.752,2.805,0.469c0-1.313,0-2.688,0-3.821c-0.949,0.455-1.507,0.214-2.256-0.251
		C47.158,972.049,46.486,972.064,45.643,972.123L45.643,972.123z M47.744,973.731c0.578,0.41,1.092,0.614,1.733,0.686v1.56
		c-0.456,0.057-0.855-0.283-1.185-0.486c-0.618-0.374-1.5-0.797-2.735-0.671v-1.591C46.328,973.068,47.152,973.376,47.744,973.731
		L47.744,973.731z M44.673,980.099c9.519,0,16.84,5.347,19.293,12.784h-37.9C28.406,985.743,35.161,980.099,44.673,980.099
		L44.673,980.099z M25.799,993.955h4.27c-0.02,1.485-0.763,2.666-2.135,2.682C26.331,996.562,25.808,995.17,25.799,993.955z
		 M31.14,993.955h2.135c0.088,1.211,0.374,2.181,1.067,2.967v18.483h-4.273v-18.483C30.828,996.082,31.129,994.849,31.14,993.955
		L31.14,993.955z M34.342,993.955h4.274c-0.023,1.485-0.766,2.666-2.14,2.682C34.876,996.562,34.356,995.17,34.342,993.955z
		 M39.683,993.955h2.136c0.09,1.211,0.375,2.181,1.068,2.967v18.483h-4.271v-18.483C39.373,996.082,39.674,994.849,39.683,993.955
		L39.683,993.955z M42.887,993.955h4.271c-0.022,1.485-0.763,2.666-2.135,2.682C43.421,996.562,42.896,995.17,42.887,993.955z
		 M48.229,993.955h2.135c0.087,1.211,0.374,2.181,1.067,2.967v18.483h-4.273v-18.483C47.918,996.082,48.219,994.849,48.229,993.955
		L48.229,993.955z M51.432,993.955h4.274c-0.023,1.485-0.766,2.666-2.14,2.682C51.965,996.562,51.441,995.17,51.432,993.955z
		 M56.771,993.955h2.138c0.086,1.211,0.373,2.181,1.065,2.967v18.483h-4.268v-18.483C56.463,996.082,56.764,994.849,56.771,993.955
		L56.771,993.955z M59.974,993.955h4.274c-0.022,1.485-0.764,2.666-2.135,2.682C60.51,996.562,59.986,995.17,59.974,993.955z
		 M26.868,997.54c0.735,0.248,1.443,0.154,2.135,0v17.865h-2.135V997.54z M35.408,997.54c0.74,0.248,1.448,0.154,2.137,0v17.865
		h-2.137V997.54z M43.955,997.54c0.736,0.248,1.446,0.154,2.137,0v17.865h-2.137V997.54z M52.498,997.54
		c0.74,0.248,1.448,0.154,2.137,0v17.865h-2.137V997.54z M61.045,997.54c0.736,0.248,1.446,0.154,2.137,0v17.865h-2.137V997.54z
		 M23.562,1017.548c-0.282,0.027-0.512,0.306-0.485,0.586c0.027,0.283,0.307,0.515,0.584,0.487h42.725
		c0.28,0.004,0.54-0.252,0.54-0.536c0-0.283-0.26-0.541-0.54-0.537C52.112,1017.548,37.826,1017.548,23.562,1017.548
		L23.562,1017.548z"/>
</g>
</svg>
