<?xml version="1.0" encoding="utf-8"?>
<!-- Generator: Adobe Illustrator 16.0.0, SVG Export Plug-In . SVG Version: 6.00 Build 0)  -->
<!DOCTYPE svg PUBLIC "-//W3C//DTD SVG 1.1//EN" "http://www.w3.org/Graphics/SVG/1.1/DTD/svg11.dtd">
<svg version="1.1" id="Calque_1" xmlns="http://www.w3.org/2000/svg" xmlns:xlink="http://www.w3.org/1999/xlink" x="0px" y="0px"
	 width="90px" height="90px" viewBox="0 0 90 90" enable-background="new 0 0 90 90" xml:space="preserve">
<circle opacity="0.2" fill="#FFFFFF" enable-background="new    " cx="45" cy="45" r="43.615"/>
<path fill="#FFFFFF" d="M72.593,35.247l-4.364-13.278c-0.061-0.246-0.246-0.43-0.49-0.554c-0.246-0.123-0.491-0.123-0.738-0.062
	l-4.548,1.537c-0.493,0.184-0.739,0.676-0.616,1.167l0.123,0.37l-1.6,0.553c-0.49,0.185-0.735,0.676-0.613,1.168l0.123,0.431
	l-24.22,7.991l-0.554-1.66l-0.859-2.705c-0.186-0.492-0.677-0.738-1.169-0.615l-3.812,1.229c-0.491,0.184-0.736,0.676-0.614,1.168
	l0.86,2.705c0.123,0.369,0.492,0.615,0.861,0.615c0.123,0,0.184,0,0.307-0.062l0.615-0.185l0.246,0.737l-4.733,1.537
	c-0.492,0.185-0.738,0.676-0.615,1.168l0.615,1.782l-5.471,1.783l-0.186-0.554c-0.184-0.492-0.676-0.738-1.167-0.615l-2.029,0.86
	c-0.246,0.062-0.43,0.246-0.553,0.492c-0.062,0.184-0.062,0.43,0,0.676l1.905,5.778c0.123,0.369,0.491,0.614,0.861,0.614
	c0.123,0,0.184,0,0.307-0.062l1.968-0.676c0.246-0.062,0.43-0.246,0.552-0.491c0.123-0.247,0.123-0.492,0.062-0.738l-0.185-0.492
	l5.471-1.781l0.614,1.781c0.062,0.248,0.246,0.432,0.493,0.555c0.122,0.062,0.245,0.123,0.429,0.123c0.124,0,0.186,0,0.308-0.061
	l13.586-4.487v3.012l-9.59,21.392c-0.185,0.491,0,1.045,0.491,1.229c0.123,0.062,0.246,0.062,0.369,0.062
	c0.369,0,0.676-0.184,0.861-0.553l8.79-19.67l8.79,19.67c0.186,0.369,0.492,0.553,0.86,0.553c0.123,0,0.246,0,0.369-0.062
	c0.491-0.185,0.676-0.738,0.491-1.229l-9.59-21.392v-3.626l17.644-5.84l0.123,0.43c0.122,0.369,0.491,0.616,0.858,0.616
	c0.123,0,0.187,0,0.309-0.062l1.599-0.554l0.123,0.369c0.062,0.247,0.245,0.431,0.491,0.554c0.123,0.062,0.246,0.123,0.432,0.123
	c0.123,0,0.185,0,0.308-0.061l4.548-1.537C72.53,36.292,72.777,35.738,72.593,35.247z M32.698,31.681l0.308,0.923l-1.414,0.491l0,0
	l-0.614,0.185l-0.308-0.922L32.698,31.681z M33.62,34.385l0.246,0.738l-0.552,0.185l-0.247-0.738L33.62,34.385z M20.773,47.232
	l-1.291-3.995l0.184-0.062l1.292,3.996L20.773,47.232z M22.617,45.02l-0.368-1.106l5.163-1.721l0.368,1.045L22.617,45.02z
	 M30.424,45.389l-2.15-6.454L60.482,28.3l2.151,6.455L30.424,45.389z M65.523,35.247l-0.678,0.246l-2.949-9.037l0.677-0.246
	l1.476,4.487L65.523,35.247z M67.736,35.922l-1.905-5.777l-1.782-5.41l0,0l-0.123-0.368l2.766-0.922l3.812,11.495L67.736,35.922z"/>
</svg>
