<?xml version="1.0" encoding="utf-8"?>
<!-- Generator: Adobe Illustrator 16.0.0, SVG Export Plug-In . SVG Version: 6.00 Build 0)  -->
<!DOCTYPE svg PUBLIC "-//W3C//DTD SVG 1.1//EN" "http://www.w3.org/Graphics/SVG/1.1/DTD/svg11.dtd">
<svg version="1.1" id="Calque_1" xmlns="http://www.w3.org/2000/svg" xmlns:xlink="http://www.w3.org/1999/xlink" x="0px" y="0px"
	 width="90px" height="90px" viewBox="0 0 90 90" enable-background="new 0 0 90 90" xml:space="preserve">
<circle opacity="0.2" fill="#FFFFFF" enable-background="new    " cx="45" cy="45" r="43.614"/>
<g transform="translate(0,-952.36218)">
	<path fill="#FFFFFF" d="M29.247,1010.163c-1.8,0-3.26,1.498-3.26,3.291c0,1.799,1.474,3.287,3.26,3.287s3.261-1.488,3.261-3.287
		C32.508,1011.661,31.046,1010.163,29.247,1010.163z M29.247,1012.522c0.519,0,0.923,0.426,0.923,0.932
		c0,0.535-0.39,0.928-0.923,0.928c-0.534,0-0.922-0.393-0.922-0.928C28.325,1012.948,28.728,1012.522,29.247,1012.522z"/>
	<path fill="#FFFFFF" d="M47.107,974.016c-0.441,0.008-0.903,0.043-1.405,0.111c-0.555,0.07-1.018,0.596-1.023,1.16l-0.018,4.568
		l-5.223,12.338H36.9c-0.612,0-1.168,0.562-1.168,1.18v21.771c0,0.267,0.092,0.529,0.255,0.736c0,0,0.431,0.529,1.022,1.068
		c0.592,0.541,1.312,1.229,2.502,1.252c4.665,0.084,17.411,0.02,17.421,0.02c1.992,0,3.534-0.416,4.657-1.16
		c1.124-0.746,1.786-1.856,1.881-3.004c0.085-1.018-0.266-1.998-0.913-2.778c0.396-0.177,0.745-0.386,1.061-0.628
		c1.084-0.834,1.615-2.069,1.625-3.225c0.008-0.85-0.221-1.676-0.641-2.393c0.693-0.25,1.284-0.654,1.717-1.18
		c0.738-0.894,1.039-2.043,0.951-3.166c-0.107-1.379-0.883-2.734-2.191-3.595c0.037-0.041,0.074-0.084,0.109-0.129
		c0.731-0.914,1.131-2.049,1.205-3.203c0.074-1.158-0.191-2.375-0.931-3.354c-0.739-0.979-1.985-1.633-3.487-1.639
		c-3.184,0-6.369,0-9.553,0c0.467-1.447,0.99-2.902,1.26-4.127c0.199-1.143,0.459-2.75,0.311-4.42
		c-0.149-1.682-0.778-3.512-2.374-4.77C50.086,974.495,48.495,974.013,47.107,974.016L47.107,974.016z M47.566,976.337
		c1.078,0.076,1.973,0.48,2.629,0.977c0.97,0.768,1.347,1.844,1.461,3.131c0.113,1.289-0.1,2.703-0.292,3.814
		c-0.416,2.049-1.212,3.785-1.698,5.34c-0.23,0.707,0.377,1.549,1.114,1.547h11.176c0.905,0.006,1.349,0.283,1.663,0.699
		c0.314,0.418,0.482,1.055,0.438,1.75c-0.045,0.697-0.316,1.428-0.693,1.898c-0.377,0.471-0.787,0.703-1.37,0.699
		c-1.699,0-3.397,0-5.095,0c-0.605,0.01-1.148,0.568-1.148,1.18c0,0.609,0.543,1.168,1.148,1.178c1.691,0,3.385,0,5.076,0
		c0.008,0,0.012,0,0.02,0c2.154,0.025,2.87,1.195,2.958,2.322c0.043,0.564-0.117,1.105-0.42,1.473
		c-0.304,0.367-0.724,0.611-1.498,0.607c-2.001,0-4.038,0-5.752,0c-0.605,0.012-1.148,0.568-1.148,1.178
		c0,0.611,0.543,1.17,1.148,1.18c1.284,0,2.569,0,3.853,0c0.858-0.016,1.781,1.082,1.771,2.101c-0.006,0.51-0.152,0.944-0.694,1.362
		c-0.539,0.414-1.548,0.806-3.231,0.812c-1.071,0-2.158,0-3.232,0c-0.605,0.012-1.148,0.567-1.148,1.178
		c0,0.611,0.543,1.168,1.148,1.181c1.062,0,2.135,0,3.195,0c1.598,0.071,2.276,1.106,2.209,1.916
		c-0.033,0.405-0.221,0.821-0.84,1.231c-0.621,0.412-1.709,0.772-3.379,0.772c0,0-12.799,0.066-17.367-0.018
		c0.03,0-0.553-0.25-0.985-0.645c-0.197-0.181-0.382-0.354-0.512-0.498v-20.148h2.136c0.452,0.004,0.894-0.283,1.078-0.701
		l5.625-13.297c0.059-0.141,0.09-0.291,0.091-0.443l0.02-3.756C47.206,976.341,47.4,976.343,47.566,976.337L47.566,976.337z"/>
	<path fill="#FFFFFF" d="M26.348,989.698c-2.003,0-3.632,1.676-3.632,3.686v23.66c0,2.01,1.641,3.664,3.632,3.664h5.715
		c2.004,0,3.654-1.652,3.654-3.664v-23.66c0-2.021-1.65-3.686-3.654-3.686H26.348z M26.348,992.056h5.715
		c0.729,0,1.316,0.592,1.316,1.328v23.66c0,0.705-0.587,1.307-1.316,1.307h-5.715c-0.741,0-1.294-0.559-1.294-1.307v-23.66
		C25.053,992.636,25.619,992.056,26.348,992.056z"/>
</g>
</svg>
