<?xml version="1.0" encoding="utf-8"?>
<!-- Generator: Adobe Illustrator 16.0.0, SVG Export Plug-In . SVG Version: 6.00 Build 0)  -->
<!DOCTYPE svg PUBLIC "-//W3C//DTD SVG 1.1//EN" "http://www.w3.org/Graphics/SVG/1.1/DTD/svg11.dtd">
<svg version="1.1" id="Calque_1" xmlns="http://www.w3.org/2000/svg" xmlns:xlink="http://www.w3.org/1999/xlink" x="0px" y="0px"
	 width="90px" height="90px" viewBox="0 0 90 90" enable-background="new 0 0 90 90" xml:space="preserve">
<circle opacity="0.2" fill="#FFFFFF" enable-background="new    " cx="45" cy="45" r="43.615"/>
<path fill="#FFFFFF" d="M43.4,46.633c-0.894-0.892-0.895-2.339-0.002-3.232c0.893-0.894,2.338-0.894,3.231-0.002
	s0.895,2.338,0.002,3.231c-0.001,0.001-0.001,0.001-0.002,0.003C45.736,47.523,44.292,47.523,43.4,46.633z M36.271,41.771
	c2.074,2.073,2.075,5.436,0.002,7.51c-2.072,2.074-5.436,2.076-7.51,0.002c-2.075-2.074-2.076-5.438-0.003-7.511
	c0.001,0,0.001-0.001,0.003-0.002c2.023-2.074,5.346-2.113,7.419-0.089C36.211,41.711,36.241,41.74,36.271,41.771z M35.495,45.525
	c0.002-1.646-1.33-2.981-2.976-2.983c-1.645-0.001-2.98,1.33-2.982,2.976s1.331,2.98,2.977,2.982c0.79,0,1.548-0.312,2.108-0.872
	c0.55-0.56,0.854-1.317,0.844-2.104h0.029V45.525z M48.264,53.762c2.074,2.074,2.074,5.438,0,7.512
	c-2.072,2.074-5.436,2.076-7.51,0.002c-2.075-2.073-2.076-5.437-0.002-7.512c0,0,0.002,0,0.002-0.002
	c2.024-2.072,5.346-2.113,7.419-0.089C48.203,53.702,48.232,53.732,48.264,53.762z M47.486,57.518
	c0.003-1.646-1.328-2.981-2.974-2.983c-1.646-0.003-2.98,1.33-2.984,2.975c-0.002,1.646,1.33,2.981,2.976,2.982
	c0.791,0.001,1.551-0.312,2.107-0.871c0.554-0.55,0.865-1.296,0.869-2.076L47.486,57.518z M49.283,28.711
	c2.074,2.074,2.074,5.437,0.001,7.511c-2.073,2.074-5.437,2.076-7.511,0.002c-2.074-2.073-2.074-5.436-0.001-7.511l0.001-0.002
	c2.083-2.057,5.438-2.044,7.504,0.029L49.283,28.711z M47.632,30.385c-1.161-1.164-3.047-1.166-4.213-0.004
	c-1.164,1.162-1.165,3.049-0.003,4.213c1.162,1.165,3.049,1.167,4.213,0.004c0.002-0.001,0.002-0.002,0.003-0.004
	c1.163-1.16,1.165-3.042,0.007-4.204C47.636,30.388,47.635,30.387,47.632,30.385z M61.291,48.266
	c-2.073,2.074-5.436,2.075-7.51,0.002c-2.075-2.074-2.075-5.438-0.004-7.513c2.074-2.073,5.438-2.076,7.512-0.001
	c0.001,0.001,0.002,0.001,0.002,0.001l0,0C63.361,42.831,63.361,46.189,61.291,48.266z M59.646,42.399
	c-1.162-1.164-3.047-1.165-4.213-0.003c-1.164,1.162-1.166,3.049-0.004,4.211c1.163,1.166,3.051,1.168,4.213,0.005
	c0.002,0,0.004-0.003,0.004-0.005c1.164-1.154,1.17-3.032,0.014-4.195C59.657,42.409,59.652,42.404,59.646,42.399z M69.425,68.261
	c0,0.645-0.522,1.166-1.167,1.166H45.016c-13.491,0.009-24.434-10.92-24.441-24.411c-0.01-13.491,10.92-24.434,24.41-24.442
	c13.49-0.009,24.434,10.92,24.441,24.411c0.006,9.462-5.451,18.076-14.011,22.11h12.826c0.643-0.01,1.174,0.505,1.184,1.148
	C69.425,68.249,69.425,68.254,69.425,68.261z M45.016,67.094c12.192,0,22.076-9.884,22.076-22.077
	c0-12.192-9.884-22.076-22.076-22.076c-12.193,0-22.077,9.884-22.077,22.076C22.951,57.205,32.828,67.081,45.016,67.094z"/>
</svg>
