<?xml version="1.0" encoding="utf-8"?>
<!-- Generator: Adobe Illustrator 16.0.0, SVG Export Plug-In . SVG Version: 6.00 Build 0)  -->
<!DOCTYPE svg PUBLIC "-//W3C//DTD SVG 1.1//EN" "http://www.w3.org/Graphics/SVG/1.1/DTD/svg11.dtd">
<svg version="1.1" id="Calque_1" xmlns="http://www.w3.org/2000/svg" xmlns:xlink="http://www.w3.org/1999/xlink" x="0px" y="0px"
	 width="90px" height="90px" viewBox="0 0 90 90" enable-background="new 0 0 90 90" xml:space="preserve">
<circle opacity="0.2" fill="#FFFFFF" enable-background="new    " cx="45" cy="45" r="43.615"/>
<path fill="#FFFFFF" d="M64.46,43.191c-0.003,0-4.008,0-9.446-0.001c0.062-2.482,0.361-4.93,0.855-7.205
	c0.168-0.695,0.292-1.389,0.504-2.046c0.097-0.331,0.189-0.658,0.284-0.981c0.046-0.161,0.094-0.323,0.139-0.482
	c0.048-0.159,0.109-0.313,0.163-0.468c0.221-0.619,0.436-1.22,0.643-1.802c0.241-0.568,0.476-1.118,0.699-1.646
	c0.209-0.535,0.479-1.017,0.705-1.488c0.237-0.467,0.446-0.918,0.67-1.328c0.469-0.809,0.875-1.517,1.211-2.098
	c0.739-1.125,1.162-1.768,1.162-1.769c0.113-0.261-0.419-0.905-1.216-1.467c-0.799-0.562-1.584-0.819-1.793-0.592
	c0,0-0.458,0.696-1.26,1.912c-0.363,0.632-0.806,1.399-1.312,2.279c-0.245,0.445-0.475,0.936-0.731,1.445
	c-0.248,0.514-0.538,1.04-0.771,1.624c-0.245,0.577-0.5,1.178-0.763,1.8c-0.229,0.636-0.464,1.295-0.706,1.973
	c-0.06,0.169-0.124,0.338-0.179,0.513c-0.051,0.175-0.101,0.351-0.152,0.528c-0.104,0.354-0.206,0.713-0.312,1.076
	c-0.228,0.72-0.369,1.48-0.552,2.244c-0.549,2.52-0.878,5.235-0.94,7.978c-3.91-0.001-8.206-0.001-12.151-0.001
	c-0.061-2.742-0.393-5.457-0.94-7.977c-0.182-0.764-0.324-1.524-0.552-2.245c-0.106-0.363-0.209-0.721-0.312-1.075
	c-0.052-0.178-0.104-0.353-0.153-0.528c-0.054-0.175-0.119-0.343-0.178-0.513c-0.242-0.678-0.477-1.336-0.705-1.973
	c-0.264-0.622-0.519-1.222-0.764-1.799c-0.23-0.585-0.521-1.11-0.77-1.624c-0.258-0.509-0.488-1-0.732-1.446
	c-0.506-0.879-0.948-1.646-1.312-2.279c-0.802-1.215-1.259-1.911-1.26-1.912c-0.209-0.227-0.994,0.031-1.792,0.593
	c-0.798,0.562-1.328,1.205-1.218,1.466c0.001,0.001,0.424,0.644,1.164,1.769c0.336,0.582,0.742,1.288,1.21,2.099
	c0.225,0.41,0.433,0.86,0.67,1.328c0.228,0.471,0.497,0.954,0.706,1.488c0.225,0.528,0.457,1.078,0.698,1.646
	c0.208,0.583,0.422,1.184,0.644,1.802c0.053,0.156,0.114,0.309,0.162,0.468c0.046,0.16,0.092,0.321,0.14,0.482
	c0.093,0.323,0.188,0.65,0.283,0.981c0.212,0.657,0.337,1.351,0.504,2.046c0.494,2.274,0.795,4.721,0.855,7.204
	c-5.715,0-9.991,0-9.993,0c-0.231,0-0.419,0.818-0.419,1.826c0,1.007,0.188,1.826,0.419,1.826c0.003,0,4.235,0,9.908,0
	c-0.168,2.403-0.536,4.771-1.046,6.988c-0.668,2.811-1.54,5.376-2.425,7.516c-0.89,2.139-1.769,3.861-2.425,5.031
	c-0.328,0.584-0.595,1.036-0.781,1.336c-0.187,0.303-0.287,0.458-0.287,0.458c-0.153,0.241,0.409,0.863,1.231,1.449
	c0.821,0.585,1.668,0.801,1.84,0.526c0,0,0.119-0.183,0.325-0.52c0.21-0.337,0.503-0.833,0.861-1.47
	c0.713-1.273,1.655-3.123,2.61-5.417c0.948-2.295,1.884-5.049,2.605-8.08c0.568-2.467,0.975-5.119,1.147-7.819
	c3.995,0,8.353,0,12.312,0c0.174,2.7,0.58,5.353,1.147,7.819c0.722,3.031,1.656,5.783,2.606,8.08
	c0.955,2.294,1.896,4.144,2.608,5.417c0.358,0.636,0.652,1.133,0.861,1.47c0.207,0.337,0.325,0.52,0.325,0.52
	c0.174,0.274,1.02,0.059,1.84-0.526c0.822-0.586,1.385-1.208,1.232-1.449c0,0-0.103-0.155-0.287-0.458
	c-0.188-0.3-0.453-0.753-0.782-1.336c-0.656-1.17-1.534-2.893-2.425-5.031c-0.887-2.14-1.756-4.705-2.426-7.516
	c-0.511-2.217-0.877-4.586-1.045-6.989c5.395,0,9.357,0,9.359,0c0.223-0.05,0.396-0.847,0.396-1.824
	C64.855,44.039,64.684,43.242,64.46,43.191z"/>
</svg>
