<?xml version="1.0" encoding="utf-8"?>
<!-- Generator: Adobe Illustrator 16.0.0, SVG Export Plug-In . SVG Version: 6.00 Build 0)  -->
<!DOCTYPE svg PUBLIC "-//W3C//DTD SVG 1.1//EN" "http://www.w3.org/Graphics/SVG/1.1/DTD/svg11.dtd">
<svg version="1.1" id="Calque_1" xmlns="http://www.w3.org/2000/svg" xmlns:xlink="http://www.w3.org/1999/xlink" x="0px" y="0px"
	 width="90px" height="90px" viewBox="0 0 90 90" enable-background="new 0 0 90 90" xml:space="preserve">
<circle opacity="0.2" fill="#FFFFFF" cx="45" cy="45" r="43.615"/>
<g>
	<path fill="#FFFFFF" stroke="#FFFFFF" stroke-miterlimit="10" d="M67.621,44.843c-0.006-0.101-0.018-0.202-0.027-0.301
		c-0.033-0.313-0.074-0.625-0.119-0.936c-0.006-0.034-0.01-0.068-0.014-0.101c-0.055-0.359-0.119-0.718-0.193-1.074
		c-0.008-0.043-0.018-0.084-0.027-0.127c-0.064-0.308-0.135-0.615-0.213-0.922c-0.018-0.063-0.033-0.127-0.051-0.191
		c-0.08-0.308-0.166-0.615-0.262-0.919c-0.01-0.032-0.018-0.063-0.027-0.094c-0.021-0.072-0.043-0.145-0.066-0.215
		c2.168-1.487,3.486-3.958,3.486-6.615c0-4.423-3.596-8.021-8.02-8.021c-2.002,0-3.936,0.755-5.406,2.095
		c-0.188-0.113-0.383-0.213-0.572-0.321c-0.16-0.091-0.32-0.183-0.484-0.271c-0.219-0.117-0.439-0.229-0.658-0.338
		c-0.199-0.097-0.398-0.19-0.6-0.282c-0.197-0.091-0.396-0.186-0.598-0.271c-0.373-0.158-0.75-0.306-1.135-0.444
		c-0.168-0.061-0.338-0.115-0.506-0.172c-0.279-0.093-0.561-0.182-0.842-0.265c-0.164-0.048-0.326-0.096-0.488-0.139
		c-0.379-0.102-0.76-0.195-1.146-0.277c-0.061-0.014-0.121-0.03-0.18-0.042c-0.447-0.092-0.9-0.167-1.357-0.232
		c-0.131-0.019-0.266-0.035-0.398-0.051c-0.346-0.042-0.691-0.078-1.043-0.106c-0.137-0.011-0.273-0.022-0.41-0.031
		c-0.467-0.029-0.934-0.048-1.408-0.048c-0.471,0-0.934,0.019-1.395,0.047c-0.135,0.008-0.27,0.02-0.402,0.03
		c-0.344,0.027-0.686,0.061-1.023,0.103c-0.135,0.017-0.271,0.032-0.406,0.052c-0.418,0.06-0.834,0.129-1.244,0.21
		c-0.039,0.007-0.08,0.013-0.117,0.021c-0.439,0.09-0.875,0.196-1.305,0.311c-0.15,0.04-0.303,0.086-0.453,0.129
		c-0.283,0.082-0.564,0.168-0.846,0.262c-0.174,0.056-0.344,0.112-0.516,0.174c-0.289,0.103-0.576,0.216-0.859,0.332
		c-0.281,0.114-0.559,0.234-0.836,0.359c-0.211,0.095-0.42,0.189-0.627,0.291c-0.227,0.11-0.449,0.226-0.67,0.343
		c-0.154,0.083-0.307,0.166-0.457,0.25c-0.166,0.093-0.336,0.178-0.5,0.274c-1.463-1.288-3.312-1.99-5.287-1.99
		c-4.424,0-8.02,3.599-8.02,8.021c0,2.577,1.201,4.937,3.246,6.447c-0.043,0.131-0.082,0.263-0.123,0.396
		c-0.004,0.013-0.008,0.026-0.012,0.039c-0.105,0.342-0.205,0.687-0.295,1.034c-0.002,0.016-0.008,0.031-0.012,0.047
		c-0.184,0.719-0.334,1.445-0.447,2.179c-0.006,0.047-0.012,0.095-0.018,0.141c-0.045,0.3-0.084,0.602-0.117,0.903
		c-0.01,0.098-0.018,0.196-0.029,0.294c-0.025,0.266-0.043,0.532-0.059,0.798c-0.008,0.101-0.014,0.201-0.02,0.301
		c-0.016,0.357-0.027,0.717-0.027,1.076c0,12.613,10.262,22.873,22.875,22.873c12.611,0,22.873-10.26,22.873-22.873
		c0-0.357-0.012-0.712-0.027-1.067c-0.006-0.103-0.012-0.204-0.018-0.306C67.666,45.366,67.648,45.105,67.621,44.843z M62.088,27.1
		c3.445,0,6.246,2.803,6.246,6.248c0,1.917-0.887,3.708-2.359,4.883c-1.637-3.933-4.346-7.311-7.758-9.775
		C59.314,27.589,60.676,27.1,62.088,27.1z M21.666,33.348c0-3.445,2.803-6.248,6.246-6.248c1.367,0,2.66,0.44,3.732,1.247
		c-3.43,2.435-6.164,5.786-7.836,9.699C22.455,36.868,21.666,35.182,21.666,33.348z M44.855,68.1
		c-11.637,0-21.102-9.464-21.102-21.098c0-0.342,0.01-0.681,0.025-1.021c0.006-0.098,0.014-0.196,0.02-0.295
		c0.016-0.244,0.033-0.486,0.057-0.728c0.008-0.105,0.021-0.209,0.033-0.313c0.027-0.24,0.057-0.479,0.092-0.716
		c0.014-0.094,0.029-0.188,0.043-0.281c0.041-0.257,0.086-0.512,0.139-0.765c0.012-0.07,0.025-0.139,0.039-0.209
		c0.064-0.298,0.133-0.595,0.207-0.89c0.006-0.022,0.01-0.045,0.016-0.068c1.385-5.351,4.822-9.884,9.42-12.707
		c0.154-0.094,0.311-0.184,0.467-0.274c0.326-0.189,0.656-0.369,0.996-0.542c0.193-0.098,0.389-0.197,0.584-0.289
		c0.188-0.088,0.377-0.174,0.566-0.257c0.256-0.11,0.514-0.215,0.771-0.316c0.166-0.064,0.33-0.128,0.494-0.188
		c0.352-0.125,0.705-0.242,1.062-0.35c0.141-0.042,0.281-0.08,0.422-0.12c0.322-0.089,0.645-0.171,0.971-0.245
		c0.105-0.023,0.209-0.051,0.312-0.073c0.428-0.089,0.859-0.166,1.291-0.229c0.098-0.014,0.197-0.024,0.297-0.038
		c0.352-0.046,0.707-0.084,1.062-0.113c0.123-0.01,0.244-0.021,0.367-0.028c0.447-0.029,0.895-0.048,1.346-0.048
		c0.457,0,0.91,0.02,1.363,0.049c0.125,0.008,0.248,0.019,0.373,0.029c0.367,0.03,0.732,0.07,1.096,0.118
		c0.094,0.013,0.188,0.022,0.279,0.036c0.432,0.063,0.861,0.143,1.287,0.234c0.127,0.027,0.254,0.058,0.381,0.088
		c0.311,0.072,0.623,0.152,0.932,0.239c0.143,0.041,0.289,0.079,0.432,0.123c0.385,0.116,0.766,0.244,1.143,0.383
		c0.168,0.062,0.328,0.129,0.492,0.194c0.234,0.093,0.467,0.189,0.695,0.291c0.193,0.084,0.387,0.169,0.574,0.259
		c0.236,0.112,0.469,0.233,0.701,0.354c0.297,0.155,0.586,0.316,0.875,0.485c0.162,0.094,0.32,0.189,0.479,0.287
		c4.551,2.829,7.953,7.336,9.328,12.653c0.008,0.021,0.012,0.042,0.014,0.063c0.078,0.293,0.145,0.59,0.207,0.889
		c0.018,0.084,0.031,0.168,0.051,0.252c0.047,0.239,0.09,0.478,0.129,0.719c0.016,0.107,0.031,0.213,0.047,0.32
		c0.033,0.224,0.061,0.45,0.088,0.676c0.012,0.113,0.023,0.226,0.035,0.339c0.021,0.233,0.039,0.468,0.053,0.703
		c0.008,0.102,0.016,0.205,0.02,0.307c0.018,0.335,0.027,0.673,0.027,1.011C65.953,58.636,56.488,68.1,44.855,68.1z"/>
	<path fill="#FFFFFF" stroke="#FFFFFF" stroke-miterlimit="10" d="M37.674,44.797c-0.412,0-0.75,0.335-0.75,0.75
		c0,0.413,0.336,0.749,0.75,0.749c0.412,0,0.748-0.336,0.748-0.749C38.422,45.133,38.086,44.797,37.674,44.797z"/>
	<path fill="#FFFFFF" stroke="#FFFFFF" stroke-miterlimit="10" d="M40.756,47.891c1.988-3.464,1.889-7.259-0.227-8.474
		c-2.115-1.216-5.443,0.607-7.434,4.071s-1.889,7.258,0.227,8.473C35.436,53.177,38.764,51.354,40.756,47.891z M35.15,45.547
		c0-1.392,1.133-2.524,2.523-2.524c1.393,0,2.523,1.132,2.523,2.524c0,1.391-1.131,2.522-2.523,2.522
		C36.283,48.069,35.15,46.938,35.15,45.547z"/>
	<path fill="#FFFFFF" stroke="#FFFFFF" stroke-miterlimit="10" d="M52.143,44.797c-0.412,0-0.75,0.335-0.75,0.75
		c0,0.413,0.338,0.749,0.75,0.749s0.748-0.336,0.748-0.749C52.891,45.133,52.555,44.797,52.143,44.797z"/>
	<path fill="#FFFFFF" stroke="#FFFFFF" stroke-miterlimit="10" d="M49.287,39.417c-2.115,1.215-2.217,5.009-0.227,8.474
		c1.99,3.463,5.318,5.287,7.432,4.071c2.117-1.216,2.217-5.009,0.229-8.474C54.73,40.024,51.4,38.201,49.287,39.417z M52.143,48.069
		c-1.393,0-2.523-1.131-2.523-2.522c0-1.392,1.131-2.524,2.523-2.524c1.391,0,2.523,1.132,2.523,2.524
		C54.666,46.938,53.533,48.069,52.143,48.069z"/>
	<path fill="#FFFFFF" stroke="#FFFFFF" stroke-miterlimit="10" d="M46.215,53.362c-0.596,0-1.051,0.025-1.211,0.035
		c-0.164-0.011-0.617-0.035-1.215-0.035c-3.799,0-5.814,0.878-5.988,2.609c-0.191,1.904,1.887,2.44,3.555,2.872
		c1.141,0.295,2.561,0.662,2.824,1.316l0.824,2.058l0.822-2.058c0.262-0.654,1.682-1.021,2.822-1.316
		c1.668-0.431,3.744-0.968,3.555-2.872C52.031,54.24,50.016,53.362,46.215,53.362z M48.203,57.125
		c-1.127,0.291-2.359,0.61-3.199,1.288c-0.842-0.678-2.076-0.998-3.203-1.288c-0.906-0.233-2.273-0.588-2.234-0.978
		c0.041-0.391,1.221-1.011,4.225-1.011c0.668,0,1.143,0.034,1.148,0.034l0.064,0.004l0.062-0.004c0.006,0,0.48-0.034,1.15-0.034
		c3.002,0,4.182,0.621,4.223,1.011C50.477,56.538,49.109,56.892,48.203,57.125z"/>
	<path fill="#FFFFFF" stroke="#FFFFFF" stroke-miterlimit="10" d="M39.195,61.489L39.195,61.489L39.195,61.489
		c0-0.001-0.002-0.001-0.002-0.001l-0.477,0.669l-0.557,0.772c0.17,0.122,2.889,2.028,6.822,2.028c2.01,0,4.338-0.498,6.803-1.989
		l-0.916-1.519C44.617,65.228,39.432,61.656,39.195,61.489z"/>
</g>
</svg>
