<?xml version="1.0" encoding="utf-8"?>
<!-- Generator: Adobe Illustrator 16.0.0, SVG Export Plug-In . SVG Version: 6.00 Build 0)  -->
<!DOCTYPE svg PUBLIC "-//W3C//DTD SVG 1.1//EN" "http://www.w3.org/Graphics/SVG/1.1/DTD/svg11.dtd">
<svg version="1.1" id="Calque_1" xmlns="http://www.w3.org/2000/svg" xmlns:xlink="http://www.w3.org/1999/xlink" x="0px" y="0px"
	 width="90px" height="90px" viewBox="0 0 90 90" enable-background="new 0 0 90 90" xml:space="preserve">
<circle opacity="0.2" fill="#FFFFFF" cx="45.309" cy="45" r="43.615"/>
<g>
	<path fill="#FFFFFF" stroke="#FFFFFF" stroke-miterlimit="10" d="M19.709,59.077h35.275c1,0,1.861-0.466,2.328-1.198
		c0.533,0.732,1.398,1.198,2.33,1.198h10.65c1.596,0,2.859-1.264,2.859-2.861V33.785c0-1.597-1.264-2.862-2.859-2.862H59.711
		c-1,0-1.865,0.466-2.33,1.199c-0.535-0.733-1.396-1.199-2.328-1.199H19.709c-1.598,0-2.861,1.265-2.861,2.862v22.431
		C16.848,57.746,18.111,59.077,19.709,59.077z M17.912,33.785c0-0.998,0.799-1.797,1.797-1.797h35.275c1,0,1.797,0.799,1.797,1.797
		v1.598c0,0.268,0.268,0.533,0.533,0.533c0.268,0,0.533-0.265,0.533-0.533v-1.598c0-0.998,0.799-1.797,1.797-1.797h10.65
		c0.998,0,1.795,0.799,1.795,1.797v22.431c0,0.998-0.797,1.796-1.795,1.796H59.711c-1,0-1.799-0.798-1.799-1.796v-1.598
		c0-0.267-0.266-0.533-0.533-0.533c-0.266,0-0.533,0.266-0.533,0.533v1.598c0,0.998-0.797,1.796-1.795,1.796H19.709
		c-0.998,0-1.797-0.798-1.797-1.796V33.785z"/>
	<path fill="#FFFFFF" stroke="#FFFFFF" stroke-miterlimit="10" d="M57.312,52.355c0.268,0,0.533-0.266,0.533-0.533v-2.729
		c0-0.266-0.266-0.533-0.533-0.533c-0.266,0-0.533,0.266-0.533,0.533v2.729C56.781,52.155,57.049,52.355,57.312,52.355z"/>
	<path fill="#FFFFFF" stroke="#FFFFFF" stroke-miterlimit="10" d="M57.312,46.898c0.268,0,0.533-0.268,0.533-0.534v-2.729
		c0-0.266-0.266-0.533-0.533-0.533c-0.266,0-0.533,0.267-0.533,0.533v2.729C56.781,46.63,57.049,46.898,57.312,46.898z"/>
	<path fill="#FFFFFF" stroke="#FFFFFF" stroke-miterlimit="10" d="M57.312,41.374c0.268,0,0.533-0.267,0.533-0.534V38.11
		c0-0.267-0.266-0.533-0.533-0.533c-0.266,0-0.533,0.266-0.533,0.533v2.729C56.781,41.174,57.049,41.374,57.312,41.374z"/>
	<path fill="#FFFFFF" stroke="#FFFFFF" stroke-miterlimit="10" d="M31.223,53.686c1.799,0,3.131-0.931,3.131-2.13V39.176l8.717-1.73
		v10.648c-0.533-0.332-1.264-0.533-2.062-0.533c-1.797,0-3.129,0.932-3.129,2.13c0,1.197,1.398,2.129,3.129,2.129
		c1.799,0,3.129-0.932,3.129-2.129V36.781v-0.066v-0.066c0,0,0,0,0-0.066c0-0.067,0-0.067-0.066-0.067l-0.066-0.065l-0.066-0.066
		l-0.064-0.065c0,0-0.066,0-0.066-0.067c-0.066,0-0.066,0-0.133,0c0,0,0,0-0.066,0c0,0,0,0-0.066,0h-0.068l-9.781,1.931
		c0,0,0,0-0.066,0s-0.066,0-0.066,0.067l-0.066,0.065l-0.066,0.066l-0.072,0.064c0,0,0,0.066-0.066,0.066c0,0.066,0,0.066,0,0.133
		v0.066v11.314c-0.533-0.332-1.264-0.533-2.064-0.533c-1.795,0-3.127,0.932-3.127,2.13S29.492,53.686,31.223,53.686z"/>
</g>
</svg>
