<?xml version="1.0" encoding="utf-8"?>
<!-- Generator: Adobe Illustrator 16.0.0, SVG Export Plug-In . SVG Version: 6.00 Build 0)  -->
<!DOCTYPE svg PUBLIC "-//W3C//DTD SVG 1.1//EN" "http://www.w3.org/Graphics/SVG/1.1/DTD/svg11.dtd">
<svg version="1.1" id="Calque_1" xmlns="http://www.w3.org/2000/svg" xmlns:xlink="http://www.w3.org/1999/xlink" x="0px" y="0px"
	 width="90px" height="90px" viewBox="0 0 90 90" enable-background="new 0 0 90 90" xml:space="preserve">
<circle opacity="0.2" fill="#FFFFFF" cx="45" cy="45" r="43.615"/>
<g>
	<path fill="#FFFFFF" stroke="#FFFFFF" stroke-miterlimit="10" d="M44.437,30.061c-2.081,0-3.825-1.688-3.825-3.827
		c0-2.138,1.688-3.826,3.825-3.826c2.139,0,3.828,1.688,3.828,3.826C48.265,28.373,46.575,30.061,44.437,30.061z M44.437,23.309
		c-1.631,0-2.981,1.351-2.981,2.982c0,1.632,1.351,2.983,2.981,2.983c1.633,0,2.983-1.351,2.983-2.983
		C47.42,24.603,46.069,23.309,44.437,23.309z"/>
	<path fill="#FFFFFF" stroke="#FFFFFF" stroke-miterlimit="10" d="M31.046,48.854c-2.082,0-3.826-1.688-3.826-3.826
		c0-2.082,1.688-3.826,3.826-3.826c2.138,0,3.826,1.688,3.826,3.826C34.872,47.11,33.128,48.854,31.046,48.854z M31.046,42.045
		c-1.633,0-2.982,1.351-2.982,2.983c0,1.631,1.35,2.982,2.982,2.982c1.632,0,2.982-1.351,2.982-2.982
		C33.972,43.396,32.678,42.045,31.046,42.045z"/>
	<path fill="#FFFFFF" stroke="#FFFFFF" stroke-miterlimit="10" d="M57.941,48.854c-2.081,0-3.825-1.688-3.825-3.826
		c0-2.082,1.688-3.826,3.825-3.826c2.139,0,3.826,1.688,3.826,3.826C61.768,47.11,60.08,48.854,57.941,48.854z M57.941,42.045
		c-1.631,0-2.981,1.351-2.981,2.983c0,1.631,1.351,2.982,2.981,2.982c1.632,0,2.983-1.351,2.983-2.982
		C60.925,43.396,59.573,42.045,57.941,42.045z"/>
	<path fill="#FFFFFF" stroke="#FFFFFF" stroke-miterlimit="10" d="M24.574,67.592c-2.081,0-3.826-1.688-3.826-3.826
		s1.688-3.827,3.826-3.827c2.139,0,3.826,1.688,3.826,3.827S26.713,67.592,24.574,67.592z M24.574,60.84
		c-1.631,0-2.981,1.35-2.981,2.982c0,1.631,1.351,2.982,2.981,2.982c1.633,0,2.983-1.351,2.983-2.982
		C27.558,62.19,26.207,60.84,24.574,60.84z"/>
	<path fill="#FFFFFF" stroke="#FFFFFF" stroke-miterlimit="10" d="M38.305,67.592c-2.082,0-3.826-1.688-3.826-3.826
		s1.688-3.827,3.826-3.827c2.138,0,3.826,1.688,3.826,3.827S40.387,67.592,38.305,67.592z M38.305,60.84
		c-1.633,0-2.982,1.35-2.982,2.982c0,1.631,1.35,2.982,2.982,2.982c1.631,0,2.982-1.351,2.982-2.982
		C41.287,62.19,39.936,60.84,38.305,60.84z"/>
	<path fill="#FFFFFF" stroke="#FFFFFF" stroke-miterlimit="10" d="M25.025,60.39h-0.844v-5.233c0-0.562,0.448-1.013,1.012-1.013
		h5.289c0.057,0,0.112-0.056,0.112-0.112v-5.515h0.845v5.515c0,0.562-0.45,1.012-1.013,1.012h-5.29
		c-0.056,0-0.111,0.056-0.111,0.112V60.39z"/>
	<path fill="#FFFFFF" stroke="#FFFFFF" stroke-miterlimit="10" d="M38.417,60.165h-0.844v-5.008c0-0.056-0.056-0.112-0.113-0.112
		h-7.202V54.2h7.202c0.563,0,1.014,0.45,1.014,1.012v4.953H38.417z"/>
	<path fill="#FFFFFF" stroke="#FFFFFF" stroke-miterlimit="10" d="M51.752,67.592c-2.081,0-3.825-1.688-3.825-3.826
		s1.688-3.827,3.825-3.827c2.139,0,3.827,1.688,3.827,3.827S53.835,67.592,51.752,67.592z M51.752,60.84
		c-1.632,0-2.981,1.35-2.981,2.982c0,1.631,1.35,2.982,2.981,2.982c1.633,0,2.983-1.351,2.983-2.982
		C54.735,62.19,53.385,60.84,51.752,60.84z"/>
	<path fill="#FFFFFF" stroke="#FFFFFF" stroke-miterlimit="10" d="M65.426,67.592c-2.082,0-3.826-1.688-3.826-3.826
		s1.688-3.827,3.826-3.827c2.138,0,3.826,1.688,3.826,3.827S67.563,67.592,65.426,67.592z M65.426,60.84
		c-1.632,0-2.982,1.35-2.982,2.982c0,1.631,1.351,2.982,2.982,2.982c1.631,0,2.981-1.351,2.981-2.982
		C68.407,62.19,67.057,60.84,65.426,60.84z"/>
	<path fill="#FFFFFF" stroke="#FFFFFF" stroke-miterlimit="10" d="M52.146,60.39h-0.844v-5.233c0-0.562,0.45-1.013,1.013-1.013
		h5.121c0.056,0,0.111-0.056,0.111-0.112v-5.515h0.846v5.515c0,0.562-0.451,1.012-1.014,1.012h-5.12
		c-0.056,0-0.113,0.056-0.113,0.112V60.39z"/>
	<path fill="#FFFFFF" stroke="#FFFFFF" stroke-miterlimit="10" d="M65.594,60.165h-0.843v-5.008c0-0.056-0.058-0.112-0.113-0.112
		h-7.934V54.2h7.934c0.563,0,1.012,0.45,1.012,1.012v4.953H65.594z"/>
	<path fill="#FFFFFF" stroke="#FFFFFF" stroke-miterlimit="10" d="M31.496,41.54h-0.845V35.8c0-0.562,0.45-1.013,1.013-1.013h12.211
		c0.056,0,0.113-0.056,0.113-0.113v-4.952h0.844v4.952c0,0.563-0.451,1.013-1.014,1.013H31.607c-0.056,0-0.111,0.057-0.111,0.113
		V41.54z"/>
	<path fill="#FFFFFF" stroke="#FFFFFF" stroke-miterlimit="10" d="M58.279,41.314h-0.844v-5.57c0-0.057-0.057-0.113-0.112-0.113
		H43.312v-0.844h14.011c0.562,0,1.013,0.45,1.013,1.013v5.514H58.279z"/>
</g>
</svg>
