<?xml version="1.0" encoding="utf-8"?>
<!-- Generator: Adobe Illustrator 16.0.0, SVG Export Plug-In . SVG Version: 6.00 Build 0)  -->
<!DOCTYPE svg PUBLIC "-//W3C//DTD SVG 1.1//EN" "http://www.w3.org/Graphics/SVG/1.1/DTD/svg11.dtd">
<svg version="1.1" id="Calque_1" xmlns="http://www.w3.org/2000/svg" xmlns:xlink="http://www.w3.org/1999/xlink" x="0px" y="0px"
	 width="90px" height="90px" viewBox="0 0 90 90" enable-background="new 0 0 90 90" xml:space="preserve">
<g>
	<circle opacity="0.2" fill="#FFFFFF" cx="45" cy="45" r="43.614"/>
	<path fill="#FFFFFF" stroke="#FFFFFF" stroke-miterlimit="10" d="M32.081,25.394h-5.83c-0.648,0-1.187,0.701-1.187,1.674v39.028
		c0,0.972,0.486,1.675,1.187,1.675h5.83c0.648,0,1.188-0.703,1.188-1.675V27.067C33.268,26.095,32.729,25.394,32.081,25.394z
		 M26.143,34.895h5.992v23.429h-5.992V34.895z M32.189,33.815h-6.046V31.44h5.992v2.375H32.189z M26.143,59.401h5.992v2.376h-5.992
		V59.401z M26.305,26.473h5.668c0.054,0.055,0.162,0.271,0.162,0.595v3.293h-5.992v-3.293C26.143,26.743,26.25,26.527,26.305,26.473
		z M32.027,66.689h-5.723c-0.054-0.054-0.162-0.269-0.162-0.594v-3.237h5.992v3.237C32.189,66.421,32.081,66.636,32.027,66.689z"/>
	<path fill="#FFFFFF" stroke="#FFFFFF" stroke-miterlimit="10" d="M41.528,25.394h-5.83c-0.648,0-1.188,0.701-1.188,1.674v39.028
		c0,0.972,0.486,1.675,1.188,1.675h5.83c0.648,0,1.188-0.703,1.188-1.675V27.067C42.716,26.095,42.23,25.394,41.528,25.394z
		 M35.644,34.895h5.992v23.429h-5.992V34.895z M41.636,33.815h-5.992V31.44h5.992V33.815z M35.644,59.401h5.992v2.376h-5.992V59.401
		z M35.806,26.473h5.668c0.054,0.055,0.162,0.271,0.162,0.595v3.293h-5.992v-3.293C35.644,26.743,35.752,26.527,35.806,26.473z
		 M41.474,66.689h-5.668c-0.054-0.054-0.162-0.269-0.162-0.594v-3.237h5.992v3.237C41.636,66.421,41.528,66.636,41.474,66.689z"/>
	<path fill="#FFFFFF" stroke="#FFFFFF" stroke-miterlimit="10" d="M64.039,25.394h-5.831c-0.486,0-0.864,0.378-1.025,0.864
		c-0.162-0.163-0.324-0.217-0.541-0.271l-5.722-0.809c-0.378-0.055-0.756,0.108-1.025,0.486c-0.217,0.271-0.324,0.648-0.432,1.026
		L44.011,65.34c-0.108,0.973,0.271,1.728,0.918,1.836l5.776,0.81c0.054,0,0.108,0,0.108,0c0.594,0,1.134-0.646,1.296-1.511
		l4.966-34.711v34.332c0,0.972,0.486,1.675,1.188,1.675h5.831c0.648,0,1.188-0.703,1.188-1.675V27.067
		C65.226,26.095,64.687,25.394,64.039,25.394z M58.101,34.895h5.992v23.429h-5.992V34.895z M64.146,33.815h-6.046V31.44h5.992v2.375
		H64.146z M58.101,59.401h5.992v2.376h-5.992V59.401z M58.262,26.473h5.668c0.054,0.055,0.162,0.271,0.162,0.595v3.293h-5.992
		v-3.293C58.101,26.743,58.208,26.527,58.262,26.473z M46.008,58.864l5.938,0.863l-0.324,2.321l-5.938-0.865L46.008,58.864z
		 M52.108,58.593l-5.938-0.863l3.292-23.159l5.938,0.864L52.108,58.593z M49.625,33.492l0.324-2.321l5.938,0.862l-0.324,2.321
		L49.625,33.492z M50.597,26.852c0.054-0.324,0.162-0.539,0.215-0.594l5.615,0.81c0.054,0.054,0.108,0.271,0.054,0.648l-0.486,3.291
		l-5.938-0.863L50.597,26.852z M50.759,66.907l-5.614-0.812c-0.054-0.053-0.108-0.27-0.054-0.647l0.485-3.238l5.938,0.863
		l-0.485,3.239C50.975,66.636,50.867,66.853,50.759,66.907z M63.984,66.689h-5.722c-0.054-0.054-0.162-0.269-0.162-0.594v-3.237
		h5.992v3.237C64.146,66.421,64.039,66.636,63.984,66.689z"/>
</g>
</svg>
