<?xml version="1.0" encoding="utf-8"?>
<!-- Generator: Adobe Illustrator 16.0.0, SVG Export Plug-In . SVG Version: 6.00 Build 0)  -->
<!DOCTYPE svg PUBLIC "-//W3C//DTD SVG 1.1//EN" "http://www.w3.org/Graphics/SVG/1.1/DTD/svg11.dtd">
<svg version="1.1" id="Calque_1" xmlns="http://www.w3.org/2000/svg" xmlns:xlink="http://www.w3.org/1999/xlink" x="0px" y="0px"
	 width="90px" height="90px" viewBox="0 0 90 90" enable-background="new 0 0 90 90" xml:space="preserve">
<circle opacity="0.2" fill="#FFFFFF" cx="45" cy="45" r="43.615"/>
<g>
	<path fill="#FFFFFF" stroke="#FFFFFF" stroke-miterlimit="10" d="M21.228,50.261l1.736,4.732l-1.736,4.732
		c-0.102,0.279-0.035,0.59,0.171,0.801l3.377,3.453c0.215,0.221,0.539,0.291,0.828,0.18l4.639-1.801l4.645,1.801
		c0.178,0.07,0.375,0.07,0.554,0l4.641-1.801l4.642,1.801c0.18,0.07,0.375,0.07,0.556,0l4.642-1.801l4.641,1.801
		c0.181,0.07,0.375,0.07,0.556,0l4.642-1.801l4.641,1.801c0.287,0.112,0.612,0.041,0.827-0.18l3.376-3.453
		c0.208-0.212,0.274-0.523,0.172-0.801l-1.734-4.732l1.734-4.732c0.062-0.169,0.062-0.359,0-0.528L67.037,45l1.736-4.732
		c0.062-0.17,0.062-0.359,0-0.528l-1.736-4.732l1.736-4.732c0.101-0.279,0.036-0.59-0.172-0.801l-3.376-3.453
		c-0.217-0.221-0.54-0.291-0.829-0.18l-4.639,1.801l-4.644-1.801c-0.179-0.07-0.375-0.07-0.554,0l-4.641,1.801l-4.642-1.801
		c-0.181-0.07-0.376-0.07-0.556,0l-4.642,1.801l-4.641-1.801c-0.181-0.07-0.378-0.07-0.556,0l-4.643,1.801l-4.641-1.801
		c-0.287-0.112-0.611-0.041-0.826,0.18l-3.377,3.453c-0.207,0.211-0.274,0.522-0.173,0.801l1.736,4.732l-1.736,4.732
		c-0.061,0.169-0.061,0.358,0,0.528L22.964,45l-1.736,4.732C21.165,49.902,21.165,50.092,21.228,50.261z M24.503,45.265
		c0.061-0.169,0.061-0.359,0-0.529l-1.734-4.732l1.734-4.732c0.061-0.17,0.061-0.359,0-0.529l-1.666-4.542l2.684-2.744l4.444,1.726
		c0.18,0.07,0.375,0.07,0.556,0l4.642-1.802l4.641,1.802c0.182,0.07,0.376,0.07,0.557,0L45,27.381l4.641,1.801
		c0.182,0.07,0.376,0.07,0.557,0l4.642-1.801l4.642,1.801c0.18,0.07,0.375,0.07,0.554,0l4.448-1.726l2.681,2.744l-1.665,4.542
		c-0.062,0.17-0.062,0.358,0,0.529l1.736,4.732l-1.736,4.731c-0.062,0.17-0.062,0.359,0,0.529l1.736,4.732l-1.736,4.732
		c-0.062,0.17-0.062,0.359,0,0.529l1.665,4.542l-2.681,2.744l-4.446-1.726c-0.181-0.07-0.376-0.07-0.556,0l-4.642,1.801
		l-4.642-1.801c-0.181-0.07-0.375-0.07-0.557,0L45,62.619l-4.641-1.801c-0.181-0.07-0.375-0.07-0.557,0l-4.641,1.801l-4.642-1.801
		c-0.181-0.07-0.376-0.07-0.556,0l-4.446,1.726L22.837,59.8l1.666-4.542c0.061-0.169,0.061-0.359,0-0.529l-1.734-4.732
		L24.503,45.265z"/>
	<path fill="#FFFFFF" stroke="#FFFFFF" stroke-miterlimit="10" d="M29.852,48.479l10.774-10.776l18.215,18.214
		c0.3,0.3,0.787,0.3,1.087,0c0.302-0.3,0.302-0.787,0-1.086l0,0L41.171,36.073c-0.301-0.3-0.787-0.3-1.086,0l-11.321,11.32
		c-0.301,0.3-0.301,0.787,0,1.086S29.55,48.779,29.852,48.479z"/>
	<path fill="#FFFFFF" stroke="#FFFFFF" stroke-miterlimit="10" d="M56.993,42.797c2.468,0,4.468-2.001,4.47-4.47
		c-0.002-2.468-2.002-4.468-4.47-4.468s-4.47,2-4.47,4.468C52.523,40.796,54.525,42.796,56.993,42.797z M54.92,36.254
		c0.532-0.532,1.262-0.858,2.073-0.859c0.812,0.001,1.539,0.327,2.073,0.859c0.531,0.533,0.857,1.262,0.859,2.073
		c-0.002,0.812-0.328,1.541-0.859,2.075c-0.534,0.531-1.262,0.858-2.073,0.858c-0.812,0-1.541-0.328-2.073-0.858
		c-0.533-0.534-0.859-1.262-0.859-2.075C54.061,37.516,54.387,36.788,54.92,36.254z"/>
</g>
</svg>
