<?xml version="1.0" encoding="utf-8"?>
<!-- Generator: Adobe Illustrator 16.0.0, SVG Export Plug-In . SVG Version: 6.00 Build 0)  -->
<!DOCTYPE svg PUBLIC "-//W3C//DTD SVG 1.1//EN" "http://www.w3.org/Graphics/SVG/1.1/DTD/svg11.dtd">
<svg version="1.1" id="Calque_1" xmlns="http://www.w3.org/2000/svg" xmlns:xlink="http://www.w3.org/1999/xlink" x="0px" y="0px"
	 width="90px" height="88.614px" viewBox="0 0 90 88.614" enable-background="new 0 0 90 88.614" xml:space="preserve">
<circle opacity="0.2" fill="#FFFFFF" cx="44.999" cy="44.308" r="43.614"/>
<g>
	<path fill="#FFFFFF" stroke="#FFFFFF" stroke-miterlimit="10" d="M71.747,31.15c0.017-0.16,0-0.668-0.487-1.869
		c-1.834,0.437-5.907,2.119-8,3.035c-0.037,0.017-0.074,0.029-0.112,0.039c-0.737,0.767-1.411,1.475-1.952,2.049
		c0.727-0.087,1.753-0.162,2.875-0.227c0.015-0.007,0.03-0.014,0.045-0.02C67.374,32.921,71.021,31.498,71.747,31.15 M70.337,36.58
		c0.126-0.488,0.169-0.883,0.177-1.174c-1.994,0.058-7.65,0.239-9.5,0.522c-2.902,0.442-6.609,1.472-8.656,2.116
		c0.019,0.018,0.033,0.031,0.038,0.036c0.241,0.239,0.29,0.61,0.12,0.903c-0.087,0.147-1.408,2.385-4.07,4.869
		c0.238-0.092,0.479-0.186,0.722-0.278c3.602-1.389,7.685-2.963,10.265-3.685c2.922-0.817,6.736-1.23,8.787-1.453
		c0.51-0.055,1.033-0.111,1.221-0.143C69.587,38.188,70.053,37.685,70.337,36.58 M41.572,46.835
		c5.256-2.595,8.346-6.647,9.319-8.079c-0.438-0.336-1.175-0.83-2.134-1.213c-1.039-0.414-1.965-0.608-2.447-0.69
		c-0.816,0.858-3.314,3.424-5.499,5.003c-2.432,1.756-10.446,4.578-14.298,5.934c-0.356,0.126-0.674,0.238-0.942,0.332
		c-1.35,0.48-2.761,0.863-4.005,1.203c-0.365,0.098-0.757,0.205-1.131,0.312c0.396,0.509,0.758,1.312,0.979,2.574
		c0.134,0.762,0.147,1.424,0.053,1.975c0.914-0.224,2.1-0.549,3.373-0.949l0.319-0.101C27.637,52.357,35.182,49.992,41.572,46.835
		 M18.261,51.578c-0.063,0.778,0.327,2.174,0.905,2.738c0.222,0.217,0.361,0.201,0.407,0.197l0,0
		c0.048-0.006,0.101-0.021,0.156-0.045c0.259-0.116,0.411-0.895,0.218-2.001c-0.275-1.573-0.797-2.175-1.059-2.185
		c-0.025-0.002-0.047-0.001-0.068,0.002C18.504,50.318,18.311,50.959,18.261,51.578 M53.449,34.472
		c-1.155,0.786-2.264,1.54-3.112,2.167c0.2,0.106,0.387,0.214,0.562,0.32c1.234-0.43,4.65-1.473,7.912-2.143
		c0.768-0.945,5.623-5.943,7.42-7.787c-0.111-0.069-0.235-0.143-0.373-0.215c-0.764-0.4-1.274-0.443-1.708-0.145
		c-0.169,0.116-0.351,0.236-0.556,0.371c-0.834,0.551-2.093,1.382-4.406,3.295C57.606,31.643,55.398,33.146,53.449,34.472
		 M72.387,28.139c0.702,1.561,1.368,3.45,0.28,4.201c-0.265,0.184-1.979,0.876-3.919,1.633c1.339-0.047,2.321-0.07,2.435-0.074
		c0.343-0.008,0.646,0.219,0.735,0.55c0.027,0.097,0.248,0.996-0.14,2.503c-0.354,1.376-1.064,2.451-1.811,2.74
		c-0.178,0.07-0.403,0.098-1.587,0.227c-2.008,0.217-5.744,0.621-8.547,1.406c-2.513,0.703-6.561,2.263-10.131,3.641
		c-1.979,0.762-3.85,1.483-5.203,1.957c-0.025,0.01-0.051,0.017-0.075,0.023c-0.687,0.429-1.415,0.842-2.193,1.225
		c-6.495,3.207-14.122,5.6-16.628,6.385l-0.318,0.101c-1.071,0.337-4.014,1.198-5.299,1.333c-0.16,0.018-0.292,0.021-0.393,0.014
		c-0.396,0.012-0.934-0.102-1.467-0.621c-0.953-0.93-1.441-2.76-1.35-3.923c0.08-0.989,0.382-1.739,0.862-2.188
		c0.382-0.509,1.304-0.775,3.536-1.383c1.22-0.331,2.602-0.708,3.898-1.169c0.27-0.096,0.588-0.207,0.945-0.332
		c3.49-1.229,11.663-4.107,13.92-5.738c2.48-1.791,5.518-5.061,5.548-5.094c0.159-0.17,0.388-0.258,0.621-0.234
		c0.053,0.005,1.194,0.125,2.663,0.639c0.916-0.729,2.284-1.659,3.841-2.719c1.922-1.307,4.1-2.789,5.626-4.051
		c2.377-1.966,3.676-2.823,4.535-3.391c0.197-0.129,0.371-0.244,0.531-0.354c0.902-0.623,1.995-0.605,3.246,0.052
		c0.798,0.42,1.268,0.848,1.318,0.896c0.146,0.136,0.231,0.326,0.236,0.525c0.004,0.201-0.071,0.395-0.211,0.537
		c-0.654,0.67-1.386,1.422-2.135,2.194c2.127-0.86,4.705-1.823,5.867-1.946c0.003,0,0.005,0,0.007,0
		C71.951,27.671,72.257,27.846,72.387,28.139"/>
</g>
</svg>
