<?xml version="1.0" encoding="utf-8"?>
<!-- Generator: Adobe Illustrator 16.0.0, SVG Export Plug-In . SVG Version: 6.00 Build 0)  -->
<!DOCTYPE svg PUBLIC "-//W3C//DTD SVG 1.1//EN" "http://www.w3.org/Graphics/SVG/1.1/DTD/svg11.dtd">
<svg version="1.1" id="Calque_1" xmlns="http://www.w3.org/2000/svg" xmlns:xlink="http://www.w3.org/1999/xlink" x="0px" y="0px"
	 width="90px" height="90px" viewBox="0 0 90 90" enable-background="new 0 0 90 90" xml:space="preserve">
<g>
	<circle opacity="0.2" fill="#FFFFFF" enable-background="new    " cx="45" cy="45" r="43.614"/>
</g>
<path fill="#FFFFFF" d="M63.261,40.218c-0.181-0.944-0.693-1.855-1.572-2.35c-0.45-0.251-0.953-0.377-1.501-0.377
	c-1.045,0-2.119,0.49-2.767,1.214c-1.771-4.45-6.113-7.605-11.187-7.605h-2.469c-5.147,0-9.541,3.253-11.261,7.807
	c-10.169,1.732-16.231,5.271-16.231,9.492c0,6.574,14.605,10.502,28.726,10.502c14.121,0,28.728-3.928,28.728-10.502
	C73.727,45.067,69.896,42.151,63.261,40.218z M33.571,46.064c2.859,1.346,8.088,1.752,11.379,1.752
	c3.471,0,8.604-0.426,11.411-1.774c-0.055,0.177-0.09,0.364-0.081,0.56c0.01,0.209,0.069,0.402,0.148,0.584v0.307
	c-0.663,0.807-4.734,2.088-11.479,2.088c-6.679,0-10.494-1.225-11.379-2.006V46.064z M61.982,44.914
	c0.478,0,1.424,0.637,1.433,1.404c0.009,0.762-0.936,1.432-1.403,1.439c-0.496-0.01-2.514-0.812-3.593-1.252
	C59.479,45.961,61.476,44.953,61.982,44.914z M60.188,39.345c0.227,0,0.426,0.046,0.592,0.141c0.731,0.409,0.841,1.632,0.588,2.082
	c-0.261,0.442-2.037,1.846-3.086,2.661v-0.215c0.068-1.373,0.198-3.494,0.418-3.941C58.891,39.728,59.55,39.345,60.188,39.345z
	 M43.766,32.954h2.469c5.62,0,10.194,4.573,10.194,10.195v0.618c-0.663,0.814-4.734,2.107-11.479,2.107
	c-6.679,0-10.494-1.237-11.379-2.023v-0.702C33.571,37.526,38.145,32.954,43.766,32.954z M44.999,57.047
	c-15.837,0-26.873-4.557-26.873-8.648c0-2.506,4.292-5.734,13.811-7.504c-0.14,0.731-0.219,1.482-0.219,2.254v5.25h0.094
	c1.5,2.447,8.916,3.105,13.139,3.105c4.429,0,11.572-0.68,13.119-3.086h0.136c1.895,0.76,3.146,1.191,3.808,1.191h0.021
	c1.484-0.018,3.257-1.502,3.233-3.314c-0.019-1.588-1.431-2.899-2.797-3.177c0.235-0.245,0.408-0.459,0.512-0.643
	c0.063-0.112,0.105-0.239,0.151-0.363c5.983,1.819,8.739,4.298,8.739,6.287C71.873,52.49,60.836,57.047,44.999,57.047z"/>
</svg>
