<?xml version="1.0" encoding="utf-8"?>
<!-- Generator: Adobe Illustrator 16.0.0, SVG Export Plug-In . SVG Version: 6.00 Build 0)  -->
<!DOCTYPE svg PUBLIC "-//W3C//DTD SVG 1.1//EN" "http://www.w3.org/Graphics/SVG/1.1/DTD/svg11.dtd">
<svg version="1.1" id="Calque_1" xmlns="http://www.w3.org/2000/svg" xmlns:xlink="http://www.w3.org/1999/xlink" x="0px" y="0px"
	 width="90px" height="90px" viewBox="0 0 90 90" enable-background="new 0 0 90 90" xml:space="preserve">
<circle opacity="0.2" fill="#FFFFFF" cx="45.004" cy="45" r="43.614"/>
<path fill="#FFFFFF" stroke="#FFFFFF" stroke-miterlimit="10" d="M36.214,32.253c0.433,0,0.782-0.35,0.782-0.781v-3.58
	c0-0.526,0.428-0.954,0.955-0.954h14.1c0.526,0,0.954,0.427,0.954,0.954v3.58c0,0.432,0.351,0.781,0.782,0.781
	s0.781-0.35,0.781-0.781v-3.58c0-1.388-1.129-2.517-2.518-2.517h-14.1c-1.389,0-2.518,1.129-2.518,2.517v3.58
	C35.434,31.903,35.783,32.253,36.214,32.253z M64.01,32.631H25.991c-2.191,0-3.975,1.907-3.975,4.253v23.488
	c0,2.346,1.783,4.253,3.975,4.253H64.01c2.192,0,3.974-1.907,3.974-4.253V36.884C67.983,34.538,66.202,32.631,64.01,32.631z
	 M66.422,60.372c0,1.483-1.083,2.69-2.412,2.69H25.991c-1.33,0-2.411-1.207-2.411-2.69V36.884c0-1.483,1.081-2.69,2.411-2.69H64.01
	c1.329,0,2.412,1.207,2.412,2.69V60.372z M49.38,47.847h-3.615v-3.613c0-0.432-0.35-0.782-0.78-0.782
	c-0.432,0-0.781,0.351-0.781,0.782v3.613h-3.614c-0.432,0-0.781,0.35-0.781,0.782c0,0.432,0.35,0.781,0.781,0.781h3.614v3.613
	c0,0.433,0.35,0.782,0.781,0.782c0.431,0,0.78-0.35,0.78-0.782V49.41h3.615c0.431,0,0.781-0.35,0.781-0.781
	C50.161,48.196,49.811,47.847,49.38,47.847z M45,38.917c-5.267,0-9.552,4.285-9.552,9.553c0,5.267,4.285,9.553,9.552,9.553
	s9.553-4.285,9.553-9.553S50.267,38.917,45,38.917z M45,56.459c-4.404,0-7.989-3.585-7.989-7.99S40.596,40.48,45,40.48
	c4.406,0,7.99,3.584,7.99,7.989S49.406,56.459,45,56.459z"/>
</svg>
