<?xml version="1.0" encoding="utf-8"?>
<!-- Generator: Adobe Illustrator 16.0.0, SVG Export Plug-In . SVG Version: 6.00 Build 0)  -->
<!DOCTYPE svg PUBLIC "-//W3C//DTD SVG 1.1//EN" "http://www.w3.org/Graphics/SVG/1.1/DTD/svg11.dtd">
<svg version="1.1" id="Calque_1" xmlns="http://www.w3.org/2000/svg" xmlns:xlink="http://www.w3.org/1999/xlink" x="0px" y="0px"
	 width="90px" height="90px" viewBox="0 0 90 90" enable-background="new 0 0 90 90" xml:space="preserve">
<circle opacity="0.2" fill="#FFFFFF" cx="45" cy="45" r="43.614"/>
<g>
	<path fill="#FFFFFF" stroke="#FFFFFF" stroke-miterlimit="10" d="M31.663,34.032c-0.067-0.067-2.251-1.363-4.229-0.749
		c-1.979,0.682-2.866,3.069-2.934,3.138c-0.137,0.273,0,0.613,0.273,0.819c0.068,0.067,1.5,0.886,3.07,0.886
		c0.408,0,0.818-0.067,1.159-0.204c1.979-0.682,2.865-3.069,2.933-3.139C32.072,34.511,31.935,34.169,31.663,34.032z M28.594,36.694
		c-0.888,0.271-1.911-0.069-2.525-0.342c0.34-0.614,0.955-1.5,1.841-1.774c0.886-0.271,1.911,0.069,2.525,0.342
		C30.094,35.467,29.48,36.353,28.594,36.694z"/>
	<path fill="#FFFFFF" stroke="#FFFFFF" stroke-miterlimit="10" d="M43.329,30.076c-0.07-0.068-2.25-1.364-4.229-0.75
		c-1.979,0.682-2.866,3.069-2.934,3.139c-0.137,0.272,0,0.613,0.272,0.818c0.068,0.067,1.5,0.886,3.071,0.886
		c0.409,0,0.818-0.067,1.16-0.204c1.976-0.682,2.864-3.069,2.932-3.139C43.738,30.554,43.601,30.213,43.329,30.076z M40.258,32.737
		c-0.886,0.273-1.909-0.068-2.523-0.342c0.342-0.613,0.957-1.5,1.842-1.772c0.887-0.273,1.911,0.067,2.522,0.34
		C41.76,31.51,41.146,32.396,40.258,32.737z"/>
	<path fill="#FFFFFF" stroke="#FFFFFF" stroke-miterlimit="10" d="M72.664,43.789c-0.205,0-17.26-0.819-24.9-7.437
		c0.273-8.595-2.389-15.486-2.389-15.554c-0.068-0.205-0.205-0.342-0.409-0.409c-0.205-0.069-0.409,0-0.614,0.067
		c-13.985,9.278-26.81,9.142-26.947,9.142c-0.205,0-0.409,0.068-0.546,0.273c-0.136,0.136-0.205,0.409-0.136,0.613
		c0.068,0.205,5.321,19.577,23.196,24.281c0.136,0.069,0.272,0.069,0.409,0.069c0.477,0,0.954-0.204,1.296-0.614
		c0.273-0.341,0.545-0.749,0.818-1.091c0.683,6.071,2.865,11.392,6.549,15.896c0.34,0.41,0.75,0.613,1.229,0.613
		c0.135,0,0.272,0,0.477-0.067c17.329-5.05,22.514-24.623,22.582-24.827c0.066-0.205,0-0.409-0.138-0.547
		C73.073,43.926,72.868,43.789,72.664,43.789z M40.6,53.336c-0.067,0.069-0.136,0.137-0.272,0.069
		c-15.009-3.957-20.74-18.758-21.967-22.442c3.206-0.137,13.984-1.091,26.059-8.868C45.58,25.778,49.878,41.333,40.6,53.336z
		 M50.354,68.139c-0.135,0-0.204,0-0.272-0.068c-3.889-4.707-6.003-10.37-6.413-16.918c2.524-4.294,3.684-8.864,3.958-13.162
		c7.367,5.663,20.602,6.892,24.149,7.094C70.617,48.767,64.955,63.909,50.354,68.139z"/>
	<path fill="#FFFFFF" stroke="#FFFFFF" stroke-miterlimit="10" d="M47.217,44.471c-0.273,0.204-0.342,0.546-0.273,0.818
		c0.068,0.069,1.023,2.455,3.001,3.068c0.342,0.138,0.751,0.138,1.093,0.138c1.637,0,3.07-0.956,3.137-1.023
		c0.273-0.204,0.342-0.546,0.273-0.818c-0.068-0.069-1.023-2.455-3.001-3.069C49.4,42.97,47.286,44.403,47.217,44.471z
		 M51.038,44.949c0.886,0.272,1.5,1.159,1.841,1.704c-0.614,0.272-1.637,0.682-2.525,0.407c-0.886-0.271-1.5-1.157-1.841-1.702
		C49.127,45.017,50.151,44.675,51.038,44.949z"/>
	<path fill="#FFFFFF" stroke="#FFFFFF" stroke-miterlimit="10" d="M61.749,51.971c0.341,0.138,0.751,0.138,1.09,0.138
		c1.639,0,3.071-0.956,3.14-1.023c0.272-0.204,0.34-0.545,0.272-0.817c-0.068-0.068-1.024-2.456-3.002-3.069
		c-1.976-0.614-4.092,0.75-4.229,0.819c-0.272,0.203-0.341,0.545-0.272,0.817C58.747,49.041,59.702,51.357,61.749,51.971z
		 M62.771,48.562c0.888,0.272,1.501,1.159,1.842,1.705c-0.615,0.272-1.638,0.681-2.524,0.408c-0.887-0.272-1.501-1.158-1.843-1.704
		C60.862,48.63,61.886,48.29,62.771,48.562z"/>
	<path fill="#FFFFFF" stroke="#FFFFFF" stroke-miterlimit="10" d="M36.302,40.037c-1.364,0.477-2.524,1.432-3.14,2.729
		c-0.614,1.296-0.749,2.797-0.271,4.16c0.066,0.272,0.341,0.479,0.613,0.479c0.068,0,0.137,0,0.206-0.069
		c0.341-0.137,0.545-0.477,0.409-0.886c-0.341-1.024-0.273-2.113,0.204-3.139c0.479-0.954,1.297-1.704,2.39-2.045
		c2.113-0.752,4.501,0.408,5.185,2.591c0.135,0.342,0.477,0.547,0.886,0.409c0.342-0.137,0.546-0.477,0.409-0.886
		C42.306,40.582,39.167,39.082,36.302,40.037z"/>
	<path fill="#FFFFFF" stroke="#FFFFFF" stroke-miterlimit="10" d="M52.675,60.021c-2.183-0.681-3.343-3.001-2.729-5.117
		c0.137-0.339-0.067-0.75-0.477-0.886c-0.342-0.137-0.751,0.067-0.887,0.478c-0.887,2.865,0.75,5.935,3.615,6.821
		c0.545,0.137,1.091,0.273,1.638,0.273c2.319,0,4.503-1.502,5.184-3.82c0.137-0.341-0.067-0.75-0.478-0.888
		c-0.341-0.136-0.75,0.07-0.887,0.479C57.109,59.475,54.858,60.702,52.675,60.021z"/>
</g>
</svg>
