<?xml version="1.0" encoding="utf-8"?>
<!-- Generator: Adobe Illustrator 16.0.0, SVG Export Plug-In . SVG Version: 6.00 Build 0)  -->
<!DOCTYPE svg PUBLIC "-//W3C//DTD SVG 1.1//EN" "http://www.w3.org/Graphics/SVG/1.1/DTD/svg11.dtd">
<svg version="1.1" id="Calque_1" xmlns="http://www.w3.org/2000/svg" xmlns:xlink="http://www.w3.org/1999/xlink" x="0px" y="0px"
	 width="90px" height="90px" viewBox="0 0 90 90" enable-background="new 0 0 90 90" xml:space="preserve">
<circle opacity="0.2" fill="#FFFFFF" cx="45" cy="45" r="43.614"/>
<path fill="#FFFFFF" stroke="#FFFFFF" stroke-miterlimit="10" d="M44.343,31.742c3.189,0,5.783-2.595,5.783-5.784
	c0-3.188-2.594-5.783-5.783-5.783s-5.785,2.596-5.785,5.783C38.559,29.148,41.154,31.742,44.343,31.742z M44.343,22.185
	c2.081,0,3.773,1.692,3.773,3.773c0,2.082-1.692,3.775-3.773,3.775c-2.081,0-3.774-1.693-3.774-3.775
	C40.569,23.877,42.262,22.185,44.343,22.185z"/>
<path fill="#FFFFFF" stroke="#FFFFFF" stroke-miterlimit="10" d="M70.761,68.438H57.026v-3.797h6.476
	c0.555,0,1.005-0.45,1.005-1.006c0-0.554-0.45-1.004-1.005-1.004h-6.476V42.195c0-0.556-0.451-1.006-1.005-1.006h-2.933
	l-1.964-7.475c-0.116-0.442-0.515-0.749-0.972-0.749h-11.62c-0.457,0-0.857,0.31-0.973,0.752l-1.942,7.472h-2.266
	c-0.555,0-1.005,0.45-1.005,1.006v20.436h-5.918c-0.556,0-1.005,0.45-1.005,1.004c0,0.556,0.449,1.006,1.005,1.006h5.918v3.797
	H20.734c-0.556,0-1.006,0.45-1.006,1.005c0,0.556,0.45,1.005,1.006,1.005h50.027c0.555,0,1.005-0.449,1.005-1.005
	C71.766,68.888,71.316,68.438,70.761,68.438z M39.31,34.975h10.068l1.632,6.215h-5.661v-3.237c0-0.556-0.45-1.005-1.005-1.005
	c-0.555,0-1.005,0.449-1.005,1.005v3.237h-5.644L39.31,34.975z M38.712,68.438V47.802h12.108v20.636H38.712z M52.831,68.438V46.796
	c0-0.555-0.45-1.005-1.006-1.005H37.707c-0.555,0-1.005,0.45-1.005,1.005v21.642h-2.345V43.199h20.659v25.238H52.831z"/>
</svg>
