<?xml version="1.0" encoding="utf-8"?>
<!-- Generator: Adobe Illustrator 16.0.0, SVG Export Plug-In . SVG Version: 6.00 Build 0)  -->
<!DOCTYPE svg PUBLIC "-//W3C//DTD SVG 1.1//EN" "http://www.w3.org/Graphics/SVG/1.1/DTD/svg11.dtd">
<svg version="1.1" id="Calque_1" xmlns="http://www.w3.org/2000/svg" xmlns:xlink="http://www.w3.org/1999/xlink" x="0px" y="0px"
	 width="90px" height="90px" viewBox="0 0 90 90" enable-background="new 0 0 90 90" xml:space="preserve">
<circle opacity="0.2" fill="#FFFFFF" cx="44.962" cy="45.02" r="43.614"/>
<g>
	<g>
		<path fill="#FFFFFF" stroke="#FFFFFF" stroke-miterlimit="10" d="M33.977,36.09l6.52-9.778c0.179-0.269,0.194-0.61,0.044-0.895
			c-0.153-0.284-0.449-0.463-0.771-0.463H25.825c-0.319,0-0.616,0.179-0.768,0.461c-0.153,0.284-0.137,0.628,0.043,0.896l6.52,9.779
			c-2.11,1.684-8.409,7.286-8.409,14.141c0,8.055,8.708,14.386,9.078,14.65c0.154,0.111,0.331,0.165,0.51,0.165
			c0.177,0,0.354-0.054,0.508-0.165c0.371-0.265,9.079-6.596,9.079-14.65C42.386,43.376,36.086,37.773,33.977,36.09z M38.142,26.699
			l-5.343,8.014l-5.345-8.014H38.142z M32.799,63.074c-1.812-1.446-7.846-6.721-7.846-12.844c0-6.113,6.033-11.396,7.846-12.846
			c1.811,1.449,7.844,6.732,7.844,12.846C40.643,56.342,34.609,61.625,32.799,63.074z"/>
		<path fill="#FFFFFF" stroke="#FFFFFF" stroke-miterlimit="10" d="M66.532,54.844l-3.486-3.485
			c-0.079-0.082-0.175-0.145-0.284-0.188c-0.211-0.092-0.451-0.092-0.664,0c-0.109,0.044-0.205,0.106-0.284,0.188l-3.486,3.485
			c-0.341,0.34-0.341,0.892,0,1.231c0.34,0.341,0.891,0.341,1.231,0l1.999-1.998v3.125c0,3.363-2.736,6.101-6.1,6.101
			c-3.365,0-6.101-2.737-6.101-6.101V25.827c0-0.481-0.391-0.873-0.872-0.873s-0.873,0.392-0.873,0.873v31.375
			c0,4.324,3.521,7.844,7.846,7.844s7.844-3.52,7.844-7.844v-3.125l1.998,1.998c0.169,0.171,0.392,0.256,0.615,0.256
			c0.225,0,0.447-0.085,0.617-0.256C66.874,55.735,66.874,55.184,66.532,54.844z"/>
		<circle fill="#FFFFFF" stroke="#FFFFFF" stroke-miterlimit="10" cx="31.055" cy="53.715" r="1.743"/>
	</g>
</g>
</svg>
