<?xml version="1.0" encoding="utf-8"?>
<!-- Generator: Adobe Illustrator 16.0.0, SVG Export Plug-In . SVG Version: 6.00 Build 0)  -->
<!DOCTYPE svg PUBLIC "-//W3C//DTD SVG 1.1//EN" "http://www.w3.org/Graphics/SVG/1.1/DTD/svg11.dtd">
<svg version="1.1" id="Calque_1" xmlns="http://www.w3.org/2000/svg" xmlns:xlink="http://www.w3.org/1999/xlink" x="0px" y="0px"
	 width="90px" height="90px" viewBox="0 0 90 90" enable-background="new 0 0 90 90" xml:space="preserve">
<g>
	<circle opacity="0.2" fill="#FFFFFF" enable-background="new    " cx="45" cy="45" r="43.614"/>
	<path fill="#FFFFFF" stroke="#FFFFFF" stroke-miterlimit="10" d="M58.63,39.5c-2.249-4.258-5.603-7.574-8.392-9.833
		c-0.641-0.517-1.233-0.962-1.795-1.366v-5.357c0-0.114-0.043-0.219-0.123-0.3c-0.078-0.078-0.187-0.124-0.299-0.124h-2.601v-4.41
		c0-0.234-0.189-0.423-0.422-0.423s-0.423,0.188-0.423,0.423v4.411h-2.599c-0.111,0-0.221,0.045-0.299,0.124
		c-0.079,0.08-0.124,0.189-0.124,0.3v5.244c-1.373,0.951-3.035,2.234-4.707,3.856c-3.972,3.857-7.981,9.625-7.982,17.186
		c0.001,7.562,4.011,13.328,7.982,17.186c3.978,3.859,7.938,5.84,7.963,5.854c0.117,0.061,0.26,0.061,0.377,0
		c0.023-0.014,3.984-1.992,7.961-5.854c3.973-3.855,7.979-9.623,7.98-17.186C61.136,45.602,60.129,42.339,58.63,39.5z
		 M60.251,48.112c-0.844,0.657-2.062,1.356-3.454,1.98c-1.484,0.668-3.167,1.252-4.799,1.638c-4.062,0.957-9.491,2.697-12.148,3.903
		c-2.14,0.979-4.746,3.041-6.604,5.104c-1.662-2.57-2.949-5.58-3.378-9.023c1.124-0.802,2.388-1.556,3.581-2.099
		c2.752-1.253,8.593-3.134,12.894-4.143c2.216-0.521,4.614-1.492,6.726-2.639c1.884-1.028,3.518-2.187,4.597-3.333
		C59.064,42.042,60.062,44.925,60.251,48.112z M42.401,23.368H47.6v4.592h-5.198L42.401,23.368L42.401,23.368z M37.44,32.652
		c1.672-1.625,3.346-2.908,4.709-3.846h5.557c1.21,0.862,2.683,2.016,4.187,3.432c-0.164,0.156-0.326,0.309-0.498,0.471
		c-0.75,0.714-2.246,1.598-4.002,2.386c-1.759,0.793-3.787,1.505-5.638,1.94c-3.139,0.74-7.143,1.98-9.842,3.025
		C33.38,37.109,35.401,34.631,37.44,32.652z M31.396,41.177c2.574-1.073,7.123-2.512,10.552-3.318
		c1.917-0.451,3.983-1.179,5.792-1.992c1.808-0.817,3.345-1.706,4.234-2.543c0.183-0.173,0.354-0.333,0.525-0.498
		c0.141,0.138,0.279,0.273,0.42,0.415c1.54,1.57,3.05,3.413,4.305,5.5c-0.961,1.088-2.627,2.302-4.562,3.354
		c-2.049,1.116-4.396,2.062-6.514,2.558c-4.365,1.029-10.198,2.902-13.051,4.197c-1.115,0.508-2.262,1.183-3.323,1.906
		c-0.038-0.501-0.063-1.008-0.063-1.525C29.712,46.259,30.364,43.574,31.396,41.177z M52.561,65.809
		c-1.938,1.883-3.881,3.312-5.336,4.27c-0.729,0.479-1.334,0.839-1.758,1.078c-0.199,0.113-0.355,0.197-0.466,0.258
		c-0.73-0.391-3.514-1.953-6.505-4.623c1.317-1.217,3.301-2.559,5.112-3.38c2.582-1.174,8.067-2.938,12.102-3.888
		c0.722-0.17,1.444-0.399,2.157-0.678C56.42,61.604,54.497,63.928,52.561,65.809z M58.427,57.702
		c-0.954,0.425-1.942,0.771-2.909,0.997c-4.1,0.965-9.576,2.724-12.259,3.938c-1.934,0.882-3.985,2.271-5.387,3.577
		c-0.266-0.249-0.53-0.504-0.795-0.769c-1.165-1.169-2.315-2.495-3.348-3.981c1.776-2.027,4.441-4.143,6.47-5.061
		c2.559-1.165,7.992-2.913,11.992-3.854c1.691-0.396,3.418-0.999,4.951-1.688c1.207-0.542,2.276-1.138,3.144-1.74
		c0,0.035,0.004,0.069,0.004,0.104C60.289,52.375,59.562,55.199,58.427,57.702z"/>
</g>
</svg>
