<?xml version="1.0" encoding="utf-8"?>
<!-- Generator: Adobe Illustrator 16.0.0, SVG Export Plug-In . SVG Version: 6.00 Build 0)  -->
<!DOCTYPE svg PUBLIC "-//W3C//DTD SVG 1.1//EN" "http://www.w3.org/Graphics/SVG/1.1/DTD/svg11.dtd">
<svg version="1.1" id="Calque_1" xmlns="http://www.w3.org/2000/svg" xmlns:xlink="http://www.w3.org/1999/xlink" x="0px" y="0px"
	 width="90px" height="90px" viewBox="0 0 90 90" enable-background="new 0 0 90 90" xml:space="preserve">
<circle opacity="0.2" fill="#FFFFFF" cx="44.962" cy="45.02" r="43.614"/>
<g>
	<path fill="#FFFFFF" stroke="#FFFFFF" stroke-miterlimit="10" d="M27.478,65.248h35.045c3.562,0,6.426-2.861,6.426-6.425V39.55
		c0-3.564-2.864-6.426-6.426-6.426H33.493l24.998-9.229c0.293-0.117,0.467-0.467,0.352-0.759c-0.118-0.293-0.468-0.468-0.758-0.351
		L30.164,33.124h-2.687c-3.563,0-6.426,2.861-6.426,6.426v19.273C21.052,62.327,23.914,65.248,27.478,65.248z M22.221,39.55
		c0-2.921,2.337-5.258,5.257-5.258h2.745l0,0l0,0h32.3c2.92,0,5.257,2.337,5.257,5.258v19.273c0,2.921-2.337,5.257-5.257,5.257
		H27.478c-2.92,0-5.257-2.336-5.257-5.257V39.55z"/>
	<path fill="#FFFFFF" stroke="#FFFFFF" stroke-miterlimit="10" d="M37.991,60.926c6.483,0,11.74-5.256,11.74-11.74
		c0-6.482-5.257-11.74-11.74-11.74c-6.482,0-11.739,5.258-11.739,11.74C26.252,55.67,31.509,60.926,37.991,60.926z M43.248,58.356
		c-1.403,0.817-2.979,1.284-4.672,1.4V38.614c1.692,0.117,3.269,0.584,4.672,1.401c0,0,0,0,0,0.059V58.356z M37.407,59.699
		c-1.694-0.116-3.271-0.584-4.673-1.401V40.016c0,0,0,0,0-0.059c1.402-0.817,2.979-1.284,4.673-1.401V59.699z M48.562,49.186
		c0,3.446-1.635,6.484-4.147,8.411V40.775C46.928,42.703,48.562,45.74,48.562,49.186z M31.565,40.775v16.763
		c-2.512-1.927-4.146-4.965-4.146-8.411C27.419,45.683,29.054,42.703,31.565,40.775z"/>
	<path fill="#FFFFFF" stroke="#FFFFFF" stroke-miterlimit="10" d="M54.929,43.578h7.009c0.352,0,0.585-0.233,0.585-0.584
		s-0.233-0.583-0.585-0.583h-7.009c-0.352,0-0.584,0.232-0.584,0.583S54.577,43.578,54.929,43.578z"/>
	<path fill="#FFFFFF" stroke="#FFFFFF" stroke-miterlimit="10" d="M58.435,56.312c2.394,0,4.38-1.986,4.38-4.38
		c0-2.395-1.986-4.381-4.38-4.381c-2.396,0-4.382,1.986-4.382,4.381C54.053,54.325,56.039,56.312,58.435,56.312z M58.435,48.719
		c1.751,0,3.213,1.46,3.213,3.213c0,1.752-1.462,3.213-3.213,3.213c-1.754,0-3.213-1.461-3.213-3.213
		C55.222,50.179,56.681,48.719,58.435,48.719z"/>
</g>
</svg>
