<?xml version="1.0" encoding="utf-8"?>
<!-- Generator: Adobe Illustrator 16.0.0, SVG Export Plug-In . SVG Version: 6.00 Build 0)  -->
<!DOCTYPE svg PUBLIC "-//W3C//DTD SVG 1.1//EN" "http://www.w3.org/Graphics/SVG/1.1/DTD/svg11.dtd">
<svg version="1.1" id="Calque_1" xmlns="http://www.w3.org/2000/svg" xmlns:xlink="http://www.w3.org/1999/xlink" x="0px" y="0px"
	 width="90px" height="88.614px" viewBox="0 0 90 88.614" enable-background="new 0 0 90 88.614" xml:space="preserve">
<circle opacity="0.2" fill="#FFFFFF" cx="44.993" cy="44.308" r="43.614"/>
<g>
	<g>
		<path fill="#FFFFFF" stroke="#FFFFFF" stroke-miterlimit="10" d="M50.298,20.406c2.324,4.264,6.2,13.566,3.423,18.41
			c-1.291,2.391-4.263,3.553-8.721,3.553c-4.457,0-7.429-1.162-8.785-3.553c-2.777-4.844,1.163-14.213,3.423-18.41H50.298
			 M51.46,18.469H38.541c0,0-15.245,25.838,6.459,25.838C66.705,44.307,51.46,18.469,51.46,18.469L51.46,18.469z"/>
	</g>
	<g>
		<path fill="#FFFFFF" stroke="#FFFFFF" stroke-miterlimit="10" d="M44.807,66.012l3.358,2.197h-6.588L44.807,66.012 M44.742,63.688
			l-9.432,6.459h19.379L44.742,63.688L44.742,63.688z"/>
	</g>
	<g>
		<path fill="#FFFFFF" stroke="#FFFFFF" stroke-miterlimit="10" d="M45,64.656c-0.516,0-0.969,1.162-0.969,0.645V43.662
			c0-0.518,0.453-0.322,0.969-0.322s0.97-0.195,0.97,0.322v21.381C45.97,65.625,45.516,64.656,45,64.656z"/>
	</g>
</g>
</svg>
