<?xml version="1.0" encoding="utf-8"?>
<!-- Generator: Adobe Illustrator 16.0.0, SVG Export Plug-In . SVG Version: 6.00 Build 0)  -->
<!DOCTYPE svg PUBLIC "-//W3C//DTD SVG 1.1//EN" "http://www.w3.org/Graphics/SVG/1.1/DTD/svg11.dtd">
<svg version="1.1" id="Calque_1" xmlns="http://www.w3.org/2000/svg" xmlns:xlink="http://www.w3.org/1999/xlink" x="0px" y="0px"
	 width="90px" height="90px" viewBox="0 0 90 90" enable-background="new 0 0 90 90" xml:space="preserve">
<circle opacity="0.2" fill="#FFFFFF" cx="44.957" cy="45.02" r="43.615"/>
<g transform="translate(0,-952.36218)">
	<path fill="#FFFFFF" stroke="#FFFFFF" stroke-miterlimit="10" d="M30.672,978.046c-0.39,0-0.599,0.354-0.597,0.597v20.895h-7.761
		c-0.392,0.007-0.592,0.313-0.597,0.598v13.729c0,2.636,2.141,4.776,4.776,4.776h37.014c2.635,0,4.776-2.141,4.776-4.776v-35.222
		c0-0.312-0.285-0.597-0.597-0.597H30.672z M31.269,979.238h35.819v34.626c0,1.994-1.587,3.582-3.582,3.582H29.552
		c1.029-0.876,1.717-2.128,1.717-3.582V979.238z M36.642,984.016c-0.383,0.018-0.583,0.328-0.597,0.597v8.357
		c0,0.312,0.284,0.598,0.597,0.598h11.939c0.313,0,0.597-0.285,0.597-0.598v-8.357c0-0.312-0.284-0.597-0.597-0.597H36.642z
		 M37.239,985.21h10.746v7.163H37.239V985.21z M53.358,985.21c-0.33,0-0.597,0.268-0.597,0.598c0,0.328,0.267,0.596,0.597,0.596
		h8.357c0.33,0,0.597-0.268,0.597-0.596c0-0.33-0.267-0.598-0.597-0.598H53.358z M22.912,1000.731h7.164v13.133
		c0,1.994-1.588,3.582-3.582,3.582s-3.582-1.588-3.582-3.582V1000.731z M53.358,991.179c-0.33,0-0.597,0.268-0.597,0.598
		c0,0.329,0.267,0.597,0.597,0.597h8.357c0.33,0,0.597-0.268,0.597-0.597c0-0.33-0.267-0.598-0.597-0.598H53.358z M36.642,998.343
		c-0.33,0-0.597,0.269-0.597,0.598s0.267,0.597,0.597,0.597h25.073c0.33,0,0.597-0.268,0.597-0.597s-0.267-0.598-0.597-0.598H36.642
		z M36.642,1004.91c-0.33,0-0.597,0.267-0.597,0.597s0.267,0.598,0.597,0.598h25.073c0.33,0,0.597-0.268,0.597-0.598
		s-0.267-0.597-0.597-0.597H36.642z M36.642,1011.476c-0.33,0-0.597,0.268-0.597,0.598c0,0.329,0.267,0.597,0.597,0.597h25.073
		c0.33,0,0.597-0.268,0.597-0.597c0-0.33-0.267-0.598-0.597-0.598H36.642z"/>
</g>
</svg>
