<?xml version="1.0" encoding="utf-8"?>
<!-- Generator: Adobe Illustrator 16.0.0, SVG Export Plug-In . SVG Version: 6.00 Build 0)  -->
<!DOCTYPE svg PUBLIC "-//W3C//DTD SVG 1.1//EN" "http://www.w3.org/Graphics/SVG/1.1/DTD/svg11.dtd">
<svg version="1.1" id="Calque_1" xmlns="http://www.w3.org/2000/svg" xmlns:xlink="http://www.w3.org/1999/xlink" x="0px" y="0px"
	 width="88.573px" height="88.614px" viewBox="0 0 88.573 88.614" enable-background="new 0 0 88.573 88.614" xml:space="preserve">
<circle opacity="0.2" fill="#FFFFFF" cx="44.284" cy="44.308" r="43.614"/>
<g>
	<path fill="#FFFFFF" d="M57.416,38.906H44.781c0.034-6.134,1.637-9.012,2.986-10.343c0.775-0.833,1.839-1.343,2.975-1.429h0.04
		c0.641,0.013,1.168-0.494,1.182-1.134c0.013-0.639-0.496-1.168-1.136-1.181c-1.746,0.051-3.403,0.773-4.629,2.02
		c-2.465,2.367-3.728,6.424-3.757,12.061H31.176c-6.872,0.002-12.442,5.575-12.44,12.445c0.001,6.874,5.573,12.444,12.445,12.441
		c3.282,0,6.433-1.299,8.763-3.611h8.681c4.874,4.845,12.754,4.82,17.598-0.054s4.819-12.754-0.057-17.599
		C63.841,40.212,60.696,38.911,57.416,38.906z M57.416,62.057c-2.161,0.002-4.27-0.653-6.048-1.881
		c-0.719-0.497-1.374-1.081-1.951-1.735H39.179c-0.577,0.654-1.232,1.238-1.95,1.735c-4.877,3.338-11.537,2.089-14.873-2.788
		c-3.339-4.879-2.088-11.538,2.788-14.875c1.776-1.216,3.879-1.868,6.032-1.87h26.24c5.912,0,10.705,4.794,10.705,10.706
		C68.121,57.264,63.328,62.057,57.416,62.057z"/>
	<path fill="#FFFFFF" d="M48.926,42.471h-9.261c-0.799,0-1.447,0.648-1.447,1.447c0,0.8,0.648,1.446,1.447,1.446h9.261
		c0.799,0,1.445-0.646,1.445-1.446C50.371,43.119,49.725,42.471,48.926,42.471z"/>
	<circle fill="#FFFFFF" cx="57.652" cy="47.297" r="2.216"/>
	<circle fill="#FFFFFF" cx="57.652" cy="56.606" r="2.216"/>
	<path fill="#FFFFFF" d="M62.307,49.734c1.224,0,2.215,0.993,2.215,2.217s-0.991,2.218-2.215,2.218
		c-1.227,0-2.218-0.994-2.218-2.218S61.08,49.734,62.307,49.734z"/>
	<circle fill="#FFFFFF" cx="53" cy="51.952" r="2.217"/>
	<path fill="#FFFFFF" d="M35.146,50.793h-3.728v-3.472c0-0.639-0.519-1.157-1.157-1.157c-0.64,0-1.157,0.519-1.157,1.157v3.472
		h-3.729c-0.639,0-1.156,0.519-1.156,1.158s0.518,1.158,1.156,1.158h3.729v3.474c0,0.64,0.518,1.158,1.157,1.158
		c0.639,0,1.157-0.519,1.157-1.158v-3.474h3.728c0.639,0,1.157-0.519,1.157-1.158S35.784,50.793,35.146,50.793z"/>
</g>
</svg>
