<?xml version="1.0" encoding="utf-8"?>
<!-- Generator: Adobe Illustrator 16.0.0, SVG Export Plug-In . SVG Version: 6.00 Build 0)  -->
<!DOCTYPE svg PUBLIC "-//W3C//DTD SVG 1.1//EN" "http://www.w3.org/Graphics/SVG/1.1/DTD/svg11.dtd">
<svg version="1.1" id="Calque_1" xmlns="http://www.w3.org/2000/svg" xmlns:xlink="http://www.w3.org/1999/xlink" x="0px" y="0px"
	 width="90px" height="90px" viewBox="0 0 90 90" enable-background="new 0 0 90 90" xml:space="preserve">
<circle opacity="0.2" fill="#FFFFFF" cx="45" cy="45" r="43.614"/>
<g>
	<path fill="#FFFFFF" stroke="#FFFFFF" stroke-miterlimit="10" d="M67.861,31.889c-1.906-3.22-7.163-3.941-13.867-2.365
		c-1.971-6.506-5.257-10.646-9.002-10.646c-3.747,0-7.033,4.14-9.003,10.646c-6.704-1.513-11.961-0.789-13.867,2.365
		c-0.789,1.38-0.92,2.958-0.46,4.864c0.657,2.496,2.563,5.389,5.258,8.213c-2.76,2.827-4.601,5.718-5.258,8.216
		c-0.526,1.907-0.329,3.482,0.46,4.862c1.249,2.169,4.009,3.222,7.689,3.222c1.84,0,3.943-0.264,6.178-0.789
		c1.971,6.506,5.257,10.646,9.003,10.646c3.745,0,7.031-4.14,9.002-10.646c2.235,0.525,4.337,0.789,6.178,0.789
		c3.68,0,6.44-1.053,7.689-3.222c0.789-1.38,0.92-2.955,0.46-4.862c-0.657-2.498-2.563-5.389-5.258-8.216
		c2.761-2.824,4.601-5.717,5.258-8.213C68.847,34.847,68.715,33.203,67.861,31.889z M44.992,21.112c2.825,0,5.191,3.744,6.768,8.937
		c-2.168,0.658-4.469,1.513-6.768,2.498c-2.366-1.053-4.601-1.905-6.77-2.498C39.799,24.791,42.165,21.112,44.992,21.112z
		 M53.863,44.966c0,1.644-0.066,3.287-0.197,4.931c-1.314,0.92-2.76,1.774-4.206,2.629c-1.446,0.787-2.892,1.576-4.468,2.3
		c-1.512-0.658-3.023-1.513-4.469-2.3c-1.512-0.854-2.826-1.709-4.206-2.629c-0.197-1.644-0.197-3.287-0.197-4.931
		c0-1.641,0.066-3.284,0.197-4.928c1.314-0.92,2.76-1.774,4.206-2.629c1.446-0.789,2.892-1.578,4.469-2.3
		c1.511,0.656,3.022,1.511,4.468,2.3c1.512,0.854,2.826,1.709,4.206,2.629C53.797,41.682,53.863,43.325,53.863,44.966z
		 M56.098,41.747c1.379,1.051,2.628,2.104,3.746,3.219c-1.117,1.118-2.366,2.169-3.746,3.222c0.065-1.053,0.065-2.104,0.065-3.222
		C56.098,43.851,56.098,42.8,56.098,41.747z M53.271,52.853c-0.196,1.644-0.525,3.286-0.919,4.731
		c-1.511-0.46-3.023-0.985-4.601-1.576c0.92-0.46,1.84-0.986,2.826-1.512C51.497,53.971,52.417,53.445,53.271,52.853z
		 M42.165,56.008c-1.511,0.656-3.088,1.116-4.6,1.576c-0.329-1.511-0.657-3.153-0.92-4.731c0.92,0.593,1.774,1.118,2.76,1.644
		C40.391,55.089,41.311,55.548,42.165,56.008z M33.885,48.188c-1.38-1.053-2.629-2.104-3.746-3.222
		c1.117-1.115,2.366-2.166,3.746-3.219c-0.066,1.051-0.066,2.104-0.066,3.219C33.885,46.084,33.885,47.135,33.885,48.188z
		 M36.711,37.08c0.197-1.642,0.525-3.284,0.919-4.731c1.512,0.46,3.023,0.987,4.601,1.578c-0.92,0.459-1.84,0.984-2.826,1.512
		C38.485,35.964,37.565,36.489,36.711,37.08z M50.512,35.438c-0.92-0.527-1.84-1.053-2.826-1.512c1.512-0.658,3.089-1.118,4.6-1.578
		c0.329,1.513,0.657,3.155,0.92,4.731C52.417,36.489,51.497,35.964,50.512,35.438z M24.027,33.007
		c0.854-1.513,2.826-2.104,5.455-2.104c1.708,0,3.68,0.264,5.849,0.789c-0.526,2.169-0.92,4.533-1.183,7.097
		c-2.104,1.513-4.009,3.023-5.652,4.602c-2.366-2.563-4.074-5.062-4.666-7.165C23.501,34.847,23.567,33.861,24.027,33.007z
		 M24.027,56.928c-0.46-0.789-0.526-1.839-0.197-3.153c0.592-2.169,2.234-4.667,4.666-7.165c1.643,1.511,3.548,3.091,5.652,4.602
		c0.197,2.496,0.657,4.928,1.183,7.097C29.942,59.557,25.473,59.358,24.027,56.928z M44.992,68.822c-2.827,0-5.192-3.746-6.77-8.937
		c2.169-0.658,4.469-1.513,6.77-2.498c2.365,1.051,4.6,1.905,6.768,2.498C50.183,65.142,47.817,68.822,44.992,68.822z
		 M65.955,56.928c-1.446,2.431-5.849,2.563-11.303,1.314c0.525-2.169,0.92-4.535,1.183-7.099c2.103-1.511,4.009-3.023,5.652-4.6
		c2.365,2.563,4.074,5.062,4.666,7.163C66.481,55.089,66.415,56.073,65.955,56.928z M66.086,36.16
		c-0.591,2.169-2.234,4.667-4.666,7.165c-1.643-1.513-3.549-3.089-5.652-4.602c-0.197-2.498-0.657-4.928-1.183-7.097
		c2.168-0.527,4.14-0.789,5.849-0.789c2.628,0,4.6,0.656,5.454,2.104C66.415,33.861,66.481,34.847,66.086,36.16z"/>
	<path fill="#FFFFFF" stroke="#FFFFFF" stroke-miterlimit="10" d="M44.992,40.696c-2.498,0-4.601,1.971-4.601,4.27
		c0,2.3,2.037,4.272,4.601,4.272c2.562,0,4.6-1.973,4.6-4.272C49.591,42.667,47.488,40.696,44.992,40.696z M44.992,46.938
		c-1.249,0-2.301-0.92-2.301-1.973c0-1.05,1.052-1.97,2.301-1.97c1.248,0,2.299,0.92,2.299,1.97
		C47.291,46.019,46.24,46.938,44.992,46.938z"/>
</g>
</svg>
