<?xml version="1.0" encoding="utf-8"?>
<!-- Generator: Adobe Illustrator 16.0.0, SVG Export Plug-In . SVG Version: 6.00 Build 0)  -->
<!DOCTYPE svg PUBLIC "-//W3C//DTD SVG 1.1//EN" "http://www.w3.org/Graphics/SVG/1.1/DTD/svg11.dtd">
<svg version="1.1" id="Calque_1" xmlns="http://www.w3.org/2000/svg" xmlns:xlink="http://www.w3.org/1999/xlink" x="0px" y="0px"
	 width="90px" height="90px" viewBox="0 0 90 90" enable-background="new 0 0 90 90" xml:space="preserve">
<circle opacity="0.2" fill="#FFFFFF" cx="45" cy="45" r="43.614"/>
<g transform="translate(0,-952.36218)">
	<path fill="#FFFFFF" stroke="#FFFFFF" stroke-width="0.5" stroke-miterlimit="10" d="M55.484,974.472
		c-1.121,0-2.04,0.918-2.04,2.039c0,0.38,0.118,0.729,0.304,1.035l-9.211,10.184h-0.607l-10.101-7.219
		c0.148-0.284,0.239-0.601,0.239-0.941c0-1.12-0.92-2.039-2.042-2.039c-1.12,0-2.04,0.919-2.04,2.039c0,1.122,0.92,2.04,2.04,2.04
		c0.408,0,0.78-0.125,1.1-0.335l9.035,6.455H24.38c-1.122,0-2.041,0.918-2.041,2.038v25.499c0,1.121,0.918,2.038,2.041,2.038h39.772
		c1.121,0,2.04-0.917,2.04-2.038v-25.499c0-1.12-0.918-2.038-2.04-2.038H45.924l8.557-9.451c0.297,0.173,0.639,0.272,1.004,0.272
		c1.12,0,2.041-0.92,2.041-2.04C57.525,975.39,56.604,974.472,55.484,974.472z M55.484,975.49c0.57,0,1.02,0.451,1.02,1.021
		c0,0.568-0.45,1.02-1.02,1.02c-0.569,0-1.021-0.451-1.021-1.02C54.463,975.941,54.915,975.49,55.484,975.49z M32.028,978.551
		c0.57,0,1.02,0.449,1.02,1.019c0,0.568-0.45,1.021-1.02,1.021c-0.569,0-1.019-0.452-1.019-1.021
		C31.009,979,31.458,978.551,32.028,978.551z M24.38,988.748h39.772c0.574,0,1.02,0.447,1.02,1.02v25.499
		c0,0.572-0.446,1.019-1.02,1.019H24.38c-0.575,0-1.02-0.446-1.02-1.019v-25.499C23.36,989.195,23.806,988.748,24.38,988.748z
		 M27.36,992.318c-0.25,0.04-0.434,0.256-0.431,0.511v19.377c0,0.282,0.229,0.51,0.51,0.51h24.986c0.281,0,0.51-0.228,0.51-0.51
		v-19.377c0-0.283-0.229-0.511-0.51-0.511H27.439C27.413,992.314,27.385,992.314,27.36,992.318z M59.054,992.318
		c-1.403,0-2.55,1.146-2.55,2.549c0,1.403,1.147,2.549,2.55,2.549c1.401,0,2.549-1.146,2.549-2.549
		C61.603,993.465,60.455,992.318,59.054,992.318z M27.949,993.337h23.965v18.359H27.949V993.337z M59.054,993.337
		c0.852,0,1.529,0.679,1.529,1.53s-0.678,1.53-1.529,1.53c-0.851,0-1.529-0.679-1.529-1.53S58.204,993.337,59.054,993.337z
		 M56.504,999.967c-0.281,0-0.51,0.228-0.51,0.51c0,0.281,0.229,0.511,0.51,0.511h5.099c0.283,0,0.511-0.229,0.511-0.511
		c0-0.282-0.229-0.51-0.511-0.51H56.504z M56.504,1003.025c-0.281,0-0.51,0.229-0.51,0.511c0,0.282,0.229,0.51,0.51,0.51h5.099
		c0.283,0,0.511-0.228,0.511-0.51c0-0.281-0.229-0.511-0.511-0.511H56.504z M56.504,1006.088c-0.281,0-0.51,0.229-0.51,0.509
		c0,0.281,0.229,0.51,0.51,0.51h5.099c0.283,0,0.511-0.229,0.511-0.51c0-0.28-0.229-0.509-0.511-0.509H56.504z"/>
</g>
</svg>
