<?xml version="1.0" encoding="utf-8"?>
<!-- Generator: Adobe Illustrator 16.0.0, SVG Export Plug-In . SVG Version: 6.00 Build 0)  -->
<!DOCTYPE svg PUBLIC "-//W3C//DTD SVG 1.1//EN" "http://www.w3.org/Graphics/SVG/1.1/DTD/svg11.dtd">
<svg version="1.1" id="Calque_1" xmlns="http://www.w3.org/2000/svg" xmlns:xlink="http://www.w3.org/1999/xlink" x="0px" y="0px"
	 width="91.667px" height="90.667px" viewBox="0 0 91.667 90.667" enable-background="new 0 0 91.667 90.667" xml:space="preserve">
<circle opacity="0.2" fill="#FFFFFF" stroke="#FFFFFF" stroke-miterlimit="10" enable-background="new    " cx="46.016" cy="45.528" r="43.615"/>
<path fill="#FFFFFF" d="M39.271,64.603l4.187,7.629c0,0.001,0.001,0.001,0.001,0.003l1.67,3.041c0.142,0.26,0.411,0.418,0.705,0.418
	s0.564-0.158,0.705-0.418l1.671-3.041l0,0l4.188-7.632c0.082-0.149,0.116-0.321,0.092-0.49c-0.007-0.05-0.021-0.106-0.034-0.161
	c0.001-0.014,0.008-0.025,0.008-0.036V21.62c0-3.665-2.981-6.646-6.646-6.646s-6.646,2.981-6.646,6.646v42.296
	c0,0.04,0.019,0.077,0.024,0.117c-0.005,0.027-0.015,0.058-0.017,0.08C39.156,64.282,39.189,64.454,39.271,64.603z M45.817,28.849
	c0.551,0,1.064,0.038,1.544,0.1V62.36c-0.401-0.156-0.898-0.259-1.527-0.259c-0.611,0-1.098,0.097-1.493,0.245V28.94
	C44.8,28.884,45.29,28.849,45.817,28.849z M48.972,29.265c0.871,0.237,1.511,0.523,1.88,0.712v32.276
	c-0.274-0.088-0.579-0.148-0.94-0.148c-0.362,0-0.665,0.061-0.941,0.148V29.265H48.972z M50.852,28.204
	c-1.077-0.446-2.807-0.966-5.035-0.966c-2.229,0-3.959,0.521-5.035,0.966v-1.08c0.724-0.373,2.501-1.125,5.035-1.125
	c2.514,0,4.306,0.756,5.035,1.128V28.204z M40.782,29.975c0.377-0.193,1.041-0.49,1.948-0.73v33.021
	c-0.282-0.094-0.598-0.16-0.975-0.16c-0.376,0-0.691,0.066-0.973,0.16L40.782,29.975L40.782,29.975z M47.027,71.042h-2.386
	l-3.793-6.913c0.107-0.194,0.352-0.413,0.907-0.413c0.783,0,0.948,0.43,0.982,0.618c0.002,0.012,0.01,0.021,0.012,0.032
	c0.012,0.055,0.035,0.106,0.058,0.156c0.018,0.045,0.032,0.091,0.059,0.131c0.03,0.048,0.073,0.086,0.114,0.124
	c0.031,0.032,0.059,0.064,0.094,0.091c0.046,0.032,0.099,0.052,0.15,0.074c0.046,0.019,0.089,0.038,0.137,0.051
	c0.016,0.004,0.026,0.014,0.043,0.016c0.044,0.008,0.084-0.002,0.126-0.002c0.036,0,0.07,0.012,0.107,0.008
	c0.014-0.002,0.023-0.01,0.036-0.012c0.063-0.013,0.119-0.034,0.179-0.061c0.038-0.018,0.078-0.03,0.113-0.053
	c0.047-0.029,0.085-0.071,0.125-0.109c0.034-0.035,0.069-0.066,0.098-0.104c0.028-0.042,0.046-0.087,0.067-0.135
	c0.023-0.05,0.047-0.099,0.059-0.153c0.004-0.014,0.013-0.027,0.016-0.041c0.001-0.007,0.188-0.635,1.504-0.635
	c1.302,0,1.492,0.596,1.505,0.634c0.002,0.015,0.012,0.028,0.015,0.042c0.009,0.039,0.024,0.073,0.041,0.111
	c0.021,0.062,0.047,0.118,0.083,0.17c0.015,0.019,0.03,0.037,0.047,0.055c0.052,0.062,0.111,0.116,0.181,0.16
	c0.009,0.006,0.017,0.011,0.027,0.017c0.085,0.048,0.175,0.08,0.273,0.097c0.002,0,0.005,0.002,0.007,0.004
	c0.001,0,0.002-0.002,0.004,0c0.038,0.006,0.077,0.021,0.116,0.021c0.043,0,0.088-0.004,0.132-0.014
	c0.239-0.038,0.428-0.183,0.547-0.375c0.007-0.007,0.008-0.021,0.014-0.03c0.041-0.073,0.077-0.151,0.094-0.237
	c0.003-0.01,0.01-0.02,0.013-0.03c0.034-0.185,0.195-0.618,0.981-0.618c0.562,0,0.806,0.219,0.91,0.409L47.027,71.042z
	 M45.817,16.583c2.775,0,5.035,2.26,5.035,5.036v3.734c-1.077-0.446-2.807-0.967-5.035-0.967c-2.229,0-3.959,0.521-5.035,0.967
	V21.62C40.782,18.842,43.042,16.583,45.817,16.583z"/>
</svg>
