<?xml version="1.0" encoding="utf-8"?>
<!-- Generator: Adobe Illustrator 16.0.0, SVG Export Plug-In . SVG Version: 6.00 Build 0)  -->
<!DOCTYPE svg PUBLIC "-//W3C//DTD SVG 1.1//EN" "http://www.w3.org/Graphics/SVG/1.1/DTD/svg11.dtd">
<svg version="1.1" id="Calque_1" xmlns="http://www.w3.org/2000/svg" xmlns:xlink="http://www.w3.org/1999/xlink" x="0px" y="0px"
	 width="90px" height="90px" viewBox="0 0 90 90" enable-background="new 0 0 90 90" xml:space="preserve">
<circle opacity="0.2" fill="#FFFFFF" cx="45" cy="45" r="43.614"/>
<g>
	<path fill="#FFFFFF" stroke="#FFFFFF" stroke-miterlimit="10" d="M60.113,63.415l-7.776-24.211
		c2.641-2.127,4.328-5.355,4.328-9.023c0-6.383-5.209-11.592-11.665-11.592c-6.383,0-11.665,5.209-11.665,11.592
		c0,3.668,1.687,6.896,4.328,9.023l-7.777,24.211c0,0.146-0.072,0.22-0.072,0.367c0,2.199,1.688,4.183,4.769,5.648
		c2.787,1.248,6.529,1.98,10.418,1.98c3.888,0,7.63-0.732,10.417-1.98c3.081-1.395,4.77-3.449,4.77-5.648
		C60.113,63.635,60.113,63.488,60.113,63.415z M35.608,30.181c0-5.136,4.182-9.317,9.392-9.317c5.209,0,9.391,4.182,9.391,9.317
		c0,5.135-4.182,9.317-9.391,9.317C39.79,39.498,35.608,35.316,35.608,30.181z M45,69.139c-7.482,0-12.692-2.715-12.913-5.285
		l7.557-23.402c1.614,0.808,3.449,1.321,5.356,1.321c1.906,0,3.741-0.44,5.355-1.321l7.557,23.402
		C57.691,66.424,52.482,69.139,45,69.139z"/>
</g>
</svg>
