<?xml version="1.0" encoding="utf-8"?>
<!-- Generator: Adobe Illustrator 16.0.0, SVG Export Plug-In . SVG Version: 6.00 Build 0)  -->
<!DOCTYPE svg PUBLIC "-//W3C//DTD SVG 1.1//EN" "http://www.w3.org/Graphics/SVG/1.1/DTD/svg11.dtd">
<svg version="1.1" id="Calque_1" xmlns="http://www.w3.org/2000/svg" xmlns:xlink="http://www.w3.org/1999/xlink" x="0px" y="0px"
	 width="91.667px" height="90.667px" viewBox="0 0 91.667 90.667" enable-background="new 0 0 91.667 90.667" xml:space="preserve">
<circle opacity="0.2" fill="#FFFFFF" stroke="#FFFFFF" stroke-miterlimit="10" enable-background="new    " cx="46.016" cy="45.528" r="43.615"/>
<g>
	<path fill="#FFFFFF" stroke="#FFFFFF" stroke-width="0.7" stroke-miterlimit="10" d="M70.947,32.089l-2.972-2.074
		c-0.09-0.062-0.199-0.087-0.307-0.068c-0.107,0.02-0.2,0.081-0.264,0.17l-1.296,1.856c-0.008,0.008-0.017,0.013-0.022,0.021
		l-4.64,6.643V21.043c0-0.227-0.184-0.411-0.41-0.411H27.004c-0.226,0-0.41,0.184-0.41,0.411v48.973c0,0.225,0.183,0.408,0.41,0.408
		h34.033c0.228,0,0.411-0.184,0.411-0.408V46.399l7.543-10.803c0.005-0.006,0.013-0.009,0.017-0.016l2.04-2.92
		c0.062-0.089,0.087-0.2,0.067-0.307C71.097,32.247,71.036,32.151,70.947,32.089z M52.648,57.565l-1.525,0.955l-1.06-0.883
		c-0.013-0.012-0.033-0.012-0.047-0.021l0.335-1.656l15.644-22.401c0.008-0.008,0.016-0.012,0.021-0.021l0.514-0.735l2.292,1.602
		L52.648,57.565z M60.627,69.604H27.415v-48.15h33.213V39.81L49.628,55.561c-0.032,0.045-0.053,0.098-0.064,0.152l-0.912,4.5
		c-0.033,0.16,0.034,0.324,0.169,0.42c0.069,0.047,0.152,0.072,0.233,0.072c0.076,0,0.151-0.021,0.218-0.061l3.883-2.426
		c0.047-0.031,0.086-0.068,0.119-0.115l7.354-10.531V69.604L60.627,69.604z M69.297,33.735L67,32.13l0.843-1.207l2.298,1.604
		L69.297,33.735z"/>
	<path fill="#FFFFFF" stroke="#FFFFFF" stroke-width="0.7" stroke-miterlimit="10" d="M39.748,51.229
		c-4.169,0-7.561,3.393-7.561,7.561c0,4.17,3.392,7.561,7.561,7.561c4.167,0,7.56-3.391,7.56-7.561
		C47.307,54.622,43.915,51.229,39.748,51.229z M39.748,65.53c-3.716,0-6.74-3.023-6.74-6.74c0-3.715,3.024-6.74,6.74-6.74
		c3.716,0,6.74,3.025,6.74,6.74C46.488,62.506,43.463,65.53,39.748,65.53z"/>
	<path fill="#FFFFFF" stroke="#FFFFFF" stroke-width="0.7" stroke-miterlimit="10" d="M54.926,37.644
		c1.174,0,2.128-0.954,2.128-2.127c0-1.174-0.954-2.128-2.128-2.128s-2.128,0.956-2.128,2.128
		C52.798,36.689,53.752,37.644,54.926,37.644z M54.926,34.209c0.722,0,1.308,0.585,1.308,1.307c0,0.721-0.586,1.307-1.308,1.307
		c-0.721,0-1.308-0.587-1.308-1.307C53.619,34.794,54.205,34.209,54.926,34.209z"/>
	<path fill="#FFFFFF" stroke="#FFFFFF" stroke-width="0.7" stroke-miterlimit="10" d="M36.321,48.721
		c0.05,0.021,0.104,0.033,0.159,0.033c0.052,0,0.105-0.012,0.155-0.031l14.993-6.111c0.21-0.085,0.312-0.324,0.225-0.535
		l-6.673-16.375c-0.041-0.101-0.12-0.181-0.221-0.223c-0.099-0.043-0.214-0.043-0.314-0.002L29.65,31.588
		c-0.209,0.086-0.311,0.326-0.225,0.536l6.674,16.375C36.141,48.6,36.22,48.678,36.321,48.721z M44.573,26.393l6.364,15.615
		l-14.232,5.801l-6.364-15.617L44.573,26.393z"/>
</g>
</svg>
