<?xml version="1.0" encoding="utf-8"?>
<!-- Generator: Adobe Illustrator 16.0.0, SVG Export Plug-In . SVG Version: 6.00 Build 0)  -->
<!DOCTYPE svg PUBLIC "-//W3C//DTD SVG 1.1//EN" "http://www.w3.org/Graphics/SVG/1.1/DTD/svg11.dtd">
<svg version="1.1" id="Calque_1" xmlns="http://www.w3.org/2000/svg" xmlns:xlink="http://www.w3.org/1999/xlink" x="0px" y="0px"
	 width="88.574px" height="88.614px" viewBox="0 0 88.574 88.614" enable-background="new 0 0 88.574 88.614" xml:space="preserve">
<circle opacity="0.2" fill="#FFFFFF" enable-background="new    " cx="44.284" cy="44.308" r="43.614"/>
<path fill="#FFFFFF" d="M66.484,37.803c-0.141-0.424-0.424-0.706-0.848-0.778c-0.282-0.069-5.303-0.705-11.24,2.333
	c0-3.816-0.565-15.127-7.634-22.549c-0.708-0.708-1.556-1.133-2.545-1.133c-0.92,0-1.838,0.425-2.546,1.133
	c-6.997,7.422-7.563,18.732-7.493,22.549c-5.938-3.038-10.886-2.333-11.239-2.333c-0.425,0.072-0.778,0.354-0.849,0.778
	c-0.142,0.424,0,0.849,0.354,1.131c0.07,0,8.342,6.785,10.533,13.785c0.565,1.838,0.848,4.1,1.131,6.432
	c0.777,6.504,1.696,13.786,10.18,13.786c8.482,0,9.402-7.282,10.18-13.786c0.282-2.332,0.564-4.594,1.13-6.432
	c2.191-7,10.463-13.785,10.534-13.855C66.484,38.581,66.625,38.156,66.484,37.803z M47.327,36.177
	c-0.99-0.848-2.049-1.271-3.109-1.201c-1.273,0.07-2.333,0.777-2.97,1.344c-0.989-0.92-2.051-1.414-3.181-1.344
	c-0.565,0-1.062,0.212-1.556,0.424c0.07-1.061,0.282-2.191,0.494-3.463c0.071-0.071,0.071-0.071,0.143-0.143
	c0,0,0.777-0.919,1.767-0.919c0.637,0,1.344,0.283,1.979,0.99c0,0,0,0,0.07,0c0,0,0,0,0.071,0.071
	c0.07,0.069,0.141,0.069,0.212,0.141h0.07c0.071,0.071,0.212,0.071,0.284,0.071h0.069c0.142,0,0.213,0,0.283-0.071h0.071
	c0.142-0.071,0.212-0.141,0.282-0.212l0,0l0,0c0,0,0.071,0,0.071-0.071c0,0,0.776-0.919,1.838-0.919c0.635,0,1.343,0.283,1.979,0.99
	l0.07,0.071l0,0l0,0c0.07,0.069,0.07,0.069,0.142,0.069l0,0c0.07,0,0.143,0.071,0.143,0.071l0,0c0.069,0,0.141,0,0.212,0.071l0,0
	h0.069c0,0,0,0,0.07,0c0.072,0,0.213,0,0.284-0.071h0.07c0.07-0.071,0.212-0.141,0.282-0.212l0,0l0,0c0,0,0.071,0,0.071-0.071
	c0,0,0.777-0.919,1.838-0.919c0.635,0,1.272,0.283,1.909,0.919c0.212,1.272,0.424,2.545,0.494,3.605
	c-0.636-0.282-1.271-0.424-1.908-0.424C48.954,34.976,47.963,35.612,47.327,36.177z M38.773,25.574
	c0.071-0.07,0.071-0.07,0.142-0.141c0.142-0.212,0.637-0.638,1.132-0.638c0.424,0,0.848,0.214,1.271,0.708
	c0.212,0.212,0.495,0.354,0.778,0.354h0.071c0.353,0.07,0.706-0.071,0.988-0.354c0.142-0.212,0.638-0.637,1.132-0.637
	c0.424,0,0.848,0.212,1.272,0.707c0.211,0.212,0.494,0.354,0.776,0.354h0.071c0.07,0,0.212,0,0.283-0.07c0,0,0.071,0,0.071-0.071
	c0.069-0.07,0.212-0.07,0.282-0.141l0,0l0,0l0.07-0.071c0.142-0.212,0.637-0.636,1.131-0.636c0.354,0,0.849,0.212,1.273,0.707
	c0.07,0.07,0.14,0.141,0.212,0.141c0.424,1.062,0.778,2.121,1.061,3.182c-0.425-0.142-0.92-0.213-1.344-0.213
	c-1.061,0.071-1.979,0.495-2.546,0.989c-0.918-0.706-1.837-0.989-2.826-0.989c-1.061,0.071-1.979,0.495-2.546,0.989
	c-0.918-0.706-1.837-0.989-2.827-0.989c-0.424,0-0.848,0.142-1.201,0.213C37.925,27.835,38.279,26.705,38.773,25.574z
	 M43.297,18.292c0.565-0.564,1.414-0.564,1.98,0c1.272,1.343,2.332,2.828,3.18,4.454c-0.07,0-0.142,0-0.212,0
	c-0.777,0-1.414,0.354-1.909,0.707c-0.848-0.565-1.554-0.707-2.119-0.707c-0.848,0-1.556,0.424-2.05,0.777
	c-0.778-0.636-1.556-0.777-2.121-0.777C40.964,21.121,42.026,19.635,43.297,18.292z M36.299,38.086
	c0.282-0.354,0.989-0.989,1.838-1.062c0.707,0,1.414,0.425,2.191,1.344c0.212,0.283,0.636,0.424,0.989,0.354
	c0.354,0.07,0.708-0.142,0.99-0.424c0,0,0.919-1.201,2.051-1.273c0.776,0,1.483,0.425,2.261,1.344l0,0
	c0,0.07,0.071,0.07,0.143,0.142c0,0,0.07,0,0.07,0.07l0,0l0,0c0.069,0.071,0.142,0.071,0.212,0.142h0.07
	c0.071,0,0.212,0.07,0.283,0.07l0,0l0,0l0,0l0,0c0.141,0,0.212,0,0.282-0.07h0.071c0.07-0.07,0.212-0.07,0.282-0.142l0,0l0,0l0,0
	c0.07-0.07,0.143-0.142,0.143-0.142l0,0c0,0,0.918-1.202,2.049-1.271c0.636,0,1.344,0.354,2.05,1.06c0.071,1.414,0,2.333,0,2.333
	s0,0,0,0.071c-0.777,0.494-1.555,1.06-2.332,1.696c-1.132,0.071-2.051,0.707-2.687,1.201c-0.99-0.848-1.979-1.271-3.111-1.201
	c-1.271,0.071-2.332,0.777-2.969,1.344c-0.848-0.778-1.696-1.202-2.615-1.344c-0.777-0.637-1.556-1.202-2.333-1.696
	c0-0.071,0-0.071,0-0.142C36.299,40.419,36.228,39.5,36.299,38.086z M42.238,45.65c0.212-0.353,1.06-1.202,2.05-1.273
	c0.706,0,1.414,0.426,2.19,1.343l0,0c-0.353,0.427-0.707,0.851-1.06,1.344c-0.425,0.496-0.777,1.061-1.131,1.557
	c-0.354-0.496-0.707-1.061-1.132-1.557c-0.353-0.424-0.706-0.848-1.06-1.271C42.167,45.719,42.238,45.719,42.238,45.65z
	 M44.288,70.815c-6.15,0-7.14-4.524-8.06-11.876c-0.282-2.332-0.564-4.736-1.271-6.785c-1.697-5.372-6.362-10.392-9.119-13.008
	c3.534,0.284,10.038,1.909,15.623,9.262c2.473,3.251,3.604,6.149,4.523,8.693c1.202,3.11,2.192,5.798,5.373,7.564
	C50.437,68.553,48.669,70.815,44.288,70.815z M53.618,52.083c-0.636,2.051-0.918,4.453-1.271,6.787
	c-0.142,1.271-0.283,2.403-0.495,3.534c-2.05-1.415-2.827-3.465-3.888-6.151c-0.637-1.625-1.344-3.533-2.475-5.654
	c0.495-0.776,1.062-1.555,1.626-2.263c5.655-7.422,12.089-8.978,15.622-9.26C59.98,41.691,55.316,46.709,53.618,52.083z"/>
</svg>
