<?xml version="1.0" encoding="utf-8"?>
<!-- Generator: Adobe Illustrator 16.0.0, SVG Export Plug-In . SVG Version: 6.00 Build 0)  -->
<!DOCTYPE svg PUBLIC "-//W3C//DTD SVG 1.1//EN" "http://www.w3.org/Graphics/SVG/1.1/DTD/svg11.dtd">
<svg version="1.1" id="Calque_1" xmlns="http://www.w3.org/2000/svg" xmlns:xlink="http://www.w3.org/1999/xlink" x="0px" y="0px"
	 width="90px" height="90px" viewBox="0 0 90 90" enable-background="new 0 0 90 90" xml:space="preserve">
<circle opacity="0.2" fill="#FFFFFF" enable-background="new    " cx="45" cy="45" r="43.615"/>
<path fill="#FFFFFF" stroke="#FFFFFF" stroke-width="0.5" stroke-miterlimit="10" d="M63.381,24.95
	c-0.463,0-0.838,0.374-0.838,0.835v0.835h-6.684v-0.835c0-0.461-0.373-0.835-0.836-0.835c-0.459,0-0.834,0.374-0.834,0.835v1.671
	H35.811v-1.671c0-0.461-0.373-0.835-0.835-0.835c-0.463,0-0.837,0.374-0.837,0.835v0.835h-6.682v-0.835
	c0-0.461-0.373-0.835-0.838-0.835c-0.462,0-0.833,0.374-0.833,0.835v38.43c0,0.462,0.371,0.835,0.833,0.835
	c0.465,0,0.838-0.373,0.838-0.835V63.38h6.682v0.835c0,0.462,0.374,0.835,0.837,0.835c0.462,0,0.835-0.373,0.835-0.835v-1.671
	h18.378v1.671c0,0.462,0.375,0.835,0.836,0.835c0.463,0,0.836-0.373,0.836-0.835V63.38h6.683v0.835c0,0.462,0.375,0.835,0.838,0.835
	c0.46,0,0.833-0.373,0.833-0.835v-38.43C64.214,25.324,63.841,24.95,63.381,24.95z M62.543,45.835v4.177h-6.684v-4.177H62.543z
	 M55.859,44.165v-4.177h6.684v4.177H55.859z M55.859,38.317v-4.178h6.684v4.178H55.859z M55.859,51.684h6.684v4.178h-6.684V51.684z
	 M62.543,28.292v4.177h-6.684v-4.177H62.543z M54.189,29.126v15.038H35.811V29.126H54.189z M34.139,50.012h-6.682v-4.177h6.682
	V50.012z M27.457,44.165v-4.177h6.682v4.177H27.457z M34.139,38.317h-6.682v-4.178h6.682V38.317z M27.457,51.684h6.682v4.178h-6.682
	V51.684z M34.139,28.292v4.177h-6.682v-4.177H34.139z M27.457,61.708v-4.177h6.682v4.177H27.457z M35.811,60.874V45.835h18.378
	v15.038L35.811,60.874L35.811,60.874z M55.859,61.708v-4.177h6.684v4.177H55.859z"/>
</svg>
