<?xml version="1.0" encoding="utf-8"?>
<!-- Generator: Adobe Illustrator 16.0.0, SVG Export Plug-In . SVG Version: 6.00 Build 0)  -->
<!DOCTYPE svg PUBLIC "-//W3C//DTD SVG 1.1//EN" "http://www.w3.org/Graphics/SVG/1.1/DTD/svg11.dtd">
<svg version="1.1" id="Calque_1" xmlns="http://www.w3.org/2000/svg" xmlns:xlink="http://www.w3.org/1999/xlink" x="0px" y="0px"
	 width="90px" height="90px" viewBox="0 0 90 90" enable-background="new 0 0 90 90" xml:space="preserve">
<circle opacity="0.2" fill="#FFFFFF" enable-background="new    " cx="45" cy="45" r="43.615"/>
<g>
	<g>
		<path fill="#FFFFFF" stroke="#FFFFFF" stroke-miterlimit="10" d="M45.019,45H29.85c-0.523,0-0.947,0.425-0.947,0.948v13.272
			c0,0.521,0.424,0.947,0.947,0.947h15.168c0.524,0,0.949-0.426,0.949-0.947V45.948C45.968,45.424,45.543,45,45.019,45z
			 M45.019,59.221H29.85V45.948h15.168L45.019,59.221L45.019,59.221z"/>
		<path fill="#FFFFFF" stroke="#FFFFFF" stroke-miterlimit="10" d="M69.05,38.252l-3.173-9.199v-2.067
			c0-1.043-0.854-1.896-1.896-1.896H26.059c-1.044,0-1.896,0.852-1.896,1.896v2.067l-3.228,9.252
			c-0.013,0.858,0.387,1.79,1.586,1.883c0.023,0.007,0.035,0.03,0.057,0.03c0.039,0.004,0.079,0.008,0.117,0.008
			c0.461,0,0.822-0.26,1.101-0.582c0.115,0.511,0.249,0.806,0.374,0.989l-0.007,22.379c0,1.043,0.852,1.896,1.896,1.896h24.649
			v-18.96h9.479v18.96h3.793c1.043,0,1.896-0.853,1.896-1.896V40.567c0.12-0.18,0.248-0.459,0.358-0.937
			c0.261,0.298,0.586,0.544,1.004,0.577c0.052,0.01,0.092,0.041,0.147,0.041C69.343,40.249,69.05,38.252,69.05,38.252z
			 M24.497,38.486c0-0.042,0.012-0.081,0.014-0.122h-0.01c0-0.026,0.002-0.058,0.002-0.058l2.237-7.526h4.768
			c0,0-1.66,7.594-1.642,7.692c0,0.002,0.001,0.009,0.001,0.014c0,1.481-1.202,2.686-2.685,2.686
			C25.698,41.172,24.497,39.967,24.497,38.486z M64.928,63.014c0,0.521-0.426,0.945-0.947,0.945h-2.844V45.948
			c0-0.523-0.424-0.948-0.947-0.948h-9.481c-0.524,0-0.948,0.425-0.948,0.948v18.013H26.059c-0.522,0-0.948-0.426-0.948-0.947
			V41.468c0.59,0.411,1.302,0.651,2.072,0.651c1.719,0,3.164-1.199,3.54-2.807h1.841c0.376,1.608,1.821,2.807,3.539,2.807
			c1.719,0,3.163-1.199,3.539-2.807h1.841c0.375,1.608,1.819,2.807,3.538,2.807s3.165-1.199,3.54-2.807h1.84
			c0.375,1.608,1.82,2.807,3.539,2.807c1.718,0,3.162-1.199,3.537-2.807h1.812c0.375,1.608,1.819,2.807,3.539,2.807
			c0.782,0,1.509-0.251,2.103-0.674L64.928,63.014L64.928,63.014z M33.418,38.364c0.004-0.034,0.004-0.058,0.004-0.058l1.264-7.526
			h4.77l-0.68,7.526c0,0,0.001,0.024,0.007,0.058h-0.01c0.002,0.041,0.013,0.079,0.013,0.122c0,1.481-1.202,2.686-2.686,2.686
			c-1.483,0-2.685-1.205-2.685-2.686c0-0.042,0.011-0.081,0.013-0.122H33.418z M42.342,38.364c0.002-0.034,0.002-0.058,0.002-0.058
			l0.29-7.526h4.771l0.291,7.526c0,0,0,0.024,0.006,0.058h-0.01c0.002,0.041,0.013,0.079,0.013,0.122
			c0,1.481-1.202,2.686-2.686,2.686c-1.483,0-2.685-1.205-2.685-2.686c0-0.042,0.011-0.081,0.013-0.122H42.342z M56.622,38.486
			c0,1.481-1.202,2.686-2.685,2.686c-1.484,0-2.687-1.205-2.687-2.686c0.019-0.105,0.013-0.18,0.013-0.18l-0.682-7.526h4.771
			l1.265,7.526c0,0,0.004,0.024,0.015,0.058h-0.023C56.611,38.405,56.622,38.443,56.622,38.486z M65.511,38.486
			c0,1.481-1.202,2.686-2.686,2.686c-1.482,0-2.685-1.202-2.685-2.686c0.035-0.104-1.61-7.706-1.61-7.706h4.768l2.239,7.526
			C65.538,38.306,65.511,38.443,65.511,38.486z M67.991,39.116c-0.093,0.108-0.261,0.167-0.498,0.182
			c-0.063-0.015-0.128-0.03-0.175-0.033c-0.185-0.015-0.414-0.239-0.613-0.599c-0.057-0.105-0.223-0.512-0.256-0.63l-2.24-7.527
			c-0.12-0.401-0.491-0.678-0.909-0.678h-4.768c-0.287,0-0.558,0.13-0.739,0.352c-0.18,0.224-0.248,0.516-0.188,0.796
			c0.535,2.47,1.373,6.39,1.559,7.385h-1.566c-0.007-0.071-0.02-0.145-0.043-0.215l-1.265-7.527
			c-0.079-0.457-0.472-0.791-0.937-0.791h-4.771c-0.267,0-0.521,0.111-0.7,0.308c-0.18,0.198-0.269,0.46-0.244,0.726l0.68,7.454
			c-0.002,0.015-0.004,0.03-0.006,0.045h-1.668c0-0.004,0-0.012-0.004-0.015c0.002-0.026,0.002-0.053,0.002-0.08l-0.291-7.526
			c-0.021-0.508-0.438-0.912-0.949-0.912h-4.769c-0.51,0-0.928,0.404-0.948,0.912l-0.29,7.558h0.005
			C41.4,38.305,41.4,38.309,41.4,38.312h-0.004c-0.002,0.018-0.002,0.035-0.002,0.052h-1.667c-0.002-0.008-0.002-0.013-0.003-0.019
			l0.678-7.48c0.024-0.265-0.065-0.528-0.245-0.726c-0.18-0.196-0.433-0.308-0.701-0.308h-4.77c-0.463,0-0.859,0.334-0.936,0.791
			l-1.264,7.527c-0.008,0.04-0.011,0.083-0.013,0.125c-0.001,0.03-0.003,0.059-0.003,0.089h-1.624
			c0.2-1.006,1.046-4.907,1.586-7.381c0.061-0.281-0.007-0.574-0.187-0.798c-0.18-0.224-0.453-0.354-0.739-0.354H26.74
			c-0.42,0-0.789,0.276-0.909,0.678l-2.237,7.526c-0.006,0.017-0.006,0.035-0.009,0.054c0,0.002-0.004,0.004-0.005,0.006
			c-0.062,0.19-0.166,0.402-0.284,0.6c-0.208,0.317-0.415,0.493-0.529,0.539c-0.032,0.012-0.064,0.041-0.097,0.039
			c-0.379-0.007-0.519-0.132-0.561-0.176c-0.125-0.129-0.207-0.363-0.223-0.637l3.171-9.096c0.035-0.101,0.054-0.204,0.054-0.312
			v-2.067c0-0.521,0.426-0.948,0.948-0.948H63.98c0.521,0,0.946,0.427,0.946,0.948v2.067c0,0.105,0.019,0.211,0.054,0.312
			l3.187,9.13C68.167,38.642,68.141,38.949,67.991,39.116z"/>
	</g>
</g>
</svg>
