<?xml version="1.0" encoding="utf-8"?>
<!-- Generator: Adobe Illustrator 16.0.0, SVG Export Plug-In . SVG Version: 6.00 Build 0)  -->
<!DOCTYPE svg PUBLIC "-//W3C//DTD SVG 1.1//EN" "http://www.w3.org/Graphics/SVG/1.1/DTD/svg11.dtd">
<svg version="1.1" id="Calque_1" xmlns="http://www.w3.org/2000/svg" xmlns:xlink="http://www.w3.org/1999/xlink" x="0px" y="0px"
	 width="90px" height="90px" viewBox="0 0 90 90" enable-background="new 0 0 90 90" xml:space="preserve">
<circle opacity="0.2" fill="#FFFFFF" cx="45" cy="45" r="43.615"/>
<g>
	<path fill="#FFFFFF" stroke="#FFFFFF" stroke-miterlimit="10" d="M43.344,25.578l-0.901-0.451
		c-0.352-0.201-0.803-0.201-1.204-0.101c-0.402,0.151-0.703,0.401-0.903,0.802l-1.904,4.012c-0.2,0.45-0.702,1.202-1.052,1.604
		l-2.807,3.258c-0.25,0.301-0.902,0.602-1.303,0.602h-2.406c-0.401,0-0.903-0.301-1.103-0.652l-1.754-3.057
		c-0.201-0.352-0.201-0.902,0-1.253l2.356-3.76c0.201-0.352,0.301-0.752,0.201-1.153c-0.101-0.401-0.352-0.752-0.703-0.952
		l-0.601-0.352c-0.752-0.4-1.704-0.2-2.155,0.502l-3.309,5.214c-0.401,0.601-0.451,1.604-0.15,2.304l7.017,13.686
		c0.15,0.303,0.101,0.852-0.151,1.102l-4.46,4.712c-0.451,0.502-0.902,1.354-1.053,2.006l-2.306,10.727
		c-0.1,0.401,0,0.854,0.25,1.151c0.25,0.302,0.651,0.504,1.053,0.504h2.055c0.802,0,1.604-0.604,1.804-1.406l1.955-8.018
		c0.1-0.451,0.5-1.153,0.852-1.505l3.609-3.608l-0.852,4.56c-0.101,0.554-0.251,1.505-0.352,2.056l-1.102,6.317
		c-0.05,0.401,0.05,0.852,0.301,1.153c0.251,0.299,0.651,0.501,1.052,0.501h1.404c0.802,0,1.604-0.604,1.804-1.405l4.311-16.991
		c0.151-0.651,0.101-1.654-0.2-2.305l-2.958-6.417c-0.151-0.352-0.1-0.902,0.149-1.204l3.209-3.909
		c0.4-0.501,0.901-1.304,1.152-1.854l1.904-4.312C44.447,26.881,44.096,25.929,43.344,25.578z M43.144,27.232l-1.904,4.312
		c-0.201,0.501-0.652,1.202-1.003,1.653l-3.208,3.909c-0.502,0.602-0.603,1.604-0.301,2.307l2.957,6.416
		c0.201,0.401,0.251,1.152,0.15,1.604l-4.361,16.941c-0.101,0.3-0.451,0.601-0.802,0.601H33.27c-0.101,0-0.201-0.049-0.301-0.1
		c0-0.1,0-0.201,0-0.302l1.053-6.263c0.1-0.554,0.25-1.456,0.351-2.007l1.002-5.213c0.151-0.703-0.149-0.951-0.35-1.051
		c-0.05-0.053-0.201-0.104-0.301-0.104c-0.201,0-0.451,0.104-0.752,0.401l-4.06,4.062c-0.451,0.45-0.952,1.353-1.103,2.003
		l-1.955,8.021c-0.1,0.302-0.451,0.601-0.752,0.601h-2.104c-0.101,0-0.201-0.051-0.25-0.1c-0.051-0.051-0.051-0.15-0.051-0.303
		l2.306-10.776c0.1-0.45,0.451-1.151,0.802-1.502l4.46-4.713c0.552-0.551,0.702-1.554,0.301-2.254l-7.018-13.686
		c-0.15-0.352-0.15-0.952,0.05-1.253l3.359-5.162c0.15-0.252,0.501-0.353,0.751-0.201l0.602,0.351c0.1,0.05,0.201,0.15,0.251,0.301
		c0.049,0.15,0,0.251-0.05,0.351l-2.356,3.761c-0.4,0.649-0.4,1.652-0.049,2.304l1.754,3.059c0.351,0.652,1.253,1.153,2.005,1.153
		h2.406c0.701,0,1.654-0.401,2.104-0.951l2.808-3.261c0.401-0.45,0.902-1.302,1.204-1.854l1.904-4.01
		c0.051-0.101,0.15-0.201,0.3-0.251c0.152-0.05,0.251-0.05,0.401,0.05l0.902,0.451C43.144,26.631,43.244,26.932,43.144,27.232z"/>
	<path fill="#FFFFFF" stroke="#FFFFFF" stroke-miterlimit="10" d="M29.009,30.44c0,2.104,1.705,3.81,3.81,3.81
		c2.105,0,3.809-1.705,3.809-3.81c0-2.105-1.704-3.81-3.809-3.81C30.713,26.631,29.009,28.385,29.009,30.44z M32.819,27.684
		c1.504,0,2.756,1.253,2.756,2.757s-1.252,2.757-2.756,2.757s-2.757-1.253-2.757-2.757S31.264,27.684,32.819,27.684z"/>
	<path fill="#FFFFFF" stroke="#FFFFFF" stroke-miterlimit="10" d="M67.304,64.375l-2.306-10.776
		c-0.15-0.654-0.602-1.555-1.052-2.006l-4.461-4.712c-0.25-0.249-0.301-0.749-0.15-1.102l7.017-13.685
		c0.351-0.651,0.301-1.705-0.1-2.306l-3.409-5.113l0,0c-0.45-0.701-1.403-0.952-2.156-0.501l-0.6,0.351
		c-0.353,0.2-0.602,0.552-0.702,0.952c-0.101,0.401-0.05,0.803,0.201,1.153l2.355,3.759c0.201,0.302,0.201,0.902,0,1.254
		l-1.754,3.058c-0.201,0.352-0.701,0.651-1.103,0.651h-2.405c-0.401,0-1.053-0.3-1.304-0.602l-2.807-3.308
		c-0.351-0.401-0.801-1.153-1.053-1.604l-1.905-4.012c-0.2-0.4-0.501-0.651-0.901-0.802c-0.402-0.149-0.802-0.101-1.203,0.101
		l-0.902,0.451c-0.752,0.401-1.104,1.303-0.752,2.105l1.904,4.312c0.251,0.55,0.752,1.402,1.153,1.854l3.209,3.909
		c0.25,0.302,0.301,0.853,0.149,1.204l-2.957,6.417c-0.201,0.6-0.3,1.603-0.15,2.254l4.361,16.991
		c0.201,0.803,1.003,1.406,1.805,1.406h1.402c0.401,0,0.803-0.202,1.053-0.504c0.25-0.298,0.352-0.699,0.301-1.151l-1.053-6.217
		c-0.101-0.551-0.251-1.502-0.351-2.053l-0.853-4.562l3.609,3.608c0.35,0.352,0.751,1.054,0.852,1.505l1.955,8.019
		c0.201,0.802,0.953,1.405,1.803,1.405h2.057c0.451,0,0.802-0.202,1.052-0.501C67.304,65.229,67.405,64.827,67.304,64.375z
		 M66.251,64.876c-0.05,0.051-0.15,0.1-0.25,0.1h-2.055c-0.351,0-0.702-0.301-0.752-0.601l-1.956-8.021
		c-0.15-0.649-0.651-1.503-1.103-2.004l-4.11-4.012c-0.3-0.298-0.551-0.401-0.751-0.401c-0.15,0-0.25,0.051-0.301,0.104
		c-0.201,0.1-0.501,0.348-0.351,1.051l1.003,5.213c0.1,0.551,0.25,1.453,0.352,2.007l1.052,6.263c0,0.101,0,0.253-0.05,0.302
		c-0.051,0.1-0.15,0.1-0.3,0.1h-1.404c-0.35,0-0.702-0.301-0.802-0.601l-4.31-16.993c-0.101-0.451-0.051-1.201,0.15-1.603
		l2.958-6.416c0.3-0.703,0.2-1.704-0.3-2.307l-3.209-3.909c-0.352-0.401-0.802-1.152-1.002-1.655l-1.905-4.31
		c-0.101-0.251,0-0.602,0.249-0.753l0.903-0.45c0.101-0.051,0.251-0.051,0.401-0.051c0.15,0.051,0.251,0.15,0.301,0.251l1.905,4.01
		c0.25,0.552,0.801,1.354,1.203,1.855l2.807,3.258c0.452,0.552,1.354,0.952,2.105,0.952h2.407c0.752,0,1.604-0.501,2.005-1.152
		l1.754-3.058c0.351-0.653,0.351-1.655-0.051-2.307l-2.356-3.759c-0.049-0.101-0.101-0.251-0.049-0.351
		c0.049-0.151,0.1-0.251,0.25-0.302l0.602-0.351c0.25-0.151,0.601-0.051,0.752,0.2l0,0l3.359,5.164
		c0.201,0.3,0.25,0.951,0.048,1.253l-7.016,13.682c-0.351,0.703-0.201,1.706,0.3,2.258l4.462,4.712
		c0.35,0.349,0.701,1.052,0.801,1.503l2.307,10.777C66.352,64.728,66.302,64.827,66.251,64.876z"/>
	<path fill="#FFFFFF" stroke="#FFFFFF" stroke-miterlimit="10" d="M57.179,34.25c2.105,0,3.809-1.705,3.809-3.81
		c0-2.105-1.704-3.81-3.809-3.81s-3.811,1.704-3.811,3.81C53.369,32.545,55.074,34.25,57.179,34.25z M57.179,27.684
		c1.504,0,2.756,1.253,2.756,2.757s-1.251,2.757-2.756,2.757c-1.504,0-2.757-1.253-2.757-2.757S55.675,27.684,57.179,27.684z"/>
</g>
</svg>
