<?xml version="1.0" encoding="utf-8"?>
<!-- Generator: Adobe Illustrator 16.0.0, SVG Export Plug-In . SVG Version: 6.00 Build 0)  -->
<!DOCTYPE svg PUBLIC "-//W3C//DTD SVG 1.1//EN" "http://www.w3.org/Graphics/SVG/1.1/DTD/svg11.dtd">
<svg version="1.1" id="Calque_1" xmlns="http://www.w3.org/2000/svg" xmlns:xlink="http://www.w3.org/1999/xlink" x="0px" y="0px"
	 width="91.667px" height="90.667px" viewBox="0 0 91.667 90.667" enable-background="new 0 0 91.667 90.667" xml:space="preserve">
<circle opacity="0.2" fill="#FFFFFF" stroke="#FFFFFF" stroke-miterlimit="10" enable-background="new    " cx="46.016" cy="45.528" r="43.615"/>
<g>
	<path fill="#FFFFFF" d="M69.609,62.984L52.753,46.607l16.225-15.989c0.117-0.113,0.229-0.234,0.332-0.363
		c0.822-1.002,1.188-2.316,0.997-3.605c-0.19-1.285-0.921-2.436-2.004-3.167c-1.952-1.309-4.692-0.852-6.243,1.039L47.853,41.847
		l-8.982-8.727l0.292-0.292c0.747-0.747,0.832-1.947,0.197-2.792l-1.157-1.542c-0.276-0.366-0.379-0.503,0.196-1.437
		c1.255-1.846,2.22-2.991,4.007-4.125c0.342-0.216,0.526-0.615,0.469-1.016c-0.055-0.395-0.336-0.722-0.716-0.833
		c-3.25-0.962-7.388,0.667-11.076,4.355l-4.954,4.953c-0.866,0.867-1.016,2.183-0.448,3.205l-0.622,0.621
		c-0.761-0.758-1.998-0.756-2.757,0.002L19.83,36.69c-0.881,0.882-0.881,2.316,0,3.198l4.536,4.538
		c0.441,0.441,1.021,0.661,1.6,0.661c0.579,0,1.158-0.22,1.599-0.661l2.471-2.473c0.369-0.368,0.572-0.857,0.572-1.378
		s-0.202-1.01-0.57-1.378l0.721-0.721l0.11,0.055c0.939,0.467,2.047,0.337,2.856-0.3l9.271,9.545L26.921,67.384
		c-0.582,0.711-0.513,1.681,0.166,2.299c0.331,0.305,0.731,0.453,1.131,0.453c0.42,0,0.836-0.165,1.172-0.497l17.796-17.544
		L63.612,69c0.829,0.83,1.916,1.246,3.003,1.246c1.088,0,2.178-0.416,3.008-1.246C71.277,67.343,71.277,64.649,69.609,62.984z
		 M32.737,36.797c-0.289,0.291-0.729,0.363-1.096,0.18l-1.228-0.612l-2.832,2.832l1.226,1.227c0.053,0.053,0.063,0.112,0.063,0.152
		c0,0.041-0.01,0.099-0.063,0.151l-2.472,2.471c-0.197,0.2-0.543,0.199-0.742,0l-4.536-4.536c-0.205-0.205-0.205-0.538,0-0.742
		l2.471-2.472c0.042-0.042,0.096-0.063,0.151-0.063c0.055,0,0.11,0.021,0.152,0.063l1.226,1.228l3.005-3.006l-0.707-0.704
		c-0.371-0.371-0.371-0.975,0-1.345l4.954-4.953c2.583-2.583,5.336-4.037,7.679-4.12c-1.178,0.987-2.044,2.092-3.046,3.567
		c-0.753,1.218-1.038,2.215-0.129,3.424l1.157,1.541c0.119,0.157,0.104,0.382-0.037,0.521L32.737,36.797z M34.968,37.022
		l2.674-2.674l9.107,8.849l-2.648,3.228L34.968,37.022z M29.014,67.576l34.388-41.952c0.618-0.752,1.52-1.155,2.404-1.155
		c0.538,0,1.07,0.149,1.527,0.457c0.69,0.465,1.136,1.167,1.256,1.979c0.117,0.805-0.108,1.625-0.621,2.251
		C67.903,29.236,29.014,67.576,29.014,67.576z M68.393,67.772c-0.981,0.981-2.574,0.981-3.544,0.013L48.421,50.876l3.097-3.049
		L68.393,64.22C69.371,65.199,69.371,66.794,68.393,67.772z"/>
	
		<ellipse transform="matrix(-0.6742 0.7386 -0.7386 -0.6742 128.5557 2.216)" fill="#FFFFFF" cx="63.789" cy="29.464" rx="3.099" ry="1.325"/>
</g>
</svg>
