<?xml version="1.0" encoding="utf-8"?>
<!-- Generator: Adobe Illustrator 16.0.0, SVG Export Plug-In . SVG Version: 6.00 Build 0)  -->
<!DOCTYPE svg PUBLIC "-//W3C//DTD SVG 1.1//EN" "http://www.w3.org/Graphics/SVG/1.1/DTD/svg11.dtd">
<svg version="1.1" id="Calque_1" xmlns="http://www.w3.org/2000/svg" xmlns:xlink="http://www.w3.org/1999/xlink" x="0px" y="0px"
	 width="91.667px" height="90.667px" viewBox="0 0 91.667 90.667" enable-background="new 0 0 91.667 90.667" xml:space="preserve">
<circle opacity="0.2" fill="#FFFFFF" stroke="#FFFFFF" stroke-miterlimit="10" enable-background="new    " cx="46.016" cy="45.528" r="43.615"/>
<g>
	<path fill="#FFFFFF" d="M40.438,34.732c0-2.068-1.682-3.75-3.75-3.75s-3.75,1.682-3.75,3.75c0,2.068,1.682,3.75,3.75,3.75
		S40.438,36.8,40.438,34.732z M34.139,34.732c0-1.406,1.144-2.549,2.549-2.549s2.549,1.143,2.549,2.549
		c0,1.407-1.143,2.548-2.549,2.548S34.139,36.137,34.139,34.732z"/>
	<path fill="#FFFFFF" d="M60.716,22.282c-5.753,0-10.594,3.93-12.015,9.243c-1.42-5.312-6.26-9.243-12.014-9.243
		c-6.864,0-12.449,5.585-12.449,12.45c0,6.078,4.38,11.146,10.148,12.228V49l-7.701-2.357c-0.085-0.028-0.174-0.04-0.263-0.04
		h-6.655c-0.498-0.002-0.901,0.403-0.901,0.9V61.8c0,0.496,0.403,0.9,0.901,0.9h6.655c0.089,0,0.178-0.013,0.263-0.04l7.701-2.358
		V62.7c0,0.496,0.402,0.901,0.9,0.901H47.8v3.183l-6.909,6.91c-0.352,0.351-0.352,0.922,0,1.273
		c0.176,0.177,0.406,0.266,0.638,0.266c0.229,0,0.461-0.089,0.636-0.266l6.537-6.536l6.29,6.29c0.176,0.175,0.406,0.264,0.636,0.264
		c0.231,0,0.461-0.089,0.638-0.264c0.351-0.353,0.351-0.923,0-1.275l-6.662-6.662v-3.183h12.514c0.497,0,0.9-0.404,0.9-0.9V46.959
		c5.768-1.084,10.147-6.15,10.147-12.228C73.165,27.868,67.581,22.282,60.716,22.282z M25.822,60.9h-5.153V48.404h5.153V60.9z
		 M54.839,45.701H42.565c2.991-1.609,5.241-4.41,6.137-7.76C49.598,41.291,51.847,44.092,54.839,45.701z M34.387,58.417
		l-7.364,2.258V48.628l7.364,2.257V58.417z M26.041,34.732c0-5.871,4.776-10.647,10.646-10.647c5.872,0,10.647,4.776,10.647,10.647
		c0,5.872-4.775,10.647-10.647,10.647C30.817,45.379,26.041,40.604,26.041,34.732z M61.215,55.416v0.36v1.2v0.377v4.445H36.188
		v-2.715v-0.825v-1.282v-1.2v-0.684v-4.873v-2.715h25.027V55.416z M60.716,45.379c-5.871,0-10.646-4.774-10.646-10.647
		c0-5.871,4.775-10.647,10.646-10.647c5.87,0,10.647,4.776,10.647,10.647C71.364,40.604,66.586,45.379,60.716,45.379z"/>
	<path fill="#FFFFFF" d="M60.716,30.982c-2.067,0-3.749,1.682-3.749,3.75c0,2.068,1.682,3.75,3.749,3.75
		c2.068,0,3.75-1.683,3.75-3.75C64.466,32.664,62.784,30.982,60.716,30.982z M60.716,37.28c-1.405,0-2.548-1.142-2.548-2.548
		c0-1.406,1.143-2.549,2.548-2.549c1.406,0,2.549,1.143,2.549,2.549C63.265,36.139,62.123,37.28,60.716,37.28z"/>
</g>
</svg>
