<?xml version="1.0" encoding="utf-8"?>
<!-- Generator: Adobe Illustrator 16.0.0, SVG Export Plug-In . SVG Version: 6.00 Build 0)  -->
<!DOCTYPE svg PUBLIC "-//W3C//DTD SVG 1.1//EN" "http://www.w3.org/Graphics/SVG/1.1/DTD/svg11.dtd">
<svg version="1.1" id="Calque_1" xmlns="http://www.w3.org/2000/svg" xmlns:xlink="http://www.w3.org/1999/xlink" x="0px" y="0px"
	 width="90px" height="90px" viewBox="0 0 90 90" enable-background="new 0 0 90 90" xml:space="preserve">
<circle opacity="0.2" fill="#FFFFFF" cx="45" cy="45" r="43.614"/>
<path fill="#FFFFFF" stroke="#FFFFFF" stroke-miterlimit="10" d="M27.142,23.034c-2.25,0-4.106,1.859-4.106,4.107v35.717
	c0,2.248,1.857,4.107,4.106,4.107h35.715c2.251,0,4.108-1.859,4.108-4.107V27.142c0-2.248-1.857-4.107-4.108-4.107H27.142z
	 M27.142,24.107h35.715c1.679,0,3.037,1.356,3.037,3.034v35.717c0,1.68-1.358,3.036-3.037,3.036H27.142
	c-1.677,0-3.035-1.356-3.035-3.036V27.142C24.106,25.464,25.464,24.107,27.142,24.107z M30.714,26.606
	c-2.251,0-4.106,1.856-4.106,4.107v19.645c0,2.248,1.855,4.107,4.106,4.107h28.572c0.75,0,1.464-0.215,2.071-0.571h0.036
	c1.18-0.715,2-2.038,2-3.536V30.714c0-2.251-1.858-4.107-4.107-4.107H30.714z M30.714,27.678h28.572
	c1.679,0,3.037,1.358,3.037,3.036v19.645c0,0.927-0.43,1.786-1.108,2.356l-10.072-13.93c-0.107-0.142-0.25-0.215-0.428-0.215
	s-0.321,0.073-0.428,0.215l-8.144,11.644l-5.286-6.642c-0.214-0.25-0.642-0.25-0.821,0l-7.215,8.964
	c-0.713-0.573-1.143-1.428-1.143-2.393V30.714C27.677,29.036,29.035,27.678,30.714,27.678z M42.178,33.998
	c-1.786,0-3.215,1.43-3.215,3.216s1.465,3.214,3.215,3.214c1.786,0,3.215-1.428,3.215-3.214S43.964,33.998,42.178,33.998z
	 M42.178,35.071c1.179,0,2.144,0.963,2.144,2.143c0,1.178-0.965,2.143-2.144,2.143s-2.143-0.965-2.143-2.143
	C40.036,36.034,41,35.071,42.178,35.071z M50.714,40.036l9.536,13.215c-0.321,0.106-0.642,0.177-0.964,0.177H41.393v-0.035
	L50.714,40.036z M36.428,44.965l4.929,6.179c0.037,0.071,0.107,0.106,0.179,0.142l-1.466,2.107h-9.356
	c-0.321,0-0.643-0.035-0.928-0.142L36.428,44.965z"/>
</svg>
