<?xml version="1.0" encoding="utf-8"?>
<!-- Generator: Adobe Illustrator 16.0.0, SVG Export Plug-In . SVG Version: 6.00 Build 0)  -->
<!DOCTYPE svg PUBLIC "-//W3C//DTD SVG 1.1//EN" "http://www.w3.org/Graphics/SVG/1.1/DTD/svg11.dtd">
<svg version="1.1" id="Calque_1" xmlns="http://www.w3.org/2000/svg" xmlns:xlink="http://www.w3.org/1999/xlink" x="0px" y="0px"
	 width="90px" height="90px" viewBox="0 0 90 90" enable-background="new 0 0 90 90" xml:space="preserve">
<circle opacity="0.2" fill="#FFFFFF" cx="45.005" cy="45" r="43.614"/>
<g transform="translate(0,-1026.3622)">
	<path fill="none" stroke="#FFFFFF" stroke-width="1.5" stroke-miterlimit="10" d="M45,1048.304c0.94,0,1.646,0.707,1.646,1.646
		v21.41h3.295v-14.822c0-0.939,0.706-1.646,1.646-1.646c0.941,0,1.647,0.707,1.647,1.646v14.822v4.943h3.295v-6.59
		c0-0.939,0.704-1.645,1.646-1.645c0.94,0,1.646,0.705,1.646,1.645v6.59v3.293c0,8.24-6.582,14.824-14.822,14.824
		s-14.822-6.584-14.822-14.824v-1.646v-1.646v-13.176c0-0.941,0.705-1.648,1.646-1.648c0.942,0,1.646,0.707,1.646,1.648v8.232h3.295
		v-8.232v-6.59c0-0.939,0.706-1.646,1.647-1.646c0.94,0,1.646,0.707,1.646,1.646v14.822h3.295v-14.822v-6.588
		C43.354,1049.011,44.06,1048.304,45,1048.304z"/>
</g>
</svg>
