<?xml version="1.0" encoding="utf-8"?>
<!-- Generator: Adobe Illustrator 16.0.0, SVG Export Plug-In . SVG Version: 6.00 Build 0)  -->
<!DOCTYPE svg PUBLIC "-//W3C//DTD SVG 1.1//EN" "http://www.w3.org/Graphics/SVG/1.1/DTD/svg11.dtd">
<svg version="1.1" id="Calque_1" xmlns="http://www.w3.org/2000/svg" xmlns:xlink="http://www.w3.org/1999/xlink" x="0px" y="0px"
	 width="91.667px" height="90.667px" viewBox="0 0 91.667 90.667" enable-background="new 0 0 91.667 90.667" xml:space="preserve">
<circle opacity="0.2" fill="#FFFFFF" stroke="#FFFFFF" stroke-miterlimit="10" enable-background="new    " cx="46.016" cy="45.528" r="43.615"/>
<g transform="translate(0,-952.36218)">
	<path fill="#FFFFFF" stroke="#FFFFFF" stroke-width="0.5" stroke-miterlimit="10" d="M40.338,973.227
		c-6.417,0-11.237,3.387-14.26,7.057c-1.511,1.835-2.578,3.748-3.197,5.39c-0.309,0.821-0.504,1.568-0.581,2.23
		c-0.076,0.661-0.051,1.228,0.213,1.725c0.104,0.196,0.321,0.327,0.543,0.33c2.927,0.003,5.042,1.096,6.471,2.714
		c1.429,1.619,2.151,3.804,2.151,5.992c0,2.188-0.722,4.358-2.151,5.971c-1.428,1.613-3.543,2.686-6.471,2.677
		c-0.233,0-0.46,0.142-0.562,0.351c-0.26,0.5-0.27,1.078-0.193,1.744c0.077,0.666,0.272,1.424,0.581,2.25
		c0.619,1.646,1.686,3.551,3.197,5.389c3.023,3.679,7.843,7.058,14.26,7.058c14.032,0,25.42-11.396,25.42-25.437
		c0-0.021,0-0.039,0-0.06c-0.002-0.039-0.01-0.077-0.021-0.116c-0.016-2.315-0.354-4.558-0.949-6.689
		c-0.317,0.374-0.629,0.752-0.947,1.125c0.445,1.839,0.678,3.761,0.678,5.738c0,0.02,0,0.037,0,0.059
		c-0.031,13.344-10.838,24.141-24.18,24.141c-5.983,0-10.46-3.125-13.311-6.594c-1.425-1.732-2.42-3.561-2.984-5.062
		c-0.282-0.75-0.462-1.408-0.523-1.938c-0.045-0.393,0.014-0.588,0.058-0.773c2.975-0.123,5.318-1.264,6.878-3.023
		c1.655-1.869,2.46-4.344,2.46-6.805c0-2.462-0.806-4.93-2.46-6.808c-1.56-1.766-3.905-2.946-6.878-3.083
		c-0.042-0.179-0.102-0.354-0.058-0.737c0.06-0.523,0.242-1.192,0.523-1.938c0.563-1.495,1.559-3.311,2.984-5.041
		c2.85-3.46,7.328-6.592,13.311-6.592c8.84,0,16.553,4.747,20.77,11.827c0.318-0.271,0.635-0.544,0.95-0.814
		C57.603,978.136,49.546,973.227,40.338,973.227L40.338,973.227z M63.259,985.286c-6.51,5.524-13.596,11.744-16.275,14.423
		c-0.504,0.207-0.822,0.211-1.279,0.192c-1.415,0.073-2.663,0.864-3.604,2.036c-1.85,2.309-1.718,4.021-1.627,5.896
		c0.091,1.875,0.122,4.08-1.957,8.238c-0.096,0.191-0.203,0.479-0.058,0.797c0.513,0.682,1.285,0.439,1.899,0.291
		c0.933-0.275,2.202-0.82,3.545-1.516c1.344-0.688,2.765-1.521,3.952-2.385c1.189-0.861,2.152-1.711,2.617-2.637
		c0.332-0.67,0.941-2.066,1.123-3.705c0.074-1.119,0.465-2.043,0.465-2.043c2.68-2.682,9.068-9.687,14.589-16.199
		c3.491-4.504,7.11-8.616,10.019-12.369c0.303-0.441,0.188-0.732,0.039-1.104c-0.431-0.264-0.644-0.174-0.992,0.002
		C71.321,978.459,67,982.117,63.259,985.286L63.259,985.286z M42.818,977.589c-2.047,0-3.72,1.674-3.72,3.723
		s1.673,3.722,3.72,3.722c2.047,0,3.721-1.673,3.721-3.722S44.865,977.589,42.818,977.589z M73.529,978.404
		c-2.586,3.249-5.51,6.744-7.828,9.479c-5.322,6.28-11.181,12.972-13.912,15.763l-3.486-3.49c2.787-2.731,9.479-8.594,15.753-13.918
		C67.236,983.597,70.513,980.754,73.529,978.404z M42.818,978.83c1.377,0,2.48,1.103,2.48,2.481s-1.103,2.482-2.48,2.482
		s-2.48-1.104-2.48-2.482S41.441,978.83,42.818,978.83z M32.278,981.312c-2.047,0-3.72,1.674-3.72,3.722
		c0,2.049,1.673,3.723,3.72,3.723c2.047,0,3.72-1.674,3.72-3.723C35.998,982.986,34.326,981.312,32.278,981.312z M32.278,982.554
		c1.377,0,2.48,1.104,2.48,2.48c0,1.378-1.103,2.482-2.48,2.482c-1.377,0-2.48-1.104-2.48-2.482
		C29.798,983.657,30.901,982.554,32.278,982.554z M52.68,983.794c-2.048,0-3.72,1.674-3.72,3.722c0,2.049,1.672,3.723,3.72,3.723
		c2.047,0,3.72-1.674,3.72-3.723C56.4,985.468,54.727,983.794,52.68,983.794z M52.68,985.034c1.377,0,2.479,1.104,2.479,2.482
		c0,1.378-1.104,2.481-2.479,2.481s-2.479-1.103-2.479-2.481C50.201,986.138,51.302,985.034,52.68,985.034z M45.763,1001.145
		c1.005-0.053,2.16,0.379,3.391,1.609c1.15,1.15,1.357,2.623,1.201,4.033s-0.702,2.703-0.988,3.273
		c-0.264,0.529-1.129,1.38-2.246,2.189c-1.12,0.812-2.481,1.619-3.779,2.289c-1.11,0.527-2.334,1.141-3.449,1.453
		c1.831-3.922,1.91-6.396,1.821-8.221c-0.094-1.926-0.307-2.986,1.356-5.061C43.885,1001.93,44.816,1001.213,45.763,1001.145
		L45.763,1001.145z M32.84,1008.61c-2.047,0-3.72,1.674-3.72,3.723c0,2.051,1.672,3.725,3.72,3.725c2.047,0,3.72-1.674,3.72-3.725
		C36.56,1010.284,34.887,1008.61,32.84,1008.61z M32.84,1009.85c1.377,0,2.48,1.104,2.48,2.482c0,1.377-1.103,2.479-2.48,2.479
		s-2.48-1.104-2.48-2.479C30.36,1010.954,31.463,1009.85,32.84,1009.85z"/>
</g>
</svg>
