<?xml version="1.0" encoding="utf-8"?>
<!-- Generator: Adobe Illustrator 16.0.0, SVG Export Plug-In . SVG Version: 6.00 Build 0)  -->
<!DOCTYPE svg PUBLIC "-//W3C//DTD SVG 1.1//EN" "http://www.w3.org/Graphics/SVG/1.1/DTD/svg11.dtd">
<svg version="1.1" id="Calque_1" xmlns="http://www.w3.org/2000/svg" xmlns:xlink="http://www.w3.org/1999/xlink" x="0px" y="0px"
	 width="90px" height="90px" viewBox="0 0 90 90" enable-background="new 0 0 90 90" xml:space="preserve">
<circle opacity="0.2" fill="#FFFFFF" enable-background="new    " cx="45" cy="45" r="43.615"/>
<g>
	<path fill="#FFFFFF" d="M64.945,40.038h-3.672v-5.563c0-2.25-1.752-4.093-3.963-4.245v-0.016h-0.289c-0.004,0-0.006,0-0.008,0
		s-0.004,0-0.004,0h-3.725H36.977l-4.679,9.824h-7.242c-4.21,0-7.635,3.424-7.635,7.636c0,3.674,2.614,6.74,6.077,7.461
		c1.102,2.725,3.769,4.65,6.882,4.65c3.047,0,5.668-1.846,6.811-4.479h15.25c1.145,2.633,3.764,4.479,6.812,4.479
		c3.084,0,5.736-1.893,6.854-4.578c3.658-0.561,6.471-3.721,6.471-7.533C72.578,43.462,69.154,40.038,64.945,40.038z M54.41,31.634
		h2.604h0.102c0.002,0.004,0.002,0.007,0.002,0.012c1.516,0.055,2.738,1.297,2.738,2.829v5.563H54.41V31.634z M37.873,31.634H52.99
		v8.404H33.872L37.873,31.634z M30.38,58.365c-3.311,0-6.005-2.695-6.005-6.004c0-3.311,2.694-6.004,6.005-6.004
		c3.31,0,6.003,2.693,6.003,6.004C36.383,55.67,33.69,58.365,30.38,58.365z M59.254,58.365c-3.311,0-6.008-2.695-6.008-6.004
		c0-3.311,2.697-6.004,6.008-6.004c3.309,0,6.002,2.693,6.002,6.004C65.256,55.67,62.562,58.365,59.254,58.365z M66.555,53.666
		c0.076-0.426,0.121-0.859,0.121-1.305c0-4.096-3.328-7.425-7.422-7.425c-4.096,0-7.426,3.33-7.426,7.425
		c0,0.521,0.059,1.031,0.16,1.525H37.646c0.104-0.494,0.159-1.004,0.159-1.525c0-4.096-3.33-7.425-7.424-7.425
		s-7.424,3.33-7.424,7.425c0,0.404,0.042,0.801,0.104,1.188c-2.449-0.834-4.217-3.148-4.217-5.875c0-3.428,2.787-6.215,6.213-6.215
		h39.889c3.426,0,6.213,2.788,6.213,6.215C71.156,50.541,69.201,52.953,66.555,53.666z"/>
	<rect x="40.325" y="43.531" fill="#FFFFFF" width="5.386" height="1.42"/>
</g>
</svg>
