<?xml version="1.0" encoding="utf-8"?>
<!-- Generator: Adobe Illustrator 16.0.0, SVG Export Plug-In . SVG Version: 6.00 Build 0)  -->
<!DOCTYPE svg PUBLIC "-//W3C//DTD SVG 1.1//EN" "http://www.w3.org/Graphics/SVG/1.1/DTD/svg11.dtd">
<svg version="1.1" id="dab" xmlns="http://www.w3.org/2000/svg" xmlns:xlink="http://www.w3.org/1999/xlink" x="0px" y="0px"
	 width="98px" height="96.904px" viewBox="0 0 98 96.904" enable-background="new 0 0 98 96.904" xml:space="preserve">
<circle opacity="0.2" fill="#FFFFFF" cx="50" cy="48.418" r="46.904"/>
<g>
	<path fill="#FFFFFF" d="M21.112,59.363V37.797h3.04l6.911,10.911c1.601,2.527,2.848,4.8,3.872,7.008l0.063-0.032
		c-0.256-2.88-0.319-5.503-0.319-8.863v-9.023h2.624v21.566h-2.816L27.64,48.42c-1.504-2.399-2.943-4.863-4.031-7.199l-0.096,0.032
		c0.159,2.719,0.224,5.311,0.224,8.895v9.216H21.112z"/>
	<path fill="#FFFFFF" d="M43.64,52.132c0.064,3.808,2.496,5.375,5.312,5.375c2.016,0,3.231-0.352,4.287-0.799l0.48,2.016
		c-0.992,0.447-2.688,0.959-5.152,0.959c-4.768,0-7.615-3.135-7.615-7.807s2.752-8.352,7.264-8.352c5.056,0,6.399,4.447,6.399,7.295
		c0,0.576-0.064,1.024-0.096,1.312H43.64z M51.896,50.116c0.032-1.792-0.736-4.576-3.903-4.576c-2.849,0-4.096,2.624-4.32,4.576
		H51.896z M52.567,37.188l-3.903,4.576h-2.017l2.816-4.576H52.567z"/>
	<path fill="#FFFFFF" d="M59.672,52.132c0.064,3.808,2.496,5.375,5.312,5.375c2.017,0,3.232-0.352,4.288-0.799l0.48,2.016
		c-0.992,0.447-2.688,0.959-5.152,0.959c-4.768,0-7.615-3.135-7.615-7.807s2.752-8.352,7.264-8.352c5.056,0,6.399,4.447,6.399,7.295
		c0,0.576-0.064,1.024-0.096,1.312H59.672z M67.928,50.116c0.032-1.792-0.736-4.576-3.903-4.576c-2.849,0-4.096,2.624-4.32,4.576
		H67.928z"/>
	<path fill="#FFFFFF" d="M73.08,57.699c0-1.184,0.8-2.016,1.92-2.016s1.888,0.832,1.888,2.016c0,1.151-0.736,2.017-1.92,2.017
		C73.848,59.716,73.08,58.851,73.08,57.699z"/>
</g>
</svg>
