<?xml version="1.0" encoding="utf-8"?>
<!-- Generator: Adobe Illustrator 16.0.0, SVG Export Plug-In . SVG Version: 6.00 Build 0)  -->
<!DOCTYPE svg PUBLIC "-//W3C//DTD SVG 1.1//EN" "http://www.w3.org/Graphics/SVG/1.1/DTD/svg11.dtd">
<svg version="1.1" id="dab" xmlns="http://www.w3.org/2000/svg" xmlns:xlink="http://www.w3.org/1999/xlink" x="0px" y="0px"
	 width="100px" height="100px" viewBox="0 0 100 100" enable-background="new 0 0 100 100" xml:space="preserve">
<circle opacity="0.2" fill="#FFFFFF" cx="50" cy="50" r="46.904"/>
<g>
	<path fill="#FFFFFF" d="M36.097,54.264l-2.171,6.573h-2.79l7.1-20.898h3.255l7.132,20.898H45.74l-2.232-6.573H36.097z
		 M42.949,52.155l-2.046-6.016c-0.465-1.364-0.775-2.604-1.085-3.813h-0.062c-0.31,1.24-0.651,2.512-1.054,3.783l-2.047,6.046
		H42.949z"/>
	<path fill="#FFFFFF" d="M51.503,38.822h2.729v22.015h-2.729V38.822z"/>
	<path fill="#FFFFFF" d="M58.819,38.822h2.729v22.015h-2.729V38.822z"/>
	<path fill="#FFFFFF" d="M65.174,59.225c0-1.147,0.775-1.953,1.86-1.953s1.829,0.806,1.829,1.953c0,1.116-0.713,1.953-1.86,1.953
		C65.918,61.178,65.174,60.341,65.174,59.225z"/>
</g>
</svg>
