<?xml version="1.0" encoding="utf-8"?>
<!-- Generator: Adobe Illustrator 16.0.0, SVG Export Plug-In . SVG Version: 6.00 Build 0)  -->
<!DOCTYPE svg PUBLIC "-//W3C//DTD SVG 1.1//EN" "http://www.w3.org/Graphics/SVG/1.1/DTD/svg11.dtd">
<svg version="1.1" id="dab" xmlns="http://www.w3.org/2000/svg" xmlns:xlink="http://www.w3.org/1999/xlink" x="0px" y="0px"
	 width="100px" height="96.904px" viewBox="0 0 100 96.904" enable-background="new 0 0 100 96.904" xml:space="preserve">
<circle opacity="0.2" fill="#FFFFFF" cx="50" cy="48.452" r="46.904"/>
<g>
	<path fill="#FFFFFF" d="M24.113,55.972c1.248,0.768,3.07,1.408,4.99,1.408c2.85,0,4.512-1.504,4.512-3.68
		c0-2.016-1.15-3.168-4.062-4.288c-3.52-1.248-5.695-3.071-5.695-6.112c0-3.359,2.783-5.855,6.975-5.855
		c2.209,0,3.809,0.513,4.768,1.057l-0.768,2.271c-0.703-0.384-2.145-1.023-4.096-1.023c-2.943,0-4.064,1.76-4.064,3.231
		c0,2.016,1.312,3.008,4.289,4.159c3.646,1.408,5.504,3.168,5.504,6.336c0,3.328-2.465,6.207-7.553,6.207
		c-2.08,0-4.352-0.607-5.504-1.375L24.113,55.972z"/>
	<path fill="#FFFFFF" d="M53.135,55.14c0,1.6,0.033,3.008,0.129,4.224h-2.496l-0.16-2.528h-0.064
		c-0.736,1.248-2.367,2.881-5.119,2.881c-2.432,0-5.344-1.344-5.344-6.784v-9.056h2.816v8.576c0,2.943,0.895,4.928,3.455,4.928
		c1.889,0,3.199-1.312,3.711-2.561c0.16-0.416,0.258-0.928,0.258-1.439v-9.504h2.814V55.14z"/>
	<path fill="#FFFFFF" d="M59.375,52.132c0.064,3.808,2.496,5.375,5.312,5.375c2.016,0,3.232-0.352,4.287-0.799l0.48,2.016
		c-0.992,0.447-2.688,0.959-5.152,0.959c-4.768,0-7.615-3.135-7.615-7.807s2.752-8.352,7.264-8.352c5.057,0,6.4,4.447,6.4,7.295
		c0,0.576-0.064,1.024-0.096,1.312H59.375z M67.631,50.116c0.033-1.792-0.736-4.576-3.902-4.576c-2.85,0-4.096,2.624-4.32,4.576
		H67.631z M68.303,37.188L64.4,41.765h-2.018l2.816-4.576H68.303z"/>
	<path fill="#FFFFFF" d="M72.785,57.699c0-1.184,0.799-2.016,1.92-2.016c1.119,0,1.887,0.832,1.887,2.016
		c0,1.151-0.736,2.017-1.92,2.017C73.553,59.716,72.785,58.851,72.785,57.699z"/>
</g>
</svg>
