<?xml version="1.0" encoding="utf-8"?>
<!-- Generator: Adobe Illustrator 16.0.0, SVG Export Plug-In . SVG Version: 6.00 Build 0)  -->
<!DOCTYPE svg PUBLIC "-//W3C//DTD SVG 1.1//EN" "http://www.w3.org/Graphics/SVG/1.1/DTD/svg11.dtd">
<svg version="1.1" id="dab" xmlns="http://www.w3.org/2000/svg" xmlns:xlink="http://www.w3.org/1999/xlink" x="0px" y="0px"
	 width="94.582px" height="96.904px" viewBox="0 0 94.582 96.904" enable-background="new 0 0 94.582 96.904" xml:space="preserve">
<circle opacity="0.2" fill="#FFFFFF" cx="47.291" cy="48.452" r="46.904"/>
<g>
	<path fill="#FFFFFF" d="M25.548,55.844c1.248,0.768,3.071,1.408,4.991,1.408c2.849,0,4.512-1.504,4.512-3.68
		c0-2.016-1.151-3.168-4.063-4.288c-3.52-1.248-5.695-3.071-5.695-6.112c0-3.359,2.783-5.855,6.976-5.855
		c2.208,0,3.808,0.513,4.768,1.057l-0.769,2.271c-0.703-0.384-2.144-1.023-4.096-1.023c-2.943,0-4.063,1.76-4.063,3.231
		c0,2.016,1.312,3.008,4.288,4.159c3.647,1.408,5.504,3.168,5.504,6.336c0,3.328-2.464,6.207-7.552,6.207
		c-2.08,0-4.352-0.607-5.504-1.375L25.548,55.844z"/>
	<path fill="#FFFFFF" d="M43.37,52.004c0.064,3.808,2.496,5.375,5.312,5.375c2.017,0,3.232-0.352,4.288-0.799l0.48,2.016
		c-0.992,0.447-2.688,0.959-5.152,0.959c-4.768,0-7.615-3.135-7.615-7.807s2.752-8.352,7.264-8.352c5.056,0,6.399,4.447,6.399,7.295
		c0,0.576-0.064,1.024-0.096,1.312H43.37z M51.626,49.988c0.032-1.792-0.736-4.576-3.903-4.576c-2.849,0-4.096,2.624-4.32,4.576
		H51.626z"/>
	<path fill="#FFFFFF" d="M57.834,48.58c0-1.824-0.032-3.392-0.128-4.832h2.464l0.096,3.04h0.128c0.704-2.079,2.4-3.392,4.288-3.392
		c0.319,0,0.544,0.032,0.8,0.096v2.656c-0.288-0.064-0.576-0.096-0.96-0.096c-1.984,0-3.392,1.504-3.775,3.615
		c-0.064,0.385-0.129,0.832-0.129,1.312v8.255h-2.783V48.58z"/>
	<path fill="#FFFFFF" d="M65.931,57.571c0-1.184,0.8-2.016,1.92-2.016s1.888,0.832,1.888,2.016c0,1.151-0.736,2.017-1.92,2.017
		C66.698,59.588,65.931,58.723,65.931,57.571z"/>
</g>
</svg>
