<?xml version="1.0" encoding="utf-8"?>
<!-- Generator: Adobe Illustrator 16.0.0, SVG Export Plug-In . SVG Version: 6.00 Build 0)  -->
<!DOCTYPE svg PUBLIC "-//W3C//DTD SVG 1.1//EN" "http://www.w3.org/Graphics/SVG/1.1/DTD/svg11.dtd">
<svg version="1.1" id="dab" xmlns="http://www.w3.org/2000/svg" xmlns:xlink="http://www.w3.org/1999/xlink" x="0px" y="0px"
	 width="100px" height="100.328px" viewBox="0 0 100 100.328" enable-background="new 0 0 100 100.328" xml:space="preserve">
<circle opacity="0.2" fill="#FFFFFF" cx="50" cy="50.164" r="46.904"/>
<g>
	<path fill="#FFFFFF" d="M28.512,47.668h-8.383v7.775h9.344v2.336H17.346V36.213h11.646v2.336h-8.863v6.815h8.383V47.668z"/>
	<path fill="#FFFFFF" d="M32.609,54.899c0.832,0.544,2.303,1.12,3.711,1.12c2.049,0,3.008-1.023,3.008-2.304
		c0-1.345-0.801-2.08-2.879-2.849c-2.785-0.991-4.096-2.527-4.096-4.383c0-2.496,2.016-4.544,5.342-4.544
		c1.568,0,2.945,0.448,3.809,0.96l-0.703,2.048c-0.609-0.384-1.729-0.896-3.168-0.896c-1.664,0-2.592,0.959-2.592,2.111
		c0,1.279,0.928,1.855,2.943,2.624c2.688,1.024,4.064,2.368,4.064,4.671c0,2.721-2.113,4.641-5.793,4.641
		c-1.695,0-3.264-0.416-4.352-1.057L32.609,54.899z"/>
	<path fill="#FFFFFF" d="M45.664,47.348c0-1.983-0.064-3.584-0.127-5.055h2.527l0.127,2.655h0.064
		c1.152-1.888,2.977-3.008,5.504-3.008c3.744,0,6.561,3.168,6.561,7.872c0,5.566-3.393,8.318-7.041,8.318
		c-2.047,0-3.84-0.896-4.768-2.432h-0.064v8.416h-2.783V47.348z M48.447,51.476c0,0.416,0.064,0.8,0.129,1.151
		c0.512,1.953,2.207,3.297,4.225,3.297c2.975,0,4.703-2.432,4.703-5.984c0-3.104-1.633-5.76-4.607-5.76
		c-1.92,0-3.713,1.377-4.256,3.488c-0.096,0.352-0.193,0.768-0.193,1.152V51.476z"/>
	<path fill="#FFFFFF" d="M65.439,50.548c0.064,3.808,2.496,5.376,5.311,5.376c2.018,0,3.232-0.353,4.289-0.801l0.48,2.016
		c-0.992,0.449-2.689,0.961-5.152,0.961c-4.768,0-7.615-3.137-7.615-7.808c0-4.672,2.752-8.352,7.264-8.352
		c5.055,0,6.398,4.448,6.398,7.296c0,0.576-0.064,1.023-0.096,1.312H65.439z M73.695,48.531c0.031-1.791-0.736-4.574-3.904-4.574
		c-2.848,0-4.096,2.623-4.32,4.574H73.695z"/>
	<path fill="#FFFFFF" d="M78.848,56.115c0-1.184,0.799-2.016,1.92-2.016c1.119,0,1.887,0.832,1.887,2.016
		c0,1.152-0.736,2.016-1.92,2.016C79.615,58.131,78.848,57.268,78.848,56.115z"/>
</g>
</svg>
