<?xml version="1.0" encoding="utf-8"?>
<!-- Generator: Adobe Illustrator 16.0.0, SVG Export Plug-In . SVG Version: 6.00 Build 0)  -->
<!DOCTYPE svg PUBLIC "-//W3C//DTD SVG 1.1//EN" "http://www.w3.org/Graphics/SVG/1.1/DTD/svg11.dtd">
<svg version="1.1" id="dab" xmlns="http://www.w3.org/2000/svg" xmlns:xlink="http://www.w3.org/1999/xlink" x="0px" y="0px"
	 width="100px" height="100px" viewBox="0 0 100 100" enable-background="new 0 0 100 100" xml:space="preserve">
<circle opacity="0.2" fill="#FFFFFF" cx="50" cy="50" r="46.904"/>
<g>
	<path fill="#FFFFFF" d="M24.4,53.823l-2.24,6.784h-2.881l7.328-21.566h3.359l7.359,21.566h-2.975l-2.305-6.784H24.4z
		 M31.471,51.647l-2.111-6.207c-0.48-1.408-0.801-2.688-1.119-3.936h-0.064c-0.32,1.279-0.672,2.592-1.088,3.903l-2.113,6.239
		H31.471z"/>
	<path fill="#FFFFFF" d="M40.305,49.952c0-1.824-0.033-3.392-0.129-4.832h2.465l0.096,3.04h0.127c0.705-2.08,2.4-3.392,4.289-3.392
		c0.318,0,0.543,0.032,0.799,0.096v2.656c-0.287-0.064-0.576-0.097-0.959-0.097c-1.984,0-3.393,1.504-3.775,3.616
		c-0.064,0.384-0.129,0.832-0.129,1.312v8.256h-2.783V49.952z"/>
	<path fill="#FFFFFF" d="M50.896,49.312c0-1.6-0.033-2.911-0.129-4.191h2.465l0.127,2.496h0.096
		c0.865-1.472,2.305-2.848,4.865-2.848c2.111,0,3.711,1.279,4.383,3.104h0.064c0.479-0.864,1.088-1.536,1.727-2.016
		c0.928-0.704,1.953-1.088,3.424-1.088c2.049,0,5.088,1.344,5.088,6.72v9.119h-2.752V51.84c0-2.976-1.088-4.768-3.359-4.768
		c-1.6,0-2.848,1.184-3.328,2.56c-0.127,0.384-0.223,0.896-0.223,1.408v9.567h-2.752v-9.279c0-2.464-1.088-4.256-3.232-4.256
		c-1.76,0-3.039,1.408-3.488,2.815c-0.16,0.416-0.223,0.896-0.223,1.376v9.344h-2.752V49.312z"/>
	<path fill="#FFFFFF" d="M76.912,58.943c0-1.184,0.801-2.016,1.92-2.016c1.121,0,1.889,0.832,1.889,2.016
		c0,1.151-0.736,2.016-1.92,2.016C77.68,60.959,76.912,60.095,76.912,58.943z"/>
</g>
</svg>
