<?xml version="1.0" encoding="utf-8"?>
<!-- Generator: Adobe Illustrator 16.0.0, SVG Export Plug-In . SVG Version: 6.00 Build 0)  -->
<!DOCTYPE svg PUBLIC "-//W3C//DTD SVG 1.1//EN" "http://www.w3.org/Graphics/SVG/1.1/DTD/svg11.dtd">
<svg version="1.1" id="dab" xmlns="http://www.w3.org/2000/svg" xmlns:xlink="http://www.w3.org/1999/xlink" x="0px" y="0px"
	 width="100px" height="100px" viewBox="0 0 100 100" enable-background="new 0 0 100 100" xml:space="preserve">
<circle opacity="0.2" fill="#FFFFFF" cx="50" cy="50" r="46.904"/>
<g>
	<path fill="#FFFFFF" d="M37.137,47.581h-8.124v7.534h9.054v2.264H26.316V36.481h11.286v2.263h-8.589v6.604h8.124V47.581z"/>
	<path fill="#FFFFFF" d="M41.102,54.589c0.807,0.526,2.232,1.085,3.597,1.085c1.984,0,2.915-0.992,2.915-2.232
		c0-1.303-0.775-2.016-2.791-2.76c-2.697-0.961-3.969-2.449-3.969-4.248c0-2.418,1.954-4.402,5.178-4.402
		c1.519,0,2.853,0.434,3.69,0.93l-0.683,1.984c-0.589-0.372-1.674-0.868-3.069-0.868c-1.612,0-2.512,0.931-2.512,2.047
		c0,1.24,0.899,1.798,2.853,2.542c2.604,0.992,3.938,2.295,3.938,4.527c0,2.636-2.046,4.495-5.612,4.495
		c-1.644,0-3.163-0.402-4.217-1.022L41.102,54.589z"/>
	<path fill="#FFFFFF" d="M53.75,47.271c0-1.922-0.062-3.473-0.124-4.898h2.449l0.124,2.573h0.062
		c1.116-1.829,2.883-2.914,5.333-2.914c3.627,0,6.356,3.069,6.356,7.627c0,5.396-3.286,8.062-6.821,8.062
		c-1.984,0-3.721-0.868-4.62-2.356h-0.062v8.155H53.75V47.271z M56.448,51.271c0,0.403,0.062,0.775,0.124,1.116
		c0.496,1.892,2.14,3.194,4.093,3.194c2.884,0,4.558-2.357,4.558-5.799c0-3.008-1.581-5.581-4.465-5.581
		c-1.86,0-3.597,1.333-4.124,3.38c-0.093,0.341-0.186,0.744-0.186,1.116V51.271z"/>
	<path fill="#FFFFFF" d="M69.994,55.767c0-1.147,0.775-1.953,1.86-1.953s1.83,0.806,1.83,1.953c0,1.116-0.713,1.953-1.86,1.953
		C70.738,57.72,69.994,56.883,69.994,55.767z"/>
</g>
</svg>
