<?xml version="1.0" encoding="utf-8"?>
<!-- Generator: Adobe Illustrator 16.0.0, SVG Export Plug-In . SVG Version: 6.00 Build 0)  -->
<!DOCTYPE svg PUBLIC "-//W3C//DTD SVG 1.1//EN" "http://www.w3.org/Graphics/SVG/1.1/DTD/svg11.dtd">
<svg version="1.1" id="dab" xmlns="http://www.w3.org/2000/svg" xmlns:xlink="http://www.w3.org/1999/xlink" x="0px" y="0px"
	 width="100px" height="96.904px" viewBox="0 0 100 96.904" enable-background="new 0 0 100 96.904" xml:space="preserve">
<circle opacity="0.2" fill="#FFFFFF" cx="51" cy="48.418" r="46.904"/>
<g>
	<path fill="#FFFFFF" d="M42.655,50.163c-0.16-3.008-0.352-6.623-0.32-9.311h-0.096c-0.736,2.527-1.632,5.215-2.72,8.191
		l-3.808,10.463H33.6l-3.487-10.271c-1.024-3.039-1.888-5.823-2.496-8.383h-0.063c-0.064,2.688-0.225,6.303-0.416,9.535
		l-0.576,9.247h-2.656l1.504-21.566h3.552l3.68,10.431c0.896,2.656,1.632,5.024,2.176,7.264h0.097
		c0.544-2.176,1.312-4.543,2.271-7.264l3.84-10.431h3.552l1.344,21.566h-2.72L42.655,50.163z"/>
	<path fill="#FFFFFF" d="M58.879,59.635l-0.224-1.952h-0.097c-0.863,1.217-2.527,2.305-4.735,2.305
		c-3.136,0-4.735-2.209-4.735-4.448c0-3.743,3.327-5.792,9.312-5.76V49.46c0-1.28-0.353-3.584-3.521-3.584
		c-1.439,0-2.943,0.447-4.031,1.152l-0.64-1.856c1.279-0.832,3.136-1.376,5.087-1.376c4.736,0,5.888,3.232,5.888,6.336v5.791
		c0,1.344,0.064,2.656,0.256,3.712H58.879z M58.463,51.731c-3.071-0.064-6.56,0.48-6.56,3.488c0,1.823,1.216,2.688,2.656,2.688
		c2.016,0,3.296-1.28,3.743-2.592c0.097-0.289,0.16-0.608,0.16-0.896V51.731z"/>
	<path fill="#FFFFFF" d="M65.728,36.917h2.815v22.718h-2.815V36.917z"/>
	<path fill="#FFFFFF" d="M72.288,57.971c0-1.184,0.8-2.016,1.92-2.016s1.888,0.832,1.888,2.016c0,1.151-0.736,2.017-1.92,2.017
		C73.056,59.987,72.288,59.122,72.288,57.971z"/>
</g>
</svg>
