<?xml version="1.0" encoding="utf-8"?>
<!-- Generator: Adobe Illustrator 16.0.0, SVG Export Plug-In . SVG Version: 6.00 Build 0)  -->
<!DOCTYPE svg PUBLIC "-//W3C//DTD SVG 1.1//EN" "http://www.w3.org/Graphics/SVG/1.1/DTD/svg11.dtd">
<svg version="1.1" id="dab" xmlns="http://www.w3.org/2000/svg" xmlns:xlink="http://www.w3.org/1999/xlink" x="0px" y="0px"
	 width="100px" height="96.904px" viewBox="0 0 100 96.904" enable-background="new 0 0 100 96.904" xml:space="preserve">
<circle opacity="0.2" fill="#FFFFFF" cx="50" cy="48.452" r="46.904"/>
<g>
	<path fill="#FFFFFF" d="M24.784,59.059V37.492h3.041l6.91,10.912c1.602,2.527,2.848,4.799,3.873,7.008l0.062-0.033
		c-0.256-2.879-0.318-5.502-0.318-8.863v-9.023h2.623v21.566h-2.816l-6.848-10.943c-1.504-2.398-2.943-4.863-4.031-7.199
		l-0.096,0.033c0.16,2.719,0.225,5.311,0.225,8.895v9.215H24.784z"/>
	<path fill="#FFFFFF" d="M59.759,51.188c0,5.729-3.967,8.225-7.711,8.225c-4.191,0-7.424-3.072-7.424-7.969
		c0-5.184,3.393-8.223,7.68-8.223C56.751,43.221,59.759,46.453,59.759,51.188z M47.472,51.348c0,3.393,1.953,5.951,4.705,5.951
		c2.688,0,4.703-2.527,4.703-6.016c0-2.623-1.312-5.951-4.641-5.951C48.913,45.332,47.472,48.404,47.472,51.348z"/>
	<path fill="#FFFFFF" d="M63.312,48.404c0-1.824-0.031-3.393-0.127-4.832h2.463l0.096,3.039h0.129
		c0.703-2.078,2.4-3.391,4.287-3.391c0.32,0,0.545,0.031,0.801,0.096v2.656c-0.289-0.064-0.576-0.096-0.961-0.096
		c-1.984,0-3.391,1.504-3.775,3.615c-0.064,0.385-0.129,0.832-0.129,1.312v8.254h-2.783V48.404z"/>
	<path fill="#FFFFFF" d="M71.407,57.395c0-1.184,0.801-2.016,1.92-2.016c1.121,0,1.889,0.832,1.889,2.016
		c0,1.152-0.736,2.018-1.92,2.018C72.175,59.412,71.407,58.547,71.407,57.395z"/>
</g>
</svg>
