<?xml version="1.0" encoding="utf-8"?>
<!-- Generator: Adobe Illustrator 16.0.0, SVG Export Plug-In . SVG Version: 6.00 Build 0)  -->
<!DOCTYPE svg PUBLIC "-//W3C//DTD SVG 1.1//EN" "http://www.w3.org/Graphics/SVG/1.1/DTD/svg11.dtd">
<svg version="1.1" id="dab" xmlns="http://www.w3.org/2000/svg" xmlns:xlink="http://www.w3.org/1999/xlink" x="0px" y="0px"
	 width="98px" height="96.904px" viewBox="0 0 98 96.904" enable-background="new 0 0 98 96.904" xml:space="preserve">
<circle opacity="0.2" fill="#FFFFFF" cx="49" cy="48.452" r="46.904"/>
<g>
	<path fill="#FFFFFF" d="M27.576,56.243c1.248,0.768,3.072,1.408,4.991,1.408c2.849,0,4.512-1.504,4.512-3.68
		c0-2.016-1.151-3.168-4.063-4.288c-3.52-1.248-5.695-3.071-5.695-6.112c0-3.359,2.783-5.855,6.976-5.855
		c2.208,0,3.808,0.513,4.768,1.057l-0.769,2.271c-0.703-0.384-2.144-1.023-4.096-1.023c-2.943,0-4.063,1.76-4.063,3.231
		c0,2.016,1.312,3.008,4.288,4.159c3.647,1.408,5.504,3.168,5.504,6.336c0,3.328-2.464,6.207-7.552,6.207
		c-2.08,0-4.352-0.607-5.504-1.375L27.576,56.243z"/>
	<path fill="#FFFFFF" d="M43.641,36.917h2.815v22.718h-2.815V36.917z"/>
	<path fill="#FFFFFF" d="M65.207,51.763c0,5.729-3.968,8.225-7.711,8.225c-4.192,0-7.424-3.072-7.424-7.968
		c0-5.185,3.392-8.224,7.68-8.224C62.199,43.796,65.207,47.028,65.207,51.763z M52.92,51.923c0,3.393,1.952,5.952,4.704,5.952
		c2.688,0,4.703-2.528,4.703-6.016c0-2.624-1.312-5.952-4.64-5.952C54.36,45.907,52.92,48.979,52.92,51.923z"/>
	<path fill="#FFFFFF" d="M67.32,57.971c0-1.184,0.8-2.016,1.92-2.016s1.888,0.832,1.888,2.016c0,1.151-0.736,2.017-1.92,2.017
		C68.088,59.987,67.32,59.122,67.32,57.971z"/>
</g>
</svg>
