<?xml version="1.0" encoding="utf-8"?>
<!-- Generator: Adobe Illustrator 16.0.0, SVG Export Plug-In . SVG Version: 6.00 Build 0)  -->
<!DOCTYPE svg PUBLIC "-//W3C//DTD SVG 1.1//EN" "http://www.w3.org/Graphics/SVG/1.1/DTD/svg11.dtd">
<svg version="1.1" id="dab" xmlns="http://www.w3.org/2000/svg" xmlns:xlink="http://www.w3.org/1999/xlink" x="0px" y="0px"
	 width="100px" height="100px" viewBox="0 0 100 100" enable-background="new 0 0 100 100" xml:space="preserve">
<circle opacity="0.2" fill="#FFFFFF" cx="50" cy="50" r="46.904"/>
<g>
	<path fill="#FFFFFF" d="M37.79,51.102c-0.155-2.915-0.341-6.418-0.311-9.023h-0.093c-0.713,2.449-1.581,5.055-2.636,7.938
		l-3.689,10.139h-2.046l-3.38-9.953c-0.992-2.945-1.829-5.643-2.419-8.123h-0.062c-0.062,2.605-0.217,6.108-0.403,9.24l-0.558,8.961
		H19.62l1.458-20.898h3.441l3.565,10.107c0.868,2.574,1.581,4.869,2.108,7.039h0.093c0.527-2.109,1.271-4.402,2.202-7.039
		l3.721-10.107h3.441l1.302,20.898h-2.635L37.79,51.102z"/>
	<path fill="#FFFFFF" d="M53.505,60.279l-0.218-1.893h-0.093c-0.837,1.18-2.449,2.232-4.589,2.232c-3.038,0-4.589-2.139-4.589-4.309
		c0-3.629,3.225-5.613,9.022-5.582v-0.31c0-1.24-0.341-3.473-3.41-3.473c-1.396,0-2.853,0.435-3.907,1.116l-0.62-1.799
		c1.24-0.806,3.039-1.332,4.931-1.332c4.589,0,5.705,3.131,5.705,6.139v5.611c0,1.303,0.062,2.574,0.248,3.598H53.505z
		 M53.102,52.621c-2.977-0.062-6.356,0.465-6.356,3.379c0,1.768,1.179,2.604,2.573,2.604c1.954,0,3.194-1.24,3.628-2.511
		c0.093-0.279,0.155-0.59,0.155-0.869V52.621z"/>
	<path fill="#FFFFFF" d="M60.137,49.334c0-1.551-0.031-2.822-0.124-4.062h2.419l0.154,2.48h0.062c0.744-1.426,2.48-2.82,4.961-2.82
		c2.077,0,5.302,1.24,5.302,6.387v8.961h-2.729v-8.65c0-2.42-0.899-4.435-3.473-4.435c-1.798,0-3.193,1.271-3.658,2.79
		c-0.124,0.342-0.187,0.807-0.187,1.271v9.023h-2.729V49.334z"/>
	<path fill="#FFFFFF" d="M76.69,58.666c0-1.146,0.775-1.953,1.86-1.953s1.829,0.807,1.829,1.953c0,1.117-0.713,1.953-1.86,1.953
		C77.435,60.619,76.69,59.783,76.69,58.666z"/>
</g>
</svg>
