<?xml version="1.0" encoding="utf-8"?>
<!-- Generator: Adobe Illustrator 16.0.0, SVG Export Plug-In . SVG Version: 6.00 Build 0)  -->
<!DOCTYPE svg PUBLIC "-//W3C//DTD SVG 1.1//EN" "http://www.w3.org/Graphics/SVG/1.1/DTD/svg11.dtd">
<svg version="1.1" id="dab" xmlns="http://www.w3.org/2000/svg" xmlns:xlink="http://www.w3.org/1999/xlink" x="0px" y="0px"
	 width="100px" height="100px" viewBox="0 0 100 100" enable-background="new 0 0 100 100" xml:space="preserve">
<circle opacity="0.2" fill="#FFFFFF" cx="50" cy="50" r="46.904"/>
<g>
	<path fill="#FFFFFF" d="M26.688,39.737c1.179-0.248,3.039-0.434,4.93-0.434c2.698,0,4.435,0.465,5.736,1.519
		c1.085,0.806,1.736,2.046,1.736,3.69c0,2.015-1.333,3.782-3.534,4.589v0.062c1.984,0.496,4.31,2.14,4.31,5.24
		c0,1.799-0.713,3.164-1.768,4.186c-1.457,1.334-3.813,1.955-7.225,1.955c-1.86,0-3.286-0.125-4.186-0.248V39.737z M29.385,48.294
		h2.45c2.853,0,4.526-1.488,4.526-3.503c0-2.45-1.86-3.411-4.589-3.411c-1.24,0-1.953,0.093-2.388,0.186V48.294z M29.385,58.311
		c0.527,0.092,1.303,0.123,2.264,0.123c2.791,0,5.364-1.023,5.364-4.062c0-2.852-2.449-4.03-5.396-4.03h-2.232V58.311z"/>
	<path fill="#FFFFFF" d="M51.707,60.355l-0.218-1.891h-0.093c-0.838,1.178-2.45,2.232-4.59,2.232c-3.038,0-4.589-2.139-4.589-4.311
		c0-3.627,3.225-5.612,9.023-5.581v-0.31c0-1.24-0.341-3.473-3.411-3.473c-1.396,0-2.853,0.434-3.906,1.116l-0.62-1.798
		c1.24-0.806,3.038-1.333,4.93-1.333c4.589,0,5.706,3.131,5.706,6.138v5.613c0,1.303,0.061,2.572,0.248,3.596H51.707z
		 M51.303,52.697c-2.977-0.062-6.356,0.465-6.356,3.381c0,1.766,1.179,2.604,2.574,2.604c1.953,0,3.194-1.24,3.628-2.512
		c0.093-0.279,0.154-0.588,0.154-0.867V52.697z"/>
	<path fill="#FFFFFF" d="M57.967,57.566c0.807,0.525,2.232,1.084,3.596,1.084c1.984,0,2.916-0.992,2.916-2.232
		c0-1.303-0.775-2.016-2.791-2.76c-2.697-0.961-3.969-2.449-3.969-4.248c0-2.418,1.953-4.402,5.178-4.402
		c1.52,0,2.853,0.434,3.689,0.93l-0.682,1.984c-0.59-0.372-1.674-0.868-3.07-0.868c-1.611,0-2.512,0.931-2.512,2.047
		c0,1.24,0.9,1.798,2.854,2.542c2.604,0.992,3.938,2.295,3.938,4.527c0,2.637-2.047,4.496-5.611,4.496
		c-1.645,0-3.164-0.402-4.217-1.023L57.967,57.566z"/>
	<path fill="#FFFFFF" d="M69.623,58.744c0-1.148,0.775-1.953,1.859-1.953c1.086,0,1.83,0.805,1.83,1.953
		c0,1.115-0.713,1.953-1.861,1.953C70.367,60.697,69.623,59.859,69.623,58.744z"/>
</g>
</svg>
