<?xml version="1.0" encoding="utf-8"?>
<!-- Generator: Adobe Illustrator 16.0.0, SVG Export Plug-In . SVG Version: 6.00 Build 0)  -->
<!DOCTYPE svg PUBLIC "-//W3C//DTD SVG 1.1//EN" "http://www.w3.org/Graphics/SVG/1.1/DTD/svg11.dtd">
<svg version="1.1" id="dab" xmlns="http://www.w3.org/2000/svg" xmlns:xlink="http://www.w3.org/1999/xlink" x="0px" y="0px"
	 width="94.582px" height="96.904px" viewBox="0 0 94.582 96.904" enable-background="new 0 0 94.582 96.904" xml:space="preserve">
<circle opacity="0.2" fill="#FFFFFF" cx="47.292" cy="48.452" r="46.904"/>
<g>
	<path fill="#FFFFFF" d="M26.059,38.068v12.767c0,4.832,2.144,6.88,5.023,6.88c3.2,0,5.248-2.112,5.248-6.88V38.068h2.815v12.575
		c0,6.623-3.488,9.344-8.159,9.344c-4.416,0-7.744-2.528-7.744-9.216V38.068H26.059z"/>
	<path fill="#FFFFFF" d="M46.667,51.251h0.064c0.384-0.543,0.928-1.215,1.376-1.76l4.543-5.344h3.393l-5.984,6.368l6.816,9.119
		h-3.424l-5.344-7.423l-1.44,1.6v5.823h-2.783V36.917h2.783V51.251z"/>
	<path fill="#FFFFFF" d="M59.436,48.979c0-1.824-0.033-3.392-0.129-4.832h2.465l0.096,3.04h0.127c0.705-2.079,2.4-3.392,4.289-3.392
		c0.318,0,0.543,0.032,0.799,0.096v2.656c-0.287-0.064-0.576-0.096-0.959-0.096c-1.984,0-3.393,1.504-3.775,3.615
		c-0.064,0.385-0.129,0.832-0.129,1.312v8.255h-2.783V48.979z"/>
	<path fill="#FFFFFF" d="M67.531,57.971c0-1.184,0.801-2.016,1.92-2.016c1.121,0,1.889,0.832,1.889,2.016
		c0,1.151-0.736,2.017-1.92,2.017C68.299,59.987,67.531,59.122,67.531,57.971z"/>
</g>
</svg>
