<?xml version="1.0" encoding="utf-8"?>
<!-- Generator: Adobe Illustrator 16.0.0, SVG Export Plug-In . SVG Version: 6.00 Build 0)  -->
<!DOCTYPE svg PUBLIC "-//W3C//DTD SVG 1.1//EN" "http://www.w3.org/Graphics/SVG/1.1/DTD/svg11.dtd">
<svg version="1.1" id="dab" xmlns="http://www.w3.org/2000/svg" xmlns:xlink="http://www.w3.org/1999/xlink" x="0px" y="0px"
	 width="100px" height="100px" viewBox="0 0 100 100" enable-background="new 0 0 100 100" xml:space="preserve">
<circle opacity="0.2" fill="#FFFFFF" cx="50" cy="50" r="46.904"/>
<circle opacity="0.2" fill="#FFFFFF" cx="50" cy="50" r="46.904"/>
<g>
	<path fill="#FFFFFF" d="M27.377,39.904c1.215-0.256,3.135-0.448,5.088-0.448c2.783,0,4.574,0.479,5.92,1.567
		c1.119,0.832,1.791,2.112,1.791,3.809c0,2.08-1.375,3.903-3.648,4.735v0.063c2.049,0.513,4.449,2.209,4.449,5.408
		c0,1.855-0.736,3.264-1.824,4.32c-1.504,1.375-3.936,2.016-7.455,2.016c-1.92,0-3.393-0.129-4.32-0.256V39.904z M30.16,48.735
		h2.527c2.945,0,4.672-1.536,4.672-3.616c0-2.527-1.92-3.52-4.734-3.52c-1.281,0-2.016,0.096-2.465,0.192V48.735z M30.16,59.07
		c0.545,0.097,1.344,0.129,2.336,0.129c2.881,0,5.535-1.057,5.535-4.192c0-2.943-2.527-4.159-5.566-4.159H30.16V59.07z"/>
	<path fill="#FFFFFF" d="M57.584,56.959c0,1.6,0.031,3.008,0.127,4.224h-2.496l-0.16-2.528h-0.062
		c-0.736,1.248-2.369,2.881-5.121,2.881c-2.432,0-5.342-1.344-5.342-6.784v-9.056h2.814v8.576c0,2.943,0.896,4.928,3.457,4.928
		c1.887,0,3.199-1.312,3.711-2.561c0.16-0.416,0.256-0.928,0.256-1.439v-9.504h2.816V56.959z"/>
	<path fill="#FFFFFF" d="M62.256,38.465h2.816v22.718h-2.816V38.465z"/>
	<path fill="#FFFFFF" d="M68.816,59.519c0-1.184,0.799-2.016,1.92-2.016c1.119,0,1.887,0.832,1.887,2.016
		c0,1.151-0.736,2.017-1.92,2.017C69.584,61.535,68.816,60.67,68.816,59.519z"/>
</g>
</svg>
