<?xml version="1.0" encoding="utf-8"?>
<!-- Generator: Adobe Illustrator 16.0.0, SVG Export Plug-In . SVG Version: 6.00 Build 0)  -->
<!DOCTYPE svg PUBLIC "-//W3C//DTD SVG 1.1//EN" "http://www.w3.org/Graphics/SVG/1.1/DTD/svg11.dtd">
<svg version="1.1" id="dab" xmlns="http://www.w3.org/2000/svg" xmlns:xlink="http://www.w3.org/1999/xlink" x="0px" y="0px"
	 width="100px" height="100px" viewBox="0 0 100 100" enable-background="new 0 0 100 100" xml:space="preserve">
<circle opacity="0.2" fill="#FFFFFF" cx="50" cy="50" r="46.904"/>
<g>
	<path fill="#FFFFFF" d="M27.889,39.041h2.783v19.23h9.215v2.336H27.889V39.041z"/>
	<path fill="#FFFFFF" d="M44.016,53.376c0.064,3.808,2.496,5.376,5.312,5.376c2.016,0,3.232-0.353,4.287-0.801l0.48,2.016
		c-0.992,0.449-2.688,0.961-5.152,0.961c-4.768,0-7.615-3.137-7.615-7.808c0-4.672,2.752-8.352,7.264-8.352
		c5.057,0,6.4,4.448,6.4,7.296c0,0.576-0.064,1.023-0.096,1.312H44.016z M52.271,51.359c0.033-1.791-0.736-4.574-3.902-4.574
		c-2.85,0-4.096,2.623-4.32,4.574H52.271z"/>
	<path fill="#FFFFFF" d="M61.871,40.673v4.448h4.033v2.143h-4.033v8.352c0,1.92,0.545,3.008,2.113,3.008
		c0.734,0,1.279-0.096,1.631-0.191l0.129,2.111c-0.545,0.225-1.408,0.385-2.496,0.385c-1.312,0-2.369-0.416-3.041-1.184
		c-0.799-0.832-1.088-2.209-1.088-4.032v-8.448h-2.398v-2.143h2.398v-3.713L61.871,40.673z"/>
	<path fill="#FFFFFF" d="M68.305,58.943c0-1.184,0.799-2.016,1.92-2.016c1.119,0,1.887,0.832,1.887,2.016
		c0,1.152-0.736,2.016-1.92,2.016C69.072,60.959,68.305,60.096,68.305,58.943z"/>
</g>
</svg>
