<?xml version="1.0" encoding="utf-8"?>
<!-- Generator: Adobe Illustrator 16.0.0, SVG Export Plug-In . SVG Version: 6.00 Build 0)  -->
<!DOCTYPE svg PUBLIC "-//W3C//DTD SVG 1.1//EN" "http://www.w3.org/Graphics/SVG/1.1/DTD/svg11.dtd">
<svg version="1.1" id="dab" xmlns="http://www.w3.org/2000/svg" xmlns:xlink="http://www.w3.org/1999/xlink" x="0px" y="0px"
	 width="100px" height="100px" viewBox="0 0 100 100" enable-background="new 0 0 100 100" xml:space="preserve">
<circle opacity="0.2" fill="#FFFFFF" cx="50" cy="50" r="46.904"/>
<circle opacity="0.2" fill="#FFFFFF" cx="50" cy="50" r="46.904"/>
<g>
	<path fill="#FFFFFF" d="M24.8,39.408c1.216-0.256,3.136-0.447,5.088-0.447c2.784,0,4.575,0.479,5.92,1.566
		c1.119,0.832,1.791,2.113,1.791,3.809c0,2.08-1.375,3.904-3.647,4.736v0.062c2.048,0.514,4.448,2.209,4.448,5.408
		c0,1.855-0.736,3.264-1.824,4.32c-1.504,1.375-3.936,2.016-7.455,2.016c-1.92,0-3.393-0.129-4.32-0.256V39.408z M27.584,48.24
		h2.527c2.944,0,4.672-1.537,4.672-3.617c0-2.527-1.92-3.52-4.735-3.52c-1.28,0-2.016,0.096-2.464,0.193V48.24z M27.584,58.574
		c0.544,0.098,1.344,0.129,2.336,0.129c2.88,0,5.535-1.057,5.535-4.191c0-2.943-2.527-4.16-5.567-4.16h-2.304V58.574z"/>
	<path fill="#FFFFFF" d="M56.19,52.814c0,5.729-3.968,8.225-7.711,8.225c-4.192,0-7.424-3.072-7.424-7.967
		c0-5.186,3.392-8.225,7.68-8.225C53.183,44.848,56.19,48.08,56.19,52.814z M43.903,52.975c0,3.393,1.952,5.953,4.704,5.953
		c2.688,0,4.703-2.529,4.703-6.016c0-2.625-1.312-5.953-4.64-5.953C45.344,46.959,43.903,50.031,43.903,52.975z"/>
	<path fill="#FFFFFF" d="M59.36,57.807c0.832,0.545,2.304,1.121,3.712,1.121c2.048,0,3.007-1.025,3.007-2.305
		c0-1.344-0.8-2.08-2.879-2.848c-2.784-0.992-4.096-2.527-4.096-4.385c0-2.494,2.016-4.543,5.343-4.543
		c1.568,0,2.944,0.447,3.809,0.961l-0.704,2.047c-0.608-0.383-1.729-0.896-3.168-0.896c-1.664,0-2.592,0.961-2.592,2.113
		c0,1.279,0.928,1.855,2.943,2.623c2.688,1.023,4.064,2.367,4.064,4.672c0,2.719-2.112,4.639-5.792,4.639
		c-1.696,0-3.264-0.416-4.352-1.055L59.36,57.807z"/>
	<path fill="#FFFFFF" d="M71.393,59.023c0-1.184,0.8-2.016,1.92-2.016S75.2,57.84,75.2,59.023c0,1.15-0.736,2.016-1.92,2.016
		C72.16,61.039,71.393,60.174,71.393,59.023z"/>
</g>
</svg>
