<?xml version="1.0" encoding="utf-8"?>
<!-- Generator: Adobe Illustrator 16.0.0, SVG Export Plug-In . SVG Version: 6.00 Build 0)  -->
<!DOCTYPE svg PUBLIC "-//W3C//DTD SVG 1.1//EN" "http://www.w3.org/Graphics/SVG/1.1/DTD/svg11.dtd">
<svg version="1.1" id="dab" xmlns="http://www.w3.org/2000/svg" xmlns:xlink="http://www.w3.org/1999/xlink" x="0px" y="0px"
	 width="100px" height="100px" viewBox="0 0 100 100" enable-background="new 0 0 100 100" xml:space="preserve">
<circle opacity="0.2" fill="#FFFFFF" cx="50" cy="50" r="46.904"/>
<g>
	<path fill="#FFFFFF" d="M41.137,60.154c-0.992,0.496-2.977,0.992-5.519,0.992c-5.892,0-10.325-3.721-10.325-10.572
		c0-6.543,4.434-10.977,10.914-10.977c2.604,0,4.248,0.559,4.961,0.931l-0.651,2.201c-1.022-0.496-2.48-0.868-4.217-0.868
		c-4.898,0-8.154,3.132-8.154,8.619c0,5.116,2.945,8.403,8.03,8.403c1.644,0,3.318-0.341,4.403-0.868L41.137,60.154z"/>
	<path fill="#FFFFFF" d="M44.42,38.822h2.729v9.364h0.062c0.435-0.775,1.116-1.457,1.954-1.923c0.806-0.465,1.767-0.774,2.791-0.774
		c2.016,0,5.24,1.24,5.24,6.418v8.93h-2.729v-8.62c0-2.418-0.9-4.465-3.474-4.465c-1.768,0-3.163,1.24-3.659,2.729
		c-0.154,0.373-0.186,0.775-0.186,1.303v9.054H44.42V38.822z"/>
	<path fill="#FFFFFF" d="M64.787,41.521v4.31h3.908v2.077h-3.908V56c0,1.86,0.527,2.914,2.047,2.914c0.713,0,1.24-0.093,1.582-0.186
		l0.123,2.047c-0.527,0.217-1.363,0.371-2.418,0.371c-1.271,0-2.295-0.402-2.945-1.146c-0.775-0.807-1.055-2.14-1.055-3.907v-8.186
		h-2.325V45.83h2.325v-3.597L64.787,41.521z"/>
	<path fill="#FFFFFF" d="M71.018,59.225c0-1.147,0.775-1.953,1.861-1.953c1.084,0,1.828,0.806,1.828,1.953
		c0,1.116-0.713,1.953-1.859,1.953C71.762,61.178,71.018,60.341,71.018,59.225z"/>
</g>
</svg>
