<?xml version="1.0" encoding="utf-8"?>
<!-- Generator: Adobe Illustrator 16.0.0, SVG Export Plug-In . SVG Version: 6.00 Build 0)  -->
<!DOCTYPE svg PUBLIC "-//W3C//DTD SVG 1.1//EN" "http://www.w3.org/Graphics/SVG/1.1/DTD/svg11.dtd">
<svg version="1.1" id="dab" xmlns="http://www.w3.org/2000/svg" xmlns:xlink="http://www.w3.org/1999/xlink" x="0px" y="0px"
	 width="100px" height="100px" viewBox="0 0 100 100" enable-background="new 0 0 100 100" xml:space="preserve">
<circle opacity="0.2" fill="#FFFFFF" cx="50" cy="50" r="46.904"/>
<g>
	<path fill="#FFFFFF" d="M39.536,59.951c-1.248,0.448-3.713,1.185-6.625,1.185c-3.264,0-5.951-0.832-8.062-2.849
		c-1.855-1.792-3.008-4.671-3.008-8.031c0.031-6.432,4.447-11.136,11.68-11.136c2.496,0,4.447,0.545,5.375,0.992l-0.672,2.271
		c-1.152-0.512-2.592-0.928-4.768-0.928c-5.248,0-8.672,3.264-8.672,8.672c0,5.472,3.297,8.703,8.32,8.703
		c1.824,0,3.072-0.256,3.711-0.576v-6.432h-4.383v-2.239h7.104V59.951z"/>
	<path fill="#FFFFFF" d="M52.528,60.911l-0.225-1.951h-0.096c-0.863,1.215-2.527,2.303-4.736,2.303
		c-3.135,0-4.734-2.207-4.734-4.447c0-3.744,3.326-5.791,9.311-5.76v-0.32c0-1.279-0.352-3.583-3.52-3.583
		c-1.439,0-2.943,0.448-4.031,1.151l-0.641-1.855c1.279-0.832,3.137-1.376,5.088-1.376c4.736,0,5.887,3.231,5.887,6.335v5.792
		c0,1.345,0.064,2.655,0.256,3.712H52.528z M52.112,53.008c-3.072-0.063-6.561,0.479-6.561,3.487c0,1.824,1.217,2.688,2.656,2.688
		c2.016,0,3.297-1.279,3.744-2.592c0.096-0.287,0.16-0.607,0.16-0.896V53.008z"/>
	<path fill="#FFFFFF" d="M60.944,53.68c0.064,3.808,2.496,5.376,5.311,5.376c2.018,0,3.232-0.353,4.289-0.801l0.48,2.016
		c-0.992,0.449-2.689,0.961-5.152,0.961c-4.768,0-7.615-3.137-7.615-7.808c0-4.672,2.752-8.352,7.264-8.352
		c5.055,0,6.398,4.448,6.398,7.296c0,0.576-0.064,1.023-0.096,1.312H60.944z M69.2,51.663c0.031-1.791-0.736-4.574-3.904-4.574
		c-2.848,0-4.096,2.623-4.32,4.574H69.2z M69.872,38.737l-3.904,4.575h-2.016l2.816-4.575H69.872z"/>
	<path fill="#FFFFFF" d="M74.353,59.247c0-1.184,0.799-2.016,1.92-2.016c1.119,0,1.887,0.832,1.887,2.016
		c0,1.152-0.736,2.016-1.92,2.016C75.12,61.263,74.353,60.399,74.353,59.247z"/>
</g>
</svg>
