<?xml version="1.0" encoding="utf-8"?>
<!-- Generator: Adobe Illustrator 16.0.0, SVG Export Plug-In . SVG Version: 6.00 Build 0)  -->
<!DOCTYPE svg PUBLIC "-//W3C//DTD SVG 1.1//EN" "http://www.w3.org/Graphics/SVG/1.1/DTD/svg11.dtd">
<svg version="1.1" id="dab" xmlns="http://www.w3.org/2000/svg" xmlns:xlink="http://www.w3.org/1999/xlink" x="0px" y="0px"
	 width="100px" height="100px" viewBox="0 0 100 100" enable-background="new 0 0 100 100" xml:space="preserve">
<circle opacity="0.2" fill="#FFFFFF" cx="50" cy="50" r="46.904"/>
<g>
	<path fill="#FFFFFF" d="M28.24,39.633c1.217-0.256,3.137-0.448,5.088-0.448c2.785,0,4.576,0.48,5.92,1.568
		c1.119,0.832,1.791,2.111,1.791,3.808c0,2.08-1.375,3.903-3.646,4.735v0.064c2.047,0.512,4.447,2.208,4.447,5.407
		c0,1.856-0.736,3.264-1.824,4.319c-1.504,1.377-3.936,2.016-7.455,2.016c-1.92,0-3.393-0.127-4.32-0.256V39.633z M31.025,48.464
		h2.527c2.943,0,4.672-1.535,4.672-3.615c0-2.528-1.92-3.52-4.736-3.52c-1.279,0-2.016,0.096-2.463,0.191V48.464z M31.025,58.8
		c0.543,0.096,1.344,0.127,2.336,0.127c2.879,0,5.535-1.055,5.535-4.191c0-2.943-2.527-4.159-5.568-4.159h-2.303V58.8z"/>
	<path fill="#FFFFFF" d="M48.625,41.073c0.031,0.96-0.672,1.728-1.793,1.728c-0.992,0-1.695-0.768-1.695-1.728
		c0-0.992,0.736-1.761,1.76-1.761C47.953,39.312,48.625,40.081,48.625,41.073z M45.488,60.911V45.425h2.816v15.486H45.488z"/>
	<path fill="#FFFFFF" d="M54.543,53.68c0.064,3.808,2.496,5.376,5.312,5.376c2.016,0,3.232-0.353,4.287-0.801l0.48,2.016
		c-0.992,0.449-2.688,0.961-5.152,0.961c-4.768,0-7.615-3.137-7.615-7.808c0-4.672,2.752-8.352,7.264-8.352
		c5.057,0,6.4,4.448,6.4,7.296c0,0.576-0.064,1.023-0.096,1.312H54.543z M62.799,51.664c0.033-1.792-0.736-4.575-3.902-4.575
		c-2.85,0-4.096,2.623-4.32,4.575H62.799z M63.471,38.737l-3.902,4.575h-2.018l2.816-4.575H63.471z"/>
	<path fill="#FFFFFF" d="M67.951,59.247c0-1.184,0.801-2.016,1.92-2.016c1.121,0,1.889,0.832,1.889,2.016
		c0,1.152-0.736,2.016-1.92,2.016C68.719,61.263,67.951,60.399,67.951,59.247z"/>
</g>
</svg>
