<?xml version="1.0" encoding="utf-8"?>
<!-- Generator: Adobe Illustrator 16.0.0, SVG Export Plug-In . SVG Version: 6.00 Build 0)  -->
<!DOCTYPE svg PUBLIC "-//W3C//DTD SVG 1.1//EN" "http://www.w3.org/Graphics/SVG/1.1/DTD/svg11.dtd">
<svg version="1.1" id="dab" xmlns="http://www.w3.org/2000/svg" xmlns:xlink="http://www.w3.org/1999/xlink" x="0px" y="0px"
	 width="100px" height="96.904px" viewBox="0 0 100 96.904" enable-background="new 0 0 100 96.904" xml:space="preserve">
<circle opacity="0.2" fill="#FFFFFF" cx="50" cy="48.452" r="46.904"/>
<g>
	<path fill="#FFFFFF" d="M33.375,39.861h-6.56v-2.369h15.967v2.369h-6.591v19.197h-2.816V39.861z"/>
	<path fill="#FFFFFF" d="M56.608,54.836c0,1.6,0.032,3.008,0.128,4.223H54.24l-0.16-2.527h-0.063
		c-0.736,1.248-2.368,2.881-5.12,2.881c-2.432,0-5.343-1.344-5.343-6.785v-9.055h2.815v8.576c0,2.943,0.896,4.928,3.456,4.928
		c1.888,0,3.199-1.312,3.711-2.561c0.16-0.416,0.257-0.928,0.257-1.439v-9.504h2.815V54.836z"/>
	<path fill="#FFFFFF" d="M61.28,48.404c0-1.824-0.032-3.393-0.128-4.832h2.464l0.096,3.039h0.128c0.704-2.078,2.4-3.391,4.288-3.391
		c0.319,0,0.544,0.031,0.8,0.096v2.656c-0.288-0.064-0.576-0.096-0.96-0.096c-1.984,0-3.392,1.504-3.775,3.615
		c-0.064,0.385-0.129,0.832-0.129,1.312v8.254H61.28V48.404z"/>
	<path fill="#FFFFFF" d="M69.376,57.395c0-1.184,0.8-2.016,1.92-2.016s1.888,0.832,1.888,2.016c0,1.152-0.736,2.018-1.92,2.018
		C70.144,59.412,69.376,58.547,69.376,57.395z"/>
</g>
</svg>
