<?xml version="1.0" encoding="utf-8"?>
<!-- Generator: Adobe Illustrator 16.0.0, SVG Export Plug-In . SVG Version: 6.00 Build 0)  -->
<!DOCTYPE svg PUBLIC "-//W3C//DTD SVG 1.1//EN" "http://www.w3.org/Graphics/SVG/1.1/DTD/svg11.dtd">
<svg version="1.1" id="dab" xmlns="http://www.w3.org/2000/svg" xmlns:xlink="http://www.w3.org/1999/xlink" x="0px" y="0px"
	 width="100px" height="100px" viewBox="0 0 100 100" enable-background="new 0 0 100 100" xml:space="preserve">
<circle opacity="0.2" fill="#FFFFFF" cx="50" cy="50" r="46.904"/>
<g>
	<path fill="#FFFFFF" d="M32.576,37.186h2.784v19.23h9.215v2.336H32.576V37.186z"/>
	<path fill="#FFFFFF" d="M50.72,38.914c0.032,0.959-0.672,1.727-1.792,1.727c-0.992,0-1.696-0.768-1.696-1.727
		c0-0.992,0.736-1.761,1.761-1.761C50.048,37.153,50.72,37.922,50.72,38.914z M47.584,58.752V43.266h2.815v15.486H47.584z"/>
	<path fill="#FFFFFF" d="M58.464,38.817v4.448h4.032v2.143h-4.032v8.352c0,1.92,0.544,3.008,2.112,3.008
		c0.735,0,1.279-0.096,1.632-0.191l0.128,2.111c-0.544,0.225-1.408,0.385-2.496,0.385c-1.312,0-2.368-0.416-3.04-1.184
		c-0.8-0.832-1.088-2.209-1.088-4.032v-8.448h-2.399v-2.143h2.399v-3.713L58.464,38.817z"/>
	<path fill="#FFFFFF" d="M64.896,57.088c0-1.184,0.8-2.016,1.92-2.016s1.888,0.832,1.888,2.016c0,1.152-0.736,2.016-1.92,2.016
		C65.664,59.104,64.896,58.24,64.896,57.088z"/>
</g>
</svg>
