<?xml version="1.0" encoding="utf-8"?>
<!-- Generator: Adobe Illustrator 16.0.0, SVG Export Plug-In . SVG Version: 6.00 Build 0)  -->
<!DOCTYPE svg PUBLIC "-//W3C//DTD SVG 1.1//EN" "http://www.w3.org/Graphics/SVG/1.1/DTD/svg11.dtd">
<svg version="1.1" id="dab" xmlns="http://www.w3.org/2000/svg" xmlns:xlink="http://www.w3.org/1999/xlink" x="0px" y="0px"
	 width="100px" height="100px" viewBox="0 0 100 100" enable-background="new 0 0 100 100" xml:space="preserve">
<circle opacity="0.2" fill="#FFFFFF" cx="50" cy="50" r="46.904"/>
<g>
	<path fill="#FFFFFF" d="M30.544,54.399l-2.24,6.784h-2.88l7.327-21.566h3.36l7.359,21.566h-2.976l-2.304-6.784H30.544z
		 M37.615,52.224l-2.112-6.208c-0.479-1.408-0.8-2.688-1.119-3.936h-0.064c-0.32,1.28-0.672,2.592-1.088,3.904l-2.112,6.239H37.615z
		"/>
	<path fill="#FFFFFF" d="M46.448,38.465h2.815v22.718h-2.815V38.465z"/>
	<path fill="#FFFFFF" d="M53.872,61.183c0.063-1.056,0.128-2.624,0.128-4V38.465h2.784v9.727h0.063
		c0.992-1.728,2.784-2.848,5.279-2.848c3.84,0,6.56,3.2,6.528,7.903c0,5.536-3.488,8.288-6.944,8.288
		c-2.239,0-4.031-0.864-5.184-2.912h-0.096l-0.128,2.56H53.872z M56.784,54.976c0,0.352,0.063,0.704,0.128,1.024
		c0.544,1.952,2.176,3.296,4.224,3.296c2.943,0,4.703-2.4,4.703-5.952c0-3.104-1.6-5.76-4.607-5.76c-1.92,0-3.712,1.312-4.288,3.456
		c-0.063,0.32-0.159,0.704-0.159,1.152V54.976z"/>
	<path fill="#FFFFFF" d="M70.769,59.519c0-1.184,0.8-2.016,1.92-2.016s1.888,0.832,1.888,2.016c0,1.152-0.736,2.016-1.92,2.016
		C71.536,61.535,70.769,60.671,70.769,59.519z"/>
</g>
</svg>
