<?xml version="1.0" encoding="utf-8"?>
<!-- Generator: Adobe Illustrator 16.0.0, SVG Export Plug-In . SVG Version: 6.00 Build 0)  -->
<!DOCTYPE svg PUBLIC "-//W3C//DTD SVG 1.1//EN" "http://www.w3.org/Graphics/SVG/1.1/DTD/svg11.dtd">
<svg version="1.1" id="dab" xmlns="http://www.w3.org/2000/svg" xmlns:xlink="http://www.w3.org/1999/xlink" x="0px" y="0px"
	 width="100px" height="100px" viewBox="0 0 100 100" enable-background="new 0 0 100 100" xml:space="preserve">
<circle opacity="0.2" fill="#FFFFFF" cx="50" cy="50" r="46.904"/>
<g>
	<path fill="#FFFFFF" d="M42.175,59.767c-0.992,0.496-2.977,0.992-5.518,0.992c-5.893,0-10.326-3.721-10.326-10.572
		c0-6.543,4.434-10.977,10.914-10.977c2.605,0,4.248,0.559,4.961,0.93l-0.65,2.201c-1.023-0.496-2.48-0.867-4.217-0.867
		c-4.898,0-8.154,3.131-8.154,8.619c0,5.115,2.945,8.402,8.029,8.402c1.645,0,3.318-0.341,4.404-0.867L42.175,59.767z"/>
	<path fill="#FFFFFF" d="M58.698,52.821c0,5.551-3.844,7.969-7.473,7.969c-4.061,0-7.193-2.977-7.193-7.721
		c0-5.023,3.287-7.969,7.441-7.969C55.784,45.101,58.698,48.232,58.698,52.821z M46.792,52.976c0,3.287,1.892,5.768,4.559,5.768
		c2.604,0,4.557-2.449,4.557-5.828c0-2.543-1.271-5.768-4.495-5.768S46.792,50.124,46.792,52.976z"/>
	<path fill="#FFFFFF" d="M62.136,50.124c0-1.768-0.03-3.287-0.123-4.682h2.387l0.094,2.945h0.123
		c0.684-2.016,2.326-3.287,4.156-3.287c0.309,0,0.526,0.031,0.774,0.094v2.572c-0.278-0.061-0.558-0.092-0.931-0.092
		c-1.922,0-3.286,1.457-3.658,3.504c-0.062,0.371-0.124,0.805-0.124,1.271v7.999h-2.698V50.124z"/>
	<path fill="#FFFFFF" d="M69.979,58.837c0-1.148,0.775-1.953,1.86-1.953s1.829,0.805,1.829,1.953c0,1.115-0.713,1.953-1.859,1.953
		C70.724,60.79,69.979,59.952,69.979,58.837z"/>
</g>
</svg>
