<?xml version="1.0" encoding="utf-8"?>
<!-- Generator: Adobe Illustrator 16.0.0, SVG Export Plug-In . SVG Version: 6.00 Build 0)  -->
<!DOCTYPE svg PUBLIC "-//W3C//DTD SVG 1.1//EN" "http://www.w3.org/Graphics/SVG/1.1/DTD/svg11.dtd">
<svg version="1.1" id="dab" xmlns="http://www.w3.org/2000/svg" xmlns:xlink="http://www.w3.org/1999/xlink" x="0px" y="0px"
	 width="100px" height="100px" viewBox="0 0 100 100" enable-background="new 0 0 100 100" xml:space="preserve">
<circle opacity="0.2" fill="#FFFFFF" cx="50" cy="50" r="46.904"/>
<g>
	<path fill="#FFFFFF" d="M27.912,39.706c1.303-0.218,3.008-0.403,5.178-0.403c2.667,0,4.62,0.621,5.86,1.736
		c1.147,0.992,1.829,2.512,1.829,4.372c0,1.892-0.558,3.38-1.612,4.465c-1.426,1.519-3.751,2.294-6.387,2.294
		c-0.807,0-1.551-0.031-2.171-0.186v8.371h-2.697V39.706z M30.609,49.783C31.199,49.938,31.943,50,32.842,50
		c3.256,0,5.24-1.582,5.24-4.465c0-2.76-1.953-4.093-4.93-4.093c-1.179,0-2.078,0.093-2.543,0.218V49.783z"/>
	<path fill="#FFFFFF" d="M57.117,52.729c0,5.551-3.845,7.969-7.473,7.969c-4.062,0-7.193-2.977-7.193-7.721
		c0-5.023,3.287-7.969,7.441-7.969C54.202,45.008,57.117,48.14,57.117,52.729z M45.211,52.883c0,3.287,1.891,5.768,4.558,5.768
		c2.604,0,4.558-2.449,4.558-5.828c0-2.543-1.271-5.768-4.496-5.768S45.211,50.031,45.211,52.883z"/>
	<path fill="#FFFFFF" d="M60.555,50.031c0-1.768-0.031-3.287-0.124-4.682h2.388l0.093,2.945h0.124
		c0.683-2.016,2.326-3.287,4.155-3.287c0.31,0,0.526,0.031,0.774,0.094v2.572c-0.278-0.061-0.558-0.092-0.93-0.092
		c-1.922,0-3.287,1.457-3.658,3.504c-0.062,0.371-0.125,0.805-0.125,1.271v7.999h-2.697V50.031z"/>
	<path fill="#FFFFFF" d="M68.398,58.744c0-1.148,0.774-1.953,1.859-1.953c1.086,0,1.83,0.805,1.83,1.953
		c0,1.115-0.713,1.953-1.86,1.953C69.143,60.697,68.398,59.859,68.398,58.744z"/>
</g>
</svg>
