<?xml version="1.0" encoding="utf-8"?>
<!-- Generator: Adobe Illustrator 16.0.0, SVG Export Plug-In . SVG Version: 6.00 Build 0)  -->
<!DOCTYPE svg PUBLIC "-//W3C//DTD SVG 1.1//EN" "http://www.w3.org/Graphics/SVG/1.1/DTD/svg11.dtd">
<svg version="1.1" id="dab" xmlns="http://www.w3.org/2000/svg" xmlns:xlink="http://www.w3.org/1999/xlink" x="0px" y="0px"
	 width="100px" height="100px" viewBox="0 0 100 100" enable-background="new 0 0 100 100" xml:space="preserve">
<circle opacity="0.2" fill="#FFFFFF" cx="50" cy="50" r="46.904"/>
<g>
	<path fill="#FFFFFF" d="M30.796,53.705l-2.172,6.573h-2.789l7.1-20.897h3.256l7.131,20.897h-2.883l-2.232-6.573H30.796z
		 M37.647,51.597l-2.047-6.015c-0.465-1.364-0.775-2.604-1.084-3.814h-0.062c-0.311,1.24-0.651,2.512-1.055,3.783l-2.047,6.046
		H37.647z"/>
	<path fill="#FFFFFF" d="M46.202,49.953c0-1.767-0.031-3.286-0.125-4.682h2.389l0.092,2.945h0.125
		c0.682-2.015,2.325-3.286,4.154-3.286c0.311,0,0.527,0.031,0.775,0.093v2.573c-0.279-0.062-0.559-0.093-0.93-0.093
		c-1.923,0-3.287,1.457-3.659,3.504c-0.062,0.372-0.124,0.806-0.124,1.271v7.999h-2.697V49.953z"/>
	<path fill="#FFFFFF" d="M64.493,60.278l-0.217-1.892h-0.094c-0.836,1.179-2.449,2.232-4.588,2.232c-3.039,0-4.59-2.139-4.59-4.31
		c0-3.628,3.225-5.612,9.023-5.581v-0.31c0-1.24-0.342-3.473-3.41-3.473c-1.396,0-2.854,0.434-3.907,1.116l-0.62-1.799
		c1.24-0.806,3.039-1.333,4.93-1.333c4.59,0,5.705,3.132,5.705,6.139v5.612c0,1.303,0.062,2.573,0.248,3.597H64.493z M64.091,52.62
		c-2.977-0.062-6.357,0.465-6.357,3.38c0,1.767,1.18,2.604,2.574,2.604c1.953,0,3.193-1.24,3.627-2.512
		c0.094-0.279,0.156-0.589,0.156-0.868V52.62z"/>
	<path fill="#FFFFFF" d="M70.475,58.666c0-1.147,0.774-1.953,1.86-1.953s1.83,0.806,1.83,1.953c0,1.116-0.714,1.953-1.861,1.953
		C71.219,60.619,70.475,59.782,70.475,58.666z"/>
</g>
</svg>
