<?xml version="1.0" encoding="utf-8"?>
<!-- Generator: Adobe Illustrator 16.0.0, SVG Export Plug-In . SVG Version: 6.00 Build 0)  -->
<!DOCTYPE svg PUBLIC "-//W3C//DTD SVG 1.1//EN" "http://www.w3.org/Graphics/SVG/1.1/DTD/svg11.dtd">
<svg version="1.1" id="dab" xmlns="http://www.w3.org/2000/svg" xmlns:xlink="http://www.w3.org/1999/xlink" x="0px" y="0px"
	 width="96.902px" height="96.904px" viewBox="0 0 96.902 96.904" enable-background="new 0 0 96.902 96.904" xml:space="preserve">
<circle opacity="0.2" fill="#FFFFFF" enable-background="new    " cx="48.451" cy="48.452" r="46.904"/>
<g>
	<path fill="#FFFFFF" d="M40.754,58.099c-1.248,0.447-3.711,1.184-6.623,1.184c-3.264,0-5.951-0.832-8.062-2.848
		c-1.856-1.792-3.008-4.672-3.008-8.031c0.031-6.432,4.447-11.135,11.678-11.135c2.496,0,4.447,0.544,5.378,0.99l-0.673,2.272
		c-1.151-0.513-2.592-0.929-4.77-0.929c-5.246,0-8.67,3.265-8.67,8.672c0,5.472,3.295,8.703,8.317,8.703
		c1.824,0,3.072-0.256,3.714-0.576v-6.431H33.65v-2.24h7.104V58.099z"/>
	<path fill="#FFFFFF" d="M44.916,48.403c0-1.824-0.033-3.393-0.129-4.832h2.465l0.096,3.04h0.127c0.705-2.08,2.4-3.393,4.289-3.393
		c0.318,0,0.543,0.032,0.799,0.097v2.656c-0.287-0.064-0.576-0.097-0.959-0.097c-1.983,0-3.393,1.504-3.774,3.615
		c-0.064,0.384-0.129,0.832-0.129,1.312v8.257h-2.783L44.916,48.403L44.916,48.403z"/>
	<path fill="#FFFFFF" d="M56.627,51.827c0.063,3.808,2.496,5.376,5.312,5.376c2.017,0,3.232-0.353,4.287-0.801l0.48,2.017
		c-0.992,0.447-2.688,0.96-5.152,0.96c-4.768,0-7.615-3.136-7.615-7.808s2.752-8.353,7.265-8.353c5.057,0,6.399,4.447,6.399,7.297
		c0,0.574-0.063,1.022-0.096,1.312H56.627z M64.883,49.812c0.033-1.792-0.736-4.576-3.902-4.576c-2.85,0-4.096,2.624-4.319,4.576
		H64.883z"/>
	<path fill="#FFFFFF" d="M70.035,57.395c0-1.185,0.801-2.017,1.92-2.017c1.121,0,1.889,0.832,1.889,2.017
		c0,1.151-0.736,2.016-1.92,2.016C70.803,59.41,70.035,58.547,70.035,57.395z"/>
</g>
</svg>
