<?xml version="1.0" encoding="utf-8"?>
<!-- Generator: Adobe Illustrator 16.0.0, SVG Export Plug-In . SVG Version: 6.00 Build 0)  -->
<!DOCTYPE svg PUBLIC "-//W3C//DTD SVG 1.1//EN" "http://www.w3.org/Graphics/SVG/1.1/DTD/svg11.dtd">
<svg version="1.1" id="dab" xmlns="http://www.w3.org/2000/svg" xmlns:xlink="http://www.w3.org/1999/xlink" x="0px" y="0px"
	 width="96.776px" height="100px" viewBox="0 0 96.776 100" enable-background="new 0 0 96.776 100" xml:space="preserve">
<circle opacity="0.2" fill="#FFFFFF" cx="48.388" cy="50" r="46.904"/>
<g>
	<path fill="#FFFFFF" d="M33.059,39.381v20.898h-2.697V39.381H33.059z"/>
	<path fill="#FFFFFF" d="M41.46,40.963v4.309h3.906v2.078H41.46v8.092c0,1.861,0.527,2.915,2.046,2.915
		c0.713,0,1.24-0.093,1.582-0.187l0.124,2.047c-0.527,0.217-1.364,0.372-2.418,0.372c-1.271,0-2.294-0.403-2.945-1.147
		c-0.775-0.807-1.055-2.139-1.055-3.906V47.35h-2.325v-2.078h2.325v-3.596L41.46,40.963z"/>
	<path fill="#FFFFFF" d="M56.744,60.279l-0.217-1.893h-0.094c-0.838,1.18-2.449,2.232-4.588,2.232c-3.04,0-4.589-2.139-4.589-4.309
		c0-3.629,3.225-5.613,9.023-5.582v-0.31c0-1.24-0.342-3.473-3.412-3.473c-1.395,0-2.852,0.435-3.906,1.116l-0.62-1.799
		c1.24-0.806,3.038-1.332,4.93-1.332c4.588,0,5.705,3.131,5.705,6.139v5.611c0,1.303,0.062,2.574,0.248,3.598H56.744z M56.34,52.621
		c-2.977-0.062-6.355,0.465-6.355,3.379c0,1.768,1.177,2.604,2.574,2.604c1.953,0,3.193-1.24,3.627-2.511
		c0.094-0.279,0.154-0.59,0.154-0.869V52.621z"/>
	<path fill="#FFFFFF" d="M62.725,58.666c0-1.146,0.775-1.953,1.861-1.953c1.084,0,1.828,0.807,1.828,1.953
		c0,1.117-0.713,1.953-1.859,1.953C63.469,60.619,62.725,59.783,62.725,58.666z"/>
</g>
</svg>
