<?xml version="1.0" encoding="utf-8"?>
<!-- Generator: Adobe Illustrator 16.0.0, SVG Export Plug-In . SVG Version: 6.00 Build 0)  -->
<!DOCTYPE svg PUBLIC "-//W3C//DTD SVG 1.1//EN" "http://www.w3.org/Graphics/SVG/1.1/DTD/svg11.dtd">
<svg version="1.1" id="dab" xmlns="http://www.w3.org/2000/svg" xmlns:xlink="http://www.w3.org/1999/xlink" x="0px" y="0px"
	 width="100px" height="96.904px" viewBox="0 0 100 96.904" enable-background="new 0 0 100 96.904" xml:space="preserve">
<circle opacity="0.2" fill="#FFFFFF" cx="50" cy="48.452" r="46.904"/>
<g>
	<path fill="#FFFFFF" d="M30.943,40.437h-6.56v-2.368h15.967v2.368H33.76v19.198h-2.816V40.437z"/>
	<path fill="#FFFFFF" d="M51.424,59.059c-0.736,0.384-2.368,0.896-4.447,0.896c-4.672,0-7.712-3.167-7.712-7.902
		c0-4.768,3.264-8.224,8.319-8.224c1.664,0,3.136,0.415,3.904,0.8l-0.641,2.176c-0.672-0.384-1.728-0.736-3.264-0.736
		c-3.552,0-5.472,2.624-5.472,5.855c0,3.584,2.304,5.792,5.376,5.792c1.6,0,2.655-0.416,3.456-0.769L51.424,59.059z"/>
	<path fill="#FFFFFF" d="M54.721,36.917h2.815v9.662h0.064c0.448-0.799,1.151-1.504,2.016-1.983c0.832-0.479,1.824-0.8,2.88-0.8
		c2.08,0,5.407,1.279,5.407,6.623v9.216h-2.815v-8.896c0-2.496-0.928-4.607-3.584-4.607c-1.823,0-3.264,1.279-3.775,2.816
		c-0.16,0.383-0.192,0.799-0.192,1.344v9.343h-2.815V36.917z"/>
	<path fill="#FFFFFF" d="M71.809,57.971c0-1.184,0.8-2.016,1.92-2.016s1.888,0.832,1.888,2.016c0,1.151-0.736,2.017-1.92,2.017
		C72.576,59.987,71.809,59.122,71.809,57.971z"/>
</g>
</svg>
