<?xml version="1.0" encoding="utf-8"?>
<!-- Generator: Adobe Illustrator 16.0.0, SVG Export Plug-In . SVG Version: 6.00 Build 0)  -->
<!DOCTYPE svg PUBLIC "-//W3C//DTD SVG 1.1//EN" "http://www.w3.org/Graphics/SVG/1.1/DTD/svg11.dtd">
<svg version="1.1" id="dab" xmlns="http://www.w3.org/2000/svg" xmlns:xlink="http://www.w3.org/1999/xlink" x="0px" y="0px"
	 width="100px" height="100px" viewBox="0 0 100 100" enable-background="new 0 0 100 100" xml:space="preserve">
<circle opacity="0.2" fill="#FFFFFF" cx="50" cy="50" r="46.904"/>
<g>
	<path fill="#FFFFFF" d="M42.062,60.207c-1.024,0.513-3.072,1.024-5.695,1.024c-6.08,0-10.655-3.84-10.655-10.912
		c0-6.751,4.575-11.326,11.263-11.326c2.688,0,4.384,0.576,5.12,0.959l-0.673,2.272c-1.056-0.513-2.56-0.896-4.352-0.896
		c-5.056,0-8.415,3.231-8.415,8.895c0,5.279,3.04,8.672,8.287,8.672c1.696,0,3.424-0.352,4.544-0.896L42.062,60.207z"/>
	<path fill="#FFFFFF" d="M45.359,50.256c0-1.823-0.032-3.392-0.128-4.831h2.464l0.096,3.039h0.128c0.704-2.08,2.4-3.392,4.288-3.392
		c0.319,0,0.544,0.032,0.8,0.097v2.655c-0.288-0.063-0.576-0.097-0.96-0.097c-1.984,0-3.392,1.504-3.775,3.616
		c-0.064,0.384-0.129,0.832-0.129,1.312v8.256h-2.783V50.256z"/>
	<path fill="#FFFFFF" d="M57.071,53.68c0.064,3.808,2.496,5.376,5.312,5.376c2.017,0,3.232-0.353,4.288-0.801l0.48,2.016
		c-0.992,0.449-2.688,0.961-5.152,0.961c-4.768,0-7.615-3.137-7.615-7.808c0-4.672,2.752-8.352,7.264-8.352
		c5.056,0,6.399,4.448,6.399,7.296c0,0.576-0.064,1.023-0.096,1.312H57.071z M65.327,51.663c0.032-1.791-0.736-4.574-3.903-4.574
		c-2.849,0-4.096,2.623-4.32,4.574H65.327z M65.999,38.737l-3.903,4.575h-2.017l2.816-4.575H65.999z"/>
	<path fill="#FFFFFF" d="M70.48,59.247c0-1.184,0.8-2.016,1.92-2.016s1.888,0.832,1.888,2.016c0,1.152-0.736,2.016-1.92,2.016
		C71.248,61.263,70.48,60.399,70.48,59.247z"/>
</g>
</svg>
