<?xml version="1.0" encoding="utf-8"?>
<!-- Generator: Adobe Illustrator 16.0.0, SVG Export Plug-In . SVG Version: 6.00 Build 0)  -->
<!DOCTYPE svg PUBLIC "-//W3C//DTD SVG 1.1//EN" "http://www.w3.org/Graphics/SVG/1.1/DTD/svg11.dtd">
<svg version="1.1" id="dab" xmlns="http://www.w3.org/2000/svg" xmlns:xlink="http://www.w3.org/1999/xlink" x="0px" y="0px"
	 width="100px" height="100px" viewBox="0 0 100 100" enable-background="new 0 0 100 100" xml:space="preserve">
<circle opacity="0.2" fill="#FFFFFF" cx="50" cy="50" r="46.904"/>
<g>
	<path fill="#FFFFFF" d="M27.633,39.737c1.179-0.248,3.039-0.434,4.93-0.434c2.698,0,4.435,0.465,5.736,1.519
		c1.086,0.806,1.736,2.046,1.736,3.69c0,2.015-1.332,3.782-3.534,4.589v0.062c1.984,0.496,4.31,2.14,4.31,5.24
		c0,1.799-0.713,3.164-1.768,4.186c-1.457,1.334-3.812,1.955-7.225,1.955c-1.859,0-3.285-0.125-4.186-0.248V39.737z M30.33,48.294
		h2.45c2.853,0,4.526-1.488,4.526-3.503c0-2.45-1.859-3.411-4.588-3.411c-1.24,0-1.953,0.093-2.389,0.186V48.294z M30.33,58.311
		c0.527,0.092,1.303,0.123,2.264,0.123c2.791,0,5.365-1.023,5.365-4.062c0-2.852-2.45-4.03-5.396-4.03H30.33V58.311z"/>
	<path fill="#FFFFFF" d="M44.342,50.031c0-1.767-0.031-3.286-0.123-4.682h2.387l0.094,2.945h0.123
		c0.682-2.015,2.326-3.286,4.154-3.286c0.311,0,0.527,0.031,0.775,0.093v2.573c-0.279-0.062-0.558-0.093-0.93-0.093
		c-1.922,0-3.287,1.457-3.658,3.504c-0.062,0.371-0.125,0.805-0.125,1.271v7.998h-2.697V50.031z"/>
	<path fill="#FFFFFF" d="M55.688,53.35c0.062,3.689,2.419,5.209,5.147,5.209c1.953,0,3.131-0.342,4.154-0.775l0.465,1.953
		c-0.961,0.434-2.604,0.93-4.992,0.93c-4.619,0-7.379-3.039-7.379-7.564c0-4.528,2.666-8.093,7.039-8.093
		c4.898,0,6.201,4.31,6.201,7.07c0,0.557-0.062,0.992-0.094,1.271H55.688z M63.688,51.395c0.031-1.736-0.713-4.433-3.782-4.433
		c-2.759,0-3.969,2.542-4.187,4.433H63.688z"/>
	<path fill="#FFFFFF" d="M68.677,58.744c0-1.148,0.774-1.953,1.86-1.953s1.83,0.805,1.83,1.953c0,1.115-0.714,1.953-1.861,1.953
		C69.421,60.697,68.677,59.859,68.677,58.744z"/>
</g>
</svg>
