<?xml version="1.0" encoding="utf-8"?>
<!-- Generator: Adobe Illustrator 16.0.0, SVG Export Plug-In . SVG Version: 6.00 Build 0)  -->
<!DOCTYPE svg PUBLIC "-//W3C//DTD SVG 1.1//EN" "http://www.w3.org/Graphics/SVG/1.1/DTD/svg11.dtd">
<svg version="1.1" id="dab" xmlns="http://www.w3.org/2000/svg" xmlns:xlink="http://www.w3.org/1999/xlink" x="0px" y="0px"
	 width="94.582px" height="96.904px" viewBox="0 0 94.582 96.904" enable-background="new 0 0 94.582 96.904" xml:space="preserve">
<circle opacity="0.2" fill="#FFFFFF" cx="49.389" cy="48.418" r="46.904"/>
<g>
	<path fill="#FFFFFF" d="M33.611,49.588c-0.16-3.008-0.352-6.623-0.32-9.311h-0.096c-0.735,2.527-1.632,5.215-2.72,8.191
		l-3.808,10.463h-2.112L21.068,48.66c-1.024-3.039-1.888-5.824-2.496-8.383h-0.063c-0.064,2.688-0.225,6.303-0.416,9.535
		l-0.576,9.246H14.86l1.504-21.566h3.552l3.68,10.432c0.896,2.656,1.632,5.023,2.176,7.264h0.097
		c0.544-2.176,1.312-4.543,2.271-7.264l3.84-10.432h3.552l1.344,21.566h-2.72L33.611,49.588z"/>
	<path fill="#FFFFFF" d="M55.275,51.188c0,5.729-3.969,8.225-7.711,8.225c-4.192,0-7.424-3.072-7.424-7.969
		c0-5.184,3.392-8.223,7.68-8.223C52.268,43.221,55.275,46.453,55.275,51.188z M42.988,51.348c0,3.393,1.952,5.951,4.704,5.951
		c2.688,0,4.703-2.527,4.703-6.016c0-2.623-1.311-5.951-4.639-5.951C44.428,45.332,42.988,48.404,42.988,51.348z"/>
	<path fill="#FFFFFF" d="M58.826,47.764c0-1.6-0.031-2.912-0.127-4.191h2.496l0.158,2.561h0.064
		c0.768-1.473,2.561-2.912,5.119-2.912c2.145,0,5.473,1.279,5.473,6.592v9.246h-2.816v-8.926c0-2.496-0.928-4.576-3.584-4.576
		c-1.855,0-3.295,1.312-3.775,2.879c-0.127,0.352-0.191,0.832-0.191,1.312v9.311h-2.816V47.764z"/>
	<path fill="#FFFFFF" d="M75.914,57.395c0-1.184,0.801-2.016,1.92-2.016c1.121,0,1.889,0.832,1.889,2.016
		c0,1.152-0.736,2.018-1.92,2.018C76.682,59.412,75.914,58.547,75.914,57.395z"/>
</g>
</svg>
