<?xml version="1.0" encoding="utf-8"?>
<!-- Generator: Adobe Illustrator 16.0.0, SVG Export Plug-In . SVG Version: 6.00 Build 0)  -->
<!DOCTYPE svg PUBLIC "-//W3C//DTD SVG 1.1//EN" "http://www.w3.org/Graphics/SVG/1.1/DTD/svg11.dtd">
<svg version="1.1" id="dab" xmlns="http://www.w3.org/2000/svg" xmlns:xlink="http://www.w3.org/1999/xlink" x="0px" y="0px"
	 width="100px" height="100px" viewBox="0 0 100 100" enable-background="new 0 0 100 100" xml:space="preserve">
<circle opacity="0.2" fill="#FFFFFF" cx="50" cy="50" r="46.904"/>
<g>
	<path fill="#FFFFFF" d="M28.209,54.128l-2.24,6.783h-2.88l7.327-21.566h3.36l7.359,21.566H38.16l-2.304-6.783H28.209z
		 M35.28,51.952l-2.112-6.208c-0.479-1.407-0.8-2.688-1.119-3.936h-0.064c-0.32,1.28-0.672,2.592-1.088,3.904l-2.112,6.239H35.28z"
		/>
	<path fill="#FFFFFF" d="M42.896,59.279l7.007-9.119c0.673-0.832,1.312-1.568,2.017-2.399v-0.064h-8.384v-2.271h11.808l-0.032,1.76
		l-6.912,8.99c-0.64,0.865-1.279,1.633-1.983,2.433v0.063h9.056v2.24H42.896V59.279z"/>
	<path fill="#FFFFFF" d="M59.696,53.68c0.064,3.808,2.496,5.376,5.312,5.376c2.017,0,3.232-0.353,4.288-0.801l0.48,2.016
		c-0.992,0.449-2.688,0.961-5.152,0.961c-4.768,0-7.615-3.137-7.615-7.808c0-4.672,2.752-8.352,7.264-8.352
		c5.056,0,6.399,4.448,6.399,7.296c0,0.576-0.064,1.023-0.096,1.312H59.696z M67.952,51.664c0.032-1.792-0.736-4.575-3.903-4.575
		c-2.849,0-4.096,2.623-4.32,4.575H67.952z M68.624,38.737l-3.903,4.575h-2.017l2.816-4.575H68.624z"/>
	<path fill="#FFFFFF" d="M73.104,59.247c0-1.184,0.8-2.016,1.92-2.016s1.888,0.832,1.888,2.016c0,1.152-0.736,2.016-1.92,2.016
		C73.871,61.263,73.104,60.399,73.104,59.247z"/>
</g>
</svg>
