<?xml version="1.0" encoding="utf-8"?>
<!-- Generator: Adobe Illustrator 16.0.0, SVG Export Plug-In . SVG Version: 6.00 Build 0)  -->
<!DOCTYPE svg PUBLIC "-//W3C//DTD SVG 1.1//EN" "http://www.w3.org/Graphics/SVG/1.1/DTD/svg11.dtd">
<svg version="1.1" id="dab" xmlns="http://www.w3.org/2000/svg" xmlns:xlink="http://www.w3.org/1999/xlink" x="0px" y="0px"
	 width="100px" height="100px" viewBox="0 0 100 100" enable-background="new 0 0 100 100" xml:space="preserve">
<circle opacity="0.2" fill="#FFFFFF" cx="50" cy="50" r="46.904"/>
<g>
	<path fill="#FFFFFF" d="M41.486,60.079c-1.023,0.513-3.072,1.024-5.695,1.024c-6.08,0-10.654-3.84-10.654-10.912
		c0-6.751,4.574-11.326,11.262-11.326c2.688,0,4.385,0.576,5.121,0.959l-0.674,2.272c-1.055-0.513-2.559-0.896-4.352-0.896
		c-5.055,0-8.414,3.231-8.414,8.895c0,5.279,3.039,8.672,8.287,8.672c1.695,0,3.424-0.352,4.543-0.896L41.486,60.079z"/>
	<path fill="#FFFFFF" d="M44.783,50.128c0-1.823-0.031-3.392-0.127-4.831h2.463l0.096,3.039h0.129c0.703-2.08,2.4-3.392,4.287-3.392
		c0.32,0,0.545,0.032,0.801,0.097v2.655c-0.289-0.063-0.576-0.097-0.961-0.097c-1.984,0-3.391,1.504-3.775,3.616
		c-0.064,0.384-0.129,0.832-0.129,1.312v8.256h-2.783V50.128z"/>
	<path fill="#FFFFFF" d="M68.943,52.912c0,5.727-3.969,8.223-7.711,8.223c-4.193,0-7.424-3.071-7.424-7.967
		c0-5.184,3.391-8.224,7.68-8.224C65.936,44.944,68.943,48.176,68.943,52.912z M56.656,53.072c0,3.391,1.951,5.951,4.703,5.951
		c2.688,0,4.703-2.527,4.703-6.016c0-2.624-1.311-5.951-4.639-5.951S56.656,50.128,56.656,53.072z"/>
	<path fill="#FFFFFF" d="M71.055,59.119c0-1.184,0.801-2.016,1.92-2.016c1.121,0,1.889,0.832,1.889,2.016
		c0,1.152-0.736,2.016-1.92,2.016C71.822,61.135,71.055,60.271,71.055,59.119z"/>
</g>
</svg>
