<?xml version="1.0" encoding="utf-8"?>
<!-- Generator: Adobe Illustrator 16.0.0, SVG Export Plug-In . SVG Version: 6.00 Build 0)  -->
<!DOCTYPE svg PUBLIC "-//W3C//DTD SVG 1.1//EN" "http://www.w3.org/Graphics/SVG/1.1/DTD/svg11.dtd">
<svg version="1.1" id="dab" xmlns="http://www.w3.org/2000/svg" xmlns:xlink="http://www.w3.org/1999/xlink" x="0px" y="0px"
	 width="100px" height="100px" viewBox="0 0 100 100" enable-background="new 0 0 100 100" xml:space="preserve">
<circle opacity="0.2" fill="#FFFFFF" cx="50" cy="50" r="46.904"/>
<g>
	<path fill="#FFFFFF" d="M28.734,39.396v8.743h10.108v-8.743h2.729v20.897h-2.729v-9.798H28.734v9.798h-2.697V39.396H28.734z"/>
	<path fill="#FFFFFF" d="M49.504,41.07c0.031,0.93-0.65,1.674-1.736,1.674c-0.961,0-1.643-0.744-1.643-1.674
		c0-0.961,0.713-1.705,1.705-1.705C48.854,39.365,49.504,40.109,49.504,41.07z M46.466,60.294V45.287h2.729v15.007H46.466z"/>
	<path fill="#FFFFFF" d="M53.72,49.349c0-1.55-0.031-2.821-0.124-4.062h2.418l0.155,2.48h0.062c0.744-1.426,2.48-2.821,4.961-2.821
		c2.078,0,5.303,1.24,5.303,6.387v8.961h-2.729v-8.65c0-2.419-0.899-4.435-3.473-4.435c-1.799,0-3.193,1.271-3.659,2.791
		c-0.124,0.341-0.186,0.807-0.186,1.271v9.022H53.72V49.349z"/>
	<path fill="#FFFFFF" d="M70.273,58.682c0-1.147,0.774-1.953,1.859-1.953c1.086,0,1.83,0.806,1.83,1.953
		c0,1.116-0.713,1.953-1.86,1.953C71.018,60.635,70.273,59.798,70.273,58.682z"/>
</g>
</svg>
