<?xml version="1.0" encoding="utf-8"?>
<!-- Generator: Adobe Illustrator 16.0.0, SVG Export Plug-In . SVG Version: 6.00 Build 0)  -->
<!DOCTYPE svg PUBLIC "-//W3C//DTD SVG 1.1//EN" "http://www.w3.org/Graphics/SVG/1.1/DTD/svg11.dtd">
<svg version="1.1" id="dab" xmlns="http://www.w3.org/2000/svg" xmlns:xlink="http://www.w3.org/1999/xlink" x="0px" y="0px"
	 width="96.903px" height="100px" viewBox="0 0 96.903 100" enable-background="new 0 0 96.903 100" xml:space="preserve">
<circle opacity="0.2" fill="#FFFFFF" cx="48.451" cy="50" r="46.904"/>
<g>
	<path fill="#FFFFFF" d="M41.945,49.782c0,7.193-4.372,11.008-9.705,11.008c-5.519,0-9.395-4.279-9.395-10.604
		c0-6.637,4.124-10.977,9.705-10.977C38.256,39.21,41.945,43.581,41.945,49.782z M25.729,50.124c0,4.465,2.418,8.465,6.666,8.465
		c4.278,0,6.697-3.938,6.697-8.682c0-4.155-2.171-8.496-6.666-8.496C27.962,41.411,25.729,45.534,25.729,50.124z"/>
	<path fill="#FFFFFF" d="M58.001,56.356c0,1.55,0.031,2.914,0.125,4.092h-2.419l-0.155-2.449h-0.062
		c-0.713,1.209-2.293,2.791-4.961,2.791c-2.355,0-5.177-1.303-5.177-6.574v-8.773h2.729v8.309c0,2.854,0.868,4.775,3.349,4.775
		c1.828,0,3.1-1.271,3.596-2.48c0.156-0.402,0.248-0.898,0.248-1.395v-9.209h2.729V56.356z"/>
	<path fill="#FFFFFF" d="M62.524,50.124c0-1.768-0.031-3.287-0.123-4.682h2.387l0.094,2.945h0.123
		c0.682-2.016,2.326-3.287,4.154-3.287c0.311,0,0.527,0.031,0.775,0.094v2.572c-0.279-0.061-0.558-0.092-0.93-0.092
		c-1.922,0-3.287,1.457-3.658,3.504c-0.062,0.371-0.125,0.805-0.125,1.271v7.999h-2.697V50.124z"/>
	<path fill="#FFFFFF" d="M70.368,58.837c0-1.148,0.775-1.953,1.859-1.953c1.086,0,1.83,0.805,1.83,1.953
		c0,1.115-0.713,1.953-1.861,1.953C71.112,60.79,70.368,59.952,70.368,58.837z"/>
</g>
</svg>
