<?xml version="1.0" encoding="utf-8"?>
<!-- Generator: Adobe Illustrator 16.0.0, SVG Export Plug-In . SVG Version: 6.00 Build 0)  -->
<!DOCTYPE svg PUBLIC "-//W3C//DTD SVG 1.1//EN" "http://www.w3.org/Graphics/SVG/1.1/DTD/svg11.dtd">
<svg version="1.1" id="dab" xmlns="http://www.w3.org/2000/svg" xmlns:xlink="http://www.w3.org/1999/xlink" x="0px" y="0px"
	 width="100px" height="100px" viewBox="0 0 100 100" enable-background="new 0 0 100 100" xml:space="preserve">
<circle opacity="0.2" fill="#FFFFFF" cx="50" cy="50" r="46.904"/>
<g>
	<path fill="#FFFFFF" d="M21.232,39.409c1.696-0.257,3.712-0.448,5.92-0.448c4,0,6.848,0.928,8.735,2.688
		c1.92,1.76,3.04,4.256,3.04,7.744c0,3.52-1.088,6.399-3.104,8.383c-2.016,2.016-5.344,3.104-9.535,3.104
		c-1.983,0-3.647-0.096-5.056-0.256V39.409z M24.017,58.479c0.704,0.128,1.728,0.16,2.815,0.16c5.952,0,9.184-3.327,9.184-9.151
		c0.032-5.088-2.848-8.319-8.735-8.319c-1.44,0-2.528,0.128-3.264,0.288V58.479z"/>
	<path fill="#FFFFFF" d="M51.023,60.688L50.8,58.736h-0.097c-0.863,1.215-2.527,2.303-4.735,2.303c-3.136,0-4.735-2.207-4.735-4.447
		c0-3.744,3.327-5.791,9.312-5.76v-0.32c0-1.279-0.353-3.583-3.521-3.583c-1.439,0-2.943,0.448-4.031,1.151l-0.64-1.855
		c1.279-0.832,3.136-1.376,5.087-1.376c4.736,0,5.888,3.231,5.888,6.335v5.792c0,1.345,0.064,2.655,0.256,3.712H51.023z
		 M50.607,52.784c-3.071-0.063-6.56,0.479-6.56,3.487c0,1.824,1.216,2.688,2.656,2.688c2.016,0,3.296-1.279,3.743-2.592
		c0.097-0.287,0.16-0.607,0.16-0.896V52.784z"/>
	<path fill="#FFFFFF" d="M57.872,49.393c0-1.6-0.032-2.912-0.128-4.191h2.496l0.159,2.559h0.064c0.768-1.471,2.56-2.911,5.119-2.911
		c2.145,0,5.472,1.28,5.472,6.591v9.248h-2.815V51.76c0-2.496-0.928-4.575-3.584-4.575c-1.855,0-3.296,1.312-3.775,2.88
		c-0.128,0.352-0.192,0.832-0.192,1.312v9.312h-2.815V49.393z"/>
	<path fill="#FFFFFF" d="M74.96,59.023c0-1.184,0.8-2.016,1.92-2.016s1.888,0.832,1.888,2.016c0,1.152-0.736,2.016-1.92,2.016
		C75.728,61.039,74.96,60.176,74.96,59.023z"/>
</g>
</svg>
