<?xml version="1.0" encoding="utf-8"?>
<!-- Generator: Adobe Illustrator 16.0.0, SVG Export Plug-In . SVG Version: 6.00 Build 0)  -->
<!DOCTYPE svg PUBLIC "-//W3C//DTD SVG 1.1//EN" "http://www.w3.org/Graphics/SVG/1.1/DTD/svg11.dtd">
<svg version="1.1" id="dab" xmlns="http://www.w3.org/2000/svg" xmlns:xlink="http://www.w3.org/1999/xlink" x="0px" y="0px"
	 width="100px" height="100px" viewBox="0 0 100 100" enable-background="new 0 0 100 100" xml:space="preserve">
<circle opacity="0.2" fill="#FFFFFF" cx="50" cy="50" r="46.904"/>
<g>
	<path fill="#FFFFFF" d="M26.224,50.636l-2.171,6.573h-2.79l7.1-20.898h3.256l7.132,20.898h-2.884l-2.232-6.573H26.224z
		 M33.075,48.527l-2.046-6.016c-0.465-1.364-0.775-2.604-1.085-3.813h-0.062c-0.31,1.24-0.651,2.512-1.054,3.783l-2.047,6.046
		H33.075z"/>
	<path fill="#FFFFFF" d="M41.63,46.264c0-1.55-0.031-2.821-0.124-4.062h2.419l0.154,2.48h0.062c0.744-1.427,2.48-2.821,4.961-2.821
		c2.076,0,5.301,1.24,5.301,6.387v8.961h-2.729v-8.65c0-2.419-0.898-4.435-3.472-4.435c-1.798,0-3.193,1.271-3.658,2.791
		c-0.124,0.341-0.187,0.806-0.187,1.271v9.022H41.63V46.264z"/>
	<path fill="#FFFFFF" d="M71.764,42.202c-0.062,1.085-0.124,2.294-0.124,4.124v8.712c0,3.442-0.682,5.551-2.139,6.853
		c-1.458,1.364-3.566,1.799-5.457,1.799c-1.799,0-3.783-0.435-4.992-1.24l0.682-2.078c0.992,0.62,2.543,1.179,4.402,1.179
		c2.791,0,4.838-1.457,4.838-5.24v-1.674h-0.062c-0.838,1.395-2.449,2.511-4.775,2.511c-3.721,0-6.387-3.162-6.387-7.317
		c0-5.085,3.318-7.968,6.76-7.968c2.604,0,4.03,1.364,4.682,2.604h0.062l0.123-2.264H71.764z M68.942,48.124
		c0-0.465-0.031-0.868-0.155-1.24C68.291,45.303,66.958,44,64.974,44c-2.605,0-4.465,2.202-4.465,5.675
		c0,2.945,1.488,5.395,4.434,5.395c1.674,0,3.193-1.054,3.783-2.79c0.154-0.466,0.217-0.992,0.217-1.458V48.124z"/>
	<path fill="#FFFFFF" d="M75.047,55.597c0-1.147,0.774-1.953,1.86-1.953s1.83,0.806,1.83,1.953c0,1.116-0.714,1.953-1.861,1.953
		C75.791,57.55,75.047,56.713,75.047,55.597z"/>
</g>
</svg>
