<?xml version="1.0" encoding="utf-8"?>
<!-- Generator: Adobe Illustrator 16.0.0, SVG Export Plug-In . SVG Version: 6.00 Build 0)  -->
<!DOCTYPE svg PUBLIC "-//W3C//DTD SVG 1.1//EN" "http://www.w3.org/Graphics/SVG/1.1/DTD/svg11.dtd">
<svg version="1.1" id="dab" xmlns="http://www.w3.org/2000/svg" xmlns:xlink="http://www.w3.org/1999/xlink" x="0px" y="0px"
	 width="100px" height="96.904px" viewBox="0 0 100 96.904" enable-background="new 0 0 100 96.904" xml:space="preserve">
<circle opacity="0.2" fill="#FFFFFF" cx="50" cy="48.452" r="46.904"/>
<g>
	<path fill="#FFFFFF" d="M22.336,37.861c1.408-0.289,3.424-0.449,5.344-0.449c2.976,0,4.896,0.545,6.239,1.762
		c1.088,0.959,1.696,2.432,1.696,4.096c0,2.848-1.792,4.734-4.063,5.502v0.096c1.663,0.576,2.655,2.113,3.167,4.354
		c0.704,3.008,1.217,5.086,1.664,5.918h-2.88c-0.352-0.607-0.832-2.463-1.439-5.15c-0.64-2.977-1.792-4.096-4.319-4.191h-2.624
		v9.342h-2.784V37.861z M25.121,47.684h2.848c2.976,0,4.863-1.631,4.863-4.096c0-2.783-2.016-4-4.959-4.031
		c-1.345,0-2.304,0.129-2.752,0.256V47.684z"/>
	<path fill="#FFFFFF" d="M53.599,51.268c0,5.729-3.968,8.225-7.711,8.225c-4.192,0-7.424-3.072-7.424-7.969
		c0-5.184,3.392-8.223,7.68-8.223C50.591,43.301,53.599,46.533,53.599,51.268z M41.312,51.428c0,3.393,1.952,5.951,4.704,5.951
		c2.688,0,4.703-2.527,4.703-6.016c0-2.623-1.312-5.951-4.64-5.951C42.752,45.412,41.312,48.484,41.312,51.428z"/>
	<path fill="#FFFFFF" d="M70.111,54.916c0,1.6,0.032,3.008,0.128,4.223h-2.496l-0.16-2.527h-0.063
		c-0.736,1.248-2.368,2.881-5.12,2.881c-2.432,0-5.343-1.344-5.343-6.785v-9.055h2.815v8.576c0,2.943,0.896,4.928,3.456,4.928
		c1.888,0,3.199-1.312,3.711-2.561c0.16-0.416,0.257-0.928,0.257-1.439v-9.504h2.815V54.916z"/>
	<path fill="#FFFFFF" d="M73.856,57.475c0-1.184,0.8-2.016,1.92-2.016s1.888,0.832,1.888,2.016c0,1.152-0.736,2.018-1.92,2.018
		C74.624,59.492,73.856,58.627,73.856,57.475z"/>
</g>
</svg>
