<?xml version="1.0" encoding="utf-8"?>
<!-- Generator: Adobe Illustrator 16.0.0, SVG Export Plug-In . SVG Version: 6.00 Build 0)  -->
<!DOCTYPE svg PUBLIC "-//W3C//DTD SVG 1.1//EN" "http://www.w3.org/Graphics/SVG/1.1/DTD/svg11.dtd">
<svg version="1.1" id="dab" xmlns="http://www.w3.org/2000/svg" xmlns:xlink="http://www.w3.org/1999/xlink" x="0px" y="0px"
	 width="95.355px" height="100px" viewBox="0 0 95.355 100" enable-background="new 0 0 95.355 100" xml:space="preserve">
<circle opacity="0.2" fill="#FFFFFF" cx="47.677" cy="50" r="46.904"/>
<g>
	<path fill="#FFFFFF" d="M23.357,39.737c1.364-0.279,3.317-0.434,5.178-0.434c2.884,0,4.744,0.526,6.047,1.705
		c1.054,0.93,1.643,2.355,1.643,3.969c0,2.76-1.736,4.588-3.938,5.332v0.094c1.612,0.559,2.573,2.047,3.069,4.217
		c0.683,2.914,1.179,4.93,1.612,5.736h-2.79c-0.341-0.59-0.807-2.389-1.396-4.992c-0.62-2.884-1.736-3.969-4.186-4.062h-2.543v9.055
		h-2.697V39.737z M26.055,49.256h2.76c2.884,0,4.713-1.581,4.713-3.969c0-2.698-1.953-3.876-4.806-3.907
		c-1.303,0-2.232,0.125-2.667,0.248V49.256z"/>
	<path fill="#FFFFFF" d="M52.5,56.263c0,1.551,0.031,2.915,0.124,4.094h-2.419l-0.155-2.449h-0.062
		c-0.713,1.209-2.295,2.789-4.961,2.789c-2.356,0-5.178-1.301-5.178-6.572v-8.775h2.729v8.311c0,2.852,0.868,4.774,3.349,4.774
		c1.829,0,3.101-1.271,3.597-2.48c0.154-0.403,0.248-0.899,0.248-1.396v-9.209H52.5V56.263z"/>
	<path fill="#FFFFFF" d="M56.652,57.565c0.805,0.527,2.232,1.086,3.596,1.086c1.984,0,2.914-0.992,2.914-2.232
		c0-1.303-0.774-2.016-2.789-2.76c-2.698-0.961-3.969-2.449-3.969-4.248c0-2.418,1.953-4.402,5.178-4.402
		c1.52,0,2.852,0.434,3.689,0.93l-0.682,1.984c-0.59-0.373-1.676-0.869-3.07-0.869c-1.612,0-2.512,0.932-2.512,2.047
		c0,1.24,0.899,1.799,2.854,2.543c2.604,0.992,3.938,2.295,3.938,4.527c0,2.635-2.047,4.495-5.613,4.495
		c-1.643,0-3.162-0.403-4.217-1.022L56.652,57.565z"/>
	<path fill="#FFFFFF" d="M68.308,58.743c0-1.146,0.774-1.953,1.86-1.953s1.83,0.807,1.83,1.953c0,1.117-0.714,1.953-1.861,1.953
		C69.052,60.696,68.308,59.86,68.308,58.743z"/>
</g>
</svg>
