<?xml version="1.0" encoding="utf-8"?>
<!-- Generator: Adobe Illustrator 16.0.0, SVG Export Plug-In . SVG Version: 6.00 Build 0)  -->
<!DOCTYPE svg PUBLIC "-//W3C//DTD SVG 1.1//EN" "http://www.w3.org/Graphics/SVG/1.1/DTD/svg11.dtd">
<svg version="1.1" id="dab" xmlns="http://www.w3.org/2000/svg" xmlns:xlink="http://www.w3.org/1999/xlink" x="0px" y="0px"
	 width="100px" height="100.492px" viewBox="0 0 100 100.492" enable-background="new 0 0 100 100.492" xml:space="preserve">
<circle opacity="0.2" fill="#FFFFFF" cx="50" cy="50.246" r="46.904"/>
<g>
	<path fill="#FFFFFF" d="M28.48,39.303h11.615v2.336h-8.831v7.168h8.159v2.303h-8.159v9.76H28.48V39.303z"/>
	<path fill="#FFFFFF" d="M46.273,41.031c0.032,0.959-0.672,1.727-1.792,1.727c-0.992,0-1.696-0.768-1.696-1.727
		c0-0.992,0.736-1.76,1.761-1.76C45.602,39.271,46.273,40.039,46.273,41.031z M43.138,60.869V45.383h2.815v15.486H43.138z"/>
	<path fill="#FFFFFF" d="M50.624,49.574c0-1.6-0.032-2.912-0.128-4.191h2.496l0.159,2.559h0.064c0.768-1.471,2.56-2.91,5.119-2.91
		c2.145,0,5.472,1.279,5.472,6.59v9.248h-2.815v-8.928c0-2.496-0.928-4.574-3.584-4.574c-1.855,0-3.296,1.311-3.775,2.879
		c-0.128,0.352-0.192,0.832-0.192,1.312v9.311h-2.815V49.574z"/>
	<path fill="#FFFFFF" d="M67.712,59.205c0-1.184,0.8-2.016,1.92-2.016s1.888,0.832,1.888,2.016c0,1.152-0.736,2.016-1.92,2.016
		C68.479,61.221,67.712,60.357,67.712,59.205z"/>
</g>
</svg>
