<?xml version="1.0" encoding="utf-8"?>
<!-- Generator: Adobe Illustrator 16.0.0, SVG Export Plug-In . SVG Version: 6.00 Build 0)  -->
<!DOCTYPE svg PUBLIC "-//W3C//DTD SVG 1.1//EN" "http://www.w3.org/Graphics/SVG/1.1/DTD/svg11.dtd">
<svg version="1.1" id="dab" xmlns="http://www.w3.org/2000/svg" xmlns:xlink="http://www.w3.org/1999/xlink" x="0px" y="0px"
	 width="100px" height="100px" viewBox="0 0 100 100" enable-background="new 0 0 100 100" xml:space="preserve">
<circle opacity="0.2" fill="#FFFFFF" cx="50" cy="50" r="46.904"/>
<g>
	<path fill="#FFFFFF" d="M42.376,59.767c-0.992,0.496-2.977,0.992-5.519,0.992c-5.892,0-10.325-3.721-10.325-10.572
		c0-6.543,4.434-10.977,10.914-10.977c2.604,0,4.248,0.559,4.961,0.931l-0.651,2.201c-1.023-0.496-2.48-0.868-4.217-0.868
		c-4.898,0-8.154,3.132-8.154,8.619c0,5.116,2.945,8.403,8.03,8.403c1.644,0,3.318-0.341,4.403-0.868L42.376,59.767z"/>
	<path fill="#FFFFFF" d="M53.752,60.449l-0.217-1.892h-0.093c-0.837,1.179-2.449,2.232-4.589,2.232c-3.038,0-4.589-2.139-4.589-4.31
		c0-3.628,3.225-5.612,9.023-5.581v-0.311c0-1.24-0.341-3.473-3.411-3.473c-1.396,0-2.853,0.435-3.907,1.117l-0.62-1.799
		c1.24-0.807,3.039-1.333,4.93-1.333c4.589,0,5.705,3.132,5.705,6.139v5.612c0,1.303,0.062,2.573,0.248,3.597H53.752z
		 M53.349,52.791c-2.977-0.062-6.356,0.465-6.356,3.38c0,1.767,1.179,2.604,2.574,2.604c1.954,0,3.194-1.24,3.627-2.511
		c0.093-0.279,0.155-0.589,0.155-0.868V52.791z"/>
	<path fill="#FFFFFF" d="M63.547,41.133v4.31h3.907v2.077h-3.907v8.093c0,1.86,0.527,2.914,2.047,2.914
		c0.713,0,1.24-0.093,1.581-0.186l0.124,2.047c-0.527,0.217-1.364,0.371-2.418,0.371c-1.271,0-2.294-0.402-2.946-1.146
		c-0.775-0.807-1.054-2.14-1.054-3.907V47.52h-2.326v-2.077h2.326v-3.597L63.547,41.133z"/>
	<path fill="#FFFFFF" d="M69.778,58.837c0-1.147,0.775-1.953,1.86-1.953s1.829,0.806,1.829,1.953c0,1.116-0.713,1.953-1.86,1.953
		C70.522,60.79,69.778,59.953,69.778,58.837z"/>
</g>
</svg>
