<?xml version="1.0" encoding="utf-8"?>
<!-- Generator: Adobe Illustrator 16.0.0, SVG Export Plug-In . SVG Version: 6.00 Build 0)  -->
<!DOCTYPE svg PUBLIC "-//W3C//DTD SVG 1.1//EN" "http://www.w3.org/Graphics/SVG/1.1/DTD/svg11.dtd">
<svg version="1.1" id="dab" xmlns="http://www.w3.org/2000/svg" xmlns:xlink="http://www.w3.org/1999/xlink" x="0px" y="0px"
	 width="100px" height="100px" viewBox="0 0 100 100" enable-background="new 0 0 100 100" xml:space="preserve">
<circle opacity="0.2" fill="#FFFFFF" cx="50" cy="50" r="46.904"/>
<g>
	<path fill="#FFFFFF" d="M30.176,39.939v20.897h-2.697V39.939H30.176z"/>
	<path fill="#FFFFFF" d="M35.104,49.892c0-1.55-0.031-2.821-0.124-4.062h2.418l0.155,2.48h0.062c0.744-1.426,2.48-2.821,4.961-2.821
		c2.078,0,5.302,1.24,5.302,6.387v8.961H45.15v-8.65c0-2.419-0.899-4.435-3.473-4.435c-1.799,0-3.194,1.271-3.659,2.791
		c-0.124,0.341-0.186,0.807-0.186,1.271v9.022h-2.729V49.892z"/>
	<path fill="#FFFFFF" d="M65.27,38.822v18.139c0,1.334,0.031,2.853,0.124,3.876h-2.45l-0.124-2.604h-0.062
		c-0.837,1.674-2.667,2.945-5.116,2.945c-3.627,0-6.418-3.069-6.418-7.627c-0.031-4.992,3.069-8.062,6.729-8.062
		c2.294,0,3.845,1.085,4.526,2.294h0.062v-8.961H65.27z M62.541,51.938c0-0.341-0.031-0.807-0.124-1.147
		c-0.403-1.736-1.892-3.162-3.938-3.162c-2.822,0-4.496,2.48-4.496,5.798c0,3.038,1.488,5.55,4.434,5.55
		c1.829,0,3.504-1.209,4-3.256c0.093-0.372,0.124-0.744,0.124-1.178V51.938z"/>
	<path fill="#FFFFFF" d="M68.832,59.225c0-1.147,0.775-1.953,1.86-1.953s1.829,0.806,1.829,1.953c0,1.116-0.713,1.953-1.86,1.953
		C69.576,61.178,68.832,60.341,68.832,59.225z"/>
</g>
</svg>
