<?xml version="1.0" encoding="utf-8"?>
<!-- Generator: Adobe Illustrator 16.0.0, SVG Export Plug-In . SVG Version: 6.00 Build 0)  -->
<!DOCTYPE svg PUBLIC "-//W3C//DTD SVG 1.1//EN" "http://www.w3.org/Graphics/SVG/1.1/DTD/svg11.dtd">
<svg version="1.1" id="dab" xmlns="http://www.w3.org/2000/svg" xmlns:xlink="http://www.w3.org/1999/xlink" x="0px" y="0px"
	 width="100px" height="100px" viewBox="0 0 100 100" enable-background="new 0 0 100 100" xml:space="preserve">
<circle opacity="0.2" fill="#FFFFFF" cx="50" cy="50" r="46.904"/>
<g>
	<path fill="#FFFFFF" d="M32.269,36.481h2.698v13.984c0,5.549-2.729,7.254-6.325,7.254c-0.992,0-2.201-0.217-2.884-0.496
		l0.403-2.201c0.558,0.217,1.364,0.404,2.264,0.404c2.418,0,3.844-1.086,3.844-5.179V36.481z"/>
	<path fill="#FFFFFF" d="M47.677,57.38l-0.217-1.893h-0.094c-0.837,1.18-2.449,2.232-4.589,2.232c-3.038,0-4.589-2.139-4.589-4.309
		c0-3.629,3.225-5.613,9.023-5.582v-0.31c0-1.24-0.342-3.473-3.411-3.473c-1.396,0-2.853,0.435-3.907,1.116l-0.619-1.799
		c1.24-0.806,3.038-1.332,4.93-1.332c4.589,0,5.705,3.131,5.705,6.139v5.611c0,1.303,0.062,2.574,0.248,3.598H47.677z
		 M47.273,49.722c-2.977-0.062-6.356,0.465-6.356,3.379c0,1.768,1.179,2.604,2.574,2.604c1.953,0,3.193-1.24,3.627-2.511
		c0.094-0.279,0.155-0.59,0.155-0.869V49.722z"/>
	<path fill="#FFFFFF" d="M54.309,47.271c0-1.923-0.062-3.473-0.124-4.899h2.449l0.125,2.574h0.062
		c1.116-1.83,2.884-2.914,5.333-2.914c3.628,0,6.356,3.068,6.356,7.627c0,5.395-3.287,8.061-6.821,8.061
		c-1.984,0-3.721-0.867-4.62-2.355h-0.062v8.154h-2.698V47.271z M57.007,51.271c0,0.404,0.062,0.775,0.123,1.117
		c0.496,1.891,2.14,3.193,4.094,3.193c2.883,0,4.558-2.356,4.558-5.799c0-3.007-1.581-5.58-4.465-5.58
		c-1.86,0-3.597,1.333-4.124,3.379c-0.093,0.342-0.186,0.744-0.186,1.117V51.271z"/>
	<path fill="#FFFFFF" d="M70.553,55.767c0-1.146,0.775-1.953,1.86-1.953s1.829,0.807,1.829,1.953c0,1.117-0.713,1.953-1.86,1.953
		C71.297,57.72,70.553,56.884,70.553,55.767z"/>
</g>
</svg>
