<?xml version="1.0" encoding="utf-8"?>
<!-- Generator: Adobe Illustrator 16.0.0, SVG Export Plug-In . SVG Version: 6.00 Build 0)  -->
<!DOCTYPE svg PUBLIC "-//W3C//DTD SVG 1.1//EN" "http://www.w3.org/Graphics/SVG/1.1/DTD/svg11.dtd">
<svg version="1.1" id="dab" xmlns="http://www.w3.org/2000/svg" xmlns:xlink="http://www.w3.org/1999/xlink" x="0px" y="0px"
	 width="100px" height="96.904px" viewBox="0 0 100 96.904" enable-background="new 0 0 100 96.904" xml:space="preserve">
<circle opacity="0.2" fill="#FFFFFF" cx="50" cy="48.452" r="46.904"/>
<g>
	<path fill="#FFFFFF" d="M27.969,38.324c1.344-0.224,3.104-0.416,5.344-0.416c2.752,0,4.768,0.64,6.047,1.792
		c1.184,1.023,1.889,2.592,1.889,4.512c0,1.951-0.576,3.488-1.664,4.607c-1.473,1.568-3.873,2.368-6.592,2.368
		c-0.832,0-1.6-0.032-2.24-0.192v8.64h-2.783V38.324z M30.752,48.724c0.607,0.16,1.377,0.225,2.305,0.225
		c3.359,0,5.406-1.633,5.406-4.608c0-2.848-2.016-4.224-5.086-4.224c-1.217,0-2.145,0.096-2.625,0.225V48.724z"/>
	<path fill="#FFFFFF" d="M58.111,51.763c0,5.729-3.969,8.225-7.711,8.225c-4.193,0-7.424-3.072-7.424-7.968
		c0-5.185,3.391-8.224,7.68-8.224C55.104,43.796,58.111,47.028,58.111,51.763z M45.824,51.923c0,3.393,1.951,5.952,4.703,5.952
		c2.688,0,4.703-2.528,4.703-6.016c0-2.624-1.311-5.952-4.639-5.952S45.824,48.979,45.824,51.923z"/>
	<path fill="#FFFFFF" d="M61.664,36.917h2.816v22.718h-2.816V36.917z"/>
	<path fill="#FFFFFF" d="M68.225,57.971c0-1.184,0.799-2.016,1.92-2.016c1.119,0,1.887,0.832,1.887,2.016
		c0,1.151-0.736,2.017-1.92,2.017C68.992,59.987,68.225,59.122,68.225,57.971z"/>
</g>
</svg>
