<?xml version="1.0" encoding="utf-8"?>
<!-- Generator: Adobe Illustrator 16.0.0, SVG Export Plug-In . SVG Version: 6.00 Build 0)  -->
<!DOCTYPE svg PUBLIC "-//W3C//DTD SVG 1.1//EN" "http://www.w3.org/Graphics/SVG/1.1/DTD/svg11.dtd">
<svg version="1.1" id="dab" xmlns="http://www.w3.org/2000/svg" xmlns:xlink="http://www.w3.org/1999/xlink" x="0px" y="0px"
	 width="100px" height="100px" viewBox="0 0 100 100" enable-background="new 0 0 100 100" xml:space="preserve">
<circle opacity="0.2" fill="#FFFFFF" cx="50" cy="50" r="46.904"/>
<g>
	<path fill="#FFFFFF" d="M41.478,59.457c-1.209,0.434-3.597,1.146-6.418,1.146c-3.163,0-5.768-0.805-7.813-2.758
		c-1.799-1.736-2.915-4.527-2.915-7.783c0.031-6.232,4.31-10.791,11.317-10.791c2.418,0,4.31,0.527,5.209,0.963l-0.651,2.201
		c-1.116-0.496-2.512-0.9-4.62-0.9c-5.085,0-8.402,3.164-8.402,8.402c0,5.303,3.193,8.434,8.062,8.434
		c1.768,0,2.977-0.248,3.597-0.557v-6.232h-4.248v-2.17h6.884V59.457z"/>
	<path fill="#FFFFFF" d="M54.062,60.387l-0.217-1.891h-0.092c-0.838,1.178-2.45,2.232-4.59,2.232c-3.039,0-4.589-2.139-4.589-4.311
		c0-3.627,3.225-5.611,9.022-5.58v-0.311c0-1.24-0.34-3.473-3.41-3.473c-1.396,0-2.853,0.434-3.907,1.117l-0.62-1.799
		c1.24-0.807,3.039-1.334,4.93-1.334c4.59,0,5.705,3.133,5.705,6.139v5.613c0,1.303,0.062,2.572,0.248,3.596H54.062z M53.659,52.729
		c-2.977-0.062-6.356,0.465-6.356,3.381c0,1.766,1.178,2.604,2.573,2.604c1.953,0,3.193-1.24,3.629-2.512
		c0.092-0.279,0.154-0.588,0.154-0.867V52.729z"/>
	<path fill="#FFFFFF" d="M60.323,57.598c0.805,0.525,2.232,1.084,3.596,1.084c1.984,0,2.914-0.992,2.914-2.232
		c0-1.303-0.774-2.016-2.789-2.76c-2.698-0.961-3.969-2.449-3.969-4.248c0-2.418,1.953-4.402,5.178-4.402
		c1.52,0,2.852,0.434,3.689,0.93l-0.682,1.984c-0.59-0.371-1.676-0.867-3.07-0.867c-1.612,0-2.512,0.93-2.512,2.047
		c0,1.24,0.899,1.797,2.854,2.541c2.604,0.992,3.938,2.295,3.938,4.527c0,2.637-2.047,4.496-5.613,4.496
		c-1.643,0-3.162-0.402-4.217-1.023L60.323,57.598z"/>
	<path fill="#FFFFFF" d="M71.979,58.775c0-1.148,0.774-1.953,1.86-1.953s1.83,0.805,1.83,1.953c0,1.115-0.714,1.953-1.861,1.953
		C72.723,60.729,71.979,59.891,71.979,58.775z"/>
</g>
</svg>
