<?xml version="1.0" encoding="utf-8"?>
<!-- Generator: Adobe Illustrator 16.0.0, SVG Export Plug-In . SVG Version: 6.00 Build 0)  -->
<!DOCTYPE svg PUBLIC "-//W3C//DTD SVG 1.1//EN" "http://www.w3.org/Graphics/SVG/1.1/DTD/svg11.dtd">
<svg version="1.1" id="dab" xmlns="http://www.w3.org/2000/svg" xmlns:xlink="http://www.w3.org/1999/xlink" x="0px" y="0px"
	 width="100px" height="100px" viewBox="0 0 100 100" enable-background="new 0 0 100 100" xml:space="preserve">
<circle opacity="0.2" fill="#FFFFFF" cx="50" cy="50" r="46.904"/>
<g>
	<path fill="#FFFFFF" d="M26.27,54.264l-2.171,6.573h-2.79l7.1-20.898h3.255l7.132,20.898h-2.884l-2.232-6.573H26.27z
		 M33.122,52.155l-2.046-6.016c-0.465-1.364-0.775-2.604-1.085-3.813h-0.062c-0.31,1.24-0.651,2.512-1.054,3.783l-2.047,6.046
		H33.122z"/>
	<path fill="#FFFFFF" d="M53.955,56.744c0,1.551,0.031,2.914,0.124,4.093H51.66l-0.155-2.449h-0.062
		c-0.713,1.209-2.294,2.79-4.961,2.79c-2.356,0-5.178-1.302-5.178-6.573V45.83h2.729v8.31c0,2.853,0.868,4.774,3.349,4.774
		c1.829,0,3.101-1.271,3.597-2.48c0.155-0.402,0.248-0.898,0.248-1.395V45.83h2.729V56.744z"/>
	<path fill="#FFFFFF" d="M71.439,38.822v18.139c0,1.334,0.031,2.853,0.124,3.876h-2.45l-0.124-2.604h-0.062
		c-0.837,1.674-2.667,2.945-5.116,2.945c-3.627,0-6.418-3.069-6.418-7.627c-0.031-4.992,3.069-8.062,6.729-8.062
		c2.294,0,3.845,1.085,4.526,2.294h0.062v-8.961H71.439z M68.71,51.938c0-0.342-0.031-0.807-0.124-1.147
		c-0.403-1.736-1.892-3.163-3.938-3.163c-2.822,0-4.496,2.48-4.496,5.799c0,3.038,1.488,5.55,4.434,5.55
		c1.829,0,3.504-1.209,4-3.256c0.093-0.372,0.124-0.744,0.124-1.178V51.938z"/>
	<path fill="#FFFFFF" d="M75.001,59.225c0-1.147,0.775-1.953,1.86-1.953s1.83,0.806,1.83,1.953c0,1.116-0.713,1.953-1.86,1.953
		C75.745,61.178,75.001,60.341,75.001,59.225z"/>
</g>
</svg>
