<?xml version="1.0" encoding="utf-8"?>
<!-- Generator: Adobe Illustrator 16.0.0, SVG Export Plug-In . SVG Version: 6.00 Build 0)  -->
<!DOCTYPE svg PUBLIC "-//W3C//DTD SVG 1.1//EN" "http://www.w3.org/Graphics/SVG/1.1/DTD/svg11.dtd">
<svg version="1.1" id="Calque_1" xmlns="http://www.w3.org/2000/svg" xmlns:xlink="http://www.w3.org/1999/xlink" x="0px" y="0px"
	 width="90px" height="90px" viewBox="0 0 90 90" enable-background="new 0 0 90 90" xml:space="preserve">
<circle opacity="0.2" fill="#FFFFFF" cx="45" cy="45" r="43.615"/>
<g id="Calque_2">
</g>
<g>
	<g>
		<path fill="#FFFFFF" d="M63.229,22.908H26.771c-0.644,0-1.169,0.525-1.169,1.17v41.845c0,0.645,0.525,1.169,1.169,1.169h36.459
			c0.646,0,1.169-0.524,1.169-1.169V24.078C64.398,23.433,63.875,22.908,63.229,22.908z M63.229,66.507v-0.584H26.771V24.078h36.459
			v41.845h0.002L63.229,66.507z"/>
		<circle fill="#FFFFFF" cx="43.602" cy="45" r="1.347"/>
		<path fill="#FFFFFF" d="M58.165,26.499c-1.488,0-2.694,1.207-2.694,2.694c0,1.287,0.902,2.36,2.109,2.627v9.124
			c0.302,1.04,0.481,2.128,0.546,3.249l-5.447,5.867l0.707,0.665l-4.896,5.214l-2.264-2.127l4.894-5.214l0.705,0.662l5.753-6.198
			v-2.118c-1.757-6.066-7.347-10.506-13.977-10.506c-8.043,0-14.562,6.521-14.562,14.563s6.52,14.564,14.562,14.564
			c8.042,0,14.563-6.522,14.563-14.564c0-0.272-0.025-0.54-0.039-0.81l0.623-0.671v-11.7c1.206-0.266,2.112-1.34,2.112-2.627
			C60.861,27.705,59.651,26.499,58.165,26.499z M37.641,45c0-3.292,2.669-5.959,5.961-5.959c3.291,0,5.962,2.667,5.962,5.959
			c0,3.291-2.671,5.961-5.962,5.961C40.31,50.961,37.641,48.291,37.641,45z"/>
	</g>
</g>
</svg>
