<?xml version="1.0" encoding="utf-8"?>
<!-- Generator: Adobe Illustrator 16.0.0, SVG Export Plug-In . SVG Version: 6.00 Build 0)  -->
<!DOCTYPE svg PUBLIC "-//W3C//DTD SVG 1.1//EN" "http://www.w3.org/Graphics/SVG/1.1/DTD/svg11.dtd">
<svg version="1.1" id="Calque_1" xmlns="http://www.w3.org/2000/svg" xmlns:xlink="http://www.w3.org/1999/xlink" x="0px" y="0px"
	 width="90px" height="90px" viewBox="0 0 90 90" enable-background="new 0 0 90 90" xml:space="preserve">
<g id="Calque_2">
</g>
<circle opacity="0.2" fill="#FFFFFF" cx="45.048" cy="45" r="43.615"/>
<g transform="translate(0,-952.36218)">
	<path fill="#FFFFFF" stroke="#FFFFFF" stroke-width="0.7" stroke-miterlimit="10" d="M42.745,972.555
		c-1.035,0.122-1.601,0.544-1.618,1.688c-0.005,0.956-0.011,1.919-0.018,2.877c-2.499,0.895-4.169,2.642-5.181,4.635
		c-0.738,1.453-1.143,3.028-1.308,4.531c-1.064,0.209-1.188,1.147-1.188,2.327c0.142,1.268,0.547,2.769,1.636,3.29
		c0.473,1.786,1.25,3.523,2.306,5.015c1.784,2.517,4.411,4.344,7.643,4.308c3.242-0.039,5.887-1.879,7.677-4.395
		c1.042-1.466,1.795-3.174,2.255-4.928c1.198-0.653,1.497-2.055,1.618-3.29c0-1.18-0.168-2.187-1.24-2.327
		c-0.206-1.603-0.656-3.22-1.445-4.687c-1.032-1.915-2.675-3.552-5.026-4.445c-0.012-0.976-0.023-1.955-0.035-2.93
		c0.035-1.126-0.798-1.48-1.601-1.671H42.745z M42.745,973.657h4.476c0.323,0.088,0.385,0.313,0.499,0.586
		c-0.012,1.607,0.295,3.545-0.465,4.894c-0.333,0.33-0.984,0.585-2.289,0.585c-1.302,0-1.973-0.266-2.308-0.603
		c-0.697-1.645-0.413-3.263-0.43-4.91C42.322,973.877,42.533,973.792,42.745,973.657z M41.196,978.309
		c0.086,0.586,0.255,1.149,0.688,1.585c0.629,0.633,1.629,0.93,3.082,0.93c1.448,0,2.431-0.285,3.063-0.913
		c0.438-0.436,0.604-1.006,0.689-1.603c1.952,0.809,3.31,2.157,4.2,3.808c0.983,1.826,1.408,3.993,1.445,6.013
		c0,3.163-1.117,5.972-2.564,8.064c-1.642,2.308-3.963,3.896-6.799,3.928c-2.815,0.033-5.093-1.532-6.731-3.842
		c-1.637-2.311-2.581-5.359-2.633-8.082c-0.02-1.996,0.476-4.336,1.273-5.944C38.102,980.441,39.61,978.973,41.196,978.309z
		 M38.236,1000.675c-3.697,0.75-6.806,2.228-9.003,4.291c-2.196,2.062-3.465,4.729-3.426,7.736c0,3.271-0.334,5.483,0.207,7.116
		c0.271,0.816,0.846,1.48,1.704,1.844c0.858,0.365,1.962,0.485,3.495,0.465c6.124,0.079,21.181,0.032,27.489,0
		c1.545,0,2.664-0.143,3.529-0.5c0.865-0.358,1.457-0.987,1.739-1.792c0.563-1.609,0.224-3.792,0.224-7.064
		c0-3.032-1.284-5.716-3.495-7.788c-2.21-2.073-5.326-3.554-9.02-4.308c-0.243-0.053-0.516,0.083-0.619,0.31
		c-1.298,2.859-3.69,4.238-6.093,4.238c-2.405,0-4.813-1.379-6.112-4.238C38.669,1000.676,38.391,1000.667,38.236,1000.675
		L38.236,1000.675z M38.098,1001.847c1.51,2.913,4.177,4.479,6.869,4.479c2.691,0,5.34-1.567,6.85-4.479
		c1.295,0.286,2.502,0.657,3.616,1.12l0.034,18.058c-6.04,0.024-14.793,0.051-20.932,0.017l-0.034-18.075
		C35.608,1002.508,36.807,1002.129,38.098,1001.847L38.098,1001.847z M33.399,1003.465l0.034,17.576
		c-0.707-0.006-1.654-0.01-2.22-0.017c-1.461,0.02-2.45-0.119-3.064-0.379c-0.613-0.261-0.89-0.585-1.084-1.172
		c-0.389-1.173-0.155-3.437-0.155-6.771c0-0.006,0-0.012,0-0.018c-0.035-2.691,1.073-5.023,3.081-6.909
		C30.934,1004.889,32.08,1004.119,33.399,1003.465L33.399,1003.465z M56.533,1003.483c1.313,0.652,2.463,1.421,3.409,2.308
		c2.024,1.898,3.15,4.257,3.15,6.978c0,3.335,0.227,5.565-0.173,6.704c-0.199,0.569-0.471,0.877-1.101,1.137
		c-0.63,0.261-1.637,0.413-3.116,0.413c-0.486,0-1.551,0-2.134,0L56.533,1003.483z"/>
</g>
</svg>
