<?xml version="1.0" encoding="utf-8"?>
<!-- Generator: Adobe Illustrator 16.0.0, SVG Export Plug-In . SVG Version: 6.00 Build 0)  -->
<!DOCTYPE svg PUBLIC "-//W3C//DTD SVG 1.1//EN" "http://www.w3.org/Graphics/SVG/1.1/DTD/svg11.dtd">
<svg version="1.1" id="Calque_1" xmlns="http://www.w3.org/2000/svg" xmlns:xlink="http://www.w3.org/1999/xlink" x="0px" y="0px"
	 width="90px" height="90px" viewBox="0 0 90 90" enable-background="new 0 0 90 90" xml:space="preserve">
<circle opacity="0.2" fill="#FFFFFF" enable-background="new    " cx="45" cy="45.089" r="43.615"/>
<g id="Calque_2">
</g>
<g>
	<path fill="#FFFFFF" d="M61.572,34.246c-0.119-1.058-0.237-1.764-0.472-2.35c0.472-0.941,0.822-2.116,0.822-3.526
		c0-2.35-0.938-4.701-2.82-6.464c-1.881-1.997-5.641-4.23-12.692-4.23c-17.272,0-25.03,12.34-25.03,23.74
		c0,11.516,7.639,16.334,13.751,20.096c4.581,2.936,8.224,5.17,8.224,9.402c0,0.35,0.12,0.822,0.471,1.057
		c0.236,0.234,0.586,0.354,1.058,0.354H45c5.993-0.354,17.393-3.762,17.393-13.75c0-1.41-0.235-2.469-0.704-3.408h2.585
		c0.469,0,0.94-0.238,1.175-0.588c0.823-1.174,1.176-2.352,1.176-3.762c0-0.939-0.118-1.645-0.353-2.232
		c0.938-1.057,2.349-3.291,2.349-6.58l0,0l0,0c0,0,0,0,0-0.119C68.62,38.241,63.685,35.303,61.572,34.246z M46.176,69.383
		c-0.826-4.816-5.055-7.52-9.521-10.34c-6.107-3.762-12.335-7.756-12.335-17.627c0-14.339,11.515-20.919,22.209-20.919
		c5.994,0,9.047,1.882,10.576,3.409c1.293,1.292,1.997,2.939,1.997,4.349c0,0.47-0.116,0.941-0.116,1.292
		c-1.058-0.47-2.588-0.94-4.819-0.94c-2.233,0-4.115,0.47-5.173,0.706c-1.057-0.941-3.289-2.468-5.757-2.468
		c-4.231,0-6.815,3.173-6.815,6.227c0,3.174,2.115,4.818,3.876,5.641c0.588,9.989,9.169,12.928,14.456,14.692
		c1.41,0.469,2.939,1.055,3.29,1.408l0,0c0.707,0.707,1.526,1.764,1.526,3.762C59.455,66.562,49.817,68.795,46.176,69.383z
		 M63.685,47.172c-0.585,0.471-0.704,1.176-0.467,1.764c0,0,0.467,0.938,0.467,1.998c0,0.586-0.116,1.057-0.235,1.408h-3.994
		c-0.353-0.232-0.704-0.469-1.057-0.586c0-0.117,0.118-0.236,0.118-0.352c0,0,0.116-0.943,1.054-1.998
		c0.591-0.588,0.591-1.529,0-2.117c-0.584-0.588-1.527-0.588-2.114,0c-1.292,1.293-1.643,2.584-1.88,3.291l0,0
		c-5.288-1.764-12.457-4.23-12.457-13.044c0-0.707-0.469-1.294-1.177-1.411c-0.234-0.117-2.702-0.705-2.702-3.055
		c0-1.41,1.41-3.291,3.879-3.291c2.231,0,4.348,2.234,4.348,2.234c0.352,0.469,1.056,0.589,1.644,0.352c0,0,2.115-0.823,5.056-0.823
		c2.346,0,3.76,0.704,4.229,0.94c0.119,0.47,0.354,1.41,0.354,2.585c0,0.588,0.35,1.058,0.82,1.292
		c2.001,0.824,4.585,2.469,5.643,3.998h-2.115c-0.823,0-1.41,0.705-1.41,1.409c0,0.822,0.703,1.409,1.41,1.409h2.465
		C65.096,45.879,63.804,47.055,63.685,47.172z"/>
	<path fill="#FFFFFF" d="M55.694,34.128c-1.41-0.94-3.759-0.117-5.054,0.471c-0.704,0.352-1.056,1.176-0.823,1.88
		c0.353,0.704,1.176,1.058,1.88,0.822c0.707-0.352,1.53-0.588,2.117-0.588c0.235,0.47,0.705,0.704,1.293,0.704
		c0.822,0,1.408-0.704,1.408-1.409C56.634,35.186,56.282,34.481,55.694,34.128z"/>
	<path fill="#FFFFFF" d="M41.71,31.425c-0.705,0.353-1.058,1.177-0.824,1.882c0.352,0.704,1.176,1.056,1.88,0.822
		c0,0,1.059-0.353,1.883,0.705c0.235,0.47,0.701,0.587,1.172,0.587c0.236,0,0.588-0.117,0.823-0.234
		c0.705-0.471,0.824-1.412,0.354-1.998C45.35,30.72,42.766,30.955,41.71,31.425z"/>
</g>
</svg>
