<?xml version="1.0" encoding="utf-8"?>
<!-- Generator: Adobe Illustrator 16.0.0, SVG Export Plug-In . SVG Version: 6.00 Build 0)  -->
<!DOCTYPE svg PUBLIC "-//W3C//DTD SVG 1.1//EN" "http://www.w3.org/Graphics/SVG/1.1/DTD/svg11.dtd">
<svg version="1.1" id="Calque_1" xmlns="http://www.w3.org/2000/svg" xmlns:xlink="http://www.w3.org/1999/xlink" x="0px" y="0px"
	 width="90px" height="90px" viewBox="0 0 90 90" enable-background="new 0 0 90 90" xml:space="preserve">
<circle opacity="0.2" fill="#FFFFFF" cx="45" cy="45.089" r="43.615"/>
<g id="Calque_2">
</g>
<g>
	<g>
		<path fill="#FFFFFF" d="M33.67,57.32c-0.041,0-0.08-0.003-0.124-0.008l-10.362-1.219c-1.375-0.161-2.449-1.187-2.676-2.552
			c-0.225-1.365,0.465-2.683,1.712-3.277l14.65-6.977l1.953-8.79c0.321-1.441,1.526-2.408,3.001-2.408c0.006,0,0.01,0,0.015,0.001
			c1.48,0.006,2.684,0.982,2.993,2.431l0.711,3.322l8.616-8.616v-1.625c0-0.322,0.151-0.627,0.41-0.82l8.197-6.148
			c0.404-0.301,0.98-0.264,1.339,0.096l2.049,2.049c0.4,0.4,0.4,1.049,0,1.449c-0.399,0.4-1.049,0.4-1.448,0l-1.42-1.42
			l-7.077,5.308v1.537c0,0.272-0.108,0.533-0.299,0.726L45.662,40.627c-0.264,0.262-0.651,0.362-1.014,0.258
			c-0.361-0.107-0.634-0.4-0.713-0.769l-1.107-5.165c-0.162-0.756-0.869-0.851-1-0.812c-0.198,0-0.836,0.059-1,0.803l-2.062,9.278
			c-0.067,0.308-0.276,0.566-0.56,0.703l-15.102,7.191c-0.646,0.308-0.601,0.914-0.57,1.093c0.031,0.177,0.18,0.769,0.894,0.85
			l10.361,1.222c0.562,0.066,0.966,0.574,0.898,1.137C34.624,56.937,34.182,57.32,33.67,57.32z"/>
		<path fill="#FFFFFF" d="M38.271,69.569c-0.076,0-0.15-0.002-0.226-0.008c-1.423-0.094-2.557-1.054-2.882-2.441l-2.492-10.59
			c-0.13-0.552,0.211-1.103,0.763-1.231c0.556-0.14,1.103,0.213,1.231,0.762l2.492,10.589c0.179,0.752,0.827,0.852,1.025,0.865
			c0.186,0.017,0.848,0.002,1.125-0.724l5.701-14.96c0.099-0.26,0.3-0.469,0.554-0.578l8.087-3.465
			c0.649-0.279,0.635-0.88,0.614-1.058c-0.021-0.177-0.137-0.767-0.834-0.894l-4.57-0.83c-0.376-0.068-0.683-0.341-0.797-0.705
			c-0.114-0.363-0.017-0.76,0.253-1.029l10.248-10.227c0.193-0.193,0.453-0.299,0.726-0.299h1.515l5.732-8.206l-1.093,0.008
			c-0.002,0-0.004,0-0.006,0c-0.562,0-1.021-0.455-1.024-1.019c-0.005-0.563,0.453-1.027,1.019-1.03l3.074-0.021
			c0.002,0,0.004,0,0.006,0c0.382,0,0.73,0.211,0.906,0.549c0.178,0.338,0.151,0.748-0.065,1.064l-7.174,10.268
			c-0.193,0.274-0.507,0.439-0.84,0.439h-1.625l-8.562,8.544l2.646,0.479c1.367,0.25,2.349,1.302,2.507,2.684
			c0.155,1.379-0.568,2.621-1.843,3.17l-7.69,3.293l-5.545,14.556C40.742,68.783,39.598,69.569,38.271,69.569z"/>
		<path fill="#FFFFFF" d="M40.84,51.171c-0.262,0-0.524-0.101-0.726-0.299l-2.049-2.049c-0.399-0.4-0.399-1.05,0-1.449
			c0.399-0.4,1.05-0.4,1.448,0l2.05,2.049c0.399,0.4,0.399,1.049,0,1.449C41.365,51.07,41.103,51.171,40.84,51.171z"/>
	</g>
	<path fill="#FFFFFF" d="M37.766,59.369c-0.266,0-0.533-0.103-0.72-0.308c-0.204-0.185-0.305-0.451-0.305-0.717
		c0-0.267,0.103-0.533,0.287-0.719c0.41-0.388,1.086-0.388,1.455-0.021c0.207,0.225,0.308,0.472,0.308,0.737
		c0,0.267-0.103,0.533-0.29,0.718C38.299,59.266,38.032,59.369,37.766,59.369z"/>
</g>
</svg>
