<?xml version="1.0" encoding="utf-8"?>
<!-- Generator: Adobe Illustrator 22.0.1, SVG Export Plug-In . SVG Version: 6.00 Build 0)  -->
<svg version="1.1" id="Calque_1" xmlns="http://www.w3.org/2000/svg" xmlns:xlink="http://www.w3.org/1999/xlink" x="0px" y="0px"
	 width="90px" height="90px" viewBox="0 0 90 90" style="enable-background:new 0 0 90 90;" xml:space="preserve">
<style type="text/css">
	.st0{opacity:0.2;fill:#FFFFFF;enable-background:new    ;}
	.st1{fill:#FFFFFF;}
</style>
<circle class="st0" cx="45" cy="45.1" r="43.6"/>
<g id="Calque_2_1_">
</g>
<g transform="translate(0,-288.53332)">
	<path class="st1" d="M45,310c-13,0-23.5,10.5-23.5,23.5c0,13,10.5,23.5,23.5,23.5s23.5-10.5,23.5-23.5C68.5,320.6,58,310,45,310z
		 M45,311.7c12.1,0,21.8,9.8,21.8,21.8c0,12.1-9.8,21.8-21.8,21.8s-21.8-9.8-21.8-21.8C23.2,321.5,32.9,311.7,45,311.7z"/>
	<path class="st1" d="M30.7,333.5c-0.4,0-0.8,0.4-0.8,0.9c0.5,8,7.1,14.2,15.1,14.2h0c8,0,14.6-6.3,15.1-14.2c0-0.5-0.4-0.9-0.8-0.9
		H30.7C30.7,333.5,30.7,333.5,30.7,333.5z M31.9,335.2l26.2,0C57.2,341.8,51.8,347,45,347C38.2,347,32.8,341.8,31.9,335.2
		L31.9,335.2z"/>
	<path class="st1" d="M37.4,320.1c-1.8,0-3.4,1.5-3.4,3.4c0,1.8,1.5,3.4,3.4,3.4c1.8,0,3.4-1.5,3.4-3.4
		C40.8,321.6,39.3,320.1,37.4,320.1z M37.4,321.8c0.9,0,1.7,0.7,1.7,1.7c0,0.9-0.7,1.7-1.7,1.7c-0.9,0-1.7-0.7-1.7-1.7
		C35.8,322.5,36.5,321.8,37.4,321.8z"/>
	<path class="st1" d="M52.6,320.1c-1.8,0-3.4,1.5-3.4,3.4c0,1.8,1.5,3.4,3.4,3.4c1.8,0,3.4-1.5,3.4-3.4
		C55.9,321.6,54.4,320.1,52.6,320.1z M52.6,321.8c0.9,0,1.7,0.7,1.7,1.7c0,0.9-0.7,1.7-1.7,1.7c-0.9,0-1.7-0.7-1.7-1.7
		C50.9,322.5,51.6,321.8,52.6,321.8z"/>
	<path class="st1" d="M32.4,338.6v1.7H58v-1.7H32.4z"/>
</g>
</svg>
