<?xml version="1.0" encoding="utf-8"?>
<!-- Generator: Adobe Illustrator 16.0.0, SVG Export Plug-In . SVG Version: 6.00 Build 0)  -->
<!DOCTYPE svg PUBLIC "-//W3C//DTD SVG 1.1//EN" "http://www.w3.org/Graphics/SVG/1.1/DTD/svg11.dtd">
<svg version="1.1" id="Calque_1" xmlns="http://www.w3.org/2000/svg" xmlns:xlink="http://www.w3.org/1999/xlink" x="0px" y="0px"
	 width="90px" height="90px" viewBox="0 0 90 90" enable-background="new 0 0 90 90" xml:space="preserve">
<g id="Calque_2">
</g>
<circle opacity="0.2" fill="#FFFFFF" cx="45.047" cy="45" r="43.615"/>
<g>
	<path fill="#FFFFFF" d="M45.001,67.447c-12.377,0-22.448-10.069-22.448-22.447s10.071-22.447,22.448-22.447
		c2.517,0,5.027,0.436,7.461,1.297c0.401,0.142,0.669,0.522,0.669,0.948c0,0.426-0.268,0.806-0.669,0.947
		C44.3,28.625,38.817,36.364,38.817,45S44.3,61.375,52.463,64.255c0.4,0.142,0.669,0.521,0.669,0.948
		c0,0.425-0.269,0.805-0.669,0.947C50.028,67.012,47.518,67.447,45.001,67.447z M45.001,24.563c-11.27,0-20.438,9.168-20.438,20.437
		s9.168,20.438,20.438,20.438c1.378,0,2.754-0.145,4.116-0.431C41.651,61.224,36.807,53.509,36.807,45
		c0-8.51,4.845-16.224,12.311-20.007C47.755,24.708,46.379,24.563,45.001,24.563z"/>
</g>
<g>
	<path fill="#FFFFFF" d="M62.425,54.797c-0.206,0-0.415-0.064-0.591-0.192l-5.913-4.292l-5.912,4.292
		c-0.354,0.257-0.83,0.257-1.182,0c-0.353-0.255-0.5-0.709-0.365-1.123l2.26-6.951l-5.91-4.293c-0.353-0.255-0.5-0.71-0.366-1.124
		c0.136-0.415,0.521-0.695,0.957-0.695h7.307l2.256-6.948c0.133-0.414,0.521-0.695,0.956-0.695c0.435,0,0.82,0.281,0.954,0.695
		l2.26,6.948h7.308c0.437,0,0.822,0.28,0.955,0.695c0.135,0.414-0.012,0.869-0.365,1.125l-5.911,4.292l2.258,6.951
		c0.136,0.414-0.011,0.868-0.363,1.123C62.84,54.733,62.631,54.797,62.425,54.797z M55.921,48.064c0.206,0,0.414,0.064,0.59,0.192
		l4.002,2.905l-1.528-4.707c-0.134-0.414,0.012-0.868,0.364-1.125l3.998-2.901h-4.942c-0.436,0-0.821-0.28-0.955-0.694l-1.528-4.7
		l-1.526,4.7c-0.134,0.415-0.52,0.694-0.955,0.694h-4.942l3.997,2.903c0.353,0.255,0.5,0.709,0.364,1.123l-1.528,4.706l4-2.904
		C55.505,48.129,55.713,48.064,55.921,48.064z"/>
</g>
</svg>
