<?xml version="1.0" encoding="utf-8"?>
<!-- Generator: Adobe Illustrator 16.0.0, SVG Export Plug-In . SVG Version: 6.00 Build 0)  -->
<!DOCTYPE svg PUBLIC "-//W3C//DTD SVG 1.1//EN" "http://www.w3.org/Graphics/SVG/1.1/DTD/svg11.dtd">
<svg version="1.1" id="Calque_1" xmlns="http://www.w3.org/2000/svg" xmlns:xlink="http://www.w3.org/1999/xlink" x="0px" y="0px"
	 width="90px" height="90px" viewBox="0 0 90 90" enable-background="new 0 0 90 90" xml:space="preserve">
<circle opacity="0.2" fill="#FFFFFF" enable-background="new    " cx="45" cy="45.089" r="43.615"/>
<g id="Calque_2">
</g>
<path fill="#FFFFFF" d="M70.669,20.788l-1.022-1.022c-0.056-0.058-0.117-0.104-0.183-0.143l-0.246-0.245
	c-0.177-0.178-0.426-0.28-0.669-0.266c-0.25,0.007-0.486,0.116-0.652,0.303c-1.52,1.71-4.279,0.172-5.625,1.564
	c-1.153,1.194-0.454,3.591-0.235,4.243l-0.562,0.499l-1.345-1.345c-0.356-0.355-0.931-0.355-1.285,0
	c-0.355,0.355-0.355,0.93,0,1.286l1.269,1.269l-0.865,0.77l-1.222-1.222c-0.355-0.356-0.93-0.356-1.285,0
	c-0.355,0.355-0.355,0.93,0,1.285l1.147,1.146l-5.451,4.846c-0.907-1.051-3.096-3.142-6.396-3.471
	c-3.34-0.333-6.828,1.228-10.341,4.65l-0.706,0.692l0.747,0.648c0.016,0.014,1.534,1.347,1.516,2.959
	c-0.011,0.896-0.516,1.765-1.501,2.58l-0.136,0.141c-0.02,0.023-2.065,2.556-4.373,2.608c-1.058,0.031-2.098-0.503-3.055-1.617
	l-0.478-0.557l-0.646,0.353c-0.285,0.154-6.969,3.864-7.9,10.325c-0.578,4.008,1.188,8.108,5.252,12.193l0.168,0.214
	c3.599,3.599,7.21,5.414,10.76,5.413c0.498,0,0.993-0.035,1.487-0.106c6.462-0.932,10.172-7.617,10.327-7.9l0.351-0.646
	l-0.556-0.478c-1.111-0.957-1.642-1.954-1.617-3.051c0.049-2.33,2.584-4.357,2.611-4.378l0.139-0.134
	c0.813-0.987,1.683-1.492,2.579-1.502c0.011,0,0.02,0,0.03,0c1.598,0,2.916,1.5,2.929,1.512l0.646,0.759l0.697-0.714
	c3.42-3.514,4.984-6.992,4.649-10.341c-0.301-3.002-2.061-5.086-3.167-6.12l4.868-5.443l0.964,0.963
	c0.177,0.177,0.41,0.267,0.644,0.267c0.231,0,0.465-0.09,0.643-0.267c0.354-0.355,0.354-0.93,0-1.285l-1.036-1.035l0.771-0.862
	l1.081,1.081c0.176,0.176,0.409,0.265,0.643,0.265c0.23,0,0.464-0.089,0.642-0.265c0.355-0.356,0.355-0.932,0-1.286l-1.151-1.152
	l0.623-0.698c0.472,0.137,1.218,0.31,1.977,0.31c0.719,0,1.443-0.155,1.949-0.644c0.643-0.619,0.643-1.532,0.643-2.499
	c0-1.133,0-2.307,0.922-3.125c0.187-0.166,0.297-0.401,0.304-0.653C70.943,21.207,70.847,20.965,70.669,20.788z M46.95,45.683
	l-2.445-2.444l18.58-16.515l0.435,0.434L46.95,45.683z M25.759,64.029c-0.221-0.221-0.411-0.439-0.618-0.662l8.129-8.912
	l2.525,2.524l-9.184,7.898c-0.229-0.213-0.458-0.408-0.687-0.637L25.759,64.029z M57.81,44.089c0.26,2.592-0.928,5.359-3.53,8.236
	c-0.754-0.628-2.038-1.451-3.581-1.451c-0.012,0-0.023,0-0.035,0c-1.438,0.013-2.755,0.715-3.916,2.09
	c-0.512,0.422-3.159,2.748-3.227,5.694c-0.032,1.436,0.533,2.759,1.683,3.943c-1.016,1.566-4.115,5.737-8.637,6.382
	c-2.757,0.396-5.626-0.597-8.557-2.907l10.459-8.995l-5.257-5.257l-9.268,10.159c-2.36-2.961-3.377-5.861-2.979-8.646
	c0.647-4.523,4.817-7.622,6.382-8.639c1.186,1.15,2.542,1.717,3.943,1.683c2.947-0.067,5.274-2.715,5.696-3.226
	c1.376-1.161,2.079-2.479,2.09-3.916c0.013-1.56-0.818-2.858-1.452-3.617c2.869-2.595,5.628-3.778,8.217-3.531
	c2.691,0.261,4.524,2.05,5.236,2.874l-9.219,8.194l5.168,5.168l8.215-9.187C56.132,39.984,57.568,41.687,57.81,44.089z
	 M67.893,25.235c0,0.42,0,1.054-0.087,1.192c-0.259,0.248-1.46,0.148-2.479-0.205c-0.065-0.022-0.133-0.021-0.2-0.027l-1.323-1.323
	c-0.008-0.053-0.003-0.103-0.021-0.153c-0.348-0.994-0.449-2.221-0.216-2.464c0.152-0.098,0.783-0.098,1.204-0.098
	c1.098,0,2.534,0,3.769-0.886l0.22,0.219C67.893,22.721,67.893,24.146,67.893,25.235z"/>
</svg>
