<?xml version="1.0" encoding="utf-8"?>
<!-- Generator: Adobe Illustrator 16.0.0, SVG Export Plug-In . SVG Version: 6.00 Build 0)  -->
<!DOCTYPE svg PUBLIC "-//W3C//DTD SVG 1.1//EN" "http://www.w3.org/Graphics/SVG/1.1/DTD/svg11.dtd">
<svg version="1.1" id="Calque_1" xmlns="http://www.w3.org/2000/svg" xmlns:xlink="http://www.w3.org/1999/xlink" x="0px" y="0px"
	 width="90px" height="90px" viewBox="0 0 90 90" enable-background="new 0 0 90 90" xml:space="preserve">
<circle opacity="0.2" fill="#FFFFFF" cx="45" cy="45" r="43.615"/>
<g id="Calque_2">
</g>
<g>
	<path fill="#FFFFFF" d="M60.654,41.647c-0.339-2.419-1.443-4.667-3.098-6.45c1.358-2.08,1.571-4.583,0.51-6.875
		c-1.316-2.801-4.159-4.54-7.47-4.54H39.013c-5.347,0-9.675,4.031-9.675,8.996v0.466c0,0.426,0.254,0.807,0.678,0.977l5.814,2.334
		c-0.211,0.297-0.467,0.593-0.636,0.933L32.69,41.35c-1.061,1.656-1.613,3.565-1.613,5.517c0,2.758,2.292,5.008,5.093,5.008
		c2.97,0,5.728,1.697,7.043,4.285l4.753,9.463c0.169,0.381,0.552,0.594,0.933,0.594c0.086,0,0.17,0,0.255-0.043
		c0.467-0.127,0.806-0.55,0.806-1.018V53.827c0.467,0.127,0.977,0.17,1.486,0.17c2.079,0,4.073-1.061,5.134-2.886
		c1.4-2.504,0.51-5.602-2.036-7.087l-2.122-1.23c1.104-0.722,2.462-1.061,3.607-0.806l3.353,0.848c0.339,0.085,0.721,0,0.977-0.254
		C60.569,42.369,60.696,41.987,60.654,41.647z M39.013,25.905H50.64c2.461,0,4.541,1.273,5.516,3.353
		c0.679,1.485,0.594,3.141-0.211,4.541c-0.808-0.637-1.742-1.146-2.716-1.57c-1.783-0.765-3.735-1.146-5.942-1.146
		c-3.776,0-7.341,1.4-9.929,3.819l-5.898-2.375C31.629,28.833,34.939,25.905,39.013,25.905z M54.671,50.05
		c-0.849,1.527-2.843,2.207-4.625,1.57l-0.128-0.042v-4.286c0-1.019,0.297-2.08,0.892-2.928l2.588,1.527
		C54.968,46.739,55.52,48.565,54.671,50.05z M56.453,39.908L56.453,39.908c-2.25-0.468-4.965,0.466-6.704,2.334c0,0,0,0-0.043,0.042
		l0,0c-1.231,1.401-1.909,3.225-1.909,5.049v13.367l-2.716-5.432c-1.655-3.31-5.177-5.475-8.954-5.475
		c-1.612,0-2.97-1.273-2.97-2.885c0-1.57,0.424-3.055,1.273-4.37l2.462-3.862c2.122-3.353,6.11-5.432,10.311-5.432
		c1.952,0,3.564,0.297,5.093,0.977c2.885,1.103,5.007,3.394,5.898,6.11L56.453,39.908z"/>
	<circle fill="#FFFFFF" cx="49.579" cy="36.98" r="0.976"/>
</g>
</svg>
