<?xml version="1.0" encoding="utf-8"?>
<!-- Generator: Adobe Illustrator 22.0.1, SVG Export Plug-In . SVG Version: 6.00 Build 0)  -->
<svg version="1.1" id="Calque_1" xmlns="http://www.w3.org/2000/svg" xmlns:xlink="http://www.w3.org/1999/xlink" x="0px" y="0px"
	 width="90px" height="90px" viewBox="0 0 90 90" style="enable-background:new 0 0 90 90;" xml:space="preserve">
<style type="text/css">
	.st0{opacity:0.2;fill:#FFFFFF;enable-background:new    ;}
	.st1{fill:#FFFFFF;}
</style>
<circle class="st0" cx="45" cy="45" r="43.6"/>
<g id="Calque_2_1_">
</g>
<g>
	<path class="st1" d="M46.5,29.1c0,0.1,0,0.2,0.1,0.4c0.1,0.3,0.1,0.7,0.2,1.2c0.2,1.3,0.5,2.7,0.7,4.2c0.6,4.3,1,8.7,1,12.8
		c0,0.3,0,0.7,0,1c-0.1,3.9-0.4,8-1,12.2c-0.2,1.6-0.5,3.1-0.7,4.4c-0.1,0.5-0.2,0.9-0.2,1.2c0,0.2-0.1,0.4-0.1,0.4
		c-0.1,0.3,0.1,0.6,0.4,0.7c0.3,0.1,0.6-0.1,0.7-0.4c0-0.1,0-0.2,0.1-0.4c0.1-0.4,0.1-0.8,0.2-1.3c0.2-1.3,0.5-2.8,0.7-4.4
		c0.6-4.2,1-8.4,1-12.3c0-0.3,0-0.7,0-1c0-4.2-0.4-8.6-1-13c-0.2-1.5-0.5-3-0.7-4.2c-0.1-0.4-0.2-0.8-0.2-1.2c0-0.2-0.1-0.3-0.1-0.4
		c-0.1-0.3-0.4-0.5-0.7-0.4S46.5,28.8,46.5,29.1z M52.3,30.8c0,0.1,0.1,0.2,0.2,0.4c0.2,0.3,0.3,0.7,0.5,1c0.6,1.1,1.1,2.4,1.6,3.8
		c1.5,3.9,2.4,7.9,2.4,11.7c0,0.3,0,0.6,0,0.9c-0.1,3.6-1,7.4-2.4,11.2c-0.5,1.5-1.1,2.8-1.6,4.1c-0.2,0.4-0.4,0.8-0.5,1.1
		c-0.1,0.2-0.2,0.3-0.2,0.4c-0.1,0.3,0,0.6,0.2,0.8c0.3,0.1,0.6,0,0.8-0.2c0-0.1,0.1-0.2,0.2-0.4c0.2-0.3,0.4-0.7,0.6-1.2
		c0.6-1.3,1.1-2.6,1.7-4.1c1.4-3.9,2.3-7.9,2.4-11.6c0-0.3,0-0.6,0-0.9c0-3.9-0.9-8-2.4-12.1c-0.5-1.4-1.1-2.7-1.7-3.9
		c-0.2-0.4-0.4-0.8-0.6-1.1c-0.1-0.2-0.2-0.3-0.2-0.4c-0.2-0.3-0.5-0.4-0.8-0.2C52.3,30.2,52.2,30.5,52.3,30.8z"/>
	<path class="st1" d="M63.9,44.1c-0.1,0-0.2,0-0.4-0.1c-0.4-0.1-0.8-0.1-1.2-0.2c-1.3-0.2-2.8-0.4-4.4-0.6
		c-4.2-0.6-8.4-0.9-12.3-0.9c-0.2,0-0.5,0-0.7,0c-0.1,0-0.2,0-0.3,0c-4,0-8.4,0.4-12.7,0.9c-1.5,0.2-3,0.4-4.3,0.6
		c-0.5,0.1-0.9,0.1-1.2,0.2c-0.2,0-0.4,0.1-0.4,0.1c-0.3,0.1-0.5,0.4-0.4,0.7c0.1,0.3,0.4,0.5,0.7,0.4c0.1,0,0.2,0,0.4-0.1
		c0.3-0.1,0.7-0.1,1.2-0.2c1.3-0.2,2.7-0.4,4.2-0.6c4.3-0.6,8.6-0.9,12.5-0.9c0.1,0,0.2,0,0.3,0c0.2,0,0.5,0,0.7,0
		c3.9,0,8,0.4,12.2,0.9c1.6,0.2,3,0.4,4.3,0.6c0.5,0.1,0.9,0.1,1.2,0.2c0.2,0,0.4,0.1,0.4,0.1c0.3,0.1,0.6-0.1,0.7-0.4
		C64.4,44.5,64.2,44.2,63.9,44.1z M62.4,38.9c-0.1,0-0.2-0.1-0.4-0.2c-0.3-0.2-0.7-0.3-1.1-0.5c-1.2-0.5-2.6-1.1-4-1.6
		c-3.7-1.3-7.5-2.1-10.9-2.3c-0.3,0-0.7,0-1,0c-0.1,0-0.3,0-0.4,0c-3.7,0-7.6,0.9-11.5,2.2c-1.4,0.5-2.7,1-3.9,1.5
		c-0.4,0.2-0.8,0.4-1.1,0.5c-0.2,0.1-0.3,0.2-0.4,0.2c-0.3,0.1-0.4,0.5-0.2,0.8c0.1,0.3,0.5,0.4,0.8,0.2c0.1,0,0.2-0.1,0.4-0.2
		c0.3-0.1,0.7-0.3,1.1-0.5c1.2-0.5,2.4-1,3.8-1.5c3.8-1.3,7.6-2.1,11.2-2.2c0.1,0,0.3,0,0.4,0c0.3,0,0.6,0,1,0c3.4,0.1,7,1,10.6,2.2
		c1.4,0.5,2.7,1,3.9,1.5c0.4,0.2,0.8,0.4,1.1,0.5c0.2,0.1,0.3,0.2,0.4,0.2c0.3,0.1,0.6,0,0.8-0.2C62.8,39.4,62.7,39,62.4,38.9z"/>
	<path class="st1" d="M42,28.8c0,0.1,0,0.2-0.1,0.4c-0.1,0.3-0.1,0.7-0.2,1.1c-0.2,1.2-0.5,2.6-0.7,4.1c-0.7,4.4-1,8.9-1,13.2
		c0,4.3,0.4,8.7,1.1,13.2c0.2,1.6,0.5,3.1,0.8,4.4c0.1,0.5,0.2,0.9,0.3,1.2c0,0.2,0.1,0.4,0.1,0.4c0.1,0.3,0.4,0.5,0.7,0.4
		s0.5-0.4,0.4-0.7c0-0.1,0-0.2-0.1-0.4c-0.1-0.3-0.2-0.7-0.2-1.2c-0.3-1.3-0.5-2.8-0.8-4.3c-0.7-4.4-1.1-8.8-1.1-13
		c0-4.3,0.4-8.7,1-13c0.2-1.5,0.5-2.8,0.7-4c0.1-0.4,0.2-0.8,0.2-1.1c0-0.2,0.1-0.3,0.1-0.4c0.1-0.3-0.1-0.6-0.4-0.7
		C42.4,28.3,42.1,28.5,42,28.8z M36.2,30.5c0,0.1-0.1,0.2-0.2,0.4c-0.2,0.3-0.3,0.6-0.5,1c-0.6,1.1-1.1,2.3-1.6,3.7
		c-1.5,4-2.4,8.1-2.4,12.1c0,4,1,8.2,2.6,12.4c0.6,1.5,1.2,2.9,1.8,4.2c0.2,0.4,0.4,0.8,0.6,1.2c0.1,0.2,0.2,0.3,0.2,0.4
		c0.2,0.3,0.5,0.4,0.8,0.2c0.3-0.2,0.4-0.5,0.2-0.8c0-0.1-0.1-0.2-0.2-0.4c-0.2-0.3-0.4-0.7-0.6-1.1c-0.6-1.2-1.2-2.6-1.7-4.1
		c-1.5-4.1-2.4-8.2-2.5-12.1c0-3.9,0.8-7.9,2.3-11.7c0.5-1.3,1-2.5,1.6-3.6c0.2-0.4,0.4-0.7,0.5-1c0.1-0.2,0.2-0.3,0.2-0.3
		c0.2-0.3,0.1-0.6-0.2-0.8C36.7,30.1,36.4,30.2,36.2,30.5z"/>
	<path class="st1" d="M63.7,50c-0.1,0-0.2,0-0.4,0.1c-0.3,0.1-0.8,0.1-1.2,0.2c-1.3,0.2-2.8,0.4-4.3,0.6c-4.2,0.5-8.3,0.9-12.2,0.9
		c-0.2,0-0.4,0-0.7,0c-0.1,0-0.2,0-0.3,0c-4,0-8.3-0.4-12.6-0.9c-1.5-0.2-2.9-0.4-4.2-0.6c-0.4-0.1-0.8-0.1-1.2-0.2
		c-0.2,0-0.3-0.1-0.4-0.1c-0.3-0.1-0.6,0.1-0.7,0.4s0.1,0.6,0.4,0.7c0.1,0,0.2,0,0.4,0.1c0.3,0.1,0.7,0.1,1.2,0.2
		c1.3,0.2,2.7,0.4,4.3,0.6c4.3,0.6,8.7,0.9,12.7,0.9c0.1,0,0.2,0,0.3,0c0.2,0,0.4,0,0.7,0c3.9,0,8.1-0.4,12.3-0.9
		c1.6-0.2,3-0.4,4.3-0.6c0.5-0.1,0.9-0.1,1.2-0.2c0.2,0,0.4-0.1,0.4-0.1c0.3-0.1,0.5-0.4,0.4-0.7C64.3,50.1,64,49.9,63.7,50z
		 M62.3,55.4c-0.1,0-0.2,0.1-0.4,0.2c-0.3,0.2-0.7,0.3-1.1,0.5c-1.2,0.5-2.6,1-4,1.5c-3.9,1.3-7.9,2.1-11.5,2.2c-0.2,0-0.3,0-0.5,0
		c-3.8,0-7.8-0.8-11.8-2.2c-1.4-0.5-2.7-1-3.9-1.5c-0.4-0.2-0.8-0.3-1.1-0.5c-0.2-0.1-0.3-0.2-0.4-0.2c-0.3-0.1-0.6,0-0.8,0.2
		s0,0.6,0.2,0.8c0.1,0,0.2,0.1,0.4,0.2c0.3,0.2,0.7,0.3,1.1,0.5c1.2,0.5,2.5,1.1,4,1.6c4.1,1.4,8.3,2.3,12.2,2.3c0.2,0,0.3,0,0.5,0
		c3.8-0.1,7.8-0.9,11.8-2.3c1.5-0.5,2.8-1,4.1-1.6c0.4-0.2,0.8-0.4,1.2-0.5c0.2-0.1,0.3-0.2,0.4-0.2c0.3-0.1,0.4-0.5,0.3-0.8
		C63,55.4,62.6,55.3,62.3,55.4z"/>
	<path class="st1" d="M45,67.9C34,67.9,25.1,59,25.1,48S34,28.1,45,28.1S64.9,37,64.9,48S56,67.9,45,67.9z M45,66.7
		c10.3,0,18.7-8.4,18.7-18.7S55.3,29.3,45,29.3S26.3,37.6,26.3,48S34.7,66.7,45,66.7z"/>
	<path class="st1" d="M44.3,22.7v5.8c0,0.3,0.3,0.6,0.6,0.6s0.6-0.3,0.6-0.6v-5.8c0-0.3-0.3-0.6-0.6-0.6S44.3,22.4,44.3,22.7z"/>
</g>
</svg>
