<?xml version="1.0" encoding="utf-8"?>
<!-- Generator: Adobe Illustrator 16.0.0, SVG Export Plug-In . SVG Version: 6.00 Build 0)  -->
<!DOCTYPE svg PUBLIC "-//W3C//DTD SVG 1.1//EN" "http://www.w3.org/Graphics/SVG/1.1/DTD/svg11.dtd">
<svg version="1.1" id="Calque_1" xmlns="http://www.w3.org/2000/svg" xmlns:xlink="http://www.w3.org/1999/xlink" x="0px" y="0px"
	 width="90px" height="90px" viewBox="0 0 90 90" enable-background="new 0 0 90 90" xml:space="preserve">
<g id="Calque_2">
</g>
<circle opacity="0.2" fill="#FFFFFF" cx="45.357" cy="45" r="43.615"/>
<path fill="#FFFFFF" d="M56.151,49.145l-2.086-12.695c-0.464-2.818-3.161-5.108-6.018-5.108h-0.19v-1.807
	c0-0.872-0.966-1.505-2.062-1.72V17.621c0-0.439-0.356-0.795-0.795-0.795c-0.437,0-0.793,0.356-0.793,0.795v10.193
	c-1.097,0.215-2.064,0.848-2.064,1.72v1.805H41.95c-2.854,0-5.555,2.292-6.018,5.109l-2.084,12.697
	c-0.691,0.291-1.177,0.975-1.177,1.77V53.6c0,0.795,0.485,1.479,1.177,1.77l2.084,12.697c0.463,2.814,3.163,5.107,6.018,5.107h6.098
	c2.856,0,5.554-2.293,6.018-5.107l2.086-12.697c0.691-0.291,1.177-0.975,1.177-1.77v-2.686
	C57.328,50.119,56.843,49.436,56.151,49.145z M43.733,29.688c0.166-0.139,0.638-0.37,1.267-0.37c0.631,0,1.101,0.231,1.269,0.37
	v1.653h-2.535V29.688L43.733,29.688z M37.503,36.707c0.336-2.048,2.371-3.777,4.447-3.777h6.098c2.078,0,4.115,1.729,4.451,3.777
	l2.02,12.29H35.481L37.503,36.707z M54.25,57.152c-0.078-0.021-0.154-0.049-0.242-0.049c-0.496,0-0.899,0.402-0.899,0.898
	c0,0.002,0,0.002,0,0.002c0,0.479,0.381,0.865,0.856,0.891l-0.478,2.898c-0.224,0.162-0.379,0.414-0.379,0.711
	c0,0.002,0,0.002,0,0.002c0,0.193,0.073,0.361,0.178,0.508l-0.787,4.793c-0.041,0.258-0.112,0.51-0.202,0.752
	c-0.152-0.117-0.332-0.197-0.541-0.197l0,0c-0.498,0-0.898,0.402-0.898,0.896c0,0.002,0,0.002,0,0.002
	c0,0.348,0.199,0.637,0.486,0.787c-0.334,0.359-0.72,0.676-1.142,0.924c-0.164-0.215-0.41-0.357-0.697-0.357
	c-0.498,0-0.899,0.402-0.899,0.898c0,0.002,0,0.002,0,0.002c0,0.006,0.002,0.01,0.002,0.016c-0.185,0.027-0.371,0.055-0.56,0.055
	h-2.164c0.002-0.023,0.016-0.045,0.016-0.07c0,0,0,0,0-0.002c0-0.496-0.403-0.898-0.897-0.898c0,0,0,0-0.002,0
	c-0.498,0-0.899,0.402-0.899,0.898c0,0.002,0,0.002,0,0.002c0,0.025,0.012,0.047,0.014,0.07H41.95c-0.187,0-0.371-0.027-0.558-0.055
	c0-0.006,0.002-0.01,0.002-0.016c0,0,0,0,0-0.002c0-0.496-0.401-0.898-0.899-0.898l0,0c-0.289,0-0.533,0.146-0.697,0.357
	c-0.424-0.248-0.81-0.564-1.144-0.924c0.285-0.148,0.488-0.439,0.488-0.787c0,0,0,0,0-0.002c0-0.494-0.404-0.896-0.898-0.896
	c-0.209,0-0.389,0.08-0.541,0.197c-0.094-0.242-0.159-0.494-0.204-0.752l-0.787-4.789c0.104-0.148,0.178-0.316,0.178-0.512
	c0,0,0,0,0-0.002c0-0.301-0.153-0.551-0.381-0.711l-0.474-2.898c0.474-0.025,0.854-0.41,0.854-0.891c0,0,0,0,0-0.002
	c-0.002-0.496-0.401-0.898-0.897-0.898l0,0c-0.086,0-0.164,0.027-0.244,0.049l-0.267-1.633h1.904
	c-0.022,0.074-0.041,0.15-0.041,0.23c0,0.496,0.404,0.898,0.899,0.898c0.496,0,0.898-0.402,0.898-0.898
	c0-0.08-0.019-0.156-0.039-0.23h2.783c-0.019,0.074-0.037,0.15-0.037,0.23c0,0.496,0.402,0.898,0.898,0.898
	c0.498,0,0.897-0.402,0.897-0.898c0-0.08-0.017-0.156-0.037-0.23h2.783c-0.021,0.074-0.039,0.15-0.039,0.23
	c0,0.496,0.404,0.898,0.897,0.898c0.5,0,0.902-0.402,0.902-0.898c0-0.08-0.019-0.156-0.041-0.23h2.785
	c-0.022,0.074-0.039,0.15-0.039,0.23c0,0.496,0.4,0.898,0.898,0.898l0,0c0.498,0,0.897-0.402,0.897-0.898
	c0-0.08-0.019-0.156-0.039-0.23h1.904L54.25,57.152z M55.739,53.6c0,0.178-0.153,0.332-0.331,0.332H34.593
	c-0.181,0-0.332-0.154-0.332-0.332v-2.686c0-0.18,0.151-0.33,0.332-0.33h20.815c0.178,0,0.331,0.15,0.331,0.33V53.6L55.739,53.6z
	 M49.505,66.111c-0.498,0-0.899,0.402-0.899,0.898c0,0.002,0,0.002,0,0.002c0,0.496,0.401,0.896,0.899,0.896
	c0.496,0,0.899-0.4,0.899-0.896c0,0,0,0,0-0.002C50.404,66.512,50.001,66.111,49.505,66.111z M49.505,61.607
	c-0.498,0-0.899,0.402-0.899,0.898c0,0.002,0,0.002,0,0.002c0,0.496,0.401,0.898,0.899,0.898c0.496,0,0.899-0.402,0.899-0.898
	c0,0,0,0,0-0.002C50.404,62.01,50.001,61.607,49.505,61.607z M38.244,63.859c-0.495,0-0.897,0.402-0.897,0.898
	c0,0.002,0,0.002,0,0.002c0,0.496,0.402,0.898,0.897,0.898c0.496,0,0.9-0.402,0.9-0.898c0,0,0,0,0-0.002
	C39.145,64.262,38.74,63.859,38.244,63.859z M40.497,66.111c0,0,0,0-0.002,0c-0.494,0-0.897,0.402-0.897,0.898
	c0,0.002,0,0.002,0,0.002c0,0.496,0.403,0.896,0.897,0.896c0.002,0,0.002,0,0.002,0c0.496,0,0.899-0.4,0.899-0.896c0,0,0,0,0-0.002
	C41.396,66.512,40.993,66.111,40.497,66.111z M38.244,59.355c-0.495,0-0.897,0.402-0.897,0.898c0,0.002,0,0.002,0,0.002
	c0,0.496,0.402,0.898,0.897,0.898c0.496,0,0.9-0.402,0.9-0.898c0,0,0,0,0-0.002C39.145,59.758,38.74,59.355,38.244,59.355z
	 M51.758,59.355c-0.002,0-0.002,0-0.002,0c-0.496,0-0.898,0.402-0.898,0.898c0,0.002,0,0.002,0,0.002
	c0,0.496,0.402,0.898,0.898,0.898c0,0,0,0,0.002,0c0.496,0,0.899-0.402,0.899-0.898c0,0,0,0,0-0.002
	C52.657,59.758,52.254,59.355,51.758,59.355z M51.758,63.859c-0.002,0-0.002,0-0.002,0c-0.496,0-0.898,0.402-0.898,0.898
	c0,0.002,0,0.002,0,0.002c0,0.496,0.402,0.898,0.898,0.898c0,0,0,0,0.002,0c0.496,0,0.899-0.402,0.899-0.898c0,0,0,0,0-0.002
	C52.657,64.262,52.254,63.859,51.758,63.859z M49.505,57.104c-0.498,0-0.899,0.402-0.899,0.898c0,0.002,0,0.002,0,0.002
	c0,0.498,0.401,0.898,0.899,0.898c0.496,0,0.899-0.4,0.899-0.898c0,0,0,0,0-0.002C50.404,57.506,50.001,57.104,49.505,57.104z
	 M45.002,66.111c0,0,0,0-0.002,0c-0.496,0-0.899,0.402-0.899,0.898c0,0.002,0,0.002,0,0.002c0,0.496,0.403,0.896,0.899,0.896
	c0.002,0,0.002,0,0.002,0c0.494,0,0.897-0.4,0.897-0.896c0,0,0,0,0-0.002C45.899,66.512,45.496,66.111,45.002,66.111z
	 M45.002,61.607c0,0,0,0-0.002,0c-0.496,0-0.899,0.402-0.899,0.898c0,0.002,0,0.002,0,0.002c0,0.496,0.403,0.898,0.899,0.898
	c0.002,0,0.002,0,0.002,0c0.494,0,0.897-0.402,0.897-0.898c0,0,0,0,0-0.002C45.899,62.01,45.496,61.607,45.002,61.607z
	 M45.002,57.104c0,0,0,0-0.002,0c-0.496,0-0.897,0.402-0.899,0.898c0,0.002,0,0.002,0,0.002c0,0.498,0.403,0.898,0.899,0.898
	c0.002,0,0.002,0,0.002,0c0.494,0,0.897-0.4,0.897-0.898c0,0,0,0,0-0.002C45.897,57.506,45.496,57.104,45.002,57.104z
	 M47.255,68.363c-0.498,0-0.9,0.4-0.9,0.896l0,0c0,0.5,0.402,0.902,0.9,0.902c0.495,0,0.897-0.402,0.897-0.902l0,0
	C48.152,68.764,47.75,68.363,47.255,68.363z M47.255,63.859c-0.498,0-0.9,0.402-0.9,0.898c0,0.002,0,0.002,0,0.002
	c0,0.496,0.402,0.898,0.9,0.898c0.495,0,0.897-0.402,0.897-0.898c0,0,0,0,0-0.002C48.152,64.262,47.75,63.859,47.255,63.859z
	 M40.497,61.607c0,0,0,0-0.002,0c-0.494,0-0.897,0.402-0.897,0.898c0,0.002,0,0.002,0,0.002c0,0.496,0.403,0.898,0.897,0.898
	c0.002,0,0.002,0,0.002,0c0.496,0,0.899-0.402,0.899-0.898c0,0,0,0,0-0.002C41.396,62.01,40.993,61.607,40.497,61.607z
	 M42.752,68.363c-0.5,0-0.9,0.4-0.9,0.896l0,0c0,0.5,0.4,0.902,0.9,0.902c0.494,0,0.896-0.402,0.896-0.902l0,0
	C43.647,68.764,43.246,68.363,42.752,68.363z M40.497,57.104c0,0,0,0-0.002,0c-0.494,0-0.896,0.402-0.897,0.898
	c0,0.002,0,0.002,0,0.002c0,0.498,0.403,0.898,0.897,0.898c0.002,0,0.002,0,0.002,0c0.496,0,0.899-0.4,0.899-0.898c0,0,0,0,0-0.002
	C41.395,57.506,40.993,57.104,40.497,57.104z M47.255,59.355c-0.498,0-0.9,0.402-0.9,0.898c0,0.002,0,0.002,0,0.002
	c0,0.496,0.402,0.898,0.9,0.898c0.495,0,0.897-0.402,0.897-0.898c0,0,0,0,0-0.002C48.152,59.758,47.75,59.355,47.255,59.355z
	 M42.752,59.355c-0.5,0-0.9,0.402-0.9,0.898c0,0.002,0,0.002,0,0.002c0,0.496,0.4,0.898,0.9,0.898c0.494,0,0.896-0.402,0.896-0.898
	c0,0,0,0,0-0.002C43.647,59.758,43.246,59.355,42.752,59.355z M42.752,63.859c-0.5,0-0.9,0.402-0.9,0.898c0,0.002,0,0.002,0,0.002
	c0,0.496,0.4,0.898,0.9,0.898c0.494,0,0.896-0.402,0.896-0.898c0,0,0,0,0-0.002C43.647,64.262,43.246,63.859,42.752,63.859z"/>
</svg>
