<?xml version="1.0" encoding="utf-8"?>
<!-- Generator: Adobe Illustrator 16.0.0, SVG Export Plug-In . SVG Version: 6.00 Build 0)  -->
<!DOCTYPE svg PUBLIC "-//W3C//DTD SVG 1.1//EN" "http://www.w3.org/Graphics/SVG/1.1/DTD/svg11.dtd">
<svg version="1.1" id="Calque_1" xmlns="http://www.w3.org/2000/svg" xmlns:xlink="http://www.w3.org/1999/xlink" x="0px" y="0px"
	 width="90px" height="90px" viewBox="0 0 90 90" enable-background="new 0 0 90 90" xml:space="preserve">
<circle opacity="0.2" fill="#FFFFFF" cx="45" cy="45.089" r="43.615"/>
<g id="Calque_2">
	<path fill="#FFFFFF" d="M57.57,52.171c-0.38,0-0.721-0.254-0.812-0.64l-1.524-6.2H34.695l-1.525,6.2
		c-0.109,0.453-0.564,0.735-1.015,0.613c-0.452-0.107-0.726-0.564-0.613-1.016l1.681-6.84c0.093-0.375,0.429-0.64,0.814-0.64H55.89
		c0.384,0,0.728,0.265,0.815,0.64l1.681,6.84c0.107,0.451-0.169,0.907-0.616,1.016C57.703,52.164,57.636,52.171,57.57,52.171
		L57.57,52.171z"/>
	<path fill="#FFFFFF" d="M34.152,65.499c-3.325,0-5.621-0.453-7.25-6.503c-0.696-2.587-0.462-4.658,0.686-6.161
		c1.235-1.61,3.504-2.464,6.562-2.464c3.258,0,6.867,0.194,8.494,2.508c1.194,1.698,1.146,4.268-0.146,7.865
		C41.036,64.813,38.741,65.499,34.152,65.499z M34.152,52.051c-1.753,0-4.085,0.316-5.229,1.805
		c-0.813,1.064-0.946,2.648-0.396,4.702c1.414,5.26,2.998,5.26,5.627,5.26c4.434,0,5.7-0.679,6.762-3.645
		c1.081-2.999,1.199-5.129,0.354-6.327C40.228,52.359,37.669,52.051,34.152,52.051L34.152,52.051z"/>
	<path fill="#FFFFFF" d="M62.885,64.968c-0.174,0-0.358-0.055-0.51-0.174c-0.369-0.282-0.438-0.811-0.156-1.178
		c0.479-0.626,1.327-0.833,2.068-1.016c0.364-0.09,1.039-0.252,1.143-0.407c0.082-0.169-0.109-0.83-0.213-1.185
		c-0.215-0.736-0.455-1.577-0.154-2.312c0.302-0.726,1.029-1.123,1.731-1.507c0.33-0.178,0.946-0.521,1.001-0.696
		c0.032-0.182-0.323-0.765-0.515-1.079c-0.399-0.663-0.854-1.409-0.75-2.201c0.102-0.777,0.697-1.35,1.274-1.901
		c0.257-0.246,0.792-0.758,0.795-0.947c-0.004-0.182-0.535-0.696-0.795-0.943c-0.577-0.552-1.172-1.125-1.274-1.899
		c-0.106-0.794,0.349-1.54,0.75-2.202c0.19-0.312,0.542-0.896,0.513-1.08c-0.055-0.176-0.669-0.516-1.002-0.696
		c-0.703-0.385-1.433-0.783-1.729-1.509c-0.304-0.737-0.061-1.572,0.154-2.312c0.106-0.354,0.296-1.015,0.217-1.183
		c-0.104-0.153-0.778-0.316-1.145-0.405c-0.743-0.182-1.587-0.387-2.066-1.016c-0.482-0.629-0.464-1.497-0.451-2.266
		c0.009-0.373,0.027-1.065-0.102-1.207c-0.142-0.122-0.831-0.106-1.202-0.099c-0.768,0.017-1.643,0.035-2.27-0.449
		c-0.625-0.48-0.832-1.325-1.015-2.069c-0.089-0.363-0.252-1.039-0.406-1.144c-0.172-0.08-0.827,0.111-1.184,0.215
		c-0.736,0.213-1.576,0.456-2.312,0.153c-0.728-0.301-1.125-1.028-1.507-1.731c-0.181-0.328-0.521-0.946-0.696-1.002
		c-0.193-0.015-0.765,0.325-1.081,0.515c-0.661,0.399-1.397,0.859-2.201,0.751c-0.775-0.101-1.346-0.698-1.902-1.274
		c-0.245-0.257-0.757-0.791-0.944-0.792c-0.183,0.002-0.698,0.533-0.943,0.792c-0.553,0.576-1.125,1.173-1.899,1.274
		c-0.795,0.109-1.535-0.346-2.197-0.748c-0.307-0.187-0.894-0.542-1.072-0.511c-0.176,0.057-0.514,0.669-0.696,1.001
		c-0.384,0.703-0.783,1.431-1.509,1.73c-0.735,0.304-1.572,0.062-2.31-0.153c-0.355-0.104-1.012-0.297-1.185-0.215
		c-0.153,0.101-0.318,0.778-0.407,1.14c-0.181,0.745-0.387,1.59-1.016,2.071c-0.629,0.48-1.493,0.467-2.266,0.447
		c-0.369-0.006-1.061-0.02-1.203,0.099c-0.121,0.14-0.106,0.832-0.101,1.205c0.017,0.771,0.036,1.641-0.449,2.268
		c-0.481,0.625-1.324,0.832-2.069,1.012c-0.363,0.091-1.039,0.254-1.143,0.409c-0.08,0.17,0.112,0.829,0.215,1.184
		c0.214,0.739,0.455,1.577,0.153,2.311c-0.3,0.726-1.029,1.125-1.731,1.51c-0.328,0.18-0.946,0.519-1.002,0.697
		c-0.03,0.18,0.325,0.765,0.514,1.078c0.401,0.661,0.856,1.409,0.752,2.201c-0.101,0.775-0.698,1.348-1.274,1.901
		c-0.257,0.245-0.79,0.756-0.792,0.945c0.001,0.184,0.533,0.696,0.792,0.943c0.577,0.553,1.174,1.124,1.274,1.901
		c0.106,0.792-0.35,1.54-0.752,2.201c-0.188,0.311-0.541,0.895-0.512,1.077c0.055,0.177,0.671,0.517,1.002,0.696
		c0.702,0.385,1.432,0.785,1.729,1.509c0.304,0.735,0.061,1.572-0.155,2.312c-0.104,0.355-0.294,1.016-0.215,1.182
		c0.103,0.154,0.778,0.316,1.143,0.407c0.745,0.18,1.588,0.385,2.069,1.015c0.282,0.368,0.213,0.896-0.156,1.178
		c-0.366,0.283-0.895,0.214-1.177-0.154c-0.119-0.16-0.754-0.314-1.136-0.403c-0.821-0.201-1.753-0.428-2.201-1.202
		c-0.446-0.769-0.176-1.685,0.058-2.491c0.107-0.378,0.292-1.012,0.214-1.197c-0.073-0.178-0.643-0.492-0.985-0.677
		c-0.743-0.407-1.586-0.874-1.817-1.736c-0.229-0.854,0.266-1.667,0.701-2.384c0.206-0.337,0.548-0.903,0.523-1.109
		c-0.025-0.188-0.491-0.637-0.77-0.906c-0.611-0.589-1.308-1.254-1.308-2.157c0-0.899,0.696-1.567,1.308-2.155
		c0.279-0.267,0.747-0.718,0.77-0.904c0.029-0.207-0.316-0.771-0.523-1.107c-0.435-0.72-0.929-1.532-0.701-2.386
		c0.232-0.867,1.074-1.329,1.819-1.734c0.341-0.187,0.911-0.5,0.985-0.68c0.077-0.186-0.106-0.82-0.215-1.198
		c-0.235-0.809-0.5-1.727-0.055-2.495c0.447-0.771,1.378-0.999,2.201-1.198c0.379-0.094,1.015-0.248,1.134-0.406
		c0.122-0.159,0.107-0.813,0.101-1.207c-0.018-0.849-0.037-1.805,0.594-2.434c0.63-0.63,1.586-0.599,2.427-0.592
		c0.392,0.008,1.047,0.022,1.207-0.097c0.158-0.121,0.316-0.757,0.403-1.136c0.2-0.821,0.427-1.753,1.2-2.201
		c0.77-0.444,1.686-0.179,2.493,0.059c0.378,0.108,1.008,0.292,1.197,0.215c0.178-0.074,0.492-0.645,0.679-0.985
		c0.409-0.743,0.871-1.587,1.738-1.819c0.854-0.232,1.666,0.266,2.384,0.701c0.338,0.207,0.91,0.538,1.107,0.523
		c0.188-0.025,0.636-0.491,0.905-0.77c0.589-0.612,1.255-1.308,2.156-1.308s1.572,0.696,2.156,1.308
		c0.268,0.279,0.717,0.747,0.905,0.77c0.183,0.005,0.771-0.316,1.109-0.523c0.717-0.435,1.529-0.938,2.383-0.701
		c0.868,0.232,1.33,1.074,1.733,1.819c0.187,0.341,0.503,0.911,0.679,0.985c0.188,0.083,0.82-0.106,1.197-0.215
		c0.808-0.237,1.727-0.5,2.495-0.055c0.771,0.447,0.998,1.378,1.199,2.199c0.091,0.381,0.247,1.015,0.401,1.136
		c0.162,0.122,0.81,0.106,1.208,0.101c0.846-0.012,1.799-0.037,2.426,0.592c0.63,0.628,0.606,1.585,0.593,2.429
		c-0.009,0.392-0.025,1.047,0.101,1.205c0.118,0.159,0.753,0.313,1.136,0.403c0.821,0.2,1.753,0.428,2.201,1.201
		c0.447,0.769,0.177,1.685-0.057,2.493c-0.106,0.378-0.292,1.01-0.215,1.197c0.074,0.178,0.644,0.492,0.985,0.677
		c0.742,0.409,1.587,0.875,1.817,1.738c0.229,0.852-0.264,1.666-0.702,2.384c-0.205,0.338-0.548,0.902-0.522,1.109
		c0.026,0.188,0.489,0.635,0.768,0.904c0.613,0.589,1.31,1.256,1.31,2.157c0,0.899-0.696,1.568-1.31,2.156
		c-0.279,0.267-0.745,0.717-0.768,0.903c-0.03,0.207,0.316,0.771,0.522,1.107c0.438,0.721,0.93,1.532,0.702,2.386
		c-0.232,0.868-1.075,1.33-1.817,1.734c-0.342,0.186-0.911,0.501-0.986,0.681c-0.078,0.187,0.105,0.818,0.215,1.198
		c0.237,0.808,0.503,1.725,0.055,2.492c-0.447,0.772-1.378,0.999-2.2,1.199c-0.384,0.094-1.015,0.245-1.137,0.403
		C63.386,64.855,63.136,64.968,62.885,64.968z"/>
	<path fill="#FFFFFF" d="M55.777,65.499c-4.589,0-6.887-0.686-8.35-4.756c-1.294-3.597-1.342-6.167-0.148-7.865
		c1.625-2.314,5.236-2.508,8.498-2.508c3.054,0,5.325,0.854,6.558,2.464c1.154,1.503,1.382,3.572,0.687,6.161
		C61.393,65.049,59.095,65.499,55.777,65.499z M55.777,52.051c-3.521,0-6.074,0.308-7.119,1.792
		c-0.844,1.202-0.725,3.327,0.353,6.331c1.065,2.965,2.33,3.645,6.763,3.645c2.627,0,4.213,0,5.628-5.26
		c0.552-2.058,0.42-3.638-0.396-4.702C59.857,52.367,57.526,52.051,55.777,52.051L55.777,52.051z"/>
</g>
</svg>
