<?xml version="1.0" encoding="utf-8"?>
<!-- Generator: Adobe Illustrator 16.0.0, SVG Export Plug-In . SVG Version: 6.00 Build 0)  -->
<!DOCTYPE svg PUBLIC "-//W3C//DTD SVG 1.1//EN" "http://www.w3.org/Graphics/SVG/1.1/DTD/svg11.dtd">
<svg version="1.1" id="Calque_1" xmlns="http://www.w3.org/2000/svg" xmlns:xlink="http://www.w3.org/1999/xlink" x="0px" y="0px"
	 width="90px" height="90px" viewBox="0 0 90 90" enable-background="new 0 0 90 90" xml:space="preserve">
<circle opacity="0.2" fill="#FFFFFF" cx="44.851" cy="45" r="43.615"/>
<g id="Calque_2">
</g>
<g>
	<rect x="41.736" y="62.866" fill="#FFFFFF" width="6.795" height="1.133"/>
	<rect x="43.801" y="65.73" fill="#FFFFFF" width="2.598" height="0.665"/>
	<path fill="#FFFFFF" d="M59.453,57.271c1.666-0.399,2.797-2.797,3.531-5.129c1.464-0.066,2.931-0.599,4.128-1.598
		c-1.132,0.866-2.53,1.065-3.862,0.666c0.466-1.598,0.731-2.931,0.8-3.33c0.133-0.866-0.135-1.466-0.401-1.8
		c-0.398-0.465-1.065-0.732-1.997-0.732c-0.266,0-0.532,0-0.8,0.066l0.068-0.998c0.398-0.401,0.931-0.601,1.464-0.601
		c1.067,0,1.999,0.8,2.132,1.865c-0.133-1.731-1.665-3.13-3.463-3.13h-0.068l0.468-7.394c1.065-3.062,1.598-5.86,1.53-7.46
		c-0.066-2.797-4.196-5.86-8.125-7.725c-2.397-0.8-4.928-1.333-7.593-1.466c0-1.065-0.465-2.131-1.398-2.797
		c-1.533-1.131-3.664-0.866-4.862,0.667l-1.798,2.398c-3.064-1.532-6.795-0.399-8.527,2.532c1.134-1.666,3.332-2.266,5.195-1.4
		c0.068,0.068,0.201,0.068,0.268,0.134c-2.131,0.732-4.13,1.799-6.062,2.997c-1.265,1.734-2.797,3.332-2.731,5.195
		c0.068,1.532,0.268,4.197,1,7.194l0.731,7.061c-0.064,0-0.064,0-0.133,0c-1.798,0-3.262,1.398-3.463,3.13
		c0.133-1.065,1.064-1.865,2.132-1.865c0.665,0,1.265,0.333,1.665,0.8l0.133,1.331c-0.266,0-0.467-0.066-0.732-0.066
		c-0.865,0-1.532,0.265-1.997,0.732c-0.268,0.333-0.535,0.866-0.4,1.798c0.066,0.333,0.265,1.398,0.599,2.731
		c-1.332,0.467-2.863,0.267-3.995-0.666c1.265,1.065,2.729,1.598,4.262,1.598c0.667,2.199,1.731,4.663,3.265,5.463
		c0,2.797-0.468,9.257-3.729,10.79c0.399,0.401,0.864,0.732,1.331,1.133c1.266,0.2,2.663,0.133,3.531-0.667
		c0,0-0.268,1.265-0.868,2.532c2.333,1.464,4.931,2.596,7.727,3.33v-4.597l-0.066-1.199c0.267,0.333,0.534,0.601,0.8,0.866
		c1.665,1.866,2.663,2.999,4.197,2.999h3.595c1.333,0,2.332-1.067,4.13-2.999c0.135-0.132,0.2-0.265,0.334-0.399v0.732v4.996
		c2.862-0.599,5.528-1.598,7.992-2.997c-0.799-1.466-1.199-3.13-1.199-3.13c1.398,1.331,4.196,0.599,5.528,0.199
		c0.135-0.134,0.266-0.199,0.334-0.333C59.852,68.194,59.453,60.134,59.453,57.271z M60.785,46.88v-0.333
		c0.268-0.065,0.601-0.065,0.866-0.065c0.932,0,1.532,0.333,1.333,1.331c-0.2,1.065-0.401,2.132-0.666,3.064
		c-0.334-0.2-0.6-0.399-0.933-0.667c-0.666-0.666-0.934-1.532-1.065-2.264L60.785,46.88z M43.269,17.973
		c0.731-0.931,2.064-1.131,2.997-0.399c0.333,0.268,0.6,0.599,0.731,0.932c-0.398,0-0.798,0-1.197,0
		c-0.999,0-2.065,0.067-3.064,0.134C43.003,18.24,43.269,17.973,43.269,17.973z M40.403,50.276c0,0.868-0.666,1.532-1.53,1.532
		c-0.868,0-1.532-0.664-1.532-1.532c0-0.864,0.664-1.531,1.532-1.531C39.737,48.746,40.403,49.412,40.403,50.276z M27.549,48.279
		c-0.2-1,0.467-1.333,1.332-1.333c0.268,0,0.533,0,0.866,0.068l0.199,0.399c-0.065,0.866-0.398,1.931-1.131,2.664
		c-0.201,0.2-0.467,0.401-0.731,0.601C27.882,49.945,27.683,49.145,27.549,48.279z M35.874,64.665
		c-2.263-2.132-0.798-4.064-3.33-8.326c-0.065,0.066-0.133,0.132-0.199,0.2c0,0-0.066,0-0.066,0.066
		c-0.066,0.065-0.133,0.065-0.133,0.133h-0.068c-0.065,0-0.131,0.066-0.131,0.066H31.88c-0.067,0-0.136,0-0.136,0
		c-0.066,0-0.197,0-0.266-0.066c0,0-0.067,0-0.067-0.068c-0.065,0-0.132-0.065-0.197-0.065c-0.068,0-0.068-0.066-0.134-0.066
		c-0.067-0.068-0.134-0.068-0.134-0.133c-0.066,0-0.066-0.066-0.134-0.134c-0.932-0.599-1.664-2.131-2.33-4.13
		c1.065-0.134,2.131-0.533,3.131-1.199l1.264,2.666v-2.865c0,0-3.797-16.652,6.062-16.119c-1.933,5.129-4.929,14.387-4.863,21.314
		l4.529-1.732c0.467-0.2-1.599,3.33-1.863,11.19C36.408,65.198,36.142,64.931,35.874,64.665z M59.188,56.271
		c-0.067,0-0.134,0-0.2,0.067H58.92c-0.065,0-0.065,0-0.134,0h-0.065c-0.066,0-0.133-0.067-0.199-0.067c0,0-0.068,0-0.068-0.066
		c-0.066,0-0.066-0.067-0.132-0.067c0,0-0.065,0-0.065-0.066c-0.068-0.065-0.136-0.133-0.202-0.2
		c-1.797,1.998-1.065,6.66-3.329,8.859c-0.333,0.265-0.599,0.532-0.866,0.798c-0.065,0.067-0.132,0.133-0.2,0.201
		c-0.199,0.2-0.4,0.399-0.599,0.599c-0.066,0.066-0.135,0.133-0.201,0.2c-0.199,0.199-0.398,0.4-0.532,0.6
		c-0.066,0.066-0.066,0.066-0.066,0.132c-2.797,2.931-3.996,4.531-5.127,4.531c-1.4,0-1.8,0-3.6,0c-1.397,0-2.396-1.6-5.06-4.463
		l0,0l0,0c-0.135-0.199-0.333-0.333-0.534-0.532c-0.066-0.068-0.132-0.134-0.132-0.2c-0.134-0.134-0.268-0.267-0.467-0.467
		c2.064-3.53,8.061-13.521,12.655-18.782l-7.527,1.997c0,0,3.331-6.859,8.727-13.521c2.264-0.733,2.531-2.265,3.529-1.533
		c1.731,1.333,3.597,4.862,2.996,14.654v1.065v3.663l1.199-2.598c0.932,0.601,2,0.932,3.064,1.065
		c-0.732,2.199-1.731,3.797-2.663,4.064C59.253,56.271,59.253,56.271,59.188,56.271z"/>
	<circle fill="#FFFFFF" cx="52.525" cy="50.277" r="1.531"/>
</g>
</svg>
