<?xml version="1.0" encoding="utf-8"?>
<!-- Generator: Adobe Illustrator 16.0.0, SVG Export Plug-In . SVG Version: 6.00 Build 0)  -->
<!DOCTYPE svg PUBLIC "-//W3C//DTD SVG 1.1//EN" "http://www.w3.org/Graphics/SVG/1.1/DTD/svg11.dtd">
<svg version="1.1" id="Calque_1" xmlns="http://www.w3.org/2000/svg" xmlns:xlink="http://www.w3.org/1999/xlink" x="0px" y="0px"
	 width="90px" height="90px" viewBox="0 0 90 90" enable-background="new 0 0 90 90" xml:space="preserve">
<circle opacity="0.2" fill="#FFFFFF" cx="45" cy="46.427" r="43.615"/>
<g id="Calque_2">
</g>
<path fill="#FFFFFF" d="M65.33,60.821l-8.5-10.517l0.876-1.665c0.175-0.351,0.351-0.701,0.526-1.052
	c2.892-6.222,0.963-13.671-4.558-17.965c0.526-1.49-1.49-3.243-3.505-4.294c-1.49-0.789-3.506-1.49-4.732-1.139
	c-0.438,0.088-0.701,0.351-0.789,0.526c-6.485-2.191-13.671,0.263-17.265,6.047c-0.175,0.263-0.438,0.613-0.613,0.964l-2.717,4.996
	c-0.175,0.525-0.088,1.052,0.351,1.227l7.8,4.294l0,0l13.846,7.537c0,0,0,0,0.088,0l0.876,0.526l3.593,8.676
	c1.753,4.294,5.872,7.099,10.517,7.099c0.876,0,1.752-0.088,2.542-0.263c1.052-0.263,1.84-0.964,2.191-2.016
	C66.207,62.749,66.031,61.609,65.33,60.821z M56.742,46.886L56.742,46.886c-0.175,0.351-0.263,0.614-0.438,0.964l-2.278,4.294
	l-5.871-3.155l0,0l-0.526-0.351c3.944-7.8,3.593-14.548,2.892-18.229c0.613,0.087,1.052,0.175,1.49,0.175h0.088l0,0
	C57.443,34.354,59.283,41.19,56.742,46.886z M33.869,41.103c4.557-7.888,10.867-10.955,13.759-12.094l0,0
	c0.175,0.087,0.263,0.175,0.438,0.263c0.175,0.087,0.35,0.175,0.613,0.263c0.701,3.155,1.578,10.079-2.542,18.229L33.869,41.103z
	 M51.921,28.833c-0.35,0-0.789-0.087-1.314-0.263l0,0c-0.175-0.088-0.35-0.088-0.438-0.175c0,0,0,0-0.087,0
	c-0.088,0-0.175-0.088-0.351-0.175c-0.262-0.087-0.525-0.263-0.789-0.438c-0.263-0.176-0.526-0.263-0.701-0.438l0,0
	c-0.087,0-0.087-0.087-0.175-0.087c0,0-0.088,0-0.088-0.088c-0.789-0.526-1.315-1.052-1.577-1.402l0,0
	c0.525,0,1.665,0.263,3.067,1.052C50.783,27.606,51.571,28.395,51.921,28.833z M26.945,35.143l2.278,1.139
	c0.088,0.087,0.263,0.087,0.438,0.087c0.351,0,0.613-0.175,0.789-0.438c0.263-0.438,0.088-0.964-0.351-1.139l-2.278-1.227
	l0.525-0.964c0.175-0.351,0.351-0.614,0.526-0.964c3.331-5.258,9.903-7.361,15.95-5.083l0,0c0.087,0.087,0.175,0.263,0.263,0.351
	l0.087,0.087c0.088,0.088,0.175,0.175,0.175,0.263l0.088,0.087c0.088,0.088,0.175,0.175,0.351,0.263l0,0l0.087,0.088
	c-3.417,1.49-9.289,4.908-13.583,12.444l-6.31-3.417L26.945,35.143z M64.191,63.187c-0.175,0.438-0.526,0.701-0.964,0.876l0,0
	c-0.701,0.087-1.402,0.175-2.104,0.175c-3.944,0-7.361-2.366-8.939-5.959l-2.716-6.66l4.469,2.453
	c0.088,0.088,0.175,0.088,0.263,0.088c0,0,0,0,0.088,0c0,0,0,0,0.087,0c0.088,0,0.175,0,0.263,0c0.087,0,0.087-0.088,0.175-0.088
	c0,0,0.088,0,0.088-0.087c0.087-0.087,0.175-0.175,0.263-0.263l0.175-0.263l0.789-1.402l7.975,9.903
	C64.278,62.223,64.366,62.749,64.191,63.187z"/>
</svg>
