<?xml version="1.0" encoding="utf-8"?>
<!-- Generator: Adobe Illustrator 16.0.0, SVG Export Plug-In . SVG Version: 6.00 Build 0)  -->
<!DOCTYPE svg PUBLIC "-//W3C//DTD SVG 1.1//EN" "http://www.w3.org/Graphics/SVG/1.1/DTD/svg11.dtd">
<svg version="1.1" id="Calque_1" xmlns="http://www.w3.org/2000/svg" xmlns:xlink="http://www.w3.org/1999/xlink" x="0px" y="0px"
	 width="90px" height="90px" viewBox="0 0 90 90" enable-background="new 0 0 90 90" xml:space="preserve">
<g id="Calque_2">
</g>
<circle opacity="0.2" fill="#FFFFFF" cx="45" cy="45" r="43.615"/>
<g transform="translate(-1 -1)">
	<path fill="#FFFFFF" d="M68.179,46c0,4.082-1.057,7.941-3.074,11.359l3.585,3.586c2.191,2.068,2.191,5.584,0.029,7.745
		c-2.069,2.19-5.584,2.19-7.759,0.015l-3.609-3.609c-3.537,1.999-7.387,3.082-11.351,3.082c-4.083,0-7.942-1.057-11.359-3.074
		l-3.585,3.587c-2.069,2.19-5.585,2.19-7.746,0.029c-2.191-2.068-2.191-5.585-0.015-7.76l3.609-3.61
		c-2-3.534-3.083-7.386-3.083-11.35c0-4.082,1.057-7.941,3.074-11.358l-3.585-3.586c-2.191-2.069-2.191-5.585-0.029-7.746
		c2.069-2.19,5.584-2.19,7.76-0.015l3.609,3.609c3.537-1.999,7.387-3.083,11.351-3.083c4.082,0,7.942,1.058,11.359,3.074
		l3.586-3.586c2.069-2.19,5.584-2.19,7.745-0.029c2.191,2.069,2.191,5.585,0.015,7.76l-3.609,3.609
		C67.096,38.187,68.179,42.037,68.179,46z M66.747,46c0-3.878-1.11-7.648-3.161-11.102c-0.167-0.281-0.123-0.641,0.109-0.872
		l3.998-3.998c1.611-1.612,1.611-4.198,0-5.722c-1.612-1.61-4.199-1.61-5.722,0l-3.998,3.999c-0.236,0.235-0.603,0.276-0.886,0.101
		c-3.309-2.068-7.08-3.152-11.088-3.152c-3.878,0-7.648,1.11-11.103,3.161c-0.281,0.167-0.64,0.122-0.872-0.109l-3.999-3.999
		c-1.611-1.61-4.198-1.61-5.72,0c-1.613,1.612-1.613,4.199,0,5.722l3.998,3.998c0.236,0.235,0.278,0.603,0.101,0.885
		c-2.067,3.31-3.152,7.08-3.152,11.089c0,3.878,1.11,7.648,3.162,11.103c0.167,0.281,0.122,0.64-0.11,0.871l-3.998,3.997
		c-1.613,1.612-1.613,4.2,0,5.721c1.611,1.612,4.198,1.612,5.72,0l3.999-3.997c0.236-0.235,0.603-0.276,0.885-0.102
		c3.31,2.07,7.081,3.154,11.089,3.154c3.878,0,7.649-1.111,11.102-3.162c0.282-0.166,0.64-0.122,0.872,0.109l3.998,3.997
		c1.612,1.612,4.199,1.612,5.722,0c1.611-1.611,1.611-4.198,0-5.721l-3.998-3.997c-0.236-0.236-0.277-0.603-0.101-0.886
		C65.662,53.779,66.747,50.008,66.747,46z"/>
	<path fill="#FFFFFF" d="M46,63.894c-9.882,0-17.894-8.011-17.894-17.894c0-9.882,8.011-17.894,17.894-17.894
		S63.894,36.118,63.894,46C63.894,55.883,55.882,63.894,46,63.894z M46,62.461c9.092,0,16.462-7.369,16.462-16.461
		S55.092,29.538,46,29.538S29.538,36.908,29.538,46S36.908,62.461,46,62.461z"/>
	<path fill="#FFFFFF" d="M46,52.441c-3.558,0-6.442-2.884-6.442-6.441s2.884-6.441,6.442-6.441s6.442,2.884,6.442,6.441
		S49.558,52.441,46,52.441z M46,51.01c2.767,0,5.011-2.242,5.011-5.01c0-2.767-2.244-5.01-5.011-5.01c-2.767,0-5.01,2.243-5.01,5.01
		C40.99,48.768,43.233,51.01,46,51.01z"/>
	<circle fill="#FFFFFF" cx="64.609" cy="27.391" r="1.432"/>
	<circle fill="#FFFFFF" cx="27.391" cy="27.391" r="1.432"/>
	<circle fill="#FFFFFF" cx="64.609" cy="64.609" r="1.431"/>
	<circle fill="#FFFFFF" cx="27.391" cy="64.609" r="1.431"/>
</g>
</svg>
