<?xml version="1.0" encoding="utf-8"?>
<!-- Generator: Adobe Illustrator 16.0.0, SVG Export Plug-In . SVG Version: 6.00 Build 0)  -->
<!DOCTYPE svg PUBLIC "-//W3C//DTD SVG 1.1//EN" "http://www.w3.org/Graphics/SVG/1.1/DTD/svg11.dtd">
<svg version="1.1" id="Calque_1" xmlns="http://www.w3.org/2000/svg" xmlns:xlink="http://www.w3.org/1999/xlink" x="0px" y="0px"
	 width="90px" height="90px" viewBox="0 0 90 90" enable-background="new 0 0 90 90" xml:space="preserve">
<circle opacity="0.2" fill="#FFFFFF" cx="45" cy="45" r="43.615"/>
<g id="Calque_2">
</g>
<g>
	<g transform="translate(-176.000000, -176.000000)">
		<g transform="translate(176.000000, 175.000000)">
			<path fill="#FFFFFF" d="M54.25,31.229l0.231-3.026l8.325,8.313l-3.037,0.233c-1.58,0.121-3.933,0.734-5.376,1.4
				c0,0-0.711,0.327-1.564,0.721c-0.743,0.344-1.308,0.611-1.308,0.611c0.443-0.959,1.328-2.877,1.328-2.877
				C53.515,35.166,54.129,32.811,54.25,31.229z M47.705,41.577c-0.503,1.093,0.625,2.222,1.717,1.718l6.056-2.795
				c1.164-0.538,3.217-1.072,4.491-1.17l5.829-0.448c1.103-0.085,1.598-1.424,0.815-2.205L54.323,24.386
				c-0.782-0.781-2.12-0.286-2.205,0.815L51.67,31.03c-0.099,1.274-0.634,3.33-1.169,4.491L47.705,41.577z"/>
			<path fill="#FFFFFF" d="M43.493,45.678l-2.698,2.698l0,0l-1.996-1.996c-0.505-0.505-1.324-0.505-1.83,0
				c-0.506,0.505-0.506,1.324,0,1.83l1.996,1.996l-2.699,2.698l-1.997-1.996c-0.505-0.505-1.324-0.505-1.829,0s-0.505,1.324,0,1.83
				l1.996,1.995l-8.197,8.197l0,0l-1.025-1.025c-0.505-0.506-1.325-0.506-1.83,0c-0.505,0.505-0.505,1.324,0,1.83l3.881,3.881
				c0.505,0.505,1.325,0.505,1.83,0c0.505-0.505,0.505-1.325,0-1.83l-1.025-1.025l21.726-21.727c0.505-0.505,0.505-1.324,0-1.83
				c-0.505-0.504-1.325-0.504-1.83,0l-2.643,2.644l-1.996-1.996c-0.505-0.505-1.325-0.505-1.83,0s-0.505,1.325,0,1.83L43.493,45.678
				L43.493,45.678z"/>
			<path fill="#FFFFFF" d="M50.525,46.888l0.056,0.057c1.266,1.266,1.268,3.314,0.005,4.577l-8.476,8.477
				c-1.262,1.263-3.312,1.261-4.578-0.005l-0.057-0.058c-1.266-1.266-1.267-3.314-0.005-4.577c0.505-0.505,0.505-1.324,0-1.829
				c-0.505-0.506-1.324-0.506-1.83,0c-2.273,2.273-2.271,5.961,0.005,8.236l0.057,0.057c2.275,2.275,5.963,2.278,8.237,0.005
				l8.477-8.476c2.273-2.273,2.27-5.962-0.005-8.236l-0.057-0.058c-2.276-2.275-5.964-2.278-8.237-0.005
				c-0.505,0.506-0.505,1.324,0,1.829c0.505,0.506,1.324,0.506,1.83,0C47.209,45.62,49.259,45.622,50.525,46.888z"/>
		</g>
	</g>
</g>
</svg>
