<?xml version="1.0" encoding="utf-8"?>
<!-- Generator: Adobe Illustrator 16.0.0, SVG Export Plug-In . SVG Version: 6.00 Build 0)  -->
<!DOCTYPE svg PUBLIC "-//W3C//DTD SVG 1.1//EN" "http://www.w3.org/Graphics/SVG/1.1/DTD/svg11.dtd">
<svg version="1.1" id="Calque_1" xmlns="http://www.w3.org/2000/svg" xmlns:xlink="http://www.w3.org/1999/xlink" x="0px" y="0px"
	 width="90px" height="90px" viewBox="0 0 90 90" enable-background="new 0 0 90 90" xml:space="preserve">
<g id="Calque_2">
</g>
<circle opacity="0.2" fill="#FFFFFF" cx="45.048" cy="46.427" r="43.615"/>
<g transform="translate(0,-288.53332)">
	<path fill="#FFFFFF" d="M44.994,307.236c-14.514,0-26.291,11.79-26.291,26.303c0,14.514,11.777,26.291,26.291,26.291
		s26.303-11.777,26.303-26.291C71.297,319.026,59.508,307.236,44.994,307.236z M44.994,308.886
		c13.625,0,24.653,11.028,24.653,24.653s-11.028,24.653-24.653,24.653c-13.626,0-24.653-11.027-24.653-24.653
		C20.341,319.914,31.368,308.886,44.994,308.886z"/>
	<path fill="#FFFFFF" d="M59.384,333.538c0-7.933-6.457-14.389-14.39-14.389s-14.377,6.456-14.377,14.389
		c0,7.934,6.444,14.378,14.377,14.378S59.384,341.472,59.384,333.538z M57.733,333.538c0,7.045-5.694,12.728-12.739,12.728
		s-12.727-5.683-12.727-12.728c0-7.044,5.682-12.738,12.727-12.738S57.733,326.494,57.733,333.538z"/>
	<path fill="#FFFFFF" d="M57.326,334.355c-0.454,0-0.821-0.368-0.821-0.822l0,0c0-0.453,0.367-0.821,0.821-0.821l0,0
		c0.453,0,0.822,0.368,0.822,0.821l0,0C58.148,333.986,57.78,334.355,57.326,334.355L57.326,334.355z"/>
	<path fill="#FFFFFF" d="M53.218,334.355c-0.454,0-0.822-0.368-0.822-0.822c0-0.453,0.368-0.821,0.822-0.821l0,0
		c0.453,0,0.821,0.368,0.821,0.821l0,0C54.039,333.986,53.671,334.355,53.218,334.355z"/>
	<path fill="#FFFFFF" d="M55.271,338.053c-0.453,0-0.821-0.367-0.821-0.822l0,0c0-0.453,0.368-0.821,0.821-0.821l0,0
		c0.454,0,0.822,0.368,0.822,0.821l0,0C56.094,337.686,55.726,338.053,55.271,338.053L55.271,338.053z"/>
	<path fill="#FFFFFF" d="M51.163,338.053c-0.454,0-0.822-0.367-0.822-0.822l0,0c0-0.453,0.368-0.821,0.822-0.821l0,0
		c0.453,0,0.822,0.368,0.822,0.821l0,0C51.985,337.686,51.616,338.053,51.163,338.053L51.163,338.053z"/>
	<path fill="#FFFFFF" d="M55.271,330.656c-0.453,0-0.821-0.367-0.821-0.821l0,0c0-0.454,0.368-0.822,0.821-0.822l0,0
		c0.454,0,0.822,0.368,0.822,0.822l0,0C56.094,330.289,55.726,330.656,55.271,330.656L55.271,330.656z"/>
	<path fill="#FFFFFF" d="M51.163,330.656c-0.454,0-0.822-0.367-0.822-0.821l0,0c0-0.454,0.368-0.822,0.822-0.822l0,0
		c0.453,0,0.822,0.368,0.822,0.822l0,0C51.985,330.289,51.616,330.656,51.163,330.656L51.163,330.656z"/>
	<path fill="#FFFFFF" d="M53.218,341.751c-0.454,0-0.822-0.368-0.822-0.822l0,0c0-0.453,0.368-0.821,0.822-0.821l0,0
		c0.453,0,0.821,0.368,0.821,0.821l0,0C54.039,341.383,53.671,341.751,53.218,341.751L53.218,341.751z"/>
	<path fill="#FFFFFF" d="M49.108,341.751c-0.454,0-0.821-0.368-0.821-0.822l0,0c0-0.453,0.367-0.821,0.821-0.821l0,0
		c0.454,0,0.822,0.368,0.822,0.821l0,0C49.931,341.383,49.562,341.751,49.108,341.751L49.108,341.751z"/>
	<path fill="#FFFFFF" d="M51.163,345.448c-0.454,0-0.822-0.367-0.822-0.821l0,0c0-0.454,0.368-0.822,0.822-0.822l0,0
		c0.453,0,0.822,0.368,0.822,0.822l0,0C51.985,345.081,51.616,345.448,51.163,345.448L51.163,345.448z"/>
	<path fill="#FFFFFF" d="M53.218,325.316c-0.454,0-0.822,0.368-0.822,0.821l0,0c0,0.454,0.368,0.822,0.822,0.822l0,0
		c0.453,0,0.821-0.368,0.821-0.822l0,0C54.039,325.684,53.671,325.316,53.218,325.316L53.218,325.316z"/>
	<path fill="#FFFFFF" d="M49.108,325.316c-0.454,0-0.821,0.368-0.821,0.821l0,0c0,0.454,0.367,0.822,0.821,0.822l0,0
		c0.454,0,0.822-0.368,0.822-0.822l0,0C49.931,325.684,49.562,325.316,49.108,325.316L49.108,325.316z"/>
	<path fill="#FFFFFF" d="M51.163,321.617c-0.454,0-0.822,0.368-0.822,0.822l0,0c0,0.453,0.368,0.821,0.822,0.821l0,0
		c0.453,0,0.822-0.368,0.822-0.821l0,0C51.985,321.985,51.616,321.617,51.163,321.617L51.163,321.617z"/>
	<path fill="#FFFFFF" d="M32.673,334.355c0.454,0,0.822-0.368,0.822-0.822l0,0c0-0.453-0.368-0.821-0.822-0.821l0,0
		c-0.453,0-0.821,0.368-0.821,0.821l0,0C31.852,333.986,32.22,334.355,32.673,334.355L32.673,334.355z"/>
	<path fill="#FFFFFF" d="M36.782,334.355c0.453,0,0.821-0.368,0.821-0.822l0,0c0-0.453-0.368-0.821-0.821-0.821l0,0
		c-0.454,0-0.822,0.368-0.822,0.821l0,0C35.96,333.986,36.328,334.355,36.782,334.355L36.782,334.355z"/>
	<path fill="#FFFFFF" d="M34.728,338.053c0.454,0,0.822-0.367,0.822-0.822l0,0c0-0.453-0.368-0.821-0.822-0.821l0,0
		c-0.454,0-0.821,0.368-0.821,0.821l0,0C33.906,337.686,34.273,338.053,34.728,338.053L34.728,338.053z"/>
	<path fill="#FFFFFF" d="M38.836,338.053c0.454,0,0.822-0.367,0.822-0.822l0,0c0-0.453-0.368-0.821-0.822-0.821l0,0
		c-0.453,0-0.821,0.368-0.821,0.821l0,0C38.015,337.686,38.383,338.053,38.836,338.053L38.836,338.053z"/>
	<path fill="#FFFFFF" d="M34.728,330.656c0.454,0,0.822-0.367,0.822-0.821l0,0c0-0.454-0.368-0.822-0.822-0.822l0,0
		c-0.454,0-0.821,0.368-0.821,0.822l0,0C33.906,330.289,34.273,330.656,34.728,330.656L34.728,330.656z"/>
	<path fill="#FFFFFF" d="M38.836,330.656c0.454,0,0.822-0.367,0.822-0.821l0,0c0-0.454-0.368-0.822-0.822-0.822l0,0
		c-0.453,0-0.821,0.368-0.821,0.822l0,0C38.015,330.289,38.383,330.656,38.836,330.656L38.836,330.656z"/>
	<path fill="#FFFFFF" d="M36.782,341.751c0.453,0,0.821-0.368,0.821-0.822l0,0c0-0.453-0.368-0.821-0.821-0.821l0,0
		c-0.454,0-0.822,0.368-0.822,0.821l0,0C35.96,341.383,36.328,341.751,36.782,341.751L36.782,341.751z"/>
	<path fill="#FFFFFF" d="M40.891,341.751c0.454,0,0.822-0.368,0.822-0.822l0,0c0-0.453-0.368-0.821-0.822-0.821l0,0
		c-0.454,0-0.821,0.368-0.821,0.821l0,0C40.069,341.383,40.437,341.751,40.891,341.751L40.891,341.751z"/>
	<path fill="#FFFFFF" d="M38.836,345.448c0.454,0,0.822-0.367,0.822-0.821l0,0c0-0.454-0.368-0.822-0.822-0.822l0,0
		c-0.453,0-0.821,0.368-0.821,0.822l0,0C38.015,345.081,38.383,345.448,38.836,345.448L38.836,345.448z"/>
	<path fill="#FFFFFF" d="M36.782,325.316c0.453,0,0.821,0.368,0.821,0.821l0,0c0,0.454-0.368,0.822-0.821,0.822l0,0
		c-0.454,0-0.822-0.368-0.822-0.822l0,0C35.96,325.684,36.328,325.316,36.782,325.316L36.782,325.316z"/>
	<path fill="#FFFFFF" d="M40.891,325.316c0.454,0,0.822,0.368,0.822,0.821l0,0c0,0.454-0.368,0.822-0.822,0.822l0,0
		c-0.454,0-0.821-0.368-0.821-0.822l0,0C40.069,325.684,40.437,325.316,40.891,325.316L40.891,325.316z"/>
	<path fill="#FFFFFF" d="M38.836,321.617c0.454,0,0.822,0.368,0.822,0.822l0,0c0,0.453-0.368,0.821-0.822,0.821l0,0
		c-0.453,0-0.821-0.368-0.821-0.821l0,0C38.015,321.985,38.383,321.617,38.836,321.617L38.836,321.617z"/>
	<path fill="#FFFFFF" d="M45,325.316c-0.454,0-0.822,0.368-0.822,0.821l0,0c0,0.454,0.368,0.822,0.822,0.822l0,0
		c0.453,0,0.821-0.368,0.821-0.822l0,0C45.821,325.684,45.453,325.316,45,325.316L45,325.316z"/>
	<path fill="#FFFFFF" d="M45,340.108c-0.454,0-0.822,0.368-0.822,0.821l0,0c0,0.454,0.368,0.822,0.822,0.822l0,0
		c0.453,0,0.821-0.368,0.821-0.822l0,0C45.821,340.476,45.453,340.108,45,340.108L45,340.108z"/>
	<path fill="#FFFFFF" d="M47.054,343.805c-0.453,0-0.821,0.368-0.821,0.822l0,0c0,0.454,0.368,0.821,0.821,0.821l0,0
		c0.454,0,0.822-0.367,0.822-0.821l0,0C47.876,344.173,47.508,343.805,47.054,343.805L47.054,343.805z"/>
	<path fill="#FFFFFF" d="M42.945,343.805c-0.454,0-0.821,0.368-0.821,0.822l0,0c0,0.454,0.367,0.821,0.821,0.821l0,0
		c0.453,0,0.822-0.367,0.822-0.821l0,0C43.768,344.173,43.398,343.805,42.945,343.805L42.945,343.805z"/>
	<path fill="#FFFFFF" d="M42.945,321.617c0.453,0,0.822,0.368,0.822,0.822l0,0c0,0.453-0.369,0.821-0.822,0.821l0,0
		c-0.454,0-0.821-0.368-0.821-0.821l0,0C42.124,321.985,42.491,321.617,42.945,321.617L42.945,321.617z"/>
	<path fill="#FFFFFF" d="M47.054,321.617c0.454,0,0.822,0.368,0.822,0.822l0,0c0,0.453-0.368,0.821-0.822,0.821l0,0
		c-0.453,0-0.821-0.368-0.821-0.821l0,0C46.232,321.985,46.601,321.617,47.054,321.617L47.054,321.617z"/>
	<path fill="#FFFFFF" d="M49.063,329.461c-2.241-2.242-5.891-2.242-8.133,0c-2.241,2.241-2.25,5.899-0.009,8.142
		c2.242,2.241,5.908,2.241,8.15,0C51.313,335.36,51.305,331.702,49.063,329.461L49.063,329.461z M47.905,330.619
		c1.614,1.613,1.623,4.211,0.009,5.824c-1.613,1.613-4.212,1.605-5.825-0.006c-1.613-1.613-1.613-4.203,0-5.816s4.203-1.613,5.816,0
		V330.619z"/>
	<path fill="#FFFFFF" d="M46.365,331.246c-0.452,0.048-0.779,0.452-0.73,0.903c0.02,0.191,0.107,0.37,0.245,0.504
		c0.489,0.489,0.49,1.269,0,1.759s-1.27,0.49-1.76,0c-0.276-0.359-0.793-0.427-1.152-0.149s-0.427,0.793-0.149,1.152
		c0.043,0.056,0.094,0.106,0.149,0.149c1.118,1.118,2.946,1.118,4.064,0s1.118-2.946,0-4.064
		C46.86,331.318,46.614,331.225,46.365,331.246L46.365,331.246z"/>
	<path fill="#FFFFFF" d="M44.994,312.574c-11.563,0-20.953,9.4-20.953,20.964c0,11.564,9.39,20.953,20.953,20.953
		s20.965-9.389,20.965-20.953C65.959,321.975,56.558,312.574,44.994,312.574z M44.994,314.224c10.675,0,19.314,8.64,19.314,19.314
		c0,10.676-8.639,19.304-19.314,19.304s-19.303-8.628-19.303-19.304C25.691,322.863,34.318,314.224,44.994,314.224z"/>
	<path fill="#FFFFFF" d="M44.934,315.861c-0.456,0.021-0.809,0.406-0.789,0.861c0.021,0.456,0.406,0.809,0.861,0.789
		c6.378,0.006,12.149,3.782,14.692,9.634c2.544,5.852,1.373,12.654-2.972,17.324c-0.332,0.311-0.35,0.83-0.039,1.162
		c0.311,0.331,0.83,0.349,1.162,0.038c0.027-0.025,0.054-0.054,0.078-0.084c4.787-5.146,6.077-12.649,3.275-19.097
		c-2.802-6.446-9.169-10.621-16.197-10.628C44.981,315.86,44.958,315.86,44.934,315.861z"/>
	<path fill="#FFFFFF" d="M45.066,351.204c0.456-0.023,0.807-0.411,0.784-0.867c-0.023-0.451-0.405-0.801-0.856-0.783
		c-6.378-0.006-12.149-3.782-14.692-9.634c-2.544-5.852-1.373-12.654,2.973-17.325c0.331-0.31,0.349-0.83,0.038-1.161
		s-0.829-0.349-1.161-0.039c-0.028,0.026-0.054,0.055-0.079,0.084c-4.787,5.146-6.077,12.65-3.275,19.097
		c2.803,6.447,9.157,10.622,16.185,10.629C45.01,351.205,45.038,351.205,45.066,351.204L45.066,351.204z"/>
</g>
</svg>
