<?xml version="1.0" encoding="utf-8"?>
<!-- Generator: Adobe Illustrator 16.0.0, SVG Export Plug-In . SVG Version: 6.00 Build 0)  -->
<!DOCTYPE svg PUBLIC "-//W3C//DTD SVG 1.1//EN" "http://www.w3.org/Graphics/SVG/1.1/DTD/svg11.dtd">
<svg version="1.1" id="Calque_1" xmlns="http://www.w3.org/2000/svg" xmlns:xlink="http://www.w3.org/1999/xlink" x="0px" y="0px"
	 width="90px" height="90px" viewBox="0 0 90 90" enable-background="new 0 0 90 90" xml:space="preserve">
<circle opacity="0.2" fill="#FFFFFF" cx="45.309" cy="45" r="43.615"/>
<g id="Calque_2">
</g>
<path fill="#FFFFFF" d="M60.787,43.436c2.824,0,5.48-1.099,7.477-3.097c4.123-4.122,4.123-10.829,0-14.951
	c-1.996-1.997-4.654-3.099-7.479-3.099s-5.479,1.1-7.475,3.096c-3.914,3.915-4.104,10.154-0.586,14.303L45,47.412l-7.725-7.722
	c3.518-4.151,3.326-10.391-0.586-14.305c-1.996-1.996-4.652-3.096-7.475-3.096c-2.826,0-5.482,1.102-7.48,3.099
	c-4.121,4.123-4.121,10.831,0,14.951c1.996,1.998,4.652,3.097,7.477,3.097c0,0,0,0,0.002,0c2.4,0,4.674-0.802,6.531-2.267
	l7.748,7.749L27.551,64.861c-0.418,0.417-0.418,1.09,0,1.505c0.207,0.209,0.48,0.312,0.752,0.312c0.24,0,0.473-0.094,0.668-0.254
	l0.975,0.975c0.209,0.208,0.48,0.312,0.754,0.312c0.271,0,0.545-0.103,0.752-0.312c0.416-0.416,0.416-1.089,0-1.505l-0.961-0.96
	l0.502-0.502l1.965,1.965c0.207,0.208,0.48,0.312,0.752,0.312c0.273,0,0.547-0.104,0.754-0.312c0.416-0.416,0.416-1.089,0-1.505
	l-1.965-1.965l0.502-0.5l1.965,1.965c0.209,0.208,0.48,0.312,0.754,0.312s0.545-0.104,0.752-0.312c0.416-0.416,0.416-1.089,0-1.505
	l-1.965-1.965L45,50.423l10.496,10.496l-1.965,1.965c-0.416,0.416-0.416,1.09,0,1.505c0.207,0.208,0.48,0.312,0.752,0.312
	c0.275,0,0.545-0.104,0.754-0.312l1.965-1.965l0.5,0.5l-1.965,1.965c-0.416,0.416-0.416,1.089,0,1.505
	c0.207,0.208,0.48,0.312,0.754,0.312c0.271,0,0.545-0.104,0.754-0.312l1.965-1.965l0.5,0.502l-0.961,0.961
	c-0.416,0.414-0.416,1.09,0,1.505c0.209,0.208,0.48,0.312,0.754,0.312c0.271,0,0.545-0.104,0.752-0.312l0.977-0.975
	c0.195,0.161,0.428,0.255,0.668,0.255c0.271,0,0.545-0.104,0.752-0.312c0.416-0.416,0.416-1.089,0-1.506L46.504,48.918l7.75-7.749
	C56.111,42.634,58.387,43.436,60.787,43.436z M29.213,41.307L29.213,41.307c-2.256,0-4.379-0.877-5.973-2.473
	c-3.291-3.292-3.291-8.648,0-11.94c1.596-1.596,3.717-2.475,5.975-2.475c2.254,0,4.373,0.878,5.967,2.472
	c3.08,3.081,3.238,7.948,0.557,11.262l-1.758-1.758c-0.035-0.034-0.078-0.048-0.117-0.077c1.689-2.276,1.525-5.506-0.537-7.57
	c-1.098-1.099-2.559-1.704-4.111-1.704c-1.555,0-3.018,0.606-4.119,1.706c-1.098,1.098-1.703,2.559-1.703,4.114
	c0,1.554,0.605,3.016,1.703,4.115c1.1,1.099,2.562,1.703,4.115,1.703c1.141,0,2.227-0.331,3.16-0.937
	c0.035,0.052,0.057,0.111,0.104,0.157l1.748,1.748C32.779,40.72,31.043,41.307,29.213,41.307z M31.82,35.471
	c-1.393,1.395-3.822,1.393-5.217,0c-0.697-0.696-1.082-1.623-1.082-2.608c0-0.986,0.385-1.912,1.082-2.609
	c0.695-0.697,1.625-1.081,2.611-1.081c0.984,0,1.91,0.384,2.605,1.08C33.258,31.691,33.258,34.032,31.82,35.471z M54.814,26.891
	c1.596-1.595,3.715-2.472,5.971-2.472c2.258,0,4.379,0.879,5.975,2.475c3.291,3.292,3.291,8.648,0,11.939
	c-1.596,1.596-3.717,2.474-5.973,2.474c-1.832,0-3.568-0.588-5.012-1.658l1.748-1.749c0.045-0.046,0.068-0.105,0.105-0.157
	c0.932,0.606,2.02,0.938,3.158,0.938c1.553,0,3.014-0.606,4.113-1.703c1.1-1.099,1.703-2.561,1.703-4.115
	c0-1.555-0.604-3.016-1.703-4.114c-1.1-1.101-2.561-1.706-4.115-1.706s-3.014,0.605-4.113,1.704c-1.1,1.1-1.705,2.562-1.705,4.116
	c0,1.267,0.42,2.459,1.164,3.456c-0.037,0.028-0.08,0.042-0.113,0.075l-1.758,1.758C51.578,34.839,51.734,29.972,54.814,26.891z
	 M57.098,32.862c0-0.987,0.383-1.913,1.08-2.61c0.697-0.696,1.621-1.08,2.607-1.08s1.912,0.384,2.611,1.081
	c0.695,0.697,1.078,1.624,1.078,2.609c0,0.985-0.383,1.912-1.078,2.608c-1.396,1.395-3.826,1.393-5.219,0
	C57.48,34.774,57.098,33.848,57.098,32.862z"/>
</svg>
