<?xml version="1.0" encoding="utf-8"?>
<!-- Generator: Adobe Illustrator 16.0.0, SVG Export Plug-In . SVG Version: 6.00 Build 0)  -->
<!DOCTYPE svg PUBLIC "-//W3C//DTD SVG 1.1//EN" "http://www.w3.org/Graphics/SVG/1.1/DTD/svg11.dtd">
<svg version="1.1" id="Calque_1" xmlns="http://www.w3.org/2000/svg" xmlns:xlink="http://www.w3.org/1999/xlink" x="0px" y="0px"
	 width="90px" height="90px" viewBox="0 0 90 90" enable-background="new 0 0 90 90" xml:space="preserve">
<circle opacity="0.2" fill="#FFFFFF" cx="45" cy="45" r="43.615"/>
<g id="Calque_2">
</g>
<path fill="#FFFFFF" d="M54.914,32.842c-2.287,0-4.164,1.878-4.164,4.166v6.102c-0.705-0.469-1.525-0.762-2.406-0.762
	c-1.348,0-2.521,0.646-3.283,1.643c-0.764-0.997-1.939-1.643-3.287-1.643c-0.881,0-1.762,0.293-2.406,0.762v-6.102
	c0-2.288-1.875-4.166-4.164-4.166s-4.283,1.878-4.283,4.166v15.666v3.638v0.586v4.987c0,6.923,5.691,12.615,12.672,12.615h2.816
	c6.982,0,12.672-5.633,12.672-12.615v-9.211V37.008C59.08,34.72,57.203,32.842,54.914,32.842z M48.287,44.048
	c1.348,0,2.404,1.056,2.404,2.406v6.219v2.229c0,1.35-1.115,2.406-2.404,2.406c-0.354,0-0.705-0.117-1.059-0.234
	c0.119-0.352,0.119-0.704,0.119-1.056c0-1.292-0.588-2.465-1.525-3.228v-6.335C45.881,45.163,46.996,44.048,48.287,44.048z
	 M41.713,44.048c1.352,0,2.406,1.056,2.406,2.406v5.397c-0.291-0.06-0.584-0.118-0.881-0.118h-3.93v-5.338
	C39.25,45.163,40.365,44.048,41.713,44.048z M32.68,37.008c0-1.35,1.115-2.406,2.406-2.406c1.289,0,2.406,1.056,2.406,2.406v9.505
	v5.339h-2.057c-1.055,0-1.992,0.352-2.756,0.938v-0.059V37.008z M57.32,61.885c0,5.984-4.869,10.854-10.912,10.854h-2.816
	c-6.043,0-10.912-4.87-10.912-10.854v-4.987v-0.586c0-1.525,1.23-2.758,2.756-2.758h2.934l0,0l0,0h4.869
	c1.352,0,2.406,1.056,2.406,2.407c0,1.349-1.113,2.406-2.406,2.406h-4.281c-0.471,0-0.881,0.411-0.881,0.879
	c0,0.469,0.41,0.88,0.881,0.88h2.934c1.584,0,2.875,1.291,2.875,2.816v1.994c0,0.47,0.41,0.88,0.879,0.88
	c0.471,0,0.881-0.41,0.881-0.88V63c0-1.291-0.527-2.465-1.408-3.287c0.527-0.235,0.938-0.646,1.35-1.056
	c0.586,0.293,1.232,0.469,1.877,0.469c2.289,0,4.166-1.877,4.166-4.165v-2.23v-6.277v-9.447c0-1.35,1.113-2.406,2.404-2.406
	c1.293,0,2.406,1.056,2.406,2.406v15.666V61.885z"/>
<path fill="#FFFFFF" d="M59.773,19.581c-0.32-0.448-0.895-0.575-1.343-0.256l-4.412,2.877c-0.255,0.192-0.447,0.511-0.447,0.831
	s0.192,0.64,0.512,0.832l1.023,0.512l-3.645,2.558c-0.448,0.32-0.512,0.896-0.255,1.343c0.191,0.256,0.511,0.384,0.767,0.384
	c0.192,0,0.384-0.064,0.576-0.192l4.923-3.453c0.256-0.192,0.448-0.512,0.384-0.832c0-0.32-0.191-0.64-0.511-0.767l-0.959-0.512
	l3.069-1.982C59.965,20.668,60.092,20.028,59.773,19.581z"/>
<path fill="#FFFFFF" d="M43.723,21.116l1.087-0.32l-0.767,4.348c-0.064,0.512,0.256,1.023,0.767,1.087c0.064,0,0.128,0,0.192,0
	c0.447,0,0.831-0.319,0.959-0.767l1.023-5.883c0.064-0.32-0.064-0.64-0.32-0.896c-0.255-0.256-0.575-0.32-0.895-0.191l-1.023,0.319
	l0.767-3.517c0.128-0.511-0.192-1.022-0.767-1.151c-0.512-0.128-1.023,0.192-1.151,0.768l-1.087,5.115
	c-0.064,0.32,0.064,0.704,0.32,0.896C43.083,21.116,43.403,21.244,43.723,21.116z"/>
<path fill="#FFFFFF" d="M32.596,23.418c-0.32,0.127-0.511,0.447-0.511,0.767s0.128,0.64,0.384,0.832l4.923,3.453
	c0.192,0.128,0.384,0.192,0.576,0.192c0.32,0,0.576-0.128,0.767-0.384c0.32-0.447,0.192-1.023-0.255-1.343l-3.645-2.558l1.023-0.512
	c0.32-0.192,0.512-0.447,0.512-0.832c0-0.32-0.128-0.639-0.447-0.831l-4.349-2.877c-0.447-0.319-1.023-0.192-1.343,0.256
	c-0.32,0.447-0.192,1.023,0.256,1.343l3.005,1.982L32.596,23.418z"/>
</svg>
