<?xml version="1.0" encoding="utf-8"?>
<!-- Generator: Adobe Illustrator 16.0.0, SVG Export Plug-In . SVG Version: 6.00 Build 0)  -->
<!DOCTYPE svg PUBLIC "-//W3C//DTD SVG 1.1//EN" "http://www.w3.org/Graphics/SVG/1.1/DTD/svg11.dtd">
<svg version="1.1" id="Calque_1" xmlns="http://www.w3.org/2000/svg" xmlns:xlink="http://www.w3.org/1999/xlink" x="0px" y="0px"
	 width="90px" height="90px" viewBox="0 0 90 90" enable-background="new 0 0 90 90" xml:space="preserve">
<circle opacity="0.2" fill="#FFFFFF" cx="45" cy="45" r="43.615"/>
<g id="Calque_2">
</g>
<path fill="#FFFFFF" d="M33.556,71.612c-0.489,0-0.927-0.232-1.205-0.64c-0.385-0.568-1.412-2.074,6.748-22.853l0,0
	c0-0.001,0-0.001,0-0.001l-5.613-0.512c-0.841-0.075-1.553-0.5-1.954-1.163c-0.399-0.664-0.442-1.494-0.118-2.272l9.833-23.499
	c0.543-1.302,2.026-2.285,3.447-2.285l9.465,0.202c0.854,0.018,1.593,0.396,2.025,1.04c0.432,0.644,0.506,1.471,0.203,2.268
	l-5.318,13.961c-0.001,0.006-0.004,0.011-0.007,0.016c0.007,0.001,0.012,0.003,0.019,0.003l5.613,0.51
	c0.898,0.081,1.599,0.532,1.925,1.235c0.325,0.702,0.215,1.529-0.302,2.265c-0.055,0.078-5.546,7.897-11.19,15.614
	C35.342,71.612,34.476,71.612,33.556,71.612z M33.754,45.099l5.571,0.515c0.837,0.077,1.55,0.498,1.956,1.157
	c0.408,0.661,0.465,1.488,0.16,2.27c-2.644,6.729-5.291,14.154-6.377,18.124C39.087,62.385,48,50.194,55.967,38.853l-5.115-0.47
	c-0.833-0.076-1.548-0.496-1.958-1.154c-0.412-0.658-0.475-1.483-0.176-2.267l5.276-13.852l-9.289-0.206l0,0
	c-0.417,0-0.984,0.374-1.138,0.739L33.754,45.099z"/>
</svg>
