<?xml version="1.0" encoding="utf-8"?>
<!-- Generator: Adobe Illustrator 16.0.0, SVG Export Plug-In . SVG Version: 6.00 Build 0)  -->
<!DOCTYPE svg PUBLIC "-//W3C//DTD SVG 1.1//EN" "http://www.w3.org/Graphics/SVG/1.1/DTD/svg11.dtd">
<svg version="1.1" id="Calque_1" xmlns="http://www.w3.org/2000/svg" xmlns:xlink="http://www.w3.org/1999/xlink" x="0px" y="0px"
	 width="90px" height="90px" viewBox="0 0 90 90" enable-background="new 0 0 90 90" xml:space="preserve">
<g id="Calque_2">
</g>
<circle opacity="0.2" fill="#FFFFFF" cx="45.047" cy="45" r="43.615"/>
<g>
	<path fill="#FFFFFF" d="M74.196,29.872c0.043-0.34-0.014-0.742-0.301-1.135c-0.065-0.088-0.135-0.188-0.208-0.295
		c-0.491-0.709-1.103-1.588-1.905-1.648l-0.236-0.018c-1.984-0.151-2.445-0.152-2.683-0.098c-0.221,0.051-0.854,0.121-1.088,0.123
		l-0.046-0.021c-0.441-0.21-1.573-0.734-3.025-0.616c-0.57-0.464-1.159-0.554-1.504-0.495c-0.274,0.043-0.491,0.258-0.54,0.532
		c-0.076,0.437-0.069,0.829-0.021,1.186c-0.23,0.269-0.568,0.737-0.946,1.519c-0.596,1.234-1.385,3.336-1.771,4.447
		c-0.387,1.115-1.739,3.415-3.454,3.415c-2.015,0-3.369-1.582-3.814-2.101c-0.634-0.738-2.809-2.868-4.157-3.648
		c-1.185-0.686-2.328-1.019-3.602-1.046c-0.75-0.017-1.509-0.282-2.461-0.862c-0.14-0.085-0.48-0.533-0.756-0.893
		c-1.046-1.372-2.798-3.668-5.575-3.668c-3.221,0-5.477,2.266-6.825,3.619c-0.18,0.18-0.341,0.344-0.486,0.48
		c-0.446,0.42-0.812,0.852-1.137,1.23c-0.545,0.641-0.975,1.147-1.556,1.382l-0.458,0.183c-1.043,0.412-2.225,0.879-3.121,1.648
		c-0.606,0.522-1.106,1.027-1.549,1.473c-0.257,0.258-0.498,0.501-0.735,0.724c-0.56,0.521-1.218,2.005-1.538,3.566
		c-0.383,1.264-0.979,3.597-0.825,5.518l0.04,0.484c0.116,1.418,0.312,3.791,0.156,4.342l-0.092,0.314
		c-0.279,0.929-0.659,2.2-0.217,3.062c0.099,0.195,0.288,0.326,0.505,0.352c0.026,0.005,0.052,0.006,0.077,0.006
		c0.188,0,0.37-0.082,0.495-0.227c0.065-0.074,1.56-1.837,0.589-3.745c-0.003-0.006-0.005-0.012-0.009-0.016
		c0.058-0.892-0.049-2.35-0.201-4.195l-0.033-0.426c0.146,0.613,0.3,1.23,0.446,1.816c0.185,0.744,0.356,1.429,0.479,1.969
		c0.09,0.395,0.177,0.747,0.255,1.067c0.24,0.97,0.398,1.61,0.342,2.283c-0.083,0.985-0.599,4.468-0.729,5.106
		c-0.182,0.876,0.265,1.708,0.821,2.628c0.473,0.78,1.582,3.892,1.947,4.913c0.367,1.023,0.709,2.251,0.875,2.839l0.07,0.258
		c0.104,0.357,0.278,0.557,0.396,0.688c0.021,0.026,0.045,0.047,0.062,0.091c0.007,0.054,0.003,0.104,0.001,0.148
		c-0.031,0.913,0.603,1.114,1.293,1.197c0.698,0.083,1.304,0.124,1.818,0.124c1.05,0,1.716-0.171,1.989-0.514
		c0.184-0.231,0.232-0.525,0.132-0.808c-0.239-0.67-0.78-0.876-1.175-1.025c-0.176-0.067-0.343-0.13-0.486-0.229
		c-0.557-0.387-1.396-1.203-1.642-1.678c-0.323-0.626-0.735-2.05-0.934-2.734c-0.291-1.012-0.842-3.932-0.824-4.526
		c0.021-0.702,0.174-3.199,0.315-3.924c0.026-0.138,0.056-0.308,0.091-0.493c0.133-0.767,0.36-2.05,0.672-2.556
		c0.498-0.803,1.352-3.247,1.469-4.848c0.035-0.467,0.053-1.16,0.069-1.898c0.87,0.516,2.087,1.223,2.585,1.457
		c3.631,1.713,6.163,2.072,7.648,2.072c1.719,0,2.638-0.058,3.247-0.095c0.49-0.029,0.735-0.044,1.026-0.009
		c0.165,0.021,0.356,0.043,0.564,0.067c0.441,0.05,1.031,0.119,1.477,0.198c-0.075,0.381-0.192,0.735-0.325,1.127
		c-0.141,0.41-0.297,0.873-0.413,1.419c-0.176,0.813-0.285,1.52-0.382,2.143c-0.1,0.631-0.184,1.176-0.311,1.664
		c-0.092,0.354-0.196,0.663-0.293,0.941c-0.191,0.559-0.358,1.042-0.305,1.554c0.055,0.54,0.104,2.869-0.007,3.946
		c-0.052,0.509-0.11,1.184-0.164,1.831c-0.067,0.793-0.13,1.543-0.177,1.88c-0.067,0.487,0.06,0.981,0.161,1.379
		c0.037,0.144,0.087,0.341,0.095,0.353c-0.015,0.057-0.099,0.213-0.153,0.317c-0.195,0.362-0.416,0.778-0.292,1.2
		c0.115,0.387,0.458,0.672,1.052,0.873c0.486,0.164,1.198,0.284,1.874,0.284c0.619,0,1.209-0.102,1.564-0.362
		c0.398-0.291,0.586-0.622,0.563-0.985c-0.04-0.573-0.562-0.857-1.068-1.131l-0.123-0.068c-0.732-0.402-0.724-0.635-0.722-0.709
		c0.023-0.56,0.234-3.681,0.339-4.798c0.116-1.224,0.398-2.593,0.522-2.842c0.252-0.504,0.672-2.093,0.802-2.911
		c0.109-0.69,0.765-2.338,1.197-3.429l0.115-0.288c0.209-0.529,0.447-1.086,0.665-1.597c0.266-0.621,0.493-1.158,0.629-1.54
		c0.045-0.129,0.082-0.245,0.117-0.354c0.13-0.415,0.209-0.665,0.832-1.372l0.369-0.417c0.193-0.214,0.373-0.417,0.541-0.61
		c0.318-0.076,0.987-0.218,1.548-0.232c0.149-0.004,0.385,0.001,0.679,0.008c1.422,0.028,4.067,0.081,5.917-0.542
		c2.241-0.755,3.284-1.978,4.085-3.063l0.173-0.231c1.076-1.45,2.138-2.942,2.294-3.856c0.175,0.281,0.404,0.537,0.769,0.578
		c0.28,0.033,0.542-0.078,0.74-0.303c0.494-0.566,0.657-1.597,0.396-2.506c-0.149-0.52,0.035-1.922,0.254-2.52
		c1.29-0.191,2.011-0.441,2.489-0.607c0.182-0.062,0.331-0.117,0.479-0.15c0.366-0.084,0.761-0.27,1.111-0.435
		c0.146-0.067,0.338-0.159,0.439-0.194c0.1,0.019,0.244,0.062,0.408,0.105c0.909,0.244,1.848,0.497,2.203-0.213l0.059-0.11
		c0.126-0.233,0.339-0.628,0.126-1.046C74.312,30.005,74.256,29.933,74.196,29.872z M72.865,29.819
		c-0.106,0.143-0.148,0.318-0.124,0.488c-0.162-0.039-0.322-0.082-0.433-0.112c-0.429-0.115-0.641-0.169-0.844-0.155
		c-0.242,0.02-0.487,0.131-0.903,0.325c-0.274,0.13-0.619,0.29-0.848,0.343c-0.188,0.043-0.382,0.109-0.613,0.189
		c-0.47,0.164-1.113,0.389-2.337,0.562c-0.034,0.005-0.059,0.004-0.091,0.008c-0.062-0.004-0.119-0.002-0.18,0.012
		c-1.027,0.051-1.354-0.519-1.393-0.598c-0.147-0.326-0.53-0.474-0.855-0.333c-0.333,0.142-0.486,0.526-0.344,0.859
		c0.023,0.054,0.477,1.062,1.789,1.327c-0.256,0.977-0.341,2.264-0.162,2.886c0.053,0.179,0.073,0.354,0.073,0.515
		c-0.237-0.287-0.603-0.41-0.969-0.323c-0.537,0.13-0.926,0.673-1.04,1.45c-0.097,0.662-1.521,2.583-2.06,3.307l-0.172,0.234
		c-0.716,0.967-1.569,1.966-3.449,2.598c-1.634,0.551-4.133,0.501-5.474,0.476c-0.321-0.007-0.575-0.013-0.737-0.007
		c-0.162,0.004-0.33,0.019-0.496,0.036c0.011-0.032,0.026-0.064,0.035-0.095c0.104-0.347-0.094-0.712-0.438-0.815
		c-0.349-0.106-0.713,0.094-0.816,0.44c-0.105,0.355-0.721,1.045-1.317,1.712l-0.375,0.423c-0.751,0.854-0.916,1.265-1.099,1.845
		c-0.03,0.095-0.062,0.195-0.103,0.31c-0.122,0.344-0.354,0.888-0.599,1.464c-0.223,0.521-0.464,1.09-0.678,1.629l-0.113,0.287
		c-0.482,1.212-1.143,2.873-1.274,3.708c-0.133,0.833-0.535,2.245-0.679,2.53c-0.275,0.55-0.559,2.271-0.654,3.305
		c-0.106,1.131-0.32,4.298-0.344,4.866c-0.041,1.004,0.779,1.571,1.399,1.911l0.128,0.07c0.003,0,0.004,0.001,0.005,0.002
		c-0.569,0.067-1.569-0.042-2.015-0.233c0.032-0.064,0.067-0.131,0.095-0.182c0.117-0.217,0.236-0.442,0.282-0.671
		c0.059-0.288-0.02-0.588-0.107-0.938c-0.074-0.286-0.165-0.645-0.133-0.879c0.05-0.371,0.114-1.137,0.183-1.946
		c0.055-0.641,0.11-1.307,0.162-1.807c0.125-1.195,0.068-3.604,0.007-4.215c-0.022-0.225,0.1-0.582,0.241-0.995
		c0.106-0.307,0.223-0.648,0.323-1.041c0.142-0.548,0.231-1.123,0.335-1.788c0.096-0.606,0.201-1.293,0.368-2.07
		c0.101-0.471,0.239-0.879,0.373-1.271c0.208-0.613,0.418-1.247,0.462-2.051c0-0.01,0.003-0.02,0.001-0.029
		c0.021-0.391,0.004-0.815-0.075-1.306c-0.3-1.855,0.144-5.265,0.147-5.299c0.048-0.357-0.204-0.688-0.561-0.734
		c-0.37-0.048-0.688,0.205-0.736,0.562c-0.02,0.147-0.473,3.633-0.143,5.68c0.018,0.107,0.027,0.207,0.039,0.309
		c-0.395-0.064-0.857-0.121-1.375-0.18c-0.201-0.023-0.389-0.045-0.549-0.065c-0.413-0.054-0.736-0.034-1.272,0
		c-0.593,0.037-1.489,0.092-3.166,0.092c-1.352,0-3.68-0.337-7.128-1.962c-0.512-0.241-2.161-1.215-3.064-1.754
		c0.039-1.068,0.105-2.181,0.231-2.451c0.165-0.322,0.04-0.717-0.282-0.883c-0.321-0.164-0.716-0.039-0.882,0.283
		c-0.302,0.585-0.359,2.075-0.417,4.459c-0.017,0.742-0.035,1.445-0.068,1.892c-0.1,1.349-0.854,3.573-1.274,4.256
		c-0.411,0.665-0.638,1.806-0.851,3.015c-0.032,0.18-0.06,0.339-0.086,0.471c-0.166,0.853-0.316,3.406-0.339,4.136
		c-0.026,0.838,0.59,3.946,0.875,4.928c0.335,1.16,0.692,2.322,1.028,2.973c0.399,0.773,1.465,1.744,2.059,2.152
		c0.102,0.072,0.205,0.132,0.305,0.181c-0.502,0-1.112-0.036-1.684-0.104c-0.054-0.006-0.099-0.013-0.137-0.018
		c0-0.051-0.001-0.104-0.009-0.159c-0.043-0.441-0.256-0.682-0.384-0.826c-0.072-0.083-0.095-0.108-0.117-0.182l-0.07-0.248
		c-0.168-0.604-0.52-1.86-0.901-2.927c-0.706-1.982-1.579-4.358-2.059-5.152c-0.38-0.626-0.745-1.274-0.66-1.685
		c0.14-0.676,0.662-4.215,0.751-5.262c0.075-0.886-0.113-1.649-0.374-2.706c-0.077-0.315-0.162-0.657-0.25-1.044
		c-0.123-0.548-0.298-1.241-0.485-1.995c-0.377-1.508-0.804-3.217-1.032-4.529c-0.318-1.833,0.811-4.629,1.261-5.051
		c0.251-0.232,0.503-0.488,0.772-0.758c0.447-0.449,0.906-0.914,1.475-1.402c0.727-0.625,1.755-1.031,2.747-1.424l0.469-0.187
		c0.876-0.354,1.452-1.03,2.062-1.747c0.316-0.371,0.643-0.756,1.037-1.128c0.153-0.146,0.323-0.317,0.515-0.507
		c1.205-1.21,3.221-3.234,5.897-3.234c2.13,0,3.578,1.897,4.536,3.152c0.443,0.583,0.764,1.003,1.113,1.217
		c0.78,0.476,1.843,1.025,3.114,1.055c1.058,0.021,1.976,0.29,2.976,0.869c1.129,0.654,3.142,2.578,3.816,3.366
		c0.543,0.634,2.193,2.559,4.811,2.559c2.625,0,4.275-3.099,4.69-4.295c0.375-1.081,1.141-3.122,1.713-4.308
		c0.111-0.227,0.213-0.416,0.309-0.578c0.183,0.288,0.344,0.456,0.36,0.475c0.128,0.127,0.295,0.19,0.463,0.19
		c0.167,0,0.335-0.063,0.464-0.19c0.255-0.256,0.255-0.671,0-0.927c-0.006-0.007-0.436-0.458-0.535-1.229
		c0.138,0.123,0.286,0.308,0.43,0.58c0.168,0.32,0.561,0.444,0.883,0.275c0.228-0.119,0.349-0.354,0.345-0.593
		c0.727,0.085,1.292,0.349,1.578,0.486c0.144,0.068,0.245,0.106,0.294,0.118c0.384,0.096,1.542-0.092,1.671-0.122
		c0.281-0.032,1.811,0.084,2.315,0.122l0.223,0.016c0.234,0.069,0.729,0.785,0.943,1.091c0.08,0.116,0.156,0.226,0.227,0.323
		C72.917,29.62,72.923,29.729,72.865,29.819z"/>
</g>
</svg>
