<?xml version="1.0" encoding="utf-8"?>
<!-- Generator: Adobe Illustrator 16.0.0, SVG Export Plug-In . SVG Version: 6.00 Build 0)  -->
<!DOCTYPE svg PUBLIC "-//W3C//DTD SVG 1.1//EN" "http://www.w3.org/Graphics/SVG/1.1/DTD/svg11.dtd">
<svg version="1.1" id="Calque_1" xmlns="http://www.w3.org/2000/svg" xmlns:xlink="http://www.w3.org/1999/xlink" x="0px" y="0px"
	 width="90px" height="90px" viewBox="0 0 90 90" enable-background="new 0 0 90 90" xml:space="preserve">
<g id="Calque_2">
</g>
<circle opacity="0.2" fill="#FFFFFF" cx="45.048" cy="45" r="43.615"/>
<g>
	<path fill="#FFFFFF" d="M40.848,25.939c0.531,0,0.996-0.465,0.996-0.997c0-2.324-1.859-4.184-4.184-4.184
		c-0.531,0-0.997,0.465-0.997,0.997c0,0.531,0.465,0.996,0.997,0.996c1.195,0,2.192,0.996,2.192,2.191
		C39.853,25.474,40.317,25.939,40.848,25.939z"/>
	<path fill="#FFFFFF" d="M53.334,60.541c-0.531,0-0.996,0.463-0.996,0.996c0,2.656-2.191,4.848-4.849,4.848
		c-0.531,0-0.996,0.465-0.996,0.996s0.465,0.996,0.996,0.996c3.786,0,6.841-3.055,6.841-6.84
		C54.331,61.004,53.931,60.541,53.334,60.541z"/>
	<path fill="#FFFFFF" d="M63.561,34.64c-1.66,0-2.989,1.328-2.989,2.989v0.73c-6.043,0.266-10.891,5.18-10.891,11.29v6.109
		c0,1.262-1.062,2.324-2.324,2.324s-2.325-0.996-2.325-2.324v-3.387c1.527-0.066,2.79-1.328,2.79-2.855s-1.262-2.789-2.79-2.855
		v-1.527c1.527-0.067,2.79-1.329,2.79-2.856c0-1.528-1.262-2.79-2.79-2.856v-1.527c1.527-0.067,2.79-1.329,2.79-2.856
		s-1.262-2.789-2.79-2.855v-6.375c0-4.517-3.653-8.235-8.235-8.235c-4.583,0-8.302,3.719-8.302,8.301
		c0,0.465-0.333,0.863-0.797,0.93l-0.797,0.132c-1.992,0.399-3.387,2.125-3.387,4.118v0.997h6.243c2.723,0,4.914-2.191,4.914-4.915
		c0-0.531,0.399-0.929,0.93-0.929s0.93,0.398,0.93,0.929v34.336c0,6.043,4.915,10.957,10.958,10.957
		c6.044,0,10.958-4.914,10.958-10.957v-6.441c0-1.197,0.93-2.127,2.059-2.26v0.398c0,1.66,1.328,2.988,2.988,2.988
		s2.989-1.328,2.989-2.988v-15.54C66.55,35.968,65.222,34.64,63.561,34.64z M45.829,49.516c0,0.465-0.332,0.797-0.797,0.865
		c-0.066,0-0.066,0-0.133,0c-0.465,0-0.863-0.4-0.863-0.865s0.398-0.863,0.863-0.863c0.066,0,0.066,0,0.133,0
		C45.497,48.652,45.829,49.051,45.829,49.516z M45.829,42.277c0,0.465-0.332,0.796-0.797,0.863c-0.066,0-0.066,0-0.133,0
		c-0.465,0-0.863-0.398-0.863-0.863s0.398-0.864,0.863-0.864c0.066,0,0.066,0,0.133,0C45.497,41.414,45.829,41.812,45.829,42.277z
		 M45.829,34.972c0,0.465-0.332,0.797-0.797,0.863c-0.066,0-0.066,0-0.133,0c-0.465,0-0.863-0.398-0.863-0.863
		c0-0.465,0.398-0.863,0.863-0.863c0.066,0,0.066,0,0.133,0C45.497,34.175,45.829,34.573,45.829,34.972z M56.522,55.029v6.508
		c0,4.914-4.051,8.965-8.966,8.965c-4.915,0-8.966-4.051-8.966-8.965V27.202c0-1.594-1.328-2.922-2.921-2.922
		c-1.594,0-2.922,1.328-2.922,2.922c0,1.593-1.329,2.922-2.922,2.922h-4.051c0.332-0.598,0.863-1.063,1.594-1.196l0.796-0.133
		c1.395-0.265,2.392-1.461,2.392-2.922c0-3.454,2.855-6.309,6.309-6.309c3.454,0,6.243,2.79,6.243,6.243v6.973
		c-0.332,0.332-0.665,0.73-0.797,1.196h-1.926c-0.531,0-0.996,0.465-0.996,0.996c0,0.531,0.465,0.996,0.996,0.996h1.86
		c0.199,0.465,0.464,0.863,0.797,1.195v2.922c-0.333,0.332-0.665,0.73-0.797,1.195h-1.86c-0.531,0-0.996,0.465-0.996,0.997
		s0.465,0.996,0.996,0.996h1.86c0.199,0.465,0.464,0.864,0.797,1.195v2.922c-0.333,0.332-0.665,0.73-0.797,1.195h-1.86
		c-0.531,0-0.996,0.465-0.996,0.996s0.465,0.998,0.996,0.998h1.86c0.199,0.463,0.464,0.861,0.797,1.193v4.117
		c0,2.391,1.926,4.318,4.317,4.318c2.391,0,4.316-1.928,4.316-4.318v-6.109c0-4.981,3.918-9.098,8.899-9.297v10.428
		C58.314,50.912,56.522,52.77,56.522,55.029z M64.558,53.234c0,0.531-0.465,0.996-0.997,0.996c-0.531,0-0.996-0.465-0.996-0.996
		v-1.461V37.628c0-0.532,0.465-0.996,0.996-0.996c0.531,0,0.997,0.464,0.997,0.996V53.234z"/>
</g>
</svg>
