<?xml version="1.0" encoding="utf-8"?>
<!-- Generator: Adobe Illustrator 16.0.0, SVG Export Plug-In . SVG Version: 6.00 Build 0)  -->
<!DOCTYPE svg PUBLIC "-//W3C//DTD SVG 1.1//EN" "http://www.w3.org/Graphics/SVG/1.1/DTD/svg11.dtd">
<svg version="1.1" id="Calque_1" xmlns="http://www.w3.org/2000/svg" xmlns:xlink="http://www.w3.org/1999/xlink" x="0px" y="0px"
	 width="90px" height="90px" viewBox="0 0 90 90" enable-background="new 0 0 90 90" xml:space="preserve">
<g id="Calque_2">
</g>
<circle opacity="0.2" fill="#FFFFFF" enable-background="new    " cx="45.357" cy="45" r="43.615"/>
<path fill="#FFFFFF" d="M68.988,69.883h-8.51v-6.267c0.047-0.542,0.031-1.05,0-1.442V41.639c0-0.431-0.349-0.78-0.779-0.78H46.766
	v-4.923c1.744-0.139,2.617-0.984,3.039-1.71c2.182-3.765-2.592-12.322-3.142-13.286c-0.009-0.014-0.024-0.024-0.033-0.038
	c-0.028-0.042-0.064-0.078-0.103-0.116c-0.038-0.039-0.074-0.075-0.117-0.104c-0.014-0.009-0.021-0.023-0.037-0.033
	c-0.028-0.015-0.059-0.017-0.088-0.029c-0.051-0.021-0.1-0.04-0.153-0.051c-0.05-0.009-0.097-0.011-0.146-0.01
	c-0.051-0.001-0.097,0.001-0.146,0.01c-0.053,0.011-0.103,0.03-0.153,0.051c-0.028,0.013-0.06,0.013-0.088,0.029
	c-0.015,0.01-0.022,0.024-0.036,0.033c-0.044,0.029-0.081,0.065-0.118,0.104c-0.038,0.038-0.074,0.073-0.102,0.116
	c-0.01,0.014-0.023,0.023-0.033,0.038c-0.551,0.963-5.325,9.523-3.143,13.286c0.422,0.726,1.295,1.572,3.04,1.71v4.922h-4.664
	c-0.43,0-0.779,0.35-0.779,0.78c0,0.431,0.349,0.78,0.779,0.78H58.92v5.831c-0.043,0.098-0.07,0.203-0.07,0.317v12.906
	c-0.16,0.433-0.949,2.243-2.811,2.351v-6.811v-8.447v-2.596c0-0.43-0.35-0.778-0.779-0.778c-0.432,0-0.78,0.348-0.78,0.778v2.596
	v8.447c0,0.775-0.63,1.405-1.405,1.405s-1.406-0.63-1.406-1.405v-6.706c0-0.432-0.349-0.779-0.779-0.779
	c-0.43,0-0.779,0.348-0.779,0.779v6.706c0,1.635,1.33,2.965,2.965,2.965c0.512,0,0.985-0.143,1.405-0.371v4.334
	c0,1.635,1.33,2.965,2.964,2.965c0.443,0,0.858-0.104,1.236-0.277c0.004-0.002,0.01-0.004,0.014-0.005
	c0.082-0.03,0.152-0.072,0.227-0.108v3.366H36.656h-0.007h-0.006c-2.379,0-3.432-3.312-3.59-3.861V63.56
	c0.419,0.229,0.894,0.37,1.404,0.37c1.635,0,2.965-1.331,2.965-2.964V49.854c0-0.429-0.349-0.778-0.779-0.778
	c-0.43,0-0.78,0.35-0.78,0.778v11.112c0,0.774-0.631,1.404-1.406,1.404c-0.774,0-1.404-0.63-1.404-1.404V49.854v-7.437h3.127
	c0.43,0,0.779-0.349,0.779-0.778c0-0.431-0.35-0.78-0.779-0.78h-3.906c-0.431,0-0.78,0.349-0.78,0.78v8.215v11.112v5.16v3.756
	h-8.482c-0.43,0-0.779,0.351-0.779,0.781c0,0.429,0.35,0.778,0.779,0.778h9.262h4.369h0.013h23.045h9.287
	c0.43,0,0.779-0.35,0.779-0.778C69.768,70.232,69.418,69.883,68.988,69.883z M43.517,33.443c-1.039-1.789,0.27-5.69,1.614-8.681
	c0.576,0.127,1.571,0.5,2.381,1.586c1.049,2.667,1.807,5.607,0.945,7.095c-0.316,0.543-0.874,0.85-1.691,0.935v-3.991
	c0-0.43-0.35-0.779-0.779-0.779s-0.779,0.349-0.779,0.779v3.991C44.39,34.292,43.831,33.986,43.517,33.443z"/>
</svg>
