<?xml version="1.0" encoding="utf-8"?>
<!-- Generator: Adobe Illustrator 16.0.0, SVG Export Plug-In . SVG Version: 6.00 Build 0)  -->
<!DOCTYPE svg PUBLIC "-//W3C//DTD SVG 1.1//EN" "http://www.w3.org/Graphics/SVG/1.1/DTD/svg11.dtd">
<svg version="1.1" id="Calque_1" xmlns="http://www.w3.org/2000/svg" xmlns:xlink="http://www.w3.org/1999/xlink" x="0px" y="0px"
	 width="90px" height="90px" viewBox="0 0 90 90" enable-background="new 0 0 90 90" xml:space="preserve">
<circle opacity="0.2" fill="#FFFFFF" cx="45" cy="45.089" r="43.615"/>
<g id="Calque_2">
</g>
<g>
	<path fill="#FFFFFF" d="M60.707,34.173c-5.555,0-10.098,4.543-10.098,10.097s4.543,10.098,10.098,10.098
		c5.553,0,10.098-4.544,10.098-10.098S66.26,34.173,60.707,34.173z M60.707,46.291c-1.123,0-2.02-0.898-2.02-2.02
		c0-1.122,0.896-2.019,2.02-2.019c1.121,0,2.02,0.897,2.02,2.019C62.727,45.393,61.828,46.291,60.707,46.291z"/>
	<path fill="#FFFFFF" d="M29.293,34.173c-5.555,0-10.098,4.543-10.098,10.097s4.543,10.098,10.098,10.098
		c5.553,0,10.098-4.544,10.098-10.098S34.846,34.173,29.293,34.173z M29.293,46.291c-1.123,0-2.02-0.898-2.02-2.02
		c0-1.122,0.896-2.019,2.02-2.019c1.121,0,2.02,0.897,2.02,2.019C31.312,45.393,30.414,46.291,29.293,46.291z"/>
	<g>
		<path fill="#FFFFFF" d="M43.316,32.771v0.842h-0.561v-0.842c-0.561,0.113-1.121,0.674-1.121,1.347
			c0,0.785,0.617,1.403,1.402,1.403s1.4-0.618,1.4-1.347C44.438,33.5,43.877,32.939,43.316,32.771z"/>
	</g>
	<g>
		<path fill="#FFFFFF" d="M47.244,32.771v0.842h-0.562v-0.842c-0.561,0.113-1.121,0.674-1.121,1.347
			c0,0.785,0.617,1.403,1.402,1.403s1.402-0.618,1.402-1.347C48.365,33.5,47.805,32.939,47.244,32.771z"/>
	</g>
	<g>
		<path fill="#FFFFFF" d="M43.316,36.698v0.841h-0.561v-0.841c-0.561,0.112-1.121,0.673-1.121,1.346
			c0,0.786,0.617,1.402,1.402,1.402s1.4-0.617,1.4-1.346C44.438,37.427,43.877,36.866,43.316,36.698z"/>
	</g>
	<g>
		<path fill="#FFFFFF" d="M47.244,36.698v0.841h-0.562v-0.841c-0.561,0.112-1.121,0.673-1.121,1.346
			c0,0.786,0.617,1.402,1.402,1.402s1.402-0.617,1.402-1.346C48.365,37.427,47.805,36.866,47.244,36.698z"/>
	</g>
	<g>
		<path fill="#FFFFFF" d="M43.316,40.625v0.842h-0.561v-0.842c-0.561,0.112-1.121,0.673-1.121,1.346
			c0,0.785,0.617,1.403,1.402,1.403s1.4-0.618,1.4-1.346C44.438,41.354,43.877,40.792,43.316,40.625z"/>
	</g>
	<g>
		<path fill="#FFFFFF" d="M47.244,40.625v0.842h-0.562v-0.842c-0.561,0.112-1.121,0.673-1.121,1.346
			c0,0.785,0.617,1.403,1.402,1.403s1.402-0.618,1.402-1.346C48.365,41.354,47.805,40.792,47.244,40.625z"/>
	</g>
	<g>
		<path fill="#FFFFFF" d="M43.316,44.551v0.841h-0.561v-0.841c-0.561,0.112-1.121,0.673-1.121,1.346
			c0,0.786,0.617,1.402,1.402,1.402s1.4-0.617,1.4-1.346C44.438,45.28,43.877,44.72,43.316,44.551z"/>
	</g>
	<g>
		<path fill="#FFFFFF" d="M47.244,44.551v0.841h-0.562v-0.841c-0.561,0.112-1.121,0.673-1.121,1.346
			c0,0.786,0.617,1.402,1.402,1.402s1.402-0.617,1.402-1.346C48.365,45.28,47.805,44.72,47.244,44.551z"/>
	</g>
	<polygon fill="#FFFFFF" points="44.438,52.685 43.316,52.685 43.316,48.759 42.756,48.759 42.756,52.685 41.635,52.685 
		41.635,53.246 42.756,53.246 42.756,54.368 43.316,54.368 43.316,53.246 44.438,53.246 	"/>
	<polygon fill="#FFFFFF" points="48.365,49.88 47.244,49.88 47.244,48.759 46.682,48.759 46.682,49.88 45.561,49.88 45.561,50.441 
		46.682,50.441 46.682,54.368 47.244,54.368 47.244,50.441 48.365,50.441 	"/>
	<polygon fill="#FFFFFF" points="50.609,58.295 46.121,58.295 46.121,56.612 43.877,56.612 43.877,58.295 39.391,58.295 
		39.391,59.417 43.877,59.417 43.877,61.1 46.121,61.1 46.121,59.417 50.609,59.417 	"/>
	<rect x="19.756" y="28.563" fill="#FFFFFF" width="2.805" height="2.805"/>
	<rect x="23.684" y="28.563" fill="#FFFFFF" width="2.805" height="2.805"/>
	<rect x="27.609" y="28.563" fill="#FFFFFF" width="2.805" height="2.805"/>
	<rect x="31.537" y="28.563" fill="#FFFFFF" width="2.805" height="2.805"/>
	<rect x="35.463" y="28.563" fill="#FFFFFF" width="2.805" height="2.805"/>
	<rect x="51.73" y="28.563" fill="#FFFFFF" width="2.807" height="2.805"/>
	<rect x="55.658" y="28.563" fill="#FFFFFF" width="2.805" height="2.805"/>
	<rect x="59.584" y="28.563" fill="#FFFFFF" width="2.805" height="2.805"/>
	<rect x="63.512" y="28.563" fill="#FFFFFF" width="2.805" height="2.805"/>
	<rect x="67.438" y="28.563" fill="#FFFFFF" width="2.807" height="2.805"/>
	<rect x="27.609" y="57.734" fill="#FFFFFF" width="3.365" height="2.244"/>
	<rect x="23.121" y="57.734" fill="#FFFFFF" width="3.367" height="2.244"/>
	<rect x="32.098" y="57.734" fill="#FFFFFF" width="3.365" height="2.244"/>
	<rect x="59.023" y="57.734" fill="#FFFFFF" width="3.365" height="2.244"/>
	<rect x="54.537" y="57.734" fill="#FFFFFF" width="3.365" height="2.244"/>
	<rect x="63.512" y="57.734" fill="#FFFFFF" width="3.365" height="2.244"/>
	<path fill="#FFFFFF" d="M71.926,27.33V62.67H18.074V27.33H71.926 M73.049,26.208H16.951v37.585h56.098V26.208L73.049,26.208z"/>
</g>
</svg>
