<?xml version="1.0" encoding="utf-8"?>
<!-- Generator: Adobe Illustrator 16.0.0, SVG Export Plug-In . SVG Version: 6.00 Build 0)  -->
<!DOCTYPE svg PUBLIC "-//W3C//DTD SVG 1.1//EN" "http://www.w3.org/Graphics/SVG/1.1/DTD/svg11.dtd">
<svg version="1.1" id="Calque_1" xmlns="http://www.w3.org/2000/svg" xmlns:xlink="http://www.w3.org/1999/xlink" x="0px" y="0px"
	 width="90px" height="90px" viewBox="0 0 90 90" enable-background="new 0 0 90 90" xml:space="preserve">
<circle opacity="0.2" fill="#FFFFFF" cx="45" cy="45.089" r="43.615"/>
<g id="Calque_2">
</g>
<path fill="#FFFFFF" d="M22.618,54.928h0.053c0.105,0.947,0.262,1.842,0.525,2.735h-0.052c-0.684,0.264-1,1.054-0.737,1.737
	c0.21,0.526,0.684,0.79,1.21,0.79c0.158,0,0.315-0.053,0.526-0.106h0.053c0.421,0.842,0.947,1.579,1.525,2.315l0,0
	c-0.526,0.527-0.526,1.368,0,1.842c0.263,0.264,0.578,0.369,0.947,0.369c0.368,0,0.684-0.105,0.947-0.369l0.052-0.052
	c0.737,0.579,1.474,1.105,2.316,1.525v0.053c-0.264,0.685,0.052,1.421,0.736,1.737c0.159,0.053,0.315,0.105,0.526,0.105
	c0.527,0,1-0.316,1.21-0.789v-0.053c0.895,0.262,1.789,0.473,2.736,0.525v0.052c0,0.737,0.579,1.316,1.316,1.316
	c0.736,0,1.314-0.579,1.314-1.316v-0.052c0.947-0.105,1.842-0.263,2.736-0.525v0.053c0.211,0.525,0.685,0.789,1.21,0.789
	c0.158,0,0.316-0.053,0.527-0.105c0.684-0.264,0.999-1.052,0.736-1.737v-0.053c0.842-0.42,1.579-0.947,2.315-1.525l0.053,0.052
	c0.262,0.264,0.579,0.369,0.947,0.369s0.685-0.105,0.947-0.369c0.527-0.525,0.527-1.368,0-1.842h-0.21
	c0.578-0.736,1.105-1.473,1.526-2.315h0.052c0.158,0.053,0.316,0.106,0.526,0.106c0.526,0,1-0.315,1.211-0.79
	c0.262-0.683-0.053-1.421-0.737-1.737h-0.053c0.263-0.894,0.474-1.789,0.527-2.735h0.105c0.736,0,1.314-0.579,1.314-1.315
	s-0.579-1.316-1.314-1.316h-0.053c-0.105-0.946-0.263-1.841-0.526-2.736h0.052c0.685-0.263,1-1.052,0.737-1.736
	c-0.263-0.684-1.052-0.999-1.737-0.736h-0.052c-0.421-0.842-0.947-1.579-1.526-2.315L61.5,30.41l0.315,0.42
	c0.474,0.474,1.263,0.526,1.789,0.053l4.631-3.946c0.579-0.474,0.63-1.42,0.052-1.947l-3.315-3.262
	c-0.526-0.526-1.42-0.526-1.947,0.052l-3.946,4.631c-0.473,0.526-0.42,1.315,0.053,1.789l0.368,0.368L45.243,42.932
	c-0.737-0.579-1.474-1.104-2.316-1.525v-0.053c0.263-0.684-0.052-1.42-0.736-1.736c-0.685-0.263-1.42,0.053-1.737,0.736v0.053
	c-0.895-0.263-1.789-0.473-2.736-0.526v-0.105c0-0.736-0.578-1.314-1.314-1.314s-1.316,0.578-1.316,1.314v0.053
	c-0.947,0.105-1.841,0.263-2.736,0.526v-0.052c-0.264-0.684-1.053-1-1.736-0.737c-0.684,0.263-1,1.052-0.736,1.736v0.052
	c-0.842,0.421-1.579,0.947-2.315,1.526h0.052c-0.526-0.526-1.368-0.526-1.841,0c-0.526,0.527-0.526,1.368,0,1.842l0.052,0.053
	c-0.578,0.736-1.105,1.473-1.526,2.315H24.25c-0.685-0.263-1.42,0.053-1.737,0.736c-0.315,0.684,0.053,1.421,0.737,1.736h0.052
	c-0.263,0.895-0.473,1.79-0.525,2.736h-0.159c-0.736,0-1.315,0.58-1.315,1.316S21.882,54.928,22.618,54.928z M64.132,24.622
	l1.263,1.262l-2.579,2.21L61.921,27.2L64.132,24.622z M36.456,42.406c2.63,0,4.999,0.895,6.892,2.42l-9.155,9.155
	c-1.21,1.21,0.685,3.051,1.841,1.841l9.155-9.155c1.526,1.894,2.42,4.314,2.42,6.893c0,6.156-4.999,11.207-11.207,11.207
	c-2.631,0-4.999-0.895-6.893-2.421l1.263-1.262c1.21-1.209-0.685-3.051-1.842-1.842l-1.263,1.263
	c-1.525-1.894-2.419-4.314-2.419-6.893C25.25,47.404,30.247,42.406,36.456,42.406z"/>
</svg>
