<?xml version="1.0" encoding="utf-8"?>
<!-- Generator: Adobe Illustrator 16.0.0, SVG Export Plug-In . SVG Version: 6.00 Build 0)  -->
<!DOCTYPE svg PUBLIC "-//W3C//DTD SVG 1.1//EN" "http://www.w3.org/Graphics/SVG/1.1/DTD/svg11.dtd">
<svg version="1.1" id="Calque_1" xmlns="http://www.w3.org/2000/svg" xmlns:xlink="http://www.w3.org/1999/xlink" x="0px" y="0px"
	 width="90px" height="90px" viewBox="0 0 90 90" enable-background="new 0 0 90 90" xml:space="preserve">
<g id="Calque_2">
</g>
<circle opacity="0.2" fill="#FFFFFF" cx="45" cy="45" r="43.615"/>
<g>
	<g>
		<path fill="#FFFFFF" d="M29.863,34.863c-2.236,0-4.055-1.819-4.055-4.056c0-0.56-0.454-1.014-1.014-1.014
			c-0.559,0-1.014,0.454-1.014,1.014c0,3.354,2.729,6.083,6.083,6.083c0.56,0,1.014-0.455,1.014-1.014
			C30.877,35.316,30.423,34.863,29.863,34.863z M54.192,34.863c-2.236,0-4.055-1.819-4.055-4.056c0-0.56-0.454-1.014-1.013-1.014
			c-0.56,0-1.014,0.454-1.014,1.014c0,3.354,2.729,6.083,6.082,6.083c0.559,0,1.014-0.455,1.014-1.014
			C55.206,35.316,54.751,34.863,54.192,34.863z M67.369,50.014c-0.03-0.535-0.475-0.957-1.012-0.957V29.794
			c0-0.56-0.454-1.014-1.014-1.014h-1.218c-0.943-4.62-5.037-8.109-9.933-8.109c-1.93,0-3.716,0.572-5.253,1.51
			c-0.381-0.196-0.857-0.149-1.178,0.171c-3.161,3.163-8.306,3.163-11.469,0c-0.32-0.32-0.794-0.367-1.176-0.171
			c-1.537-0.938-3.323-1.51-5.253-1.51c-5.589,0-10.137,4.547-10.137,10.137s4.548,10.138,10.137,10.138
			c5.59,0,10.137-4.548,10.137-10.138c0-1.67-0.444-3.226-1.164-4.616c1.039,0.343,2.108,0.558,3.191,0.558s2.153-0.213,3.191-0.558
			c-0.718,1.391-1.164,2.946-1.164,4.616c0,5.59,4.548,10.138,10.137,10.138S64.33,36.397,64.33,30.808v18.249
			c-0.537,0-0.981,0.42-1.012,0.957l-0.9,16.222c-0.046,0.801,0.245,1.594,0.797,2.178c0.549,0.581,1.326,0.916,2.129,0.916
			s1.579-0.335,2.129-0.916c0.551-0.582,0.841-1.377,0.796-2.178L67.369,50.014z M29.863,38.918c-4.473,0-8.109-3.638-8.109-8.11
			c0-4.472,3.637-8.109,8.109-8.109c4.472,0,8.11,3.638,8.11,8.109C37.973,35.28,34.335,38.918,29.863,38.918z M54.192,38.918
			c-4.473,0-8.11-3.638-8.11-8.11c0-4.472,3.637-8.109,8.11-8.109c4.472,0,8.11,3.638,8.11,8.109
			C62.302,35.28,58.665,38.918,54.192,38.918z M66,67.018c-0.342,0.367-0.967,0.367-1.312,0c-0.174-0.183-0.262-0.42-0.248-0.671
			l0.847-15.265H65.4l0.848,15.265C66.26,66.596,66.172,66.835,66,67.018z"/>
	</g>
</g>
</svg>
