<?xml version="1.0" encoding="utf-8"?>
<!-- Generator: Adobe Illustrator 16.0.0, SVG Export Plug-In . SVG Version: 6.00 Build 0)  -->
<!DOCTYPE svg PUBLIC "-//W3C//DTD SVG 1.1//EN" "http://www.w3.org/Graphics/SVG/1.1/DTD/svg11.dtd">
<svg version="1.1" id="Calque_1" xmlns="http://www.w3.org/2000/svg" xmlns:xlink="http://www.w3.org/1999/xlink" x="0px" y="0px"
	 width="90px" height="90px" viewBox="0 0 90 90" enable-background="new 0 0 90 90" xml:space="preserve">
<circle opacity="0.2" fill="#FFFFFF" cx="45" cy="45" r="43.615"/>
<g id="Calque_2">
</g>
<g>
	<g>
		<polygon fill="#FFFFFF" points="31.84,29.275 24.976,36.14 31.84,36.14 		"/>
	</g>
	<g>
		<polygon fill="#FFFFFF" points="25.117,38.072 25.117,44.404 31.449,38.072 		"/>
	</g>
	<g>
		<path fill="#FFFFFF" d="M22.384,42.973c0.257,0.258,0.526,0.496,0.801,0.725v-5.767l-2.635,2.634
			C21.047,41.423,21.649,42.238,22.384,42.973z"/>
	</g>
	<g>
		<path fill="#FFFFFF" d="M39.603,27.484c-0.254-0.314-0.526-0.619-0.818-0.911c-0.735-0.735-1.548-1.337-2.408-1.834l-2.745,2.745
			H39.603z"/>
	</g>
	<g>
		<polygon fill="#FFFFFF" points="31.84,29.275 24.976,36.14 31.84,36.14 		"/>
	</g>
	<g>
		<polygon fill="#FFFFFF" points="25.117,38.072 25.117,44.404 31.449,38.072 		"/>
	</g>
	<g>
		<path fill="#FFFFFF" d="M22.384,42.973c0.257,0.258,0.526,0.496,0.801,0.725v-5.767l-2.635,2.634
			C21.047,41.423,21.649,42.238,22.384,42.973z"/>
	</g>
	<g>
		<path fill="#FFFFFF" d="M39.603,27.484c-0.254-0.314-0.526-0.619-0.818-0.911c-0.735-0.735-1.548-1.337-2.408-1.834l-2.745,2.745
			H39.603z"/>
	</g>
	<g>
		<polygon fill="#FFFFFF" points="33.772,35.749 40.104,29.417 33.772,29.417 		"/>
	</g>
	<g>
		<path fill="#FFFFFF" d="M23.804,25.37l-0.099-0.098c-0.76-0.761-1.988-0.765-2.743-0.01c-0.754,0.754-0.75,1.982,0.01,2.742
			l0.119,0.119c-2.192,3.125-2.661,7.088-1.407,10.575L34.51,23.873C30.973,22.602,26.949,23.098,23.804,25.37z"/>
	</g>
	<g>
		<path fill="#FFFFFF" d="M56.275,65.582c1.383,1.572,3.806,1.649,5.287,0.169l0,0c1.48-1.48,1.403-3.904-0.169-5.287L49.788,50.252
			l-3.501,3.979L56.275,65.582z"/>
	</g>
	<g>
		<path fill="#FFFFFF" d="M41.517,42.973l0.229-0.228c0.378-0.377,0.378-0.989,0-1.366l-1.008-1.008
			c1.626-2.952,1.867-6.46,0.728-9.58L26.601,45.653c3.121,1.14,6.629,0.898,9.58-0.727l1.008,1.008c0.377,0.377,0.99,0.377,1.366,0
			l0.229-0.23l1.601,1.82l3.151-2.773L41.517,42.973z"/>
	</g>
	<g>
		<polygon fill="#FFFFFF" points="33.772,35.749 40.104,29.417 33.772,29.417 		"/>
	</g>
	<g>
		<path fill="#FFFFFF" d="M23.804,25.37l-0.099-0.098c-0.76-0.761-1.988-0.765-2.743-0.01c-0.754,0.754-0.75,1.982,0.01,2.742
			l0.119,0.119c-2.192,3.125-2.661,7.088-1.407,10.575L34.51,23.873C30.973,22.602,26.949,23.098,23.804,25.37z"/>
	</g>
	<g>
		<polygon fill="#FFFFFF" points="58.047,36.029 64.913,36.029 58.047,29.165 		"/>
	</g>
	<g>
		<polygon fill="#FFFFFF" points="56.115,29.306 49.783,29.306 56.115,35.638 		"/>
	</g>
	<g>
		<path fill="#FFFFFF" d="M53.623,24.739c-0.859,0.497-1.674,1.099-2.409,1.834c-0.257,0.257-0.496,0.526-0.724,0.801h5.766
			L53.623,24.739z"/>
	</g>
	<g>
		<path fill="#FFFFFF" d="M66.703,43.791c0.314-0.254,0.619-0.526,0.912-0.818c0.734-0.735,1.336-1.548,1.834-2.408l-2.746-2.745
			V43.791z"/>
	</g>
	<path fill="#FFFFFF" d="M49.261,40.37l-1.007,1.008c-0.377,0.377-0.377,0.99,0,1.366l0.229,0.229L28.605,60.464
		c-1.572,1.383-1.649,3.806-0.168,5.287c1.48,1.48,3.904,1.403,5.286-0.169l17.491-19.876l0.229,0.229
		c0.377,0.377,0.989,0.377,1.366,0l1.008-1.008c2.952,1.625,6.46,1.867,9.581,0.728L48.534,30.79
		C47.394,33.911,47.635,37.418,49.261,40.37z"/>
	<g>
		<polygon fill="#FFFFFF" points="64.771,44.292 64.771,37.961 58.439,37.961 		"/>
	</g>
	<g>
		<path fill="#FFFFFF" d="M68.818,27.993l0.099-0.099c0.76-0.761,0.764-1.988,0.01-2.743s-1.983-0.751-2.743,0.01l-0.12,0.119
			c-3.125-2.191-7.087-2.66-10.575-1.406l14.826,14.826C71.585,35.162,71.089,31.138,68.818,27.993z"/>
	</g>
</g>
</svg>
