<?xml version="1.0" encoding="utf-8"?>
<!-- Generator: Adobe Illustrator 16.0.0, SVG Export Plug-In . SVG Version: 6.00 Build 0)  -->
<!DOCTYPE svg PUBLIC "-//W3C//DTD SVG 1.1//EN" "http://www.w3.org/Graphics/SVG/1.1/DTD/svg11.dtd">
<svg version="1.1" id="Calque_1" xmlns="http://www.w3.org/2000/svg" xmlns:xlink="http://www.w3.org/1999/xlink" x="0px" y="0px"
	 width="90px" height="90px" viewBox="0 0 90 90" enable-background="new 0 0 90 90" xml:space="preserve">
<circle opacity="0.2" fill="#FFFFFF" cx="45" cy="45" r="43.615"/>
<g id="Calque_2">
</g>
<g transform="translate(0,-952.36218)">
	<path fill="#FFFFFF" stroke="#FFFFFF" stroke-width="0.6" stroke-miterlimit="10" d="M39.07,981.056
		c-3.477,0-6.194,0.993-8.292,2.687c-2.098,1.695-3.564,4.046-4.771,6.67c-0.008,0-0.016,0-0.021,0
		c-1.525,3.377-2.595,6.508-4.172,8.686c-1.574,2.178-3.531,3.475-7.202,3.475c-0.41-0.006-0.746,0.321-0.752,0.731
		c-0.006,0.409,0.322,0.746,0.73,0.751c0.008,0,0.014,0,0.021,0c4.049,0,6.613-1.651,8.385-4.1c1.767-2.444,2.87-5.623,4.355-8.917
		c0.002-0.006-0.004-0.017,0-0.023c1.149-2.499,2.537-4.629,4.377-6.115c1.844-1.489,4.146-2.362,7.342-2.362
		c2.159,0,4.918,0.531,7.97,1.505c-4.403,1.618-7.228,5.128-7.228,8.872c0,4.019,2.544,8.045,8.06,9.45
		c-1.247,2.501-2.53,4.914-4.146,6.694c-1.729,1.906-3.791,3.128-6.878,3.128c-0.41-0.006-0.747,0.321-0.751,0.73
		c-0.008,0.409,0.32,0.746,0.729,0.752c0.008,0,0.015,0,0.022,0c3.49,0,6.062-1.489,7.991-3.613
		c1.929-2.125,3.274-4.864,4.608-7.552c1.335-2.688,2.65-5.321,4.355-7.227c1.703-1.906,3.733-3.104,6.763-3.104
		c2.582,0,5.938,0.595,8.594,2.038c-3.791,1.298-6.37,4.465-6.37,8.339c0,2.652,0.903,5.263,2.965,7.204
		c2.061,1.942,5.232,3.174,9.635,3.174c0.41,0.005,0.747-0.321,0.752-0.731c0.007-0.41-0.321-0.746-0.729-0.751
		c-0.009,0-0.014,0-0.022,0c-4.133,0-6.881-1.124-8.615-2.756c-1.734-1.633-2.502-3.816-2.502-6.139
		c0-3.723,2.642-6.744,6.787-7.435c0.403-0.069,0.674-0.452,0.606-0.855c-0.032-0.185-0.134-0.351-0.282-0.464
		c-3.176-2.381-7.559-3.104-10.817-3.104c-3.439,0-5.975,1.466-7.874,3.59c-1.705,1.905-2.947,4.305-4.147,6.717
		c-5.234-1.185-7.25-4.583-7.25-8.084c0-3.527,3.088-7.246,8.292-8.176c0.402-0.079,0.664-0.469,0.584-0.871
		c-0.047-0.244-0.214-0.447-0.443-0.542C45.572,981.714,41.971,981.056,39.07,981.056z"/>
</g>
</svg>
