<?xml version="1.0" encoding="utf-8"?>
<!-- Generator: Adobe Illustrator 16.0.0, SVG Export Plug-In . SVG Version: 6.00 Build 0)  -->
<!DOCTYPE svg PUBLIC "-//W3C//DTD SVG 1.1//EN" "http://www.w3.org/Graphics/SVG/1.1/DTD/svg11.dtd">
<svg version="1.1" id="Calque_1" xmlns="http://www.w3.org/2000/svg" xmlns:xlink="http://www.w3.org/1999/xlink" x="0px" y="0px"
	 width="90px" height="90px" viewBox="0 0 90 90" enable-background="new 0 0 90 90" xml:space="preserve">
<g id="Calque_2">
</g>
<circle opacity="0.2" fill="#FFFFFF" cx="45.047" cy="45" r="43.615"/>
<g>
	<path fill="#FFFFFF" d="M59.03,24.426c-0.492,0-0.889-0.398-0.889-0.888v-2.299c0-0.233-0.21-0.423-0.465-0.423H32.546
		c-0.258,0-0.466,0.19-0.466,0.423v2.299c0,0.49-0.398,0.888-0.889,0.888s-0.89-0.398-0.89-0.888v-2.299
		c0-1.214,1.006-2.2,2.244-2.2h25.131c1.235,0,2.241,0.986,2.241,2.2v2.299C59.918,24.028,59.52,24.426,59.03,24.426z"/>
	<path fill="#FFFFFF" d="M60.209,28.094H29.792c-1.212,0-2.2-0.987-2.2-2.2v-0.633c0-1.213,0.988-2.2,2.2-2.2h30.417
		c1.212,0,2.199,0.987,2.199,2.2v0.633C62.408,27.106,61.421,28.094,60.209,28.094z M29.792,24.838c-0.232,0-0.422,0.19-0.422,0.423
		v0.633c0,0.233,0.189,0.422,0.422,0.422h30.417c0.231,0,0.422-0.188,0.422-0.422v-0.633c0-0.233-0.19-0.423-0.422-0.423H29.792z"/>
	<path fill="#FFFFFF" d="M51.083,39.008c-0.49,0-0.888-0.398-0.888-0.888V27.887c0-0.491,0.397-0.889,0.888-0.889
		c0.491,0,0.889,0.397,0.889,0.889V38.12C51.972,38.61,51.574,39.008,51.083,39.008z"/>
	<path fill="#FFFFFF" d="M39.763,39.008c-0.489,0-0.888-0.398-0.888-0.888V27.887c0-0.491,0.398-0.889,0.888-0.889
		c0.493,0,0.891,0.397,0.891,0.889V38.12C40.653,38.61,40.256,39.008,39.763,39.008z"/>
	<path fill="#FFFFFF" d="M48.487,70.96h-6.588c-1.759,0-3.361-1.739-4.9-5.315c-1.183-2.755-2.323-6.549-3.384-11.278
		c-1.936-8.627-3.094-18.054-3.094-22.181V27.56c0-0.49,0.398-0.889,0.889-0.889c0.491,0,0.889,0.398,0.889,0.889v4.625
		c0,3.944,1.166,13.397,3.052,21.793c2.519,11.223,5.101,15.205,6.548,15.205h6.588c1.462,0,4.056-3.88,6.55-14.815
		c1.98-8.689,3.049-17.914,3.049-22.183V27.56c0-0.49,0.399-0.889,0.889-0.889c0.491,0,0.889,0.398,0.889,0.889v4.625
		c0,4.365-1.084,13.761-3.093,22.577c-1.055,4.628-2.195,8.342-3.389,11.038C51.845,69.273,50.244,70.96,48.487,70.96z"/>
</g>
</svg>
