<?xml version="1.0" encoding="utf-8"?>
<!-- Generator: Adobe Illustrator 16.0.0, SVG Export Plug-In . SVG Version: 6.00 Build 0)  -->
<!DOCTYPE svg PUBLIC "-//W3C//DTD SVG 1.1//EN" "http://www.w3.org/Graphics/SVG/1.1/DTD/svg11.dtd">
<svg version="1.1" id="Calque_1" xmlns="http://www.w3.org/2000/svg" xmlns:xlink="http://www.w3.org/1999/xlink" x="0px" y="0px"
	 width="90px" height="90px" viewBox="0 0 90 90" enable-background="new 0 0 90 90" xml:space="preserve">
<circle opacity="0.2" fill="#FFFFFF" cx="45" cy="45.089" r="43.615"/>
<g id="Calque_2">
</g>
<path fill="#FFFFFF" d="M43.914,70.603c-0.175,0-0.352-0.035-0.519-0.105l-17.52-7.481c-0.636-0.271-0.955-0.987-0.731-1.642
	l5.303-15.527l-11-15.583c-0.319-0.452-0.322-1.056-0.008-1.512c0.314-0.456,0.881-0.667,1.416-0.529l10.31,2.652l0.453-4.928
	c0.041-0.455,0.315-0.856,0.724-1.061c0.408-0.204,0.893-0.184,1.283,0.056l4.846,2.977l9.239-8.189
	c0.444-0.394,1.099-0.443,1.598-0.118l20.886,13.606c0.608,0.396,0.784,1.208,0.392,1.819c-5.72,8.931-7.928,12.312-8.856,13.643
	c0.511,1.3,1.747,4.584,4.891,13.145c0.203,0.556,0.014,1.179-0.465,1.526l-6.158,4.457c-0.352,0.253-0.804,0.317-1.212,0.176
	l-8.34-2.927l-5.634,5.195C44.562,70.481,44.24,70.603,43.914,70.603z M28.041,61.067l15.605,6.664l5.591-5.153
	c0.359-0.333,0.873-0.437,1.332-0.276l8.438,2.962l4.788-3.467c-1.775-4.827-4.327-11.724-4.71-12.632
	c-0.112-0.199-0.175-0.425-0.175-0.658c0-0.363,0.147-0.691,0.384-0.931c0.678-0.928,5.179-7.9,8.358-12.859L48.709,22.375
	l-9.22,8.171c-0.435,0.386-1.071,0.441-1.567,0.138l-3.867-2.376l-0.4,4.354c-0.035,0.385-0.238,0.736-0.555,0.959
	c-0.316,0.223-0.716,0.295-1.09,0.199l-8.331-2.143l9.316,13.197c0.243,0.346,0.308,0.788,0.17,1.188L28.041,61.067z"/>
</svg>
