<?xml version="1.0" encoding="utf-8"?>
<!-- Generator: Adobe Illustrator 16.0.0, SVG Export Plug-In . SVG Version: 6.00 Build 0)  -->
<!DOCTYPE svg PUBLIC "-//W3C//DTD SVG 1.1//EN" "http://www.w3.org/Graphics/SVG/1.1/DTD/svg11.dtd">
<svg version="1.1" id="Calque_1" xmlns="http://www.w3.org/2000/svg" xmlns:xlink="http://www.w3.org/1999/xlink" x="0px" y="0px"
	 width="90px" height="90px" viewBox="0 0 90 90" enable-background="new 0 0 90 90" xml:space="preserve">
<g id="Calque_2">
</g>
<circle opacity="0.2" fill="#FFFFFF" cx="45.047" cy="45" r="43.615"/>
<g>
	<g>
		<path fill="#FFFFFF" stroke="#FFFFFF" stroke-width="0.7" stroke-miterlimit="10" d="M36.028,63.366
			c-10.127,0-18.366-8.24-18.366-18.365c0-10.128,8.239-18.367,18.366-18.367s18.366,8.239,18.366,18.367
			C54.395,55.126,46.155,63.366,36.028,63.366z M36.028,26.933c-9.962,0-18.066,8.105-18.066,18.068
			c0,9.961,8.104,18.066,18.066,18.066s18.065-8.105,18.065-18.066C54.094,35.038,45.99,26.933,36.028,26.933z"/>
	</g>
	<g>
		<path fill="#FFFFFF" stroke="#FFFFFF" stroke-width="0.7" stroke-miterlimit="10" d="M53.973,63.366
			c-10.126,0-18.365-8.24-18.365-18.365c0-10.128,8.239-18.367,18.365-18.367c10.128,0,18.365,8.239,18.365,18.365
			C72.338,55.126,64.101,63.366,53.973,63.366z M53.973,26.933c-9.962,0-18.065,8.105-18.065,18.068
			c0,9.961,8.104,18.066,18.065,18.066S72.04,54.962,72.04,44.999C72.04,35.037,63.935,26.933,53.973,26.933z"/>
	</g>
	<g>
		<polygon fill="#FFFFFF" stroke="#FFFFFF" stroke-width="0.7" stroke-miterlimit="10" points="63.421,60.69 26.812,60.69 
			26.812,60.392 62.893,60.392 62.885,60.378 44.854,29.184 45.114,29.034 63.142,60.226 		"/>
	</g>
	<g>
		
			<rect x="17.576" y="44.806" transform="matrix(-0.4992 0.8665 -0.8665 -0.4992 92.7166 36.3233)" fill="#FFFFFF" stroke="#FFFFFF" stroke-width="0.7" stroke-miterlimit="10" width="36.571" height="0.299"/>
	</g>
</g>
</svg>
