<?xml version="1.0" encoding="utf-8"?>
<!-- Generator: Adobe Illustrator 16.0.0, SVG Export Plug-In . SVG Version: 6.00 Build 0)  -->
<!DOCTYPE svg PUBLIC "-//W3C//DTD SVG 1.1//EN" "http://www.w3.org/Graphics/SVG/1.1/DTD/svg11.dtd">
<svg version="1.1" id="Calque_1" xmlns="http://www.w3.org/2000/svg" xmlns:xlink="http://www.w3.org/1999/xlink" x="0px" y="0px"
	 width="90px" height="90px" viewBox="0 0 90 90" enable-background="new 0 0 90 90" xml:space="preserve">
<circle opacity="0.2" fill="#FFFFFF" cx="44.953" cy="45" r="43.615"/>
<g id="Calque_2">
</g>
<g>
	<path fill="#FFFFFF" d="M44.954,66.771c-11.014,0-19.976-8.96-19.976-19.976c0-11.014,8.962-19.974,19.976-19.974
		c11.015,0,19.975,8.96,19.975,19.975S55.969,66.771,44.954,66.771z M44.954,28.242c-10.23,0-18.553,8.323-18.553,18.554
		S34.724,65.35,44.954,65.35s18.554-8.324,18.554-18.554C63.509,36.565,55.185,28.242,44.954,28.242z"/>
	<path fill="#FFFFFF" d="M44.954,62.934c-8.897,0-16.137-7.239-16.137-16.139c0-8.897,7.238-16.136,16.137-16.136
		c8.897,0,16.138,7.239,16.138,16.137S53.852,62.934,44.954,62.934z M44.954,32.081c-8.114,0-14.716,6.601-14.716,14.714
		c0,8.114,6.601,14.716,14.716,14.716S59.67,54.91,59.67,46.796C59.67,38.682,53.069,32.081,44.954,32.081z"/>
	<path fill="#FFFFFF" d="M40.248,28.569c-0.042,0-0.086-0.004-0.129-0.012c-0.386-0.07-0.641-0.441-0.571-0.828
		c0.478-2.607,2.751-4.5,5.406-4.5c2.638,0,4.909,1.877,5.399,4.464c0.073,0.386-0.179,0.758-0.564,0.832
		c-0.386,0.074-0.759-0.18-0.831-0.565c-0.364-1.918-2.049-3.309-4.004-3.309c-1.969,0-3.653,1.402-4.008,3.335
		C40.884,28.328,40.584,28.569,40.248,28.569z"/>
	<path fill="#FFFFFF" d="M44.954,34.505c-1.734,0-3.387-0.834-4.42-2.229c-0.234-0.315-0.166-0.76,0.147-0.994
		c0.315-0.233,0.762-0.167,0.995,0.148c0.776,1.05,1.973,1.653,3.276,1.653c1.306,0,2.5-0.603,3.278-1.653
		c0.232-0.315,0.678-0.382,0.994-0.148c0.314,0.233,0.382,0.679,0.147,0.994C48.341,33.671,46.689,34.505,44.954,34.505z"/>
	<path fill="#FFFFFF" d="M59.926,51.316c-0.15,0-0.301-0.047-0.43-0.145c-1.379-1.049-2.169-2.645-2.169-4.376
		c0-1.721,0.784-3.309,2.148-4.359c0.312-0.239,0.758-0.18,0.997,0.131c0.238,0.311,0.181,0.757-0.13,0.996
		c-1.014,0.778-1.595,1.956-1.595,3.233c0,1.284,0.587,2.466,1.609,3.245c0.312,0.239,0.372,0.684,0.135,0.997
		C60.353,51.22,60.141,51.316,59.926,51.316z"/>
	<path fill="#FFFFFF" d="M63.637,52.224c-0.341,0-0.642-0.245-0.7-0.591c-0.066-0.387,0.193-0.754,0.581-0.821
		c1.958-0.335,3.38-2.025,3.38-4.016c0-2.003-1.431-3.694-3.402-4.02c-0.388-0.065-0.65-0.431-0.586-0.818
		c0.063-0.387,0.429-0.649,0.816-0.585c2.662,0.441,4.594,2.721,4.594,5.423c0,2.686-1.918,4.965-4.562,5.417
		C63.716,52.22,63.677,52.224,63.637,52.224z"/>
	<path fill="#FFFFFF" d="M30.014,51.361c-0.219,0-0.433-0.1-0.572-0.288c-0.232-0.317-0.166-0.761,0.15-0.993
		c1.039-0.768,1.66-1.995,1.659-3.285c0-1.075-0.262-2.534-1.513-3.378c-0.325-0.22-0.411-0.662-0.19-0.986
		c0.22-0.326,0.661-0.412,0.986-0.191c1.379,0.932,2.139,2.551,2.139,4.556c0,1.739-0.837,3.394-2.237,4.427
		C30.308,51.315,30.161,51.361,30.014,51.361z"/>
	<path fill="#FFFFFF" d="M26.269,52.207c-0.045,0-0.089-0.006-0.134-0.013c-2.581-0.497-4.454-2.766-4.454-5.397
		c0-2.6,1.846-4.864,4.389-5.384c0.384-0.078,0.762,0.169,0.839,0.554c0.08,0.385-0.169,0.76-0.554,0.839
		c-1.885,0.385-3.253,2.064-3.253,3.991c0,1.952,1.389,3.634,3.3,4.002c0.387,0.075,0.638,0.447,0.563,0.832
		C26.9,51.969,26.604,52.207,26.269,52.207z"/>
	<path fill="#FFFFFF" d="M32.12,39.912C32.119,39.912,32.119,39.912,32.12,39.912c-0.394,0-0.711-0.318-0.711-0.71
		c0-0.393,0.318-0.711,0.71-0.711l0,0c0,0,0,0,0.001,0c1.089,0,2.111-0.424,2.881-1.194c0.77-0.769,1.194-1.793,1.194-2.881
		c0-0.393,0.318-0.711,0.711-0.711c0.392,0,0.71,0.318,0.71,0.711c0,1.468-0.572,2.848-1.61,3.887
		C34.968,39.34,33.588,39.912,32.12,39.912z"/>
	<path fill="#FFFFFF" d="M28.257,37.951c-0.22,0-0.436-0.101-0.574-0.291c-0.693-0.946-1.06-2.068-1.06-3.245
		c0-3.03,2.466-5.496,5.496-5.496c1.093,0,2.15,0.32,3.057,0.927c0.326,0.219,0.412,0.66,0.193,0.986
		c-0.218,0.326-0.659,0.413-0.984,0.195c-0.671-0.45-1.454-0.688-2.266-0.688c-2.246,0-4.074,1.828-4.074,4.075
		c0,0.873,0.271,1.703,0.785,2.405c0.231,0.316,0.164,0.761-0.154,0.993C28.549,37.906,28.401,37.951,28.257,37.951z"/>
	<path fill="#FFFFFF" d="M61.707,37.991c-0.148,0-0.298-0.046-0.426-0.142c-0.313-0.235-0.378-0.68-0.144-0.995
		c0.53-0.708,0.812-1.551,0.812-2.438c0-2.248-1.829-4.076-4.076-4.076c-0.825,0-1.62,0.246-2.298,0.71
		c-0.323,0.221-0.766,0.139-0.988-0.186c-0.221-0.324-0.139-0.767,0.185-0.988c0.917-0.626,1.988-0.958,3.102-0.958
		c3.031,0,5.496,2.466,5.496,5.496c0,1.197-0.379,2.334-1.094,3.29C62.138,37.892,61.925,37.991,61.707,37.991z"/>
	<path fill="#FFFFFF" d="M57.874,39.913c-3.031,0-5.497-2.467-5.497-5.497c0-0.269,0.021-0.537,0.059-0.799
		c0.057-0.388,0.419-0.655,0.806-0.6c0.389,0.057,0.658,0.418,0.602,0.807c-0.03,0.194-0.043,0.394-0.043,0.593
		c0,2.247,1.827,4.075,4.074,4.075c0.393,0,0.711,0.318,0.711,0.711C58.585,39.594,58.267,39.913,57.874,39.913z"/>
	<path fill="#FFFFFF" d="M58.037,64.225c-0.955,0-1.896-0.25-2.722-0.722c-0.341-0.194-0.459-0.628-0.264-0.969
		c0.194-0.34,0.628-0.459,0.969-0.264c0.611,0.349,1.309,0.532,2.017,0.532c2.247,0,4.076-1.827,4.076-4.074
		c0-0.862-0.266-1.686-0.77-2.382c-0.229-0.318-0.157-0.763,0.16-0.993c0.319-0.229,0.763-0.157,0.993,0.162
		c0.679,0.939,1.037,2.05,1.037,3.214C63.533,61.759,61.067,64.225,58.037,64.225z"/>
	<path fill="#FFFFFF" d="M53.356,60.443c-0.328,0-0.623-0.228-0.694-0.562c-0.08-0.375-0.121-0.764-0.121-1.152
		c0-3.031,2.465-5.497,5.496-5.497c0.393,0,0.71,0.318,0.71,0.709c0,0.392-0.317,0.711-0.71,0.711c-2.247,0-4.075,1.829-4.075,4.076
		c0,0.288,0.03,0.575,0.091,0.855c0.082,0.384-0.164,0.762-0.547,0.844C53.456,60.439,53.405,60.443,53.356,60.443z"/>
	<path fill="#FFFFFF" d="M32.119,64.966c-3.03,0-5.496-2.466-5.496-5.496c0-1.176,0.365-2.295,1.058-3.241
		c0.231-0.316,0.677-0.386,0.993-0.154c0.317,0.231,0.385,0.676,0.154,0.993c-0.512,0.701-0.784,1.531-0.784,2.402
		c0,2.247,1.829,4.075,4.075,4.075c0.894,0,1.741-0.283,2.453-0.821c0.312-0.237,0.758-0.173,0.995,0.139
		c0.237,0.314,0.174,0.759-0.14,0.995C34.469,64.583,33.324,64.966,32.119,64.966z"/>
	<path fill="#FFFFFF" d="M36.883,60.654c-0.023,0-0.048-0.002-0.07-0.005c-0.391-0.038-0.676-0.386-0.638-0.776
		c0.013-0.133,0.021-0.268,0.021-0.403c0-2.246-1.828-4.075-4.076-4.075c-0.392,0-0.709-0.317-0.709-0.71
		c0-0.392,0.317-0.71,0.709-0.71c3.031,0,5.498,2.466,5.498,5.496c0,0.182-0.01,0.364-0.028,0.542
		C37.553,60.38,37.243,60.654,36.883,60.654z"/>
</g>
</svg>
