<?xml version="1.0" encoding="utf-8"?>
<!-- Generator: Adobe Illustrator 16.0.0, SVG Export Plug-In . SVG Version: 6.00 Build 0)  -->
<!DOCTYPE svg PUBLIC "-//W3C//DTD SVG 1.1//EN" "http://www.w3.org/Graphics/SVG/1.1/DTD/svg11.dtd">
<svg version="1.1" id="Calque_1" xmlns="http://www.w3.org/2000/svg" xmlns:xlink="http://www.w3.org/1999/xlink" x="0px" y="0px"
	 width="90px" height="90px" viewBox="0 0 90 90" enable-background="new 0 0 90 90" xml:space="preserve">
<circle opacity="0.2" fill="#FFFFFF" cx="45" cy="46.427" r="43.615"/>
<g id="Calque_2">
</g>
<g>
	<path fill="#FFFFFF" stroke="#FFFFFF" stroke-width="0.5" stroke-miterlimit="10" d="M46.92,49.875
		c-2.159,1.511-3.407,4.564-1.773,6.898c1.633,2.333,4.93,2.204,7.088,0.693c2.159-1.513,3.406-4.565,1.773-6.898
		C52.375,48.235,49.078,48.364,46.92,49.875z M47.674,50.952c1.552-1.085,4.052-1.35,5.256,0.371c1.206,1.72,0.103,3.979-1.45,5.064
		c-1.552,1.088-4.05,1.352-5.255-0.369C45.019,54.296,46.123,52.04,47.674,50.952z"/>
	<path fill="#FFFFFF" stroke="#FFFFFF" stroke-width="0.5" stroke-miterlimit="10" d="M39.5,44.489
		c-3.188,3.478-4.53,8.833-1.665,12.924c0.83,1.185,1.932,2.119,3.222,2.771c-0.474,2.807,0.032,5.663,1.678,8.015
		c4.186,5.977,12.676,5.493,18.168,1.648c5.493-3.846,8.852-11.659,4.666-17.636c-1.646-2.351-4.159-3.805-6.957-4.318
		c-0.171-1.438-0.668-2.789-1.501-3.978c-2.865-4.092-8.357-4.66-12.715-2.853L31.414,22.519c0.571-1.354,0.508-2.478-0.367-3.728
		c-1.334-1.905-4.536-1.884-6.331-0.628c-1.795,1.257-2.91,4.26-1.577,6.166c0.875,1.249,1.913,1.692,3.379,1.619L39.5,44.489
		L39.5,44.489z M41.204,44.629l-14.04-20.052c-1.297,0.123-2.11,0.192-2.946-1.003c-0.906-1.294,0.051-3.491,1.252-4.333
		c1.201-0.841,3.593-0.99,4.5,0.305c0.835,1.195,0.494,1.936-0.067,3.111l14.041,20.052c4.051-1.88,9.253-2.093,12.09,1.96
		c0.978,1.397,1.246,2.688,1.348,4.362c2.932,0.417,5.352,1.421,7.11,3.934c3.757,5.366,0.543,12.382-4.343,15.803
		c-4.887,3.421-12.579,4.042-16.336-1.324c-1.752-2.505-1.877-5.12-1.264-8.027c-1.533-0.667-2.648-1.348-3.637-2.759
		C36.077,52.609,38.052,47.787,41.204,44.629L41.204,44.629z"/>
</g>
</svg>
