<?xml version="1.0" encoding="utf-8"?>
<!-- Generator: Adobe Illustrator 16.0.0, SVG Export Plug-In . SVG Version: 6.00 Build 0)  -->
<!DOCTYPE svg PUBLIC "-//W3C//DTD SVG 1.1//EN" "http://www.w3.org/Graphics/SVG/1.1/DTD/svg11.dtd">
<svg version="1.1" id="Calque_1" xmlns="http://www.w3.org/2000/svg" xmlns:xlink="http://www.w3.org/1999/xlink" x="0px" y="0px"
	 width="90px" height="90px" viewBox="0 0 90 90" enable-background="new 0 0 90 90" xml:space="preserve">
<circle opacity="0.2" fill="#FFFFFF" cx="45" cy="45.089" r="43.615"/>
<g id="Calque_2">
</g>
<g>
	<path fill="#FFFFFF" d="M75.027,41.963h-2.729v-2.798c0-0.682-0.615-1.296-1.297-1.296H19c-0.75,0-1.297,0.546-1.297,1.296v2.798
		h-2.729c-0.341,0-0.683,0.272-0.683,0.614v4.846c0,0.341,0.273,0.614,0.683,0.614h2.729v2.798c0,0.682,0.615,1.296,1.297,1.296
		h51.933c0.75,0,1.296-0.546,1.296-1.296v-2.798h2.798c0.341,0,0.683-0.272,0.683-0.614v-4.914
		C75.709,42.236,75.436,41.963,75.027,41.963z M19.067,39.233h51.865v2.73H19.067V39.233z M62.402,46.74v-3.412h1.979v3.412H62.402z
		 M27.667,43.328v3.412h-1.979v-3.412H27.667z M30.259,43.328h1.979v3.412h-1.979V43.328z M34.832,43.328h1.979v3.412h-1.979V43.328
		z M39.472,43.328h1.979v3.412h-1.979V43.328z M44.045,43.328h1.979v3.412h-1.979V43.328z M48.617,43.328h1.979v3.412h-1.979V43.328
		z M53.189,43.328h1.979v3.412h-1.979V43.328z M57.761,43.328h1.979v3.412h-1.979V43.328z M15.656,46.74v-3.412h7.37v3.412H15.656z
		 M70.933,50.835H19.067v-2.73h51.865V50.835z M74.344,46.74h-7.37v-3.412h7.37V46.74z"/>
</g>
</svg>
