<?xml version="1.0" encoding="utf-8"?>
<!-- Generator: Adobe Illustrator 16.0.0, SVG Export Plug-In . SVG Version: 6.00 Build 0)  -->
<!DOCTYPE svg PUBLIC "-//W3C//DTD SVG 1.1//EN" "http://www.w3.org/Graphics/SVG/1.1/DTD/svg11.dtd">
<svg version="1.1" id="Calque_1" xmlns="http://www.w3.org/2000/svg" xmlns:xlink="http://www.w3.org/1999/xlink" x="0px" y="0px"
	 width="90px" height="90px" viewBox="0 0 90 90" enable-background="new 0 0 90 90" xml:space="preserve">
<circle opacity="0.2" fill="#FFFFFF" enable-background="new    " cx="45" cy="45.089" r="43.615"/>
<g id="Calque_2">
</g>
<g>
	<g>
		<path fill="#FFFFFF" d="M66.906,22.672H23.093c-0.232,0-0.422,0.189-0.422,0.422v43.813c0,0.233,0.189,0.421,0.422,0.421h43.813
			c0.232,0,0.422-0.188,0.422-0.421V23.094C67.328,22.861,67.139,22.672,66.906,22.672z M66.484,66.484H23.514v-42.97h42.971V66.484
			z"/>
		<path fill="#FFFFFF" d="M26.463,63.959h5.055c0.233,0,0.421-0.189,0.421-0.421v-5.056c0-0.233-0.188-0.421-0.421-0.421h-5.055
			c-0.233,0-0.422,0.188-0.422,0.421v5.056C26.042,63.77,26.23,63.959,26.463,63.959z M26.884,58.902h4.213v4.213h-4.213V58.902z"/>
		<path fill="#FFFFFF" d="M26.463,55.531h5.055c0.233,0,0.421-0.188,0.421-0.419v-5.056c0-0.233-0.188-0.423-0.421-0.423h-5.055
			c-0.233,0-0.422,0.189-0.422,0.423v5.056C26.042,55.344,26.23,55.531,26.463,55.531z M26.884,50.478h4.213v4.212h-4.213V50.478z"
			/>
		<path fill="#FFFFFF" d="M26.463,47.107h5.055c0.233,0,0.421-0.189,0.421-0.422V41.63c0-0.232-0.188-0.421-0.421-0.421h-5.055
			c-0.233,0-0.422,0.188-0.422,0.421v5.056C26.042,46.918,26.23,47.107,26.463,47.107z M26.884,42.052h4.213v4.213h-4.213V42.052z"
			/>
		<path fill="#FFFFFF" d="M26.463,38.681h5.055c0.233,0,0.421-0.188,0.421-0.421v-5.056c0-0.232-0.188-0.421-0.421-0.421h-5.055
			c-0.233,0-0.422,0.188-0.422,0.421v5.056C26.042,38.492,26.23,38.681,26.463,38.681z M26.884,33.626h4.213v4.212h-4.213V33.626z"
			/>
		<path fill="#FFFFFF" d="M39.944,58.062h-5.055c-0.232,0-0.421,0.188-0.421,0.421v5.056c0,0.231,0.189,0.421,0.421,0.421h5.055
			c0.233,0,0.422-0.189,0.422-0.421v-5.056C40.366,58.249,40.177,58.062,39.944,58.062z M39.523,63.115H35.31v-4.213h4.214V63.115z"
			/>
		<path fill="#FFFFFF" d="M39.944,49.634h-5.055c-0.232,0-0.421,0.189-0.421,0.423v5.056c0,0.231,0.189,0.419,0.421,0.419h5.055
			c0.233,0,0.422-0.188,0.422-0.419v-5.056C40.366,49.823,40.177,49.634,39.944,49.634z M39.523,54.689H35.31v-4.212h4.214V54.689z"
			/>
		<path fill="#FFFFFF" d="M39.944,41.209h-5.055c-0.232,0-0.421,0.188-0.421,0.421v5.056c0,0.232,0.189,0.422,0.421,0.422h5.055
			c0.233,0,0.422-0.189,0.422-0.422V41.63C40.366,41.397,40.177,41.209,39.944,41.209z M39.523,46.265H35.31v-4.213h4.214V46.265z"
			/>
		<path fill="#FFFFFF" d="M39.944,32.783h-5.055c-0.232,0-0.421,0.188-0.421,0.421v5.056c0,0.232,0.189,0.421,0.421,0.421h5.055
			c0.233,0,0.422-0.188,0.422-0.421v-5.056C40.366,32.972,40.177,32.783,39.944,32.783z M39.523,37.838H35.31v-4.212h4.214V37.838z"
			/>
		<path fill="#FFFFFF" d="M48.369,58.062h-5.055c-0.232,0-0.422,0.188-0.422,0.421v5.056c0,0.231,0.19,0.421,0.422,0.421h5.055
			c0.232,0,0.422-0.189,0.422-0.421v-5.056C48.791,58.249,48.602,58.062,48.369,58.062z M47.949,63.115h-4.213v-4.213h4.213V63.115z
			"/>
		<path fill="#FFFFFF" d="M48.369,49.634h-5.055c-0.232,0-0.422,0.189-0.422,0.423v5.056c0,0.231,0.19,0.419,0.422,0.419h5.055
			c0.232,0,0.422-0.188,0.422-0.419v-5.056C48.791,49.823,48.602,49.634,48.369,49.634z M47.949,54.689h-4.213v-4.212h4.213V54.689z
			"/>
		<path fill="#FFFFFF" d="M48.369,41.209h-5.055c-0.232,0-0.422,0.188-0.422,0.421v5.056c0,0.232,0.19,0.422,0.422,0.422h5.055
			c0.232,0,0.422-0.189,0.422-0.422V41.63C48.791,41.397,48.602,41.209,48.369,41.209z M47.949,46.265h-4.213v-4.213h4.213V46.265z"
			/>
		<path fill="#FFFFFF" d="M48.369,32.783h-5.055c-0.232,0-0.422,0.188-0.422,0.421v5.056c0,0.232,0.19,0.421,0.422,0.421h5.055
			c0.232,0,0.422-0.188,0.422-0.421v-5.056C48.791,32.972,48.602,32.783,48.369,32.783z M47.949,37.838h-4.213v-4.212h4.213V37.838z
			"/>
		<path fill="#FFFFFF" d="M56.797,58.062H51.74c-0.232,0-0.42,0.188-0.42,0.421v5.056c0,0.231,0.188,0.421,0.42,0.421h5.057
			c0.232,0,0.42-0.189,0.42-0.421v-5.056C57.217,58.249,57.029,58.062,56.797,58.062z M56.375,63.115h-4.213v-4.213h4.213V63.115z"
			/>
		<path fill="#FFFFFF" d="M56.797,49.634H51.74c-0.232,0-0.42,0.189-0.42,0.423v5.056c0,0.231,0.188,0.419,0.42,0.419h5.057
			c0.232,0,0.42-0.188,0.42-0.419v-5.056C57.217,49.823,57.029,49.634,56.797,49.634z M56.375,54.689h-4.213v-4.212h4.213V54.689z"
			/>
		<path fill="#FFFFFF" d="M56.797,41.209H51.74c-0.232,0-0.42,0.188-0.42,0.421v5.056c0,0.232,0.188,0.422,0.42,0.422h5.057
			c0.232,0,0.42-0.189,0.42-0.422V41.63C57.217,41.397,57.029,41.209,56.797,41.209z M56.375,46.265h-4.213v-4.213h4.213V46.265z"/>
		<path fill="#FFFFFF" d="M56.797,32.783H51.74c-0.232,0-0.42,0.188-0.42,0.421v5.056c0,0.232,0.188,0.421,0.42,0.421h5.057
			c0.232,0,0.42-0.188,0.42-0.421v-5.056C57.217,32.972,57.029,32.783,56.797,32.783z M56.375,37.838h-4.213v-4.212h4.213V37.838z"
			/>
		<path fill="#FFFFFF" d="M26.463,30.255h30.333c0.232,0,0.42-0.188,0.42-0.421v-3.37c0-0.232-0.188-0.421-0.42-0.421H26.463
			c-0.233,0-0.422,0.188-0.422,0.421v3.37C26.042,30.066,26.23,30.255,26.463,30.255z M26.884,26.886h29.491v2.527H26.884V26.886z"
			/>
		<path fill="#FFFFFF" d="M61.852,37.838c1.162,0,2.105-0.945,2.105-2.105c0-1.161-0.943-2.106-2.105-2.106
			s-2.107,0.945-2.107,2.106C59.744,36.893,60.689,37.838,61.852,37.838z M61.852,34.469c0.697,0,1.264,0.567,1.264,1.264
			s-0.566,1.263-1.264,1.263s-1.264-0.566-1.264-1.263S61.154,34.469,61.852,34.469z"/>
		<path fill="#FFFFFF" d="M61.852,46.265c1.162,0,2.105-0.945,2.105-2.107c0-1.161-0.943-2.105-2.105-2.105
			s-2.107,0.944-2.107,2.105C59.744,45.319,60.689,46.265,61.852,46.265z M61.852,42.894c0.697,0,1.264,0.567,1.264,1.264
			c0,0.697-0.566,1.265-1.264,1.265s-1.264-0.567-1.264-1.265C60.588,43.461,61.154,42.894,61.852,42.894z"/>
		<path fill="#FFFFFF" d="M61.852,54.689c1.162,0,2.105-0.944,2.105-2.105c0-1.162-0.943-2.106-2.105-2.106
			s-2.107,0.944-2.107,2.106C59.744,53.745,60.689,54.689,61.852,54.689z M61.852,51.32c0.697,0,1.264,0.567,1.264,1.264
			c0,0.697-0.566,1.263-1.264,1.263s-1.264-0.565-1.264-1.263C60.588,51.888,61.154,51.32,61.852,51.32z"/>
		<path fill="#FFFFFF" d="M61.852,63.115c1.162,0,2.105-0.944,2.105-2.107c0-1.161-0.943-2.105-2.105-2.105
			s-2.107,0.944-2.107,2.105C59.744,62.171,60.689,63.115,61.852,63.115z M61.852,59.746c0.697,0,1.264,0.566,1.264,1.262
			c0,0.699-0.566,1.266-1.264,1.266s-1.264-0.566-1.264-1.266C60.588,60.312,61.154,59.746,61.852,59.746z"/>
	</g>
</g>
</svg>
