<?xml version="1.0" encoding="utf-8"?>
<!-- Generator: Adobe Illustrator 16.0.0, SVG Export Plug-In . SVG Version: 6.00 Build 0)  -->
<!DOCTYPE svg PUBLIC "-//W3C//DTD SVG 1.1//EN" "http://www.w3.org/Graphics/SVG/1.1/DTD/svg11.dtd">
<svg version="1.1" id="Calque_1" xmlns="http://www.w3.org/2000/svg" xmlns:xlink="http://www.w3.org/1999/xlink" x="0px" y="0px"
	 width="90px" height="90px" viewBox="0 0 90 90" enable-background="new 0 0 90 90" xml:space="preserve">
<circle opacity="0.2" fill="#FFFFFF" cx="45" cy="45" r="43.615"/>
<g id="Calque_2">
</g>
<path fill="#FFFFFF" d="M55.149,23.678c-2.343,0-4.264,1.923-4.264,4.265v6.246c-0.721-0.48-1.561-0.78-2.462-0.78
	c-1.381,0-2.583,0.661-3.362,1.682c-0.782-1.021-1.984-1.682-3.364-1.682c-0.901,0-1.803,0.3-2.463,0.78v-6.246
	c0-2.342-1.921-4.265-4.264-4.265s-4.384,1.923-4.384,4.265v16.037v3.724v0.6v5.105c0,7.087,5.825,12.914,12.972,12.914h2.883
	c7.147,0,12.972-5.766,12.972-12.914v-9.43V27.942C59.413,25.601,57.493,23.678,55.149,23.678z M48.364,35.15
	c1.381,0,2.463,1.081,2.463,2.463v6.366v2.282c0,1.382-1.143,2.463-2.463,2.463c-0.361,0-0.721-0.12-1.082-0.24
	c0.12-0.36,0.12-0.721,0.12-1.081c0-1.322-0.602-2.523-1.562-3.304v-6.486C45.901,36.291,47.043,35.15,48.364,35.15z M41.636,35.15
	c1.383,0,2.463,1.081,2.463,2.463v5.525c-0.299-0.061-0.599-0.121-0.901-0.121h-4.024v-5.465
	C39.114,36.291,40.256,35.15,41.636,35.15z M32.388,27.942c0-1.381,1.142-2.463,2.463-2.463c1.32,0,2.463,1.082,2.463,2.463v9.73
	v5.465H35.21c-1.08,0-2.04,0.36-2.822,0.96v-0.06V27.942z M57.612,53.409c0,6.126-4.984,11.112-11.171,11.112h-2.883
	c-6.187,0-11.171-4.985-11.171-11.112v-5.105v-0.6c0-1.562,1.261-2.824,2.822-2.824h3.003l0,0l0,0h4.984
	c1.383,0,2.463,1.081,2.463,2.463c0,1.381-1.141,2.463-2.463,2.463h-4.384c-0.48,0-0.901,0.42-0.901,0.9c0,0.48,0.421,0.9,0.901,0.9
	h3.003c1.622,0,2.944,1.322,2.944,2.883v2.042c0,0.481,0.42,0.901,0.899,0.901c0.481,0,0.901-0.42,0.901-0.901V54.55
	c0-1.321-0.54-2.523-1.441-3.364c0.54-0.241,0.96-0.661,1.381-1.081c0.601,0.3,1.263,0.48,1.923,0.48
	c2.343,0,4.264-1.922,4.264-4.264v-2.283v-6.426v-9.67c0-1.381,1.141-2.463,2.462-2.463c1.322,0,2.463,1.082,2.463,2.463v16.037
	V53.409z"/>
</svg>
