<?xml version="1.0" encoding="utf-8"?>
<!-- Generator: Adobe Illustrator 16.0.0, SVG Export Plug-In . SVG Version: 6.00 Build 0)  -->
<!DOCTYPE svg PUBLIC "-//W3C//DTD SVG 1.1//EN" "http://www.w3.org/Graphics/SVG/1.1/DTD/svg11.dtd">
<svg version="1.1" id="Calque_1" xmlns="http://www.w3.org/2000/svg" xmlns:xlink="http://www.w3.org/1999/xlink" x="0px" y="0px"
	 width="90px" height="90px" viewBox="0 0 90 90" enable-background="new 0 0 90 90" xml:space="preserve">
<circle opacity="0.2" fill="#FFFFFF" cx="45" cy="45" r="43.615"/>
<g id="Calque_2">
</g>
<path fill="#FFFFFF" d="M60.475,20.744H31.754c-0.465,0-0.773,0.311-0.773,0.776V68.48c0,0.466,0.309,0.776,0.773,0.776h28.721
	c0.467,0,0.775-0.31,0.775-0.776V21.521C61.25,21.132,60.863,20.744,60.475,20.744z M59.699,67.704H32.531V22.297h27.168V67.704z"/>
<path fill="#FFFFFF" d="M46.115,64.133c6.209,0,11.254-5.044,11.254-11.254c0-6.21-5.045-11.255-11.254-11.255
	s-11.254,5.045-11.254,11.255C34.861,59.088,39.906,64.133,46.115,64.133z M46.115,43.176c5.355,0,9.703,4.347,9.703,9.703
	c0,5.355-4.348,9.702-9.703,9.702s-9.703-4.347-9.703-9.702C36.412,47.523,40.76,43.176,46.115,43.176z"/>
<path fill="#FFFFFF" d="M46.115,40.459c4.268,0,7.762-3.493,7.762-7.762s-3.494-7.762-7.762-7.762s-7.762,3.493-7.762,7.762
	S41.848,40.459,46.115,40.459z M46.115,26.488c3.416,0,6.209,2.795,6.209,6.21s-2.793,6.209-6.209,6.209s-6.209-2.794-6.209-6.209
	S42.699,26.488,46.115,26.488z"/>
<path fill="#FFFFFF" d="M46.115,35.336c1.475,0,2.639-1.165,2.639-2.639c0-1.475-1.164-2.639-2.639-2.639s-2.639,1.164-2.639,2.639
	C43.477,34.172,44.641,35.336,46.115,35.336z M46.115,31.611c0.621,0,1.088,0.466,1.088,1.087c0,0.621-0.467,1.086-1.088,1.086
	s-1.088-0.466-1.088-1.086C45.027,32.077,45.494,31.611,46.115,31.611z"/>
<path fill="#FFFFFF" d="M46.115,56.216c1.863,0,3.338-1.475,3.338-3.337c0-1.863-1.475-3.338-3.338-3.338s-3.338,1.475-3.338,3.338
	C42.777,54.741,44.252,56.216,46.115,56.216z M46.115,51.093c1.01,0,1.785,0.776,1.785,1.786c0,1.008-0.775,1.786-1.785,1.786
	s-1.785-0.777-1.785-1.786C44.33,51.869,45.105,51.093,46.115,51.093z"/>
</svg>
