<?xml version="1.0" encoding="utf-8"?>
<!-- Generator: Adobe Illustrator 16.0.0, SVG Export Plug-In . SVG Version: 6.00 Build 0)  -->
<!DOCTYPE svg PUBLIC "-//W3C//DTD SVG 1.1//EN" "http://www.w3.org/Graphics/SVG/1.1/DTD/svg11.dtd">
<svg version="1.1" id="Calque_1" xmlns="http://www.w3.org/2000/svg" xmlns:xlink="http://www.w3.org/1999/xlink" x="0px" y="0px"
	 width="90px" height="90px" viewBox="0 0 90 90" enable-background="new 0 0 90 90" xml:space="preserve">
<circle opacity="0.2" fill="#FFFFFF" enable-background="new    " cx="45" cy="45.089" r="43.615"/>
<g id="Calque_2">
</g>
<g>
	<g>
		<path fill="#FFFFFF" stroke="#FFFFFF" stroke-width="0.5" stroke-miterlimit="10" d="M34.114,45.821
			c-5.029,0-9.122-4.092-9.122-9.121c0-5.03,4.093-9.122,9.122-9.122c5.03,0,9.123,4.092,9.123,9.122
			C43.237,41.729,39.145,45.821,34.114,45.821z M34.114,28.65c-4.438,0-8.049,3.611-8.049,8.049c0,4.438,3.61,8.049,8.049,8.049
			c4.438,0,8.05-3.61,8.05-8.049C42.164,32.262,38.553,28.65,34.114,28.65z"/>
	</g>
	<g>
		<path fill="#FFFFFF" stroke="#FFFFFF" stroke-width="0.5" stroke-miterlimit="10" d="M64.982,58.247
			c-0.188-0.2-0.362-0.416-0.547-0.622c-0.004-0.005-0.004-0.009-0.008-0.012L44.87,37.123c-0.104-0.087-0.193-0.189-0.28-0.293
			c-0.039-0.033-0.075-0.07-0.106-0.111l-0.026-0.027c-0.008-0.007-0.017-0.012-0.025-0.02c-0.022-0.019-0.035-0.04-0.05-0.06
			l-1.294-1.355l-0.777,0.741L64.85,59.607c0.082-0.276,0.129-0.586,0.158-0.901C65.001,58.553,65.001,58.4,64.982,58.247z"/>
	</g>
	<g>
		<path fill="#FFFFFF" stroke="#FFFFFF" stroke-width="0.5" stroke-miterlimit="10" d="M61.217,62.354l0.543-0.893L34.394,44.827
			l-0.559,0.917l1.457,0.886c0.068,0.04,0.136,0.082,0.204,0.123l0.818,0.497c0.084,0.043,0.165,0.094,0.25,0.135
			c0.036,0.02,0.061,0.041,0.082,0.065c0.039,0.013,0.072,0.032,0.1,0.062l24.172,14.693C61.02,62.256,61.118,62.305,61.217,62.354z
			"/>
	</g>
	<g>
		<path fill="#FFFFFF" stroke="#FFFFFF" stroke-width="0.5" stroke-miterlimit="10" d="M64.982,58.244
			c-0.186-0.201-0.361-0.411-0.545-0.617h-0.272c0,2.071-1.444,3.756-3.22,3.756v0.836c0.136,0.068,0.271,0.137,0.406,0.203
			c1.553-0.165,2.865-1.255,3.489-2.781c0.089-0.285,0.138-0.607,0.166-0.936C65.001,58.552,65.001,58.396,64.982,58.244z"/>
	</g>
	<g>
		<path fill="#FFFFFF" stroke="#FFFFFF" stroke-width="0.5" stroke-miterlimit="10" d="M44.6,36.837
			c-0.048-0.039-0.09-0.085-0.127-0.136c0,0-0.002-0.001-0.003-0.001h-0.696c0,5.268-4.003,9.555-8.957,9.649
			c0.388,0.227,0.788,0.455,1.154,0.715c0.124,0.066,0.247,0.137,0.372,0.199c4.697-0.83,8.309-5.043,8.484-10.176
			C44.743,37.014,44.672,36.924,44.6,36.837z"/>
	</g>
</g>
</svg>
