<?xml version="1.0" encoding="utf-8"?>
<!-- Generator: Adobe Illustrator 16.0.0, SVG Export Plug-In . SVG Version: 6.00 Build 0)  -->
<!DOCTYPE svg PUBLIC "-//W3C//DTD SVG 1.1//EN" "http://www.w3.org/Graphics/SVG/1.1/DTD/svg11.dtd">
<svg version="1.1" id="Calque_1" xmlns="http://www.w3.org/2000/svg" xmlns:xlink="http://www.w3.org/1999/xlink" x="0px" y="0px"
	 width="90px" height="90px" viewBox="0 0 90 90" enable-background="new 0 0 90 90" xml:space="preserve">
<circle opacity="0.2" fill="#FFFFFF" cx="45" cy="45.089" r="43.615"/>
<g id="Calque_2">
</g>
<g>
	<path fill="#FFFFFF" d="M61.679,28.339c-2.21-2.21-4.59-4.31-7.202-6.038c-1.359-0.898-4.514-3.083-6.091-1.503c0,0,0,0,0,0l0,0h0
		l-1.889,1.89c-0.001,0.001-0.003,0.001-0.004,0.003l-6.127,6.129c-0.789,0.789-0.064,2.08,0.628,2.642L21.095,51.356
		c-1.347,1.349-0.768,3.557-0.128,5.095c1.032,2.49,2.732,4.72,4.564,6.674c1.976,2.106,4.262,4.027,6.831,5.369
		c1.739,0.908,4.633,2.099,6.302,0.428l19.895-19.895c0.562,0.693,1.853,1.415,2.641,0.627l5.569-5.568
		c0-0.001,0.001-0.001,0.002-0.002l2.451-2.449c0,0,0-0.001,0.001-0.001l0,0l0,0C71.492,39.36,65.548,32.208,61.679,28.339
		C57.671,24.33,65.548,32.208,61.679,28.339z M45.603,26.031c0.054,0.202,0.12,0.411,0.194,0.625l-2.791,2.792
		c-0.125-0.154-0.257-0.284-0.411-0.409L45.603,26.031z M37.437,67.698c-0.555,0.556-1.674,0.274-2.331,0.078
		c-0.976-0.291-1.897-0.763-2.768-1.285c-2.242-1.342-4.243-3.101-5.99-5.034c-1.505-1.664-2.904-3.528-3.775-5.61
		c-0.336-0.806-1.026-2.491-0.252-3.265l24.217-24.218c0.564,1.109,1.322,2.306,2.201,3.52l-3.477,3.477
		c-1.342-0.187-2.18,1.487-1.221,2.446c0.96,0.96,2.634,0.122,2.447-1.221l3.309-3.31c2.043,2.571,4.372,4.904,6.944,6.946
		l-3.308,3.308c-1.343-0.186-2.182,1.487-1.222,2.447c0.959,0.959,2.634,0.122,2.447-1.221l3.476-3.477
		c1.231,0.89,2.429,1.642,3.523,2.198L37.437,67.698z M60.981,47.422c-0.125-0.152-0.255-0.283-0.409-0.409l2.793-2.792
		c0.213,0.075,0.421,0.142,0.621,0.196L60.981,47.422z M66.107,42.298c-0.001,0.001-0.004,0.002-0.005,0.003l-0.548,0.549
		c-0.357,0.198-1.054-0.071-1.402-0.182c-0.466-0.152-0.917-0.348-1.358-0.562c-1.197-0.582-2.328-1.303-3.413-2.071l0.593-0.594
		c0.791-0.79-0.436-2.016-1.226-1.225l-0.771,0.77c-2.583-2.021-4.926-4.357-6.953-6.937l0.778-0.778
		c0.791-0.791-0.435-2.017-1.224-1.226l-0.6,0.6c-0.766-1.082-1.478-2.211-2.061-3.404c-0.291-0.594-1.146-2.117-0.757-2.767
		l0.966-0.967c0.732,2.26,2.301,4.282,3.772,6.109c0.004,0.004,0.007,0.01,0.01,0.013c2.087,2.594,4.426,4.995,6.935,7.181
		c1.231,1.073,2.509,2.097,3.855,3.023c1.178,0.81,2.441,1.613,3.81,2.061L66.107,42.298z M68.016,40.392
		c-1.424,0-2.795-0.95-3.944-1.709c-2.324-1.539-4.446-3.394-6.436-5.34c-2.206-2.157-4.292-4.479-6.04-7.027
		c-0.607-0.885-1.188-1.804-1.631-2.783c-0.167-0.37-0.545-1.075-0.355-1.499c0.489-0.18,1.31,0.256,1.73,0.451
		c0.969,0.45,1.878,1.031,2.753,1.641c2.659,1.852,5.071,4.069,7.307,6.406c1.948,2.037,3.804,4.215,5.294,6.615
		c0.417,0.673,0.817,1.368,1.111,2.105C67.924,39.547,68.168,40.068,68.016,40.392C68.016,40.392,68.365,39.648,68.016,40.392z"/>
</g>
</svg>
