<?xml version="1.0" encoding="utf-8"?>
<!-- Generator: Adobe Illustrator 16.0.0, SVG Export Plug-In . SVG Version: 6.00 Build 0)  -->
<!DOCTYPE svg PUBLIC "-//W3C//DTD SVG 1.1//EN" "http://www.w3.org/Graphics/SVG/1.1/DTD/svg11.dtd">
<svg version="1.1" id="Calque_1" xmlns="http://www.w3.org/2000/svg" xmlns:xlink="http://www.w3.org/1999/xlink" x="0px" y="0px"
	 width="90px" height="90px" viewBox="0 0 90 90" enable-background="new 0 0 90 90" xml:space="preserve">
<circle opacity="0.2" fill="#FFFFFF" cx="45" cy="45" r="43.615"/>
<g id="Calque_2">
</g>
<path fill="#FFFFFF" d="M49.78,24.327c-2.604-2.266-6.472-2.283-9.094-0.041L17.697,43.79c-0.538,0.35-0.692,1.071-0.342,1.61
	c0.352,0.539,1.073,0.692,1.611,0.341c0.089-0.058,0.171-0.126,0.239-0.206l5.357-4.545l2.522,19.333
	c0.479,3.78,3.695,6.616,7.508,6.618h20.854c3.801,0,7.014-2.817,7.508-6.583l2.539-19.387l5.316,4.586
	c0.439,0.472,1.176,0.501,1.647,0.065c0.472-0.437,0.502-1.173,0.064-1.645c-0.057-0.062-0.122-0.118-0.19-0.166L49.78,24.327z
	 M49.127,64.613h-8.196v-8.066c0-2.267,1.839-4.104,4.106-4.104c2.267,0,4.106,1.837,4.106,4.104L49.127,64.613z M60.647,60.056
	c-0.341,2.606-2.565,4.556-5.195,4.557h-3.995v-8.066c0-3.552-2.882-6.431-6.437-6.431c-3.554,0-6.437,2.879-6.437,6.431v8.066
	h-3.99c-2.632-0.001-4.856-1.954-5.194-4.563l-2.721-20.83l15.518-13.159c1.743-1.494,4.317-1.494,6.062,0l15.144,13.055
	L60.647,60.056z"/>
<path fill="#FFFFFF" d="M38.784,38.86c-0.002,3.429,2.777,6.212,6.209,6.215c3.433,0.003,6.219-2.774,6.223-6.205
	c0.001-3.429-2.777-6.212-6.209-6.214c-0.007,0-0.014,0-0.019,0C41.564,32.665,38.791,35.438,38.784,38.86z M48.878,38.86
	c0.005,2.143-1.733,3.883-3.878,3.887c-2.145,0.002-3.889-1.732-3.89-3.877c-0.005-2.144,1.731-3.884,3.878-3.888
	C47.134,34.98,48.875,36.716,48.878,38.86L48.878,38.86z"/>
</svg>
