<?xml version="1.0" encoding="utf-8"?>
<!-- Generator: Adobe Illustrator 16.0.0, SVG Export Plug-In . SVG Version: 6.00 Build 0)  -->
<!DOCTYPE svg PUBLIC "-//W3C//DTD SVG 1.1//EN" "http://www.w3.org/Graphics/SVG/1.1/DTD/svg11.dtd">
<svg version="1.1" id="Calque_1" xmlns="http://www.w3.org/2000/svg" xmlns:xlink="http://www.w3.org/1999/xlink" x="0px" y="0px"
	 width="90px" height="90px" viewBox="0 0 90 90" enable-background="new 0 0 90 90" xml:space="preserve">
<g id="Calque_2">
</g>
<circle opacity="0.2" fill="#FFFFFF" cx="45.048" cy="45" r="43.615"/>
<path fill="#FFFFFF" d="M67.971,35.585l-0.251-0.102c-0.2-0.08-0.412-0.12-0.623-0.12s-0.422,0.04-0.622,0.12l-0.251,0.102
	c-0.219,0.088-0.414,0.219-0.575,0.383c-0.003,0-0.006,0-0.01,0c-0.226,0-0.45,0.046-0.659,0.136l-0.036,0.015h-0.059
	c-0.331,0-0.654,0.098-0.928,0.282l-0.045,0.03l-0.015-0.001c-0.031-0.003-0.062-0.005-0.092-0.007
	c-0.047-0.078-0.101-0.151-0.161-0.222l-0.302-0.353c-0.1-0.117-0.215-0.218-0.342-0.304l-0.047-0.031l-0.073-0.104
	c-0.054-0.075-0.113-0.146-0.178-0.21l-0.151-0.152c-0.028-0.028-0.057-0.055-0.086-0.081l-0.754-0.655
	c-0.141-0.122-0.301-0.22-0.474-0.291l-0.09-0.036l-0.006-0.004c-0.064-0.042-0.129-0.08-0.199-0.114l-0.104-0.226
	c-0.032-0.076-0.116-0.279-0.164-0.407c-0.105-0.402-0.354-0.723-0.65-1.105c-0.15-0.193-0.339-0.35-0.553-0.46l-0.067-0.5
	c-0.021-0.158-0.064-0.312-0.129-0.458l-0.182-0.411c-0.068-0.4-0.281-0.765-0.602-1.022l-0.295-0.236
	c-0.055-0.396-0.25-0.767-0.566-1.038l-0.13-0.112c-0.051-0.092-0.105-0.19-0.145-0.266c-0.062-0.162-0.151-0.32-0.268-0.497
	c0.046-0.155,0.07-0.316,0.07-0.479v-0.059l0.107-0.47c0.028-0.123,0.042-0.25,0.042-0.375v-0.304c0-0.297-0.08-0.589-0.229-0.845
	l-0.503-0.857c-0.299-0.512-0.848-0.826-1.441-0.826h-0.352c-0.04,0-0.08,0.002-0.12,0.004l-0.338,0.024l-0.06-0.022
	c-0.035-0.013-0.071-0.025-0.107-0.036l-0.502-0.151c-0.157-0.047-0.32-0.071-0.481-0.071c-0.225,0-0.45,0.045-0.661,0.136
	l-0.352,0.151c-0.059,0.025-0.115,0.053-0.172,0.085l-0.138,0.079l-0.657-0.155c-0.043-0.01-0.086-0.019-0.128-0.025l-0.647-0.1
	c-0.269-0.176-0.586-0.272-0.915-0.272h-0.018c-0.138-0.118-0.295-0.214-0.467-0.283c-0.594-0.239-0.833-0.323-1.175-0.323
	c-0.229,0-0.342,0.02-1.236,0.259c-0.285,0.076-0.545,0.226-0.752,0.435l-0.452,0.455c-0.033,0.032-0.063,0.066-0.092,0.1
	c-0.006-0.002-0.014-0.005-0.021-0.006c-0.178-0.285-0.439-0.515-0.758-0.651l-0.704-0.303c-0.169-0.073-0.349-0.117-0.532-0.13
	c-0.06-0.006-0.115-0.01-0.167-0.013v-0.236c0-0.103-0.009-0.205-0.028-0.306l0.003-0.007c0.334-0.67,0.182-1.481-0.373-1.985
	c-0.316-0.287-0.719-0.434-1.124-0.434c-0.101,0-0.201,0.009-0.302,0.027c-0.044-0.009-0.089-0.014-0.135-0.019l-0.502-0.05
	c-0.056-0.005-0.111-0.008-0.167-0.008c-0.215,0-0.427,0.042-0.625,0.122c-0.157-0.048-0.319-0.071-0.481-0.071
	c-0.102,0-0.202,0.009-0.302,0.027c-0.101-0.018-0.201-0.027-0.302-0.027c-0.226,0-0.45,0.046-0.66,0.135
	c-0.11-0.022-0.224-0.035-0.347-0.035c-0.056,0-0.099,0-1.003,0.053l-1.248,0.104c-0.248,0.021-0.489,0.098-0.705,0.224
	l-0.282,0.165l-0.182,0.017c-0.279,0.025-0.545,0.12-0.778,0.275l-0.025,0.017l-0.326-0.065c-0.001,0-0.004,0-0.006,0
	c-0.318-0.316-0.745-0.485-1.178-0.485c-0.254,0-0.51,0.058-0.749,0.177L31,19.864c-0.284,0.143-0.522,0.363-0.686,0.637
	l-0.219,0.365l-0.081,0.089l-0.788,0.309c-0.25,0.098-0.472,0.255-0.649,0.458l-0.352,0.403c-0.147,0.17-0.26,0.367-0.329,0.579
	c-0.146,0.162-0.26,0.349-0.334,0.555l-0.201,0.554c-0.037,0.102-0.064,0.206-0.081,0.311c-0.101,0.046-0.198,0.103-0.289,0.168
	l-0.225,0.165l-0.252,0.039c-0.3,0.046-0.583,0.174-0.816,0.369l-0.302,0.252c-0.172,0.144-0.313,0.32-0.416,0.52
	c-0.072,0.044-0.141,0.095-0.206,0.151l-0.352,0.303c-0.169,0.146-0.307,0.322-0.406,0.522l-0.281,0.563l-0.052,0.09l-0.517,0.482
	c-0.135,0.125-0.247,0.271-0.334,0.433l-0.258,0.483l-0.273,0.307c-0.236,0.267-0.382,0.603-0.414,0.958l-0.051,0.554
	c-0.023,0.258,0.014,0.516,0.106,0.756c-0.168,0.434-0.15,0.925,0.063,1.351l0.002,0.005v0.002l-0.242,0.405
	c-0.104,0.172-0.175,0.363-0.21,0.561l-0.03,0.167l-0.217,0.289c-0.345,0.46-0.428,1.064-0.222,1.601l0.099,0.259
	c-0.059,0.464-0.059,0.512-0.059,0.604c0,0.223,0.035,0.408,0.164,0.862c0.105,0.369,0.334,0.69,0.648,0.91l0.156,0.11l0.062,0.125
	c0.108,0.216,0.262,0.407,0.45,0.559l0.049,0.039l0.158,0.237c0.029,0.044,0.061,0.086,0.093,0.128l0.281,0.347
	c0.007,0.296,0.092,0.583,0.247,0.836l0.402,0.655c0.152,0.249,0.368,0.453,0.624,0.591l0.342,0.187l0.533,0.535
	c0.044,0.043,0.089,0.085,0.138,0.124l0.754,0.604c0.055,0.044,0.113,0.085,0.173,0.121l0.906,0.555
	c0.108,0.065,0.223,0.121,0.344,0.161l0.302,0.1c0.172,0.059,0.351,0.088,0.53,0.088c0.2,0,0.399-0.038,0.589-0.108l0.995-0.374
	l0.569-0.052l0.284,0.08l0.44,0.201c0.22,0.101,0.456,0.149,0.693,0.149c0.239,0,0.479-0.052,0.702-0.153l0.569-0.265l1.119-0.373
	c0.154-0.052,0.3-0.125,0.432-0.218l0.562-0.058l0.063-0.006l0.043,0.132c0.176,0.53,0.606,0.938,1.145,1.084l0.554,0.151
	c0.144,0.04,0.292,0.06,0.44,0.06c0.092,0,0.184-0.008,0.276-0.021l0.247-0.042c-0.007,0.077-0.016,0.158-0.024,0.242l-0.067,0.543
	c-0.456,0.453-0.616,1.132-0.397,1.748l0.251,0.705c0.083,0.232,0.217,0.445,0.392,0.619l0.701,0.703l0.63,0.756l0.192,0.316
	l0.041,0.178c0.017,0.078,0.039,0.152,0.065,0.225l0.151,0.402c0.045,0.121,0.103,0.234,0.174,0.342l0.178,0.268l0.049,0.148
	c-0.075,0.287-0.073,0.592,0.011,0.881l0.201,0.705c0.023,0.08,0.051,0.156,0.085,0.232c0.001,0,0.007,0.016,0.016,0.035
	c-0.204,0.25-0.396,0.559-0.616,0.912c-0.119,0.189-0.198,0.4-0.233,0.623l-0.11,0.703L39.81,56
	c-0.125,0.248-0.185,0.525-0.174,0.803l0.05,1.461c0.011,0.326,0.117,0.641,0.304,0.906l0.543,0.771l0.756,1.422
	c0.008,0.012,0.015,0.027,0.023,0.041l0.184,0.32v0.365c0,0.109,0.011,0.219,0.032,0.326l0.101,0.504l0.198,1.045
	c0.015,0.08,0.037,0.16,0.064,0.238l0.352,1.008c0.07,0.201,0.179,0.389,0.318,0.549l0.562,0.643
	c0.126,0.256,0.255,0.523,0.316,0.654c0.058,0.172,0.149,0.348,0.279,0.566c-0.103,0.408-0.059,0.852,0.147,1.225l0.251,0.455
	c0.083,0.148,0.188,0.285,0.312,0.402c0.096,0.146,0.216,0.281,0.356,0.393l0.251,0.201l0.276,0.23
	c0.299,0.254,0.68,0.389,1.068,0.389c0.135,0,0.271-0.016,0.406-0.049l0.202-0.051c0.146-0.037,0.284-0.092,0.415-0.164l0.419-0.047
	c0.176-0.02,0.349-0.068,0.51-0.143h0.009c0.08,0,0.159-0.006,0.236-0.016l0.083-0.012l0.285,0.051
	c0.099,0.018,0.199,0.025,0.3,0.025h0.202c0.281,0,0.557-0.07,0.802-0.205c0.034,0.004,0.068,0.006,0.103,0.006
	c0.242,0,0.481-0.055,0.702-0.154l0.654-0.303c0.101-0.047,0.198-0.104,0.289-0.172l0.754-0.555
	c0.034-0.023,0.067-0.051,0.099-0.078l0.704-0.604l0.534-0.482c0.08-0.072,0.153-0.15,0.219-0.24l0.453-0.604
	c0.031-0.041,0.061-0.086,0.088-0.131c0.112-0.068,0.216-0.152,0.309-0.244l0.302-0.303c0.15-0.15,0.27-0.33,0.354-0.523
	l0.302-0.707l0.217-0.539c0.03-0.078,0.055-0.156,0.074-0.234l0.209-0.078c0.108-0.039,0.211-0.09,0.309-0.152l0.402-0.252
	c0.29-0.18,0.516-0.445,0.65-0.758l0.151-0.354c0.093-0.219,0.138-0.455,0.134-0.689l0.015-0.045c0.107-0.324,0.114-0.674,0.017-1
	l-0.037-0.547c-0.008-0.119-0.029-0.238-0.063-0.355l0.724-0.668l0.319-0.24l0.497-0.164c0.15-0.051,0.293-0.123,0.423-0.213
	l0.618-0.428L60.8,59.09c0.002,0.033,0.005,0.062,0.007,0.096c-0.198,0.232-0.394,0.518-0.62,0.848
	c-0.211,0.311-0.313,0.678-0.29,1.051l0.05,0.807c0.006,0.092,0.019,0.182,0.04,0.271c-0.029,0.127-0.042,0.248-0.042,0.381
	c0,0.443,0.149,0.744,0.477,1.402c0.154,0.309,0.399,0.561,0.702,0.723l0.654,0.354c0.249,0.135,0.521,0.201,0.795,0.201
	c0.292,0,0.583-0.076,0.844-0.229l0.378-0.221l0.198-0.045c0.361-0.08,0.685-0.279,0.922-0.562l0.251-0.303
	c0.091-0.111,0.169-0.232,0.229-0.363c1.562-3.34,1.915-4.096,1.995-4.463c-0.016,0.09-0.033,0.148-0.039,0.166
	c0.047-0.148,0.202-0.549,0.202-0.549c0.065-0.166,0.1-0.336,0.109-0.512c0.031-0.031,0.061-0.068,0.089-0.104l0.402-0.504
	c0.33-0.414,0.444-0.961,0.309-1.475c0-0.002-0.118-0.438-0.163-0.633c-0.02-0.158-0.062-0.441-0.153-1.012
	c-0.023-0.148-0.066-0.293-0.128-0.43c-0.278-0.613-0.697-1.537-1.825-1.537c-0.913,0-1.383,0.662-1.664,1.057
	c-0.109,0.152-0.192,0.322-0.244,0.502l-0.17,0.143c-0.227,0.189-0.399,0.436-0.5,0.713c0,0.002-0.001,0.006-0.005,0.014
	c-0.028,0.016-0.053,0.029-0.076,0.041l-1.355,0.516c-0.006,0.002-0.014,0.006-0.021,0.008l-0.035-0.123l-0.037-0.916l0.082-0.613
	l0.052-0.416c0.049-0.396-0.045-0.801-0.267-1.135l-0.202-0.301c-0.049-0.076-0.104-0.145-0.166-0.211
	c0.031-0.135,0.045-0.271,0.042-0.408c0.025-0.07,0.046-0.141,0.062-0.213c0.1-0.457,0.005-0.932-0.26-1.314l0.131-0.18
	c0.077-0.107,0.141-0.221,0.191-0.34l0.201-0.484c0.091-0.08,0.174-0.168,0.247-0.266l0.106-0.141
	c0.213-0.135,0.394-0.318,0.528-0.531l0.251-0.402c0.045-0.072,0.084-0.146,0.118-0.225l0.472-0.508l0.833-0.834l0.417-0.244
	c0.104-0.06,0.203-0.133,0.292-0.217l0.654-0.604c0.083-0.078,0.159-0.164,0.226-0.257l0.754-1.059
	c0.021-0.029,0.042-0.061,0.061-0.092l0.654-1.059c0.099-0.159,0.169-0.333,0.21-0.516l0.051-0.232l0.295-0.554
	c0.072-0.135,0.125-0.279,0.157-0.426c0.047-0.078,0.086-0.159,0.121-0.245l0.202-0.503l0.135-0.315
	c0.089-0.208,0.135-0.432,0.135-0.658v-0.062c0.124-0.272,0.174-0.574,0.14-0.879l-0.045-0.4
	C69.179,36.748,68.754,35.899,67.971,35.585z M62.169,60.174c0.05,0,0.352-0.555,0.402-0.605c0.05-0.051-0.101-0.555-0.101-0.555
	l-0.05-1.107l0.202-0.303l0.15-0.605l1.458-0.555c0,0,0.653-0.354,0.704-0.404c0.05-0.049,0.252-0.604,0.252-0.604l0.302-0.252
	c0,0,0.302-0.152,0.352-0.201c0.05-0.051,0.05-0.504,0.05-0.504s0.252-0.354,0.302-0.354c0.05,0,0.302,0.555,0.302,0.555
	s0.15,0.957,0.15,1.008c0,0.049,0.202,0.807,0.202,0.807l-0.402,0.504v-0.252l-0.202-0.252c0,0,0,0.607,0,0.656
	s-0.252,0.555-0.252,0.555v0.352c0,0-0.251,0.658-0.251,0.705c0,0.051-1.86,4.033-1.86,4.033l-0.252,0.303l-0.452,0.102
	l-0.604,0.352l-0.654-0.352c0,0-0.303-0.604-0.303-0.654c0-0.053,0.151-0.404,0.151-0.404l-0.151-0.352l-0.049-0.809
	C61.566,60.979,62.119,60.174,62.169,60.174z M67.298,37.692l0.05,0.454l-0.151,0.151v0.605l-0.15,0.353l-0.202,0.503l-0.201,0.251
	v0.253l-0.402,0.756l-0.101,0.454l-0.654,1.058l-0.754,1.06l-0.654,0.604l-0.604,0.353l-1.006,1.009l-0.704,0.754l-0.101,0.252
	l-0.251,0.404l-0.251,0.15l-0.302,0.404l-0.302,0.1l-0.101,0.404l-0.251,0.605l-0.402,0.553l-0.202,0.605l-0.1,0.354l0.15,0.1
	l0.402,0.504l-0.201,0.102L59.804,51l0.15,0.352l-0.15,0.252l0.05,0.354l0.201,0.604v0.152l0.302,0.152l0.202,0.303l-0.05,0.402
	l-0.1,0.756l0.05,1.26l0.101,0.354l-0.202,0.555l-0.302,0.354l-0.201,0.25l-0.654,0.453l-0.754,0.252l-0.604,0.455l-1.258,1.16
	l-0.251,0.1l-0.051,0.303l0.202,0.354v0.303l0.1,0.201l0.05,0.756l0.051,0.152l-0.15,0.453l0.049,0.15l-0.15,0.354l-0.402,0.252
	l-0.956,0.354l-0.302,0.15l-0.15,0.252l0.15,0.201v0.303l-0.201,0.504l-0.302,0.705l-0.302,0.303l-0.352,0.201l-0.202,0.354
	l-0.452,0.605l-0.502,0.455l-0.704,0.605l-0.754,0.553l-0.654,0.303l-0.352-0.051l-0.402,0.152l-0.15,0.102h-0.202l-0.552-0.102
	l-0.352,0.051h-0.4l-0.302,0.15l-0.452,0.051h-0.301l-0.303,0.201l-0.2,0.049l-0.302-0.25l-0.251-0.203l-0.051-0.201l-0.201-0.102
	l-0.252-0.453c0,0,0.151-0.201,0.151-0.252s0-0.504,0-0.504s-0.453-0.707-0.453-0.756s-0.502-1.059-0.502-1.059l-0.704-0.807
	l-0.353-1.01l-0.201-1.057l-0.101-0.504v-0.807l-0.402-0.707l-0.804-1.512l-0.604-0.857l-0.05-1.461l0.201-0.404l0.151-0.957
	c0,0,0.502-0.807,0.553-0.807c0.05,0,0.251-0.252,0.251-0.303s0.151-0.756,0.151-0.807s-0.251-0.605-0.251-0.605l-0.202-0.705
	l0.151-0.402l-0.302-0.908l-0.302-0.453l-0.15-0.404l-0.1-0.453l-0.402-0.654l-0.754-0.908l-0.754-0.756l-0.252-0.705l0.252-0.203
	l0.202-0.553l0.101-0.807c0,0,0.1-1.009,0.15-1.059c0.051-0.051-0.251-0.504-0.251-0.504l-0.252-0.151l-0.251-0.354l-0.251-0.101
	l-0.704,0.051l-0.604,0.101l-0.553-0.151l-0.202-0.605l-0.754-0.755l-0.905,0.101l-1.006,0.101l-0.352,0.252l-1.207,0.403
	l-0.654,0.302l-0.553-0.251l-0.704-0.201l-1.106,0.102l-1.207,0.454l-0.302-0.101l-0.906-0.556l-0.754-0.604l-0.704-0.705
	l-0.553-0.304l-0.402-0.655v-0.554l-0.654-0.807L23.9,37.944l-0.251-0.202l-0.252-0.504l-0.502-0.353c0,0-0.1-0.353-0.1-0.403
	c0-0.05,0.1-0.807,0.1-0.807l-0.251-0.656l0.452-0.605l0.101-0.554l0.452-0.756l0.05-0.857l-0.202-0.403l0.202-0.303v-0.504
	l-0.202-0.403l0.05-0.554l0.402-0.454l0.352-0.656l0.704-0.655l0.202-0.353l0.302-0.606l0.352-0.302l0.352-0.151l0.251-0.504
	l0.302-0.252l0.654-0.101l0.554-0.402l0.302-0.101l0.452-0.454l0.252-0.454l-0.05-0.251l0.201-0.555l0.302-0.302l0.05-0.302
	l0.352-0.403l1.156-0.454l0.453-0.504l0.302-0.504l0.302-0.151c0,0,0.302,0.353,0.352,0.402c0.05,0.05,0.502,0.05,0.502,0.05
	l1.006,0.202l0.603-0.402l0.554-0.051l0.604-0.353l1.206-0.102c0,0,0.854-0.05,0.905-0.05s0.453,0.202,0.453,0.202l0.553-0.303
	l0.302,0.101l0.302-0.101l0.654,0.202l0.455-0.25L41,20.805l0.201,0.251l0.402-0.251l-0.202,0.403l-0.352,0.251l0.402,0.403
	c0,0,0,0.303,0,0.353c0,0.051-0.352,0.454-0.352,0.454l-0.403-0.05l-0.05,0.302L41,23.123l0.604,0.353c0,0,0.805,0.252,0.854,0.252
	c0.05,0,0.704,0.05,0.704,0.05l0.704,0.302l0.05,0.353c0,0,0.202,0.252,0.251,0.252c0.05,0,0.604,0.101,0.604,0.101l0.653,0.252
	l0.554,0.353l0.402-0.05l0.352-0.353l-0.15-0.353v-0.352l0.452-0.454c0,0,0.754-0.201,0.804-0.201s0.553,0.201,0.553,0.201
	l0.1,0.251l0.302,0.051l0.201,0.101h0.502l0.252,0.302l0.402-0.05l0.654,0.102l0.855,0.202l0.452,0.101l0.704-0.403l0.353-0.152
	l0.502,0.152l0.402,0.151l0.704-0.05h0.352l0.502,0.857v0.303l-0.15,0.655v0.252l-0.101,0.202L54.777,26.4l-0.05-0.302l-0.302-0.303
	l-0.101-0.353l-0.15,0.202l0.15,0.201c0,0,0.101,0.302,0.101,0.353c0,0.05,0.553,0.554,0.553,0.554v0.202l0.302,0.454l0.05,0.151
	c0,0,0.453,0.605,0.453,0.656c0,0.05,0.402,0.755,0.402,0.755l0.352,0.303l-0.05,0.151l0.05,0.353l0.202,0.303l0.201,0.101
	l0.502,0.403v0.202l0.101,0.15l0.201,0.455l0.101,0.756l0.15,0.655l0.202,0.05l0.302,0.252l0.202,0.049c0,0,0.352,0.455,0.352,0.504
	c0,0.051,0.252,0.656,0.252,0.656l0.302,0.655l0.352,0.303l0.251,0.101l0.15,0.102l0.252,0.101l0.754,0.655l0.151,0.152l0.251,0.353
	l0.302,0.201l0.302,0.353l-0.553,0.353l0.05,0.101l0.251-0.049l0.302,0.251l0.553,0.454c0,0,0.402-0.05,0.453-0.05
	s0.302-0.252,0.302-0.252l0.502,0.051l0.202-0.051l0.452-0.303h0.402l0.352-0.151l0.302,0.051l0.453-0.202l0.352-0.101l0.101-0.252
	l0.251-0.101l0.252,0.101l-0.1,0.353L67.298,37.692z"/>
</svg>
