<?xml version="1.0" encoding="utf-8"?>
<!-- Generator: Adobe Illustrator 16.0.0, SVG Export Plug-In . SVG Version: 6.00 Build 0)  -->
<!DOCTYPE svg PUBLIC "-//W3C//DTD SVG 1.1//EN" "http://www.w3.org/Graphics/SVG/1.1/DTD/svg11.dtd">
<svg version="1.1" id="Calque_1" xmlns="http://www.w3.org/2000/svg" xmlns:xlink="http://www.w3.org/1999/xlink" x="0px" y="0px"
	 width="90px" height="90px" viewBox="0 0 90 90" enable-background="new 0 0 90 90" xml:space="preserve">
<circle opacity="0.2" fill="#FFFFFF" enable-background="new    " cx="45" cy="45" r="43.615"/>
<g id="Calque_2">
</g>
<g>
	<g>
		<path fill="#FFFFFF" d="M68.66,40.298c-0.367-0.668-0.715-1.298-0.842-1.913c-0.1-0.488-0.029-1.126,0.051-1.803
			c0.117-1.023,0.25-2.18-0.162-3.308c-0.414-1.126-1.277-1.938-2.039-2.654c-0.496-0.465-0.961-0.904-1.191-1.322
			c-0.299-0.548-0.438-1.225-0.58-1.944c-0.201-0.993-0.408-2.019-1.094-2.841c-0.9-1.084-2.162-1.555-3.27-1.969
			c-0.553-0.205-1.074-0.4-1.42-0.628c-0.514-0.343-1.023-0.851-1.516-1.342c-0.98-0.982-2.004-1.946-3.35-1.966
			c-0.488,0.014-0.91,0.346-1.035,0.817c-2.881,10.767-10.83,16.514-17.216,21.135c-4.572,3.307-8.275,6.005-9.047,9.634
			c-0.405-0.246-0.893-0.441-1.461-0.588c-0.343-0.766-1.106-1.307-2.001-1.307c-1.214,0-2.199,0.986-2.199,2.201
			c0,1.213,0.985,2.199,2.199,2.199c0.732,0,1.348-0.381,1.748-0.932c1.725,0.553,1.808,1.992,1.586,5.117
			c-0.181,2.549-0.364,5.66,2.164,7.395v3.814c0,0.605,0.493,1.1,1.1,1.1h1.1v1.1c0,0.605,0.493,1.1,1.1,1.1s1.1-0.494,1.1-1.1v-1.1
			h19.793v1.1c0,0.605,0.492,1.1,1.1,1.1s1.1-0.494,1.1-1.1v-1.1h1.1c0.607,0,1.1-0.494,1.1-1.1v-6.6c0-0.605-0.492-1.098-1.1-1.098
			H43.38v-2.201h5.499c0.607,0,1.1-0.492,1.1-1.1c0-0.605-0.492-1.1-1.1-1.1H35.683c-0.606,0-1.1,0.494-1.1,1.1
			c0,0.607,0.493,1.1,1.1,1.1h5.498v2.201H29.085c-0.405,0-0.745,0.227-0.935,0.555c-0.288-0.982-0.248-2.27-0.135-3.91
			c0.027-0.381,0.056-0.779,0.073-1.188c0.901,0.48,1.95,0.674,3.03,0.674c1.303,0,2.633-0.26,3.759-0.568
			c0.026-0.006,0.046-0.025,0.072-0.037c1.034-0.18,1.832-1.039,1.832-2.123c0-1.215-0.985-2.199-2.199-2.199
			s-2.199,0.984-2.199,2.199c0,0.148,0.058,0.279,0.085,0.418c-1.625,0.227-2.938,0.066-3.652-0.48
			c-0.557-0.422-0.826-1.121-0.826-2.137c0-1.555,0.84-2.973,2.221-4.395c1.363,0.045,3.032-0.02,4.966-0.1
			c7.983-0.332,20.055-0.832,28.375,6.424c0.293,0.256,0.693,0.336,1.062,0.219c1.713-0.555,2.301-2.637,2.822-4.475
			c0.105-0.375,0.211-0.75,0.324-1.098c0.115-0.365,0.383-0.811,0.666-1.283c0.58-0.979,1.307-2.193,1.283-3.658
			C69.689,42.167,69.166,41.215,68.66,40.298z M30.185,62.594h24.192v4.398H30.185V62.594z M66.537,45.764
			c-0.334,0.557-0.676,1.135-0.869,1.736c-0.119,0.371-0.234,0.77-0.348,1.172c-0.242,0.854-0.578,2.043-0.992,2.633
			c-6.891-5.586-15.715-6.564-23.123-6.564c-2.195,0-4.267,0.087-6.123,0.166c-0.842,0.034-1.633,0.067-2.366,0.09
			c1.08-0.852,2.29-1.727,3.574-2.655c6.438-4.657,14.399-10.413,17.715-21.18c0.338,0.266,0.713,0.64,1.041,0.97
			c0.541,0.538,1.154,1.152,1.855,1.616c0.557,0.37,1.221,0.618,1.865,0.858c0.895,0.334,1.822,0.677,2.35,1.312
			c0.328,0.394,0.471,1.111,0.625,1.872c0.162,0.809,0.35,1.726,0.809,2.566c0.398,0.722,1.016,1.304,1.613,1.865
			c0.643,0.603,1.246,1.172,1.482,1.812c0.232,0.636,0.141,1.44,0.041,2.293c-0.094,0.82-0.195,1.67-0.02,2.506
			c0.195,0.937,0.656,1.781,1.068,2.523c0.393,0.715,0.764,1.391,0.775,1.914C67.527,44.108,67.025,44.951,66.537,45.764z
			 M55.857,25.7c-0.553-0.259-1.205-0.026-1.465,0.524c-1.379,2.912-3.152,5.582-5.42,8.152c-0.402,0.455-0.357,1.15,0.098,1.553
			c0.211,0.185,0.469,0.274,0.729,0.274c0.305,0,0.607-0.125,0.824-0.371c2.408-2.731,4.291-5.566,5.758-8.67
			C56.639,26.613,56.406,25.958,55.857,25.7z"/>
	</g>
</g>
</svg>
