<?xml version="1.0" encoding="utf-8"?>
<!-- Generator: Adobe Illustrator 16.0.0, SVG Export Plug-In . SVG Version: 6.00 Build 0)  -->
<!DOCTYPE svg PUBLIC "-//W3C//DTD SVG 1.1//EN" "http://www.w3.org/Graphics/SVG/1.1/DTD/svg11.dtd">
<svg version="1.1" id="Calque_1" xmlns="http://www.w3.org/2000/svg" xmlns:xlink="http://www.w3.org/1999/xlink" x="0px" y="0px"
	 width="90px" height="90px" viewBox="0 0 90 90" enable-background="new 0 0 90 90" xml:space="preserve">
<g id="Calque_2">
</g>
<circle opacity="0.2" fill="#FFFFFF" cx="45.357" cy="45" r="43.615"/>
<g>
	<path fill="#FFFFFF" d="M64.954,40.728c-0.432-3.083-1.84-5.95-3.949-8.222c1.731-2.65,2.003-5.841,0.65-8.763
		c-1.678-3.57-5.301-5.787-9.521-5.787H37.368c-6.815,0-12.333,5.139-12.333,11.467v0.594c0,0.543,0.324,1.028,0.865,1.245
		l7.411,2.975c-0.271,0.378-0.596,0.757-0.811,1.19l-3.192,4.921c-1.352,2.11-2.056,4.543-2.056,7.032
		c0,3.517,2.921,6.384,6.491,6.384c3.786,0,7.301,2.162,8.979,5.461l6.057,12.062c0.217,0.487,0.705,0.757,1.19,0.757
		c0.109,0,0.217,0,0.325-0.055c0.595-0.162,1.026-0.702,1.026-1.297V56.251c0.595,0.162,1.245,0.216,1.895,0.216
		c2.65,0,5.192-1.352,6.544-3.677c1.785-3.193,0.65-7.14-2.595-9.034l-2.705-1.568c1.406-0.92,3.138-1.352,4.597-1.027l4.275,1.08
		c0.431,0.108,0.918,0,1.244-0.323C64.847,41.647,65.008,41.161,64.954,40.728z M37.368,20.661h14.82
		c3.138,0,5.789,1.622,7.031,4.273c0.866,1.892,0.758,4.003-0.269,5.787c-1.028-0.812-2.22-1.46-3.461-2.001
		c-2.273-0.975-4.762-1.46-7.575-1.46c-4.813,0-9.357,1.784-12.656,4.867L27.74,29.1C27.957,24.393,32.175,20.661,37.368,20.661z
		 M57.327,51.437c-1.081,1.947-3.625,2.813-5.896,2.001l-0.163-0.055v-5.462c0-1.298,0.38-2.651,1.137-3.732l3.299,1.946
		C57.706,47.217,58.409,49.545,57.327,51.437z M59.6,38.511L59.6,38.511c-2.868-0.596-6.329,0.594-8.546,2.975c0,0,0,0-0.055,0.054
		l0,0c-1.568,1.785-2.434,4.11-2.434,6.436v17.038l-3.462-6.924c-2.11-4.217-6.601-6.977-11.414-6.977
		c-2.056,0-3.785-1.624-3.785-3.679c0-2,0.54-3.894,1.622-5.569l3.138-4.923c2.704-4.273,7.789-6.924,13.144-6.924
		c2.488,0,4.543,0.378,6.491,1.245c3.679,1.405,6.382,4.327,7.519,7.789L59.6,38.511z"/>
	<circle fill="#FFFFFF" cx="50.837" cy="34.778" r="1.245"/>
</g>
</svg>
