<?xml version="1.0" encoding="utf-8"?>
<!-- Generator: Adobe Illustrator 16.0.0, SVG Export Plug-In . SVG Version: 6.00 Build 0)  -->
<!DOCTYPE svg PUBLIC "-//W3C//DTD SVG 1.1//EN" "http://www.w3.org/Graphics/SVG/1.1/DTD/svg11.dtd">
<svg version="1.1" id="Calque_1" xmlns="http://www.w3.org/2000/svg" xmlns:xlink="http://www.w3.org/1999/xlink" x="0px" y="0px"
	 width="90px" height="90px" viewBox="0 0 90 90" enable-background="new 0 0 90 90" xml:space="preserve">
<circle opacity="0.2" fill="#FFFFFF" cx="45" cy="45" r="43.615"/>
<g id="Calque_2">
</g>
<g>
	<g>
		<path fill="#FFFFFF" d="M51.836,43.135c-1.572-1.185-3.872-1.21-5.721-1.23l-0.855-0.013c-1.382-0.023-2.814-0.047-4.171,0.181
			c-2.885,0.487-4.979,2.837-4.977,5.588c0,0.004,0.002,0.009,0.002,0.015c0,0.005-0.002,0.01-0.002,0.015
			c0,2.212,0.806,4.236,2.135,5.804c-0.002,0.015-0.01,0.026-0.01,0.041v12.603c0,0.377,0.307,0.684,0.684,0.684
			c0.378,0,0.685-0.306,0.685-0.684V54.791c1.522,1.183,3.428,1.895,5.502,1.895c2.115,0,4.06-0.74,5.599-1.968v11.419
			c0,0.377,0.305,0.684,0.683,0.684s0.684-0.306,0.684-0.684V53.535c0-0.045-0.017-0.085-0.026-0.127
			c1.283-1.556,2.056-3.548,2.056-5.717c0-0.004-0.002-0.01-0.002-0.015c0-0.006,0.002-0.011,0.002-0.016
			C54.102,45.896,53.254,44.204,51.836,43.135z M45.839,55.282v-2.485c2.728-0.226,4.881-2.514,4.881-5.299
			c0-0.378-0.307-0.684-0.685-0.684c-0.376,0-0.684,0.306-0.684,0.684c0,2.18-1.773,3.954-3.955,3.954
			c-2.181,0-3.955-1.774-3.955-3.954c0-0.378-0.307-0.684-0.685-0.684c-0.376,0-0.682,0.306-0.682,0.684
			c0,2.618,1.902,4.795,4.397,5.235v2.554c-3.911-0.325-6.994-3.604-6.994-7.597c0-0.004-0.004-0.01-0.004-0.015
			c0-0.006,0.004-0.011,0.004-0.016c0-2.048,1.647-3.87,3.839-4.239c1.231-0.208,2.597-0.187,3.921-0.162l0.862,0.012
			c1.647,0.019,3.699,0.041,4.912,0.956c1.08,0.812,1.723,2.097,1.723,3.434c0,0.004,0.004,0.01,0.004,0.016
			c0,0.004-0.004,0.01-0.004,0.015C52.735,51.65,49.702,54.913,45.839,55.282z"/>
		<path fill="#FFFFFF" d="M32.916,50.221c-1.572-1.183-3.872-1.208-5.721-1.229l-0.855-0.012c-1.386-0.023-2.814-0.048-4.171,0.182
			c-2.887,0.487-4.979,2.837-4.977,5.587c0,0.005,0.002,0.01,0.002,0.016c0,0.005-0.002,0.009-0.002,0.015
			c0,2.211,0.806,4.235,2.135,5.803c-0.002,0.015-0.008,0.026-0.008,0.042v5.515c0,0.377,0.305,0.684,0.683,0.684
			c0.377,0,0.682-0.306,0.682-0.684v-4.26c1.524,1.184,3.43,1.895,5.504,1.895c2.115,0,4.06-0.739,5.599-1.968v4.333
			c0,0.377,0.305,0.684,0.683,0.684s0.684-0.306,0.684-0.684v-5.515c0-0.046-0.017-0.085-0.025-0.128
			c1.282-1.555,2.055-3.547,2.055-5.716c0-0.006-0.004-0.009-0.004-0.015c0-0.007,0.004-0.01,0.004-0.017
			C35.182,52.984,34.334,51.292,32.916,50.221z M26.919,62.369v-2.484c2.728-0.226,4.881-2.515,4.881-5.3
			c0-0.376-0.307-0.683-0.685-0.683c-0.377,0-0.684,0.306-0.684,0.683c0,2.182-1.772,3.957-3.955,3.957s-3.955-1.775-3.955-3.957
			c0-0.376-0.307-0.683-0.685-0.683c-0.376,0-0.682,0.306-0.682,0.683c0,2.619,1.902,4.797,4.396,5.237v2.553
			c-3.909-0.325-6.992-3.604-6.992-7.596c0-0.006-0.004-0.009-0.004-0.016c0-0.006,0.004-0.01,0.004-0.016
			c-0.002-2.047,1.647-3.869,3.839-4.238c1.231-0.208,2.599-0.185,3.919-0.163l0.864,0.012c1.647,0.019,3.699,0.042,4.912,0.956
			c1.08,0.813,1.723,2.097,1.723,3.434c0,0.006,0.002,0.01,0.002,0.017c0,0.005-0.002,0.009-0.002,0.015
			C33.815,58.737,30.782,62,26.919,62.369z"/>
		<path fill="#FFFFFF" d="M72.806,54.764c0-0.007,0.002-0.01,0.002-0.017c0-1.763-0.846-3.455-2.266-4.526
			c-1.57-1.183-3.872-1.208-5.719-1.229l-0.855-0.012c-1.384-0.023-2.816-0.048-4.171,0.182c-2.887,0.487-4.98,2.837-4.979,5.587
			c0,0.005,0.004,0.01,0.004,0.016c0,0.005-0.004,0.009-0.004,0.015c0,2.211,0.806,4.235,2.135,5.803
			c0,0.015-0.008,0.026-0.008,0.042v5.515c0,0.377,0.306,0.684,0.684,0.684c0.376,0,0.683-0.306,0.683-0.684v-4.26
			c1.524,1.184,3.43,1.895,5.503,1.895c2.116,0,4.061-0.739,5.598-1.968v4.333c0,0.377,0.307,0.684,0.684,0.684
			c0.378,0,0.685-0.306,0.685-0.684v-5.515c0-0.046-0.019-0.085-0.028-0.128c1.285-1.555,2.056-3.547,2.056-5.716
			C72.808,54.772,72.806,54.769,72.806,54.764z M64.545,62.369v-2.484c2.728-0.226,4.881-2.515,4.881-5.3
			c0-0.376-0.307-0.683-0.683-0.683c-0.378,0-0.684,0.306-0.684,0.683c0,2.182-1.773,3.957-3.955,3.957
			c-2.183,0-3.956-1.775-3.956-3.957c0-0.376-0.308-0.683-0.684-0.683c-0.378,0-0.684,0.306-0.684,0.683
			c0,2.619,1.902,4.797,4.397,5.237v2.553c-3.909-0.325-6.993-3.604-6.993-7.596c0-0.006-0.003-0.009-0.003-0.016
			c0-0.006,0.003-0.01,0.003-0.016c-0.001-2.047,1.648-3.869,3.838-4.238c1.231-0.208,2.601-0.185,3.92-0.163l0.865,0.012
			c1.647,0.019,3.699,0.042,4.912,0.956c1.078,0.813,1.721,2.097,1.721,3.434c0,0.006,0.004,0.01,0.004,0.017
			c0,0.005-0.004,0.009-0.004,0.015C71.441,58.737,68.41,62,64.545,62.369z"/>
		<path fill="#FFFFFF" d="M26.235,47.291c2.021,0,3.664-1.644,3.664-3.666V30.812c0-0.377-0.307-0.683-0.683-0.683
			c-0.377,0-0.684,0.306-0.684,0.683v9.982c-0.63-0.514-1.425-0.835-2.298-0.835c-2.021,0-3.666,1.645-3.666,3.665
			C22.569,45.646,24.215,47.291,26.235,47.291z M26.235,41.326c1.268,0,2.298,1.031,2.298,2.298c0,1.268-1.03,2.299-2.298,2.299
			c-1.269,0-2.301-1.031-2.301-2.299C23.935,42.357,24.967,41.326,26.235,41.326z"/>
		<path fill="#FFFFFF" d="M39.886,40.019c2.021,0,3.665-1.644,3.665-3.666V24.083l9.176-2.145v9.137
			c-0.631-0.515-1.423-0.835-2.299-0.835c-2.021,0-3.666,1.645-3.666,3.665c0,2.021,1.645,3.665,3.666,3.665
			c2.021,0,3.664-1.644,3.664-3.665V21.092c0-0.359-0.278-0.645-0.628-0.672c-0.004-0.001-0.006-0.001-0.006-0.002
			c-0.017-0.001-0.031-0.009-0.048-0.009c-0.023,0-0.042,0.011-0.066,0.013c-0.052,0-0.102-0.007-0.154,0.006l-10.479,2.448
			c-0.019,0.005-0.031,0.018-0.052,0.025c-0.044,0.015-0.085,0.034-0.125,0.057c-0.037,0.021-0.074,0.042-0.105,0.07
			c-0.033,0.029-0.061,0.062-0.089,0.096c-0.027,0.034-0.051,0.068-0.071,0.107c-0.021,0.038-0.033,0.078-0.044,0.119
			c-0.016,0.044-0.024,0.087-0.028,0.135c-0.003,0.02-0.011,0.036-0.011,0.056v9.981c-0.632-0.513-1.425-0.834-2.3-0.834
			c-2.021,0-3.666,1.644-3.666,3.665C36.22,38.375,37.865,40.019,39.886,40.019z M50.428,36.204c-1.268,0-2.298-1.031-2.298-2.299
			c0-1.267,1.03-2.298,2.298-2.298c1.269,0,2.299,1.031,2.299,2.298C52.727,35.173,51.696,36.204,50.428,36.204z M39.886,34.055
			c1.268,0,2.3,1.031,2.3,2.298c0,1.268-1.032,2.299-2.3,2.299c-1.269,0-2.299-1.031-2.299-2.299
			C37.587,35.086,38.617,34.055,39.886,34.055z"/>
		<path fill="#FFFFFF" d="M63.702,47.291c2.021,0,3.664-1.644,3.664-3.666V32.113c0.608,0.453,1.188,0.943,1.726,1.467
			c0.527,0.512,1.109,1.128,1.438,1.828c0.677,1.45-0.146,3.865-0.54,5.026c-0.122,0.357,0.07,0.746,0.426,0.867
			c0.357,0.12,0.745-0.07,0.868-0.427c0.689-2.026,1.285-4.329,0.484-6.043c-0.422-0.9-1.107-1.633-1.723-2.231
			c-0.909-0.88-1.915-1.676-2.993-2.363c-0.211-0.135-0.478-0.143-0.697-0.024c-0.218,0.121-0.354,0.35-0.354,0.599v9.982
			c-0.631-0.514-1.423-0.835-2.299-0.835c-2.021,0-3.666,1.645-3.666,3.665C60.036,45.646,61.681,47.291,63.702,47.291z
			 M63.702,41.326c1.269,0,2.299,1.031,2.299,2.298c0,1.268-1.03,2.299-2.299,2.299c-1.268,0-2.298-1.031-2.298-2.299
			C61.404,42.357,62.435,41.326,63.702,41.326z"/>
	</g>
</g>
</svg>
