<?xml version="1.0" encoding="utf-8"?>
<!-- Generator: Adobe Illustrator 16.0.0, SVG Export Plug-In . SVG Version: 6.00 Build 0)  -->
<!DOCTYPE svg PUBLIC "-//W3C//DTD SVG 1.1//EN" "http://www.w3.org/Graphics/SVG/1.1/DTD/svg11.dtd">
<svg version="1.1" id="Calque_1" xmlns="http://www.w3.org/2000/svg" xmlns:xlink="http://www.w3.org/1999/xlink" x="0px" y="0px"
	 width="90px" height="90px" viewBox="0 0 90 90" enable-background="new 0 0 90 90" xml:space="preserve">
<circle opacity="0.2" fill="#FFFFFF" cx="45" cy="45" r="43.615"/>
<g id="Calque_2">
</g>
<g>
	<g>
		<path fill="#FFFFFF" d="M52.554,69.887c0.496,0,0.9-0.403,0.9-0.901v-6.522v-7.347v-1.68c0.459-1.708,2.013-2.938,3.829-2.938
			h3.064c2.187,0,3.964,1.782,3.964,3.972v7.367v0.558c0,0.005,0.002,0.009,0.002,0.014c-0.002,0.02,0,0.037,0,0.057
			c0,0.268,0.114,0.532,0.341,0.709c0.167,0.131,0.361,0.192,0.558,0.192c0.267,0,0.532-0.118,0.71-0.346
			c3.686-4.703,5.635-10.357,5.635-16.351c0-14.644-11.913-26.557-26.557-26.557S18.443,32.026,18.443,46.67
			c0,5.989,1.946,11.642,5.632,16.346c0.309,0.392,0.875,0.461,1.269,0.153c0.227-0.178,0.343-0.442,0.343-0.711
			c0-0.037-0.005-0.074-0.01-0.111c0.005-0.036,0.012-0.071,0.012-0.108V61.68v-7.367c0-2.188,1.777-3.971,3.964-3.971h3.066
			c1.814,0,3.368,1.229,3.83,2.934v1.685v7.501v6.5c0,0.498,0.401,0.901,0.899,0.901s0.9-0.402,0.903-0.9c0-0.001,0-0.001,0-0.002
			V50.292c0-2.673,2.175-4.849,4.848-4.849h3.608c2.671,0,4.841,2.176,4.841,4.849v18.691v0.002
			C51.651,69.483,52.054,69.887,52.554,69.887z M58.814,48.031c-2.358,0-4.28-1.919-4.28-4.278s1.922-4.279,4.28-4.279
			c2.359,0,4.279,1.92,4.279,4.279S61.174,48.031,58.814,48.031z M31.188,47.874c-2.36,0-4.28-1.919-4.28-4.278
			c0-2.36,1.92-4.278,4.28-4.278s4.277,1.918,4.277,4.278C35.466,45.955,33.546,47.874,31.188,47.874z M39.633,37.67
			c0-2.961,2.41-5.37,5.369-5.37c2.964,0,5.372,2.409,5.372,5.37c0,2.962-2.408,5.371-5.372,5.371
			C42.043,43.041,39.633,40.632,39.633,37.67z M48.576,43.886c2.149-1.238,3.601-3.556,3.601-6.216c0-3.962-3.213-7.175-7.175-7.175
			s-7.172,3.213-7.172,7.175c0,2.661,1.451,4.978,3.601,6.216c-2.721,0.752-4.743,3.191-4.868,6.118
			c-0.629-0.56-1.378-0.982-2.203-1.227c1.743-1.069,2.911-2.986,2.911-5.182c0-3.359-2.724-6.083-6.085-6.083
			c-3.358,0-6.082,2.724-6.082,6.083c0,2.195,1.17,4.113,2.913,5.183c-2.385,0.709-4.131,2.92-4.131,5.534v5.271
			c-2.386-3.872-3.64-8.283-3.64-12.913c0-13.648,11.104-24.753,24.754-24.753c13.647,0,24.754,11.104,24.754,24.753
			c0,4.632-1.254,9.045-3.638,12.916v-5.115c0-2.614-1.745-4.826-4.131-5.535c1.743-1.068,2.911-2.986,2.911-5.183
			c0-3.359-2.724-6.082-6.082-6.082c-3.359,0-6.083,2.723-6.083,6.082c0,2.194,1.168,4.113,2.911,5.182
			c-0.822,0.244-1.569,0.663-2.195,1.221C53.386,47.16,51.341,44.651,48.576,43.886z"/>
	</g>
</g>
</svg>
