<?xml version="1.0" encoding="utf-8"?>
<!-- Generator: Adobe Illustrator 22.0.1, SVG Export Plug-In . SVG Version: 6.00 Build 0)  -->
<svg version="1.1" id="Calque_1" xmlns="http://www.w3.org/2000/svg" xmlns:xlink="http://www.w3.org/1999/xlink" x="0px" y="0px"
	 width="90px" height="90px" viewBox="0 0 90 90" style="enable-background:new 0 0 90 90;" xml:space="preserve">
<style type="text/css">
	.st0{opacity:0.2;fill:#FFFFFF;enable-background:new    ;}
	.st1{fill:#FFFFFF;}
</style>
<circle class="st0" cx="45" cy="45.1" r="43.6"/>
<g id="Calque_2_1_">
</g>
<path class="st1" d="M63.4,42.3h-6.5v-2.5c1-1.3,1.6-2.9,1.6-4.6c0-4.2-3.4-7.6-7.6-7.6c-0.8,0-1.6,0.1-2.4,0.4
	c-1-3.5-4.2-6.1-8-6.1c-3.7,0-6.9,2.5-7.9,5.9c-1.4-0.3-2.8-0.1-4.1,0.6c-1.4,0.8-2.4,2-2.8,3.5c-0.4,1.5-0.5,4,1.3,5.6v26.6
	c0,2.1,1.7,3.9,3.9,3.9H53c2.1,0,3.9-1.7,3.9-3.9v-2.6c0,0,7.8-6.1,7.8-17.9C64.6,42.9,64.1,42.3,63.4,42.3z M54.3,64.2
	c0,0.7-0.6,1.3-1.3,1.3H30.8c-0.7,0-1.3-0.6-1.3-1.3V39.3c1,0.3,2.1,0.4,3.1,0.1c1.1,2.8,3.8,4.8,6.9,4.8c2.5,0,4.8-1.3,6.2-3.3
	c1.4,1.3,3.2,2,5.1,2c1.2,0,2.4-0.3,3.5-0.9L54.3,64.2C54.3,64.2,54.3,64.2,54.3,64.2z M50.8,40.3c-1.8,0-3.4-0.9-4.3-2.4
	c-0.3-0.4-0.8-0.7-1.3-0.6c-0.5,0.1-0.9,0.4-1.1,0.9c-0.6,2-2.5,3.5-4.6,3.5c-2.4,0-4.4-1.8-4.8-4.1c-0.1-0.4-0.3-0.8-0.7-1
	s-0.8-0.2-1.2,0c-1.1,0.6-2.4,0.5-3.4-0.1c0,0-2.3-1.3-1.4-3.8c0.3-0.8,0.8-1.6,1.6-2c1-0.5,2.2-0.5,3.2,0c0.4,0.2,0.8,0.2,1.2,0
	c0.4-0.2,0.6-0.6,0.7-1c0.3-2.9,2.7-5.2,5.7-5.2c3.1,0,5.6,2.4,5.7,5.5c0,0.5,0.3,0.9,0.7,1.1c0.4,0.2,0.9,0.2,1.3-0.1
	c0.8-0.5,1.8-0.8,2.7-0.8c2.8,0,5.1,2.3,5.1,5.1C55.9,39.4,52,40.3,50.8,40.3z M56.9,57.8V44.9H62C61.8,49.7,60,54.2,56.9,57.8z"/>
</svg>
