<?xml version="1.0" encoding="utf-8"?>
<!-- Generator: Adobe Illustrator 16.0.0, SVG Export Plug-In . SVG Version: 6.00 Build 0)  -->
<!DOCTYPE svg PUBLIC "-//W3C//DTD SVG 1.1//EN" "http://www.w3.org/Graphics/SVG/1.1/DTD/svg11.dtd">
<svg version="1.1" id="Calque_1" xmlns="http://www.w3.org/2000/svg" xmlns:xlink="http://www.w3.org/1999/xlink" x="0px" y="0px"
	 width="90px" height="90px" viewBox="0 0 90 90" enable-background="new 0 0 90 90" xml:space="preserve">
<circle opacity="0.2" fill="#FFFFFF" cx="45" cy="45.089" r="43.615"/>
<g id="Calque_2">
</g>
<path fill="#FFFFFF" d="M75.851,47.26L75.851,47.26c0,0.661-0.44,1.102-1.102,1.102h-12.12c-0.441,0-0.771-0.222-0.991-0.552
	l-8.706-16.526l-11.348,30.63c-0.11,0.439-0.551,0.771-0.991,0.771l0,0c-0.44,0-0.882-0.331-0.991-0.771l-7.934-24.681
	l-4.407,10.467c-0.109,0.44-0.551,0.662-0.991,0.662H15.252c-0.661,0-1.103-0.44-1.103-1.102l0,0c0-0.662,0.441-1.104,1.103-1.104
	h10.246l5.178-12.56c0.221-0.44,0.662-0.66,1.102-0.66c0.441,0,0.882,0.33,0.992,0.771l7.823,24.459L51.61,28.088
	c0.109-0.441,0.55-0.661,0.991-0.771c0.439,0,0.881,0.221,1.102,0.551l9.588,18.289h11.458C75.41,46.156,75.851,46.598,75.851,47.26
	z"/>
</svg>
