<?xml version="1.0" encoding="utf-8"?>
<!-- Generator: Adobe Illustrator 16.0.0, SVG Export Plug-In . SVG Version: 6.00 Build 0)  -->
<!DOCTYPE svg PUBLIC "-//W3C//DTD SVG 1.1//EN" "http://www.w3.org/Graphics/SVG/1.1/DTD/svg11.dtd">
<svg version="1.1" id="Calque_1" xmlns="http://www.w3.org/2000/svg" xmlns:xlink="http://www.w3.org/1999/xlink" x="0px" y="0px"
	 width="90px" height="90px" viewBox="0 0 90 90" enable-background="new 0 0 90 90" xml:space="preserve">
<g id="Calque_2">
</g>
<circle opacity="0.2" fill="#FFFFFF" cx="44.898" cy="45" r="43.615"/>
<g>
	<path fill="#FFFFFF" stroke="#FFFFFF" stroke-width="0.3" stroke-miterlimit="10" d="M66.192,34.889
		c-2.042,0-3.731,1.691-3.731,3.732c0,1.398,0.816,2.623,1.925,3.265L53.89,47.483l-8.335-12.711
		c1.922-0.351,3.323-2.04,3.323-4.022c0-2.274-1.808-4.082-4.084-4.082c-2.274,0-4.081,1.808-4.081,4.082
		c0,1.982,1.459,3.671,3.324,4.022l-9.039,12.652l-9.675-5.48c1.281-0.584,2.215-1.866,2.215-3.382c0-2.04-1.689-3.732-3.734-3.732
		c-2.038,0-3.729,1.692-3.729,3.732c0,1.923,1.517,3.557,3.383,3.673l2.623,19.531c0.176,1.225,1.227,2.157,2.508,2.157h32.301
		c1.223,0,2.272-0.933,2.507-2.157l2.622-19.472c0.057,0,0.117,0,0.175,0c2.039,0,3.733-1.692,3.733-3.732
		S68.231,34.889,66.192,34.889z M41.88,30.809c0-1.633,1.284-2.916,2.914-2.916c1.634,0,2.915,1.283,2.915,2.916
		c0,1.631-1.281,2.915-2.915,2.915C43.164,33.724,41.88,32.382,41.88,30.809z M21.299,38.562c0-1.398,1.165-2.565,2.566-2.565
		c1.398,0,2.565,1.167,2.565,2.565c0,1.4-1.167,2.566-2.565,2.566C22.464,41.128,21.299,40.02,21.299,38.562z M62.228,61.651
		c-0.116,0.642-0.642,1.165-1.339,1.165H28.645c-0.642,0-1.223-0.465-1.338-1.165l-0.584-4.373c0.056,0.058,0.173,0.058,0.232,0.058
		h35.855L62.228,61.651z M62.987,56.171H27.011c-0.115,0-0.288,0.059-0.351,0.174l-1.745-13.293l10.026,5.655
		c0.235,0.177,0.584,0.059,0.757-0.174l9.153-12.769l8.456,12.769c0.175,0.232,0.464,0.351,0.76,0.174l10.668-5.713L62.987,56.171z
		 M66.192,41.128c-1.399,0-2.564-1.166-2.564-2.566c0-1.398,1.165-2.565,2.564-2.565c1.4,0,2.564,1.167,2.564,2.565
		C68.757,39.962,67.593,41.128,66.192,41.128z"/>
</g>
</svg>
