<?xml version="1.0" encoding="utf-8"?>
<!-- Generator: Adobe Illustrator 16.0.0, SVG Export Plug-In . SVG Version: 6.00 Build 0)  -->
<!DOCTYPE svg PUBLIC "-//W3C//DTD SVG 1.1//EN" "http://www.w3.org/Graphics/SVG/1.1/DTD/svg11.dtd">
<svg version="1.1" id="Calque_1" xmlns="http://www.w3.org/2000/svg" xmlns:xlink="http://www.w3.org/1999/xlink" x="0px" y="0px"
	 width="90px" height="90px" viewBox="0 0 90 90" enable-background="new 0 0 90 90" xml:space="preserve">
<circle opacity="0.2" fill="#FFFFFF" cx="45" cy="45" r="43.615"/>
<g>
	<path fill="none" stroke="#FFFFFF" stroke-miterlimit="10" d="M38.664,36.084l-9.099-11.933c-0.336-0.44-0.136-1.159,0.447-1.604
		c0.583-0.445,1.329-0.448,1.666-0.007l9.098,11.932c0.337,0.441,0.137,1.159-0.446,1.604C39.747,36.522,39,36.525,38.664,36.084z"
		/>
	<path fill="none" stroke="#FFFFFF" stroke-miterlimit="10" d="M70.807,64.492c-0.534-0.7-1.262-1.043-1.625-0.767l-3.696,2.819
		c0.2,0.575-0.025,1.284-0.605,1.727c-0.58,0.44-1.323,0.473-1.824,0.126l-3.697,2.82c-0.363,0.276-0.225,1.068,0.309,1.769
		s1.262,1.044,1.625,0.767l9.823-7.49C71.48,65.986,71.341,65.193,70.807,64.492z"/>
	<g>
		<path fill="none" stroke="#FFFFFF" stroke-miterlimit="10" d="M64.702,66.284L41.175,35.432c-0.032,0.425-0.206,0.807-0.532,1.056
			s-0.742,0.314-1.159,0.234l23.527,30.852c0.444,0.583,1.181,0.767,1.649,0.409S65.146,66.866,64.702,66.284z"/>
	</g>
	<path fill="none" stroke="#FFFFFF" stroke-miterlimit="10" d="M19.329,30.642c-0.763-1-0.865-2.5-0.238-3.485
		c0.842-1.326,1.885-2.037,3.85-2.62c1.135-0.337,2.329-0.792,3.201-1.124c0.773-0.295,1.154-0.437,1.373-0.479
		c0.435-0.082,2.619-0.588,2.619-0.589c0.278-0.063,0.559,0.104,0.632,0.379c0.076,0.276-0.081,0.562-0.354,0.646
		c-0.021,0.007-2.159,0.685-3.647,1.82c-1.565,1.192-1.923,1.485-2.668,2.661c-0.214,0.338-0.346,0.843-0.473,1.332
		c-0.231,0.891-0.472,1.812-1.271,2.235c-0.53,0.282-1.192,0.273-2.025-0.023C19.949,31.262,19.604,31.002,19.329,30.642z
		 M25.574,24.764c-0.72,0.267-1.535,0.555-2.33,0.792c-1.945,0.578-2.645,1.209-3.256,2.17c-0.387,0.61-0.304,1.628,0.187,2.271
		c0.149,0.195,0.325,0.333,0.508,0.398c0.529,0.188,0.923,0.217,1.171,0.085c0.387-0.205,0.566-0.895,0.74-1.564
		c0.148-0.568,0.302-1.155,0.605-1.634C23.935,26.122,24.379,25.688,25.574,24.764z"/>
</g>
<g>
	<path fill="none" stroke="#FFFFFF" stroke-miterlimit="10" d="M48.036,65.289c0.138,0.516,0.218,1.056,0.218,1.614
		c0,2.644-1.647,4.906-3.969,5.824c0.233,0.039,0.471,0.064,0.715,0.064c2.412,0,4.367-1.956,4.367-4.368
		C49.367,67.192,48.855,66.082,48.036,65.289z"/>
	<path fill="none" stroke="#FFFFFF" stroke-miterlimit="10" d="M40.633,68.424c0,1.697,0.97,3.165,2.385,3.889
		c2.547-0.485,4.479-2.725,4.479-5.409c0-0.855-0.201-1.663-0.551-2.386C46.359,64.225,45.7,64.057,45,64.057
		C42.588,64.057,40.633,66.011,40.633,68.424z"/>
</g>
</svg>
