<?xml version="1.0" encoding="utf-8"?>
<!-- Generator: Adobe Illustrator 16.0.0, SVG Export Plug-In . SVG Version: 6.00 Build 0)  -->
<!DOCTYPE svg PUBLIC "-//W3C//DTD SVG 1.1//EN" "http://www.w3.org/Graphics/SVG/1.1/DTD/svg11.dtd">
<svg version="1.1" id="Calque_1" xmlns="http://www.w3.org/2000/svg" xmlns:xlink="http://www.w3.org/1999/xlink" x="0px" y="0px"
	 width="90px" height="90px" viewBox="0 0 90 90" enable-background="new 0 0 90 90" xml:space="preserve">
<circle opacity="0.2" fill="#FFFFFF" cx="45" cy="45" r="43.615"/>
<g>
	<path fill="#FFFFFF" d="M60.802,43.411c-2.463,0-4.486,2.023-4.486,4.487c0,2.463,2.023,4.487,4.486,4.487
		c2.464,0,4.488-2.024,4.488-4.487C65.29,45.346,63.266,43.411,60.802,43.411z M60.802,50.538c-1.495,0-2.728-1.233-2.728-2.728
		c0-1.496,1.232-2.727,2.728-2.727c1.496,0,2.729,1.231,2.729,2.727C63.53,49.305,62.298,50.538,60.802,50.538z"/>
	<path fill="#FFFFFF" d="M65.993,28.277c-0.086-0.528-0.439-1.056-0.792-1.407l-2.022-2.112c-0.969-0.967-2.377-1.144-3.079-0.439
		L44.967,39.451c-0.969,0.968-2.025,2.024-2.903,3.167l0,0c-0.089,0.088-0.177,0.177-0.265,0.265
		c-0.528,0.704-1.144,1.319-1.672,2.023c-0.266,0.352-0.527,0.704-0.792,0.967c-0.968,1.321-2.904,3.608-5.368,6.335
		c-1.936,2.2-4.134,4.575-6.07,6.687c-0.702-0.616-1.848-0.616-2.463,0.088l-0.968,0.968c-0.704,0.703-0.704,1.847,0,2.64
		l2.903,2.903c0.265,0.44,0.792,0.616,1.231,0.616c0.528,0,0.967-0.175,1.319-0.528l0.969-0.968
		c0.705-0.704,0.705-1.759,0.088-2.462c0.617-0.617,1.319-1.232,2.023-1.937c0.616-0.616,1.231-1.144,1.936-1.76
		c0.352-0.264,0.616-0.616,0.968-0.88c3.168-2.903,6.335-5.63,8.095-6.949c0.88-0.704,1.76-1.409,2.64-2.112
		c0.263-0.175,0.44-0.353,0.703-0.528l0,0c1.056-0.968,2.112-1.937,3.168-2.903l15.133-15.221
		C65.993,29.509,66.17,28.893,65.993,28.277z M29.656,63.382l-0.967,0.968h-0.089l-2.991-2.992v-0.088l0.968-0.968c0,0,0,0,0.088,0
		s0,0,0.088,0l0.527,0.527l0,0l1.849,1.849l0,0l0.527,0.528C29.656,63.295,29.656,63.295,29.656,63.382z M29.744,60.83l-0.527-0.527
		l-0.088-0.088c1.935-2.112,4.137-4.487,6.158-6.687c1.761-1.935,4.135-4.663,5.455-6.423l0,0c0.528-0.704,1.145-1.495,1.76-2.199
		c0.088-0.088,0.178-0.175,0.264-0.263l2.728,2.728c-0.087,0.087-0.176,0.175-0.264,0.263c-0.703,0.615-1.495,1.232-2.199,1.76
		C40.214,51.241,34.231,56.608,29.744,60.83z M49.189,43.762c-0.793,0.792-1.585,1.584-2.465,2.287l-2.903-2.903
		c0.792-0.879,1.496-1.671,2.287-2.463l15.134-15.045c0.09,0,0.352,0.088,0.704,0.352l2.023,2.023
		c0.265,0.264,0.353,0.528,0.353,0.705L49.189,43.762z"/>
</g>
</svg>
