<?xml version="1.0" encoding="utf-8"?>
<!-- Generator: Adobe Illustrator 16.0.0, SVG Export Plug-In . SVG Version: 6.00 Build 0)  -->
<!DOCTYPE svg PUBLIC "-//W3C//DTD SVG 1.1//EN" "http://www.w3.org/Graphics/SVG/1.1/DTD/svg11.dtd">
<svg version="1.1" id="Calque_1" xmlns="http://www.w3.org/2000/svg" xmlns:xlink="http://www.w3.org/1999/xlink" x="0px" y="0px"
	 width="90px" height="90px" viewBox="0 0 90 90" enable-background="new 0 0 90 90" xml:space="preserve">
<circle opacity="0.2" fill="#FFFFFF" cx="45" cy="45.089" r="43.615"/>
<g>
	<path fill="#FFFFFF" stroke="#FFFFFF" stroke-miterlimit="10" d="M68.84,49.901L68.84,49.901
		c-1.008-7.458-4.333-14.312-9.374-19.251c-4.938-4.939-11.792-8.265-19.25-9.374c-6.955-1.008-13.204,0.201-16.026,3.024
		c-2.823,2.822-4.032,9.172-3.024,16.025c1.008,7.458,4.334,14.312,9.374,19.251c4.938,4.938,11.792,8.265,19.251,9.374
		c1.612,0.202,3.124,0.302,4.636,0.302c5.04,0,9.273-1.209,11.39-3.427C68.538,63.105,69.748,56.855,68.84,49.901z M25.601,25.812
		c1.814-1.814,5.543-2.822,9.979-2.822c1.411,0,2.822,0.101,4.334,0.302c1.612,0.202,3.225,0.605,4.737,1.008
		c-4.838,1.512-9.172,4.132-12.8,7.76c-3.628,3.629-6.25,7.963-7.761,12.801c-0.403-1.512-0.806-3.125-1.008-4.737
		C22.174,33.875,23.182,28.13,25.601,25.812z M25.298,48.288c1.209-5.645,3.931-10.684,7.962-14.816
		c4.032-4.032,9.172-6.854,14.816-7.963c3.729,1.512,7.156,3.729,9.979,6.551c2.822,2.823,5.039,6.25,6.551,9.979
		c-1.209,5.645-3.93,10.684-7.962,14.816c-4.032,4.032-9.172,6.854-14.817,7.962c-3.729-1.512-7.156-3.729-9.978-6.551
		C29.028,55.444,26.811,52.018,25.298,48.288z M64.304,64.515c-2.318,2.319-8.164,3.327-14.312,2.52
		c-1.613-0.201-3.225-0.604-4.737-1.008c4.838-1.512,9.171-4.132,12.8-7.761c3.628-3.629,6.249-7.963,7.761-12.8
		c0.403,1.511,0.806,3.125,1.008,4.737C67.732,56.452,66.724,62.197,64.304,64.515z"/>
	<path fill="#FFFFFF" stroke="#FFFFFF" stroke-miterlimit="10" d="M42.836,44.458l2.822,2.822l-1.31,1.311
		c-0.403,0.403-0.403,1.008,0,1.411c0.201,0.202,0.504,0.302,0.705,0.302c0.302,0,0.504-0.1,0.706-0.302l1.31-1.31l2.821,2.822
		l-1.31,1.311c-0.403,0.403-0.403,1.008,0,1.411c0.202,0.201,0.504,0.302,0.706,0.302c0.302,0,0.504-0.102,0.705-0.302l1.311-1.311
		l1.512,1.511c0.201,0.202,0.504,0.303,0.706,0.303c0.302,0,0.504-0.101,0.705-0.303c0.404-0.403,0.404-1.008,0-1.411l-1.512-1.512
		l1.311-1.31c0.403-0.404,0.403-1.008,0-1.412c-0.403-0.403-1.008-0.403-1.411,0l-1.31,1.311L48.48,47.28l1.311-1.31
		c0.402-0.403,0.402-1.008,0-1.411c-0.404-0.403-1.008-0.403-1.412,0l-1.31,1.31l-2.822-2.822l1.31-1.311
		c0.403-0.402,0.403-1.007,0-1.411s-1.008-0.403-1.411,0l-1.31,1.31l-2.822-2.822l1.311-1.31c0.404-0.403,0.404-1.008,0-1.412
		c-0.403-0.403-1.008-0.403-1.411,0l-1.31,1.311l-1.512-1.512c-0.403-0.403-1.008-0.403-1.411,0c-0.403,0.403-0.403,1.008,0,1.411
		l1.512,1.512l-1.411,1.31c-0.403,0.404-0.403,1.008,0,1.412c0.202,0.201,0.504,0.302,0.706,0.302c0.302,0,0.503-0.102,0.706-0.302
		l1.31-1.311l2.823,2.822l-1.311,1.311c-0.403,0.403-0.403,1.008,0,1.411c0.202,0.202,0.504,0.302,0.706,0.302
		c0.302,0,0.504-0.101,0.706-0.302L42.836,44.458z"/>
</g>
</svg>
