<?xml version="1.0" encoding="utf-8"?>
<!-- Generator: Adobe Illustrator 16.0.0, SVG Export Plug-In . SVG Version: 6.00 Build 0)  -->
<!DOCTYPE svg PUBLIC "-//W3C//DTD SVG 1.1//EN" "http://www.w3.org/Graphics/SVG/1.1/DTD/svg11.dtd">
<svg version="1.1" id="Calque_1" xmlns="http://www.w3.org/2000/svg" xmlns:xlink="http://www.w3.org/1999/xlink" x="0px" y="0px"
	 width="90px" height="90px" viewBox="0 0 90 90" enable-background="new 0 0 90 90" xml:space="preserve">
<circle opacity="0.2" fill="#FFFFFF" cx="45" cy="45" r="43.615"/>
<path fill="#FFFFFF" d="M69.754,60.979c0.113-0.366,0.174-0.75,0.172-1.135c-0.01-1.555-0.977-2.942-2.434-3.488l-9.664-3.601
	l-4.438-10.624l4.459-3.386c1.555-1.188,2.354-3.121,2.09-5.059l-1.193-9.318c-0.27-2.044-2.146-3.482-4.189-3.213
	c-1.875,0.247-3.268,1.858-3.244,3.749c0,0.165,0.01,0.33,0.031,0.493l1.059,8.125l-5.686,4.318l-10.412,6.912
	c0.307-3.032,0.189-6.091-0.344-9.092l-0.271-1.521c-0.307-1.75-1.975-2.922-3.727-2.615c-1.75,0.306-2.92,1.974-2.615,3.725
	l0.207,1.138c0.648,3.595,0.656,7.276,0.025,10.873l-0.791,4.444l-0.066,0.451l-0.035,0.349c-0.213,1.631,0.271,3.277,1.332,4.535
	c2.064,2.398,5.594,2.875,8.221,1.108l10.75-7.166l2.287,5.467c0.58,1.388,1.709,2.475,3.113,3.005L65.67,63.64
	c0.936,0.394,2.006,0.298,2.857-0.255C69.289,62.819,69.744,61.928,69.754,60.979z M66.389,61.702l-11.266-4.188
	c-0.875-0.326-1.576-0.999-1.938-1.858l-2.766-6.625c-0.213-0.532-0.816-0.788-1.348-0.576c-0.072,0.03-0.143,0.067-0.207,0.113
	L37.076,56.4c-1.738,1.194-4.094,0.894-5.477-0.7c-0.705-0.828-1.025-1.923-0.871-3.002l0.035-0.345l0.045-0.312l0.799-4.429
	c0.67-3.839,0.66-7.767-0.029-11.603l-0.207-1.134c-0.107-0.624,0.311-1.216,0.936-1.324c0.621-0.106,1.215,0.312,1.322,0.936
	L33.9,36.04c0.627,3.533,0.637,7.15,0.027,10.686c-0.092,0.564,0.291,1.097,0.857,1.189c0.256,0.042,0.52-0.014,0.734-0.157
	l12.342-8.212l0.049-0.036l6.201-4.676c0.299-0.225,0.451-0.591,0.402-0.959l-1.119-8.732c-0.104-0.912,0.555-1.732,1.467-1.837
	c0.879-0.098,1.682,0.511,1.824,1.384l1.195,9.318c0.162,1.207-0.336,2.409-1.307,3.145l-5.102,3.865
	c-0.348,0.282-0.477,0.758-0.314,1.176l4.934,11.777c0.111,0.266,0.328,0.474,0.598,0.573l10.086,3.75
	c0.855,0.323,1.297,1.27,0.998,2.136c-0.045,0.116-0.066,0.237-0.066,0.362c0.037,0.334-0.092,0.663-0.346,0.887
	c-0.301,0.166-0.666,0.175-0.973,0.018V61.702z M25.756,57.921c-3.146,0.009-5.689,2.563-5.682,5.709
	c0.008,3.146,2.562,5.689,5.711,5.682c3.145-0.009,5.688-2.563,5.68-5.71C31.457,60.456,28.902,57.913,25.756,57.921L25.756,57.921z
	 M25.779,67.267c-2.002,0.004-3.629-1.614-3.635-3.616c-0.004-2.001,1.615-3.627,3.615-3.633c2.002-0.005,3.629,1.613,3.635,3.615
	S27.781,67.261,25.779,67.267L25.779,67.267z M39.535,25.954c-0.002-0.57,0.461-1.035,1.033-1.037
	c0.572-0.001,1.037,0.462,1.037,1.032l0.027,10.169c0.002,0.572-0.461,1.038-1.033,1.039c-0.572,0.002-1.037-0.462-1.039-1.034
	L39.535,25.954z M46.877,21.722l0.025,10.164c0.002,0.572-0.461,1.036-1.031,1.037c-0.574,0.001-1.037-0.46-1.039-1.032
	l-0.025-10.164c-0.002-0.573,0.461-1.036,1.033-1.038C46.412,20.688,46.875,21.148,46.877,21.722z"/>
</svg>
