<?xml version="1.0" encoding="utf-8"?>
<!-- Generator: Adobe Illustrator 16.0.0, SVG Export Plug-In . SVG Version: 6.00 Build 0)  -->
<!DOCTYPE svg PUBLIC "-//W3C//DTD SVG 1.1//EN" "http://www.w3.org/Graphics/SVG/1.1/DTD/svg11.dtd">
<svg version="1.1" id="Calque_1" xmlns="http://www.w3.org/2000/svg" xmlns:xlink="http://www.w3.org/1999/xlink" x="0px" y="0px"
	 width="90px" height="90px" viewBox="0 0 90 90" enable-background="new 0 0 90 90" xml:space="preserve">
<circle opacity="0.2" fill="#FFFFFF" cx="45" cy="45" r="43.615"/>
<path fill="#FFFFFF" d="M69.394,41.956c1.534-0.139,2.743-1.417,2.743-2.987c0-11.638-12.173-21.105-27.136-21.105
	c-14.965,0-27.137,9.468-27.137,21.105c0,1.57,1.209,2.849,2.743,2.987l16.136,15.539c0.054,0.051,0.116,0.089,0.18,0.115
	c-0.227,0.367-0.364,0.797-0.364,1.26c0,0.829,0.429,1.318,0.78,1.632l4.035,4.036c-0.364,0.424-0.594,0.967-0.594,1.567v3.619
	c0,1.331,1.083,2.412,2.412,2.412c0.724,0,1.367-0.326,1.811-0.833c0.442,0.507,1.084,0.833,1.808,0.833
	c1.329,0,2.412-1.081,2.412-2.412v-3.619c0-0.601-0.229-1.144-0.594-1.567l4.013-4.014c0.374-0.336,0.804-0.825,0.804-1.654
	c0-0.463-0.139-0.893-0.364-1.26c0.063-0.026,0.125-0.064,0.178-0.115L69.394,41.956z M52.287,56.82
	c-0.268-0.164-0.569-0.276-0.893-0.326l12.441-24.315c1.449,2.042,2.271,4.349,2.271,6.79c0,1.229,0.739,2.281,1.794,2.752
	l-15.48,14.905C52.362,56.684,52.318,56.749,52.287,56.82z M40.577,57.214c-0.125-0.113-0.276-0.237-0.448-0.354
	c-0.008-0.024-0.007-0.049-0.021-0.074L26.981,31.127c1.058-1.236,2.358-2.357,3.855-3.326L42.56,57.111
	c-0.314,0.438-0.511,0.964-0.553,1.533L40.577,57.214z M44.397,23.904v32.012c-0.258,0.054-0.498,0.148-0.727,0.263l-4.691-31.656
	C40.704,24.154,42.519,23.941,44.397,23.904z M51.02,24.521l-4.69,31.656c-0.229-0.113-0.469-0.21-0.727-0.262V23.904
	C47.478,23.941,49.295,24.154,51.02,24.521z M58.116,27.171l-9.957,24.891l4.039-27.264C54.357,25.358,56.35,26.167,58.116,27.171z
	 M37.801,24.798l4.039,27.264l-9.956-24.891C33.65,26.167,35.642,25.358,37.801,24.798z M43.19,58.87c0-0.997,0.812-1.81,1.811-1.81
	c0.997,0,1.808,0.812,1.808,1.81c0,0.998-0.811,1.809-1.808,1.809C44.002,60.679,43.19,59.868,43.19,58.87z M47.992,58.645
	c-0.042-0.571-0.237-1.096-0.554-1.533l11.725-29.311c1.497,0.969,2.798,2.09,3.856,3.326L49.89,56.786
	c-0.014,0.025-0.014,0.052-0.021,0.077c-0.178,0.12-0.336,0.253-0.471,0.374L47.992,58.645z M45,19.068
	c14.298,0,25.931,8.927,25.931,19.9c0,0.999-0.812,1.81-1.809,1.81c-0.279,0-0.541-0.068-0.776-0.182l1.202-1.201
	c0.237-0.235,0.237-0.616,0-0.853c-0.235-0.236-0.616-0.236-0.852,0l-1.202,1.201c-0.113-0.235-0.182-0.496-0.182-0.775
	c0-0.309-0.013-0.613-0.038-0.917l1.067-1.067c0.236-0.236,0.236-0.618,0-0.854c-0.237-0.236-0.617-0.236-0.853,0l-0.422,0.423
	c-0.105-0.509-0.243-1.01-0.411-1.503l1.083-1.083c0.236-0.235,0.236-0.616,0-0.852c-0.235-0.235-0.617-0.235-0.852,0l-0.718,0.717
	c-0.195-0.428-0.411-0.849-0.652-1.261l1.017-1.016c0.235-0.236,0.235-0.618,0-0.854c-0.236-0.235-0.616-0.235-0.852,0l-0.837,0.838
	c-0.266-0.377-0.547-0.746-0.853-1.104c0.045-0.026,0.091-0.047,0.129-0.086l0.603-0.603c0.237-0.237,0.237-0.618,0-0.854
	c-0.235-0.235-0.616-0.235-0.852,0l-0.603,0.603c-0.025,0.025-0.037,0.058-0.056,0.084c-0.322-0.332-0.656-0.656-1.008-0.969
	c0.036-0.021,0.074-0.039,0.106-0.07l0.603-0.604c0.237-0.235,0.237-0.616,0-0.853c-0.236-0.235-0.616-0.235-0.852,0l-0.604,0.604
	c-0.058,0.06-0.102,0.127-0.131,0.199c-0.369-0.289-0.75-0.566-1.145-0.836l0.923-0.924c0.236-0.235,0.236-0.616,0-0.852
	c-0.234-0.235-0.617-0.235-0.853,0l-1.107,1.105c-0.019-0.009-0.032-0.025-0.052-0.034c-0.007-0.003-0.015-0.001-0.023-0.005
	c-0.376-0.222-0.764-0.436-1.158-0.64l0.781-0.781c0.237-0.235,0.237-0.616,0-0.853c-0.236-0.236-0.616-0.236-0.852,0l-1.075,1.074
	c-0.439-0.199-0.888-0.39-1.346-0.566l0.862-0.861c0.235-0.235,0.235-0.616,0-0.853c-0.237-0.235-0.618-0.235-0.853,0l-1.207,1.206
	c-0.019,0.02-0.026,0.044-0.043,0.065c-0.486-0.162-0.979-0.314-1.484-0.451l0.571-0.571c0.236-0.235,0.236-0.616,0-0.852
	c-0.235-0.237-0.616-0.237-0.853,0l-1.095,1.095c-0.53-0.114-1.066-0.216-1.611-0.302l0.543-0.544c0.237-0.236,0.237-0.616,0-0.854
	c-0.235-0.235-0.616-0.235-0.852,0l-1.2,1.2c-0.586-0.062-1.18-0.106-1.779-0.133l0.815-0.817c0.237-0.235,0.237-0.617,0-0.854
	c-0.235-0.235-0.616-0.235-0.852,0l-1.638,1.639c-0.67,0.004-1.334,0.029-1.99,0.078l0.863-0.863c0.236-0.235,0.236-0.617,0-0.854
	c-0.235-0.235-0.617-0.235-0.853,0l-1.81,1.811c-0.031,0.031-0.047,0.069-0.07,0.105c-0.805,0.11-1.596,0.249-2.369,0.42l0.88-0.879
	c0.236-0.237,0.236-0.618,0-0.854c-0.237-0.235-0.618-0.235-0.853,0l-2.356,2.355c-1.903,0.6-3.67,1.389-5.256,2.33
	c-0.009,0.003-0.017,0.002-0.025,0.005c-0.072,0.028-0.132,0.072-0.185,0.121c-4.908,2.991-8.035,7.483-8.035,12.501
	c0,0.999-0.812,1.81-1.81,1.81c-0.436,0-0.829-0.161-1.142-0.417l0.966-0.966c0.235-0.235,0.235-0.616,0-0.853
	c-0.237-0.236-0.618-0.236-0.853,0l-0.747,0.747c-0.02-0.105-0.033-0.211-0.033-0.321c0-0.617,0.042-1.228,0.114-1.831
	c0.113-0.021,0.225-0.066,0.312-0.153l1.207-1.208c0.235-0.234,0.235-0.616,0-0.851c-0.237-0.237-0.618-0.237-0.853,0l-0.316,0.315
	C21.813,26.044,32.362,19.068,45,19.068z M22.099,41.721c1.054-0.471,1.794-1.523,1.794-2.752c0-2.441,0.821-4.748,2.271-6.79
	l12.441,24.314c-0.324,0.051-0.625,0.163-0.893,0.327c-0.031-0.071-0.076-0.139-0.135-0.194L22.099,41.721z M43.19,70.931
	c-0.665,0-1.206-0.541-1.206-1.206v-3.619c0-0.663,0.541-1.206,1.206-1.206c0.666,0,1.207,0.543,1.207,1.206v3.619
	C44.397,70.39,43.856,70.931,43.19,70.931z M48.016,69.725c0,0.665-0.541,1.206-1.207,1.206s-1.206-0.541-1.206-1.206v-3.619
	c0-0.663,0.54-1.206,1.206-1.206s1.207,0.543,1.207,1.206V69.725z M51.81,59.649l-4.194,4.194c-0.253-0.092-0.522-0.149-0.807-0.149
	c-0.724,0-1.366,0.326-1.808,0.834c-0.444-0.508-1.086-0.834-1.811-0.834c-0.285,0-0.553,0.058-0.807,0.149l-4.217-4.217
	c-0.3-0.271-0.402-0.461-0.402-0.757c0-0.665,0.541-1.206,1.205-1.206c0.302,0,0.68,0.339,0.78,0.427l3.015,3.015
	c0.123,0.121,0.283,0.179,0.441,0.174c0.503,0.375,1.121,0.606,1.795,0.606c0.673,0,1.29-0.231,1.793-0.606
	c0.16,0.005,0.32-0.053,0.441-0.174l2.991-2.992c0.125-0.11,0.502-0.449,0.804-0.449c0.666,0,1.207,0.541,1.207,1.206
	C52.236,59.166,52.135,59.356,51.81,59.649z"/>
</svg>
