<?xml version="1.0" encoding="utf-8"?>
<!-- Generator: Adobe Illustrator 16.0.0, SVG Export Plug-In . SVG Version: 6.00 Build 0)  -->
<!DOCTYPE svg PUBLIC "-//W3C//DTD SVG 1.1//EN" "http://www.w3.org/Graphics/SVG/1.1/DTD/svg11.dtd">
<svg version="1.1" id="Calque_1" xmlns="http://www.w3.org/2000/svg" xmlns:xlink="http://www.w3.org/1999/xlink" x="0px" y="0px"
	 width="90px" height="90px" viewBox="0 0 90 90" enable-background="new 0 0 90 90" xml:space="preserve">
<circle opacity="0.2" fill="#FFFFFF" enable-background="new    " cx="45" cy="45" r="43.615"/>
<g>
	<path fill="#FFFFFF" d="M48.438,39.644c1.162-1.79,0.537-4.116-1.254-5.279c-0.895-0.537-1.878-0.716-2.863-0.448
		c-0.984,0.269-1.879,0.806-2.416,1.7c-0.537,0.895-0.716,1.879-0.447,2.863c0.268,0.984,0.805,1.879,1.7,2.416
		c0.626,0.358,1.342,0.626,2.058,0.626C46.467,41.434,47.721,40.807,48.438,39.644z M46.826,38.66
		c-0.626,0.895-1.79,1.163-2.774,0.626c-0.448-0.268-0.805-0.715-0.895-1.252c-0.089-0.537,0-1.074,0.269-1.521
		c0.269-0.447,0.716-0.806,1.253-0.895c0.179,0,0.268-0.089,0.447-0.089c0.358,0,0.716,0.089,1.074,0.269
		C47.184,36.512,47.452,37.765,46.826,38.66z"/>
	<path fill="#FFFFFF" d="M52.193,43.134c-0.895-0.537-1.879-0.716-2.862-0.448c-0.983,0.269-1.879,0.806-2.416,1.7
		c-1.163,1.79-0.537,4.116,1.253,5.279c0.626,0.358,1.342,0.626,2.059,0.626c1.252,0,2.504-0.626,3.221-1.79
		C54.521,46.624,53.984,44.207,52.193,43.134z M51.836,47.428c-0.626,0.896-1.79,1.164-2.773,0.627
		c-0.895-0.627-1.162-1.791-0.625-2.773c0.268-0.448,0.715-0.716,1.252-0.896c0.179,0,0.269-0.09,0.447-0.09
		c0.357,0,0.715,0.09,1.073,0.269C52.104,45.281,52.463,46.443,51.836,47.428z"/>
	<path fill="#FFFFFF" d="M58.458,40.36c0.537-0.895,0.716-1.879,0.446-2.864c-0.268-0.984-0.805-1.879-1.61-2.416
		c-1.79-1.164-4.116-0.537-5.278,1.253c-0.537,0.895-0.717,1.879-0.447,2.863c0.268,0.984,0.805,1.879,1.699,2.416
		c0.627,0.358,1.342,0.626,2.059,0.626c0.27,0,0.537,0,0.895-0.089C57.116,41.792,57.921,41.165,58.458,40.36z M53.537,37.228
		c0.357-0.626,0.984-0.895,1.699-0.895c0.359,0,0.717,0.089,1.074,0.268l0,0c0.447,0.269,0.807,0.716,0.896,1.253
		s0,1.073-0.269,1.521c-0.269,0.447-0.715,0.716-1.252,0.895c-0.537,0.09-1.074,0-1.521-0.268c-0.447-0.269-0.805-0.716-0.895-1.253
		S53.268,37.675,53.537,37.228z"/>
	<path fill="#FFFFFF" d="M50.764,25.506c-0.449-0.09-0.896-0.179-1.343-0.269c-1.252-0.269-2.505-0.358-3.758-0.358
		c-11.811,0-21.475,9.664-21.475,21.475c0,11.812,9.664,21.476,21.475,21.476c3.132,0,6.264-0.716,9.127-2.058
		c0.806-0.358,1.61-0.806,2.327-1.252c6.264-3.938,10.021-10.737,10.021-18.164C67.137,36.423,60.426,27.833,50.764,25.506z
		 M45.662,65.95c-10.827,0-19.596-8.769-19.596-19.595c0-10.828,8.769-19.597,19.596-19.597c1.164,0,2.326,0.089,3.49,0.358
		c0.357,0.089,0.806,0.179,1.162,0.269c8.859,2.058,14.943,9.843,14.943,18.97c0,6.801-3.398,12.975-9.126,16.644
		c-0.716,0.446-1.432,0.806-2.147,1.163C51.389,65.324,48.525,65.95,45.662,65.95z"/>
</g>
</svg>
