<?xml version="1.0" encoding="utf-8"?>
<!-- Generator: Adobe Illustrator 16.0.0, SVG Export Plug-In . SVG Version: 6.00 Build 0)  -->
<!DOCTYPE svg PUBLIC "-//W3C//DTD SVG 1.1//EN" "http://www.w3.org/Graphics/SVG/1.1/DTD/svg11.dtd">
<svg version="1.1" id="Calque_1" xmlns="http://www.w3.org/2000/svg" xmlns:xlink="http://www.w3.org/1999/xlink" x="0px" y="0px"
	 width="90px" height="90px" viewBox="0 0 90 90" enable-background="new 0 0 90 90" xml:space="preserve">
<circle opacity="0.2" fill="#FFFFFF" enable-background="new    " cx="45" cy="45" r="43.615"/>
<path fill="#FFFFFF" d="M62.855,45.246L60.747,26.86c0-0.469-0.351-0.819-0.819-1.054l-5.853-1.64
	c-0.587-0.117-1.29,0.234-1.406,0.82c-0.117,0.585,0.234,1.288,0.821,1.405l5.035,1.405l0.821,6.792L34.52,34.706l-1.638-4.451
	h1.521c0.704,0,1.172-0.468,1.172-1.17s-0.468-1.171-1.172-1.171H28.08c-0.702,0-1.17,0.469-1.17,1.171s0.468,1.17,1.17,1.17h2.343
	l2.108,5.856l-3.045,9.368c-0.702-0.117-1.406-0.234-2.225-0.234c-5.621,0-10.306,4.568-10.306,10.305
	c0,5.738,4.685,10.306,10.306,10.306c4.449,0,8.197-2.812,9.72-6.793h3.982l-0.468,1.873h-1.406c-0.702,0-1.17,0.469-1.17,1.172
	c0,0.701,0.468,1.169,1.17,1.169h4.568c0.701,0,1.17-0.47,1.17-1.169c0-0.703-0.469-1.172-1.17-1.172h-0.703l0.469-1.873h2.809
	c1.992,0,3.632-1.639,3.632-3.629c0-0.352,0-0.587-0.117-0.937l10.064-15.34l0.7,6.323c-4.566,1.055-8.079,5.152-8.079,10.072
	c0,5.736,4.685,10.305,10.305,10.305c5.739,0,10.306-4.685,10.306-10.305C73.16,49.812,68.594,45.246,62.855,45.246z M33.813,39.742
	l4.331,12.18h-1.17c-0.938-2.579-2.812-4.569-5.271-5.738L33.813,39.742z M35.336,55.552c0,0.468,0,0.819-0.117,1.287h-6.676
	c-0.702,0-1.288-0.586-1.288-1.287c0-0.703,0.586-1.289,1.288-1.289h6.676C35.22,54.732,35.336,55.084,35.336,55.552z
	 M31.003,48.408c1.522,0.821,2.694,1.991,3.395,3.514h-4.566L31.003,48.408z M27.256,63.514c-4.332,0-7.963-3.513-7.963-7.962
	c0-4.451,3.63-7.964,7.963-7.964c0.468,0,0.937,0,1.523,0.117l-1.406,4.451c-1.404,0.469-2.343,1.873-2.343,3.396
	c0,1.991,1.64,3.632,3.63,3.632h5.973C33.111,61.759,30.417,63.514,27.256,63.514z M46.109,56.839h-8.664
	c0-0.468,0.118-0.821,0.118-1.288s0-0.82-0.118-1.289h8.664c0.119,0,0.354,0,0.469,0.118c0,0,0,0,0.118,0
	c0.119,0,0.235,0.118,0.354,0.235l0,0c0.231,0.233,0.351,0.586,0.351,0.82C47.396,56.253,46.812,56.839,46.109,56.839z
	 M48.218,52.506c-0.234-0.116-0.353-0.233-0.586-0.352l0,0c-0.235,0-0.468-0.117-0.702-0.117c0,0,0,0-0.119,0
	c-0.232,0-0.468-0.118-0.701-0.118h-1.171l0.469-1.873h1.404c0.704,0,1.172-0.469,1.172-1.17c0-0.702-0.468-1.171-1.172-1.171
	h-4.567c-0.702,0-1.17,0.469-1.17,1.171c0,0.701,0.468,1.17,1.17,1.17h0.702l-0.467,1.873h-1.991l-5.27-14.872l23.068-0.117
	L48.218,52.506z M62.855,53.677c1.054,0,1.874,0.82,1.874,1.872c0,1.055-0.82,1.874-1.874,1.874s-1.873-0.821-1.873-1.874
	C60.982,54.497,61.802,53.677,62.855,53.677z M62.855,63.514c-4.45,0-7.964-3.628-7.964-7.962c0-3.748,2.577-6.792,5.973-7.729
	l0.469,3.864c-1.521,0.587-2.577,2.106-2.577,3.864c0,2.344,1.872,4.218,4.217,4.218c2.342,0,4.214-1.874,4.214-4.218
	c0-2.107-1.52-3.748-3.394-4.098l-0.469-3.865c4.216,0.117,7.729,3.631,7.729,7.964C70.819,60.001,67.187,63.514,62.855,63.514z"/>
</svg>
