<?xml version="1.0" encoding="utf-8"?>
<!-- Generator: Adobe Illustrator 16.0.0, SVG Export Plug-In . SVG Version: 6.00 Build 0)  -->
<!DOCTYPE svg PUBLIC "-//W3C//DTD SVG 1.1//EN" "http://www.w3.org/Graphics/SVG/1.1/DTD/svg11.dtd">
<svg version="1.1" id="Calque_1" xmlns="http://www.w3.org/2000/svg" xmlns:xlink="http://www.w3.org/1999/xlink" x="0px" y="0px"
	 width="90px" height="90px" viewBox="0 0 90 90" enable-background="new 0 0 90 90" xml:space="preserve">
<circle opacity="0.2" fill="#FFFFFF" cx="45" cy="45" r="43.615"/>
<g>
	<path fill="#FFFFFF" d="M61.608,53.002c-2.112,0-3.824,1.712-3.824,3.823c0,2.112,1.712,3.825,3.825,3.825
		c2.095-0.001,3.8-1.686,3.823-3.781c0.024-2.112-1.669-3.844-3.78-3.867C61.638,53.002,61.622,53.002,61.608,53.002z
		 M61.608,58.306c-0.817,0-1.48-0.664-1.48-1.481c0.001-0.816,0.664-1.479,1.481-1.479c0.817,0,1.479,0.663,1.479,1.48
		c0,0.015,0,0.029-0.001,0.043C63.064,57.669,62.409,58.306,61.608,58.306z"/>
	<path fill="#FFFFFF" d="M68.317,28.456c-9.539-9.69-25.128-9.812-34.818-0.274c-2.888,2.844-5.029,6.354-6.234,10.224
		c-0.679,2.292-2.784,3.866-5.175,3.868h-0.13l-3.899,0.432c-1.967,0.158-3.485,1.798-3.49,3.771v1.751
		c-0.002,0.611,0.47,1.121,1.08,1.166l20.419,0.854c1.242-0.004,2.442,0.451,3.371,1.275c1.255,1.177,1.836,2.905,1.544,4.603
		l-0.41,2.539v0.063c-0.527,3.309,1.008,6.604,3.878,8.33c1.528,0.878,3.263,1.332,5.024,1.317c1.734,0.006,3.438-0.453,4.938-1.328
		c0.227,0.162,0.442,0.335,0.681,0.476c1.519,0.894,3.249,1.367,5.012,1.371c1.922,0.021,3.806-0.541,5.401-1.608
		c6.256-4.322,10.049-12.761,9.918-21.921C75.331,39.021,72.783,32.961,68.317,28.456z M45.631,65.091
		c-2.106-1.236-3.204-3.664-2.745-6.062l0.399-2.518c0.369-2.145-0.219-4.344-1.609-6.017l4.959,0.205l0,0
		c2.75-0.023,4.999,2.188,5.022,4.938c0.003,0.323-0.025,0.644-0.086,0.961l-0.409,2.539v0.065c-0.294,2.166,0.238,4.364,1.49,6.157
		c-2.251,1.013-4.846,0.914-7.012-0.27H45.631z M64.18,65.371c-2.402,1.51-5.436,1.584-7.908,0.194
		c-2.1-1.23-3.203-3.646-2.754-6.04l0.398-2.516c0.729-3.979-1.907-7.796-5.887-8.524c-0.438-0.079-0.884-0.12-1.329-0.119
		l-29.807-1.221v-0.67c-0.026-0.768,0.552-1.422,1.318-1.49l0,0l3.856-0.422c3.389-0.034,6.364-2.265,7.346-5.509
		c3.655-11.779,16.167-18.365,27.945-14.711c9.251,2.871,15.596,11.377,15.711,21.062C73.223,53.79,69.829,61.449,64.18,65.371z"/>
</g>
</svg>
