<?xml version="1.0" encoding="utf-8"?>
<!-- Generator: Adobe Illustrator 16.0.0, SVG Export Plug-In . SVG Version: 6.00 Build 0)  -->
<!DOCTYPE svg PUBLIC "-//W3C//DTD SVG 1.1//EN" "http://www.w3.org/Graphics/SVG/1.1/DTD/svg11.dtd">
<svg version="1.1" id="Calque_1" xmlns="http://www.w3.org/2000/svg" xmlns:xlink="http://www.w3.org/1999/xlink" x="0px" y="0px"
	 width="90px" height="90px" viewBox="0 0 90 90" enable-background="new 0 0 90 90" xml:space="preserve">
<circle opacity="0.2" fill="#FFFFFF" cx="45" cy="43.615" r="43.615"/>
<g transform="translate(0,-1020.3622)">
	<path fill="#FFFFFF" d="M45,1063.184c-2.514,0-4.57,2.055-4.57,4.569c0,2.51,2.057,4.566,4.57,4.566s4.57-2.057,4.57-4.566
		C49.57,1065.239,47.514,1063.184,45,1063.184z M45,1065.01c1.525,0,2.743,1.22,2.743,2.744c0,1.522-1.218,2.741-2.743,2.741
		s-2.741-1.219-2.741-2.741C42.259,1066.229,43.475,1065.01,45,1065.01z"/>
	<path fill="#FFFFFF" d="M58.846,1060.877l-7.312,11.861c-0.089,0.142-0.135,0.31-0.135,0.479v10.988h1.828v-10.729l7.176-11.643
		L58.846,1060.877z"/>
	<path fill="#FFFFFF" d="M31.154,1060.877l-1.557,0.956l7.177,11.661v10.711h1.829v-10.97c-0.002-0.169-0.048-0.334-0.137-0.479
		L31.154,1060.877L31.154,1060.877z"/>
	<path fill="#FFFFFF" d="M44.628,1037.001c-1.25,0.019-2.18,0.866-3.37,2.059c-1.188,1.193-2.535,2.845-3.992,4.835
		c-0.941,1.284-1.938,2.746-2.945,4.269l1.536,0.998c0.99-1.497,1.967-2.932,2.885-4.185c1.425-1.944,2.738-3.542,3.815-4.624
		c1.08-1.082,2.028-1.524,2.091-1.524s1.015,0.424,2.111,1.489c1.096,1.062,2.436,2.642,3.894,4.562
		c2.91,3.839,6.305,9.051,9.451,14.401c2.385,4.054,4.624,8.185,6.418,11.868l1.545-1.003c-1.803-3.689-4.029-7.778-6.392-11.792
		c-3.175-5.4-6.592-10.653-9.569-14.581c-1.491-1.963-2.865-3.592-4.075-4.766C46.821,1037.834,45.879,1036.99,44.628,1037.001
		L44.628,1037.001z M33.325,1049.696c-0.33,0.509-0.651,1.013-0.98,1.539l1.531,0.996c0.331-0.528,0.652-1.03,0.98-1.539
		L33.325,1049.696z M31.387,1052.791c-1.161,1.896-2.326,3.842-3.455,5.837c-3.09,5.452-5.928,11.036-7.842,15.58
		c-0.957,2.272-1.68,4.283-2.092,5.917c-0.412,1.635-0.669,2.867-0.036,3.944c0.635,1.08,1.843,1.456,3.472,1.89
		c1.628,0.435,3.732,0.779,6.183,1.045c4.171,0.455,9.337,0.679,14.641,0.708v-1.828c-5.252-0.029-10.363-0.257-14.437-0.701
		c-2.396-0.261-4.44-0.598-5.916-0.992c-1.476-0.393-2.331-0.989-2.364-1.046c-0.03-0.055-0.14-1.093,0.232-2.573
		c0.375-1.482,1.072-3.431,2.007-5.652c1.869-4.44,4.684-9.984,7.743-15.387c1.111-1.961,2.253-3.879,3.396-5.743l-1.531-0.996
		V1052.791z M68.849,1071.815l-1.545,1.009c0.259,0.558,0.544,1.142,0.777,1.67l1.545-1.002
		C69.388,1072.953,69.111,1072.379,68.849,1071.815L68.849,1071.815z M70.348,1075.2l-1.56,1.016c0.606,1.49,1.12,2.869,1.408,3.944
		c0.4,1.477,0.309,2.515,0.277,2.57c-0.031,0.055-0.876,0.669-2.347,1.086c-1.47,0.418-3.503,0.788-5.895,1.089
		c-4.082,0.514-9.216,0.818-14.491,0.931v1.83c5.333-0.115,10.527-0.42,14.714-0.946c2.445-0.307,4.549-0.688,6.169-1.146
		c1.621-0.46,2.822-0.858,3.438-1.946c0.614-1.088,0.336-2.314-0.102-3.94C71.619,1078.416,71.038,1076.867,70.348,1075.2
		L70.348,1075.2z M45.915,1085.874c-0.297,0-0.587,0.017-0.884,0.017c-0.316,0.002-0.63,0-0.946,0v1.827c0.321,0,0.638,0,0.957,0
		c0.291-0.002,0.58-0.019,0.873-0.019V1085.874z"/>
</g>
</svg>
