<?xml version="1.0" encoding="utf-8"?>
<!-- Generator: Adobe Illustrator 16.0.0, SVG Export Plug-In . SVG Version: 6.00 Build 0)  -->
<!DOCTYPE svg PUBLIC "-//W3C//DTD SVG 1.1//EN" "http://www.w3.org/Graphics/SVG/1.1/DTD/svg11.dtd">
<svg version="1.1" id="Calque_1" xmlns="http://www.w3.org/2000/svg" xmlns:xlink="http://www.w3.org/1999/xlink" x="0px" y="0px"
	 width="90px" height="90px" viewBox="0 0 90 90" enable-background="new 0 0 90 90" xml:space="preserve">
<circle opacity="0.2" fill="#FFFFFF" cx="45" cy="45" r="43.615"/>
<g transform="translate(0,-1020.3622)">
	<path fill="#FFFFFF" d="M45,1039.283c-1.72,0-3.44,0.308-4.816,0.996c-1.044,0.523-1.924,1.341-2.289,2.395h-4.494
		c-0.055-0.001-0.109,0.002-0.163,0.019c-0.128-0.001-0.257-0.017-0.385,0c-0.004,0-0.008-0.001-0.013,0
		c-0.124,0.017-0.244,0.048-0.35,0.111c-1.412,0.214-2.74,0.978-3.508,2.311c-3.176,5.522-6.727,11.671-9.601,16.66
		c-0.949,1.648-0.381,3.775,1.264,4.728c0.811,0.475,1.625,0.944,2.435,1.413c1.645,0.951,3.771,0.381,4.721-1.268
		c1.837-3.191,3.354-5.824,4.975-8.638c0,0.133,0.009,0.271,0.009,0.404c0,4.402-0.404,8.648-1.187,11.79
		c-1.601,6.418-4.835,15.811-4.835,15.811c-0.007,0.021-0.014,0.042-0.019,0.063c-0.205,0.809,0.124,1.598,0.596,2.072
		c0.471,0.474,1.054,0.739,1.598,0.888c11.426,3.134,20.606,3.273,32.786,0c0.548-0.146,1.137-0.415,1.617-0.892
		c0.48-0.476,0.819-1.296,0.57-2.11l-4.848-15.861c-0.807-3.022-1.271-7.105-1.346-11.309c1.495,2.594,2.989,5.188,4.482,7.781
		c0.95,1.648,3.076,2.217,4.721,1.265c0.811-0.469,1.621-0.936,2.432-1.404h0.003c1.646-0.951,2.213-3.075,1.264-4.724
		c-1.715-2.979-3.438-5.957-5.15-8.938l-4.45-7.726c-0.837-1.453-2.315-2.316-3.871-2.425c-0.027-0.002-0.053-0.002-0.08,0v-0.017
		c-0.056,0-0.111,0.016-0.166,0.022c-0.079-0.023-0.16-0.032-0.242-0.028h-4.555c-0.365-1.054-1.245-1.871-2.289-2.395
		C48.44,1039.591,46.72,1039.283,45,1039.283z M45,1040.916c1.516,0,3.033,0.298,4.084,0.824c0.872,0.437,1.358,0.951,1.506,1.599
		c-0.032,0.167-0.011,0.339,0.06,0.493c-0.031,4.016-2.351,7.901-5.274,11.917c-2.681-3.147-6.032-7.867-6.032-12
		c0-0.855,0.521-1.481,1.572-2.009C41.968,1041.214,43.484,1040.916,45,1040.916z M56.864,1044.28
		c0.055,0.017,0.111,0.03,0.168,0.035c1.033,0.073,2.008,0.639,2.572,1.617l4.45,7.723c1.713,2.983,3.436,5.96,5.15,8.938
		c0.513,0.892,0.219,1.988-0.668,2.502c-0.811,0.469-1.621,0.938-2.432,1.407c-0.889,0.515-1.979,0.222-2.493-0.668
		c-1.716-2.983-3.433-5.964-5.15-8.944l-0.833-1.449c-0.394-0.688-1.438-0.467-1.519,0.322c-0.099,0.931-0.075,1.898-0.077,2.645
		v0.017c0.04,4.123,0.494,8.066,1.251,11.271h-9.518v-0.809c0-0.45-0.365-0.814-0.814-0.814h-3.237c-0.45,0-0.815,0.364-0.815,0.814
		v0.809h-6.131c1.691-2.337,3.453-4.545,5.173-6.656c5.231-6.421,10.059-12.086,10.319-18.729h4.399
		c0.069,0,0.138-0.017,0.204-0.025V1044.28z M33.636,1044.293v0.01h4.104c0.263,4.911,3.909,9.69,6.618,12.803
		c-1.236,1.618-2.266,3.16-3.68,4.896c-1.952,2.396-3.993,4.936-5.924,7.688h-1.391c0.697-3.211,1.054-7.157,1.054-11.277
		c0-1.074-0.027-2.158-0.073-3.238c0.02-0.13,0.008-0.263-0.035-0.388l-0.003-0.02l-0.01-0.022c-0.261-0.765-1.355-0.724-1.56,0.058
		l-0.003,0.017c-2.186,3.794-4.001,6.944-6.344,11.013c-0.513,0.891-1.604,1.183-2.492,0.669c-0.812-0.47-1.623-0.938-2.429-1.41
		h-0.003c-0.888-0.514-1.182-1.611-0.668-2.503c2.873-4.987,6.423-11.139,9.601-16.662c0.563-0.979,1.539-1.542,2.572-1.614h0.009
		c0.149-0.017,0.298-0.017,0.449,0C33.497,1044.309,33.568,1044.308,33.636,1044.293z M44.529,1069.701h1.607v1.614h-1.607V1069.701
		z M32.978,1071.324h0.685c-0.401,0.605-0.806,1.206-1.19,1.833C32.642,1072.542,32.826,1071.912,32.978,1071.324z M35.613,1071.324
		h3.925c-0.428,0.323-0.835,0.676-1.2,1.061c-1.308,1.376-2.232,3.035-2.232,4.611c-0.016,1.103,1.646,1.103,1.63,0
		c0-0.855,0.688-2.336,1.782-3.488c0.98-1.032,2.232-1.761,3.38-1.91v0.532c0,0.45,0.365,0.814,0.815,0.814h3.237
		c0.45,0,0.814-0.364,0.814-0.814v-0.437c2.386,0.897,4.711,3.179,5.335,5.514c0.28,1.05,1.855,0.63,1.575-0.421
		c-0.586-2.194-2.147-4.148-4.084-5.462h7.111l4.647,15.196c0.07,0.231,0.033,0.286-0.159,0.478
		c-0.193,0.191-0.574,0.386-0.892,0.471c-11.974,3.215-20.707,3.082-31.933,0c-0.32-0.088-0.684-0.278-0.872-0.468
		c-0.062-0.062-0.085-0.113-0.118-0.162C29.828,1080.869,32.529,1075.828,35.613,1071.324z"/>
</g>
</svg>
