<?xml version="1.0" encoding="utf-8"?>
<!-- Generator: Adobe Illustrator 16.0.0, SVG Export Plug-In . SVG Version: 6.00 Build 0)  -->
<!DOCTYPE svg PUBLIC "-//W3C//DTD SVG 1.1//EN" "http://www.w3.org/Graphics/SVG/1.1/DTD/svg11.dtd">
<svg version="1.1" id="Calque_1" xmlns="http://www.w3.org/2000/svg" xmlns:xlink="http://www.w3.org/1999/xlink" x="0px" y="0px"
	 width="90px" height="90px" viewBox="0 0 90 90" enable-background="new 0 0 90 90" xml:space="preserve">
<circle opacity="0.2" fill="#FFFFFF" cx="45" cy="45" r="43.615"/>
<path fill="#FFFFFF" d="M27.735,52.395h2.305c1.369,2.83,3.218,5.454,5.317,7.417c-0.068,0.137-0.068,0.273-0.137,0.388
	c-0.457,2.441,1.187,4.725,3.606,5.136c0.205,0,0.388,0.068,0.593,0.068c0.662,0,1.506-0.206,2.442-0.457l-3.149,6.185l1.712,3.424
	l4.541-9.266l0,0l4.542,9.266l1.712-3.424l-3.149-6.185c0.844,0.273,1.78,0.457,2.442,0.457c0.205,0,0.388,0,0.593-0.068
	c2.442-0.457,4.017-2.694,3.605-5.136c0-0.137-0.068-0.273-0.136-0.388c2.099-1.963,3.947-4.61,5.317-7.417h2.305
	c3.605,0,7.303-9.197,7.303-14.4c0-1.85-0.388-3.356-1.255-4.474c-0.73-0.981-2.031-2.1-4.473-2.1h-0.593
	c-0.594-5.728-5.523-15.839-18.007-15.976l0,0h-0.137l0,0l0,0l0,0h-0.137l0,0c-12.483,0.068-17.413,10.248-18.075,15.976h-0.593
	c-2.442,0-3.812,1.188-4.474,2.1c-0.798,1.117-1.255,2.624-1.255,4.474C20.433,43.129,24.129,52.395,27.735,52.395z M39.512,62.185
	L39.512,62.185c-0.662-0.136-1.118-0.73-0.981-1.369c0.068-0.593,0.593-0.981,1.187-0.981c0.068,0,0.137,0,0.205,0
	c0.388,0.069,1.324,0.73,2.374,1.644C41.086,61.865,40.037,62.185,39.512,62.185z M50.603,62.185L50.603,62.185
	c-0.593,0-1.643-0.319-2.761-0.73c1.05-0.844,1.963-1.506,2.374-1.643c0.068,0,0.137,0,0.206,0c0.593,0,1.118,0.456,1.187,0.981
	C51.722,61.454,51.265,62.049,50.603,62.185z M59.024,44.771c-0.137,0.73-0.273,1.507-0.457,2.237
	c-0.912,3.674-3.218,7.554-5.774,10.132c-0.662-0.387-1.438-0.661-2.305-0.661c-0.273,0-0.525,0-0.798,0.068
	c-1.37,0.274-3.218,1.849-4.61,3.081l0,0c-1.369-1.256-3.218-2.898-4.61-3.081c-0.274-0.068-0.525-0.068-0.799-0.068
	c-0.844,0-1.643,0.274-2.305,0.661c-2.625-2.555-4.861-6.436-5.774-10.132c-0.205-0.73-0.319-1.507-0.457-2.237
	c-0.068-0.798,0.457-1.962,1.507-3.148c1.118-1.256,2.761-2.489,4.792-3.562c0.069,0,0.137-0.067,0.137-0.067
	c2.168-1.051,4.861-1.78,7.486-1.78h0.068c2.625,0,5.317,0.729,7.485,1.78c0.068,0,0.137,0.067,0.137,0.067
	c1.962,0.982,3.675,2.306,4.793,3.562C58.568,42.854,59.093,43.974,59.024,44.771z M61.717,47.853
	c0.206-0.844,0.388-1.712,0.525-2.557l0,0l0,0c0.731-3.947,0.982-7.827,1.05-10.658h0.593c1.323,0,2.031,0.526,2.374,1.85
	c0.981,4.131-2.488,11.708-4.017,12.689h-0.844C61.444,48.72,61.581,48.31,61.717,47.853z M60.075,32.471
	c0,1.643-0.069,4.085-0.32,6.847c-1.255-1.37-3.012-2.762-5.135-3.88c-0.913-2.168-1.712-7.691-2.031-15.108
	C58.043,23.342,60.075,29.321,60.075,32.471z M40.744,19.143c1.255-0.273,2.762-0.456,4.199-0.456l0,0l0,0l0,0l0,0l0,0
	c1.438,0,3.013,0.205,4.199,0.456c0.206,5.066,0.662,10.84,1.506,14.789c-1.78-0.525-3.606-0.845-5.591-0.845l0,0h-0.388
	c-1.963,0-3.812,0.319-5.591,0.845C40.082,29.915,40.562,24.141,40.744,19.143z M37.458,20.375
	c-0.388,7.371-1.119,12.94-2.031,15.108c-2.1,1.118-3.88,2.486-5.135,3.879c-0.273-2.761-0.32-5.202-0.32-6.846
	C29.972,29.321,32.003,23.342,37.458,20.375z M23.856,36.419c0.319-1.324,0.981-1.849,2.374-1.849h0.593
	c0.068,2.761,0.319,6.71,1.049,10.658l0,0l0,0c0.137,0.844,0.32,1.712,0.525,2.557c0.137,0.456,0.274,0.844,0.388,1.322h-0.845
	C26.412,48.195,22.875,40.573,23.856,36.419z"/>
</svg>
