<?xml version="1.0" encoding="utf-8"?>
<!-- Generator: Adobe Illustrator 16.0.0, SVG Export Plug-In . SVG Version: 6.00 Build 0)  -->
<!DOCTYPE svg PUBLIC "-//W3C//DTD SVG 1.1//EN" "http://www.w3.org/Graphics/SVG/1.1/DTD/svg11.dtd">
<svg version="1.1" id="Calque_1" xmlns="http://www.w3.org/2000/svg" xmlns:xlink="http://www.w3.org/1999/xlink" x="0px" y="0px"
	 width="90px" height="90px" viewBox="0 0 90 90" enable-background="new 0 0 90 90" xml:space="preserve">
<circle opacity="0.2" fill="#FFFFFF" enable-background="new    " cx="45" cy="46.427" r="43.615"/>
<path fill="#FFFFFF" d="M54.098,23.705c-3.361-1.121-7.098-1.4-10.74-0.841c-1.215,0.188-2.335,0.467-3.549,0.841
	C30.749,26.787,24.585,35.379,24.585,45c0,12.329,10.086,22.415,22.415,22.415S69.415,57.328,69.415,45
	C69.415,35.379,63.251,26.787,54.098,23.705z M63.998,56.486h-7.473l-3.174-4.389l2.987-9.154l5.138-1.681l6.069,4.389
	C67.359,49.669,66.146,53.404,63.998,56.486z M56.713,58.355h5.791c-1.027,1.215-2.242,2.24-3.456,3.176
	c-1.307,0.934-2.708,1.681-4.108,2.334L56.713,58.355z M34.952,61.625c-1.307-0.936-2.428-2.055-3.455-3.176h5.79l1.775,5.511
	C37.661,63.307,36.259,62.559,34.952,61.625z M37.474,56.486h-7.472c-2.148-3.082-3.362-6.817-3.549-10.834l6.07-4.389l5.137,1.681
	l2.988,9.154L37.474,56.486z M26.546,43.318c0.094-1.588,0.467-3.175,0.934-4.67c0.467-1.494,1.121-2.988,1.962-4.296l1.774,5.511
	L26.546,43.318z M42.423,51.352l-2.802-8.78l7.472-5.417l7.472,5.417l-2.801,8.78H42.423z M43.544,24.733
	c0.093,0,0.28,0,0.374-0.094c0.373-0.094,0.748-0.094,1.027-0.094c0.187,0,0.374,0,0.561,0c0.374,0,0.84,0,1.215-0.093
	c0.092,0,0.279,0,0.372,0c0.374,0,0.841,0,1.214,0.093c0.188,0,0.375,0,0.562,0c0.373,0,0.748,0.094,1.026,0.094
	c0.094,0,0.28,0,0.375,0.094c0.467,0.093,0.84,0.187,1.307,0.28l-4.669,3.456l-4.67-3.456
	C42.704,24.919,43.171,24.826,43.544,24.733z M66.52,38.648c0.467,1.495,0.842,3.082,0.935,4.67l-4.763-3.456l1.774-5.511
	C65.398,35.66,66.052,37.061,66.52,38.648z M63.251,32.391l-2.335,7.098l-5.23,1.682l-7.75-5.604v-5.51l6.069-4.39
	C57.741,27.067,60.916,29.403,63.251,32.391z M39.996,25.667l6.07,4.39v5.51l-7.751,5.604l-5.23-1.682l-2.335-7.098
	C33.084,29.403,36.259,27.067,39.996,25.667z M41.303,64.706l-2.334-7.099l3.175-4.389h9.713l3.176,4.389l-2.335,7.099
	c-1.774,0.56-3.736,0.84-5.697,0.84C45.039,65.546,43.077,65.266,41.303,64.706z"/>
</svg>
