<?xml version="1.0" encoding="utf-8"?>
<!-- Generator: Adobe Illustrator 16.0.0, SVG Export Plug-In . SVG Version: 6.00 Build 0)  -->
<!DOCTYPE svg PUBLIC "-//W3C//DTD SVG 1.1//EN" "http://www.w3.org/Graphics/SVG/1.1/DTD/svg11.dtd">
<svg version="1.1" id="Calque_1" xmlns="http://www.w3.org/2000/svg" xmlns:xlink="http://www.w3.org/1999/xlink" x="0px" y="0px"
	 width="90px" height="90px" viewBox="0 0 90 90" enable-background="new 0 0 90 90" xml:space="preserve">
<circle opacity="0.2" fill="#FFFFFF" cx="45" cy="45" r="43.615"/>
<g transform="translate(0,-952.36218)">
	<path fill="#FFFFFF" d="M63.957,971.782c-0.134,0.015-0.258,0.073-0.354,0.167l-8.329,8.329c-0.111,0.114-0.171,0.269-0.167,0.428
		v1.227c-3.696-2.635-8.207-4.202-13.089-4.202c-12.479,0-22.608,10.131-22.608,22.609c0,12.479,10.129,22.608,22.608,22.608
		c12.479,0,22.608-10.129,22.608-22.608c0-4.882-1.566-9.394-4.202-13.089h1.227c0.159,0.003,0.313-0.056,0.428-0.166l8.33-8.331
		c0.236-0.228,0.243-0.605,0.014-0.841c-0.115-0.119-0.276-0.186-0.441-0.183h-5.355v-5.354c0.002-0.329-0.261-0.597-0.59-0.6
		C64.009,971.776,63.983,971.778,63.957,971.782z M63.437,973.827v4.239l-7.139,7.139v-4.238L63.437,973.827z M42.019,978.922
		c4.933,0,9.47,1.681,13.089,4.48v2.993l-3.849,3.85c-2.437-2.232-5.682-3.59-9.24-3.59c-7.551,0-13.685,6.134-13.685,13.685
		s6.133,13.684,13.685,13.684c7.55,0,13.684-6.133,13.684-13.684c0-3.567-1.365-6.821-3.607-9.259l3.83-3.83h3.031
		c2.799,3.618,4.48,8.156,4.48,13.089c0,11.837-9.582,21.419-21.418,21.419c-11.836,0-21.418-9.582-21.418-21.419
		C20.6,988.505,30.182,978.922,42.019,978.922z M64.273,978.922h4.257l-7.139,7.139h-4.276L64.273,978.922z M42.019,987.847
		c3.235,0,6.168,1.241,8.384,3.253l-5.484,5.484c-0.805-0.621-1.81-1.004-2.9-1.004c-2.622,0-4.76,2.138-4.76,4.76
		s2.138,4.76,4.76,4.76c2.621,0,4.759-2.138,4.759-4.76c0-1.097-0.377-2.114-1.003-2.919l5.485-5.483
		c2.017,2.216,3.253,5.162,3.253,8.402c0,6.907-5.587,12.494-12.494,12.494c-6.908,0-12.495-5.587-12.495-12.494
		C29.524,993.432,35.111,987.847,42.019,987.847z M42.019,996.77c0.767,0,1.482,0.242,2.063,0.65l-2.491,2.492
		c-0.229,0.237-0.223,0.615,0.014,0.845c0.236,0.228,0.611,0.224,0.841-0.009l2.473-2.473c0.412,0.583,0.669,1.293,0.669,2.063
		c0,1.978-1.591,3.569-3.569,3.569c-1.979,0-3.57-1.592-3.57-3.569C38.448,998.361,40.04,996.77,42.019,996.77z"/>
</g>
</svg>
