<?xml version="1.0" encoding="utf-8"?>
<!-- Generator: Adobe Illustrator 16.0.0, SVG Export Plug-In . SVG Version: 6.00 Build 0)  -->
<!DOCTYPE svg PUBLIC "-//W3C//DTD SVG 1.1//EN" "http://www.w3.org/Graphics/SVG/1.1/DTD/svg11.dtd">
<svg version="1.1" id="Calque_1" xmlns="http://www.w3.org/2000/svg" xmlns:xlink="http://www.w3.org/1999/xlink" x="0px" y="0px"
	 width="90px" height="90px" viewBox="0 0 90 90" enable-background="new 0 0 90 90" xml:space="preserve">
<circle opacity="0.2" fill="#FFFFFF" cx="45" cy="45" r="43.615"/>
<path fill="#FFFFFF" stroke="#FFFFFF" stroke-miterlimit="10" d="M67.639,43.935c-2.263-0.416-4.827-0.887-7.424-1.753
	c-8.351-2.783-20.371-11.933-20.49-12.024c-0.184-0.139-0.423-0.183-0.644-0.115c-0.221,0.068-0.395,0.238-0.468,0.457
	c-0.027,0.081-2.769,8.078-9.316,8.078c-6.317,0-6.422-5.479-6.424-5.71c0-0.258-0.138-0.495-0.362-0.622
	c-0.223-0.127-0.498-0.123-0.719,0.01c-0.155,0.093-3.839,2.361-5.322,8.291c-0.699,2.796-0.738,6.259-0.736,7.119
	c-0.443,0.769-2.191,3.942-2.84,7.188c-0.047,0.234,0.026,0.477,0.195,0.645c1.669,1.668,6.358,4.491,13.353,4.491h7.137
	c1.459,0,2.736-0.335,4.087-0.691c1.376-0.362,2.801-0.735,4.478-0.735c1.802,0,3.539,0.432,5.071,0.814
	c1.265,0.315,2.458,0.612,3.494,0.612h9.279c0.409,0,0.823-0.014,1.241-0.037c0.062,0.018,0.124,0.037,0.187,0.037
	c0.104,0,0.205-0.029,0.301-0.074c5.854-0.441,12.312-2.996,14.518-5.886c0.839-0.899,0.883-2.918,0.883-3.319
	C77.119,45.676,72.725,44.869,67.639,43.935z M21.621,34.205c0.447,2.067,2.037,5.799,7.677,5.799c6.203,0,9.324-5.837,10.315-8.145
	c1.175,0.873,3.591,2.624,6.548,4.547l-3.093,3.093c-0.279,0.279-0.279,0.73,0,1.01c0.139,0.139,0.322,0.209,0.504,0.209
	c0.183,0,0.366-0.07,0.505-0.209l3.312-3.312c0.598,0.379,1.213,0.76,1.838,1.139l-3.305,3.306c-0.279,0.279-0.279,0.731,0,1.009
	c0.14,0.139,0.322,0.21,0.505,0.21s0.366-0.071,0.504-0.21l3.562-3.562c0.626,0.368,1.261,0.729,1.898,1.08l-2.9,2.899
	c-0.279,0.279-0.279,0.731,0,1.009c0.139,0.141,0.322,0.21,0.504,0.21c0.184,0,0.366-0.069,0.505-0.209l3.205-3.205
	c0.665,0.348,1.328,0.68,1.986,0.991l-2.631,2.633c-0.279,0.279-0.279,0.729,0,1.01c0.14,0.139,0.323,0.208,0.505,0.208
	c0.183,0,0.366-0.069,0.505-0.208l2.855-2.856c0.051-0.05,0.082-0.11,0.114-0.173c0.738,0.324,1.464,0.613,2.171,0.866l-2.581,2.581
	c-0.279,0.278-0.279,0.729,0,1.009c0.14,0.14,0.322,0.209,0.505,0.209s0.366-0.069,0.504-0.209l2.855-2.855
	c0.08-0.079,0.13-0.173,0.164-0.271c2.374,0.717,4.671,1.156,6.723,1.533c5.274,0.968,8.104,1.656,8.292,5.012
	c-0.95,0.615-4.368,2.502-10.688,2.502H52.852c-3.614,0-7.641-0.562-11.535-1.107c-3.812-0.531-7.414-1.035-10.591-1.035
	c-3.746,0-8.311-1.127-13.561-3.333c0.012-1.131,0.099-4.115,0.691-6.485C18.75,37.318,20.535,35.21,21.621,34.205z M75.188,53.061
	c-0.024,0.023-0.046,0.05-0.067,0.077c-1.578,2.103-6.504,4.409-11.722,5.164l0.664-0.663c0.279-0.28,0.279-0.731,0-1.01
	c-0.279-0.279-0.731-0.279-1.009,0l-1.9,1.899c-0.389,0.023-0.778,0.034-1.165,0.034h-1.132l0.923-0.924
	c0.279-0.278,0.279-0.73,0-1.009c-0.279-0.279-0.73-0.279-1.009,0l-1.932,1.933h-2.264l0.923-0.924c0.28-0.278,0.28-0.73,0-1.009
	c-0.279-0.279-0.729-0.279-1.009,0l-1.932,1.933h-1.847c-0.123,0-0.259-0.018-0.391-0.027l0.896-0.896
	c0.279-0.278,0.279-0.73,0-1.009c-0.279-0.279-0.73-0.279-1.009,0l-1.428,1.427c-0.057,0.059-0.096,0.127-0.13,0.196
	c-0.347-0.08-0.706-0.166-1.086-0.262c-0.256-0.063-0.521-0.129-0.788-0.194l0.873-0.872c0.28-0.279,0.28-0.73,0-1.008
	c-0.279-0.28-0.729-0.28-1.009,0l-1.427,1.427c-0.03,0.029-0.043,0.066-0.066,0.099c-0.653-0.124-1.33-0.219-2.028-0.27l0.962-0.961
	c0.279-0.28,0.279-0.73,0-1.01s-0.73-0.279-1.009,0l-1.986,1.986c-0.979,0.08-1.875,0.253-2.723,0.459l1.436-1.436
	c0.279-0.28,0.279-0.73,0-1.01c-0.279-0.279-0.731-0.279-1.01,0l-2.855,2.854c-0.069,0.069-0.119,0.149-0.155,0.234
	c-0.724,0.156-1.445,0.271-2.196,0.271h-0.418l2.35-2.351c0.28-0.28,0.28-0.73,0-1.01c-0.279-0.279-0.729-0.279-1.008,0l-3.36,3.36
	h-2.264l2.351-2.351c0.279-0.28,0.279-0.73,0-1.01c-0.279-0.279-0.73-0.279-1.01,0l-3.359,3.36h-0.418
	c-0.612,0-1.199-0.029-1.773-0.073l2.277-2.277c0.279-0.28,0.279-0.73,0-1.01c-0.279-0.279-0.73-0.279-1.009,0l-2.855,2.854
	c-0.069,0.07-0.12,0.149-0.155,0.235c-0.684-0.105-1.334-0.238-1.95-0.393l2.401-2.401c0.28-0.279,0.28-0.73,0-1.01
	c-0.279-0.278-0.73-0.278-1.009,0l-2.855,2.855c-0.033,0.032-0.049,0.073-0.074,0.11c-0.596-0.199-1.148-0.416-1.659-0.643
	l2.742-2.742c0.279-0.278,0.279-0.729,0-1.009c-0.28-0.279-0.73-0.279-1.009,0l-2.855,2.856c-0.077,0.075-0.128,0.168-0.163,0.265
	c-0.566-0.31-1.053-0.619-1.457-0.91l2.627-2.629c0.28-0.278,0.28-0.73,0-1.009c-0.279-0.279-0.729-0.279-1.009,0l-1.97,1.97
	c0.629-2.062,1.585-3.95,2.07-4.843c5.368,2.241,10.064,3.377,13.966,3.377c3.078,0,6.632,0.496,10.395,1.022
	c3.942,0.549,8.02,1.119,11.732,1.119h12.133c5.417,0,8.864-1.32,10.575-2.215C75.475,52.511,75.35,52.897,75.188,53.061z"/>
</svg>
