<?xml version="1.0" encoding="utf-8"?>
<!-- Generator: Adobe Illustrator 16.0.0, SVG Export Plug-In . SVG Version: 6.00 Build 0)  -->
<!DOCTYPE svg PUBLIC "-//W3C//DTD SVG 1.1//EN" "http://www.w3.org/Graphics/SVG/1.1/DTD/svg11.dtd">
<svg version="1.1" id="Calque_1" xmlns="http://www.w3.org/2000/svg" xmlns:xlink="http://www.w3.org/1999/xlink" x="0px" y="0px"
	 width="90px" height="90px" viewBox="0 0 90 90" enable-background="new 0 0 90 90" xml:space="preserve">
<circle opacity="0.2" fill="#FFFFFF" cx="44.475" cy="45" r="43.615"/>
<g>
	<ellipse fill="#FFFFFF" stroke="#FFFFFF" stroke-miterlimit="10" cx="45" cy="57.308" rx="5.168" ry="1.984"/>
	<path fill="#FFFFFF" stroke="#FFFFFF" stroke-miterlimit="10" d="M45,57.83c-0.313,0-0.522-0.209-0.522-0.522V35.38l0,0V24
		c0-0.157,0.105-0.366,0.261-0.418c0.157-0.104,0.366-0.104,0.521,0l12.478,6.16c0.208,0.104,0.313,0.261,0.313,0.471
		c0,0.208-0.157,0.365-0.313,0.47l-12.165,5.012v21.561C45.522,57.568,45.313,57.83,45,57.83z M45.522,24.887v9.71l10.703-4.438
		L45.522,24.887z"/>
	<path fill="#FFFFFF" stroke="#FFFFFF" stroke-miterlimit="10" d="M45,66.496c-11.955,0-21.3-3.863-21.3-8.823
		c0-4.281,7.152-7.832,17.333-8.614c0.314,0,0.522,0.208,0.574,0.47c0,0.313-0.208,0.521-0.47,0.574
		c-9.345,0.73-16.393,3.968-16.393,7.623c0,4.229,9.293,7.778,20.256,7.778c10.963,0,20.256-3.549,20.256-7.778
		c0-3.603-7.048-6.892-16.393-7.623c-0.313,0-0.522-0.261-0.47-0.574c0-0.313,0.261-0.522,0.575-0.47
		c10.18,0.783,17.332,4.333,17.332,8.614C66.353,62.633,56.956,66.496,45,66.496z"/>
</g>
</svg>
