<?xml version="1.0" encoding="utf-8"?>
<!-- Generator: Adobe Illustrator 16.0.0, SVG Export Plug-In . SVG Version: 6.00 Build 0)  -->
<!DOCTYPE svg PUBLIC "-//W3C//DTD SVG 1.1//EN" "http://www.w3.org/Graphics/SVG/1.1/DTD/svg11.dtd">
<svg version="1.1" id="Calque_1" xmlns="http://www.w3.org/2000/svg" xmlns:xlink="http://www.w3.org/1999/xlink" x="0px" y="0px"
	 width="90px" height="90px" viewBox="0 0 90 90" enable-background="new 0 0 90 90" xml:space="preserve">
<circle opacity="0.2" fill="#FFFFFF" cx="45" cy="45" r="43.615"/>
<path fill="#FFFFFF" stroke="#FFFFFF" stroke-miterlimit="10" d="M64.73,42.65c-0.574,0-1.137,0.048-1.686,0.137l-1.864-8.233
	l0.483,0.104c0.044,0.01,0.087,0.014,0.131,0.014c0.179,0,0.351-0.076,0.47-0.213c0.149-0.17,0.194-0.409,0.118-0.622l-2.467-6.875
	c-0.065-0.183-0.213-0.325-0.398-0.384c-0.186-0.06-0.389-0.028-0.547,0.083l-1.572,1.101l-0.146-0.318
	c-0.098-0.212-0.305-0.354-0.54-0.365l-3.701-0.176c-0.34-0.016-0.637,0.25-0.652,0.593c-0.017,0.345,0.249,0.638,0.594,0.654
	l3.319,0.158l0.084,0.183l-0.912,0.638c-0.282,0.197-0.351,0.587-0.153,0.87c0.198,0.283,0.588,0.351,0.87,0.153l0.723-0.505
	l1.876,4.129c0.083,0.181,0.244,0.311,0.438,0.353l0.639,0.137l0.612,2.706l-22.563,4.942l-0.988-2.839
	c-0.02-0.057-0.047-0.109-0.081-0.156c0.332-0.262,0.625-0.575,0.86-0.928c0.32-0.479,0.805-0.814,1.441-0.995
	c0.075-0.021,0.151-0.04,0.226-0.056c0.347-0.075,0.646-0.085,0.795-0.085c0.087,0,0.14,0.003,0.14,0.003l0,0
	c0.34,0.028,0.64-0.222,0.674-0.562c0.032-0.339-0.214-0.643-0.553-0.681c-0.382-0.042-0.825-0.007-1.324,0.106
	c-0.098,0.021-0.195,0.045-0.29,0.072c-1.322,0.359-2.657,1.113-2.95,1.284c-0.796,0.275-1.538,0.415-2.211,0.415
	c-1.004,0-1.503-0.31-1.561-0.348c-0.243-0.193-0.582-0.171-0.808,0.042c-0.228,0.214-0.253,0.57-0.071,0.824
	c1.062,1.488,2.316,1.8,3.182,1.8c0.463,0,0.93-0.095,1.37-0.268l0.998,2.865l-3.99,3.42c-1.893-1.956-4.543-3.174-7.473-3.174
	c-5.734,0-10.401,4.667-10.401,10.402c0,5.734,4.667,10.401,10.401,10.401s10.401-4.667,10.401-10.401
	c0-0.123-0.003-0.245-0.008-0.367l4.984-0.477c0.011-0.001,0.021-0.003,0.031-0.005c0.007,0,0.012-0.001,0.019-0.002
	c0.028-0.005,0.058-0.013,0.087-0.022c0.003,0,0.006-0.002,0.008-0.002c0.005-0.001,0.009-0.003,0.014-0.005
	c0.01-0.003,0.02-0.008,0.029-0.012s0.018-0.008,0.028-0.013c0.003-0.002,0.006-0.003,0.008-0.004l20.62-10.552l0.335,1.473
	c-4.328,1.26-7.499,5.26-7.499,9.988c0,5.734,4.666,10.401,10.401,10.401s10.401-4.667,10.401-10.401
	C75.131,47.316,70.465,42.65,64.73,42.65z M57.923,28.919l1.093-0.766l1.812,5.048l-1.061-0.228L57.923,28.919z M33.672,53.052
	c0,4.633-3.769,8.402-8.401,8.402c-4.634,0-8.402-3.769-8.402-8.402s3.769-8.403,8.402-8.403c2.323,0,4.429,0.948,5.952,2.478
	l-6.358,5.45c-0.207,0.178-0.274,0.468-0.168,0.719c0.099,0.232,0.326,0.38,0.574,0.38c0.019,0,0.04-0.001,0.06-0.003l8.341-0.797
	C33.672,52.935,33.672,52.993,33.672,53.052z M32.036,48.074c0.76,1.032,1.292,2.243,1.517,3.557l-6.378,0.609L32.036,48.074z
	 M33.556,46.772l3.617-3.101l2.564,7.37l-4.19,0.401C35.276,49.706,34.575,48.113,33.556,46.772z M40.943,50.703l-2.646-7.601
	l22.166-4.856l0.536,2.193L40.943,50.703z M64.73,61.454c-4.634,0-8.402-3.769-8.402-8.402c0-3.778,2.505-6.98,5.941-8.035
	l1.852,8.173c0.065,0.29,0.323,0.487,0.609,0.487c0.045,0,0.092-0.005,0.138-0.016c0.336-0.076,0.547-0.411,0.472-0.747
	l-1.852-8.173c0.405-0.06,0.821-0.091,1.242-0.091c4.633,0,8.402,3.77,8.402,8.403S69.363,61.454,64.73,61.454z"/>
</svg>
