<?xml version="1.0" encoding="utf-8"?>
<!-- Generator: Adobe Illustrator 16.0.0, SVG Export Plug-In . SVG Version: 6.00 Build 0)  -->
<!DOCTYPE svg PUBLIC "-//W3C//DTD SVG 1.1//EN" "http://www.w3.org/Graphics/SVG/1.1/DTD/svg11.dtd">
<svg version="1.1" id="Calque_1" xmlns="http://www.w3.org/2000/svg" xmlns:xlink="http://www.w3.org/1999/xlink" x="0px" y="0px"
	 width="90px" height="90px" viewBox="0 0 90 90" enable-background="new 0 0 90 90" xml:space="preserve">
<circle opacity="0.2" fill="#FFFFFF" cx="45" cy="45" r="43.615"/>
<path fill="#FFFFFF" d="M54.187,31.439l-2.399-0.884l4.272-11.813c0.454-1.253-0.196-2.638-1.451-3.091
	c-1.253-0.453-2.638,0.196-3.091,1.451l-4.272,11.812l-2.436-0.884c-1.939-0.689-4.071,0.315-4.775,2.249L27.533,64.817
	c-0.688,1.938,0.316,4.07,2.249,4.774l9.414,3.403c1.939,0.688,4.071-0.315,4.775-2.248l12.465-34.533
	C57.123,34.275,56.12,32.145,54.187,31.439z M52.928,17.611c0.172-0.477,0.697-0.723,1.172-0.552
	c0.477,0.172,0.723,0.698,0.551,1.173l0,0l-4.272,11.813l-1.724-0.623L52.928,17.611z M55.049,35.705L42.547,70.252
	c-0.429,1.148-1.699,1.743-2.856,1.333l0,0l-9.414-3.41c-1.134-0.428-1.724-1.677-1.334-2.825l12.502-34.577
	c0.428-1.149,1.699-1.742,2.855-1.334l4.708,1.701l1.566,0.57l0,0l3.141,1.139C54.864,33.277,55.457,34.548,55.049,35.705z"/>
<rect x="21.564" y="48.766" transform="matrix(-0.3402 0.9404 -0.9404 -0.3402 99.1649 29.4517)" fill="#FFFFFF" width="35.371" height="1.499"/>
<rect x="27.05" y="50.748" transform="matrix(-0.3402 0.9404 -0.9404 -0.3402 108.3853 26.9453)" fill="#FFFFFF" width="35.38" height="1.498"/>
<path fill="#FFFFFF" d="M55.745,50.757c-1.568,0-2.84,1.271-2.84,2.841c0,1.567,1.272,2.84,2.84,2.84
	c1.569,0,2.842-1.272,2.842-2.84C58.587,52.027,57.314,50.757,55.745,50.757L55.745,50.757z M55.745,54.931
	c-0.74,0-1.341-0.601-1.341-1.341c0-0.741,0.601-1.342,1.341-1.342c0.742,0,1.343,0.601,1.343,1.342
	C57.088,54.33,56.487,54.931,55.745,54.931L55.745,54.931z"/>
</svg>
