<?xml version="1.0" encoding="utf-8"?>
<!-- Generator: Adobe Illustrator 16.0.0, SVG Export Plug-In . SVG Version: 6.00 Build 0)  -->
<!DOCTYPE svg PUBLIC "-//W3C//DTD SVG 1.1//EN" "http://www.w3.org/Graphics/SVG/1.1/DTD/svg11.dtd">
<svg version="1.1" id="Calque_1" xmlns="http://www.w3.org/2000/svg" xmlns:xlink="http://www.w3.org/1999/xlink" x="0px" y="0px"
	 width="90px" height="90px" viewBox="0 0 90 90" enable-background="new 0 0 90 90" xml:space="preserve">
<circle opacity="0.2" fill="#FFFFFF" cx="44.851" cy="45" r="43.615"/>
<g>
	<path fill="#FFFFFF" stroke="#FFFFFF" stroke-miterlimit="10" d="M58.228,13.925c-0.24-0.295-0.662-0.364-0.985-0.159
		c-0.222,0.142-5.457,3.527-6.304,8.754c-0.065,0.402-0.112,0.807-0.15,1.211c-1.747-1.65-4.281-2.282-5.79-2.282
		c-1.773,0-3.907,1.039-5.546,2.901c-0.061,0.028-0.123,0.051-0.184,0.08c-0.035-0.639-0.105-1.278-0.207-1.91
		c-0.847-5.229-6.082-8.614-6.305-8.755c-0.322-0.205-0.744-0.136-0.984,0.159c-0.166,0.205-4.064,5.071-3.218,10.298
		c0.495,3.057,1.69,5.748,3.245,7.356c-1.693,2.913-2.619,6.204-2.619,9.333c0,0.062,0.008,0.125,0.023,0.186l4.987,19.525
		c-0.009,1.1,0.06,9.699,3.983,13.695c1.327,1.35,2.948,2.035,4.82,2.035h4.01c1.871,0,3.493-0.686,4.82-2.035
		c3.924-3.996,3.99-12.596,3.982-13.695l4.989-19.525c0.016-0.061,0.023-0.123,0.023-0.186c0-3.128-0.927-6.419-2.619-9.333
		c1.554-1.608,2.749-4.3,3.244-7.356C62.291,18.995,58.394,14.129,58.228,13.925z M44.998,22.949c1.423,0,4.165,0.732,5.464,2.697
		c0.926,1.399,0.947,3.187,0.068,5.313c-5.09,6.034-5.469,10.168-5.157,12.251c-2.336-1.007-6.994-4-6.994-11.855
		C38.379,25.758,42.622,22.949,44.998,22.949z M50.755,73.266c-1.049,1.067-2.275,1.587-3.75,1.587h-4.01
		c-1.475,0-2.7-0.52-3.749-1.586c-1.774-1.805-2.663-4.822-3.108-7.467c0.002-0.026,0.008-0.052,0.008-0.079
		c0-2.423,4.055-4.47,8.854-4.47c4.799,0,8.854,2.047,8.854,4.47c0,0.03,0.007,0.058,0.009,0.087
		C53.417,68.447,52.529,71.458,50.755,73.266z M59.964,23.982c-0.481,2.972-1.71,5.615-3.205,6.897
		c-0.281,0.241-0.345,0.651-0.148,0.966c1.729,2.776,2.689,5.958,2.708,8.972l-4.989,19.529c-0.016,0.065-0.023,0.132-0.023,0.198
		c0.002,0.03,0.014,0.997-0.097,2.413c-1.702-1.919-5.144-3.208-9.209-3.208s-7.507,1.288-9.209,3.207
		c-0.11-1.416-0.099-2.383-0.099-2.412c0.001-0.066-0.008-0.134-0.023-0.198l-4.988-19.529c0.02-3.014,0.979-6.197,2.709-8.972
		c0.195-0.315,0.133-0.725-0.148-0.966c-1.496-1.282-2.725-3.926-3.206-6.897c-0.585-3.61,1.556-7.191,2.488-8.546
		c1.312,0.988,4.471,3.703,5.058,7.323c0.155,0.959,0.227,1.933,0.213,2.896c-0.004,0.249,0.119,0.477,0.321,0.619
		c-0.759,1.426-1.236,3.132-1.236,5.079c0,11.488,9.358,13.745,9.453,13.766c0.056,0.012,0.112,0.019,0.166,0.019
		c0.237,0,0.464-0.112,0.606-0.308c0.178-0.242,0.191-0.566,0.039-0.824c-0.023-0.04-2.161-4.194,4.605-12.167
		c0.049-0.057,0.09-0.122,0.118-0.192c1.124-2.642,0.897-4.591,0.33-5.924c0.002-0.023,0.009-0.045,0.009-0.068
		c-0.014-0.963,0.058-1.938,0.213-2.896c0.586-3.61,3.746-6.332,5.059-7.323C58.411,16.789,60.551,20.362,59.964,23.982z"/>
	<rect x="40.198" y="64.36" fill="#FFFFFF" stroke="#FFFFFF" stroke-miterlimit="10" width="1.5" height="5.9"/>
	<rect x="47.729" y="64.36" fill="#FFFFFF" stroke="#FFFFFF" stroke-miterlimit="10" width="1.5" height="5.9"/>
	<circle fill="none" stroke="#FFFFFF" stroke-miterlimit="10" cx="37.018" cy="48.314" r="1.958"/>
	<circle fill="none" stroke="#FFFFFF" stroke-miterlimit="10" cx="52.981" cy="48.314" r="1.958"/>
</g>
</svg>
