<?xml version="1.0" encoding="utf-8"?>
<!-- Generator: Adobe Illustrator 16.0.0, SVG Export Plug-In . SVG Version: 6.00 Build 0)  -->
<!DOCTYPE svg PUBLIC "-//W3C//DTD SVG 1.1//EN" "http://www.w3.org/Graphics/SVG/1.1/DTD/svg11.dtd">
<svg version="1.1" id="Calque_1" xmlns="http://www.w3.org/2000/svg" xmlns:xlink="http://www.w3.org/1999/xlink" x="0px" y="0px"
	 width="90px" height="90px" viewBox="0 0 90 90" enable-background="new 0 0 90 90" xml:space="preserve">
<circle opacity="0.2" fill="#FFFFFF" cx="45" cy="45" r="43.615"/>
<g>
	<g>
		<g>
			<g>
				<path fill="#FFFFFF" d="M45,69.871c-13.714,0-24.871-11.156-24.871-24.871c0-13.713,11.157-24.871,24.871-24.871
					S69.871,31.287,69.871,45C69.871,58.715,58.714,69.871,45,69.871z M45,22.408c-12.457,0-22.593,10.135-22.593,22.592
					c0,12.459,10.136,22.594,22.593,22.594S67.593,57.459,67.593,45C67.593,32.543,57.457,22.408,45,22.408z"/>
			</g>
		</g>
	</g>
	<g>
		<g>
			<g>
				<path fill="#FFFFFF" d="M61.558,61.406c-5.896-12.418-16.315-15.275-16.419-15.303l-0.673-0.178l-0.151-0.68
					c-2.919-13.188,4.054-23.721,4.353-24.164l1.888,1.273c-0.066,0.1-6.487,9.838-4.149,21.754
					c2.586,0.879,11.689,4.695,17.212,16.322L61.558,61.406z"/>
			</g>
		</g>
	</g>
	<g>
		<g>
			<g>
				<path fill="#FFFFFF" d="M26.759,53.08c-1.619,0-3.267-0.18-4.904-0.604l0.569-2.207c10.591,2.736,22.19-6.08,22.307-6.172
					l1.394,1.807C45.685,46.24,36.686,53.08,26.759,53.08z"/>
			</g>
		</g>
	</g>
	<g>
		<g>
			<g>
				<path fill="#FFFFFF" d="M66.022,54.021C60.659,38.533,44.99,36.016,44.833,35.992l0.333-2.254
					c0.171,0.025,17.183,2.715,23.009,19.539L66.022,54.021z"/>
			</g>
		</g>
	</g>
	<g>
		<g>
			<g>
				<path fill="#FFFFFF" d="M67.511,42.566C61.493,28.936,47.432,27.107,47.288,27.09l0.272-2.262
					c0.629,0.074,15.496,2.012,22.032,16.816L67.511,42.566z"/>
			</g>
		</g>
	</g>
	<g>
		<g>
			<g>
				<path fill="#FFFFFF" d="M35.491,50.219c-0.252-0.635-6.041-15.703,4.839-29.01l1.763,1.443
					c-10.039,12.279-4.541,26.584-4.483,26.727L35.491,50.219z"/>
			</g>
		</g>
	</g>
	<g>
		<g>
			<g>
				<path fill="#FFFFFF" d="M26.278,51.809c-1.191-3.402-4.433-15.379,3.847-26.697l1.838,1.344
					c-7.62,10.422-4.633,21.465-3.535,24.602L26.278,51.809z"/>
			</g>
		</g>
	</g>
	<g>
		<g>
			<g>
				<path fill="#FFFFFF" d="M31.735,61.207c-1.78,0-3.649-0.166-5.6-0.543l0.433-2.238c16.1,3.113,26.107-9.211,26.207-9.336
					l1.785,1.414C54.465,50.625,45.902,61.207,31.735,61.207z"/>
			</g>
		</g>
	</g>
	<g>
		<g>
			<g>
				<path fill="#FFFFFF" d="M38.217,67.881c-1.03,0-2.094-0.053-3.188-0.174l0.245-2.266c14.781,1.604,23.424-9.66,23.511-9.773
					l1.824,1.367C60.256,57.508,52.318,67.881,38.217,67.881z"/>
			</g>
		</g>
	</g>
</g>
</svg>
