<?xml version="1.0" encoding="utf-8"?>
<!-- Generator: Adobe Illustrator 16.0.0, SVG Export Plug-In . SVG Version: 6.00 Build 0)  -->
<!DOCTYPE svg PUBLIC "-//W3C//DTD SVG 1.1//EN" "http://www.w3.org/Graphics/SVG/1.1/DTD/svg11.dtd">
<svg version="1.1" id="Calque_1" xmlns="http://www.w3.org/2000/svg" xmlns:xlink="http://www.w3.org/1999/xlink" x="0px" y="0px"
	 width="90px" height="90px" viewBox="0 0 90 90" enable-background="new 0 0 90 90" xml:space="preserve">
<circle opacity="0.2" fill="#FFFFFF" enable-background="new    " cx="45.309" cy="45" r="43.615"/>
<g transform="translate(0,-952.36218)">
	<path fill="#FFFFFF" d="M37.312,974.059l-1.513,8.53c-3.19,0.464-5.658,3.202-5.658,6.518v16.51c0,3.322,2.476,6.08,5.674,6.535
		l1.497,8.514c0.088,0.505,0.571,0.911,1.083,0.911h13.208c0.513,0,0.996-0.406,1.084-0.911l1.496-8.514
		c3.198-0.455,5.674-3.214,5.674-6.535v-16.51c0-3.322-2.475-6.079-5.674-6.535l-1.496-8.513c-0.088-0.506-0.571-0.911-1.084-0.912
		H38.396C37.78,973.147,37.387,973.642,37.312,974.059z M39.325,975.349h11.351l1.272,7.154H38.052L39.325,975.349z M36.745,984.705
		h16.51c2.458,0,4.403,1.944,4.403,4.402v16.51c0,2.458-1.945,4.403-4.403,4.403h-16.51c-2.458,0-4.403-1.945-4.403-4.403v-16.51
		C32.342,986.649,34.287,984.705,36.745,984.705z M41.698,989.658c-2.917,0-5.503,2.265-5.503,5.503
		c0,2.342,1.285,6.788,8.375,9.818c0.271,0.117,0.589,0.117,0.859,0c7.09-3.03,8.375-7.478,8.375-9.818
		c0-3.238-2.586-5.503-5.503-5.503c-1.452,0-2.524,0.661-3.303,1.479C44.222,990.319,43.149,989.658,41.698,989.658z
		 M41.698,991.859c1.279,0,1.881,0.718,2.321,1.6c0.184,0.358,0.577,0.6,0.98,0.6s0.798-0.241,0.981-0.6
		c0.438-0.882,1.041-1.6,2.32-1.6c1.864,0,3.303,1.162,3.303,3.302c0,1.637-0.547,4.848-6.604,7.584
		c-6.058-2.736-6.604-5.947-6.604-7.584C38.396,993.021,39.833,991.859,41.698,991.859z M38.069,1012.222h13.879l-1.272,7.154
		H39.325L38.069,1012.222z"/>
</g>
</svg>
