<?xml version="1.0" encoding="utf-8"?>
<!-- Generator: Adobe Illustrator 16.0.0, SVG Export Plug-In . SVG Version: 6.00 Build 0)  -->
<!DOCTYPE svg PUBLIC "-//W3C//DTD SVG 1.1//EN" "http://www.w3.org/Graphics/SVG/1.1/DTD/svg11.dtd">
<svg version="1.1" id="Calque_1" xmlns="http://www.w3.org/2000/svg" xmlns:xlink="http://www.w3.org/1999/xlink" x="0px" y="0px"
	 width="90px" height="90px" viewBox="0 0 90 90" enable-background="new 0 0 90 90" xml:space="preserve">
<circle opacity="0.2" fill="#FFFFFF" enable-background="new    " cx="45" cy="45.089" r="43.615"/>
<g>
	<path fill="#FFFFFF" d="M68.402,38.72l-2.432-2.432c-1.113-1.115-3.039-1.115-4.152,0l-9.93,9.928l0,0
		c-0.101,0.103-0.101,0.203-0.201,0.304l0,0l0,0l-2.938,8.004l-10.84,10.94l-0.202-0.203c-0.405-0.403-1.014-0.403-1.418,0
		c-0.405,0.406-0.405,1.015,0,1.419l1.722,1.723c0.203,0.203,0.406,0.304,0.71,0.304c0.304,0,0.506-0.101,0.708-0.304
		c0.406-0.406,0.406-1.014,0-1.418l-0.202-0.205l10.839-10.838l8.104-2.838l0,0l0,0c0.103,0,0.202-0.101,0.304-0.203l0,0
		l9.928-9.927C69.618,41.759,69.618,39.935,68.402,38.72z M51.18,53.51l1.723-4.761l3.039,3.04L51.18,53.51z M67.085,41.556
		l-9.219,9.219l-3.851-3.85l9.219-9.219c0.406-0.406,1.014-0.406,1.418,0l2.432,2.431C67.389,40.542,67.389,41.151,67.085,41.556z"
		/>
	<path fill="#FFFFFF" d="M58.17,22.307c0-0.506-0.404-1.013-1.013-1.013c-9.726,0-18.945,3.749-25.833,10.637
		c-6.889,6.991-10.637,16.108-10.637,25.834c0,0.506,0.405,1.012,1.013,1.012C41.758,58.777,58.17,42.366,58.17,22.307z
		 M22.712,56.752c0.506-18.235,15.297-32.925,33.431-33.432C55.637,41.556,40.948,56.246,22.712,56.752z"/>
	<path fill="#FFFFFF" d="M45.102,34.363c-2.331-2.33-6.788-1.722-9.929,1.418c-3.14,3.141-3.748,7.598-1.418,9.929
		c0.912,0.912,2.229,1.418,3.749,1.418c2.026,0,4.355-1.013,6.179-2.836C46.824,41.151,47.432,36.693,45.102,34.363z M42.265,42.873
		c-2.331,2.33-5.573,2.938-7.092,1.418c-1.519-1.52-0.912-4.863,1.418-7.091c1.418-1.419,3.242-2.229,4.863-2.229
		c0.912,0,1.722,0.304,2.331,0.81C45.202,37.3,44.595,40.644,42.265,42.873z"/>
</g>
</svg>
