<?xml version="1.0" encoding="utf-8"?>
<!-- Generator: Adobe Illustrator 16.0.0, SVG Export Plug-In . SVG Version: 6.00 Build 0)  -->
<!DOCTYPE svg PUBLIC "-//W3C//DTD SVG 1.1//EN" "http://www.w3.org/Graphics/SVG/1.1/DTD/svg11.dtd">
<svg version="1.1" id="Calque_1" xmlns="http://www.w3.org/2000/svg" xmlns:xlink="http://www.w3.org/1999/xlink" x="0px" y="0px"
	 width="90px" height="90px" viewBox="0 0 90 90" enable-background="new 0 0 90 90" xml:space="preserve">
<circle opacity="0.2" fill="#FFFFFF" enable-background="new    " cx="45.5" cy="45" r="43.615"/>
<g>
	<path fill="#FFFFFF" d="M68.818,32.428L57.491,21.102c-1.205-1.205-2.812-1.848-4.578-1.848H37.007
		c-1.687,0-3.374,0.643-4.579,1.848L21.102,32.428c-1.206,1.206-1.848,2.812-1.848,4.579v15.987c0,1.688,0.642,3.373,1.848,4.579
		l11.327,11.325c1.205,1.207,2.811,1.848,4.579,1.848h15.987c1.687,0,3.373-0.641,4.577-1.848L68.9,57.573
		c1.203-1.206,1.847-2.812,1.847-4.579V37.007C70.666,35.239,70.023,33.633,68.818,32.428z M66.648,51.949
		c0,1.285-0.48,2.49-1.445,3.373l-9.881,9.881c-0.885,0.885-2.088,1.445-3.374,1.445H37.972c-1.286,0-2.491-0.48-3.375-1.445
		l-9.881-9.881c-0.883-0.883-1.445-2.088-1.445-3.373V37.971c0-1.285,0.482-2.489,1.445-3.374l9.881-9.881
		c0.884-0.883,2.089-1.446,3.375-1.446h13.977c1.285,0,2.49,0.482,3.374,1.446l9.881,9.881c0.884,0.884,1.446,2.088,1.446,3.374
		v13.979H66.648z"/>
	<path fill="none" d="M53.074,26.966c-0.322-0.321-0.725-0.482-1.126-0.482H37.972c-0.402,0-0.804,0.161-1.125,0.482l-9.881,9.881
		c-0.321,0.32-0.482,0.723-0.482,1.124V51.95c0,0.401,0.161,0.804,0.482,1.124l9.881,9.881c0.321,0.322,0.723,0.482,1.125,0.482
		h13.977c0.4,0,0.804-0.16,1.126-0.482l9.88-9.881c0.32-0.32,0.48-0.723,0.48-1.124V37.971c0-0.401-0.16-0.804-0.48-1.124
		L53.074,26.966z M52.994,47.611c0,0.4-0.162,0.803-0.483,1.123l-3.774,3.776c-0.321,0.322-0.723,0.482-1.125,0.482h-5.302
		c-0.401,0-0.803-0.16-1.125-0.482l-3.775-3.776c-0.321-0.32-0.481-0.723-0.481-1.123V42.31c0-0.403,0.16-0.803,0.481-1.125
		l3.775-3.775c0.322-0.322,0.723-0.483,1.125-0.483h5.302c0.402,0,0.804,0.161,1.125,0.483l3.774,3.775
		c0.321,0.322,0.483,0.722,0.483,1.125V47.611z"/>
</g>
</svg>
