<?xml version="1.0" encoding="utf-8"?>
<!-- Generator: Adobe Illustrator 16.0.0, SVG Export Plug-In . SVG Version: 6.00 Build 0)  -->
<!DOCTYPE svg PUBLIC "-//W3C//DTD SVG 1.1//EN" "http://www.w3.org/Graphics/SVG/1.1/DTD/svg11.dtd">
<svg version="1.1" id="Calque_1" xmlns="http://www.w3.org/2000/svg" xmlns:xlink="http://www.w3.org/1999/xlink" x="0px" y="0px"
	 width="90px" height="90px" viewBox="0 0 90 90" enable-background="new 0 0 90 90" xml:space="preserve">
<circle opacity="0.2" fill="#FFFFFF" cx="45" cy="45" r="43.615"/>
<path fill="#FFFFFF" d="M29.405,69.033c0.355,0.114,0.728,0.171,1.101,0.17c1.509-0.004,2.858-0.941,3.393-2.353l3.519-9.374
	l10.325-4.283l3.277,4.338c1.151,1.513,3.023,2.291,4.906,2.041l9.048-1.136c1.985-0.256,3.386-2.075,3.129-4.059
	c-0.236-1.822-1.796-3.179-3.632-3.16c-0.159,0-0.319,0.01-0.477,0.03l-7.892,1.005l-4.177-5.529l-6.685-10.124
	c2.942,0.304,5.912,0.199,8.826-0.312l1.478-0.261c1.701-0.293,2.842-1.909,2.549-3.609c-0.293-1.701-1.908-2.841-3.609-2.548
	l-1.105,0.196c-3.491,0.621-7.065,0.621-10.556,0l-4.312-0.779l-0.438-0.065l-0.336-0.035c-1.585-0.21-3.185,0.255-4.408,1.282
	c-2.334,1.998-2.805,5.424-1.097,7.977l6.932,10.456l-5.313,2.207c-1.349,0.559-2.407,1.651-2.925,3.016l-4.093,10.938
	c-0.383,0.908-0.293,1.947,0.242,2.775C27.619,68.579,28.482,69.021,29.405,69.033z M28.711,65.765l4.092-10.927
	c0.319-0.848,0.975-1.526,1.809-1.875l6.44-2.669c0.516-0.206,0.766-0.791,0.561-1.307c-0.028-0.071-0.065-0.139-0.108-0.202
	L33.928,37.32c-1.154-1.69-0.855-3.977,0.694-5.313c0.807-0.685,1.868-0.991,2.916-0.839l0.336,0.035l0.303,0.046l4.297,0.784
	c3.726,0.662,7.539,0.662,11.265,0l1.101-0.196c0.604-0.104,1.179,0.304,1.281,0.91c0.103,0.604-0.304,1.179-0.91,1.281
	l-1.508,0.261c-3.431,0.6-6.942,0.6-10.375,0c-0.547-0.091-1.065,0.28-1.156,0.828c-0.042,0.249,0.013,0.505,0.151,0.716
	l7.942,11.998l0.035,0.05l4.523,6.033c0.218,0.288,0.572,0.438,0.931,0.392l8.479-1.065c0.885-0.097,1.682,0.542,1.779,1.428
	c0.093,0.854-0.499,1.631-1.347,1.769l-9.048,1.136c-1.173,0.156-2.338-0.332-3.051-1.277l-3.739-4.961
	c-0.274-0.338-0.734-0.462-1.141-0.307l-11.446,4.76c-0.258,0.107-0.46,0.315-0.557,0.577l-3.665,9.783
	c-0.317,0.83-1.236,1.256-2.076,0.964c-0.113-0.042-0.231-0.064-0.352-0.065c-0.325,0.034-0.645-0.091-0.859-0.336
	c-0.163-0.293-0.168-0.647-0.016-0.945H28.711z M32.481,26.327c0-3.054-2.475-5.53-5.529-5.53c-3.054,0-5.529,2.476-5.529,5.53
	c0,3.053,2.475,5.529,5.529,5.529C30.006,31.855,32.481,29.38,32.481,26.327L32.481,26.327z M23.408,26.327
	c0-1.944,1.575-3.519,3.519-3.519c1.943,0,3.518,1.575,3.518,3.519c0,1.943-1.575,3.518-3.518,3.518
	C24.983,29.845,23.408,28.27,23.408,26.327L23.408,26.327z M63.479,39.782c0.556,0,1.006,0.451,1.006,1.006
	c0,0.555-0.45,1.005-1.006,1.005h-9.872c-0.555,0-1.005-0.45-1.005-1.005c0-0.555,0.45-1.006,1.005-1.006H63.479z M67.572,46.92
	h-9.867c-0.556,0-1.006-0.45-1.006-1.005c0-0.555,0.45-1.005,1.006-1.005h9.867c0.555,0,1.005,0.45,1.005,1.005
	C68.577,46.47,68.127,46.92,67.572,46.92z"/>
</svg>
