<?xml version="1.0" encoding="utf-8"?>
<!-- Generator: Adobe Illustrator 16.0.0, SVG Export Plug-In . SVG Version: 6.00 Build 0)  -->
<!DOCTYPE svg PUBLIC "-//W3C//DTD SVG 1.1//EN" "http://www.w3.org/Graphics/SVG/1.1/DTD/svg11.dtd">
<svg version="1.1" id="Calque_1" xmlns="http://www.w3.org/2000/svg" xmlns:xlink="http://www.w3.org/1999/xlink" x="0px" y="0px"
	 width="90px" height="90px" viewBox="0 0 90 90" enable-background="new 0 0 90 90" xml:space="preserve">
<circle opacity="0.2" fill="#FFFFFF" cx="44.616" cy="45" r="43.615"/>
<g transform="translate(0,-288.53332)">
	<path fill="#FFFFFF" d="M47.929,321.624c-1.739-0.021-3.084,1.952-2.179,3.657v0.017l5.765,10.613l1.255-0.682l-5.759-10.604
		c-0.363-0.696,0.108-1.558,0.938-1.568c0.111-0.016,0.224,0.033,0.316,0.044l14.031,4.156l-0.288,1.01l-9.675-2.669
		c-0.607-0.168-1.119,0.476-0.817,1.029l4.999,9.285l1.259-0.679l-4.208-7.814l8.745,2.414c0.379,0.105,0.772-0.115,0.879-0.494
		l0.676-2.368c0.107-0.378-0.109-0.772-0.486-0.882l-14.71-4.358c-0.235-0.069-0.483-0.104-0.737-0.1c-0.001,0,0,0,0,0
		L47.929,321.624z"/>
	<path fill="#FFFFFF" d="M45.717,313.781c-1.964,0-3.571,1.607-3.571,3.57c0,1.965,1.607,3.572,3.571,3.572s3.571-1.607,3.571-3.572
		C49.288,315.389,47.681,313.781,45.717,313.781z M45.717,315.209c1.192,0,2.143,0.951,2.143,2.143c0,1.192-0.951,2.144-2.143,2.144
		c-1.191,0-2.143-0.951-2.143-2.144C43.574,316.16,44.525,315.209,45.717,315.209z"/>
	<path fill="#FFFFFF" d="M25.021,341.637c-0.395-0.006-0.718,0.31-0.724,0.705c-0.005,0.394,0.311,0.718,0.705,0.723
		c0.006,0,0.013,0,0.019,0h9.624c0.395,0.005,0.719-0.31,0.724-0.705c0.005-0.395-0.311-0.718-0.705-0.723c-0.006,0-0.012,0-0.019,0
		H25.021z"/>
	<path fill="#FFFFFF" d="M26.45,344.493c-0.395-0.006-0.718,0.311-0.724,0.705c-0.005,0.395,0.311,0.719,0.705,0.723
		c0.006,0,0.012,0,0.019,0h6.766c0.395,0.006,0.719-0.31,0.724-0.704c0.005-0.395-0.311-0.719-0.706-0.724c-0.006,0-0.012,0-0.019,0
		H26.45z"/>
	<path fill="#FFFFFF" d="M60.48,330.401l-5.617,15.883c-0.308,0.895,1.027,1.364,1.347,0.475l5.651-15.978L60.48,330.401z"/>
	<path fill="#FFFFFF" d="M55.431,345.93c-0.105,0.005-0.208,0.033-0.301,0.082l-2.199,1.164c-0.17,0.09-0.298,0.246-0.352,0.432
		l-0.797,2.739c-0.332,1.14,0.35,2.342,1.49,2.677l0,0l0.608,0.174c1.142,0.335,2.363-0.313,2.696-1.453l0.797-2.739
		c0.055-0.186,0.031-0.385-0.064-0.553l-1.227-2.162c-0.133-0.233-0.385-0.372-0.654-0.36H55.431z M55.183,347.598l0.74,1.298
		l-0.715,2.45c-0.111,0.383-0.511,0.604-0.926,0.481l-0.609-0.178c-0.414-0.122-0.633-0.521-0.521-0.904l0.714-2.449L55.183,347.598
		z"/>
	<path fill="#FFFFFF" d="M59.644,341.637c-0.394-0.006-0.719,0.31-0.723,0.705c-0.005,0.394,0.311,0.718,0.705,0.723
		c0.006,0,0.013,0,0.019,0h5c0.395,0.005,0.719-0.31,0.724-0.705c0.005-0.395-0.311-0.718-0.705-0.723c-0.006,0-0.012,0-0.019,0
		H59.644z"/>
	<path fill="#FFFFFF" d="M41.074,344.493c-0.395-0.006-0.719,0.311-0.724,0.705c-0.006,0.395,0.311,0.719,0.705,0.723
		c0.006,0,0.013,0,0.019,0h7.142c0.395,0.006,0.718-0.31,0.724-0.704s-0.311-0.719-0.705-0.724c-0.006,0-0.012,0-0.019,0H41.074z"/>
	<path fill="#FFFFFF" d="M39.289,345.208c0,0.395-0.32,0.715-0.714,0.715c-0.395,0-0.714-0.32-0.714-0.715l0,0
		c0-0.395,0.319-0.715,0.714-0.715l0,0C38.969,344.493,39.289,344.814,39.289,345.208z"/>
	<path fill="#FFFFFF" d="M50.716,344.493c-0.395-0.006-0.719,0.311-0.724,0.705c-0.004,0.395,0.311,0.719,0.706,0.723
		c0.006,0,0.012,0,0.019,0h2.5c0.395,0.006,0.719-0.31,0.724-0.704s-0.311-0.719-0.705-0.724c-0.006,0-0.012,0-0.019,0H50.716z"/>
	<path fill="#FFFFFF" d="M58.595,344.493c-0.395-0.006-0.718,0.311-0.724,0.705c-0.005,0.395,0.31,0.719,0.705,0.723
		c0.006,0,0.012,0,0.019,0h2.121c0.395,0.006,0.719-0.31,0.724-0.704s-0.311-0.719-0.706-0.724c-0.006,0-0.012,0-0.018,0H58.595z"/>
	<path fill="#FFFFFF" d="M63.931,345.208c0,0.395-0.32,0.715-0.714,0.715s-0.715-0.32-0.715-0.715l0,0
		c0-0.395,0.32-0.715,0.715-0.715l0,0C63.611,344.493,63.931,344.814,63.931,345.208z"/>
	<path fill="#FFFFFF" d="M23.573,338.779c-0.394-0.005-0.718,0.311-0.723,0.705c-0.006,0.394,0.31,0.719,0.705,0.724
		c0.006,0,0.012,0,0.018,0h11.786c0.395,0.005,0.719-0.312,0.723-0.705c0.006-0.395-0.31-0.718-0.705-0.724
		c-0.006,0-0.013,0-0.019,0H23.573z"/>
	<path fill="#FFFFFF" d="M40.716,338.779c-0.395-0.005-0.718,0.311-0.724,0.705c-0.005,0.394,0.311,0.719,0.705,0.724
		c0.006,0,0.012,0,0.019,0h14.643c0.394,0.005,0.718-0.312,0.723-0.705c0.006-0.395-0.311-0.718-0.705-0.724
		c-0.006,0-0.012,0-0.018,0H40.716z"/>
	<path fill="#FFFFFF" d="M60.358,338.779c-0.394-0.005-0.718,0.311-0.724,0.705c-0.005,0.394,0.311,0.719,0.706,0.724
		c0.006,0,0.012,0,0.018,0h5.715c0.394,0.005,0.718-0.312,0.723-0.705c0.006-0.395-0.311-0.718-0.704-0.724
		c-0.006,0-0.013,0-0.019,0H60.358z"/>
	<path fill="#FFFFFF" d="M27.928,321.624c-1.738-0.021-3.084,1.952-2.179,3.657v0.017l5.765,10.613l1.256-0.682l-5.759-10.604
		c-0.363-0.696,0.106-1.558,0.938-1.568c0.111-0.016,0.223,0.033,0.315,0.044l14.032,4.156l-0.288,1.01l-9.676-2.669
		c-0.607-0.168-1.118,0.476-0.817,1.029l5,9.285l1.258-0.679l-4.208-7.814l8.745,2.414c0.378,0.105,0.771-0.115,0.879-0.494
		l0.675-2.368c0.107-0.378-0.108-0.772-0.485-0.882l-14.71-4.358c-0.234-0.069-0.483-0.104-0.736-0.1c0,0,0,0,0,0L27.928,321.624z"
		/>
	<path fill="#FFFFFF" d="M25.716,313.781c-1.964,0-3.572,1.607-3.572,3.57c0,1.965,1.607,3.572,3.572,3.572
		c1.964,0,3.571-1.607,3.571-3.572C29.288,315.389,27.68,313.781,25.716,313.781z M25.716,315.209c1.192,0,2.142,0.951,2.142,2.143
		c0,1.192-0.95,2.144-2.142,2.144c-1.192,0-2.144-0.951-2.144-2.144C23.573,316.16,24.524,315.209,25.716,315.209z"/>
	<path fill="#FFFFFF" d="M40.479,330.401l-5.616,15.883c-0.309,0.895,1.027,1.364,1.347,0.475l5.65-15.978L40.479,330.401z"/>
	<path fill="#FFFFFF" d="M35.431,345.93c-0.105,0.005-0.208,0.033-0.301,0.082l-2.198,1.164c-0.171,0.09-0.298,0.246-0.352,0.432
		l-0.797,2.739c-0.332,1.14,0.35,2.342,1.49,2.677l0,0l0.608,0.174c1.142,0.335,2.362-0.313,2.696-1.453l0.797-2.739
		c0.055-0.186,0.031-0.385-0.064-0.553l-1.228-2.162c-0.133-0.233-0.385-0.372-0.653-0.36H35.431z M35.183,347.598l0.74,1.298
		l-0.714,2.45c-0.112,0.383-0.512,0.604-0.926,0.481l-0.609-0.178c-0.415-0.122-0.634-0.521-0.521-0.904l0.714-2.449L35.183,347.598
		z"/>
	<path fill="#FFFFFF" d="M39.645,341.637c-0.395-0.006-0.719,0.31-0.724,0.705c-0.006,0.394,0.31,0.718,0.705,0.723
		c0.006,0,0.012,0,0.019,0h2.143c0.395,0.005,0.718-0.31,0.723-0.705c0.006-0.395-0.31-0.718-0.704-0.723c-0.006,0-0.012,0-0.019,0
		H39.645z"/>
	<path fill="#FFFFFF" d="M46.788,341.637c-0.395-0.006-0.719,0.31-0.724,0.705c-0.004,0.394,0.311,0.718,0.706,0.723
		c0.006,0,0.012,0,0.019,0h7.5c0.395,0.005,0.719-0.31,0.724-0.705c0.005-0.395-0.311-0.718-0.706-0.723c-0.006,0-0.012,0-0.019,0
		H46.788z"/>
	<path fill="#FFFFFF" d="M45.002,342.351c0,0.395-0.319,0.715-0.714,0.715c-0.395,0-0.715-0.32-0.715-0.715s0.32-0.714,0.715-0.714
		C44.683,341.637,45.002,341.956,45.002,342.351z"/>
	<path fill="#FFFFFF" d="M22.851,333.066c-0.395,0.005-0.711,0.328-0.706,0.722c0.002,0.195,0.084,0.381,0.226,0.515l6.071,5.713
		c0.287,0.271,0.739,0.26,1.01-0.028c0.271-0.286,0.259-0.739-0.028-1.01c0,0-0.002-0.001-0.002-0.003l-4.18-3.934
		c3.237,0.755,6.532,1.24,9.86,1.24h19.799c3.377,0,6.721-0.495,10.002-1.271l-3.979,3.979c-0.285,0.273-0.295,0.725-0.022,1.01
		s0.725,0.296,1.01,0.022c0.008-0.007,0.015-0.015,0.022-0.022l5.714-5.713c0.277-0.281,0.274-0.733-0.006-1.011
		c-0.184-0.182-0.451-0.25-0.699-0.179l-0.151,0.044c-3.861,1.136-7.866,1.713-11.891,1.713H35.102
		c-4.024,0-8.028-0.578-11.889-1.713l0,0l-0.148-0.044c-0.069-0.021-0.14-0.031-0.212-0.031L22.851,333.066z"/>
</g>
</svg>
