<?xml version="1.0" encoding="utf-8"?>
<!-- Generator: Adobe Illustrator 16.0.0, SVG Export Plug-In . SVG Version: 6.00 Build 0)  -->
<!DOCTYPE svg PUBLIC "-//W3C//DTD SVG 1.1//EN" "http://www.w3.org/Graphics/SVG/1.1/DTD/svg11.dtd">
<svg version="1.1" id="Calque_1" xmlns="http://www.w3.org/2000/svg" xmlns:xlink="http://www.w3.org/1999/xlink" x="0px" y="0px"
	 width="90px" height="90px" viewBox="0 0 90 90" enable-background="new 0 0 90 90" xml:space="preserve">
<circle opacity="0.2" fill="#FFFFFF" enable-background="new    " cx="45" cy="45" r="43.615"/>
<g>
	<path fill="#FFFFFF" d="M68.632,28.594c-1.403-0.296-2.817-0.452-4.251-0.474c-0.193-0.003-0.449,0.154-0.48,0.364
		c-1.16,8.374-2.217,16.771-3.58,25.118c-0.344,2.097-0.713,4.187-1.12,6.271c-0.38,1.935-0.675,3.979-1.459,5.795
		c-1.703,3.924-8.377,3.834-8.865-0.721c1.467-0.796,3.379-3.025,2.438-4.574c-0.56-0.91-1.371-1.086-2.322-0.647
		c-1.254,0.579-1.608,1.784-3.194,1.866c-1.793,0.095-4.772-2.674-5.721,0.068c-0.738,2.137,2.08,3.309,3.906,3.584
		c-0.003,2.795,1.775,6.362,4.341,7.485c3.115,1.366,7.604,1.638,10.424-0.491c3.4-2.562,4.984-7.009,5.703-11.039
		c0.443-2.49,0.656-5.015,1.031-7.513c0.389-2.604,0.896-5.188,1.217-7.803c0.691-5.611,1.792-11.177,2.298-16.81
		C69.014,28.869,68.828,28.635,68.632,28.594z M65.873,44.383c-0.359,3.139-0.943,6.232-1.398,9.355
		c-0.39,2.668-0.604,5.363-1.138,8.008c-0.983,4.891-3.705,10.959-9.469,10.988c-1.953,0.012-4.65-0.229-6.203-1.57
		c-1.638-1.414-2.832-4.227-2.678-6.361c0.02-0.27-0.147-0.424-0.35-0.463c-0.046-0.018-0.094-0.029-0.147-0.033
		c-0.983-0.062-2.248-0.408-2.977-1.127c-0.588-0.58-0.721-1.75,0.309-1.756c0.312-0.002,0.778,0.307,1.058,0.426
		c1.109,0.479,2.195,0.863,3.421,0.678c1.186-0.178,1.643-0.73,2.477-1.459c0.869-0.758,2.056-0.49,1.556,0.814
		c-0.337,0.883-1.237,1.957-2.11,2.287c-0.021,0.006-0.031,0.016-0.051,0.023c-0.183,0.055-0.326,0.205-0.314,0.455
		c0.146,3.268,2.812,5.312,6.082,4.799c1.399-0.223,3.015-0.92,3.939-2.021c1.465-1.742,1.729-4.523,2.157-6.666
		c1.396-6.955,2.399-13.992,3.349-21.032c1.021,0.174,2.049,0.288,3.081,0.337C66.244,41.5,66.038,42.939,65.873,44.383z
		 M66.577,39.324c-1.039-0.044-2.068-0.154-3.097-0.332c0.44-3.291,0.873-6.579,1.326-9.862c1.062,0.037,2.106,0.149,3.151,0.347
		C67.643,32.78,67.087,36.049,66.577,39.324z"/>
</g>
<g>
	<path fill="#FFFFFF" stroke="#FFFFFF" stroke-miterlimit="10" d="M50.339,18.391c-6.498,0-14.254,3.874-20.792,10.394
		c-6.63,6.607-10.553,14.467-10.482,21.014c0.048,4.641,3.899,8.598,8.876,8.598c6.545,0,14.278-3.842,20.784-10.346
		c6.622-6.625,10.491-14.531,10.349-21.147C59.002,22.272,55.143,18.391,50.339,18.391z M57.764,26.927L57.764,26.927
		c0.041,1.755-0.235,3.604-0.771,5.496L45.078,20.5c1.812-0.528,3.573-0.812,5.252-0.812C54.496,19.688,57.718,22.989,57.764,26.927
		z M20.364,49.791c-0.017-1.734,0.267-3.561,0.819-5.443l11.964,11.962c-1.788,0.512-3.544,0.789-5.207,0.789
		C23.719,57.1,20.403,53.727,20.364,49.791z M47.803,47.127c-4.15,4.15-8.798,7.166-13.263,8.734l-12.9-12.9
		c1.6-4.449,4.646-9.096,8.82-13.254c4.159-4.145,8.789-7.166,13.231-8.749l12.869,12.867
		C54.992,38.298,51.969,42.961,47.803,47.127z"/>
	<path fill="#FFFFFF" stroke="#FFFFFF" stroke-miterlimit="10" d="M39.844,36.267l-1.676,1.516l-0.704-0.777
		c-0.214-0.239-0.558-0.256-0.796-0.04c-0.119,0.109-0.185,0.277-0.191,0.391c-0.008,0.171,0.043,0.287,0.152,0.408l0.703,0.776
		l-1.676,1.517l-0.704-0.776c-0.217-0.24-0.559-0.259-0.798-0.042c-0.119,0.109-0.186,0.279-0.19,0.393
		c-0.008,0.17,0.044,0.287,0.151,0.407l0.705,0.779l-0.896,0.811c-0.12,0.109-0.186,0.276-0.192,0.391
		c-0.009,0.17,0.043,0.287,0.153,0.406c0.216,0.24,0.558,0.258,0.796,0.041l0.898-0.812l0.704,0.777
		c0.216,0.238,0.558,0.256,0.796,0.038c0.24-0.214,0.259-0.558,0.042-0.797l-0.705-0.775l1.674-1.518l0.703,0.777
		c0.217,0.239,0.558,0.256,0.799,0.041c0.237-0.218,0.255-0.56,0.038-0.801l-0.703-0.778l1.676-1.515l0.703,0.777
		c0.215,0.239,0.559,0.257,0.798,0.04c0.238-0.217,0.257-0.56,0.041-0.797l-0.706-0.779l1.677-1.515l0.703,0.778
		c0.216,0.238,0.557,0.256,0.798,0.039c0.24-0.216,0.257-0.559,0.042-0.797l-0.706-0.779l0.896-0.811
		c0.241-0.216,0.259-0.559,0.042-0.798c-0.215-0.239-0.558-0.257-0.799-0.04l-0.898,0.812l-0.698-0.834
		c-0.218-0.239-0.561-0.255-0.799-0.04c-0.119,0.109-0.187,0.276-0.19,0.391c-0.009,0.17,0.043,0.287,0.15,0.408l0.703,0.776
		l-1.673,1.518l-0.707-0.779c-0.216-0.239-0.557-0.256-0.795-0.04c-0.121,0.108-0.186,0.277-0.192,0.391
		c-0.009,0.17,0.044,0.288,0.151,0.408L39.844,36.267z"/>
</g>
</svg>
