<?xml version="1.0" encoding="utf-8"?>
<!-- Generator: Adobe Illustrator 16.0.0, SVG Export Plug-In . SVG Version: 6.00 Build 0)  -->
<!DOCTYPE svg PUBLIC "-//W3C//DTD SVG 1.1//EN" "http://www.w3.org/Graphics/SVG/1.1/DTD/svg11.dtd">
<svg version="1.1" id="Calque_1" xmlns="http://www.w3.org/2000/svg" xmlns:xlink="http://www.w3.org/1999/xlink" x="0px" y="0px"
	 width="90px" height="90px" viewBox="0 0 90 90" enable-background="new 0 0 90 90" xml:space="preserve">
<circle opacity="0.2" fill="#FFFFFF" enable-background="new    " cx="44.953" cy="45" r="43.615"/>
<path fill="#FFFFFF" d="M60.283,56.674l3.701-3.701c0.176-0.176,0.263-0.352,0.263-0.617c0-0.264-0.087-0.439-0.263-0.615
	c-3.172-3.172-8.282-3.348-11.719-0.529l-6.08-6.167l19.647-19.647c0.353-0.352,0.353-0.881,0-1.233
	c-0.353-0.353-0.881-0.353-1.233,0L44.952,43.811L25.305,24.164c-0.353-0.353-0.882-0.353-1.233,0c-0.353,0.352-0.353,0.881,0,1.233
	l19.647,19.647l-6.079,6.079c-3.436-2.818-8.458-2.643-11.718,0.529c-0.177,0.176-0.265,0.352-0.265,0.615
	c0,0.266,0.088,0.44,0.265,0.617l3.7,3.701l-4.758,4.316c-0.616,0.529-1.057,1.322-1.057,2.115s0.265,1.674,0.881,2.203
	c0.529,0.528,1.322,0.881,2.115,0.881h0.088c0.793,0,1.674-0.44,2.203-1.058l4.229-4.757l3.7,3.701
	c0.176,0.176,0.353,0.264,0.617,0.264l0,0c0.264,0,0.44-0.088,0.617-0.264c3.172-3.174,3.348-8.282,0.529-11.719l6.079-6.08
	l6.078,6.08c-2.818,3.437-2.643,8.457,0.529,11.719c0.178,0.176,0.354,0.264,0.617,0.264s0.441-0.088,0.617-0.264l3.7-3.701
	l4.229,4.757c0.527,0.617,1.32,0.97,2.202,1.058h0.088c0.794,0,1.585-0.353,2.115-0.881c0.616-0.617,0.881-1.41,0.881-2.203
	s-0.44-1.675-1.057-2.203L60.283,56.674z M27.772,63.986c-0.265,0.265-0.528,0.44-0.881,0.44s-0.705-0.088-0.969-0.352
	c-0.265-0.265-0.353-0.618-0.353-0.97c0-0.353,0.176-0.705,0.44-0.881l4.846-4.316l1.234,1.232L27.772,63.986z M37.64,62.225
	l-3.7-3.699l-2.378-2.379l0,0l-3.701-3.701c2.731-2.114,6.696-1.85,9.163,0.617C39.491,55.529,39.754,59.406,37.64,62.225z
	 M52.266,62.225c-2.115-2.73-1.851-6.695,0.616-9.162c1.322-1.321,3.173-2.027,4.935-2.027c1.498,0,2.996,0.441,4.229,1.41
	l-3.699,3.701l0,0l-1.146,1.145L52.266,62.225z M63.984,64.076c-0.266,0.263-0.618,0.352-0.971,0.352
	c-0.352,0-0.705-0.176-0.881-0.439l-4.316-4.846l0.617-0.617l0.616-0.616l4.847,4.315c0.264,0.266,0.439,0.529,0.439,0.881
	C64.335,63.458,64.247,63.811,63.984,64.076z"/>
</svg>
