<?xml version="1.0" encoding="utf-8"?>
<!-- Generator: Adobe Illustrator 16.0.0, SVG Export Plug-In . SVG Version: 6.00 Build 0)  -->
<!DOCTYPE svg PUBLIC "-//W3C//DTD SVG 1.1//EN" "http://www.w3.org/Graphics/SVG/1.1/DTD/svg11.dtd">
<svg version="1.1" id="Calque_1" xmlns="http://www.w3.org/2000/svg" xmlns:xlink="http://www.w3.org/1999/xlink" x="0px" y="0px"
	 width="90px" height="90px" viewBox="0 0 90 90" enable-background="new 0 0 90 90" xml:space="preserve">
<circle opacity="0.2" fill="#FFFFFF" enable-background="new    " cx="45" cy="45.089" r="43.615"/>
<path fill="#FFFFFF" d="M69.477,39.179c-0.942-0.944-2.076-1.416-3.113-1.321c0-1.133-0.565-2.266-1.415-3.209l-0.097-0.094
	c-0.942-0.944-2.076-1.416-3.113-1.416c0-1.132-0.473-2.265-1.415-3.115l-0.095-0.094c-0.852-0.85-1.981-1.416-3.115-1.416
	c0-1.038-0.473-2.171-1.415-3.115l-0.097-0.095c-0.941-0.943-2.076-1.416-3.209-1.416c0-1.038-0.472-2.171-1.319-3.115
	c-1.038-1.038-2.55-1.604-3.87-1.416c-0.943,0.095-1.698,0.661-2.17,1.416L31.439,45.031l0,0l-2.454,2.453l0,0l0,0
	c-4.152,4.343-4.437,10.666-0.755,14.348c1.698,1.793,4.059,2.643,6.418,2.643c2.737,0,5.663-1.132,7.928-3.303l0,0l0,0L44.747,59
	l0,0l24.635-13.78c0.755-0.472,1.322-1.227,1.416-2.171C71.176,41.728,70.609,40.217,69.477,39.179z M63.529,35.781L63.529,35.781
	c0.662,0.661,1.039,1.51,0.943,2.17c0,0.378-0.188,0.661-0.377,0.755l-9.816,6.89l-12.271,8.684l-1.228-1.228l6.512-5.852
	l13.404-11.987l0,0l0.188-0.188C61.549,34.743,62.682,35.026,63.529,35.781z M41.916,59.094l-10.665-10.76l-0.189-0.188l1.133-1.133
	l1.793,1.793l0.094,0.094l2.455,2.455l2.454,2.455l2.454,2.453l1.793,1.793L41.916,59.094z M59,31.251
	c0.566,0.566,0.85,1.321,0.85,1.887c0,0.189-0.095,0.566-0.283,0.755L42.955,48.807l-3.398,3.021L38.329,50.6l6.418-7.268
	l11.421-12.836c0.188-0.283,0.566-0.283,0.755-0.283c0.661,0,1.322,0.283,1.89,0.849L59,31.251z M54.279,26.531L54.279,26.531
	c0.945,0.944,1.134,2.076,0.662,2.643l-0.188,0.188l0,0l-17.745,20.01l-1.227-1.228L46.729,32.57l4.625-6.512
	c0.188-0.283,0.474-0.377,0.756-0.377C52.863,25.587,53.714,25.965,54.279,26.531z M46.635,21.529
	c0.189-0.283,0.379-0.472,0.756-0.472c0.756-0.095,1.604,0.283,2.267,0.943c0.756,0.755,1.036,1.793,0.659,2.36l-0.471,0.66l0,0
	L34.46,46.824l-1.133-1.229L46.635,21.529z M29.552,60.604c-2.737-2.83-2.643-7.455,0.189-11.043l1.604,1.604l9.155,9.25
	C37.008,63.247,32.384,63.342,29.552,60.604z M68.627,43.521L44.559,56.923l-1.132-1.132l10.854-7.74l10.855-7.739l0,0l0.658-0.472
	c0.564-0.378,1.604-0.095,2.357,0.66c0.66,0.661,1.039,1.51,0.943,2.266C69.004,43.143,68.91,43.332,68.627,43.521z"/>
</svg>
