<?xml version="1.0" encoding="utf-8"?>
<!-- Generator: Adobe Illustrator 16.0.0, SVG Export Plug-In . SVG Version: 6.00 Build 0)  -->
<!DOCTYPE svg PUBLIC "-//W3C//DTD SVG 1.1//EN" "http://www.w3.org/Graphics/SVG/1.1/DTD/svg11.dtd">
<svg version="1.1" id="Calque_1" xmlns="http://www.w3.org/2000/svg" xmlns:xlink="http://www.w3.org/1999/xlink" x="0px" y="0px"
	 width="90px" height="90px" viewBox="0 0 90 90" enable-background="new 0 0 90 90" xml:space="preserve">
<circle opacity="0.2" fill="#FFFFFF" enable-background="new    " cx="45" cy="45" r="43.615"/>
<g>
	<path fill="#FFFFFF" stroke="#FFFFFF" stroke-miterlimit="10" d="M69.803,65.78c-0.006,1.357-1.132,2.454-2.484,2.446H26.961v1.666
		h40.354c2.272,0.012,4.129-1.81,4.142-4.096L69.803,65.78z"/>
	<path fill="none" stroke="#FFFFFF" stroke-miterlimit="10" d="M57.736,28.217c2.238,0,4.053-1.817,4.053-4.058
		c0-2.238-1.814-4.052-4.053-4.052s-4.059,1.813-4.059,4.052C53.678,26.398,55.497,28.217,57.736,28.217z"/>
	<path fill="#FFFFFF" stroke="#FFFFFF" stroke-miterlimit="10" d="M32.036,63.122L18.545,49.591l0.007,2.363l12.556,12.604
		c1.443,1.562,3.915-0.244,3.915-0.244l-1.186-1.271c0,0-1.167,0.768-1.771,0.114L32.036,63.122z"/>
	<rect x="18.659" y="37.6" fill="#FFFFFF" stroke="#FFFFFF" stroke-miterlimit="10" width="13.808" height="1.648"/>
	<polygon fill="#FFFFFF" stroke="#FFFFFF" stroke-miterlimit="10" points="69.79,33.66 71.365,34.321 55.689,65.876 53.954,65.876 	
		"/>
	<path fill="none" stroke="#FFFFFF" stroke-miterlimit="10" d="M43.779,31.228l-6.309,7.284c-0.371,0.46-0.938,0.746-1.574,0.746
		c-1.132,0-2.041-0.914-2.041-2.038c0-0.611,0.264-1.156,0.688-1.529l6.8-7.832c0.376-0.448,0.938-0.738,1.573-0.738l9.846-0.003
		c0.725,0,1.37,0.29,1.85,0.75l6.279,6.275l5.2-5.191c0.365-0.309,0.839-0.493,1.353-0.493c1.168,0,2.106,0.945,2.106,2.106
		c0,0.51-0.173,0.97-0.473,1.334l-6.272,6.319c-1.902,1.901-3.435,0.287-3.435,0.287l-3.849-3.867l-6.017,6.956l5.513,5.514
		c0,0,1.162,1.078,0.496,3.227L52.426,64.1c-0.246,1.197-1.306,2.097-2.568,2.097c-1.447,0-2.621-1.175-2.621-2.622
		c0-0.229,0.023-0.45,0.084-0.658l2.537-11.297l-6.259-6.088l-5.387,6.007c0,0-0.874,1.078-3.185,0.993l-10.923,0.018
		c-1.222,0.023-2.328-0.814-2.604-2.05c-0.323-1.413,0.551-2.795,1.963-3.11c0.222-0.051,0.443-0.066,0.658-0.062l9.396,0.026
		l13.893-16.105L43.779,31.228z"/>
</g>
</svg>
