<?xml version="1.0" encoding="utf-8"?>
<!-- Generator: Adobe Illustrator 16.0.0, SVG Export Plug-In . SVG Version: 6.00 Build 0)  -->
<!DOCTYPE svg PUBLIC "-//W3C//DTD SVG 1.1//EN" "http://www.w3.org/Graphics/SVG/1.1/DTD/svg11.dtd">
<svg version="1.1" id="Calque_1" xmlns="http://www.w3.org/2000/svg" xmlns:xlink="http://www.w3.org/1999/xlink" x="0px" y="0px"
	 width="90px" height="90px" viewBox="0 0 90 90" enable-background="new 0 0 90 90" xml:space="preserve">
<circle opacity="0.2" fill="#FFFFFF" enable-background="new    " cx="45" cy="45" r="43.615"/>
<path fill="#FFFFFF" d="M63.742,44.501c-1.402-1.121-2.877-2.183-4.381-3.153L39.615,28.615c-0.141-0.091-0.26-0.208-0.352-0.348
	l-2.289-3.434c-0.023-0.034-0.051-0.066-0.08-0.097c-1.623-1.623-3.781-2.518-6.078-2.518s-4.453,0.895-6.078,2.518
	c-3.352,3.352-3.352,8.805,0,12.155c0.039,0.04,0.084,0.073,0.131,0.101l3.701,2.143c0.008,0.015,0.008,0.03,0.018,0.043l0.922,1.43
	l2.637,4.499c0.09,0.154,0.244,0.264,0.418,0.3c0.016,0.003,0.031,0.002,0.045,0.004l8.012,12.414
	c-0.025,0.161,0.01,0.325,0.102,0.46l3.754,5.422c0.021,0.031,0.045,0.061,0.072,0.087c2.57,2.57,5.988,3.985,9.625,3.985
	c3.636,0,7.052-1.415,9.621-3.985c5.308-5.306,5.308-13.938,0-19.246C63.779,44.531,63.762,44.516,63.742,44.501z M30.006,38.95
	l2.256-1.411l2.73,4.778l-2.107,1.545L30.006,38.95z M47.754,58.589l-0.898-1.323c0.013-0.041,0.021-0.084,0.023-0.13
	c0.014-0.184-0.055-0.362-0.184-0.491l-0.818-0.818l-0.232-0.344c0.006-0.129-0.018-0.26-0.096-0.375
	c-0.082-0.125-8.271-12.38-10.436-15.848c-0.369-0.591-0.768-1.019-1.17-1.33l-0.902-1.576l-0.406-0.816
	c-0.057-0.111-0.143-0.203-0.25-0.265l-3.887-2.25c-1.193-1.253-1.174-3.241,0.055-4.471c0.604-0.604,1.408-0.938,2.264-0.938
	c0.826,0,1.605,0.312,2.203,0.878l1.387,2.497c0.477,0.857,1.16,1.597,1.98,2.139l23.429,15.488
	c2.986,3.032,3.021,7.975,0.064,11.044c-1.473,1.529-3.48,2.374-5.652,2.374c-2.188,0-4.237-0.847-5.774-2.384l-0.543-0.543
	c0.004-0.028,0.019-0.055,0.019-0.084C47.928,58.855,47.861,58.701,47.754,58.589z M33.73,44.812l2.344-1.72
	c2.742,4.199,6.863,10.383,8.076,12.197l-2.58,1.67L33.73,44.812z M62.9,62.898c-2.332,2.33-5.433,3.615-8.728,3.615
	c-3.278,0-6.362-1.27-8.689-3.576l-3.35-4.836l2.568-1.662l0.582,0.582l-1.086,0.812c-0.184,0.139-0.279,0.365-0.246,0.594
	c0.031,0.229,0.184,0.422,0.4,0.504l2.585,0.994l0.619,0.619c1.775,1.775,4.146,2.753,6.67,2.753c2.521,0,4.851-0.979,6.562-2.761
	c3.445-3.579,3.391-9.35-0.125-12.862c-0.029-0.03-0.062-0.057-0.098-0.079L37.084,32.072c-0.65-0.43-1.193-1.017-1.572-1.698
	l-1.432-2.577c-0.029-0.052-0.064-0.099-0.105-0.14c-0.844-0.844-1.965-1.309-3.158-1.309s-2.314,0.465-3.158,1.309
	c-1.742,1.741-1.742,4.575,0,6.316c0.039,0.039,0.084,0.073,0.129,0.101l3.799,2.199l0.076,0.149L29.138,38l-3.561-2.061
	c-2.801-2.862-2.781-7.47,0.057-10.308c1.385-1.385,3.227-2.147,5.184-2.147c1.938,0,3.76,0.747,5.139,2.104l2.254,3.38
	c0.191,0.285,0.434,0.523,0.721,0.709L58.678,42.41c1.459,0.939,2.889,1.968,4.25,3.055C67.713,50.282,67.705,58.094,62.9,62.898z"
	/>
</svg>
