<?xml version="1.0" encoding="utf-8"?>
<!-- Generator: Adobe Illustrator 16.0.0, SVG Export Plug-In . SVG Version: 6.00 Build 0)  -->
<!DOCTYPE svg PUBLIC "-//W3C//DTD SVG 1.1//EN" "http://www.w3.org/Graphics/SVG/1.1/DTD/svg11.dtd">
<svg version="1.1" id="Calque_1" xmlns="http://www.w3.org/2000/svg" xmlns:xlink="http://www.w3.org/1999/xlink" x="0px" y="0px"
	 width="90px" height="90px" viewBox="0 0 90 90" enable-background="new 0 0 90 90" xml:space="preserve">
<circle opacity="0.2" fill="#FFFFFF" enable-background="new    " cx="45" cy="45" r="43.615"/>
<g>
	<path fill="#FFFFFF" d="M70.352,22.796c-1.52-0.32-3.05-0.489-4.602-0.513c-0.21-0.003-0.486,0.167-0.52,0.395
		c-1.258,9.064-2.4,18.154-3.877,27.188c-0.371,2.269-0.771,4.529-1.213,6.785c-0.41,2.093-0.729,4.307-1.58,6.271
		c-1.844,4.248-9.067,4.15-9.597-0.779c1.588-0.859,3.657-3.274,2.638-4.951c-0.604-0.985-1.483-1.176-2.515-0.7
		c-1.356,0.626-1.739,1.932-3.457,2.02c-1.942,0.103-5.167-2.894-6.193,0.074c-0.8,2.313,2.251,3.582,4.228,3.881
		c-0.003,3.024,1.922,6.888,4.699,8.104c3.372,1.479,8.229,1.771,11.282-0.532c3.683-2.775,5.396-7.586,6.174-11.951
		c0.479-2.694,0.713-5.426,1.117-8.132c0.42-2.816,0.97-5.614,1.316-8.441c0.748-6.074,1.939-12.099,2.487-18.197
		C70.766,23.094,70.564,22.841,70.352,22.796z M67.365,39.888c-0.389,3.396-1.021,6.743-1.514,10.124
		c-0.422,2.887-0.656,5.805-1.231,8.668c-1.065,5.295-4.011,11.863-10.25,11.896c-2.113,0.011-5.033-0.249-6.714-1.7
		c-1.772-1.53-3.066-4.575-2.899-6.886c0.021-0.293-0.16-0.459-0.379-0.503c-0.049-0.02-0.101-0.031-0.159-0.035
		c-1.064-0.067-2.434-0.442-3.222-1.222c-0.636-0.627-0.78-1.894,0.334-1.898c0.339-0.003,0.843,0.331,1.145,0.461
		c1.201,0.516,2.376,0.936,3.704,0.732c1.284-0.191,1.777-0.793,2.68-1.578c0.941-0.821,2.226-0.533,1.685,0.882
		c-0.364,0.955-1.34,2.117-2.286,2.475c-0.021,0.009-0.033,0.02-0.054,0.026c-0.197,0.061-0.354,0.223-0.343,0.492
		c0.16,3.535,3.043,5.752,6.584,5.193c1.518-0.24,3.264-0.996,4.267-2.188c1.586-1.887,1.87-4.896,2.335-7.216
		c1.51-7.528,2.6-15.146,3.625-22.763c1.104,0.189,2.217,0.312,3.335,0.365C67.768,36.767,67.544,38.324,67.365,39.888z
		 M68.128,34.411c-1.125-0.048-2.239-0.166-3.351-0.359c0.478-3.562,0.942-7.122,1.436-10.676c1.148,0.04,2.281,0.161,3.412,0.376
		C69.281,27.327,68.68,30.866,68.128,34.411z"/>
</g>
<g>
	<path fill="#FFFFFF" d="M39.657,43.517c3.746,0.191,7.245,1.837,11.054,1.572c4.094-0.285,7.385-2.849,7.508-7.146
		c0.094-3.3-1.299-7.479-3.486-9.966c-2.493-2.834-6.914-3.251-10.458-3.411c-3.222-0.146-6.476,0.061-9.647,0.651
		c-7.271,1.44-15.12,3.955-16.965,12.095c-0.851,3.754-0.299,8.264,2.937,10.752c3.428,2.633,7.767,1.006,10.981-1.136
		C34.19,45.195,36.339,43.346,39.657,43.517z M25.98,47.988c-2.819,0.422-4.943-0.158-6.321-2.808
		c-1.354-2.604-1.147-6.126-0.212-8.83c2.296-6.64,10.029-9.09,16.333-10.124c6.783-0.953,17.565-1.047,20.159,6.974
		c1.064,3.286,1.16,6.435-1.491,8.972c-2.218,2.125-5.328,1.98-8.154,1.599c-2.075-0.283-4.133-0.888-6.221-1.04
		c-2.059-0.15-3.896,0.444-5.69,1.414C31.637,45.627,29.145,47.516,25.98,47.988z"/>
	<path fill="#FFFFFF" d="M40.072,42.73c2.088,0.152,4.146,0.757,6.221,1.039c2.826,0.383,5.938,0.527,8.154-1.599
		c2.652-2.538,2.557-5.685,1.492-8.971c-2.595-8.021-13.377-7.927-20.161-6.974c-6.304,1.034-14.037,3.484-16.333,10.125
		c-0.935,2.702-1.141,6.227,0.212,8.829c1.378,2.651,3.502,3.229,6.321,2.81c3.165-0.473,5.657-2.361,8.402-3.844
		C36.176,43.173,38.013,42.579,40.072,42.73z M30.345,45.226c-2.11,1.176-5.979,2.85-8.249,1.245
		c-2.516-1.779-2.572-5.83-1.955-8.526c1.625-7.11,9.54-9.605,15.933-10.653c5.539-0.779,14.75-1.178,18.053,4.484
		c0.799,1.372,1.127,2.968,1.35,4.522c0.31,2.176-0.471,4.055-2.229,5.424c-2.563,1.997-6.451,1.117-9.367,0.543
		c-2.44-0.48-4.813-0.997-7.266-0.279C34.334,42.651,32.395,44.083,30.345,45.226z"/>
	<path fill="#FFFFFF" d="M41.75,49.088c1.055-1.201,1.812-2.432,2.985-3.518c0.135,0.031,0.269,0.061,0.402,0.088
		c2.113,0.434,4.294,0.744,6.451,0.453c3.248-0.438,6.268-2.272,7.316-5.505c1.121-3.453-0.066-7.452-1.58-10.598
		c-1.967-4.088-5.398-5.636-9.738-6.245c-4.379-0.613-8.911-0.417-13.253,0.39c-7.103,1.407-14.611,3.772-17.262,11.241
		c-2.269,6.389,0.398,16.168,8.781,15.086c1.932-0.252,3.759-1.047,5.417-2.045c0.011,0,0.021,0.004,0.034,0.004
		c2.156,0.058,3.188,1.447,5.024,2.238c1.021,0.438,1.782,0.336,2.839,0.103C40.315,50.527,40.964,49.982,41.75,49.088z
		 M20.599,48.066c-3.237-2.488-3.788-7-2.938-10.752c1.845-8.141,9.695-10.655,16.965-12.095c3.171-0.589,6.425-0.795,9.648-0.651
		c3.542,0.16,7.965,0.577,10.458,3.411c2.188,2.486,3.58,6.666,3.485,9.966c-0.123,4.297-3.413,6.86-7.508,7.146
		c-3.81,0.265-7.308-1.381-11.054-1.572c-3.318-0.171-5.466,1.678-8.077,3.415C28.365,49.072,24.026,50.699,20.599,48.066z
		 M38.512,49.789c-1.494,0.295-2.564-0.547-3.727-1.381c-0.699-0.5-1.358-0.783-2.089-0.932c1.418-1.025,2.815-2.157,4.498-2.625
		c2.046-0.569,4.179-0.078,6.237,0.416c-0.678,0.665-1.226,1.34-1.798,2.196C40.824,48.67,39.937,49.508,38.512,49.789z"/>
</g>
</svg>
