<?xml version="1.0" encoding="utf-8"?>
<!-- Generator: Adobe Illustrator 16.0.0, SVG Export Plug-In . SVG Version: 6.00 Build 0)  -->
<!DOCTYPE svg PUBLIC "-//W3C//DTD SVG 1.1//EN" "http://www.w3.org/Graphics/SVG/1.1/DTD/svg11.dtd">
<svg version="1.1" id="Calque_1" xmlns="http://www.w3.org/2000/svg" xmlns:xlink="http://www.w3.org/1999/xlink" x="0px" y="0px"
	 width="90px" height="90px" viewBox="0 0 90 90" enable-background="new 0 0 90 90" xml:space="preserve">
<circle opacity="0.2" fill="#FFFFFF" cx="45" cy="45" r="43.615"/>
<path fill="#FFFFFF" stroke="#FFFFFF" stroke-miterlimit="10" d="M72.079,23.512l-5.918-5.92c-0.269-0.269-0.673-0.269-0.942,0
	l-6.524,6.524c-1.748,1.749-1.883,4.573-0.403,6.457l-3.767,3.767c-2.152-6.39-5.783-11.501-9.08-15.066l-0.066-0.067
	c-0.135-0.134-0.336-0.202-0.472-0.202h-0.268c-0.202,0-0.404,0.068-0.471,0.202L44.1,19.273
	c-9.283,10.426-12.242,22.263-9.08,34.504l-4.103,4.103c-0.875-0.673-1.883-1.009-3.026-1.009c-1.279,0-2.556,0.538-3.431,1.412
	l-6.523,6.524c-0.269,0.269-0.269,0.671,0,0.941l5.918,5.918c0.135,0.136,0.336,0.203,0.472,0.203c0.134,0,0.335-0.067,0.471-0.203
	l6.524-6.522c0.942-0.942,1.413-2.153,1.413-3.431c0-1.076-0.337-2.019-0.941-2.893l3.631-3.632
	c1.682,5.649,4.708,11.434,9.08,17.151c0.135,0.135,0.336,0.269,0.538,0.269c0.201,0,0.403-0.067,0.538-0.269
	c11.03-14.528,12.039-26.972,9.281-36.656l4.238-4.236c0.874,0.605,1.883,0.941,2.892,0.941c1.278,0,2.489-0.471,3.43-1.412
	l6.525-6.525C72.348,24.251,72.348,23.779,72.079,23.512z M30.445,64.202l-6.052,6.053l-4.977-4.978l6.052-6.053
	c0.673-0.673,1.547-1.009,2.489-1.009c0.74,0,1.48,0.269,2.018,0.673l-6.255,6.256c-0.269,0.269-0.269,0.672,0,0.941
	c0.134,0.134,0.336,0.202,0.47,0.202c0.135,0,0.337-0.068,0.471-0.202l6.188-6.188c0.336,0.538,0.538,1.209,0.538,1.882
	C31.455,62.654,31.051,63.597,30.445,64.202z M44.772,20.483c4.238,4.709,7.129,9.686,8.677,14.866l-2.893,2.892
	c-1.277-2.354-3.295-3.901-5.583-3.901c-3.767,0-6.859,4.17-6.859,9.281c0,2.085,0.537,4.035,1.411,5.649l-3.362,3.363
	C33.472,41.2,36.297,30.237,44.772,20.483z M50.086,40.596c0.269,0.94,0.403,1.949,0.403,3.025c0,4.372-2.489,7.937-5.515,7.937
	c-1.413,0-2.757-0.807-3.767-2.153L50.086,40.596z M40.535,48.262c-0.673-1.277-1.077-2.893-1.077-4.641
	c0-4.372,2.489-7.937,5.516-7.937c1.883,0,3.564,1.413,4.573,3.564L40.535,48.262z M45.108,70.928
	c-4.17-5.65-6.994-11.232-8.542-16.747l3.766-3.766c1.211,1.547,2.893,2.556,4.708,2.556c3.766,0,6.86-4.171,6.86-9.282
	c0-1.479-0.269-2.825-0.673-4.035l2.69-2.691C56.609,47.656,53.65,59.293,45.108,70.928z M64.612,30.102
	c-1.21,1.211-3.026,1.347-4.372,0.472l6.121-6.121c0.269-0.269,0.269-0.673,0-0.94c-0.269-0.271-0.672-0.271-0.942,0l-6.12,6.12
	c-1.009-1.346-0.875-3.296,0.403-4.506l6.054-6.054l4.977,4.978L64.612,30.102z"/>
</svg>
