<?xml version="1.0" encoding="utf-8"?>
<!-- Generator: Adobe Illustrator 16.0.0, SVG Export Plug-In . SVG Version: 6.00 Build 0)  -->
<!DOCTYPE svg PUBLIC "-//W3C//DTD SVG 1.1//EN" "http://www.w3.org/Graphics/SVG/1.1/DTD/svg11.dtd">
<svg version="1.1" id="Calque_1" xmlns="http://www.w3.org/2000/svg" xmlns:xlink="http://www.w3.org/1999/xlink" x="0px" y="0px"
	 width="90px" height="90px" viewBox="0 0 90 90" enable-background="new 0 0 90 90" xml:space="preserve">
<circle opacity="0.2" fill="#FFFFFF" cx="45" cy="45" r="43.615"/>
<g>
	<path fill="#FFFFFF" stroke="#FFFFFF" stroke-miterlimit="10" d="M31.268,24.158c0.358,0.086,0.727,0.131,1.094,0.131l0,0
		c2.304,0,4.32-1.662,4.794-3.948c0.277-1.327,0.015-2.676-0.734-3.798c-0.729-1.093-1.831-1.829-3.104-2.074
		c-0.29-0.054-0.587-0.084-0.882-0.084c-2.375,0-4.475,1.765-4.886,4.103C27.099,21.06,28.732,23.55,31.268,24.158z M29.478,18.827
		c0.245-1.392,1.544-2.484,2.958-2.484c0.172,0,0.347,0.018,0.515,0.05c0.753,0.144,1.407,0.584,1.844,1.236
		c0.456,0.685,0.614,1.505,0.446,2.314c-0.287,1.385-1.496,2.39-2.878,2.39c-0.214,0-0.43-0.026-0.639-0.075
		C30.218,21.893,29.211,20.355,29.478,18.827z"/>
	<path fill="#FFFFFF" stroke="#FFFFFF" stroke-miterlimit="10" d="M49.896,24.9c0.368,0,0.736-0.045,1.095-0.131
		c2.534-0.607,4.167-3.098,3.717-5.668c-0.409-2.34-2.511-4.103-4.884-4.103c-0.297,0-0.595,0.028-0.885,0.084
		c-1.271,0.242-2.373,0.979-3.103,2.071c-0.75,1.123-1.01,2.474-0.735,3.798C45.576,23.239,47.594,24.9,49.896,24.9z M47.465,18.241
		c0.436-0.653,1.092-1.093,1.842-1.237c0.169-0.032,0.344-0.049,0.518-0.049c1.413,0,2.712,1.093,2.956,2.483
		c0.269,1.529-0.739,3.066-2.245,3.429c-0.209,0.05-0.425,0.075-0.639,0.075c-1.381,0-2.592-1.005-2.877-2.39
		C46.851,19.746,47.009,18.926,47.465,18.241z"/>
	<path fill="#FFFFFF" stroke="#FFFFFF" stroke-miterlimit="10" d="M62.907,68.335l-2.386-10.686
		c-0.076-0.721-0.864-8.242-1.334-12.694c-0.013-0.303-0.037-0.595-0.079-0.876c-0.003-0.018-0.014-0.028-0.017-0.045
		c-0.141-1.331-0.236-2.239-0.246-2.334c0,0-1.039-7.304-1.166-8.242c-0.14-1.041-1.135-4.199-1.775-5.446
		c-0.732-1.419-3.038-2.976-4.842-2.834c-0.479-0.011-2.918,0.032-4.551,1.795c-0.585,0.635-1.097,1.706-1.4,2.428
		c-0.741-0.077-1.588-0.161-2.588-0.249c-0.832-0.468-4.261-2.406-5.957-3.327c-2.144-1.166-4.166-1.078-4.173-1.069
		c-1.638-0.059-4.318,1.226-4.891,3.626c-1.071,4.509-0.121,12.768-0.025,13.564c0.007,0.197,0.038,0.839,0.173,3.306
		c0.235,4.215,1.936,11.141,2.278,12.5L27.634,68.48c-0.275,1.784,0.81,2.888,2.003,3.19c0.244,0.062,0.486,0.093,0.725,0.093
		c1.11,0,2.107-0.64,2.469-1.651l4.312-11.062c0.06-0.157,0.079-0.324,0.057-0.49l-0.675-4.907c1.732,0.899,3.175,1.575,3.601,1.773
		l4.875,4.076c-0.339,0.121-0.604,0.406-0.655,0.786c-0.535,4.045-1.465,11.999-1.479,12.135c-0.11,1.788,1.06,2.857,2.267,3.121
		c0.223,0.048,0.442,0.071,0.658,0.071c1.16,0,2.186-0.679,2.617-1.797c0.013-0.03,0.022-0.062,0.031-0.095l2.506-9.127
		c0.036-0.131,0.043-0.262,0.027-0.388c0.215,0.058,0.434,0.099,0.658,0.099c0.489,0,0.988-0.14,1.445-0.428
		c0.689-0.434,1.227-1.222,1.243-2.186l3.525,8.646c0.419,0.932,1.355,1.483,2.378,1.483c0.308-0.002,0.626-0.051,0.938-0.156
		C62.324,71.27,63.318,70.082,62.907,68.335z M47.95,28.302c1.147-1.241,3.074-1.166,3.089-1.166
		c0.052,0.002,0.104,0.002,0.156-0.005c0.9-0.09,2.565,0.994,2.969,1.775c0.519,1.01,1.464,3.979,1.576,4.813
		c0.128,0.94,1.162,8.228,1.162,8.228c0.013,0.105,0.146,1.376,0.333,3.151c0.053,1.73-0.555,3.813-1.959,4.96
		c-2.285,1.863-4.046,4.603-4.952,6.189c-0.955-1.059-1.885-2.094-2.666-2.968c0.508-1.401,1.219-2.979,1.814-4.28
		c0.878-1.922,1.062-2.345,0.992-2.86l-1.793-8.712c0.227-0.324,0.43-0.618,0.591-0.85c0.309-0.447,0.195-1.055-0.25-1.361
		c-0.445-0.308-1.054-0.195-1.361,0.249c-0.245,0.358-0.499,0.721-0.752,1.082c-0.052,0.058-0.095,0.118-0.132,0.188
		c-0.945,1.344-1.835,2.568-2.111,2.873c-0.955,0.482-7.873,2.763-9.104,3.089c-0.161-0.056-0.353-0.264-0.391-0.493
		c-0.046-0.258,0.151-0.475,0.583-0.646c0.186-0.073,0.929-0.444,1.874-0.926c0.006-0.002,0.013-0.006,0.019-0.008
		c2.232-1.136,5.602-2.888,5.649-2.914c0.188-0.097,0.339-0.253,0.43-0.442l1.207-2.512c1.908,0.048,3.56,0.091,3.735,0.102
		c1.124,0.109,2.269-0.67,2.614-1.77c0.276-0.874,0.056-2.102-1.396-2.92c-0.129-0.073-0.44-0.247-2.725-0.536
		C47.402,29.104,47.692,28.58,47.95,28.302z M47.123,39.604l1.385,6.725c-0.119,0.333-0.484,1.138-0.814,1.856
		c-0.475,1.042-1.024,2.257-1.501,3.442c-0.314-0.361-0.529-0.614-0.595-0.707c-0.232-0.328-0.918-0.934-2.817-2.576
		c-1.42-1.229-3.744-3.239-4.269-3.89l-0.039-0.619c2.912-0.923,7.006-2.329,7.446-2.722C46.129,40.928,46.593,40.326,47.123,39.604
		z M38.168,38.158l-0.101-4.277l2.84,0.756c0.074,0.02,0.151,0.03,0.228,0.03c0.51,0.013,1.068,0.025,1.641,0.038l-0.683,1.422
		C40.88,36.758,39.436,37.505,38.168,38.158z M35.224,58.573l-4.226,10.854c-0.138,0.38-0.612,0.416-0.882,0.348
		c-0.308-0.079-0.652-0.315-0.559-0.942l2.333-10.896c0.032-0.148,0.028-0.303-0.008-0.449c-0.015-0.056-1-3.913-1.676-7.735
		c0.285,0.267,0.584,0.52,0.899,0.736c0.986,0.684,2.146,1.379,3.302,2.025c0.001,0.029-0.01,0.058-0.005,0.09L35.224,58.573z
		 M49.055,64.077l-2.49,9.071c-0.205,0.473-0.672,0.556-1.017,0.48c-0.237-0.051-0.782-0.262-0.735-1.034
		c0.008-0.082,0.933-7.982,1.466-12.021l3.407,2.851C49.391,63.528,49.144,63.753,49.055,64.077z M52.031,62.223
		c-0.053,0.032-0.518,0.307-0.874-0.101c-0.034-0.041-0.071-0.075-0.111-0.11l-9.767-8.173c-0.067-0.056-0.141-0.103-0.221-0.14
		c-0.056-0.023-5.571-2.557-8.842-4.817c-1.278-0.885-2.349-2.452-2.617-3.824c-0.141-2.569-0.166-3.1-0.168-3.151
		c0.002-0.052,0-0.101-0.007-0.15c-0.011-0.086-1.041-8.622-0.019-12.92c0.303-1.269,1.951-2.121,3.009-2.125
		c0.015-0.003,1.578-0.059,3.215,0.83c1.93,1.053,6.112,3.418,6.113,3.418c0.122,0.071,0.258,0.111,0.396,0.125
		c2.959,0.262,6.331,0.642,6.775,0.79c0.218,0.124,0.572,0.369,0.49,0.629c-0.07,0.221-0.341,0.43-0.554,0.41
		c-0.163-0.02-2.276-0.073-4.486-0.127c-0.003,0-0.006,0-0.01,0c-1.067-0.025-2.157-0.052-3.06-0.07l-7.455-1.979
		c-0.523-0.136-1.059,0.174-1.197,0.695c-0.138,0.523,0.173,1.059,0.695,1.198l2.76,0.729l0.135,5.784
		c-0.644,0.326-1.093,0.55-1.213,0.599c-1.567,0.623-1.951,1.855-1.788,2.798c0.204,1.174,1.205,2.091,2.326,2.129
		c0.002,0,0.003,0,0.005,0c0.092,0,0.455-0.092,0.986-0.244l0.021,0.313c-0.008,0.689,0.471,1.228,4.931,5.088
		c1.029,0.891,2.312,1.999,2.495,2.223c0.47,0.672,6.752,7.589,8.324,9.317C52.472,61.852,52.211,62.108,52.031,62.223z
		 M51.714,57.785c0.223-0.415,0.567-1.02,1.014-1.722l0.663,3.312c0.013,0.06,0.03,0.12,0.054,0.176l0.103,0.251
		C52.976,59.179,52.355,58.493,51.714,57.785z M60.528,69.812c-0.262,0.089-0.736,0.093-0.889-0.244l-4.349-10.666l-0.997-4.985
		c-0.003-0.013-0.011-0.02-0.014-0.032c0.662-0.826,1.411-1.64,2.232-2.308c0.497-0.406,0.905-0.887,1.256-1.4
		c0.409,3.908,0.811,7.735,0.811,7.735c0.005,0.037,0.01,0.075,0.02,0.112L61,68.772C61.158,69.447,60.831,69.709,60.528,69.812z"/>
</g>
</svg>
