<?xml version="1.0" encoding="utf-8"?>
<!-- Generator: Adobe Illustrator 16.0.0, SVG Export Plug-In . SVG Version: 6.00 Build 0)  -->
<!DOCTYPE svg PUBLIC "-//W3C//DTD SVG 1.1//EN" "http://www.w3.org/Graphics/SVG/1.1/DTD/svg11.dtd">
<svg version="1.1" id="Calque_1" xmlns="http://www.w3.org/2000/svg" xmlns:xlink="http://www.w3.org/1999/xlink" x="0px" y="0px"
	 width="90px" height="90px" viewBox="0 0 90 90" enable-background="new 0 0 90 90" xml:space="preserve">
<circle opacity="0.2" fill="#FFFFFF" cx="45" cy="45" r="43.615"/>
<path fill="#FFFFFF" d="M53.104,36.507c-0.223-1.746-1.271-2.805-2.854-2.805H34.157c-0.695,0-1.183-0.15-1.34-0.414
	c-0.129-0.22-0.075-0.618,0.145-1.02l0.453-0.841c0.114-0.189,0.13-0.214,0.337-0.214h12.187c1.301,0,2.363-1.059,2.363-2.361
	c0-1.304-1.062-2.362-2.363-2.362H33.545c-1.653,0-3.197,0.867-4.089,2.342c-0.013,0.021-0.028,0.045-0.039,0.062
	c-0.019,0.033-1.902,3.241-3.579,4.806h-0.166c-0.803,0-2.573,0.296-2.857,2.807c-5.115,0.365-9.162,4.632-9.162,9.837v7.294
	c0,5.442,4.427,9.872,9.87,9.872h28.877c5.44,0,9.868-4.43,9.868-9.872v-7.294C62.268,41.139,58.219,36.87,53.104,36.507z
	 M30.68,29.715c0.028-0.037,0.043-0.062,0.062-0.104c0.579-0.994,1.654-1.614,2.804-1.614h12.394c0.469,0,0.853,0.384,0.853,0.855
	c0,0.473-0.384,0.856-0.853,0.856H33.749c-1.048,0-1.448,0.654-1.64,0.967l-0.473,0.875c-0.408,0.75-0.506,1.514-0.282,2.151h-3.451
	C29.364,31.963,30.643,29.784,30.68,29.715z M25.672,35.208H50.25c0.732,0,1.181,0.424,1.332,1.263h-27.25
	C24.547,35.208,25.315,35.208,25.672,35.208z M52.399,62.003H23.522c-4.407,0-8.02-3.429-8.334-7.757h45.545
	C60.418,58.574,56.806,62.003,52.399,62.003z M60.765,52.74H15.158v-5.499h45.606V52.74L60.765,52.74z M15.188,45.734
	c0.314-4.328,3.927-7.757,8.334-7.757h28.877c4.406,0,8.019,3.429,8.334,7.757H15.188L15.188,45.734z M65.258,41.995h7.051
	c0.414,0,0.751-0.34,0.751-0.752c0-0.416-0.337-0.755-0.751-0.755h-7.051c-0.416,0-0.751,0.339-0.751,0.755
	C64.507,41.655,64.842,41.995,65.258,41.995z M65.784,47.074c0,0.416,0.339,0.753,0.752,0.753h9.057
	c0.418,0,0.755-0.337,0.755-0.753s-0.337-0.753-0.755-0.753h-9.057C66.123,46.321,65.784,46.658,65.784,47.074z M75.593,52.153
	h-9.057c-0.413,0-0.752,0.34-0.752,0.755c0,0.416,0.339,0.752,0.752,0.752h9.057c0.418,0,0.755-0.336,0.755-0.752
	C76.348,52.493,76.011,52.153,75.593,52.153z M72.307,57.986h-7.049c-0.416,0-0.751,0.337-0.751,0.755
	c0,0.416,0.335,0.755,0.751,0.755h7.049c0.416,0,0.753-0.339,0.753-0.755C73.06,58.323,72.723,57.986,72.307,57.986z"/>
</svg>
