<?xml version="1.0" encoding="utf-8"?>
<!-- Generator: Adobe Illustrator 16.0.0, SVG Export Plug-In . SVG Version: 6.00 Build 0)  -->
<!DOCTYPE svg PUBLIC "-//W3C//DTD SVG 1.1//EN" "http://www.w3.org/Graphics/SVG/1.1/DTD/svg11.dtd">
<svg version="1.1" id="Calque_1" xmlns="http://www.w3.org/2000/svg" xmlns:xlink="http://www.w3.org/1999/xlink" x="0px" y="0px"
	 width="90px" height="90px" viewBox="0 0 90 90" enable-background="new 0 0 90 90" xml:space="preserve">
<circle opacity="0.2" fill="#FFFFFF" cx="45" cy="45" r="43.615"/>
<path fill="#FFFFFF" stroke="#FFFFFF" stroke-miterlimit="10" d="M68.767,21.224c-1.021-1.021-2.466-1.54-4.293-1.54
	c-3.012,0-6.652,1.393-10.056,3.368l-0.518-0.519c-0.854-0.853-2.339-0.853-3.191,0l-2.248,2.247
	c-0.427,0.426-0.661,0.993-0.662,1.597c0,0.434,0.125,0.844,0.351,1.2c-0.443,0.394-0.873,0.791-1.267,1.186
	C42.58,33.065,35.456,40.756,29.17,47.538c-0.54,0.582-1.072,1.157-1.597,1.725l-0.2-0.2c-0.853-0.856-2.34-0.854-3.191,0
	l-2.249,2.246c-0.427,0.427-0.661,0.994-0.661,1.596c0,0.604,0.234,1.172,0.661,1.597l0.396,0.396
	c-0.337,0.359-0.666,0.711-0.971,1.032c-2.254,2.388-2.249,6.03,0.013,8.292l4.398,4.397c1.095,1.095,2.551,1.698,4.102,1.698l0,0
	c1.55,0,3.039-0.599,4.189-1.684c0.324-0.308,0.672-0.633,1.033-0.972l0.397,0.395c0.426,0.428,0.993,0.664,1.595,0.664
	c0.604,0,1.17-0.236,1.595-0.662l2.249-2.247c0.427-0.426,0.661-0.993,0.661-1.595c0-0.604-0.234-1.171-0.661-1.597l-0.201-0.202
	c0.568-0.527,1.143-1.059,1.726-1.601c6.782-6.284,14.471-13.407,18.772-17.708c0.404-0.403,0.804-0.825,1.195-1.262
	c0.354,0.222,0.762,0.346,1.189,0.346c0.603,0,1.171-0.234,1.597-0.664l2.249-2.247c0.877-0.879,0.877-2.31-0.002-3.191
	l-0.496-0.495c0.785-1.348,1.473-2.711,2.008-4.042C70.848,26.901,70.774,23.231,68.767,21.224z M49.42,25.739l2.248-2.248
	c0.169-0.169,0.396-0.264,0.637-0.264s0.468,0.095,0.639,0.264l0.28,0.28c-1.422,0.898-2.78,1.882-4.011,2.895
	c-0.031-0.091-0.057-0.187-0.057-0.289C49.156,26.136,49.249,25.91,49.42,25.739z M22.892,52.269l2.249-2.25
	c0.17-0.171,0.396-0.264,0.638-0.264c0.24,0,0.466,0.093,0.637,0.264l0.236,0.236c-1.21,1.306-2.357,2.539-3.396,3.651l-0.364-0.365
	c-0.17-0.169-0.264-0.396-0.264-0.637C22.628,52.663,22.722,52.438,22.892,52.269z M39.974,64.852L37.725,67.1
	c-0.341,0.34-0.933,0.342-1.275,0l-0.365-0.365c1.111-1.039,2.345-2.185,3.65-3.396l0.238,0.238c0.17,0.171,0.263,0.396,0.263,0.639
	C40.237,64.455,40.144,64.681,39.974,64.852z M66.502,38.324l-2.248,2.248c-0.241,0.238-0.601,0.3-0.914,0.205
	c1.045-1.258,2.021-2.605,2.896-3.991l0.262,0.264C66.852,37.4,66.852,37.974,66.502,38.324z M60.271,42.15
	c-4.283,4.284-11.962,11.398-18.735,17.674c-3.21,2.973-6.242,5.78-8.404,7.821c-0.898,0.849-2.055,1.314-3.258,1.314
	c-1.189,0-2.305-0.46-3.144-1.3l-4.398-4.397c-1.739-1.74-1.734-4.554,0.013-6.403c2.041-2.162,4.848-5.193,7.82-8.4
	c6.277-6.774,13.392-14.453,17.678-18.737c4.266-4.269,11.655-8.682,16.632-8.682c1.454,0,2.576,0.384,3.335,1.142
	c2.157,2.159,0.867,6.481-0.094,8.865C66.165,34.888,63.384,39.039,60.271,42.15z M32.983,59.422c-0.38,0.38-0.38,0.997,0,1.379
	c0.381,0.38,0.998,0.38,1.379,0c0.381-0.382,0.381-0.999,0-1.379S33.365,59.042,32.983,59.422z M29.193,55.631
	c-0.381,0.38-0.381,0.996,0,1.378c0.381,0.38,0.998,0.38,1.379,0c0.38-0.382,0.38-0.998,0-1.378
	C30.19,55.251,29.573,55.251,29.193,55.631z M32.983,51.837c-0.38,0.382-0.38,0.999,0,1.379c0.381,0.38,0.998,0.38,1.379,0
	s0.381-0.997,0-1.379S33.365,51.455,32.983,51.837z M36.776,55.631c-0.381,0.38-0.381,0.996,0,1.378c0.38,0.38,0.998,0.38,1.379,0
	c0.381-0.382,0.381-0.998,0-1.378C37.774,55.251,37.156,55.251,36.776,55.631z M58.822,33.584c-0.382,0.382-0.382,0.998,0,1.378
	c0.38,0.382,0.997,0.382,1.378,0c0.381-0.38,0.381-0.996,0-1.378C59.819,33.204,59.202,33.204,58.822,33.584z M55.029,29.792
	c-0.381,0.382-0.38,0.999,0,1.379c0.382,0.38,0.998,0.382,1.379,0c0.38-0.38,0.381-0.999,0-1.379
	C56.028,29.41,55.409,29.412,55.029,29.792z M55.029,37.375c-0.381,0.382-0.38,0.998,0,1.379c0.382,0.382,0.998,0.382,1.379,0
	c0.38-0.381,0.381-0.997,0-1.379C56.028,36.995,55.409,36.995,55.029,37.375z M51.237,33.584c-0.381,0.382-0.38,0.998,0,1.378
	c0.381,0.382,0.997,0.382,1.379,0c0.379-0.38,0.381-0.996,0-1.378C52.235,33.204,51.617,33.204,51.237,33.584z"/>
</svg>
