<?xml version="1.0" encoding="utf-8"?>
<!-- Generator: Adobe Illustrator 16.0.0, SVG Export Plug-In . SVG Version: 6.00 Build 0)  -->
<!DOCTYPE svg PUBLIC "-//W3C//DTD SVG 1.1//EN" "http://www.w3.org/Graphics/SVG/1.1/DTD/svg11.dtd">
<svg version="1.1" id="Calque_1" xmlns="http://www.w3.org/2000/svg" xmlns:xlink="http://www.w3.org/1999/xlink" x="0px" y="0px"
	 width="90px" height="90px" viewBox="0 0 90 90" enable-background="new 0 0 90 90" xml:space="preserve">
<circle opacity="0.2" fill="#FFFFFF" cx="45" cy="45" r="43.615"/>
<g>
	<g>
		<path fill="#FFFFFF" d="M65.32,41.299c-3.046-0.118-5.435-2.597-5.435-5.641v-2.544c0-2.537,1.714-4.776,4.166-5.444
			c0.524-0.146,0.951-0.527,1.152-1.031c0.204-0.502,0.159-1.074-0.118-1.541c-2.295-3.836-6.528-6.318-11.925-6.989
			c-0.638-0.077-1.278,0.206-1.646,0.738c-0.366,0.535-0.407,1.229-0.104,1.802c0.271,0.508,0.388,0.889,0.401,0.899
			c-0.166,0.534-2.514,1.938-6.813,1.938c-4.302,0-6.648-1.403-6.815-1.845c0.017-0.104,0.133-0.484,0.401-0.989
			c0.304-0.573,0.264-1.27-0.104-1.804c-0.367-0.533-0.999-0.816-1.646-0.739c-5.393,0.671-9.626,3.153-11.92,6.989
			c-0.281,0.467-0.323,1.039-0.122,1.541c0.204,0.504,0.631,0.886,1.155,1.031c2.452,0.668,4.163,2.908,4.163,5.444v2.544
			c0,3.044-2.387,5.524-5.432,5.641c-0.934,0.036-1.671,0.804-1.671,1.737v11.812c0,0.899,0.685,1.649,1.58,1.731
			c3.872,0.351,5.963,3.383,8.385,6.894c2.725,3.951,5.812,8.432,12.021,8.432c6.211,0,9.3-4.48,12.027-8.433
			c2.422-3.513,4.513-6.547,8.388-6.894c0.897-0.083,1.584-0.833,1.584-1.732v-11.81C66.992,42.103,66.254,41.335,65.32,41.299z
			 M29.123,25.272c1.393-1.476,3.311-2.571,5.621-3.214c0.443,3.223,5.378,4.906,10.255,4.906c4.879,0,9.812-1.685,10.256-4.906
			c2.312,0.639,4.228,1.734,5.624,3.213c-2.012,1.199-3.491,3.136-4.125,5.388H33.246C32.612,28.408,31.133,26.471,29.123,25.272z
			 M63.515,53.369c-4.494,1.076-7.062,4.802-9.358,8.129c-2.562,3.717-4.776,6.93-9.162,6.93c-4.381,0-6.595-3.211-9.159-6.929
			c-2.291-3.324-4.859-7.048-9.35-8.127v-8.815c4.094-0.916,7.104-4.551,7.104-8.898v-1.522h22.818v1.522
			c0,4.348,3.012,7.982,7.107,8.898V53.369L63.515,53.369z"/>
		<path fill="#FFFFFF" d="M52.526,41.853H37.475c-0.96,0-1.739,0.78-1.739,1.739c0,0.96,0.779,1.739,1.739,1.739h15.052
			c0.961,0,1.738-0.779,1.738-1.739C54.265,42.633,53.487,41.853,52.526,41.853z"/>
		<path fill="#FFFFFF" d="M52.526,53.05H37.475c-0.96,0-1.739,0.779-1.739,1.74c0,0.959,0.779,1.737,1.739,1.737h15.052
			c0.961,0,1.738-0.778,1.738-1.737C54.265,53.829,53.487,53.05,52.526,53.05z"/>
	</g>
</g>
</svg>
