<?xml version="1.0" encoding="utf-8"?>
<!-- Generator: Adobe Illustrator 16.0.0, SVG Export Plug-In . SVG Version: 6.00 Build 0)  -->
<!DOCTYPE svg PUBLIC "-//W3C//DTD SVG 1.1//EN" "http://www.w3.org/Graphics/SVG/1.1/DTD/svg11.dtd">
<svg version="1.1" id="Calque_1" xmlns="http://www.w3.org/2000/svg" xmlns:xlink="http://www.w3.org/1999/xlink" x="0px" y="0px"
	 width="90px" height="90px" viewBox="0 0 90 90" enable-background="new 0 0 90 90" xml:space="preserve">
<circle opacity="0.2" fill="#FFFFFF" enable-background="new    " cx="45" cy="45.089" r="43.615"/>
<path fill="#FFFFFF" d="M52.533,22.402c-3.567-1.19-7.533-1.486-11.398-0.892c-1.289,0.199-2.479,0.495-3.767,0.892
	C27.754,25.672,21.211,34.79,21.211,45c0,13.082,10.704,23.787,23.789,23.787c13.084,0,23.789-10.705,23.789-23.787
	C68.789,34.79,62.246,25.672,52.533,22.402z M63.04,57.191h-7.931l-3.368-4.66l3.17-9.714l5.451-1.784l6.44,4.659
	C66.605,49.955,65.319,53.92,63.04,57.191z M55.308,59.172h6.146c-1.091,1.289-2.379,2.377-3.667,3.371
	c-1.388,0.99-2.875,1.783-4.361,2.479L55.308,59.172z M32.214,62.643c-1.389-0.994-2.577-2.182-3.667-3.371h6.145l1.884,5.85
	C35.089,64.428,33.601,63.633,32.214,62.643z M34.89,57.191h-7.929c-2.28-3.271-3.568-7.236-3.768-11.498l6.441-4.658l5.452,1.785
	l3.17,9.713L34.89,57.191z M23.293,43.215c0.1-1.685,0.496-3.37,0.991-4.957c0.496-1.585,1.19-3.17,2.082-4.558l1.883,5.848
	L23.293,43.215z M40.143,51.74l-2.975-9.317l7.93-5.75l7.93,5.75l-2.973,9.317H40.143z M41.331,23.491c0.1,0,0.298,0,0.396-0.1
	c0.396-0.1,0.795-0.1,1.091-0.1c0.199,0,0.396,0,0.596,0c0.396,0,0.892,0,1.288-0.099c0.099,0,0.298,0,0.396,0
	c0.396,0,0.893,0,1.288,0.099c0.198,0,0.397,0,0.597,0c0.396,0,0.794,0.1,1.089,0.1c0.1,0,0.297,0,0.397,0.1
	c0.494,0.099,0.892,0.199,1.389,0.297l-4.955,3.668l-4.957-3.668C40.44,23.689,40.936,23.592,41.331,23.491z M65.715,38.259
	c0.496,1.586,0.894,3.271,0.994,4.957l-5.056-3.667l1.884-5.848C64.524,35.088,65.22,36.576,65.715,38.259z M62.246,31.619
	l-2.478,7.534l-5.554,1.785l-8.223-5.948v-5.848l6.441-4.659C56.399,25.969,59.769,28.446,62.246,31.619z M37.566,24.483
	l6.441,4.658v5.847l-8.226,5.947l-5.551-1.784l-2.479-7.534C30.23,28.446,33.601,25.969,37.566,24.483z M38.954,65.914l-2.479-7.533
	l3.37-4.658h10.31l3.37,4.658l-2.479,7.533c-1.883,0.596-3.965,0.891-6.046,0.891S40.837,66.51,38.954,65.914z"/>
</svg>
