<?xml version="1.0" encoding="utf-8"?>
<!-- Generator: Adobe Illustrator 16.0.0, SVG Export Plug-In . SVG Version: 6.00 Build 0)  -->
<!DOCTYPE svg PUBLIC "-//W3C//DTD SVG 1.1//EN" "http://www.w3.org/Graphics/SVG/1.1/DTD/svg11.dtd">
<svg version="1.1" id="Calque_1" xmlns="http://www.w3.org/2000/svg" xmlns:xlink="http://www.w3.org/1999/xlink" x="0px" y="0px"
	 width="90px" height="90px" viewBox="0 0 90 90" enable-background="new 0 0 90 90" xml:space="preserve">
<circle opacity="0.2" fill="#FFFFFF" cx="45" cy="45" r="43.615"/>
<g>
	<path fill="#FFFFFF" stroke="#FFFFFF" stroke-miterlimit="10" d="M43.276,24.78l-0.939-0.47c-0.366-0.209-0.835-0.209-1.252-0.104
		c-0.418,0.157-0.731,0.417-0.94,0.834l-1.982,4.176c-0.209,0.469-0.731,1.252-1.096,1.669l-2.922,3.392
		c-0.26,0.314-0.939,0.627-1.356,0.627h-2.505c-0.417,0-0.94-0.313-1.148-0.679l-1.826-3.183c-0.209-0.366-0.209-0.939,0-1.305
		l2.452-3.914c0.209-0.366,0.313-0.783,0.209-1.201c-0.104-0.417-0.366-0.783-0.731-0.991l-0.625-0.365
		c-0.783-0.417-1.774-0.209-2.244,0.522l-3.444,5.428c-0.418,0.625-0.469,1.669-0.156,2.399l7.306,14.248
		c0.156,0.314,0.104,0.887-0.157,1.146l-4.644,4.905c-0.47,0.522-0.939,1.409-1.096,2.089l-2.4,11.168
		c-0.104,0.418,0,0.888,0.261,1.198c0.261,0.314,0.678,0.524,1.096,0.524h2.14c0.834,0,1.669-0.628,1.878-1.464l2.036-8.348
		c0.104-0.469,0.521-1.2,0.887-1.566l3.757-3.757l-0.887,4.747c-0.105,0.576-0.261,1.567-0.366,2.141l-1.147,6.576
		c-0.053,0.418,0.052,0.888,0.313,1.201c0.261,0.312,0.678,0.521,1.095,0.521H34.3c0.835,0,1.67-0.628,1.879-1.463l4.488-17.689
		c0.157-0.678,0.104-1.723-0.208-2.4l-3.079-6.681c-0.157-0.366-0.104-0.939,0.156-1.253l3.34-4.07
		c0.417-0.521,0.939-1.356,1.2-1.93l1.983-4.489C44.425,26.136,44.059,25.145,43.276,24.78z M43.067,26.502l-1.982,4.489
		c-0.209,0.521-0.679,1.252-1.043,1.721l-3.34,4.07c-0.522,0.626-0.627,1.669-0.313,2.401l3.079,6.68
		c0.208,0.418,0.261,1.199,0.157,1.671l-4.541,17.638c-0.104,0.312-0.469,0.625-0.834,0.625h-1.461
		c-0.105,0-0.209-0.052-0.313-0.104c0-0.104,0-0.21,0-0.314l1.096-6.521c0.104-0.576,0.261-1.516,0.365-2.089l1.043-5.427
		c0.157-0.732-0.156-0.991-0.365-1.095c-0.052-0.055-0.209-0.107-0.313-0.107c-0.209,0-0.469,0.107-0.783,0.418l-4.227,4.229
		c-0.47,0.469-0.992,1.408-1.148,2.085l-2.036,8.351c-0.104,0.314-0.47,0.626-0.783,0.626h-2.191c-0.105,0-0.209-0.053-0.261-0.104
		c-0.053-0.052-0.053-0.155-0.053-0.314l2.4-11.22c0.104-0.469,0.47-1.198,0.835-1.563l4.644-4.906
		c0.575-0.573,0.731-1.618,0.313-2.347l-7.306-14.248c-0.156-0.366-0.156-0.991,0.052-1.305l3.497-5.375
		c0.156-0.262,0.521-0.366,0.783-0.209l0.626,0.365c0.104,0.052,0.209,0.157,0.261,0.313c0.052,0.156,0,0.261-0.052,0.365
		l-2.453,3.915c-0.417,0.677-0.417,1.721-0.052,2.399l1.826,3.183C28.56,35.479,29.5,36,30.283,36h2.505
		c0.73,0,1.722-0.418,2.191-0.991l2.923-3.394c0.417-0.469,0.939-1.356,1.252-1.93l1.983-4.175c0.052-0.105,0.157-0.209,0.313-0.261
		c0.157-0.052,0.261-0.052,0.418,0.052l0.939,0.47C43.067,25.875,43.171,26.189,43.067,26.502z"/>
	<path fill="#FFFFFF" stroke="#FFFFFF" stroke-miterlimit="10" d="M28.352,29.842c0,2.192,1.774,3.966,3.966,3.966
		c2.191,0,3.966-1.774,3.966-3.966c0-2.191-1.774-3.966-3.966-3.966C30.126,25.875,28.352,27.702,28.352,29.842z M32.318,26.972
		c1.566,0,2.87,1.304,2.87,2.87c0,1.565-1.304,2.87-2.87,2.87c-1.565,0-2.871-1.305-2.871-2.87
		C29.447,28.276,30.7,26.972,32.318,26.972z"/>
	<path fill="#FFFFFF" stroke="#FFFFFF" stroke-miterlimit="10" d="M68.221,65.172l-2.401-11.22
		c-0.156-0.681-0.626-1.619-1.095-2.088l-4.646-4.906c-0.26-0.259-0.313-0.78-0.156-1.147l7.306-14.247
		c0.365-0.678,0.313-1.774-0.104-2.399l-3.549-5.324l0,0c-0.469-0.73-1.461-0.991-2.244-0.522l-0.625,0.365
		c-0.366,0.209-0.627,0.575-0.731,0.992c-0.104,0.417-0.052,0.835,0.209,1.2l2.453,3.914c0.209,0.314,0.209,0.939,0,1.305
		l-1.826,3.183c-0.209,0.366-0.731,0.678-1.148,0.678h-2.505c-0.418,0-1.096-0.312-1.357-0.626l-2.922-3.444
		c-0.365-0.417-0.834-1.2-1.096-1.669l-1.983-4.176c-0.208-0.417-0.521-0.678-0.939-0.834c-0.418-0.156-0.835-0.104-1.252,0.104
		l-0.939,0.47c-0.783,0.417-1.148,1.356-0.783,2.192l1.982,4.489c0.262,0.573,0.783,1.46,1.201,1.93l3.34,4.07
		c0.261,0.314,0.313,0.887,0.156,1.253l-3.079,6.681c-0.208,0.625-0.313,1.668-0.157,2.347l4.541,17.689
		c0.209,0.836,1.043,1.464,1.879,1.464h1.46c0.418,0,0.835-0.21,1.096-0.524c0.261-0.311,0.366-0.729,0.313-1.198l-1.096-6.473
		c-0.105-0.573-0.261-1.563-0.365-2.138l-0.887-4.75l3.758,3.757c0.365,0.366,0.783,1.098,0.887,1.567l2.035,8.348
		c0.209,0.835,0.992,1.463,1.878,1.463h2.14c0.47,0,0.835-0.21,1.095-0.521C68.221,66.06,68.326,65.642,68.221,65.172z
		 M67.125,65.693c-0.053,0.052-0.156,0.104-0.261,0.104h-2.139c-0.366,0-0.731-0.313-0.783-0.625l-2.036-8.351
		c-0.156-0.677-0.678-1.564-1.148-2.086l-4.279-4.177c-0.313-0.311-0.574-0.418-0.783-0.418c-0.156,0-0.261,0.053-0.313,0.107
		c-0.208,0.104-0.521,0.362-0.365,1.095l1.043,5.427c0.104,0.573,0.261,1.513,0.366,2.089l1.095,6.521c0,0.104,0,0.263-0.052,0.314
		c-0.053,0.104-0.157,0.104-0.313,0.104h-1.461c-0.365,0-0.73-0.313-0.834-0.625l-4.488-17.692c-0.104-0.47-0.053-1.25,0.156-1.668
		l3.079-6.68c0.313-0.731,0.208-1.774-0.312-2.401l-3.34-4.07c-0.365-0.417-0.835-1.2-1.043-1.723l-1.984-4.488
		c-0.104-0.261,0-0.626,0.261-0.783l0.94-0.469c0.104-0.053,0.261-0.053,0.417-0.053c0.157,0.053,0.261,0.157,0.313,0.261
		l1.983,4.175c0.261,0.575,0.835,1.41,1.252,1.932l2.922,3.392c0.47,0.574,1.41,0.991,2.191,0.991h2.505
		c0.783,0,1.67-0.521,2.088-1.2l1.826-3.183c0.365-0.68,0.365-1.723-0.053-2.401l-2.453-3.914c-0.052-0.104-0.105-0.261-0.052-0.365
		c0.052-0.157,0.104-0.262,0.261-0.313l0.626-0.365c0.261-0.157,0.626-0.053,0.783,0.208l0,0l3.497,5.376
		c0.209,0.312,0.261,0.991,0.052,1.305l-7.306,14.244c-0.365,0.732-0.208,1.776,0.313,2.351l4.646,4.905
		c0.365,0.363,0.73,1.095,0.834,1.564l2.401,11.221C67.229,65.538,67.177,65.642,67.125,65.693z"/>
	<path fill="#FFFFFF" stroke="#FFFFFF" stroke-miterlimit="10" d="M57.68,33.808c2.191,0,3.966-1.774,3.966-3.966
		c0-2.191-1.774-3.966-3.966-3.966c-2.192,0-3.966,1.775-3.966,3.966C53.713,32.034,55.488,33.808,57.68,33.808z M57.68,26.972
		c1.566,0,2.87,1.304,2.87,2.87c0,1.565-1.304,2.87-2.87,2.87c-1.565,0-2.87-1.305-2.87-2.87
		C54.81,28.276,56.114,26.972,57.68,26.972z"/>
</g>
</svg>
