<?xml version="1.0" encoding="utf-8"?>
<!-- Generator: Adobe Illustrator 16.0.0, SVG Export Plug-In . SVG Version: 6.00 Build 0)  -->
<!DOCTYPE svg PUBLIC "-//W3C//DTD SVG 1.1//EN" "http://www.w3.org/Graphics/SVG/1.1/DTD/svg11.dtd">
<svg version="1.1" id="Calque_1" xmlns="http://www.w3.org/2000/svg" xmlns:xlink="http://www.w3.org/1999/xlink" x="0px" y="0px"
	 width="90px" height="90px" viewBox="0 0 90 90" enable-background="new 0 0 90 90" xml:space="preserve">
<circle opacity="0.2" fill="#FFFFFF" cx="45" cy="45" r="43.615"/>
<path fill="#FFFFFF" d="M53.004,70.567c1.192-8.91,3.807-29.403,3.109-35.751c-0.606-5.74-5.361-15.229-8.136-20.375
	c-0.584-1.132-1.746-1.847-3.02-1.861c-1.272-0.008-2.447,0.676-3.068,1.786c-2.907,5.185-7.788,14.695-8.087,20.49
	c-0.335,6.482,2.049,26.856,3.145,35.688c-2.07,1.358-3.267,3.707-3.145,6.179c0,0.385,0.312,0.696,0.697,0.696
	c0.223-0.015,0.432-0.117,0.578-0.284c2.043-2.036,4.372-3.201,6.394-3.201h6.971c2.023,0,4.351,1.165,6.395,3.201
	c0.146,0.167,0.355,0.27,0.579,0.284c0.384,0,0.697-0.312,0.697-0.696C56.236,74.267,55.055,71.928,53.004,70.567z M35.197,34.925
	c0.287-5.507,5.068-14.8,7.893-19.849c0.258-0.454,0.675-0.794,1.171-0.956v48.715c0,0.385,0.313,0.696,0.697,0.696
	c0.385,0,0.697-0.312,0.697-0.696v-48.68c0.468,0.172,0.857,0.512,1.095,0.948c2.726,5.056,7.39,14.361,7.976,19.864
	c0.698,6.454-2.224,28.879-3.144,35.704c-0.026,0.068-0.04,0.138-0.042,0.209c-0.205,0.965-1.056,1.659-2.043,1.659H45.69v-6.274
	c0-0.386-0.312-0.696-0.697-0.696c-0.384,0-0.697,0.311-0.697,0.696v6.274h-3.849c-1.059,0.01-1.957-0.774-2.091-1.827
	C37.54,63.992,34.855,41.562,35.197,34.925z M37.33,71.989c0.236,0.489,0.582,0.917,1.012,1.249
	c-1.06,0.454-2.053,1.053-2.949,1.777C35.666,73.812,36.351,72.74,37.33,71.989z M51.589,73.238
	c0.438-0.326,0.792-0.748,1.038-1.235c0.963,0.744,1.641,1.799,1.917,2.984C53.644,74.271,52.649,73.683,51.589,73.238z"/>
</svg>
