<?xml version="1.0" encoding="utf-8"?>
<!-- Generator: Adobe Illustrator 16.0.0, SVG Export Plug-In . SVG Version: 6.00 Build 0)  -->
<!DOCTYPE svg PUBLIC "-//W3C//DTD SVG 1.1//EN" "http://www.w3.org/Graphics/SVG/1.1/DTD/svg11.dtd">
<svg version="1.1" id="Calque_1" xmlns="http://www.w3.org/2000/svg" xmlns:xlink="http://www.w3.org/1999/xlink" x="0px" y="0px"
	 width="90px" height="90px" viewBox="0 0 90 90" enable-background="new 0 0 90 90" xml:space="preserve">
<circle opacity="0.2" fill="#FFFFFF" cx="45" cy="45" r="43.615"/>
<g>
	<path fill="#FFFFFF" d="M71.742,55.368L19.863,60.39c-0.482,0-1.036,0.621-0.67,1.171l3.349,6.693
		c0.166,0.251,0.418,0.503,0.753,0.503h41.838c0.333,0,0.585-0.168,0.752-0.418l6.694-11.715
		C72.879,56.174,72.4,55.368,71.742,55.368z M64.63,67.084H23.795l-2.593-5.105l49.034-4.769L64.63,67.084z M25.219,58.214
		C25.219,58.214,25.303,58.214,25.219,58.214l42.255-4.101c0.47,0,0.963-0.541,0.755-1.172C62.553,39.07,51.503,28.17,40.029,23.071
		v-5.356c0-0.625-0.465-0.836-1.088-0.836l-8.367,2.511c-0.824,0.41-0.731,1.349-0.084,1.673l7.865,3.096v9.288L24.549,56.959
		C24.183,57.511,24.681,58.214,25.219,58.214z M66.136,52.608l-24.853,2.426c3.874-13.243,1.123-22.911-0.752-29.788
		C51.995,31.104,61.031,40.726,66.136,52.608z M40.029,53.445V29.513C42.121,37.379,42.121,45.579,40.029,53.445z M33.335,20.309
		l5.021-1.506v3.515L33.335,20.309z M38.355,36.709v18.576l-11.547,1.089L38.355,36.709z"/>
</g>
</svg>
