<?xml version="1.0" encoding="utf-8"?>
<!-- Generator: Adobe Illustrator 16.0.0, SVG Export Plug-In . SVG Version: 6.00 Build 0)  -->
<!DOCTYPE svg PUBLIC "-//W3C//DTD SVG 1.1//EN" "http://www.w3.org/Graphics/SVG/1.1/DTD/svg11.dtd">
<svg version="1.1" id="Calque_1" xmlns="http://www.w3.org/2000/svg" xmlns:xlink="http://www.w3.org/1999/xlink" x="0px" y="0px"
	 width="90px" height="90px" viewBox="0 0 90 90" enable-background="new 0 0 90 90" xml:space="preserve">
<circle opacity="0.2" fill="#FFFFFF" enable-background="new    " cx="45" cy="45" r="43.615"/>
<g>
	<path fill="#FFFFFF" d="M40.853,49.572c-0.481,0-0.909-0.428-0.909-0.909V27.914c0-3.85,3.155-7.005,7.005-7.005
		c0.48,0,0.91,0.428,0.91,0.909s-0.43,1.016-1.018,1.016c-2.781,0-5.08,2.3-5.08,5.08v20.749
		C41.815,49.145,41.388,49.572,40.853,49.572z"/>
	<path fill="#FFFFFF" d="M54.382,55.188c-0.481,0-0.907-0.429-0.907-0.91V33.958c0-3.903,3.153-7.006,7.004-7.006
		c0.48,0,0.91,0.429,0.91,0.909c0,0.481-0.43,0.909-0.91,0.909c-2.78,0-5.08,2.3-5.08,5.08v20.214
		C55.346,54.759,54.917,55.188,54.382,55.188z"/>
	<path fill="#FFFFFF" d="M50.266,33.583c-0.162,0-0.269,0-0.429-0.107l-5.776-2.888c-0.48-0.268-0.694-0.855-0.427-1.283
		c0.267-0.481,0.855-0.695,1.283-0.428l5.774,2.888c0.481,0.268,0.695,0.855,0.429,1.283C50.959,33.423,50.585,33.583,50.266,33.583
		z"/>
	<path fill="#FFFFFF" d="M50.266,38.663c-0.162,0-0.269,0-0.429-0.107l-5.776-2.888c-0.48-0.268-0.694-0.855-0.427-1.283
		c0.267-0.481,0.855-0.695,1.283-0.428l5.774,2.888c0.481,0.268,0.695,0.855,0.429,1.283C50.959,38.503,50.585,38.663,50.266,38.663
		z"/>
	<path fill="#FFFFFF" d="M50.266,43.743c-0.162,0-0.269,0-0.429-0.107l-5.723-2.94c-0.48-0.268-0.694-0.856-0.428-1.283
		c0.268-0.481,0.855-0.695,1.283-0.429l5.775,2.888c0.48,0.268,0.695,0.855,0.429,1.283C50.959,43.476,50.585,43.743,50.266,43.743z
		"/>
	<path fill="#FFFFFF" d="M50.266,48.717c-0.162,0-0.269,0-0.429-0.107l-5.776-2.887c-0.48-0.269-0.694-0.855-0.427-1.284
		c0.267-0.481,0.855-0.695,1.283-0.428l5.774,2.888c0.481,0.269,0.695,0.855,0.429,1.283C50.959,48.557,50.585,48.717,50.266,48.717
		z"/>
	<path fill="#FFFFFF" d="M60.266,63.529c-0.429,0-0.75-0.269-0.91-0.59c-0.48-1.282-1.871-1.871-3.154-1.336
		c-1.123,0.428-2.301,0.428-3.314-0.106c-1.123-0.429-1.873-1.284-2.301-2.353c-0.268-0.59-0.693-1.123-1.283-1.338
		c-0.588-0.268-1.283-0.268-1.871,0c-1.123,0.428-2.3,0.428-3.315-0.105c-1.123-0.43-1.871-1.284-2.299-2.354
		c-0.481-1.283-1.872-1.871-3.155-1.337c-2.192,0.855-4.76-0.161-5.562-2.46c-0.268-0.589-0.695-1.123-1.283-1.337
		c-0.589-0.269-1.283-0.269-1.872,0c-0.481,0.16-1.016-0.106-1.283-0.481c-0.16-0.48,0.106-1.016,0.481-1.282
		c1.123-0.429,2.3-0.429,3.315,0.106c1.123,0.428,1.871,1.282,2.299,2.354c0.481,1.283,1.872,1.871,3.155,1.337
		c2.193-0.854,4.76,0.16,5.562,2.459c0.481,1.284,1.872,1.872,3.155,1.338c1.123-0.428,2.299-0.428,3.314,0.106
		c1.123,0.428,1.873,1.283,2.301,2.353c0.268,0.589,0.695,1.124,1.283,1.337c0.588,0.268,1.283,0.268,1.871,0
		c2.191-0.855,4.761,0.161,5.562,2.46c0.16,0.482-0.106,1.017-0.479,1.284C60.479,63.529,60.316,63.529,60.266,63.529z"/>
	<path fill="#FFFFFF" d="M52.617,66.523c-0.59,0-1.176-0.106-1.711-0.32c-1.123-0.428-1.872-1.284-2.301-2.354
		c-0.267-0.589-0.693-1.123-1.283-1.336c-0.588-0.27-1.282-0.27-1.871,0c-1.122,0.426-2.299,0.426-3.315-0.107
		c-1.123-0.428-1.871-1.283-2.3-2.354c-0.48-1.283-1.871-1.871-3.154-1.338c-1.123,0.43-2.3,0.43-3.315-0.107
		c-1.123-0.426-1.872-1.281-2.3-2.353c-0.16-0.479,0.106-1.016,0.481-1.282c0.481-0.16,1.016,0.105,1.283,0.48
		c0.268,0.589,0.695,1.123,1.284,1.337c0.588,0.269,1.282,0.269,1.871,0c2.192-0.854,4.759,0.16,5.562,2.461
		c0.481,1.282,1.872,1.871,3.155,1.336c1.123-0.428,2.299-0.428,3.314,0.106c1.123,0.429,1.873,1.283,2.301,2.354
		c0.479,1.284,1.871,1.871,3.154,1.337c0.48-0.159,1.016,0.106,1.283,0.481c0.16,0.48-0.107,1.016-0.482,1.283
		C53.74,66.417,53.152,66.523,52.617,66.523z"/>
	<path fill="#FFFFFF" d="M47.482,69.037c-0.428,0-0.748-0.268-0.908-0.589c-0.48-1.283-1.871-1.871-3.154-1.337
		c-1.124,0.429-2.3,0.429-3.315-0.106c-1.124-0.428-1.872-1.282-2.3-2.353c-0.481-1.284-1.872-1.871-3.155-1.338
		c-0.481,0.16-1.017-0.106-1.283-0.48c-0.16-0.48,0.106-1.018,0.48-1.283c2.193-0.855,4.76,0.16,5.562,2.459
		c0.48,1.283,1.871,1.872,3.154,1.338c1.123-0.429,2.3-0.429,3.315,0.106c1.123,0.428,1.872,1.284,2.3,2.354
		c0.161,0.48-0.105,1.015-0.48,1.282C47.751,68.93,47.645,69.037,47.482,69.037z"/>
</g>
</svg>
