<?xml version="1.0" encoding="utf-8"?>
<!-- Generator: Adobe Illustrator 16.0.0, SVG Export Plug-In . SVG Version: 6.00 Build 0)  -->
<!DOCTYPE svg PUBLIC "-//W3C//DTD SVG 1.1//EN" "http://www.w3.org/Graphics/SVG/1.1/DTD/svg11.dtd">
<svg version="1.1" id="Calque_1" xmlns="http://www.w3.org/2000/svg" xmlns:xlink="http://www.w3.org/1999/xlink" x="0px" y="0px"
	 width="90px" height="90px" viewBox="0 0 90 90" enable-background="new 0 0 90 90" xml:space="preserve">
<circle opacity="0.2" fill="#FFFFFF" cx="45" cy="45" r="43.615"/>
<path fill="#FFFFFF" d="M45.307,64.552c-10.386,0-18.799-8.413-18.799-18.799c0-10.328,8.414-18.741,18.799-18.741
	c10.386,0,18.799,8.413,18.799,18.799C64.106,56.139,55.693,64.552,45.307,64.552z M45.307,28.404
	c-9.574,0-17.349,7.774-17.349,17.349c0,9.573,7.775,17.349,17.349,17.349s17.349-7.775,17.349-17.349
	C62.655,36.179,54.88,28.404,45.307,28.404z"/>
<path fill="#FFFFFF" d="M45.307,70.412c-13.577,0-24.66-11.082-24.66-24.659s11.083-24.602,24.66-24.602s24.66,11.082,24.66,24.659
	S58.884,70.412,45.307,70.412z M45.307,22.544c-12.823,0-23.209,10.443-23.209,23.209c0,12.822,10.444,23.209,23.209,23.209
	c12.823,0,23.209-10.444,23.209-23.209C68.516,32.987,58.129,22.544,45.307,22.544z"/>
<path fill="#FFFFFF" d="M45.655,32.407c-0.406,0-0.696-0.29-0.696-0.696V17.264c0-0.406,0.348-0.696,0.696-0.696
	s0.696,0.29,0.696,0.696v14.39C46.409,32.06,46.061,32.407,45.655,32.407z"/>
<path fill="#FFFFFF" d="M45.655,74.59c-0.406,0-0.696-0.29-0.696-0.696V59.446c0-0.406,0.29-0.696,0.696-0.696
	s0.696,0.29,0.696,0.696v14.39C46.409,74.3,46.061,74.59,45.655,74.59z"/>
<path fill="#FFFFFF" d="M31.439,46.274H16.992c-0.406,0-0.696-0.289-0.696-0.696c0-0.406,0.29-0.696,0.696-0.696h14.39
	c0.406,0,0.696,0.29,0.696,0.696C32.078,45.985,31.788,46.274,31.439,46.274z"/>
<path fill="#FFFFFF" d="M73.622,46.274H59.174c-0.406,0-0.696-0.289-0.696-0.696c0-0.406,0.291-0.696,0.696-0.696h14.39
	c0.406,0,0.696,0.29,0.696,0.696C74.26,45.985,74.027,46.274,73.622,46.274z"/>
<path fill="#FFFFFF" d="M45.655,50.278c-2.495,0-4.468-2.03-4.468-4.468c0-2.437,2.031-4.468,4.468-4.468s4.468,2.031,4.468,4.468
	C50.123,48.248,48.15,50.278,45.655,50.278z M45.655,42.678c-1.683,0-3.075,1.393-3.075,3.075s1.393,3.075,3.075,3.075
	s3.075-1.393,3.075-3.075S47.396,42.678,45.655,42.678z"/>
</svg>
