<?xml version="1.0" encoding="utf-8"?>
<!-- Generator: Adobe Illustrator 16.0.0, SVG Export Plug-In . SVG Version: 6.00 Build 0)  -->
<!DOCTYPE svg PUBLIC "-//W3C//DTD SVG 1.1//EN" "http://www.w3.org/Graphics/SVG/1.1/DTD/svg11.dtd">
<svg version="1.1" id="Calque_1" xmlns="http://www.w3.org/2000/svg" xmlns:xlink="http://www.w3.org/1999/xlink" x="0px" y="0px"
	 width="90px" height="90px" viewBox="0 0 90 90" enable-background="new 0 0 90 90" xml:space="preserve">
<circle opacity="0.2" fill="#FFFFFF" enable-background="new    " cx="45" cy="45.089" r="43.615"/>
<path fill="#FFFFFF" d="M62.801,24.639H27.28c-1.537,0-2.732,1.025-2.732,2.306v21.86c0,1.28,1.195,2.305,2.732,2.305h7.941v0.17
	l0,0l0,0l0.085,0.854l0,0l1.024,8.539l0,0l0.085,0.685l0,0l0,0l0.427,3.414c0.085,0.428,0.427,0.769,0.854,0.769h0.085
	c0.427-0.085,0.769-0.513,0.769-0.938l-0.171-1.709l2.476,2.392c0.085,0.085,0.171,0.17,0.256,0.17s0.085,0,0.17,0
	c0.086,0,0.086,0,0.171,0l0,0l0,0h0.171l0,0c0.085,0,0.171,0,0.256-0.085h0.085c0.085-0.085,0.17-0.085,0.256-0.17l2.818-3.074
	l2.817,3.074c0.086,0.085,0.17,0.17,0.256,0.17c0.086,0.085,0.257,0.085,0.342,0.085h0.171l0,0l0,0h0.085c0.085,0,0.171,0,0.171,0
	c0.085,0,0.171-0.085,0.257-0.17l2.475-2.392L51.443,64.6c-0.084,0.428,0.257,0.854,0.77,0.939h0.085
	c0.427,0,0.769-0.341,0.854-0.768l0.427-3.416l0,0l0,0l0.085-0.684l1.025-8.539l0,0l0.084-0.854l0,0l0,0v-0.17h7.941
	c1.537,0,2.732-1.025,2.732-2.307V26.945C65.533,25.664,64.338,24.639,62.801,24.639z M36.417,46.925h0.769h1.537l-0.256,0.343
	l-1.538,2.219h-0.256L36.417,46.925z M48.626,63.49l-1.11-1.281l-1.279-1.366l2.818-2.989l2.391,2.989l-1.11,1.024L48.626,63.49z
	 M41.454,63.49l-1.537-1.537l-1.195-1.196l2.391-2.987l0.341,0.426l2.391,2.647l-1.281,1.366L41.454,63.49z M37.612,51.536
	l0.256-0.427h5.721l0.427,0.512l-1.025,1.281l-1.964,2.391l-0.513-0.598L37.612,51.536z M52.469,51.536l-2.902,3.159l-0.512,0.598
	L47.09,52.73l-0.938-1.194l0.427-0.513H52.3L52.469,51.536z M47.943,56.488l-2.903,3.16l-2.903-3.074l2.903-3.586l0.512,0.683
	L47.943,56.488z M47.857,49.4l1.709-2.135l1.451,2.135H47.857z M42.137,49.4h-3.074l1.451-2.135L42.137,49.4z M45.725,49.4h-1.368
	l-2.048-2.562h5.378L45.725,49.4z M39.917,56.574l-2.049,2.562l-0.683-5.464l1.281,1.366L39.917,56.574z M52.213,59.135
	l-2.049-2.562l2.646-2.903L52.213,59.135z M53.323,49.4h-0.257l-1.537-2.219l-0.256-0.342h1.537h0.769L53.323,49.4z M52.042,45.217
	h-2.306h-0.084l0,0l0,0H49.48h-8.966h-0.17l0,0l0,0h-0.085h-2.305v-7.94h14.003v7.94H52.042z M63.825,48.805
	c0,0.256-0.427,0.598-1.024,0.598h-7.685l0.341-2.562h1.023c0.514,0,0.854-0.342,0.854-0.854c0-0.512-0.341-0.854-0.854-0.854
	h-1.791h-0.854v-8.794c0-0.513-0.342-0.854-0.854-0.854H37.185c-0.513,0-0.854,0.341-0.854,0.854v8.794h-0.854h-1.793
	c-0.512,0-0.854,0.342-0.854,0.854c0,0.512,0.342,0.854,0.854,0.854h1.025l0.342,2.562h-7.685c-0.598,0-1.024-0.342-1.024-0.598
	v-21.86c0-0.256,0.427-0.598,1.024-0.598h35.435c0.598,0,1.024,0.341,1.024,0.598V48.805z"/>
</svg>
