<?xml version="1.0" encoding="utf-8"?>
<!-- Generator: Adobe Illustrator 16.0.0, SVG Export Plug-In . SVG Version: 6.00 Build 0)  -->
<!DOCTYPE svg PUBLIC "-//W3C//DTD SVG 1.1//EN" "http://www.w3.org/Graphics/SVG/1.1/DTD/svg11.dtd">
<svg version="1.1" id="Calque_1" xmlns="http://www.w3.org/2000/svg" xmlns:xlink="http://www.w3.org/1999/xlink" x="0px" y="0px"
	 width="90px" height="90px" viewBox="0 0 90 90" enable-background="new 0 0 90 90" xml:space="preserve">
<circle opacity="0.2" fill="#FFFFFF" cx="45" cy="45" r="43.615"/>
<g>
	<g transform="translate(-841.000000, -1463.000000)">
		<g transform="translate(842.000000, 1463.000000)">
			<path fill="none" stroke="#FFFFFF" stroke-width="2" stroke-linecap="round" stroke-linejoin="round" d="M44.964,30.687
				c1.137-1.137,2.226-2.32,3.266-3.549l5.783-6.835l0,0c2.948-2.948,7.73-2.948,10.68,0l4.005,4.005
				c2.949,2.949,2.949,7.731,0,10.681l0,0l-6.835,5.783c-1.229,1.038-2.413,2.128-3.551,3.266L42.368,59.98
				c-1.137,1.138-2.226,2.321-3.266,3.55l-5.115,6.165l0,0c-2.948,2.951-7.73,2.951-10.68,0l-4.005-4.002
				c-2.949-2.949-2.949-7.732,0-10.681l0,0l6.166-5.115c1.229-1.041,2.414-2.13,3.552-3.267L44.964,30.687L44.964,30.687z"/>
			<path fill="none" stroke="#FFFFFF" stroke-width="2" stroke-linecap="round" stroke-linejoin="round" d="M49.164,45.828
				c-2.901-0.2-5.217-3.222-5.113-6.342c0.1-3.133,2.239-5.674,5.004-5.674c2.766,0,5.132,3.207,5.115,6.342
				C54.154,43.464,51.913,46.018,49.164,45.828L49.164,45.828z"/>
			<path fill="none" stroke="#FFFFFF" stroke-width="2" stroke-linecap="round" stroke-linejoin="round" d="M44.159,50.833
				c-0.198-2.902-3.222-5.219-6.341-5.116c-3.131,0.1-5.673,2.242-5.673,5.007c0,2.764,3.209,5.129,6.341,5.115
				C41.798,55.823,44.349,53.58,44.159,50.833L44.159,50.833z"/>
			<path fill="none" stroke="#FFFFFF" stroke-width="2" stroke-linecap="round" stroke-linejoin="round" d="M63.358,30.983
				l-5.341-5.342c-0.368-0.367-0.368-0.966,0-1.334l1.334-1.334c0.369-0.369,0.967-0.369,1.336,0l5.339,5.34
				c0.37,0.368,0.37,0.966,0,1.334l-1.334,1.336C64.323,31.353,63.726,31.353,63.358,30.983L63.358,30.983z"/>
			<path fill="none" stroke="#FFFFFF" stroke-width="2" stroke-linecap="round" stroke-linejoin="round" d="M27.312,67.027
				l-5.339-5.339c-0.37-0.37-0.37-0.968,0-1.336l1.334-1.336c0.369-0.368,0.967-0.368,1.336,0l5.339,5.342
				c0.37,0.367,0.37,0.965,0,1.335l-1.336,1.334C28.279,67.396,27.683,67.396,27.312,67.027L27.312,67.027z"/>
		</g>
	</g>
</g>
</svg>
