<?xml version="1.0" encoding="utf-8"?>
<!-- Generator: Adobe Illustrator 16.0.0, SVG Export Plug-In . SVG Version: 6.00 Build 0)  -->
<!DOCTYPE svg PUBLIC "-//W3C//DTD SVG 1.1//EN" "http://www.w3.org/Graphics/SVG/1.1/DTD/svg11.dtd">
<svg version="1.1" id="Calque_1" xmlns="http://www.w3.org/2000/svg" xmlns:xlink="http://www.w3.org/1999/xlink" x="0px" y="0px"
	 width="90px" height="90px" viewBox="0 0 90 90" enable-background="new 0 0 90 90" xml:space="preserve">
<circle opacity="0.2" fill="#FFFFFF" enable-background="new    " cx="45" cy="45" r="43.615"/>
<path fill="#FFFFFF" stroke="#FFFFFF" stroke-width="0.5" stroke-miterlimit="10" d="M45,20.143
	C31.271,20.144,20.144,31.271,20.143,45C20.144,58.729,31.271,69.856,45,69.857C58.727,69.856,69.856,58.729,69.857,45
	C69.856,31.271,58.727,20.144,45,20.143z M21.42,45c0-6.514,2.639-12.403,6.906-16.672c0.094-0.093,0.187-0.185,0.282-0.275
	c0.095,0.093,0.194,0.182,0.289,0.275c4.269,4.269,6.907,10.16,6.907,16.672c0,6.513-2.638,12.402-6.907,16.673
	c-0.094,0.094-0.191,0.184-0.288,0.275c-0.094-0.092-0.19-0.184-0.283-0.275C24.06,57.402,21.42,51.514,21.42,45z M29.557,62.817
	c4.643-4.516,7.525-10.83,7.525-17.817c0-6.989-2.884-13.302-7.526-17.817c4.137-3.59,9.534-5.762,15.444-5.762
	c5.908,0,11.306,2.171,15.442,5.762C55.801,31.698,52.918,38.012,52.918,45s2.883,13.302,7.525,17.817
	C56.306,66.406,50.908,68.58,45,68.58C39.091,68.58,33.694,66.406,29.557,62.817z M61.673,61.673
	c-0.092,0.094-0.188,0.184-0.282,0.275c-0.096-0.092-0.194-0.182-0.288-0.275c-4.269-4.27-6.906-10.159-6.906-16.673
	s2.638-12.403,6.906-16.673c0.094-0.093,0.19-0.184,0.288-0.275c0.095,0.092,0.188,0.183,0.282,0.275
	c4.269,4.269,6.907,10.16,6.907,16.672C68.58,51.514,65.94,57.402,61.673,61.673z"/>
</svg>
