<?xml version="1.0" encoding="utf-8"?>
<!-- Generator: Adobe Illustrator 16.0.0, SVG Export Plug-In . SVG Version: 6.00 Build 0)  -->
<!DOCTYPE svg PUBLIC "-//W3C//DTD SVG 1.1//EN" "http://www.w3.org/Graphics/SVG/1.1/DTD/svg11.dtd">
<svg version="1.1" id="Calque_1" xmlns="http://www.w3.org/2000/svg" xmlns:xlink="http://www.w3.org/1999/xlink" x="0px" y="0px"
	 width="90px" height="90px" viewBox="0 0 90 90" enable-background="new 0 0 90 90" xml:space="preserve">
<circle opacity="0.2" fill="#FFFFFF" cx="45" cy="45" r="43.615"/>
<g>
	<path fill="#FFFFFF" d="M68.375,33.575c-0.429-4.172-3.256-7.779-7.207-9.19l-5.605-2l-3.48-3.48H37.917l-3.48,3.48l-5.605,2
		c-3.95,1.411-6.778,5.019-7.207,9.19l-2.802,27.331l10.093,1.01l1.774-17.152v23.621l10.74,2.685l1.394,0.026L45,68.919
		l2.177,2.177h1.293l10.84-2.711V44.764l1.773,17.15l10.093-1.01L68.375,33.575z M47.034,35.739h-3.136l8.033-14.605l2.124,2.122
		L47.034,35.739z M45.115,30.036l-5.398-9.448h10.595L45.115,30.036z M44.165,31.764l-1.698,3.088l-6.521-11.596l2.137-2.136
		L44.165,31.764z M43.317,37.423h3.368v3.369h-3.368V37.423z M62.588,60.073L60.07,35.739h-2.443v31.33l-9.363,2.343h-0.39
		L45,66.537l-2.874,2.875h-0.39l-9.363-2.343v-31.33h-2.442l-2.518,24.334l-6.744-0.674l0.262-2.558l5.429,0.777l0.238-1.667
		l-5.496-0.785l2.197-21.42c0.362-3.528,2.755-6.582,6.097-7.773l5.116-1.829l7.12,12.657v5.673h6.734v-5.673l7.12-12.657
		l5.116,1.827c3.342,1.193,5.734,4.247,6.097,7.775l2.197,21.42l-5.496,0.785l0.238,1.665l5.43-0.775l0.262,2.556L62.588,60.073z"/>
	<rect x="42.475" y="22.271" fill="#FFFFFF" width="1.684" height="1.683"/>
	<rect x="45.842" y="22.271" fill="#FFFFFF" width="1.684" height="1.683"/>
</g>
</svg>
