<?xml version="1.0" encoding="utf-8"?>
<!-- Generator: Adobe Illustrator 16.0.0, SVG Export Plug-In . SVG Version: 6.00 Build 0)  -->
<!DOCTYPE svg PUBLIC "-//W3C//DTD SVG 1.1//EN" "http://www.w3.org/Graphics/SVG/1.1/DTD/svg11.dtd">
<svg version="1.1" id="Calque_1" xmlns="http://www.w3.org/2000/svg" xmlns:xlink="http://www.w3.org/1999/xlink" x="0px" y="0px"
	 width="90px" height="90px" viewBox="0 0 90 90" enable-background="new 0 0 90 90" xml:space="preserve">
<circle opacity="0.2" fill="#FFFFFF" cx="45" cy="45.089" r="43.615"/>
<path fill="#FFFFFF" stroke="#FFFFFF" stroke-width="1.3" stroke-miterlimit="10" d="M61.521,42.356
	c-0.44-0.439-0.879-0.878-1.405-1.142l0.615-7.025c0.263-2.283-0.528-4.655-2.107-6.41c-1.582-1.757-3.777-2.723-6.148-2.723H35.791
	c-2.371,0-4.565,0.966-6.147,2.723c-1.58,1.755-2.37,4.039-2.106,6.41l1.844,21.25c0.176,2.019,1.493,3.6,3.25,4.303v6.585
	c0,0.528,0.35,0.878,0.878,0.878h21.25c0.526,0,0.878-0.351,0.878-0.878v-6.322h1.58c2.634,0,4.742-1.932,5.006-4.566l0.877-8.43
	C63.275,45.342,62.662,43.585,61.521,42.356z M53.792,65.451H34.386v-5.445h0.087h19.406v5.445H53.792z M60.466,55.264
	c-0.175,1.669-1.58,2.986-3.249,2.986h-2.458l0,0h-0.967h-2.02H34.386c0,0,0,0-0.087,0c-0.265,0-0.44,0-0.703-0.088
	c-1.405-0.263-2.459-1.492-2.635-2.985l-1.756-21.163c-0.176-1.844,0.438-3.688,1.669-5.093c1.316-1.317,3.073-2.108,4.917-2.108
	h16.684c1.845,0,3.602,0.791,4.83,2.108c1.229,1.405,1.844,3.161,1.669,5.005l-0.527,6.498c-0.438-0.087-0.966-0.176-1.405-0.176
	c-3.336,0-6.146,2.723-6.146,6.147v2.897c0,0.527,0.352,0.878,0.878,0.878c0.527,0,0.878-0.352,0.878-0.878v-2.897
	c0-2.371,1.933-4.391,4.391-4.391c1.23,0,2.371,0.527,3.25,1.405c0.789,0.878,1.229,2.107,1.141,3.337L60.466,55.264z"/>
</svg>
