<?xml version="1.0" encoding="utf-8"?>
<!-- Generator: Adobe Illustrator 16.0.0, SVG Export Plug-In . SVG Version: 6.00 Build 0)  -->
<!DOCTYPE svg PUBLIC "-//W3C//DTD SVG 1.1//EN" "http://www.w3.org/Graphics/SVG/1.1/DTD/svg11.dtd">
<svg version="1.1" id="Calque_1" xmlns="http://www.w3.org/2000/svg" xmlns:xlink="http://www.w3.org/1999/xlink" x="0px" y="0px"
	 width="90px" height="90px" viewBox="0 0 90 90" enable-background="new 0 0 90 90" xml:space="preserve">
<circle opacity="0.2" fill="#FFFFFF" cx="44.447" cy="44.753" r="43.615"/>
<g>
	<g>
		<g>
			<g>
				<path fill="#FFFFFF" d="M45,55.17c-5.607,0-10.17-4.562-10.17-10.17c0-5.607,4.562-10.17,10.17-10.17
					c5.608,0,10.17,4.562,10.17,10.17C55.17,50.608,50.607,55.17,45,55.17z M45,35.762c-5.094,0-9.238,4.145-9.238,9.238
					c0,5.095,4.145,9.238,9.238,9.238c5.094,0,9.239-4.144,9.239-9.238C54.238,39.906,50.094,35.762,45,35.762z"/>
			</g>
		</g>
	</g>
	<g>
		<g>
			<g>
				<path fill="#FFFFFF" d="M51.771,51.709c-2.411-5.078-6.672-6.247-6.714-6.258l-0.275-0.073l-0.062-0.277
					c-1.193-5.393,1.658-9.7,1.78-9.881l0.772,0.521c-0.027,0.041-2.652,4.022-1.697,8.896c1.058,0.359,4.78,1.92,7.039,6.674
					L51.771,51.709z"/>
			</g>
		</g>
	</g>
	<g>
		<g>
			<g>
				<path fill="#FFFFFF" d="M37.541,48.304c-0.662,0-1.335-0.073-2.005-0.247l0.233-0.902c4.331,1.119,9.074-2.486,9.122-2.523
					l0.57,0.738C45.28,45.507,41.6,48.304,37.541,48.304z"/>
			</g>
		</g>
	</g>
	<g>
		<g>
			<g>
				<path fill="#FFFFFF" d="M53.596,48.688c-2.193-6.333-8.601-7.362-8.665-7.372l0.136-0.922c0.07,0.011,7.026,1.11,9.408,7.99
					L53.596,48.688z"/>
			</g>
		</g>
	</g>
	<g>
		<g>
			<g>
				<path fill="#FFFFFF" d="M54.205,44.005c-2.46-5.574-8.21-6.321-8.269-6.329l0.111-0.925c0.257,0.03,6.336,0.823,9.009,6.877
					L54.205,44.005z"/>
			</g>
		</g>
	</g>
	<g>
		<g>
			<g>
				<path fill="#FFFFFF" d="M41.111,47.134c-0.103-0.26-2.47-6.421,1.979-11.862l0.721,0.59c-4.105,5.021-1.857,10.871-1.833,10.929
					L41.111,47.134z"/>
			</g>
		</g>
	</g>
	<g>
		<g>
			<g>
				<path fill="#FFFFFF" d="M37.344,47.784c-0.487-1.392-1.812-6.289,1.573-10.917l0.751,0.549
					c-3.116,4.262-1.894,8.777-1.445,10.061L37.344,47.784z"/>
			</g>
		</g>
	</g>
	<g>
		<g>
			<g>
				<path fill="#FFFFFF" d="M39.576,51.627c-0.728,0-1.492-0.067-2.29-0.222l0.177-0.915c6.583,1.272,10.676-3.767,10.716-3.818
					l0.73,0.578C48.87,47.3,45.369,51.627,39.576,51.627z"/>
			</g>
		</g>
	</g>
	<g>
		<g>
			<g>
				<path fill="#FFFFFF" d="M42.226,54.356c-0.421,0-0.856-0.022-1.304-0.071l0.1-0.927c6.044,0.656,9.578-3.95,9.614-3.996
					l0.746,0.559C51.238,50.114,47.992,54.356,42.226,54.356z"/>
			</g>
		</g>
	</g>
</g>
<g transform="matrix(1,0,0,1,-1916,-201)">
	<g transform="matrix(0.078125,2.52686e-13,3.23451e-12,0.125,1889.63,191.1)">
		<g transform="matrix(11.0859,-2.24099e-11,-2.87584e-10,6.94618,-20834.8,-1288.53)">
			<path fill="#FFFFFF" d="M1980.64,221.671h-2.429c-0.069-0.002-0.139-0.009-0.201-0.031c-0.201-0.061-0.368-0.214-0.444-0.409
				c-0.035-0.081-0.048-0.165-0.048-0.253v-3.47c0-0.088,0.014-0.172,0.048-0.254c0.076-0.196,0.243-0.349,0.444-0.409
				c0.062-0.02,0.132-0.029,0.201-0.031c3.484,0,6.975-0.128,10.459,0.002c0.09,0.01,0.174,0.029,0.25,0.067
				c0.173,0.083,0.312,0.236,0.368,0.421c0.021,0.066,0.028,0.134,0.028,0.205v3.47c0,0.088-0.014,0.172-0.048,0.253
				c-0.076,0.196-0.243,0.349-0.444,0.409c-0.063,0.023-0.133,0.029-0.202,0.031h-2.429v4.855c0.02,0.928,0.02,1.855,0,2.781v17.347
				c0.02,0.927,0.02,1.855,0,2.781v5.32l5.427,7.63c0.007,0.021,0.021,0.04,0.035,0.061c0.034,0.063,0.062,0.13,0.076,0.2
				c0.014,0.062,0.014,0.079,0.014,0.142c0,4.607,0.097,9.215,0,13.821c-0.014,0.486-0.111,0.969-0.291,1.422
				c-0.125,0.312-0.285,0.607-0.479,0.882c-0.423,0.599-1.006,1.083-1.68,1.386c-0.34,0.155-0.708,0.263-1.082,0.319
				c-0.174,0.027-0.347,0.042-0.521,0.047c-2.852,0.054-5.698,0.053-8.544,0c-0.444-0.013-0.882-0.092-1.298-0.243
				c-0.903-0.323-1.68-0.959-2.173-1.782c-0.153-0.262-0.284-0.541-0.382-0.831c-0.139-0.421-0.208-0.86-0.208-1.305v-13.792
				c0-0.064,0-0.08,0.014-0.143c0.014-0.071,0.041-0.138,0.076-0.201c0.014-0.02,0.028-0.042,0.041-0.061l5.421-7.545v-5.331
				c-0.021-0.923-0.021-1.848,0-2.772v-17.356c-0.021-0.924-0.021-1.848,0-2.772V221.671z M1937.405,242.716l-5.421-7.543
				c-0.014-0.02-0.028-0.041-0.042-0.061c-0.034-0.063-0.062-0.132-0.076-0.202c-0.013-0.062-0.013-0.079-0.013-0.143
				c0-4.63-0.083-9.262,0-13.891c0.013-0.444,0.097-0.883,0.242-1.302c0.09-0.254,0.208-0.502,0.347-0.733
				c0.493-0.822,1.27-1.46,2.172-1.783c0.417-0.15,0.854-0.228,1.298-0.242c2.832-0.054,5.657-0.019,8.488-0.001
				c0.194,0.003,0.389,0.018,0.576,0.046c0.375,0.057,0.743,0.166,1.082,0.321c0.549,0.249,1.041,0.616,1.437,1.072
				c0.34,0.394,0.604,0.85,0.777,1.342c0.16,0.443,0.236,0.91,0.236,1.381v13.715c0,0.063,0,0.08-0.013,0.143
				c-0.014,0.07-0.042,0.137-0.076,0.199c-0.014,0.02-0.028,0.041-0.035,0.061l-5.427,7.63v5.327c0.021,0.922,0.021,1.846,0,2.769
				v17.358c0.021,0.923,0.021,1.847,0,2.769v4.81c0.826,0.008,1.652,0.024,2.477,0.054c0.077,0.008,0.139,0.02,0.209,0.046
				c0.173,0.071,0.319,0.214,0.389,0.393c0.034,0.082,0.048,0.165,0.048,0.254v3.47c0,0.088-0.014,0.171-0.048,0.253
				c-0.077,0.195-0.243,0.349-0.444,0.411c-0.063,0.02-0.133,0.028-0.201,0.03h-10.411c-0.069-0.002-0.139-0.01-0.201-0.03
				c-0.201-0.062-0.368-0.216-0.444-0.411c-0.035-0.082-0.049-0.165-0.049-0.253v-3.47c0-0.071,0.007-0.138,0.028-0.206
				c0.062-0.199,0.215-0.364,0.416-0.441c0.076-0.031,0.16-0.044,0.25-0.047c0.812,0,1.618-0.008,2.429-0.017v-4.843
				c-0.02-0.925-0.02-1.85,0-2.775v-17.352c-0.02-0.926-0.02-1.851,0-2.776V242.716z M1981.334,256.176l-4.859,6.761
				c0,4.556-0.132,9.115,0,13.67c0.014,0.283,0.069,0.563,0.167,0.831c0.076,0.214,0.173,0.417,0.298,0.605
				c0.333,0.494,0.819,0.873,1.374,1.074c0.292,0.102,0.597,0.156,0.903,0.162c2.811,0.017,5.622,0.052,8.432-0.001
				c0.312-0.01,0.625-0.068,0.917-0.18c0.68-0.258,1.249-0.79,1.547-1.453c0.16-0.36,0.243-0.75,0.243-1.144v-13.489l-4.859-6.836
				v16.856c0,0.07-0.007,0.135-0.028,0.201c-0.062,0.198-0.208,0.361-0.402,0.441c-0.063,0.025-0.125,0.042-0.195,0.048
				c-0.021,0.002-0.048,0.002-0.069,0.003h-2.776c-0.021-0.001-0.042-0.001-0.07-0.003c-0.069-0.007-0.131-0.024-0.194-0.048
				c-0.195-0.08-0.34-0.243-0.403-0.441c-0.021-0.066-0.021-0.132-0.028-0.201V256.176z M1938.099,277.197h-2.429v2.082h9.023
				v-2.082h-2.429l0,0H1938.099L1938.099,277.197z M1941.569,271.657c-0.923,0.015-1.853,0.015-2.776,0v4.118
				c0.923-0.011,1.853-0.02,2.776-0.024V271.657z M1984.11,255.681h-1.388v16.657h1.388V255.681z M1941.569,268.868h-2.776v1.387
				h2.776V268.868z M1941.569,251.531c-0.923,0.013-1.853,0.013-2.776,0v15.936c0.923-0.015,1.853-0.015,2.776,0V251.531z
				 M1982.028,254.293L1982.028,254.293c0.923,0,1.853-0.042,2.769,0h0.007v-4.151c-0.923,0.015-1.853,0.015-2.776,0V254.293z
				 M1941.569,248.739h-2.776v1.389h2.776V248.739z M1984.804,248.739v-1.387h-2.776v1.387H1984.804z M1941.569,247.339v-4.151
				h-2.776v4.151C1939.716,247.324,1940.646,247.324,1941.569,247.339z M1982.028,230.015v15.936c0.923-0.015,1.853-0.015,2.776,0
				v-15.936C1983.881,230.028,1982.951,230.028,1982.028,230.015z M1940.875,225.142h-1.388v16.657h1.388V225.142z
				 M1942.263,241.303l4.859-6.835c0-4.52,0.098-9.043,0-13.563c-0.014-0.369-0.09-0.732-0.242-1.071
				c-0.299-0.664-0.868-1.196-1.548-1.453c-0.305-0.116-0.625-0.174-0.951-0.18c-2.783-0.018-5.574,0-8.364,0
				c-0.298,0.001-0.59,0.047-0.875,0.141c-0.166,0.056-0.333,0.129-0.492,0.218c-0.576,0.326-1.021,0.857-1.243,1.48
				c-0.111,0.303-0.166,0.619-0.166,0.94v13.562l4.858,6.762v-16.857c0-0.023,0-0.045,0-0.068c0.007-0.069,0.028-0.135,0.055-0.198
				c0.077-0.19,0.243-0.339,0.438-0.398c0.069-0.02,0.131-0.027,0.201-0.03c0.95,0,1.894-0.043,2.845,0.003
				c0.069,0.011,0.132,0.024,0.194,0.049c0.194,0.08,0.34,0.243,0.402,0.441c0.021,0.066,0.028,0.13,0.028,0.2V241.303z
				 M1984.804,228.612v-1.389h-2.776v1.389H1984.804z M1984.804,225.823v-4.151h-2.776v4.151
				C1982.951,225.808,1983.881,225.808,1984.804,225.823z M1987.927,218.202h-9.023v2.082h2.429l0,0h4.164l0,0h2.429V218.202z"/>
		</g>
	</g>
</g>
</svg>
