<?xml version="1.0" encoding="utf-8"?>
<!-- Generator: Adobe Illustrator 16.0.0, SVG Export Plug-In . SVG Version: 6.00 Build 0)  -->
<!DOCTYPE svg PUBLIC "-//W3C//DTD SVG 1.1//EN" "http://www.w3.org/Graphics/SVG/1.1/DTD/svg11.dtd">
<svg version="1.1" id="Calque_1" xmlns="http://www.w3.org/2000/svg" xmlns:xlink="http://www.w3.org/1999/xlink" x="0px" y="0px"
	 width="90px" height="90px" viewBox="0 0 90 90" enable-background="new 0 0 90 90" xml:space="preserve">
<circle opacity="0.2" fill="#FFFFFF" enable-background="new    " cx="45" cy="45" r="43.615"/>
<g>
	<path fill="#FFFFFF" d="M63.643,26.304c-6.75-6.75-18.098-6.261-25.435,0.978c-4.794,4.793-6.75,11.543-5.283,17.706
		c0.099,0.294,0.099,0.685,0.196,0.979l0,0c0,0.489,0,0.881,0,1.272c0,0.098,0,0.194,0,0.293c0,0.098-0.098,0.293-0.098,0.392
		c0,0.098-0.099,0.293-0.099,0.391c0,0.099-0.097,0.196-0.097,0.293c-0.099,0.197-0.099,0.293-0.196,0.49
		c0,0.098-0.098,0.195-0.098,0.293c-0.099,0.194-0.195,0.293-0.294,0.488c-0.098,0.098-0.098,0.195-0.195,0.195
		c-0.098,0.195-0.294,0.293-0.392,0.391c-0.098,0.098-0.098,0.098-0.195,0.196c-0.195,0.194-0.392,0.391-0.685,0.586l-7.826,5.967
		c-0.391,0.294-0.783,0.783-0.979,1.175c-0.293,0.488-0.391,0.979-0.391,1.564l0,0l0,0c-0.099,1.076,0.293,2.152,1.075,2.936
		l4.5,4.5c0.587,0.685,1.565,1.075,2.544,1.075c0.098,0,0.195,0,0.195,0c0.196,0,0.293,0,0.392-0.098c0.098,0,0.195,0,0.391-0.097
		c0.196-0.099,0.392-0.196,0.588-0.196c0,0,0.098,0,0.098-0.099c0.489-0.293,0.88-0.586,1.174-0.978l6.065-7.826
		c0.195-0.194,0.293-0.392,0.488-0.587c0.099-0.098,0.099-0.098,0.195-0.195c0.099-0.098,0.294-0.294,0.393-0.392
		c0.097-0.099,0.195-0.099,0.195-0.195c0.098-0.098,0.293-0.196,0.489-0.293c0.097-0.098,0.195-0.098,0.293-0.098
		c0.196-0.099,0.293-0.099,0.489-0.196c0.098,0,0.195-0.098,0.293-0.098c0.099,0,0.294-0.098,0.392-0.098
		c0.098,0,0.294-0.099,0.392-0.099c0.098,0,0.195,0,0.392,0c0.391,0,0.782-0.097,1.271,0l0,0c0.294,0,0.686,0.099,0.979,0.196
		c6.163,1.467,12.915-0.489,17.708-5.283C69.902,44.401,70.393,33.054,63.643,26.304z M31.164,65.825
		c-0.195,0.293-0.586,0.489-0.88,0.586h-0.099c-0.097,0-0.195,0-0.293,0.098c0,0,0,0-0.098,0c-0.489,0-0.979-0.194-1.271-0.489
		l-4.5-4.5c-0.098-0.098-0.196-0.194-0.196-0.293c-0.293-0.392-0.391-0.685-0.391-1.076c0-0.195,0.098-0.391,0.098-0.488
		c0.098-0.293,0.293-0.587,0.587-0.783l7.826-5.967c0.293-0.196,0.587-0.393,0.782-0.686c0.099,0,0.099-0.098,0.195-0.098
		c0.196-0.195,0.489-0.488,0.685-0.783l0.099-0.098c0.195-0.293,0.391-0.489,0.489-0.783c0,0,0-0.098,0.098-0.098
		c0.195-0.293,0.293-0.588,0.392-0.881c0-0.098,0.098-0.194,0.098-0.293c0.098-0.293,0.195-0.586,0.293-0.879l0,0l6.848,6.848
		c-0.293,0.098-0.685,0.195-0.979,0.293c-0.097,0-0.097,0.098-0.195,0.098c-0.294,0.098-0.587,0.293-0.88,0.391h-0.099
		c-0.293,0.195-0.586,0.293-0.88,0.49l-0.098,0.098c-0.294,0.195-0.489,0.391-0.783,0.685l-0.098,0.099
		c-0.195,0.293-0.488,0.488-0.685,0.781L31.164,65.825z M45.447,55.064c-0.294-0.099-0.588-0.099-0.881-0.195l-9.489-9.489
		c0-0.293-0.098-0.587-0.195-0.88c-1.369-5.479,0.489-11.543,4.695-15.848c3.522-3.424,7.924-5.185,12.229-5.185
		c3.813,0,7.629,1.369,10.467,4.207c5.968,5.967,5.576,16.141-0.979,22.598C56.99,54.575,50.925,56.336,45.447,55.064z"/>
	<path fill="#FFFFFF" d="M56.402,26.5c-4.695-1.761-10.174-0.489-13.988,3.229c-0.391,0.391-0.391,0.978,0,1.37
		c0.196,0.195,0.489,0.293,0.686,0.293c0.293,0,0.488-0.098,0.685-0.293c3.229-3.131,7.923-4.305,11.936-2.739
		c0.487,0.195,1.075-0.098,1.271-0.587C57.186,27.284,56.893,26.695,56.402,26.5z"/>
	<path fill="#FFFFFF" d="M58.751,27.771c-0.489-0.293-1.076-0.196-1.37,0.293c-0.293,0.489-0.195,1.077,0.294,1.37
		c0.489,0.294,0.88,0.685,1.369,1.076c0.196,0.196,0.489,0.293,0.687,0.293c0.293,0,0.488-0.098,0.685-0.293
		c0.392-0.391,0.392-0.978,0-1.369C59.925,28.652,59.338,28.163,58.751,27.771z"/>
	<path fill="#FFFFFF" d="M62.468,56.532c-3.325,0-5.967,2.641-5.967,5.967c0,3.327,2.642,5.968,5.967,5.968
		c3.327,0,5.968-2.641,5.968-5.968C68.436,59.271,65.795,56.532,62.468,56.532z M62.468,66.51c-2.249,0-4.01-1.761-4.01-4.011
		c0-2.249,1.761-4.01,4.01-4.01c2.25,0,4.013,1.761,4.013,4.01C66.479,64.749,64.718,66.51,62.468,66.51z"/>
</g>
</svg>
