<?xml version="1.0" encoding="utf-8"?>
<!-- Generator: Adobe Illustrator 16.0.0, SVG Export Plug-In . SVG Version: 6.00 Build 0)  -->
<!DOCTYPE svg PUBLIC "-//W3C//DTD SVG 1.1//EN" "http://www.w3.org/Graphics/SVG/1.1/DTD/svg11.dtd">
<svg version="1.1" id="Calque_1" xmlns="http://www.w3.org/2000/svg" xmlns:xlink="http://www.w3.org/1999/xlink" x="0px" y="0px"
	 width="90px" height="90px" viewBox="0 0 90 90" enable-background="new 0 0 90 90" xml:space="preserve">
<circle opacity="0.2" fill="#FFFFFF" cx="45" cy="45" r="43.615"/>
<g transform="translate(0,-1020.3622)">
	<path fill="#FFFFFF" d="M51.338,1043.654c-0.9,0.318-1.715,0.973-2.305,1.91l-3.911,6.23l-11.847-5.101l-0.587,1.915l11.365,4.894
		l-2.932,4.67c-1.666,2.652-1.118,6.45,1.195,8.297l3.703,2.958c0.289,0.231,0.356,0.665,0.158,1.004l-4.721,8.09l1.416,1.158
		l4.721-8.091c0.729-1.25,0.453-3.003-0.613-3.853l-3.701-2.959c-1.521-1.213-1.871-3.649-0.776-5.391l3.237-5.159l13.989,6.023
		c1.33,0.573,2.827-0.253,3.313-1.826l0.086-0.295c0.486-1.576-0.213-3.345-1.543-3.919l-5.706-2.456l0.477-1.553
		c0.892-2.33,0.029-5.322-2.162-6.435l-0.022-0.019h-0.024c-0.928-0.399-1.912-0.416-2.811-0.098V1043.654z M51.832,1045.603
		c0.541-0.191,1.136-0.173,1.697,0.061c1.288,0.669,1.741,2.438,1.258,3.698l-0.013,0.036l-1.101,3.575l7.324,3.152
		c0.455,0.196,0.682,0.767,0.515,1.308l-0.091,0.294c-0.168,0.539-0.647,0.805-1.104,0.608l-13.505-5.812l3.603-5.741
		C50.779,1046.204,51.278,1045.801,51.832,1045.603L51.832,1045.603z"/>
	<path fill="#FFFFFF" d="M35.976,1046.346l-1.408,4.582l1.617,0.696l1.408-4.579L35.976,1046.346z"/>
	<path fill="#FFFFFF" d="M28.128,1071.973l-0.589,1.915l28.522,12.279c2.226,0.957,4.709-0.413,5.518-3.046l0.232-0.749l-1.617-0.7
		l-0.232,0.753c-0.491,1.598-1.962,2.407-3.312,1.827L28.128,1071.973z"/>
	<path fill="#FFFFFF" d="M50.511,1054.852l-4.049,6.04c-0.296,0.44-0.233,1.081,0.139,1.432c0.014,0.014,0.028,0.024,0.042,0.037
		l3.107,2.548c1.615,1.326,2.062,3.895,1.019,5.87l-5.073,9.614l1.458,1.082l5.074-9.615c1.521-2.878,0.858-6.693-1.5-8.627
		l-2.35-1.928l3.479-5.184L50.511,1054.852z"/>
	<path fill="#FFFFFF" d="M50.766,1049.6l-0.962,3.123c-0.484,1.576,0.213,3.344,1.543,3.916l3.029,1.306l0.59-1.914l-3.03-1.305
		c-0.455-0.197-0.681-0.763-0.514-1.304l0.962-3.125L50.766,1049.6z"/>
	<path fill="#FFFFFF" d="M59.556,1034.803c-1.163-0.178-2.38,0.167-3.376,1.075c-1.992,1.818-2.368,5.235-0.831,7.592
		c1.537,2.357,4.424,2.797,6.417,0.979c1.991-1.817,2.363-5.235,0.826-7.592C61.822,1035.679,60.719,1034.979,59.556,1034.803
		L59.556,1034.803z M59.338,1036.817c0.72,0.109,1.405,0.549,1.889,1.29c0.967,1.483,0.74,3.58-0.515,4.727
		c-1.254,1.144-3.03,0.869-3.997-0.613c-0.968-1.484-0.736-3.578,0.518-4.723C57.858,1036.926,58.616,1036.707,59.338,1036.817z"/>
	<path fill="#FFFFFF" d="M19.156,1076.491c-0.476,0.019-0.848,0.489-0.833,1.052c0.012,0.423,0.242,0.793,0.58,0.931l10.435,4.491
		c0.443,0.207,0.942-0.049,1.119-0.571c0.174-0.524-0.042-1.116-0.483-1.323c-0.017-0.008-0.031-0.015-0.047-0.021l-10.434-4.495
		C19.385,1076.507,19.27,1076.485,19.156,1076.491L19.156,1076.491z"/>
	<path fill="#FFFFFF" d="M54.015,1091.497c-0.476,0.023-0.845,0.498-0.824,1.062c0.015,0.414,0.241,0.777,0.571,0.917l8.114,3.495
		c0.448,0.192,0.941-0.08,1.105-0.611c0.162-0.53-0.069-1.115-0.517-1.308l0,0l-8.115-3.491
		C54.242,1091.513,54.129,1091.491,54.015,1091.497L54.015,1091.497z"/>
	<path fill="#FFFFFF" d="M32.711,1082.323c-0.476,0.02-0.849,0.49-0.833,1.053c0.012,0.422,0.242,0.793,0.581,0.931l3.854,1.66
		c0.448,0.192,0.942-0.081,1.105-0.611c0.161-0.53-0.069-1.116-0.517-1.309l0,0l-3.854-1.655
		C32.94,1082.343,32.826,1082.319,32.711,1082.323L32.711,1082.323z"/>
	<path fill="#FFFFFF" d="M42.783,1086.659c-0.476,0.019-0.85,0.489-0.833,1.053c0.011,0.423,0.242,0.794,0.58,0.932l8.111,3.491
		c0.441,0.206,0.942-0.049,1.117-0.573c0.174-0.523-0.042-1.116-0.483-1.323c-0.016-0.007-0.031-0.014-0.046-0.02l-8.109-3.49
		C43.012,1086.678,42.897,1086.655,42.783,1086.659L42.783,1086.659z"/>
	<path fill="#FFFFFF" d="M18.729,1072.216c-0.476,0.023-0.845,0.499-0.824,1.061c0.016,0.42,0.246,0.784,0.582,0.922l9.016,3.814
		c0.44,0.207,0.942-0.048,1.117-0.57c0.178-0.523-0.038-1.116-0.481-1.323c-0.018-0.01-0.038-0.019-0.058-0.026l-9.015-3.813
		C18.957,1072.232,18.845,1072.209,18.729,1072.216L18.729,1072.216z"/>
	<path fill="#FFFFFF" d="M30.783,1077.565c-0.476,0.021-0.847,0.493-0.828,1.056c0.013,0.423,0.243,0.79,0.58,0.928l30.968,13.238
		c0.438,0.216,0.942-0.03,1.124-0.553c0.184-0.519-0.026-1.115-0.465-1.33c-0.024-0.014-0.048-0.023-0.074-0.033l-30.968-13.242
		C31.014,1077.583,30.898,1077.56,30.783,1077.565L30.783,1077.565z"/>
	<path fill="#FFFFFF" d="M64.011,1092.505c-0.161,0.529,0.067,1.113,0.516,1.308c0.446,0.191,0.939-0.082,1.103-0.609
		c0.163-0.529-0.067-1.115-0.513-1.307l0,0C64.668,1091.703,64.174,1091.977,64.011,1092.505L64.011,1092.505z"/>
	<path fill="#FFFFFF" d="M38.831,1085.882c-0.162,0.526,0.068,1.112,0.516,1.305c0.446,0.192,0.939-0.079,1.103-0.607
		c0.162-0.529-0.067-1.115-0.514-1.308l0,0C39.487,1085.079,38.993,1085.352,38.831,1085.882L38.831,1085.882z"/>
</g>
</svg>
