<?xml version="1.0" encoding="utf-8"?>
<!-- Generator: Adobe Illustrator 16.0.0, SVG Export Plug-In . SVG Version: 6.00 Build 0)  -->
<!DOCTYPE svg PUBLIC "-//W3C//DTD SVG 1.1//EN" "http://www.w3.org/Graphics/SVG/1.1/DTD/svg11.dtd">
<svg version="1.1" id="Calque_1" xmlns="http://www.w3.org/2000/svg" xmlns:xlink="http://www.w3.org/1999/xlink" x="0px" y="0px"
	 width="90px" height="90px" viewBox="0 0 90 90" enable-background="new 0 0 90 90" xml:space="preserve">
<circle opacity="0.2" fill="#FFFFFF" enable-background="new    " cx="45" cy="45" r="43.615"/>
<g transform="translate(0,-1020.3622)">
	<path fill="#FFFFFF" d="M35.538,1044.942c-1.012-0.035-2.045,0.224-2.965,0.8c-2.454,1.538-3.197,4.789-1.66,7.242l7.886,12.575
		l-3.504,5.586l-0.93,1.48l-3.722,5.936c-1.023,1.631-0.522,3.807,1.108,4.83l2.966,1.861c1.631,1.022,3.807,0.522,4.83-1.109
		l3.722-5.935l0.93-1.481l0.801-1.274l0.801,1.274l0.932,1.481l3.721,5.935c1.023,1.632,3.199,2.132,4.832,1.109l2.964-1.861
		c1.631-1.022,2.132-3.199,1.108-4.83l-3.723-5.936l-0.93-1.48l-3.504-5.586l7.886-12.575c1.537-2.453,0.794-5.704-1.66-7.242
		c-1.225-0.769-2.651-0.967-3.964-0.667s-2.51,1.1-3.279,2.327L45,1055.67l-5.183-8.268c-0.769-1.227-1.969-2.026-3.28-2.327
		C36.21,1045,35.875,1044.954,35.538,1044.942z M35.486,1046.683c0.225,0.007,0.446,0.036,0.664,0.085
		c0.87,0.2,1.663,0.735,2.183,1.563l5.862,9.349c0.034,0.077,0.078,0.149,0.131,0.212l8.895,14.183l0.932,1.48l3.722,5.936
		c0.522,0.835,0.28,1.892-0.556,2.417l-2.965,1.86c-0.836,0.522-1.894,0.279-2.416-0.556l-3.722-5.935l-0.93-1.481l-14.888-23.744
		c-1.039-1.656-0.552-3.788,1.104-4.826C34.124,1046.838,34.813,1046.662,35.486,1046.683z M54.514,1046.683
		c0.674-0.021,1.362,0.154,1.983,0.544c1.655,1.039,2.144,3.17,1.104,4.826l-7.434,11.857l-4.136-6.596l5.634-8.983
		C52.314,1047.297,53.393,1046.718,54.514,1046.683z M23.969,1047.227c-0.065,0-0.134,0.008-0.198,0.023h-1.539
		c-1.44,0-2.627,1.187-2.627,2.627v3.503c0,1.44,1.187,2.627,2.627,2.627h0.876v26.272h-0.89c-0.483-0.007-0.883,0.38-0.888,0.862
		c-0.008,0.483,0.379,0.881,0.864,0.889c0.007,0,0.015,0,0.023,0h0.89v0.865c-0.007,0.483,0.38,0.881,0.863,0.889
		c0.483,0.007,0.881-0.379,0.888-0.864c0-0.008,0-0.016,0-0.024v-0.865h0.862c0.483,0.007,0.882-0.381,0.888-0.864
		c0.008-0.483-0.379-0.881-0.864-0.887c-0.007,0-0.016,0-0.023,0h-0.862v-27.148v-7.006c0-0.033,0-0.066-0.004-0.1
		C24.816,1047.57,24.428,1047.22,23.969,1047.227z M66.004,1047.227c-0.482,0.007-0.869,0.405-0.861,0.889l0,0
		c0,0.003,0,0.007,0,0.01v7.006v27.148h-0.863c-0.482,0.006-0.867,0.404-0.862,0.887c0.007,0.475,0.39,0.857,0.862,0.864
		c0.029,0.002,0.059,0.002,0.086,0h0.777v0.864c-0.008,0.484,0.379,0.883,0.862,0.89s0.881-0.379,0.888-0.864
		c0-0.008,0-0.016,0-0.025v-0.864h0.891c0.482,0.007,0.883-0.38,0.888-0.864c0.009-0.482-0.379-0.881-0.862-0.887
		c-0.009,0-0.017,0-0.024,0h-0.89v-26.272h0.875c1.44,0,2.627-1.187,2.627-2.627v-3.503c0-1.439-1.187-2.627-2.627-2.627h-1.545
		C66.15,1047.234,66.077,1047.226,66.004,1047.227z M22.231,1049.002h0.876v5.255h-0.876c-0.501,0-0.876-0.376-0.876-0.876v-3.503
		C21.355,1049.378,21.73,1049.002,22.231,1049.002z M66.893,1049.002h0.877c0.5,0,0.875,0.376,0.875,0.875v3.503
		c0,0.5-0.375,0.876-0.875,0.876h-0.877V1049.002z M36.848,1049.263l-2.97,1.86l0.932,1.485l2.968-1.861L36.848,1049.263z
		 M53.152,1049.263l-0.93,1.484l2.965,1.861l0.93-1.485L53.152,1049.263z M39.831,1067.208l4.136,6.596l-1.253,1.993l-0.93,1.481
		l-3.722,5.935c-0.522,0.835-1.58,1.078-2.415,0.556l-2.966-1.86c-0.833-0.524-1.078-1.581-0.555-2.417l3.723-5.936l0.931-1.48
		L39.831,1067.208z M35.473,1077.457l-0.93,1.485l2.965,1.859l0.932-1.484L35.473,1077.457z M54.527,1077.457l-2.971,1.86
		l0.93,1.484l2.971-1.859L54.527,1077.457z"/>
</g>
</svg>
