<?xml version="1.0" encoding="utf-8"?>
<!-- Generator: Adobe Illustrator 16.0.0, SVG Export Plug-In . SVG Version: 6.00 Build 0)  -->
<!DOCTYPE svg PUBLIC "-//W3C//DTD SVG 1.1//EN" "http://www.w3.org/Graphics/SVG/1.1/DTD/svg11.dtd">
<svg version="1.1" id="Calque_1" xmlns="http://www.w3.org/2000/svg" xmlns:xlink="http://www.w3.org/1999/xlink" x="0px" y="0px"
	 width="90px" height="90px" viewBox="0 0 90 90" enable-background="new 0 0 90 90" xml:space="preserve">
<circle opacity="0.2" fill="#FFFFFF" cx="45" cy="45" r="43.615"/>
<path fill="#FFFFFF" stroke="#FFFFFF" stroke-miterlimit="10" d="M55.588,59.433l-4.295-19.676h0.998
	c1.897,0,3.496-1.599,3.496-3.497c0-1.897-1.599-3.496-3.496-3.496h-2.497c1.198-1.197,1.998-2.896,1.998-4.793
	c-0.1-3.796-3.097-6.893-6.892-6.893c-3.796,0-6.793,3.097-6.793,6.792c0,1.897,0.801,3.596,1.999,4.795h-2.498
	c-1.898,0-3.496,1.598-3.496,3.495c0,1.898,1.598,3.496,3.496,3.496h0.999l-4.295,19.678c-4.494,0.298-7.99,4.094-7.99,8.588
	c0,0.601,0.399,1,0.998,1h35.357c0.601,0,1-0.399,1-1C63.578,63.428,60.082,59.733,55.588,59.433z M40.106,27.87
	c0-2.597,2.097-4.795,4.794-4.795c2.695,0,4.794,2.198,4.794,4.795c0,2.696-2.198,4.795-4.794,4.795
	C42.303,32.665,40.106,30.566,40.106,27.87z M36.01,36.16c0-0.799,0.7-1.498,1.499-1.498h14.683c0.799,0,1.498,0.699,1.498,1.498
	s-0.699,1.498-1.498,1.498H37.509C36.71,37.658,36.01,37.06,36.01,36.16z M40.605,39.757h8.59l4.294,19.676H36.311L40.605,39.757z
	 M28.32,67.023c0.499-3.195,3.295-5.692,6.591-5.692h0.2h19.676h0.102c3.295,0,6.092,2.497,6.591,5.692H28.32z"/>
</svg>
