<?xml version="1.0" encoding="utf-8"?>
<!-- Generator: Adobe Illustrator 22.0.1, SVG Export Plug-In . SVG Version: 6.00 Build 0)  -->
<svg version="1.1" id="Calque_1" xmlns="http://www.w3.org/2000/svg" xmlns:xlink="http://www.w3.org/1999/xlink" x="0px" y="0px"
	 width="90px" height="90px" viewBox="0 0 90 90" style="enable-background:new 0 0 90 90;" xml:space="preserve">
<style type="text/css">
	.st0{opacity:0.2;fill:#FFFFFF;enable-background:new    ;}
	.st1{fill:#FFFFFF;}
</style>
<circle class="st0" cx="45" cy="45" r="43.6"/>
<path class="st1" d="M71.3,38h-2.2v-3.3c0-3.5-2.8-6.3-6.3-6.3c-3.5,0-6.3,2.8-6.3,6.3v5.6h-23v-5.6c0-3.5-2.8-6.3-6.3-6.3
	s-6.3,2.8-6.3,6.3V38h-2.2c-2.4,0-4.4,2-4.4,4.4v5.2c0,2.4,2,4.4,4.4,4.4h2.2v3.3c0,3.5,2.8,6.3,6.3,6.3s6.3-2.8,6.3-6.3v-4.8h23
	v4.8c0,3.5,2.8,6.3,6.3,6.3c3.5,0,6.3-2.8,6.3-6.3V52h2.2c2.4,0,4.4-2,4.4-4.4v-5.2C75.7,40,73.7,38,71.3,38z M20.9,50.6h-2.2
	c-1.6,0-3-1.3-3-3v-5.2c0-1.6,1.3-3,3-3h2.2V50.6z M32,55.4c0,2.7-2.1,4.8-4.8,4.8s-4.8-2.1-4.8-4.8V34.6c0-2.7,2.1-4.8,4.8-4.8
	S32,32,32,34.6V55.4z M56.5,49.1h-23v-7.4h23V49.1z M67.6,55.4c0,2.7-2.1,4.8-4.8,4.8c-2.7,0-4.8-2.1-4.8-4.8V34.6
	c0-2.7,2.1-4.8,4.8-4.8c2.7,0,4.8,2.1,4.8,4.8V55.4z M74.2,47.6c0,1.6-1.3,3-3,3h-2.2V39.4h2.2c1.6,0,3,1.3,3,3V47.6z"/>
</svg>
