<?xml version="1.0" encoding="utf-8"?>
<!-- Generator: Adobe Illustrator 16.0.0, SVG Export Plug-In . SVG Version: 6.00 Build 0)  -->
<!DOCTYPE svg PUBLIC "-//W3C//DTD SVG 1.1//EN" "http://www.w3.org/Graphics/SVG/1.1/DTD/svg11.dtd">
<svg version="1.1" id="Calque_1" xmlns="http://www.w3.org/2000/svg" xmlns:xlink="http://www.w3.org/1999/xlink" x="0px" y="0px"
	 width="90px" height="90px" viewBox="0 0 90 90" enable-background="new 0 0 90 90" xml:space="preserve">
<circle opacity="0.2" fill="#FFFFFF" cx="45" cy="45" r="43.615"/>
<g>
	<path fill="#FFFFFF" d="M21.5,26.048h8.339v20.134C25.038,47.514,21.5,51.91,21.5,57.129C21.5,63.4,26.602,68.5,32.871,68.5
		c6.271,0,11.371-5.1,11.371-11.371c0-5.219-3.537-9.615-8.339-10.947V26.048h18.193v20.134c-4.801,1.332-8.338,5.729-8.338,10.947
		c0,6.271,5.101,11.371,11.37,11.371S68.5,63.4,68.5,57.129c0-5.219-3.538-9.615-8.339-10.947V26.048H68.5v-1.516h-47V26.048z
		 M42.726,57.129c0,5.436-4.421,9.855-9.854,9.855s-9.854-4.42-9.854-9.855c0-5.434,4.421-9.854,9.854-9.854
		S42.726,51.695,42.726,57.129z M34.387,45.871c-0.496-0.066-1-0.113-1.516-0.113s-1.019,0.047-1.517,0.113V26.048h3.032V45.871z
		 M66.983,57.129c0,5.436-4.42,9.855-9.854,9.855c-5.434,0-9.854-4.42-9.854-9.855c0-5.434,4.421-9.854,9.854-9.854
		C62.563,47.275,66.983,51.695,66.983,57.129z M58.646,45.871c-0.497-0.066-1.001-0.113-1.517-0.113
		c-0.515,0-1.019,0.047-1.516,0.113V26.048h3.032V45.871z"/>
	<path fill="#FFFFFF" d="M26.049,57.129c0,3.762,3.061,6.824,6.822,6.824s6.822-3.062,6.822-6.824s-3.061-6.822-6.822-6.822
		S26.049,53.367,26.049,57.129z M38.178,57.129c0,2.926-2.381,5.307-5.307,5.307s-5.306-2.381-5.306-5.307s2.38-5.307,5.306-5.307
		S38.178,54.203,38.178,57.129z"/>
	<rect x="32.113" y="42.726" fill="#FFFFFF" width="1.516" height="1.516"/>
	<rect x="32.113" y="39.693" fill="#FFFFFF" width="1.516" height="1.517"/>
	<rect x="32.113" y="36.661" fill="#FFFFFF" width="1.516" height="1.517"/>
	<path fill="#FFFFFF" d="M50.307,57.129c0,3.762,3.061,6.824,6.822,6.824c3.763,0,6.823-3.062,6.823-6.824s-3.061-6.822-6.823-6.822
		C53.367,50.307,50.307,53.367,50.307,57.129z M62.436,57.129c0,2.926-2.381,5.307-5.307,5.307c-2.925,0-5.307-2.381-5.307-5.307
		s2.382-5.307,5.307-5.307C60.055,51.822,62.436,54.203,62.436,57.129z"/>
	<rect x="56.371" y="42.726" fill="#FFFFFF" width="1.516" height="1.516"/>
	<rect x="56.371" y="39.693" fill="#FFFFFF" width="1.516" height="1.517"/>
	<rect x="56.371" y="36.661" fill="#FFFFFF" width="1.516" height="1.517"/>
	<rect x="21.5" y="21.5" fill="#FFFFFF" width="47" height="1.516"/>
</g>
</svg>
