<?xml version="1.0" encoding="utf-8"?>
<!-- Generator: Adobe Illustrator 16.0.0, SVG Export Plug-In . SVG Version: 6.00 Build 0)  -->
<!DOCTYPE svg PUBLIC "-//W3C//DTD SVG 1.1//EN" "http://www.w3.org/Graphics/SVG/1.1/DTD/svg11.dtd">
<svg version="1.1" id="Calque_1" xmlns="http://www.w3.org/2000/svg" xmlns:xlink="http://www.w3.org/1999/xlink" x="0px" y="0px"
	 width="90px" height="90px" viewBox="0 0 90 90" enable-background="new 0 0 90 90" xml:space="preserve">
<circle opacity="0.2" fill="#FFFFFF" enable-background="new    " cx="45" cy="45" r="43.615"/>
<g>
	<path fill="#FFFFFF" stroke="#FFFFFF" stroke-miterlimit="10" d="M58.604,20.854c-7.845,0-17.208,4.676-25.1,12.547
		C25.5,41.377,20.765,50.865,20.851,58.768c0.058,5.601,4.706,10.379,10.714,10.379c7.901,0,17.236-4.639,25.089-12.489
		c7.994-7.996,12.664-17.541,12.492-25.527C69.061,25.539,64.402,20.854,58.604,20.854z M67.566,31.158L67.566,31.158
		c0.049,2.119-0.284,4.352-0.932,6.635L52.253,23.4c2.187-0.637,4.313-0.98,6.34-0.98C63.622,22.42,67.511,26.404,67.566,31.158z
		 M22.42,58.758c-0.02-2.094,0.322-4.299,0.988-6.57L37.85,66.629c-2.158,0.617-4.278,0.951-6.285,0.951
		C26.47,67.58,22.467,63.51,22.42,58.758z M55.541,55.543c-5.01,5.01-10.619,8.65-16.009,10.543L23.959,50.514
		c1.931-5.371,5.609-10.979,10.648-16c5.02-5.002,10.609-8.65,15.972-10.561l15.534,15.533
		C64.221,44.885,60.57,50.514,55.541,55.543z"/>
	<path fill="#FFFFFF" stroke="#FFFFFF" stroke-miterlimit="10" d="M45.935,42.433l-2.023,1.83l-0.85-0.939
		c-0.259-0.288-0.673-0.309-0.961-0.048c-0.144,0.132-0.222,0.334-0.23,0.472c-0.01,0.207,0.051,0.347,0.183,0.492l0.849,0.938
		l-2.022,1.831l-0.85-0.938c-0.262-0.29-0.675-0.312-0.963-0.05c-0.144,0.131-0.224,0.336-0.23,0.474
		c-0.01,0.205,0.054,0.347,0.183,0.491l0.851,0.94l-1.083,0.979c-0.145,0.132-0.224,0.334-0.232,0.472
		c-0.011,0.205,0.052,0.347,0.185,0.49c0.261,0.29,0.673,0.312,0.961,0.05l1.084-0.979l0.85,0.938
		c0.262,0.288,0.673,0.309,0.962,0.046c0.29-0.258,0.312-0.673,0.05-0.962l-0.85-0.937l2.021-1.832l0.848,0.938
		c0.262,0.289,0.674,0.31,0.965,0.05c0.286-0.263,0.308-0.676,0.046-0.967l-0.849-0.939l2.022-1.828l0.85,0.938
		c0.259,0.29,0.674,0.31,0.963,0.048c0.288-0.261,0.31-0.675,0.049-0.962l-0.852-0.939l2.023-1.829l0.85,0.939
		c0.26,0.288,0.672,0.309,0.963,0.047c0.29-0.261,0.311-0.674,0.05-0.962l-0.852-0.94l1.081-0.979
		c0.291-0.261,0.312-0.675,0.051-0.963c-0.26-0.289-0.674-0.31-0.965-0.048l-1.084,0.98l-0.844-1.008
		c-0.262-0.289-0.676-0.308-0.964-0.048c-0.144,0.131-0.225,0.333-0.229,0.473c-0.011,0.205,0.052,0.346,0.182,0.492l0.849,0.938
		l-2.02,1.832l-0.854-0.94c-0.261-0.288-0.672-0.309-0.959-0.048c-0.146,0.131-0.224,0.334-0.232,0.472
		c-0.01,0.206,0.053,0.348,0.184,0.492L45.935,42.433z"/>
</g>
</svg>
