<?xml version="1.0" encoding="utf-8"?>
<!-- Generator: Adobe Illustrator 16.0.0, SVG Export Plug-In . SVG Version: 6.00 Build 0)  -->
<!DOCTYPE svg PUBLIC "-//W3C//DTD SVG 1.1//EN" "http://www.w3.org/Graphics/SVG/1.1/DTD/svg11.dtd">
<svg version="1.1" id="Calque_1" xmlns="http://www.w3.org/2000/svg" xmlns:xlink="http://www.w3.org/1999/xlink" x="0px" y="0px"
	 width="90px" height="90px" viewBox="0 0 90 90" enable-background="new 0 0 90 90" xml:space="preserve">
<circle opacity="0.2" fill="#FFFFFF" cx="45" cy="45" r="43.615"/>
<g>
	<g>
		<g>
			<line fill="#FFFFFF" x1="61.941" y1="52.895" x2="22.952" y2="52.895"/>
			<path fill="#FFFFFF" d="M61.941,54.223H22.952c-0.734,0-1.33-0.596-1.33-1.328c0-0.734,0.595-1.33,1.33-1.33h38.989
				c0.734,0,1.329,0.596,1.329,1.33C63.27,53.627,62.675,54.223,61.941,54.223z"/>
		</g>
		<g>
			<line fill="#FFFFFF" x1="75.578" y1="52.895" x2="70.833" y2="52.895"/>
			<path fill="#FFFFFF" d="M75.578,54.223h-4.745c-0.733,0-1.329-0.596-1.329-1.328c0-0.734,0.596-1.33,1.329-1.33h4.745
				c0.734,0,1.33,0.596,1.33,1.33C76.908,53.627,76.313,54.223,75.578,54.223z"/>
		</g>
		<g>
			<path fill="#FFFFFF" d="M66.255,58.612L66.255,58.612l-0.19-0.004c-1.493-0.049-2.878-0.678-3.9-1.77
				c-1.021-1.092-1.557-2.516-1.506-4.009c0.1-3.033,2.555-5.409,5.59-5.409l0.19,0.004c1.494,0.048,2.878,0.676,3.899,1.769
				c1.021,1.092,1.556,2.516,1.505,4.01C71.743,56.235,69.289,58.612,66.255,58.612z M66.248,50.078c-1.592,0-2.88,1.248-2.934,2.84
				c-0.025,0.783,0.256,1.532,0.792,2.104c0.536,0.573,1.263,0.904,2.046,0.93l0.102,0.001c1.591,0,2.879-1.245,2.931-2.837
				c0.026-0.786-0.254-1.532-0.791-2.106c-0.536-0.572-1.262-0.904-2.047-0.929L66.248,50.078z"/>
		</g>
		<g>
			<path fill="#FFFFFF" d="M18.691,58.612L18.691,58.612l-0.189-0.004c-1.494-0.049-2.878-0.678-3.9-1.77
				c-1.02-1.092-1.556-2.516-1.506-4.008c0.101-3.034,2.556-5.409,5.59-5.409l0.189,0.004c1.495,0.048,2.879,0.676,3.9,1.769
				c1.02,1.092,1.556,2.516,1.505,4.01C24.18,56.235,21.724,58.612,18.691,58.612z M18.684,50.078c-1.591,0-2.88,1.248-2.933,2.84
				c-0.025,0.783,0.255,1.532,0.792,2.104c0.536,0.573,1.263,0.904,2.046,0.93l0.102,0.001c1.592,0,2.879-1.246,2.933-2.838
				c0.025-0.785-0.255-1.532-0.792-2.104c-0.536-0.573-1.263-0.905-2.047-0.93L18.684,50.078z"/>
		</g>
		<g>
			<line fill="#FFFFFF" x1="63.895" y1="48.869" x2="54.417" y2="37.092"/>
			<path fill="#FFFFFF" d="M63.896,50.2c-0.388,0-0.773-0.17-1.037-0.497L53.38,37.926c-0.459-0.573-0.369-1.41,0.203-1.87
				c0.573-0.46,1.409-0.368,1.87,0.204l9.478,11.777c0.46,0.572,0.37,1.409-0.203,1.87C64.482,50.104,64.188,50.2,63.896,50.2z"/>
		</g>
		<g>
			<line fill="#FFFFFF" x1="56.749" y1="32.716" x2="49.913" y2="38.379"/>
			<path fill="#FFFFFF" d="M49.914,39.707c-0.382,0-0.761-0.163-1.024-0.481c-0.469-0.564-0.389-1.403,0.174-1.871l6.836-5.663
				c0.567-0.466,1.404-0.389,1.872,0.177c0.468,0.565,0.389,1.403-0.175,1.871l-6.836,5.663
				C50.513,39.607,50.212,39.707,49.914,39.707z"/>
		</g>
		<g>
			<line fill="#FFFFFF" x1="57.343" y1="42.097" x2="48.946" y2="52.895"/>
			<path fill="#FFFFFF" d="M48.946,54.223c-0.286,0-0.572-0.092-0.815-0.279c-0.579-0.45-0.683-1.285-0.234-1.864l8.398-10.797
				c0.45-0.578,1.287-0.684,1.865-0.233c0.58,0.45,0.683,1.285,0.232,1.864L49.994,53.71C49.732,54.046,49.342,54.223,48.946,54.223
				z"/>
		</g>
		<g>
			<path fill="#FFFFFF" d="M40.52,49.401h-9.67c-1.666,0-2.996-0.493-3.948-1.462c-1.853-1.885-1.797-5.068-1.75-7.878
				c0.03-1.734,0.067-3.894-0.521-4.49c-0.049-0.051-0.178-0.182-0.609-0.182c-0.734,0-1.33-0.597-1.33-1.33s0.595-1.329,1.33-1.329
				c1.025,0,1.868,0.329,2.505,0.977c1.37,1.394,1.328,3.825,1.283,6.4c-0.039,2.286-0.083,4.88,0.987,5.971
				c0.441,0.447,1.113,0.665,2.053,0.665h9.671c0.733,0,1.329,0.596,1.329,1.33C41.847,48.807,41.254,49.401,40.52,49.401z"/>
		</g>
		<g>
			<path fill="#FFFFFF" d="M15.547,43.439c0,0.504,0.499,0.912,1.115,0.912h3.889c0.614,0,1.113-0.408,1.113-0.912v-0.916
				c0-0.504-0.498-0.912-1.113-0.912h-3.889c-0.615,0-1.115,0.408-1.115,0.912V43.439z"/>
			<path fill="#FFFFFF" d="M20.55,45.681h-3.889c-1.348,0-2.444-1.005-2.444-2.241v-0.916c0-1.237,1.097-2.242,2.444-2.242h3.889
				c1.347,0,2.442,1.006,2.442,2.242v0.916C22.992,44.676,21.897,45.681,20.55,45.681z M16.876,43.022h3.458v-0.083h-3.458V43.022z"
				/>
		</g>
	</g>
</g>
</svg>
