<?xml version="1.0" encoding="utf-8"?>
<!-- Generator: Adobe Illustrator 16.0.0, SVG Export Plug-In . SVG Version: 6.00 Build 0)  -->
<!DOCTYPE svg PUBLIC "-//W3C//DTD SVG 1.1//EN" "http://www.w3.org/Graphics/SVG/1.1/DTD/svg11.dtd">
<svg version="1.1" id="Calque_1" xmlns="http://www.w3.org/2000/svg" xmlns:xlink="http://www.w3.org/1999/xlink" x="0px" y="0px"
	 width="90px" height="90px" viewBox="0 0 90 90" enable-background="new 0 0 90 90" xml:space="preserve">
<circle opacity="0.2" fill="#FFFFFF" enable-background="new    " cx="45" cy="45" r="43.615"/>
<path fill="none" stroke="#FFFFFF" stroke-miterlimit="10" d="M51.182,29.97c0.174,2.229,2.104,3.896,4.313,3.723
	c2.202-0.173,3.854-2.123,3.682-4.351c-0.176-2.233-2.112-3.894-4.315-3.722C52.652,25.794,51.005,27.737,51.182,29.97z"/>
<path fill="none" stroke="#FFFFFF" stroke-miterlimit="10" d="M71.046,67.548h-1.521v0.823c0,0.829-0.786,0.747-0.786,0.747H56.191
	L65,44.701c1.008,0.025,1.893-0.707,2.02-1.729c0.135-1.087-0.637-2.079-1.726-2.214l-6.356-0.79l-5.764-5.438
	c-1.336-1.981-4.958-2.489-6.359-0.846c-0.912,1.066-3.074,3.542-3.074,3.542l-5.404,6.363c-0.771,0.938-1.119,1.949-1.021,3.222
	c0.097,1.228,0.667,2.289,1.534,3.022l9.461,8.249l-2.522,8.509c-0.349,0.859-0.166,1.831,0.432,2.526H20.563v1.529h48.748
	C71.398,70.377,71.046,67.548,71.046,67.548z M52.628,54.986l-6.751-7.269l6.557-7.757l4.127,3.71l7.49,0.931l-8.844,24.514h-5.309
	c0.061-0.072,0.127-0.14,0.181-0.22c0.101-0.156,0.179-0.32,0.246-0.485l3.073-10.107C53.398,58.305,54.001,56.334,52.628,54.986z"
	/>
<path fill="#FFFFFF" stroke="#FFFFFF" stroke-miterlimit="10" d="M40.084,39.187l14.111-17.658c0.229-0.285,0.183-0.701-0.104-0.929
	c-0.285-0.228-0.701-0.182-0.93,0.104l-2.25,2.817l-1.094-0.911c-0.205-0.17-0.508-0.143-0.678,0.062
	c-0.172,0.204-0.144,0.508,0.062,0.678l1.108,0.923l-4.771,5.97l-6.076,7.542l-10.801,9.969l3.608,3.047L40.084,39.187z"/>
<path fill="#FFFFFF" stroke="#FFFFFF" stroke-miterlimit="10" d="M21.92,57.463c0.175,0.057,0.354,0.096,0.529,0.12L33.002,58.1
	c0,0,0.974,0.094,2.385-1.312c1.548-1.545,3.78-4.157,4.153-4.596l-1.554-1.354c-0.979-0.833-1.635-1.953-1.889-3.209l-4.112,5.483
	l-8.875-0.372c-1.132-0.158-2.244,0.499-2.654,1.604C19.996,55.614,20.651,57.014,21.92,57.463z"/>
</svg>
