<?xml version="1.0" encoding="utf-8"?>
<!-- Generator: Adobe Illustrator 16.0.0, SVG Export Plug-In . SVG Version: 6.00 Build 0)  -->
<!DOCTYPE svg PUBLIC "-//W3C//DTD SVG 1.1//EN" "http://www.w3.org/Graphics/SVG/1.1/DTD/svg11.dtd">
<svg version="1.1" id="Calque_1" xmlns="http://www.w3.org/2000/svg" xmlns:xlink="http://www.w3.org/1999/xlink" x="0px" y="0px"
	 width="90px" height="90px" viewBox="0 0 90 90" enable-background="new 0 0 90 90" xml:space="preserve">
<circle opacity="0.2" fill="#FFFFFF" cx="45" cy="45" r="43.615"/>
<path fill="#FFFFFF" d="M58.469,37.251H44.822c0.037-6.625,1.768-9.733,3.226-11.171c0.837-0.901,1.986-1.451,3.212-1.543h0.043
	c0.691,0.014,1.261-0.534,1.276-1.226c0.014-0.69-0.536-1.261-1.227-1.275c-1.885,0.055-3.676,0.836-5,2.182
	c-2.663,2.556-4.026,6.938-4.058,13.026h-12.17c-7.422,0.002-13.438,6.021-13.437,13.442c0.002,7.426,6.021,13.441,13.443,13.438
	c3.545,0,6.948-1.401,9.464-3.899h9.376c5.265,5.232,13.775,5.205,19.007-0.059c5.232-5.266,5.206-13.776-0.061-19.009
	C65.409,38.661,62.012,37.257,58.469,37.251z M58.469,62.257c-2.334,0.002-4.611-0.707-6.532-2.031
	c-0.776-0.538-1.483-1.167-2.107-1.875H38.771c-0.624,0.708-1.332,1.337-2.106,1.875c-5.269,3.604-12.462,2.255-16.066-3.013
	c-3.604-5.27-2.255-12.463,3.012-16.067c1.919-1.313,4.189-2.017,6.515-2.019h28.343c6.386,0,11.563,5.178,11.563,11.565
	C70.032,57.08,64.854,62.257,58.469,62.257z"/>
<path fill="#FFFFFF" d="M49.298,41.102H39.296c-0.862,0-1.562,0.7-1.562,1.562c0,0.864,0.7,1.563,1.562,1.563h10.002
	c0.863,0,1.561-0.699,1.561-1.563C50.859,41.802,50.162,41.102,49.298,41.102z"/>
<circle fill="#FFFFFF" cx="58.724" cy="46.315" r="2.394"/>
<circle fill="#FFFFFF" cx="58.724" cy="56.369" r="2.394"/>
<circle fill="#FFFFFF" cx="53.699" cy="51.343" r="2.396"/>
<path fill="#FFFFFF" d="M34.415,50.092h-4.026V46.34c0-0.691-0.559-1.25-1.249-1.25c-0.691,0-1.25,0.56-1.25,1.25v3.752h-4.026
	c-0.69,0-1.25,0.56-1.25,1.25s0.56,1.25,1.25,1.25h4.026v3.751c0,0.693,0.56,1.252,1.25,1.252c0.69,0,1.249-0.559,1.249-1.252
	v-3.751h4.026c0.69,0,1.25-0.56,1.25-1.25S35.105,50.092,34.415,50.092z"/>
</svg>
