<?xml version="1.0" encoding="utf-8"?>
<!-- Generator: Adobe Illustrator 16.0.0, SVG Export Plug-In . SVG Version: 6.00 Build 0)  -->
<!DOCTYPE svg PUBLIC "-//W3C//DTD SVG 1.1//EN" "http://www.w3.org/Graphics/SVG/1.1/DTD/svg11.dtd">
<svg version="1.1" id="Calque_1" xmlns="http://www.w3.org/2000/svg" xmlns:xlink="http://www.w3.org/1999/xlink" x="0px" y="0px"
	 width="90px" height="90px" viewBox="0 0 90 90" enable-background="new 0 0 90 90" xml:space="preserve">
<circle opacity="0.2" fill="#FFFFFF" cx="45" cy="45" r="43.615"/>
<polygon fill="#FFFFFF" points="33.667,57.492 31.333,56.84 43.385,14.925 45.717,15.58 "/>
<rect x="18.882" y="53.216" transform="matrix(-0.9628 -0.2703 0.2703 -0.9628 47.8004 123.9291)" fill="#FFFFFF" stroke="#FFFFFF" stroke-miterlimit="10" width="27.102" height="10.914"/>
<circle fill="#FFFFFF" stroke="#FFFFFF" stroke-miterlimit="10" cx="65.897" cy="67.301" r="5.191"/>
<path fill="#FFFFFF" stroke="#FFFFFF" stroke-miterlimit="10" d="M68.488,67.71V51.902c0,0,0.081-0.57-0.376-0.714
	c-0.303-0.096-0.5,0-0.5,0s-9.816,4.522-10.208,4.855c-0.358,0.302-0.358,0.928-0.358,0.928v16.104l1.144-0.526V57.994
	c0,0-0.047-0.496,0.286-0.742c0.331-0.245,8.167-3.885,8.167-3.885s0.256-0.127,0.399,0c0.288,0.254,0.301,0.572,0.301,0.572v14.348
	L68.488,67.71z"/>
</svg>
