<?xml version="1.0" encoding="utf-8"?>
<!-- Generator: Adobe Illustrator 16.0.0, SVG Export Plug-In . SVG Version: 6.00 Build 0)  -->
<!DOCTYPE svg PUBLIC "-//W3C//DTD SVG 1.1//EN" "http://www.w3.org/Graphics/SVG/1.1/DTD/svg11.dtd">
<svg version="1.1" id="Calque_1" xmlns="http://www.w3.org/2000/svg" xmlns:xlink="http://www.w3.org/1999/xlink" x="0px" y="0px"
	 width="90px" height="90px" viewBox="0 0 90 90" enable-background="new 0 0 90 90" xml:space="preserve">
<circle opacity="0.2" fill="#FFFFFF" enable-background="new    " cx="45" cy="45" r="43.615"/>
<g>
	<path fill="#FFFFFF" d="M68.628,55.299c-0.302-1.006-1.106-1.81-2.211-2.209c-1.005-0.303-2.21-0.203-3.115,0.502
		c-1.206,0.804-1.607,2.409-1.206,3.817c0.504,1.808-0.201,3.718-1.909,4.624c-1.707,0.903-3.918,0.401-5.225-1.309l-5.828-8.037
		l10.954-14.872l0,0l2.41-3.316l2.413-3.317l0,0l3.516-4.822l0,0c0.503-0.703,0.803-1.608,0.604-2.512
		c-0.102-0.904-0.604-1.709-1.309-2.211c-0.603-0.502-1.306-0.703-2.01-0.703c-1.104,0-2.108,0.502-2.713,1.406l-17.986,24.52
		L33.358,30.981l-0.402-0.502l0,0l-5.928-8.039c-1.106-1.607-3.216-1.909-4.723-0.804c-0.704,0.502-1.207,1.307-1.408,2.211
		c-0.1,0.904,0.101,1.809,0.603,2.512l3.517,4.822l0,0l2.412,3.317l2.512,3.316l0,0l10.852,14.872l-5.828,7.938
		c-1.206,1.71-3.417,2.21-5.226,1.304c-1.608-0.901-2.411-2.812-1.808-4.62c0.401-1.407-0.101-2.913-1.206-3.717
		c-0.604-0.402-1.306-0.705-2.01-0.705c-1.507,0-2.814,0.904-3.216,2.412c-1.607,4.722,0.402,9.848,4.723,12.359
		c1.608,1.006,3.517,1.408,5.326,1.408c3.417,0,6.834-1.607,9.044-4.624l4.522-6.13l4.521,6.13c2.211,3.017,5.628,4.624,9.044,4.624
		c1.809,0,3.719-0.504,5.326-1.408C68.126,65.146,70.136,60.021,68.628,55.299z M38.885,63.339
		c-2.713,3.716-7.838,4.924-11.657,2.611c-3.517-2.109-5.125-6.229-3.918-10.149c0.201-0.704,0.804-0.906,1.307-0.906
		c0.201,0,0.502,0,0.804,0.303c0.502,0.302,0.702,0.903,0.502,1.508c-0.804,2.714,0.402,5.527,2.813,6.934
		c2.612,1.408,5.929,0.604,7.737-1.808l5.426-7.436l1.708,2.31L38.885,63.339z M61.492,32.489l-2.21-1.608l1.206-1.708L62.7,30.78
		L61.492,32.489z M58.078,32.489l1.406,1.005l0.904,0.602l-1.307,1.708l-2.211-1.608L58.078,32.489z M64.609,23.546
		c0.4-0.603,1.305-0.803,1.908-0.301c0.303,0.201,0.504,0.501,0.603,0.904c0.1,0.401,0,0.704-0.3,1.005l-2.914,4.019l-2.212-1.607
		L64.609,23.546z M55.664,35.805l2.213,1.608l-9.849,13.567l-1.707-2.312L55.664,35.805z M27.329,30.78l2.211-1.607l1.206,1.708
		l-0.804,0.604l-1.407,1.004l-0.101-0.1L27.329,30.78z M29.74,34.096l0.904-0.602l1.407-1.005l1.206,1.708l-2.312,1.608
		L29.74,34.096z M22.907,24.149c0.101-0.403,0.302-0.704,0.603-0.904c0.201-0.201,0.502-0.301,0.804-0.301
		c0.402,0,0.905,0.2,1.106,0.603l2.913,4.02l-2.211,1.607l-2.914-4.019C23.008,24.853,22.907,24.55,22.907,24.149z M62.8,65.95
		L62.8,65.95c-3.818,2.312-8.943,1.104-11.656-2.611L32.152,37.413l2.211-1.608L44.11,49.17l0,0l2.713,3.717l6.531,8.944
		c1.808,2.512,5.125,3.315,7.736,1.808c2.514-1.406,3.618-4.22,2.815-6.934c-0.202-0.604,0-1.206,0.502-1.608
		c0.402-0.302,0.803-0.302,1.305-0.202c0.402,0.103,0.704,0.505,0.905,0.906C67.924,59.721,66.316,63.94,62.8,65.95z"/>
	<path fill="#FFFFFF" d="M45.014,31.686c2.914,0,5.326-2.411,5.326-5.326c0-3.014-2.412-5.426-5.326-5.426s-5.326,2.412-5.326,5.326
		C39.688,29.274,42.101,31.686,45.014,31.686z M45.014,22.943c1.809,0,3.316,1.507,3.316,3.316c0,1.808-1.507,3.316-3.316,3.316
		s-3.317-1.508-3.317-3.316C41.697,24.45,43.205,22.943,45.014,22.943z"/>
</g>
</svg>
