<?xml version="1.0" encoding="utf-8"?>
<!-- Generator: Adobe Illustrator 16.0.0, SVG Export Plug-In . SVG Version: 6.00 Build 0)  -->
<!DOCTYPE svg PUBLIC "-//W3C//DTD SVG 1.1//EN" "http://www.w3.org/Graphics/SVG/1.1/DTD/svg11.dtd">
<svg version="1.1" id="Calque_1" xmlns="http://www.w3.org/2000/svg" xmlns:xlink="http://www.w3.org/1999/xlink" x="0px" y="0px"
	 width="90px" height="90px" viewBox="0 0 90 90" enable-background="new 0 0 90 90" xml:space="preserve">
<circle opacity="0.2" fill="#FFFFFF" cx="45" cy="45" r="43.615"/>
<path fill="#FFFFFF" d="M72.148,34.596c-0.452-0.271-0.994-0.181-1.266,0.271c-0.271,0.451-0.18,0.993,0.271,1.264
	c2.62,1.808,4.247,4.789,4.247,7.951c0,5.33-4.337,9.668-9.668,9.668H50.285v-6.596h4.787c0.543,0,0.904-0.362,0.904-0.904v-3.794
	c0-0.542-0.361-0.904-0.904-0.904H18.754c-0.541,0-0.903,0.362-0.903,0.904v3.794c0,0.542,0.362,0.904,0.903,0.904h5.423v6.596
	H13.605c-0.543,0-0.904,0.36-0.904,0.901c0,0.543,0.361,0.904,0.904,0.904h52.219c6.324,0,11.475-5.149,11.475-11.474
	C77.207,40.288,75.311,36.764,72.148,34.596z M19.658,43.269h34.421v1.988H19.658V43.269z M26.072,47.063h22.404v6.595H26.072
	V47.063z"/>
</svg>
