<?xml version="1.0" encoding="utf-8"?>
<!-- Generator: Adobe Illustrator 16.0.0, SVG Export Plug-In . SVG Version: 6.00 Build 0)  -->
<!DOCTYPE svg PUBLIC "-//W3C//DTD SVG 1.1//EN" "http://www.w3.org/Graphics/SVG/1.1/DTD/svg11.dtd">
<svg version="1.1" xmlns="http://www.w3.org/2000/svg" xmlns:xlink="http://www.w3.org/1999/xlink" x="0px" y="0px"
	 width="89.003px" height="97.166px" viewBox="0 0 89.003 97.166" enable-background="new 0 0 89.003 97.166" xml:space="preserve">
<g id="Calque_1">
</g>
<g id="V2">
	<g id="resto">
		<path fill="#4EC4DA" stroke="#FFFFFF" stroke-width="3" stroke-miterlimit="10" d="M43.791,94.599
			c-0.477,0-5.039-12.695-6.33-12.9C18.48,78.665,3.977,62.22,3.977,42.384c0-21.99,17.826-39.816,39.814-39.816
			c21.99,0,39.816,17.826,39.816,39.816c0,20.021-14.781,36.594-34.027,39.396C48.457,81.942,44.262,94.599,43.791,94.599"/>
		<g>
			<path fill="#FFFFFF" d="M48.518,49.531v12.939c0,2.908,2.307,5.371,5.115,5.416c0.05,0,0.1,0,0.152,0
				c2.908,0,5.316-2.356,5.316-5.315v-9.179V38.699V23.105c0-2.058-1.706-3.762-3.762-3.762c-4.815,0-8.727,3.911-8.727,8.727
				v18.707C46.662,48.029,47.415,49.08,48.518,49.531z M55.323,22.302c0.918,0,1.689,0.772,1.689,1.693V39.02v14.157v8.841
				c0,1.738-1.4,3.188-3.188,3.188c-0.048,0-0.048,0-0.098,0c-1.737-0.048-3.093-1.546-3.093-3.283V48.636
				c0-0.484-0.384-0.921-0.917-0.921c-0.484,0-0.918-0.387-0.918-0.916V28.777C48.847,25.2,51.746,22.302,55.323,22.302
				L55.323,22.302z"/>
			<path fill="#FFFFFF" d="M29.797,41.767l-0.833,20.59v0.048v0.053c0,2.984,2.675,5.414,5.96,5.414c3.288,0,5.963-2.43,5.963-5.414
				v-0.053v-0.048l-0.837-20.59c2.34-1.214,3.847-3.487,3.847-6.019v-13.86c0-1.667-1.507-3.032-3.344-3.032
				c-1.17,0-2.228,0.557-2.841,1.415c-0.559-0.858-1.561-1.415-2.787-1.415c-1.168,0-2.228,0.557-2.841,1.415
				c-0.613-0.858-1.615-1.415-2.841-1.415c-1.837,0-3.342,1.365-3.342,3.032v13.811C25.956,38.228,27.461,40.553,29.797,41.767z
				 M28.87,22.518c0-0.549,0.447-0.996,0.996-0.996l0,0c0.549,0,1,0.447,1,0.996v8.719c0,0.546,0.444,0.995,0.993,0.995h1.047
				c0.547,0,0.996-0.449,0.996-0.995v-8.719c0-0.549,0.447-0.996,0.996-0.996l0,0c0.546,0,0.998,0.447,0.998,0.996v8.719
				c0,0.546,0.447,0.995,0.996,0.995h1.045c0.548,0,0.998-0.449,0.998-0.995v-8.719c0-0.549,0.447-0.996,0.993-0.996
				c0.551,0,1,0.447,1,0.996v13.601c0,2.19-1.497,4.084-3.49,4.633l0.8,21.62c0,1.844-1.499,3.338-3.34,3.338l0,0
				c-1.843,0-3.338-1.494-3.338-3.338l0.796-21.62c-2.041-0.599-3.485-2.442-3.485-4.633V22.518L28.87,22.518z"/>
		</g>
	</g>
	<g id="bar_1_">
	</g>
	<g id="resto-u">
	</g>
	<g id="asso">
	</g>
	<g id="bar">
	</g>
	<g id="bilbio">
	</g>
	<g id="snack">
	</g>
</g>
</svg>
