<?xml version="1.0" encoding="utf-8"?>
<!-- Generator: Adobe Illustrator 16.0.0, SVG Export Plug-In . SVG Version: 6.00 Build 0)  -->
<!DOCTYPE svg PUBLIC "-//W3C//DTD SVG 1.1//EN" "http://www.w3.org/Graphics/SVG/1.1/DTD/svg11.dtd">
<svg version="1.1" xmlns="http://www.w3.org/2000/svg" xmlns:xlink="http://www.w3.org/1999/xlink" x="0px" y="0px"
	 width="87.832px" height="97.166px" viewBox="0 0 87.832 97.166" enable-background="new 0 0 87.832 97.166" xml:space="preserve">
<g id="Calque_1">
</g>
<g id="V2">
	<g id="resto">
	</g>
	<g id="bar_1_">
		<path fill="#4EC4DA" stroke="#FFFFFF" stroke-width="3" stroke-miterlimit="10" d="M43.915,94.599
			c-0.477,0-5.039-12.695-6.33-12.902C18.604,78.665,4.101,62.218,4.101,42.382c0-21.988,17.826-39.814,39.814-39.814
			c21.99,0,39.816,17.826,39.816,39.814c0,20.023-14.781,36.594-34.029,39.396C48.581,81.942,44.386,94.599,43.915,94.599"/>
		<path fill="#FFFFFF" stroke="#FFFFFF" stroke-width="1.5" stroke-miterlimit="10" d="M64.323,38.691h-6.507v-2.479
			c0.977-1.285,1.561-2.879,1.561-4.621c0-4.229-3.436-7.662-7.665-7.662c-0.829,0-1.649,0.136-2.434,0.399
			c-0.957-3.544-4.171-6.113-7.997-6.113c-3.756,0-6.936,2.459-7.957,5.931c-1.374-0.281-2.843-0.063-4.072,0.621
			c-1.386,0.766-2.396,2.031-2.835,3.553c-0.437,1.521-0.465,3.983,1.329,5.632v26.681c0,2.134,1.734,3.873,3.873,3.873h22.333
			c2.134,0,3.872-1.729,3.872-3.873v-2.65c0,0,7.793-6.151,7.793-18.016C65.609,39.265,65.036,38.691,64.323,38.691z M55.248,60.633
			c0,0.713-0.584,1.294-1.296,1.294H31.611c-0.71,0-1.294-0.581-1.294-1.294V35.621c0.993,0.319,2.095,0.371,3.127,0.136
			c1.055,2.853,3.806,4.849,6.94,4.849c2.524,0,4.83-1.305,6.179-3.336c1.385,1.266,3.199,1.987,5.138,1.987
			c1.241,0,2.451-0.302,3.528-0.865v22.241H55.248z M51.712,36.678c-1.785,0-3.407-0.921-4.345-2.451
			c-0.268-0.439-0.76-0.676-1.269-0.61c-0.501,0.063-0.92,0.427-1.064,0.92c-0.592,2.058-2.506,3.49-4.649,3.49
			c-2.384,0-4.444-1.787-4.781-4.155c-0.064-0.419-0.32-0.774-0.693-0.967c-0.373-0.191-0.82-0.183-1.193,0.019
			c-1.076,0.583-2.406,0.511-3.418-0.137c-0.025-0.018-2.305-1.303-1.419-3.765c0.3-0.846,0.817-1.574,1.602-2.012
			c0.985-0.54,2.215-0.548,3.208-0.03c0.381,0.203,0.837,0.203,1.213-0.009c0.373-0.197,0.629-0.581,0.665-1.01
			c0.281-2.951,2.723-5.186,5.691-5.186c3.083,0,5.588,2.415,5.713,5.496c0.02,0.463,0.284,0.875,0.692,1.083
			c0.412,0.211,0.904,0.192,1.286-0.056c0.82-0.525,1.77-0.809,2.743-0.809c2.807,0,5.085,2.286,5.085,5.084
			C56.807,35.738,52.914,36.678,51.712,36.678z M57.816,54.237V41.261h5.186C62.729,46.062,60.915,50.584,57.816,54.237z"/>
	</g>
	<g id="resto-u">
	</g>
	<g id="asso">
	</g>
	<g id="bar">
	</g>
	<g id="bilbio">
	</g>
	<g id="snack">
	</g>
</g>
</svg>
