<?xml version="1.0" encoding="utf-8"?>
<!-- Generator: Adobe Illustrator 16.0.0, SVG Export Plug-In . SVG Version: 6.00 Build 0)  -->
<!DOCTYPE svg PUBLIC "-//W3C//DTD SVG 1.1//EN" "http://www.w3.org/Graphics/SVG/1.1/DTD/svg11.dtd">
<svg version="1.1" id="Calque_1" xmlns="http://www.w3.org/2000/svg" xmlns:xlink="http://www.w3.org/1999/xlink" x="0px" y="0px"
	 width="87.832px" height="82px" viewBox="0 0 87.832 82" enable-background="new 0 0 87.832 82" xml:space="preserve">
<g id="Calque_1_1_">
</g>
<g id="filters">
	<g id="bar_2_">
	</g>
	<g id="asso_1_">
	</g>
	<g id="biblio">
		<g>
			
				<ellipse fill="none" stroke="#B9B9B9" stroke-width="2" stroke-miterlimit="10" cx="43.709" cy="40.854" rx="39.924" ry="38.822"/>
		</g>
		<g>
			<path fill="#B9B9B9" stroke="#B9B9B9" stroke-width="0.7" stroke-miterlimit="10" d="M34.614,60.942
				c-4.685,0-8.421-1.494-10.805-4.322c-5.746-6.811-1.411-19.357,9.665-27.977c6.201-4.82,13.398-7.586,19.745-7.586
				c4.685,0,8.421,1.494,10.805,4.322c5.745,6.813,1.413,19.364-9.664,27.978C48.158,58.177,40.961,60.942,34.614,60.942z
				 M53.217,22.428c-6.013,0-12.873,2.651-18.816,7.272c-10.467,8.146-14.707,19.838-9.452,26.069
				c2.102,2.49,5.443,3.806,9.666,3.806c6.012,0,12.873-2.652,18.817-7.272c10.466-8.142,14.708-19.835,9.449-26.067
				C60.784,23.744,57.442,22.428,53.217,22.428z"/>
			<path fill="#B9B9B9" stroke="#B9B9B9" stroke-width="0.7" stroke-miterlimit="10" d="M39.049,60.345l-1.457-0.017
				c0.147-13.919-14.447-17.642-14.595-17.677l0.367-1.327C23.522,41.363,39.207,45.366,39.049,60.345z"/>
			<path fill="#B9B9B9" stroke="#B9B9B9" stroke-width="0.7" stroke-miterlimit="10" d="M64.097,40.969
				c-0.164-0.039-15.845-4.046-15.689-19.026l1.46,0.012c-0.147,13.897,13.991,17.54,14.595,17.688L64.097,40.969z"/>
			<polygon fill="#B9B9B9" stroke="#B9B9B9" stroke-width="0.7" stroke-miterlimit="10" points="50.037,34.844 50.983,35.887 
				37.591,46.646 36.644,45.603 			"/>
			<polygon fill="#B9B9B9" stroke="#B9B9B9" stroke-width="0.7" stroke-miterlimit="10" points="38.386,41.516 42.583,45.647 
				41.53,46.597 37.333,42.465 			"/>
			<polygon fill="#B9B9B9" stroke="#B9B9B9" stroke-width="0.7" stroke-miterlimit="10" points="42.243,38.203 46.442,42.34 
				45.389,43.289 41.188,39.15 			"/>
			<polygon fill="#B9B9B9" stroke="#B9B9B9" stroke-width="0.7" stroke-miterlimit="10" points="45.85,35.688 50.048,39.827 
				48.994,40.772 44.795,36.635 			"/>
		</g>
	</g>
	<g id="resto_1_">
	</g>
	<g id="snack_1_">
	</g>
	<g id="cafe">
	</g>
</g>
<g id="V2">
	<g id="resto">
	</g>
	<g id="bar_1_">
	</g>
	<g id="resto-u">
	</g>
	<g id="asso">
	</g>
	<g id="bar">
	</g>
	<g id="bilbio">
	</g>
	<g id="snack">
	</g>
</g>
</svg>
