<?xml version="1.0" encoding="utf-8"?>
<!-- Generator: Adobe Illustrator 16.0.0, SVG Export Plug-In . SVG Version: 6.00 Build 0)  -->
<!DOCTYPE svg PUBLIC "-//W3C//DTD SVG 1.1//EN" "http://www.w3.org/Graphics/SVG/1.1/DTD/svg11.dtd">
<svg version="1.1" id="Calque_1" xmlns="http://www.w3.org/2000/svg" xmlns:xlink="http://www.w3.org/1999/xlink" x="0px" y="0px"
	 width="87.832px" height="80.525px" viewBox="0 0 87.832 80.525" enable-background="new 0 0 87.832 80.525" xml:space="preserve">
<g id="Calque_1_1_">
</g>
<g id="filters">
	<g id="bar_2_">
	</g>
	<g id="resto-u_1_">
		<g>
			
				<ellipse fill="none" stroke="#B9B9B9" stroke-width="2" stroke-miterlimit="10" cx="43.916" cy="40.263" rx="39.924" ry="38.822"/>
		</g>
		<g>
			<path fill="#B9B9B9" stroke="#B9B9B9" stroke-width="0.7" stroke-miterlimit="10" d="M32.114,49.804V38.359
				c0-0.39-0.34-0.708-0.756-0.708c-0.417,0-0.752,0.318-0.752,0.708v11.443c0,0.393,0.336,0.707,0.752,0.707
				C31.773,50.511,32.114,50.197,32.114,49.804z"/>
			<path fill="#B9B9B9" stroke="#B9B9B9" stroke-width="0.7" stroke-miterlimit="10" d="M38.391,49.804V38.359
				c0-0.39-0.338-0.708-0.752-0.708c-0.418,0-0.754,0.318-0.754,0.708v11.443c0,0.393,0.336,0.707,0.754,0.707
				C38.053,50.511,38.391,50.197,38.391,49.804z"/>
			<path fill="#B9B9B9" stroke="#B9B9B9" stroke-width="0.7" stroke-miterlimit="10" d="M44.672,49.804V38.359
				c0-0.39-0.339-0.708-0.754-0.708s-0.752,0.318-0.752,0.708v11.443c0,0.393,0.337,0.707,0.752,0.707
				C44.333,50.511,44.672,50.197,44.672,49.804z"/>
			<path fill="#B9B9B9" stroke="#B9B9B9" stroke-width="0.7" stroke-miterlimit="10" d="M50.948,49.804V38.359
				c0-0.39-0.338-0.708-0.751-0.708c-0.418,0-0.756,0.318-0.756,0.708v11.443c0,0.393,0.338,0.707,0.756,0.707
				C50.61,50.511,50.948,50.197,50.948,49.804z"/>
			<path fill="#B9B9B9" stroke="#B9B9B9" stroke-width="0.7" stroke-miterlimit="10" d="M57.232,49.804V38.359
				c0-0.39-0.339-0.708-0.756-0.708c-0.415,0-0.753,0.318-0.753,0.708v11.443c0,0.393,0.338,0.707,0.753,0.707
				C56.894,50.511,57.232,50.197,57.232,49.804z"/>
			<path fill="#B9B9B9" stroke="#B9B9B9" stroke-width="0.7" stroke-miterlimit="10" d="M64.01,57.996H23.822
				c-0.416,0-0.752,0.318-0.752,0.709s0.337,0.709,0.752,0.709H64.01c0.414,0,0.753-0.318,0.753-0.709S64.424,57.996,64.01,57.996z"
				/>
			<path fill="#B9B9B9" stroke="#B9B9B9" stroke-width="0.7" stroke-miterlimit="10" d="M26.662,53.98
				c0,0.389,0.336,0.707,0.752,0.707h33.006c0.418,0,0.755-0.318,0.755-0.707c0-0.395-0.337-0.711-0.755-0.711H27.415
				C26.998,53.269,26.662,53.586,26.662,53.98z"/>
			<path fill="#B9B9B9" stroke="#B9B9B9" stroke-width="0.7" stroke-miterlimit="10" d="M23.083,33.762
				c0.007,0.022,0.012,0.045,0.021,0.067c0.005,0.021,0.011,0.044,0.021,0.065c0.011,0.024,0.024,0.051,0.039,0.074
				c0.008,0.014,0.012,0.027,0.021,0.041c0.002,0.002,0.007,0.005,0.007,0.007c0.031,0.048,0.072,0.09,0.112,0.128
				c0.012,0.011,0.022,0.018,0.034,0.026c0.031,0.024,0.066,0.051,0.104,0.07c0.018,0.01,0.032,0.018,0.047,0.023
				c0.039,0.02,0.077,0.033,0.121,0.043c0.014,0.006,0.027,0.011,0.043,0.016c0.055,0.011,0.112,0.02,0.171,0.02H64.01
				c0.063,0,0.118-0.009,0.175-0.021c0.016-0.003,0.027-0.009,0.045-0.013c0.04-0.012,0.079-0.025,0.115-0.043
				c0.019-0.008,0.032-0.017,0.051-0.024c0.036-0.021,0.067-0.043,0.104-0.07c0.009-0.01,0.021-0.018,0.033-0.028
				c0.041-0.035,0.08-0.078,0.111-0.126c0.003-0.002,0.004-0.005,0.007-0.007c0.01-0.015,0.016-0.03,0.021-0.047
				c0.015-0.023,0.027-0.045,0.035-0.068c0.01-0.021,0.018-0.047,0.023-0.067c0.006-0.021,0.015-0.044,0.02-0.064
				c0.006-0.028,0.006-0.056,0.009-0.081c0.001-0.016,0.003-0.031,0.003-0.048c0-0.005,0-0.009,0-0.012
				c0-0.027-0.006-0.054-0.008-0.078c-0.004-0.021-0.004-0.043-0.009-0.062c-0.008-0.021-0.015-0.041-0.023-0.062
				c-0.006-0.022-0.011-0.045-0.021-0.068c-0.008-0.019-0.021-0.036-0.03-0.055c-0.014-0.021-0.022-0.043-0.038-0.062
				c-0.013-0.02-0.028-0.033-0.045-0.051c-0.016-0.019-0.03-0.037-0.051-0.055c-0.014-0.015-0.031-0.023-0.048-0.037
				c-0.021-0.019-0.042-0.035-0.07-0.05c-0.001-0.004-0.005-0.004-0.008-0.008L44.315,21.218c-0.013-0.009-0.027-0.013-0.041-0.019
				c-0.023-0.012-0.047-0.024-0.071-0.035c-0.025-0.008-0.049-0.016-0.075-0.021c-0.02-0.007-0.04-0.012-0.061-0.017
				c-0.027-0.006-0.056-0.008-0.082-0.011c-0.021-0.001-0.042-0.004-0.063-0.004c-0.028,0-0.053,0.003-0.078,0.006
				c-0.022,0.001-0.046,0.003-0.066,0.009c-0.027,0.004-0.051,0.01-0.075,0.019c-0.022,0.006-0.045,0.014-0.064,0.02
				c-0.027,0.012-0.051,0.024-0.078,0.038c-0.013,0.006-0.027,0.01-0.039,0.019L23.424,33.035c-0.003,0.002-0.007,0.004-0.01,0.007
				c-0.026,0.016-0.047,0.032-0.07,0.051c-0.016,0.013-0.033,0.022-0.047,0.037c-0.018,0.018-0.033,0.036-0.049,0.055
				c-0.017,0.017-0.034,0.031-0.045,0.051c-0.015,0.02-0.022,0.041-0.038,0.061c-0.012,0.019-0.021,0.038-0.034,0.059
				c-0.006,0.02-0.016,0.043-0.022,0.064c-0.007,0.021-0.015,0.042-0.021,0.064c-0.005,0.02-0.005,0.041-0.009,0.062
				c-0.003,0.026-0.01,0.052-0.01,0.079c0,0.004,0,0.008,0,0.012c0,0.016,0.007,0.031,0.007,0.048
				C23.079,33.71,23.08,33.736,23.083,33.762z M43.919,22.654l17.467,10.272H26.452L43.919,22.654z"/>
		</g>
	</g>
	<g id="asso_1_">
	</g>
	<g id="biblio">
	</g>
	<g id="resto_1_">
	</g>
	<g id="snack_1_">
	</g>
	<g id="cafe">
	</g>
</g>
<g id="V2">
	<g id="resto">
	</g>
	<g id="bar_1_">
	</g>
	<g id="resto-u">
	</g>
	<g id="asso">
	</g>
	<g id="bar">
	</g>
	<g id="bilbio">
	</g>
	<g id="snack">
	</g>
</g>
</svg>
