<?xml version="1.0" encoding="utf-8"?>
<!-- Generator: Adobe Illustrator 16.0.0, SVG Export Plug-In . SVG Version: 6.00 Build 0)  -->
<!DOCTYPE svg PUBLIC "-//W3C//DTD SVG 1.1//EN" "http://www.w3.org/Graphics/SVG/1.1/DTD/svg11.dtd">
<svg version="1.1" id="Calque_1" xmlns="http://www.w3.org/2000/svg" xmlns:xlink="http://www.w3.org/1999/xlink" x="0px" y="0px"
	 width="87.832px" height="82px" viewBox="0 0 87.832 82" enable-background="new 0 0 87.832 82" xml:space="preserve">
<g id="Calque_1_1_">
</g>
<g id="filters">
	<g id="bar_2_">
	</g>
	<g id="asso_1_">
	</g>
	<g id="biblio">
	</g>
	<g id="resto_1_">
		<g>
			<ellipse fill="none" stroke="#B9B9B9" stroke-width="2" stroke-miterlimit="10" cx="43.917" cy="41" rx="40.684" ry="39.56"/>
		</g>
	</g>
	<g id="cafe">
	</g>
	<path fill="#B9B9B9" d="M44.14,18.356c-3.842,0-7.685,1.306-10.711,3.915c-5.934,5.116-6.815,13.598-2.142,19.703
		c2.177,2.638,3.341,5.873,3.341,9.192c0,0.791,0.334,1.55,0.929,2.109c0.596,0.56,1.402,0.875,2.242,0.875h11.625
		c0.379,0,0.728,0.188,0.918,0.497c0.188,0.312,0.188,0.685,0,0.995c-0.19,0.309-0.537,0.495-0.918,0.495h-9.511
		c-0.051,0-0.101,0.004-0.152,0.011c-1.071,0.052-2.053,0.603-2.594,1.481c-0.565,0.922-0.565,2.062,0,2.984
		c0.535,0.871,1.506,1.422,2.566,1.478c0.059,0.011,0.119,0.013,0.18,0.013h7.399c0.378,0,0.727,0.188,0.916,0.498
		c0.19,0.311,0.19,0.686,0,0.994c-0.189,0.309-0.538,0.498-0.916,0.498H40.97c-1.43-0.02-1.43,2.007,0,1.989h6.343
		c0.051,0,0.099-0.004,0.149-0.011c1.074-0.049,2.055-0.603,2.599-1.481c0.564-0.92,0.564-2.061,0-2.98
		c-0.538-0.875-1.507-1.424-2.568-1.481c-0.058-0.011-0.12-0.011-0.18-0.011h-7.399c-0.379,0-0.725-0.188-0.915-0.499
		c-0.19-0.31-0.19-0.687,0-0.993c0.19-0.309,0.536-0.497,0.915-0.497h9.511c0.051,0,0.099-0.003,0.151-0.011
		c1.073-0.05,2.055-0.603,2.597-1.479c0.566-0.922,0.566-2.062,0-2.982c-0.565-0.922-1.616-1.492-2.748-1.492H37.799
		c-0.28,0-0.55-0.105-0.748-0.292s-0.309-0.439-0.309-0.703c0-3.606-1.241-7.109-3.512-10.024
		c-4.343-5.325-3.633-12.871,1.627-17.406c2.629-2.265,5.956-3.4,9.284-3.4c3.325,0,6.651,1.135,9.282,3.4
		c5.257,4.535,5.962,12.076,1.617,17.399c-1.808,2.32-2.942,5.02-3.336,7.846c0,0.017-0.01,0.034-0.01,0.052
		c-0.012,0.049-0.012,0.096-0.013,0.146c0,0.549,0.472,0.992,1.056,0.992c0.521,0,0.963-0.357,1.04-0.842l0.015-0.052l0.015-0.099
		c0.373-2.605,1.459-5.09,3.198-7.195c4.676-6.108,3.779-14.598-2.154-19.715C51.824,19.662,47.982,18.356,44.14,18.356z"/>
</g>
<g id="V2">
	<g id="resto">
	</g>
	<g id="bar_1_">
	</g>
	<g id="resto-u">
	</g>
	<g id="asso">
	</g>
	<g id="bar">
	</g>
	<g id="bilbio">
	</g>
	<g id="snack">
	</g>
</g>
</svg>
