<?xml version="1.0" encoding="utf-8"?>
<!-- Generator: Adobe Illustrator 16.0.0, SVG Export Plug-In . SVG Version: 6.00 Build 0)  -->
<!DOCTYPE svg PUBLIC "-//W3C//DTD SVG 1.1//EN" "http://www.w3.org/Graphics/SVG/1.1/DTD/svg11.dtd">
<svg version="1.1" id="Calque_1" xmlns="http://www.w3.org/2000/svg" xmlns:xlink="http://www.w3.org/1999/xlink" x="0px" y="0px"
	 width="87.167px" height="82px" viewBox="0 0 87.167 82" enable-background="new 0 0 87.167 82" xml:space="preserve">
<g id="Calque_1_1_">
</g>
<g id="filters">
	<g id="bar_2_">
		
			<ellipse fill="none" stroke="#B9B9B9" stroke-width="2" stroke-miterlimit="10" cx="43.704" cy="41.411" rx="40.223" ry="39.108"/>
	</g>
	<g id="asso_1_">
	</g>
	<g id="biblio">
	</g>
	<g id="resto_1_">
	</g>
	<g id="snack_1_">
	</g>
	<g id="cafe">
	</g>
</g>
<g id="V2">
	<g id="resto">
	</g>
	<g id="bar_1_">
	</g>
	<g id="resto-u">
	</g>
	<g id="asso">
	</g>
	<g id="bar">
	</g>
	<g id="bilbio">
	</g>
	<g id="snack">
	</g>
</g>
<g>
	<g>
		<g>
			<path fill="#B9B9B9" stroke="#B9B9B9" stroke-miterlimit="10" d="M43.584,62.612c-12.693,0-22.971-9.672-22.971-21.612
				c0-11.942,10.278-21.612,22.971-21.612c12.694,0,22.97,9.715,22.97,21.612C66.553,52.94,56.275,62.612,43.584,62.612z
				 M43.584,20.057c-12.266,0-22.259,9.402-22.259,20.943c0,11.539,9.994,20.941,22.259,20.941c12.265,0,22.257-9.402,22.257-20.941
				C65.842,29.459,55.848,20.057,43.584,20.057z"/>
		</g>
		<g>
			<rect x="20.945" y="40.644" fill="#B9B9B9" stroke="#B9B9B9" stroke-miterlimit="10" width="45.467" height="0.67"/>
		</g>
	</g>
	<g>
		<path fill="#B9B9B9" stroke="#B9B9B9" stroke-miterlimit="10" d="M43.252,31.91c-2.557,0-4.877-0.268-6.818-0.579
			c-6.252-1.116-10.375-3.388-10.611-3.654l0.048-0.448l0.521,0.491l-0.235-0.222h0.376c0-0.134-0.093-0.224-0.093-0.224
			c0.141,0.089,1.183,0.713,2.984,1.426c1.61,0.626,4.215,1.515,7.481,2.049c5.589,0.937,14.35,1.071,24.06-3.565l0.331,0.626
			C54.572,30.93,48.318,31.91,43.252,31.91z"/>
	</g>
	<g>
		<path fill="#B9B9B9" stroke="#B9B9B9" stroke-miterlimit="10" d="M60.964,54.589c-9.709-4.633-18.423-4.5-24.06-3.563
			c-3.267,0.536-5.872,1.425-7.482,2.05c-1.8,0.714-2.843,1.337-2.983,1.427c0,0,0.093-0.09,0.093-0.223h-0.378l-0.238,0.223
			l-0.047-0.447c0.237-0.268,4.358-2.585,10.608-3.654c5.779-1.023,14.777-1.203,24.77,3.567L60.964,54.589z"/>
	</g>
	<g>
		<path fill="#B9B9B9" stroke="#B9B9B9" stroke-miterlimit="10" d="M43.584,62.612c-6.584,0-11.936-9.714-11.936-21.699
			c0-5.703,1.229-11.096,3.409-15.149c2.274-4.101,5.305-6.374,8.525-6.374c3.221,0,6.251,2.273,8.524,6.418
			c2.229,4.053,3.409,9.446,3.409,15.149C55.519,52.898,50.167,62.612,43.584,62.612z M43.584,20.057
			c-6.205,0-11.225,9.358-11.225,20.854c0,5.615,1.184,10.919,3.362,14.928c2.131,3.967,4.926,6.105,7.864,6.105
			c2.934,0,5.728-2.184,7.862-6.105c2.177-4.009,3.359-9.312,3.359-14.928C54.807,29.415,49.787,20.057,43.584,20.057z"/>
	</g>
	<g>
		<rect x="43.206" y="19.702" fill="#B9B9B9" stroke="#B9B9B9" stroke-miterlimit="10" width="0.712" height="42.598"/>
	</g>
</g>
</svg>
