<?xml version="1.0" encoding="utf-8"?>
<!-- Generator: Adobe Illustrator 16.0.0, SVG Export Plug-In . SVG Version: 6.00 Build 0)  -->
<!DOCTYPE svg PUBLIC "-//W3C//DTD SVG 1.1//EN" "http://www.w3.org/Graphics/SVG/1.1/DTD/svg11.dtd">
<svg version="1.1" id="Calque_1" xmlns="http://www.w3.org/2000/svg" xmlns:xlink="http://www.w3.org/1999/xlink" x="0px" y="0px"
	 width="87.832px" height="82px" viewBox="0 0 87.832 82" enable-background="new 0 0 87.832 82" xml:space="preserve">
<g id="Calque_1_1_">
</g>
<g id="filters">
	<g id="bar_2_">
	</g>
	<g id="biblio">
	</g>
	<g id="resto_1_">
	</g>
	<g id="snack_1_">
		<g>
			
				<ellipse fill="none" stroke="#B9B9B9" stroke-width="2" stroke-miterlimit="10" cx="43.917" cy="41.735" rx="38.81" ry="37.739"/>
		</g>
	</g>
	<g id="cafe">
	</g>
	<path fill="#B9B9B9" stroke="#B9B9B9" stroke-miterlimit="10" d="M23.593,49.773l1.687,10.793c0.094,0.596,0.364,1.135,0.762,1.518
		c0.367,0.352,0.821,0.544,1.275,0.544c0.083,0,0.167-0.007,0.25-0.02l1.217-0.188c0.344,1.066,1.343,1.802,2.466,1.802
		c0.133,0,0.268-0.01,0.402-0.03l3.525-0.552c0.686-0.106,1.288-0.475,1.697-1.035c0.408-0.561,0.575-1.246,0.468-1.933
		L34.89,44.986c-0.222-1.414-1.555-2.386-2.967-2.165l-3.526,0.552c-1.415,0.222-2.384,1.552-2.164,2.967l0.095,0.606l-0.843,0.133
		c-0.47-1.817-0.767-6.81-0.767-8.944c0-10.583,8.612-19.196,19.198-19.196c10.585,0,19.196,8.613,19.196,19.196
		c0,2.134-0.298,7.126-0.768,8.944l-0.841-0.133l0.095-0.606c0.22-1.415-0.752-2.745-2.165-2.967l-3.526-0.552
		c-1.418-0.221-2.744,0.751-2.967,2.165l-2.45,15.686c-0.109,0.687,0.059,1.372,0.467,1.933c0.409,0.561,1.012,0.929,1.698,1.035
		l3.524,0.552c0.135,0.021,0.27,0.03,0.402,0.03c1.123,0,2.122-0.733,2.467-1.802l1.216,0.188c0.084,0.013,0.166,0.02,0.25,0.02
		c0.455,0,0.909-0.191,1.275-0.544c0.397-0.383,0.668-0.922,0.761-1.518l1.687-10.793c0.147-0.946-0.189-1.831-0.795-2.304
		c0.549-1.996,0.831-7.401,0.831-9.334c0-11.226-9.132-20.357-20.357-20.357s-20.357,9.131-20.357,20.357
		c0,1.933,0.283,7.338,0.831,9.334C23.784,47.942,23.445,48.827,23.593,49.773z M57.998,61.847
		c-0.122,0.781-0.854,1.322-1.642,1.196l-3.523-0.553c-0.38-0.059-0.713-0.26-0.939-0.57c-0.227-0.31-0.318-0.689-0.259-1.069
		l2.452-15.686c0.111-0.708,0.723-1.216,1.418-1.216c0.074,0,0.148,0.007,0.223,0.018l3.525,0.551
		c0.379,0.061,0.713,0.263,0.938,0.572s0.318,0.689,0.259,1.069L57.998,61.847z M63.091,49.594l-1.688,10.793
		c-0.053,0.342-0.205,0.656-0.419,0.859c-0.099,0.098-0.298,0.254-0.541,0.214l-1.182-0.185l2.06-13.183l1.182,0.184
		C62.915,48.342,63.189,48.958,63.091,49.594z M27.638,45.092c0.227-0.311,0.56-0.514,0.938-0.572l3.525-0.551
		c0.075-0.013,0.149-0.019,0.223-0.019c0.695,0,1.308,0.507,1.418,1.215l2.452,15.687c0.06,0.379-0.032,0.759-0.258,1.069
		c-0.227,0.31-0.559,0.513-0.938,0.571l-3.525,0.551c-0.787,0.124-1.519-0.415-1.642-1.196L27.38,46.159
		C27.32,45.78,27.413,45.401,27.638,45.092z M28.567,61.276l-1.181,0.185c-0.237,0.037-0.442-0.117-0.542-0.215
		c-0.213-0.203-0.366-0.518-0.419-0.859l-1.687-10.791c-0.1-0.638,0.175-1.254,0.587-1.317l1.18-0.186L28.567,61.276z"/>
</g>
<g id="V2">
	<g id="resto">
	</g>
	<g id="bar_1_">
	</g>
	<g id="resto-u">
	</g>
	<g id="asso">
	</g>
	<g id="bar">
	</g>
	<g id="bilbio">
	</g>
	<g id="snack">
	</g>
</g>
</svg>
