<?xml version="1.0" encoding="utf-8"?>
<!-- Generator: Adobe Illustrator 16.0.0, SVG Export Plug-In . SVG Version: 6.00 Build 0)  -->
<!DOCTYPE svg PUBLIC "-//W3C//DTD SVG 1.1//EN" "http://www.w3.org/Graphics/SVG/1.1/DTD/svg11.dtd">
<svg version="1.1" id="Calque_1" xmlns="http://www.w3.org/2000/svg" xmlns:xlink="http://www.w3.org/1999/xlink" x="0px" y="0px"
	 width="87.832px" height="82px" viewBox="0 0 87.832 82" enable-background="new 0 0 87.832 82" xml:space="preserve">
<g id="Calque_1_1_">
</g>
<g id="filters">
	<g id="bar_2_">
	</g>
	<g id="asso_1_">
		<g>
			
				<ellipse fill="none" stroke="#B9B9B9" stroke-width="2" stroke-miterlimit="10" cx="44.007" cy="40.33" rx="40.239" ry="39.128"/>
		</g>
	</g>
	<g id="biblio">
	</g>
	<g id="snack_1_">
	</g>
	<g id="cafe">
	</g>
	<g>
		<g>
			<path fill="#B9B9B9" d="M25.467,34.413l16.124,2.772c-1.708,6.666-5.863,11.691-9.848,11.691c-0.25,0-0.5-0.02-0.742-0.062
				c-1.997-0.342-3.67-2.074-4.714-4.875C25.279,41.235,24.997,37.898,25.467,34.413 M24.138,32.654
				c-1.716,8.825,1.229,16.723,6.574,17.643c0.342,0.057,0.687,0.09,1.032,0.09c5.032,0,10.148-6.143,11.754-14.406L24.138,32.654
				L24.138,32.654z"/>
		</g>
		<polygon fill="#B9B9B9" points="29.232,62.092 27.656,61.82 29.976,49.906 31.551,50.178 		"/>
		<polygon fill="#B9B9B9" points="32.073,63.346 24.539,62.049 24.827,60.57 32.359,61.865 		"/>
		<g>
			<g>
				<path fill="#B9B9B9" d="M62.498,35.227c0.593,7.306-2.116,13.617-6.262,14.136c-0.182,0.023-0.364,0.033-0.546,0.033
					c-3.995,0-8.047-5.318-9.436-12.133L62.498,35.227 M63.919,33.531l-19.508,2.443c1.201,8.477,6.152,14.928,11.278,14.928
					c0.253,0,0.504-0.014,0.757-0.047C61.829,50.18,65.177,42.424,63.919,33.531L63.919,33.531z"/>
			</g>
			<polygon fill="#B9B9B9" points="57.312,62.711 55.611,50.701 57.198,50.504 58.898,62.512 			"/>
			<polygon fill="#B9B9B9" points="54.418,63.832 54.205,62.338 61.799,61.377 62.012,62.869 			"/>
		</g>
		<polygon fill="#B9B9B9" points="33.66,32.252 27.884,26.826 29.014,25.76 34.791,31.186 		"/>
		<polygon fill="#B9B9B9" points="34.792,28.284 30.663,22.189 32.012,21.379 36.142,27.474 		"/>
		<polygon fill="#B9B9B9" points="39.768,28.803 36.93,21.375 38.437,20.865 41.274,28.292 		"/>
		<polygon fill="#B9B9B9" points="43.978,26.825 43.611,18.228 45.213,18.168 45.578,26.765 		"/>
		<polygon fill="#B9B9B9" points="49.078,28.809 47.578,28.286 50.509,20.859 52.01,21.383 		"/>
		<polygon fill="#B9B9B9" points="52.943,29.482 51.699,28.534 56.632,22.812 57.876,23.763 		"/>
		<polygon fill="#B9B9B9" points="52.09,33.304 51.307,31.991 56.865,29.056 57.648,30.369 		"/>
		<rect x="24.68" y="39.311" fill="#B9B9B9" width="16.815" height="1.506"/>
		<rect x="46.382" y="39.311" fill="#B9B9B9" width="16.813" height="1.506"/>
	</g>
</g>
<g id="V2">
	<g id="resto">
	</g>
	<g id="bar_1_">
	</g>
	<g id="resto-u">
	</g>
	<g id="asso">
	</g>
	<g id="bar">
	</g>
	<g id="bilbio">
	</g>
	<g id="snack">
	</g>
</g>
</svg>
