<?xml version="1.0" encoding="utf-8"?>
<!-- Generator: Adobe Illustrator 16.0.0, SVG Export Plug-In . SVG Version: 6.00 Build 0)  -->
<!DOCTYPE svg PUBLIC "-//W3C//DTD SVG 1.1//EN" "http://www.w3.org/Graphics/SVG/1.1/DTD/svg11.dtd">
<svg version="1.1" id="Calque_1" xmlns="http://www.w3.org/2000/svg" xmlns:xlink="http://www.w3.org/1999/xlink" x="0px" y="0px"
	 width="87.833px" height="82px" viewBox="0 0 87.833 82" enable-background="new 0 0 87.833 82" xml:space="preserve">
<g id="Calque_1_1_">
</g>
<g id="filters">
	<g id="bar_2_">
	</g>
	<g id="asso_1_">
	</g>
	<g id="biblio">
	</g>
	<g id="resto_1_">
	</g>
	<g id="snack_1_">
	</g>
	<g id="cafe">
		<g>
			
				<ellipse fill="none" stroke="#B9B9B9" stroke-width="2" stroke-miterlimit="10" cx="44.221" cy="40.329" rx="40.221" ry="39.108"/>
		</g>
	</g>
</g>
<g id="V2">
	<g id="resto">
	</g>
	<g id="bar_1_">
	</g>
	<g id="resto-u">
	</g>
	<g id="asso">
	</g>
	<g id="bar">
	</g>
	<g id="bilbio">
	</g>
	<g id="snack">
	</g>
</g>
<g transform="translate(0,-952.36218)">
	<path fill="#B9B9B9" stroke="#B9B9B9" stroke-width="2" stroke-miterlimit="10" d="M31.978,975.708
		c-3.136,0-6.258,1.133-8.652,3.425c-4.789,4.587-4.783,11.993,0,16.582l20.132,19.333c0.248,0.23,0.646,0.23,0.894,0
		c6.719-6.436,13.435-12.877,20.151-19.316c4.79-4.583,4.79-11.974,0-16.561c-4.789-4.588-12.54-4.588-17.327,0l-3.243,3.107
		l-3.282-3.145C38.258,976.841,35.115,975.708,31.978,975.708z M31.978,976.888c2.8,0,5.604,1.022,7.76,3.087l3.739,3.575
		c0.249,0.232,0.647,0.232,0.896,0l3.719-3.555c4.31-4.129,11.209-4.129,15.519,0c4.307,4.128,4.307,10.77,0,14.896
		c-6.568,6.291-13.128,12.593-19.694,18.885l-19.695-18.902c-4.307-4.132-4.311-10.768,0-14.897
		C26.375,977.911,29.179,976.888,31.978,976.888z"/>
</g>
</svg>
