<?xml version="1.0" encoding="utf-8"?>
<!-- Generator: Adobe Illustrator 16.0.0, SVG Export Plug-In . SVG Version: 6.00 Build 0)  -->
<!DOCTYPE svg PUBLIC "-//W3C//DTD SVG 1.1//EN" "http://www.w3.org/Graphics/SVG/1.1/DTD/svg11.dtd">
<svg version="1.1" id="Calque_1" xmlns="http://www.w3.org/2000/svg" xmlns:xlink="http://www.w3.org/1999/xlink" x="0px" y="0px"
	 width="100px" height="100px" viewBox="0 0 100 100" enable-background="new 0 0 100 100" xml:space="preserve">
<g>
	<g>
		
			<ellipse fill="none" stroke="#B8B8B8" stroke-width="2" stroke-miterlimit="10" cx="50.124" cy="49.998" rx="47.983" ry="46.658"/>
	</g>
	<g>
		<g>
			<g>
				<g id="restau-u">
					<g>
						<path id="SVGID_37_" fill="#B8B8B8" d="M34.068,47.788l-1.046,25.11v0.057v0.067c0,3.639,3.353,6.601,7.474,6.601
							c4.125,0,7.479-2.962,7.479-6.601v-0.067v-0.057l-1.051-25.11c2.935-1.479,4.823-4.253,4.823-7.338V23.547
							c0-2.034-1.887-3.7-4.193-3.7c-1.465,0-2.793,0.681-3.562,1.725c-0.698-1.044-1.957-1.725-3.494-1.725
							c-1.467,0-2.793,0.681-3.562,1.725c-0.769-1.044-2.027-1.725-3.562-1.725c-2.307,0-4.194,1.663-4.194,3.7v16.84
							C29.25,43.471,31.137,46.309,34.068,47.788z M32.905,24.314c0-0.668,0.558-1.216,1.247-1.216c0.688,0,1.25,0.548,1.25,1.216
							v10.631c0,0.667,0.56,1.214,1.249,1.214h1.312c0.686,0,1.251-0.547,1.251-1.214V24.314c0-0.668,0.559-1.216,1.248-1.216
							c0.688,0,1.25,0.548,1.25,1.216v10.631c0,0.667,0.562,1.214,1.247,1.214h1.312c0.688,0,1.251-0.547,1.251-1.214V24.314
							c0-0.668,0.559-1.216,1.246-1.216c0.688,0,1.251,0.548,1.251,1.216v16.584c0,2.674-1.874,4.983-4.376,5.652l1.004,26.366
							c0,2.249-1.878,4.071-4.188,4.071c-2.312,0-4.188-1.822-4.188-4.071l0.999-26.366c-2.562-0.728-4.37-2.978-4.37-5.652V24.314
							H32.905z"/>
					</g>
					<g>
						<g enable-background="new    ">
							<defs>
								<path id="SVGID_1_" enable-background="new    " d="M34.068,47.788l-1.046,25.11v0.057v0.067
									c0,3.639,3.353,6.601,7.474,6.601c4.125,0,7.479-2.962,7.479-6.601v-0.067v-0.057l-1.051-25.11
									c2.935-1.479,4.823-4.253,4.823-7.338V23.547c0-2.034-1.887-3.7-4.193-3.7c-1.465,0-2.793,0.681-3.562,1.725
									c-0.698-1.044-1.957-1.725-3.494-1.725c-1.467,0-2.793,0.681-3.562,1.725c-0.769-1.044-2.027-1.725-3.562-1.725
									c-2.307,0-4.194,1.663-4.194,3.7v16.84C29.25,43.471,31.137,46.309,34.068,47.788z M32.905,24.314
									c0-0.668,0.558-1.216,1.247-1.216c0.688,0,1.25,0.548,1.25,1.216v10.631c0,0.667,0.56,1.214,1.249,1.214h1.312
									c0.686,0,1.251-0.547,1.251-1.214V24.314c0-0.668,0.559-1.216,1.248-1.216c0.688,0,1.25,0.548,1.25,1.216v10.631
									c0,0.667,0.562,1.214,1.247,1.214h1.312c0.688,0,1.251-0.547,1.251-1.214V24.314c0-0.668,0.559-1.216,1.246-1.216
									c0.688,0,1.251,0.548,1.251,1.216v16.584c0,2.674-1.874,4.983-4.376,5.652l1.004,26.366c0,2.249-1.878,4.071-4.188,4.071
									c-2.312,0-4.188-1.822-4.188-4.071l0.999-26.366c-2.562-0.728-4.37-2.978-4.37-5.652V24.314H32.905z"/>
							</defs>
							<clipPath id="SVGID_2_">
								<use xlink:href="#SVGID_1_"  overflow="visible"/>
							</clipPath>
							<g clip-path="url(#SVGID_2_)">
								<g>
									<rect id="SVGID_39_" x="28.65" y="19.711" fill="#B8B8B8" width="24.255" height="59.925"/>
								</g>
								<g>
									<g>
										<defs>
											<rect id="SVGID_3_" x="28.65" y="19.711" width="24.255" height="59.925"/>
										</defs>
										<clipPath id="SVGID_4_">
											<use xlink:href="#SVGID_3_"  overflow="visible"/>
										</clipPath>
										<rect x="22.043" y="12.714" clip-path="url(#SVGID_4_)" fill="#B8B8B8" width="36.84" height="74.043"/>
									</g>
								</g>
							</g>
						</g>
						<g>
							<g>
								<path id="SVGID_41_" fill="#B8B8B8" d="M57.55,57.259v15.782c0,3.543,2.891,6.547,6.415,6.604h0.187
									c3.646,0,6.668-2.874,6.668-6.484V61.968V44.047V25.03c0-2.51-2.14-4.587-4.717-4.587c-6.04,0-10.945,4.769-10.945,10.641
									v22.812C55.221,55.424,56.16,56.707,57.55,57.259 M66.081,24.052c1.148,0,2.12,0.94,2.12,2.061v18.327v17.264v10.785
									c0,2.12-1.76,3.886-4,3.886h-0.12c-2.182-0.058-3.878-1.882-3.878-4.006V56.163c0-0.591-0.485-1.121-1.152-1.121
									c-0.605,0-1.147-0.472-1.147-1.118V31.945C57.96,27.586,61.597,24.052,66.081,24.052"/>
							</g>
							<g>
								<g>
									<defs>
										<path id="SVGID_5_" d="M57.55,57.259v15.782c0,3.543,2.891,6.547,6.415,6.604h0.187c3.646,0,6.668-2.874,6.668-6.484
											V61.968V44.047V25.03c0-2.51-2.14-4.587-4.717-4.587c-6.04,0-10.945,4.769-10.945,10.641v22.812
											C55.221,55.424,56.16,56.707,57.55,57.259 M66.081,24.052c1.148,0,2.12,0.94,2.12,2.061v18.327v17.264v10.785
											c0,2.12-1.76,3.886-4,3.886h-0.12c-2.182-0.058-3.878-1.882-3.878-4.006V56.163c0-0.591-0.485-1.121-1.152-1.121
											c-0.605,0-1.147-0.472-1.147-1.118V31.945C57.96,27.586,61.597,24.052,66.081,24.052"/>
									</defs>
									<clipPath id="SVGID_6_">
										<use xlink:href="#SVGID_5_"  overflow="visible"/>
									</clipPath>
									<g clip-path="url(#SVGID_6_)">
										<rect x="48.022" y="13.308" fill="#B8B8B8" width="29.932" height="73.469"/>
									</g>
								</g>
							</g>
						</g>
					</g>
				</g>
			</g>
		</g>
	</g>
</g>
</svg>
