<?xml version="1.0" encoding="utf-8"?>
<!-- Generator: Adobe Illustrator 16.0.0, SVG Export Plug-In . SVG Version: 6.00 Build 0)  -->
<!DOCTYPE svg PUBLIC "-//W3C//DTD SVG 1.1//EN" "http://www.w3.org/Graphics/SVG/1.1/DTD/svg11.dtd">
<svg version="1.1" id="Calque_1" xmlns="http://www.w3.org/2000/svg" xmlns:xlink="http://www.w3.org/1999/xlink" x="0px" y="0px"
	 width="100px" height="100px" viewBox="0 0 100 100" enable-background="new 0 0 100 100" xml:space="preserve">
<g>
	<g>
		<g>
			<ellipse fill="none" stroke="#B8B8B8" stroke-width="2" stroke-miterlimit="10" cx="50" cy="50" rx="48.65" ry="47.31"/>
		</g>
	</g>
</g>
<g transform="translate(5.9921265,958.35431)">
	<path fill="#B8B8B8" d="M32.222-931.299c-4.575,0-9.183,1.777-13.758,5.104c-0.557,0.403-0.866,1.071-0.866,1.737v36.975
		c0,0.774,0.451,1.551,1.143,1.885c0.66,0.336,1.489,0.221,2.08-0.294c5.854-5.251,12.855-5.768,22.214,0.183
		c0.627,0.405,1.42,0.373,2.012,0c4.746-3.069,8.18-4.435,11.365-4.435c3.227-0.041,6.482,1.291,10.988,4.395
		c1.18,0.816,3.018-0.257,3.018-1.735c0-16.968,0-20.004,0-36.973c0-0.666-0.312-1.296-0.801-1.7
		c-4.33-3.367-8.799-5.143-13.377-5.143c-4.156,0-8.281,1.553-12.267,4.363C40.161-929.301,36.415-931.299,32.222-931.299z
		 M31.535-928.256c3.546,0,7.023,1.26,10.499,3.982v34.593c-8.17-4.177-15.713-4.177-21.923-0.473v-33.921
		C24.14-926.838,27.949-928.256,31.535-928.256z M56.736-928.041c3.58,0,7.232,1.428,11.029,4.17
		c0,15.105,0.037,20.988,0.037,34.746c-3.799-2.188-7.338-3.699-10.877-3.659c-3.617,0-7.229,1.389-11.219,3.616v-34.86
		C49.254-926.176,53.234-928.004,56.736-928.041z M31.771-922.016c-2.634,0-5.266,0.812-7.832,2.438
		c-0.451,0.297-0.624,0.961-0.347,1.441c0.244,0.482,0.899,0.631,1.353,0.37c2.324-1.478,4.573-2.216,6.826-2.216
		c2.254,0,4.504,0.738,6.829,2.216c0.45,0.261,1.073,0.11,1.352-0.37c0.276-0.479,0.105-1.145-0.348-1.441
		C37.042-921.204,34.406-922.016,31.771-922.016z M56.236-922.016c-2.629,0-5.264,0.812-7.863,2.438
		c-0.416,0.297-0.588,0.961-0.312,1.441c0.242,0.482,0.898,0.631,1.318,0.37c2.322-1.478,4.574-2.216,6.824-2.216
		c2.256,0,4.543,0.738,6.865,2.216c0.449,0.261,1.072,0.11,1.352-0.37c0.242-0.479,0.105-1.145-0.346-1.441
		C61.512-921.204,58.875-922.016,56.236-922.016z M31.771-915.733c-2.634,0-5.266,0.778-7.832,2.44
		c-0.451,0.26-0.624,0.961-0.347,1.405c0.244,0.481,0.899,0.664,1.353,0.368c2.285-1.477,4.542-2.217,6.76-2.217
		c2.286,0,4.57,0.74,6.896,2.217c0.45,0.296,1.073,0.113,1.352-0.368c0.276-0.444,0.105-1.146-0.348-1.405
		C37.042-914.955,34.406-915.733,31.771-915.733z M56.236-915.733c-2.629,0-5.264,0.778-7.863,2.44
		c-0.416,0.26-0.588,0.961-0.312,1.405c0.242,0.481,0.898,0.664,1.318,0.368c2.322-1.477,4.574-2.217,6.824-2.217
		c2.256,0,4.543,0.74,6.865,2.217c0.449,0.296,1.072,0.113,1.352-0.368c0.242-0.444,0.105-1.146-0.346-1.405
		C61.512-914.955,58.875-915.733,56.236-915.733z M31.771-909.483c-2.634,0-5.266,0.775-7.832,2.44
		c-0.451,0.294-0.624,0.96-0.347,1.443c0.244,0.443,0.899,0.629,1.353,0.332c2.253-1.441,4.473-2.179,6.688-2.218
		c2.286-0.037,4.608,0.705,6.967,2.218c0.45,0.297,1.073,0.111,1.352-0.332c0.276-0.48,0.105-1.146-0.348-1.443
		C37.042-908.708,34.406-909.483,31.771-909.483z M56.236-909.483c-2.629,0-5.264,0.775-7.863,2.44
		c-0.416,0.294-0.588,0.96-0.312,1.443c0.242,0.443,0.898,0.629,1.318,0.332c2.287-1.441,4.502-2.179,6.721-2.218
		c2.291-0.037,4.576,0.705,6.969,2.218c0.449,0.297,1.072,0.111,1.352-0.332c0.242-0.48,0.105-1.146-0.346-1.443
		C61.512-908.708,58.875-909.483,56.236-909.483L56.236-909.483z M31.771-903.233c-2.634,0-5.266,0.813-7.832,2.441
		c-0.451,0.294-0.624,0.958-0.347,1.443c0.244,0.477,0.899,0.626,1.353,0.368c2.324-1.518,4.573-2.258,6.862-2.258
		c2.252,0.038,4.468,0.779,6.792,2.258c0.451,0.258,1.072,0.108,1.352-0.368c0.275-0.48,0.104-1.149-0.348-1.443
		C37.042-902.423,34.406-903.233,31.771-903.233z M56.236-903.233c-2.629,0-5.264,0.813-7.863,2.441
		c-0.416,0.294-0.588,0.958-0.312,1.443c0.242,0.477,0.898,0.626,1.318,0.368c2.287-1.442,4.473-2.183,6.652-2.258
		c2.324-0.037,4.645,0.704,7.037,2.258c0.449,0.258,1.072,0.108,1.352-0.368c0.242-0.48,0.105-1.149-0.346-1.443
		C61.512-902.423,58.875-903.233,56.236-903.233z"/>
</g>
</svg>
