<?xml version="1.0" encoding="utf-8"?>
<!-- Generator: Adobe Illustrator 16.0.0, SVG Export Plug-In . SVG Version: 6.00 Build 0)  -->
<!DOCTYPE svg PUBLIC "-//W3C//DTD SVG 1.1//EN" "http://www.w3.org/Graphics/SVG/1.1/DTD/svg11.dtd">
<svg version="1.1" xmlns="http://www.w3.org/2000/svg" xmlns:xlink="http://www.w3.org/1999/xlink" x="0px" y="0px" width="100px"
	 height="100px" viewBox="0 0 100 100" enable-background="new 0 0 100 100" xml:space="preserve">
<g id="cafe">
	<g>
		<defs>
			<path id="SVGID_1_" d="M40.201-338.247c-1.039,0.011-1.354,0.57-1.745,1.23c-0.195,1.546,0.108,3.064,0.059,4.617
				c-0.034,0.529-0.179,0.996-0.076,0.788c-0.386,0.805-0.818,1.698-1.159,2.462c-0.771,1.387-0.692,3.173-0.493,4.559
				c0.39,1.312,1.051,2.503,1.652,3.751c0.392,0.91,1.618,1.359,2.526,0.942c0.91-0.415,1.331-1.618,0.879-2.499
				c-0.61-1.119-1.273-2.728-1.353-2.865c-0.218-1.281,0.13-2.271,0.175-2.349l1.178-2.445c0.388-0.82,0.392-1.438,0.435-2.153
				c0.018-1.585,0.057-3.337-0.273-4.792C41.459-337.692,40.893-338.22,40.201-338.247z M48.98-338.247
				c-1.042,0.011-1.353,0.57-1.745,1.23c-0.196,1.546,0.108,3.064,0.059,4.617c-0.032,0.529-0.178,0.996-0.079,0.788
				c-0.385,0.805-0.818,1.698-1.153,2.462c-0.77,1.387-0.691,3.173-0.492,4.559c0.387,1.312,1.049,2.503,1.646,3.751
				c0.395,0.91,1.618,1.359,2.528,0.942c0.908-0.415,1.333-1.618,0.882-2.499c-0.614-1.119-1.276-2.728-1.349-2.865
				c-0.221-1.281,0.125-2.271,0.174-2.349l1.175-2.445c0.391-0.82,0.393-1.438,0.433-2.153c0.019-1.585,0.058-3.337-0.275-4.792
				C50.239-337.692,49.674-338.22,48.98-338.247z M57.76-338.247c-1.039,0.011-1.354,0.57-1.746,1.23
				c-0.195,1.546,0.109,3.064,0.059,4.617c-0.03,0.529-0.178,0.996-0.076,0.788c-0.383,0.805-0.817,1.698-1.157,2.462
				c-0.766,1.387-0.687,3.173-0.488,4.559c0.384,1.312,1.048,2.503,1.646,3.751c0.396,0.91,1.616,1.359,2.528,0.942
				c0.914-0.415,1.333-1.618,0.88-2.499c-0.61-1.119-1.276-2.728-1.353-2.865c-0.215-1.281,0.127-2.271,0.181-2.349l1.172-2.445
				c0.391-0.82,0.391-1.438,0.435-2.153c0.019-1.585,0.058-3.337-0.276-4.792C59.015-337.692,58.453-338.22,57.76-338.247z
				 M26.106-318.534c-0.919,0.097-1.688,0.943-1.685,1.852c0,12.895,10.69,23.39,23.834,23.39c6.222,0,11.898-2.364,16.146-6.214
				c4.97-0.905,9.597-2.904,12.76-6.425c1.019-1.149,1.825-2.421,1.825-4c-0.244-4.323-2.89-6.371-6.585-6.759
				c0-1.232-1.253-1.851-2.198-1.843H26.106z M28.379-314.836h39.748c-0.963,10.01-9.416,17.847-19.871,17.847
				C37.795-296.99,29.345-304.827,28.379-314.836z M71.772-312.895c2.231,0.19,3.439,1.284,3.448,2.963
				c0,0.119-0.208,0.792-0.898,1.579c-1.723,1.748-3.636,2.95-5.747,3.864C70.154-307.014,71.266-309.856,71.772-312.895z
				 M27.363-292.697c-0.985,0.049-1.837,0.977-1.787,1.942c0.052,0.968,0.995,1.801,1.984,1.749h41.391
				c0.991,0.017,1.905-0.87,1.905-1.846c0-0.976-0.914-1.855-1.905-1.845H27.363z"/>
		</defs>
		<clipPath id="SVGID_2_">
			<use xlink:href="#SVGID_1_"  overflow="visible"/>
		</clipPath>
		<g clip-path="url(#SVGID_2_)">
			<defs>
				<rect id="SVGID_3_" x="-188.665" y="-801.279" width="579.646" height="1030.982"/>
			</defs>
			<clipPath id="SVGID_4_">
				<use xlink:href="#SVGID_3_"  overflow="visible"/>
			</clipPath>
		</g>
	</g>
</g>
<g id="restaurant">
	<g>
		<defs>
			<rect id="SVGID_5_" x="-63.494" y="-222.124" width="16.771" height="63.401"/>
		</defs>
		<clipPath id="SVGID_6_">
			<use xlink:href="#SVGID_5_"  overflow="visible"/>
		</clipPath>
		<g clip-path="url(#SVGID_6_)">
			<defs>
				<rect id="SVGID_7_" x="-417.356" y="-675.209" width="573.016" height="1019.206"/>
			</defs>
			<clipPath id="SVGID_8_">
				<use xlink:href="#SVGID_7_"  overflow="visible"/>
			</clipPath>
		</g>
	</g>
	<g>
		<defs>
			<rect id="SVGID_15_" x="-91.315" y="-222.761" width="24.168" height="64.015"/>
		</defs>
		<clipPath id="SVGID_10_">
			<use xlink:href="#SVGID_15_"  overflow="visible"/>
		</clipPath>
		<g clip-path="url(#SVGID_10_)">
			<defs>
				<rect id="SVGID_17_" x="-417.356" y="-675.209" width="573.016" height="1019.206"/>
			</defs>
			<clipPath id="SVGID_12_">
				<use xlink:href="#SVGID_17_"  overflow="visible"/>
			</clipPath>
		</g>
	</g>
</g>
<g id="assos">
	<g>
		<defs>
			<path id="SVGID_25_" d="M46.865-180.408c-0.92,0-1.845-0.342-2.55-1.027c-7.044-6.851-7.044-17.996,0-24.845l6.675-6.495
				c3.41-3.315,7.952-5.142,12.779-5.142c4.822,0,9.36,1.827,12.772,5.142c3.41,3.318,5.293,7.735,5.293,12.425
				c0,4.693-1.88,9.105-5.293,12.42c-1.413,1.373-3.69,1.373-5.097,0c-1.415-1.367-1.415-3.589,0-4.957
				c2.046-1.997,3.179-4.646,3.179-7.463c0-2.816-1.131-5.471-3.179-7.464c-4.104-3.986-11.254-3.986-15.355,0l-6.675,6.491
				c-4.229,4.117-4.229,10.811,0,14.931c1.409,1.367,1.409,3.583,0,4.956C48.71-180.75,47.785-180.408,46.865-180.408
				 M42.201-161.816c-4.824,0-9.359-1.832-12.773-5.149c-3.412-3.315-5.293-7.728-5.293-12.418c0-4.693,1.879-9.103,5.291-12.42
				c1.409-1.37,3.689-1.37,5.097,0c1.41,1.372,1.41,3.59,0,4.96c-2.051,1.992-3.181,4.646-3.181,7.464
				c0,2.817,1.13,5.467,3.181,7.46c4.104,3.985,11.251,3.985,15.353,0l6.13-5.957c2.047-1.991,3.178-4.643,3.178-7.46
				c0-2.819-1.13-5.47-3.178-7.466c-1.412-1.369-1.412-3.588,0-4.96c1.41-1.37,3.688-1.37,5.099,0
				c3.41,3.318,5.293,7.731,5.293,12.426c0,4.693-1.877,9.104-5.293,12.416l-6.127,5.958
				C51.563-163.647,47.028-161.816,42.201-161.816"/>
		</defs>
		<clipPath id="SVGID_14_">
			<use xlink:href="#SVGID_25_"  overflow="visible"/>
		</clipPath>
		<g clip-path="url(#SVGID_14_)">
			<defs>
				<rect id="SVGID_27_" x="-415.188" y="-682.474" width="580.709" height="1032.886"/>
			</defs>
			<clipPath id="SVGID_16_">
				<use xlink:href="#SVGID_27_"  overflow="visible"/>
			</clipPath>
		</g>
	</g>
</g>
<g id="culture">
</g>
<g id="detente">
	<g>
		<defs>
			<path id="SVGID_29_" d="M75.26-90.585H24.74c-1.448,0-2.626,1.158-2.626,2.58v36.926c0,1.422,1.178,2.58,2.626,2.58h6.981
				c0.774,0,1.469-0.33,1.952-0.855c0.479,0.525,1.176,0.855,1.95,0.855h6.981c0.773,0,1.47-0.33,1.952-0.855
				c0.48,0.525,1.178,0.855,1.95,0.855h6.982c0.772,0,1.469-0.33,1.952-0.855c0.479,0.525,1.176,0.855,1.95,0.855h6.981
				c0.773,0,1.469-0.33,1.95-0.855c0.482,0.525,1.178,0.855,1.952,0.855h6.98c1.448,0,2.625-1.158,2.625-2.58v-36.926
				C77.885-89.427,76.706-90.585,75.26-90.585z M32.558-51.079c0,0.453-0.375,0.823-0.836,0.823H24.74
				c-0.461,0-0.837-0.37-0.837-0.823v-36.926c0-0.453,0.376-0.821,0.837-0.821h5.855v22.355c0,0.321,0.268,0.584,0.595,0.584h1.367
				V-51.079z M43.442-51.079c0,0.453-0.376,0.823-0.835,0.823h-6.983c-0.459,0-0.836-0.37-0.836-0.823v-14.806h1.367
				c0.328,0,0.595-0.265,0.595-0.584v-22.357h4.729v22.355c0,0.321,0.268,0.584,0.594,0.584h1.367v14.808H43.442z M54.326-51.079
				c0,0.453-0.376,0.823-0.835,0.823h-6.983c-0.458,0-0.836-0.37-0.836-0.823v-14.806h1.368c0.327,0,0.595-0.265,0.595-0.584
				v-22.357h5.856c0.459,0,0.835,0.368,0.835,0.821V-51.079z M65.212-51.079c0,0.453-0.377,0.823-0.836,0.823h-6.983
				c-0.459,0-0.837-0.37-0.837-0.823v-36.926c0-0.453,0.378-0.821,0.837-0.821h5.857v22.355c0,0.321,0.267,0.584,0.595,0.584h1.367
				V-51.079z M76.097-51.079c0,0.453-0.378,0.823-0.837,0.823h-6.983c-0.459,0-0.836-0.37-0.836-0.823v-14.806h1.367
				c0.329,0,0.595-0.265,0.595-0.584v-22.357h5.857c0.459,0,0.837,0.368,0.837,0.821V-51.079z"/>
		</defs>
		<clipPath id="SVGID_18_">
			<use xlink:href="#SVGID_29_"  overflow="visible"/>
		</clipPath>
		<g clip-path="url(#SVGID_18_)">
			<defs>
				<rect id="SVGID_31_" x="-245.873" y="-702.563" width="579.683" height="1031.064"/>
			</defs>
			<clipPath id="SVGID_20_">
				<use xlink:href="#SVGID_31_"  overflow="visible"/>
			</clipPath>
		</g>
	</g>
</g>
<g id="bilbio">
	<g>
		<defs>
			<path id="SVGID_33_" d="M-81.085,26.229c-5.008,0-10.056,1.773-15.064,5.093c-0.608,0.404-0.947,1.068-0.947,1.732v36.896
				c0,0.771,0.493,1.546,1.249,1.88c0.725,0.332,1.634,0.222,2.279-0.293c6.412-5.241,14.074-5.759,24.321,0.183
				c0.684,0.404,1.555,0.369,2.2,0c5.199-3.062,8.954-4.427,12.444-4.427c3.53-0.036,7.098,1.291,12.025,4.388
				c1.292,0.813,3.303-0.257,3.303-1.73V33.055c0-0.664-0.342-1.291-0.872-1.694c-4.743-3.357-9.638-5.131-14.647-5.131
				c-4.55,0-9.065,1.549-13.43,4.354C-72.398,28.224-76.495,26.229-81.085,26.229 M-81.085,30.398c3.643,0,7.208,1.181,10.775,3.727
				V66.48c-8.385-3.907-16.126-3.907-22.499-0.442V34.312C-88.673,31.727-84.767,30.398-81.085,30.398 M-54.794,30.398
				c3.645,0,7.364,1.328,11.231,3.874c0,14.019,0.037,19.481,0.037,32.248c-3.867-2.032-7.473-3.435-11.077-3.396
				c-3.683,0-7.361,1.293-11.422,3.356V34.125C-62.418,32.13-58.36,30.436-54.794,30.398 M-81.579,35.49
				c-2.886,0-5.768,0.812-8.576,2.435c-0.492,0.296-0.682,0.959-0.378,1.438c0.267,0.481,0.987,0.628,1.48,0.368
				c2.543-1.475,5.006-2.212,7.475-2.212c2.466,0,4.929,0.737,7.475,2.212c0.492,0.26,1.174,0.113,1.479-0.368
				c0.303-0.479,0.115-1.143-0.381-1.438C-75.812,36.303-78.695,35.49-81.579,35.49 M-54.794,35.49c-2.882,0-5.766,0.812-8.61,2.435
				c-0.455,0.296-0.645,0.959-0.342,1.438c0.267,0.481,0.983,0.628,1.442,0.368c2.542-1.475,5.008-2.212,7.471-2.212
				c2.471,0,4.974,0.737,7.512,2.212c0.497,0.26,1.179,0.113,1.482-0.368c0.264-0.479,0.115-1.143-0.378-1.438
				C-49.025,36.303-51.91,35.49-54.794,35.49 M-81.579,41.762c-2.886,0-5.768,0.775-8.576,2.437
				c-0.492,0.259-0.682,0.957-0.378,1.402c0.267,0.479,0.987,0.661,1.48,0.367c2.502-1.475,4.972-2.214,7.398-2.214
				c2.504,0,5.005,0.739,7.551,2.214c0.492,0.294,1.174,0.112,1.479-0.367c0.303-0.445,0.115-1.144-0.381-1.402
				C-75.812,42.537-78.695,41.762-81.579,41.762 M-54.794,41.762c-2.882,0-5.766,0.775-8.61,2.437
				c-0.455,0.259-0.645,0.957-0.342,1.402c0.267,0.479,0.983,0.661,1.442,0.367c2.542-1.475,5.008-2.214,7.471-2.214
				c2.471,0,4.974,0.739,7.512,2.214c0.497,0.294,1.179,0.112,1.482-0.367c0.264-0.445,0.115-1.144-0.378-1.402
				C-49.025,42.537-51.91,41.762-54.794,41.762 M-81.579,47.995c-2.886,0-5.768,0.776-8.576,2.437
				c-0.492,0.296-0.682,0.961-0.378,1.439c0.267,0.442,0.987,0.629,1.48,0.332c2.466-1.438,4.896-2.176,7.321-2.213
				c2.503-0.037,5.047,0.701,7.628,2.213c0.492,0.297,1.174,0.11,1.479-0.332c0.303-0.479,0.115-1.144-0.381-1.439
				C-75.812,48.771-78.695,47.995-81.579,47.995 M-54.794,47.995c-2.882,0-5.766,0.776-8.61,2.437
				c-0.455,0.296-0.645,0.961-0.342,1.439c0.267,0.442,0.983,0.629,1.442,0.332c2.502-1.438,4.931-2.176,7.359-2.213
				c2.507-0.037,5.01,0.701,7.624,2.213c0.497,0.297,1.179,0.11,1.482-0.332c0.264-0.479,0.115-1.144-0.378-1.439
				C-49.025,48.771-51.91,47.995-54.794,47.995 M-81.579,54.232c-2.886,0-5.768,0.811-8.576,2.437
				c-0.492,0.291-0.682,0.96-0.378,1.439c0.267,0.477,0.987,0.624,1.48,0.366c2.543-1.515,5.006-2.251,7.512-2.251
				c2.465,0.037,4.892,0.777,7.438,2.251c0.492,0.258,1.174,0.11,1.479-0.366c0.303-0.479,0.115-1.148-0.381-1.439
				C-75.812,55.043-78.695,54.232-81.579,54.232 M-54.794,54.232c-2.882,0-5.766,0.811-8.61,2.437
				c-0.455,0.291-0.645,0.96-0.342,1.439c0.267,0.477,0.983,0.624,1.442,0.366c2.502-1.438,4.895-2.179,7.286-2.251
				c2.542-0.036,5.083,0.703,7.698,2.251c0.497,0.258,1.179,0.11,1.482-0.366c0.264-0.479,0.115-1.148-0.378-1.439
				C-49.025,55.043-51.91,54.232-54.794,54.232"/>
		</defs>
		<clipPath id="SVGID_22_">
			<use xlink:href="#SVGID_33_"  overflow="visible"/>
		</clipPath>
		<g clip-path="url(#SVGID_22_)">
			<defs>
				<rect id="SVGID_35_" x="-479.564" y="-587.7" width="581" height="1033.405"/>
			</defs>
			<clipPath id="SVGID_24_">
				<use xlink:href="#SVGID_35_"  overflow="visible"/>
			</clipPath>
		</g>
	</g>
</g>
<g id="dab">
</g>
<g id="laverie">
</g>
<g id="impression">
</g>
<g id="restau-u">
</g>
<g id="soins">
	<g>
		<ellipse fill="none" stroke="#B8B8B8" stroke-width="2" stroke-miterlimit="10" cx="49.997" cy="50" rx="48.65" ry="47.309"/>
	</g>
	<path fill="#B8B8B8" stroke="#B8B8B8" stroke-width="2" stroke-miterlimit="10" d="M57.172,76.417h-14.35
		c-1.521,0-2.711-1.19-2.711-2.711v-13.82h-13.82c-1.52,0-2.711-1.19-2.711-2.711V42.826c0-1.521,1.191-2.712,2.711-2.712h13.82
		V26.295c0-1.521,1.19-2.712,2.711-2.712h14.35c1.521,0,2.711,1.19,2.711,2.712v13.819h13.82c1.521,0,2.711,1.19,2.711,2.712v14.349
		c0,1.521-1.19,2.711-2.711,2.711h-13.82v13.82C59.883,75.16,58.692,76.417,57.172,76.417z M26.291,41.04
		c-0.991,0-1.719,0.794-1.719,1.72v14.349c0,0.992,0.793,1.72,1.719,1.72h14.746v14.745c0,0.992,0.794,1.72,1.72,1.72h14.349
		c0.992,0,1.72-0.794,1.72-1.72v-14.68H73.57c0.992,0,1.72-0.793,1.72-1.719V42.826c0-0.992-0.794-1.72-1.72-1.72h-14.68V26.295
		c0-0.992-0.793-1.72-1.719-1.72h-14.35c-0.991,0-1.719,0.794-1.719,1.72V41.04H26.291z"/>
</g>
<g id="bar">
	<g>
		<defs>
			<path id="SVGID_43_" d="M-45.614-317.287h-7.688v-2.854c1.153-1.48,1.844-3.314,1.844-5.315c0-4.866-4.061-8.819-9.059-8.819
				c-0.979,0-1.948,0.156-2.875,0.46c-1.133-4.078-4.932-7.035-9.453-7.035c-4.438,0-8.196,2.831-9.402,6.827
				c-1.626-0.327-3.359-0.074-4.814,0.714c-1.637,0.878-2.832,2.335-3.351,4.087c-0.517,1.751-0.548,4.584,1.574,6.479v30.701
				c0,2.453,2.044,4.457,4.573,4.457h26.396c2.521,0,4.577-1.992,4.577-4.457v-3.052c0,0,9.209-7.076,9.209-20.729
				C-44.094-316.627-44.771-317.287-45.614-317.287z M-56.339-292.04c0,0.819-0.69,1.488-1.53,1.488h-26.403
				c-0.84,0-1.53-0.669-1.53-1.488v-28.78c1.175,0.365,2.476,0.428,3.695,0.155c1.248,3.281,4.5,5.579,8.205,5.579
				c2.981,0,5.707-1.5,7.303-3.837c1.634,1.457,3.779,2.285,6.072,2.285c1.467,0,2.897-0.348,4.168-0.996v25.593H-56.339z
				 M-60.517-319.606c-2.109,0-4.028-1.059-5.136-2.818c-0.313-0.505-0.897-0.778-1.499-0.705c-0.592,0.073-1.087,0.493-1.26,1.06
				c-0.699,2.369-2.961,4.015-5.492,4.015c-2.819,0-5.254-2.057-5.654-4.78c-0.074-0.484-0.375-0.892-0.818-1.113
				c-0.441-0.218-0.968-0.208-1.41,0.021c-1.272,0.671-2.843,0.588-4.039-0.158c-0.033-0.018-2.724-1.497-1.679-4.33
				c0.355-0.976,0.968-1.812,1.896-2.316c1.163-0.62,2.615-0.629,3.789-0.034c0.451,0.232,0.99,0.232,1.433-0.01
				c0.441-0.227,0.745-0.671,0.788-1.164c0.332-3.396,3.217-5.964,6.727-5.964c3.641,0,6.604,2.778,6.754,6.321
				c0.02,0.535,0.335,1.008,0.818,1.249c0.487,0.239,1.067,0.222,1.518-0.063c0.972-0.606,2.091-0.931,3.241-0.931
				c3.319,0,6.011,2.629,6.011,5.848C-54.498-320.687-59.094-319.606-60.517-319.606z M-53.302-299.401v-14.931h6.129
				C-47.496-308.807-49.641-303.605-53.302-299.401z"/>
		</defs>
		<clipPath id="SVGID_26_">
			<use xlink:href="#SVGID_43_"  overflow="visible"/>
		</clipPath>
		<g clip-path="url(#SVGID_26_)">
			<defs>
				<rect id="SVGID_45_" x="-192.706" y="-782.997" width="558.605" height="993.582"/>
			</defs>
			<clipPath id="SVGID_28_">
				<use xlink:href="#SVGID_45_"  overflow="visible"/>
			</clipPath>
		</g>
	</g>
</g>
</svg>
