<?xml version="1.0" encoding="utf-8"?>
<!-- Generator: Adobe Illustrator 16.0.0, SVG Export Plug-In . SVG Version: 6.00 Build 0)  -->
<!DOCTYPE svg PUBLIC "-//W3C//DTD SVG 1.1//EN" "http://www.w3.org/Graphics/SVG/1.1/DTD/svg11.dtd">
<svg version="1.1" xmlns="http://www.w3.org/2000/svg" xmlns:xlink="http://www.w3.org/1999/xlink" x="0px" y="0px" width="100px"
	 height="100px" viewBox="0 0 100 100" enable-background="new 0 0 100 100" xml:space="preserve">
<g id="cafe">
	<g>
		<defs>
			<path id="SVGID_1_" d="M160.201-218.247c-1.039,0.011-1.354,0.57-1.745,1.23c-0.195,1.546,0.108,3.064,0.059,4.617
				c-0.034,0.529-0.179,0.996-0.076,0.788c-0.386,0.805-0.818,1.698-1.159,2.462c-0.771,1.387-0.692,3.173-0.493,4.559
				c0.39,1.312,1.051,2.503,1.652,3.751c0.392,0.91,1.618,1.359,2.526,0.942c0.91-0.415,1.331-1.618,0.879-2.499
				c-0.61-1.119-1.273-2.728-1.353-2.865c-0.218-1.281,0.13-2.271,0.175-2.349l1.178-2.445c0.388-0.82,0.392-1.438,0.435-2.153
				c0.018-1.585,0.057-3.337-0.273-4.792C161.459-217.692,160.893-218.22,160.201-218.247z M168.98-218.247
				c-1.042,0.011-1.353,0.57-1.745,1.23c-0.196,1.546,0.108,3.064,0.059,4.617c-0.032,0.529-0.178,0.996-0.079,0.788
				c-0.385,0.805-0.818,1.698-1.153,2.462c-0.77,1.387-0.691,3.173-0.492,4.559c0.387,1.312,1.049,2.503,1.646,3.751
				c0.395,0.91,1.618,1.359,2.528,0.942c0.908-0.415,1.333-1.618,0.882-2.499c-0.614-1.119-1.276-2.728-1.349-2.865
				c-0.221-1.281,0.125-2.271,0.174-2.349l1.175-2.445c0.391-0.82,0.393-1.438,0.433-2.153c0.019-1.585,0.058-3.337-0.275-4.792
				C170.239-217.692,169.674-218.22,168.98-218.247z M177.76-218.247c-1.039,0.011-1.354,0.57-1.746,1.23
				c-0.195,1.546,0.109,3.064,0.059,4.617c-0.03,0.529-0.178,0.996-0.076,0.788c-0.383,0.805-0.817,1.698-1.157,2.462
				c-0.766,1.387-0.687,3.173-0.488,4.559c0.384,1.312,1.048,2.503,1.646,3.751c0.396,0.91,1.616,1.359,2.528,0.942
				c0.914-0.415,1.333-1.618,0.88-2.499c-0.61-1.119-1.276-2.728-1.353-2.865c-0.215-1.281,0.127-2.271,0.181-2.349l1.172-2.445
				c0.391-0.82,0.391-1.438,0.435-2.153c0.019-1.585,0.058-3.337-0.276-4.792C179.015-217.692,178.453-218.22,177.76-218.247z
				 M146.106-198.534c-0.919,0.097-1.688,0.943-1.685,1.852c0,12.895,10.69,23.39,23.834,23.39c6.222,0,11.898-2.364,16.146-6.214
				c4.97-0.905,9.597-2.904,12.76-6.425c1.019-1.149,1.825-2.421,1.825-4c-0.244-4.323-2.89-6.371-6.585-6.759
				c0-1.232-1.253-1.851-2.198-1.843H146.106z M148.379-194.836h39.748c-0.963,10.01-9.416,17.847-19.871,17.847
				C157.795-176.99,149.345-184.827,148.379-194.836z M191.772-192.895c2.231,0.19,3.439,1.284,3.448,2.963
				c0,0.119-0.208,0.792-0.898,1.579c-1.723,1.748-3.636,2.95-5.747,3.864C190.154-187.014,191.266-189.856,191.772-192.895z
				 M147.363-172.697c-0.985,0.049-1.837,0.977-1.787,1.942c0.052,0.968,0.995,1.801,1.984,1.749h41.391
				c0.991,0.017,1.905-0.87,1.905-1.846c0-0.976-0.914-1.855-1.905-1.845H147.363z"/>
		</defs>
		<clipPath id="SVGID_2_">
			<use xlink:href="#SVGID_1_"  overflow="visible"/>
		</clipPath>
		<g clip-path="url(#SVGID_2_)">
			<defs>
				<rect id="SVGID_3_" x="-68.665" y="-681.279" width="579.646" height="1030.982"/>
			</defs>
			<clipPath id="SVGID_4_">
				<use xlink:href="#SVGID_3_"  overflow="visible"/>
			</clipPath>
		</g>
	</g>
</g>
<g id="restaurant">
	<g>
		<defs>
			<rect id="SVGID_5_" x="56.506" y="-102.124" width="16.771" height="63.401"/>
		</defs>
		<clipPath id="SVGID_6_">
			<use xlink:href="#SVGID_5_"  overflow="visible"/>
		</clipPath>
		<g clip-path="url(#SVGID_6_)">
			<defs>
				<rect id="SVGID_7_" x="-297.356" y="-555.209" width="573.016" height="1019.206"/>
			</defs>
			<clipPath id="SVGID_8_">
				<use xlink:href="#SVGID_7_"  overflow="visible"/>
			</clipPath>
		</g>
	</g>
	<g>
		<defs>
			<rect id="SVGID_15_" x="28.685" y="-102.761" width="24.168" height="64.015"/>
		</defs>
		<clipPath id="SVGID_10_">
			<use xlink:href="#SVGID_15_"  overflow="visible"/>
		</clipPath>
		<g clip-path="url(#SVGID_10_)">
			<defs>
				<rect id="SVGID_17_" x="-297.356" y="-555.209" width="573.016" height="1019.206"/>
			</defs>
			<clipPath id="SVGID_12_">
				<use xlink:href="#SVGID_17_"  overflow="visible"/>
			</clipPath>
		</g>
	</g>
</g>
<g id="assos">
	<g>
		<defs>
			<path id="SVGID_25_" d="M166.865-60.408c-0.92,0-1.845-0.342-2.55-1.027c-7.044-6.851-7.044-17.996,0-24.845l6.675-6.495
				c3.41-3.315,7.952-5.142,12.779-5.142c4.822,0,9.36,1.827,12.772,5.142c3.41,3.318,5.293,7.735,5.293,12.425
				c0,4.693-1.88,9.105-5.293,12.42c-1.413,1.373-3.69,1.373-5.097,0c-1.415-1.367-1.415-3.589,0-4.957
				c2.046-1.997,3.179-4.646,3.179-7.463c0-2.816-1.131-5.471-3.179-7.464c-4.104-3.986-11.254-3.986-15.355,0l-6.675,6.491
				c-4.229,4.117-4.229,10.811,0,14.931c1.409,1.367,1.409,3.583,0,4.956C168.71-60.75,167.785-60.408,166.865-60.408
				 M162.201-41.816c-4.824,0-9.359-1.832-12.773-5.149c-3.412-3.315-5.293-7.728-5.293-12.418c0-4.693,1.879-9.103,5.291-12.42
				c1.409-1.37,3.689-1.37,5.097,0c1.41,1.372,1.41,3.59,0,4.96c-2.051,1.992-3.181,4.646-3.181,7.464
				c0,2.817,1.13,5.467,3.181,7.46c4.104,3.985,11.251,3.985,15.353,0l6.13-5.957c2.047-1.991,3.178-4.643,3.178-7.46
				c0-2.819-1.13-5.47-3.178-7.466c-1.412-1.369-1.412-3.588,0-4.96c1.41-1.37,3.688-1.37,5.099,0
				c3.41,3.318,5.293,7.731,5.293,12.426c0,4.693-1.877,9.104-5.293,12.416l-6.127,5.958
				C171.563-43.647,167.028-41.816,162.201-41.816"/>
		</defs>
		<clipPath id="SVGID_14_">
			<use xlink:href="#SVGID_25_"  overflow="visible"/>
		</clipPath>
		<g clip-path="url(#SVGID_14_)">
			<defs>
				<rect id="SVGID_27_" x="-295.188" y="-562.474" width="580.709" height="1032.886"/>
			</defs>
			<clipPath id="SVGID_16_">
				<use xlink:href="#SVGID_27_"  overflow="visible"/>
			</clipPath>
		</g>
	</g>
</g>
<g id="culture">
	<g>
		
			<ellipse fill="none" stroke="#B8B8B8" stroke-width="2" stroke-miterlimit="10" cx="49.978" cy="50.158" rx="48.185" ry="46.855"/>
	</g>
	<path fill="#B8B8B8" stroke="#B8B8B8" stroke-miterlimit="10" d="M49.881,20.732c-0.302,0.059-0.52,0.325-0.515,0.635v14.604
		c-8.532,0.253-15.796,5.563-18.964,13.058c-0.131,0.324,0.025,0.695,0.351,0.826c0.071,0.028,0.148,0.044,0.224,0.047h3.807v13.95
		h-3.807c-0.02-0.003-0.038-0.003-0.058,0c-0.328,0.031-0.576,0.306-0.575,0.633v3.805h-3.171c-0.351,0.001-0.634,0.284-0.634,0.635
		v5.706c0,0.351,0.283,0.635,0.634,0.635h45.655c0.35,0,0.633-0.284,0.633-0.635v-5.706c0-0.351-0.283-0.634-0.633-0.635h-3.171
		v-3.805c0-0.35-0.283-0.633-0.635-0.633h-3.805v-13.95h3.805c0.352-0.008,0.63-0.298,0.622-0.647
		c-0.002-0.077-0.019-0.154-0.047-0.226c-3.166-7.494-10.432-12.805-18.963-13.058V29.63c2.915,0.112,4.07,0.917,5.429,1.822
		c1.409,0.939,3.078,1.962,6.618,1.962c0.351,0,0.635-0.283,0.635-0.634v-7.608c0-0.352-0.284-0.635-0.635-0.635
		c-3.373,0-4.389-0.825-5.746-1.782c-1.357-0.959-3.025-2.022-6.936-2.022c-0.019-0.001-0.04-0.001-0.06,0
		C49.921,20.731,49.901,20.731,49.881,20.732z M50.635,22.04c3.14,0.104,4.34,0.864,5.587,1.744c1.248,0.88,2.722,1.851,5.826,1.981
		v6.341c-2.786-0.109-4-0.844-5.29-1.704c-1.355-0.902-2.914-1.922-6.123-2.04V22.04z M50,37.219c7.939,0,14.747,4.67,17.993,11.414
		H32.009C35.254,41.889,42.062,37.219,50,37.219z M36.051,49.901h3.804v13.95h-3.804V49.901z M41.123,49.901h5.706v13.95h-5.706
		V49.901z M48.098,49.901h3.806v13.95h-3.806V49.901z M53.171,49.901h5.706v13.95h-5.706V49.901z M60.146,49.901h3.805v13.95h-3.805
		V49.901z M31.611,65.119H68.39v3.805c0,0.35,0.282,0.635,0.633,0.635h3.172v4.438H27.807v-4.438h3.17
		c0.351,0,0.635-0.285,0.635-0.635V65.119z"/>
</g>
<g id="detente">
	<g>
		<defs>
			<path id="SVGID_29_" d="M195.26,29.415h-50.52c-1.448,0-2.626,1.158-2.626,2.58v36.926c0,1.422,1.178,2.58,2.626,2.58h6.981
				c0.774,0,1.469-0.33,1.952-0.855c0.479,0.525,1.176,0.855,1.95,0.855h6.981c0.773,0,1.47-0.33,1.952-0.855
				c0.48,0.525,1.178,0.855,1.95,0.855h6.982c0.772,0,1.469-0.33,1.952-0.855c0.479,0.525,1.176,0.855,1.95,0.855h6.981
				c0.773,0,1.469-0.33,1.95-0.855c0.482,0.525,1.178,0.855,1.952,0.855h6.98c1.448,0,2.625-1.158,2.625-2.58V31.995
				C197.885,30.573,196.706,29.415,195.26,29.415z M152.558,68.921c0,0.453-0.375,0.823-0.836,0.823h-6.981
				c-0.461,0-0.837-0.37-0.837-0.823V31.995c0-0.453,0.376-0.821,0.837-0.821h5.855v22.355c0,0.321,0.268,0.584,0.595,0.584h1.367
				V68.921z M163.442,68.921c0,0.453-0.376,0.823-0.835,0.823h-6.983c-0.459,0-0.836-0.37-0.836-0.823V54.115h1.367
				c0.328,0,0.595-0.265,0.595-0.584V31.174h4.729v22.355c0,0.321,0.268,0.584,0.594,0.584h1.367v14.808H163.442z M174.326,68.921
				c0,0.453-0.376,0.823-0.835,0.823h-6.983c-0.458,0-0.836-0.37-0.836-0.823V54.115h1.368c0.327,0,0.595-0.265,0.595-0.584V31.174
				h5.856c0.459,0,0.835,0.368,0.835,0.821V68.921z M185.212,68.921c0,0.453-0.377,0.823-0.836,0.823h-6.983
				c-0.459,0-0.837-0.37-0.837-0.823V31.995c0-0.453,0.378-0.821,0.837-0.821h5.857v22.355c0,0.321,0.267,0.584,0.595,0.584h1.367
				V68.921z M196.097,68.921c0,0.453-0.378,0.823-0.837,0.823h-6.983c-0.459,0-0.836-0.37-0.836-0.823V54.115h1.367
				c0.329,0,0.595-0.265,0.595-0.584V31.174h5.857c0.459,0,0.837,0.368,0.837,0.821V68.921z"/>
		</defs>
		<clipPath id="SVGID_18_">
			<use xlink:href="#SVGID_29_"  overflow="visible"/>
		</clipPath>
		<g clip-path="url(#SVGID_18_)">
			<defs>
				<rect id="SVGID_31_" x="-125.873" y="-582.563" width="579.683" height="1031.064"/>
			</defs>
			<clipPath id="SVGID_20_">
				<use xlink:href="#SVGID_31_"  overflow="visible"/>
			</clipPath>
		</g>
	</g>
</g>
<g id="bilbio">
	<g>
		<defs>
			<path id="SVGID_33_" d="M38.915,146.229c-5.008,0-10.056,1.773-15.064,5.093c-0.608,0.404-0.947,1.068-0.947,1.732v36.896
				c0,0.771,0.493,1.546,1.249,1.88c0.725,0.332,1.634,0.222,2.279-0.293c6.412-5.241,14.074-5.759,24.321,0.183
				c0.684,0.404,1.555,0.369,2.2,0c5.199-3.062,8.954-4.427,12.444-4.427c3.53-0.036,7.098,1.291,12.025,4.388
				c1.292,0.813,3.303-0.257,3.303-1.73v-36.896c0-0.664-0.342-1.291-0.872-1.694c-4.743-3.357-9.638-5.131-14.647-5.131
				c-4.55,0-9.065,1.549-13.43,4.354C47.602,148.224,43.505,146.229,38.915,146.229 M38.915,150.398
				c3.643,0,7.208,1.181,10.775,3.727v32.355c-8.385-3.907-16.126-3.907-22.499-0.442v-31.727
				C31.327,151.727,35.233,150.398,38.915,150.398 M65.206,150.398c3.645,0,7.364,1.328,11.231,3.874
				c0,14.019,0.037,19.481,0.037,32.248c-3.867-2.032-7.473-3.435-11.077-3.396c-3.683,0-7.361,1.293-11.422,3.356v-32.355
				C57.582,152.13,61.64,150.436,65.206,150.398 M38.421,155.49c-2.886,0-5.768,0.812-8.576,2.435
				c-0.492,0.296-0.682,0.959-0.378,1.438c0.267,0.481,0.987,0.628,1.48,0.368c2.543-1.475,5.006-2.212,7.475-2.212
				c2.466,0,4.929,0.737,7.475,2.212c0.492,0.26,1.174,0.113,1.479-0.368c0.303-0.479,0.115-1.143-0.381-1.438
				C44.188,156.303,41.305,155.49,38.421,155.49 M65.206,155.49c-2.882,0-5.766,0.812-8.61,2.435
				c-0.455,0.296-0.645,0.959-0.342,1.438c0.267,0.481,0.983,0.628,1.442,0.368c2.542-1.475,5.008-2.212,7.471-2.212
				c2.471,0,4.974,0.737,7.512,2.212c0.497,0.26,1.179,0.113,1.482-0.368c0.264-0.479,0.115-1.143-0.378-1.438
				C70.975,156.303,68.09,155.49,65.206,155.49 M38.421,161.762c-2.886,0-5.768,0.775-8.576,2.437
				c-0.492,0.259-0.682,0.957-0.378,1.402c0.267,0.479,0.987,0.661,1.48,0.367c2.502-1.475,4.972-2.214,7.398-2.214
				c2.504,0,5.005,0.739,7.551,2.214c0.492,0.294,1.174,0.112,1.479-0.367c0.303-0.445,0.115-1.144-0.381-1.402
				C44.188,162.537,41.305,161.762,38.421,161.762 M65.206,161.762c-2.882,0-5.766,0.775-8.61,2.437
				c-0.455,0.259-0.645,0.957-0.342,1.402c0.267,0.479,0.983,0.661,1.442,0.367c2.542-1.475,5.008-2.214,7.471-2.214
				c2.471,0,4.974,0.739,7.512,2.214c0.497,0.294,1.179,0.112,1.482-0.367c0.264-0.445,0.115-1.144-0.378-1.402
				C70.975,162.537,68.09,161.762,65.206,161.762 M38.421,167.995c-2.886,0-5.768,0.776-8.576,2.437
				c-0.492,0.296-0.682,0.961-0.378,1.439c0.267,0.442,0.987,0.629,1.48,0.332c2.466-1.438,4.896-2.176,7.321-2.213
				c2.503-0.037,5.047,0.701,7.628,2.213c0.492,0.297,1.174,0.11,1.479-0.332c0.303-0.479,0.115-1.144-0.381-1.439
				C44.188,168.771,41.305,167.995,38.421,167.995 M65.206,167.995c-2.882,0-5.766,0.776-8.61,2.437
				c-0.455,0.296-0.645,0.961-0.342,1.439c0.267,0.442,0.983,0.629,1.442,0.332c2.502-1.438,4.931-2.176,7.359-2.213
				c2.507-0.037,5.01,0.701,7.624,2.213c0.497,0.297,1.179,0.11,1.482-0.332c0.264-0.479,0.115-1.144-0.378-1.439
				C70.975,168.771,68.09,167.995,65.206,167.995 M38.421,174.232c-2.886,0-5.768,0.811-8.576,2.437
				c-0.492,0.291-0.682,0.96-0.378,1.439c0.267,0.477,0.987,0.624,1.48,0.366c2.543-1.515,5.006-2.251,7.512-2.251
				c2.465,0.037,4.892,0.777,7.438,2.251c0.492,0.258,1.174,0.11,1.479-0.366c0.303-0.479,0.115-1.148-0.381-1.439
				C44.188,175.043,41.305,174.232,38.421,174.232 M65.206,174.232c-2.882,0-5.766,0.811-8.61,2.437
				c-0.455,0.291-0.645,0.96-0.342,1.439c0.267,0.477,0.983,0.624,1.442,0.366c2.502-1.438,4.895-2.179,7.286-2.251
				c2.542-0.036,5.083,0.703,7.698,2.251c0.497,0.258,1.179,0.11,1.482-0.366c0.264-0.479,0.115-1.148-0.378-1.439
				C70.975,175.043,68.09,174.232,65.206,174.232"/>
		</defs>
		<clipPath id="SVGID_22_">
			<use xlink:href="#SVGID_33_"  overflow="visible"/>
		</clipPath>
		<g clip-path="url(#SVGID_22_)">
			<defs>
				<rect id="SVGID_35_" x="-359.564" y="-467.7" width="581" height="1033.405"/>
			</defs>
			<clipPath id="SVGID_24_">
				<use xlink:href="#SVGID_35_"  overflow="visible"/>
			</clipPath>
		</g>
	</g>
</g>
<g id="dab">
</g>
<g id="laverie">
</g>
<g id="impression">
</g>
<g id="restau-u">
</g>
<g id="soins">
</g>
<g id="bar">
	<g>
		<defs>
			<path id="SVGID_43_" d="M74.386-197.287h-7.688v-2.854c1.153-1.48,1.844-3.314,1.844-5.315c0-4.866-4.061-8.819-9.059-8.819
				c-0.979,0-1.948,0.156-2.875,0.46c-1.133-4.078-4.932-7.035-9.453-7.035c-4.438,0-8.196,2.831-9.402,6.827
				c-1.626-0.327-3.359-0.074-4.814,0.714c-1.637,0.878-2.832,2.335-3.351,4.087c-0.517,1.751-0.548,4.584,1.574,6.479v30.701
				c0,2.453,2.044,4.457,4.573,4.457h26.396c2.521,0,4.577-1.992,4.577-4.457v-3.052c0,0,9.209-7.076,9.209-20.729
				C75.906-196.627,75.229-197.287,74.386-197.287z M63.661-172.04c0,0.819-0.69,1.488-1.53,1.488H35.728
				c-0.84,0-1.53-0.669-1.53-1.488v-28.78c1.175,0.365,2.476,0.428,3.695,0.155c1.248,3.281,4.5,5.579,8.205,5.579
				c2.981,0,5.707-1.5,7.303-3.837c1.634,1.457,3.779,2.285,6.072,2.285c1.467,0,2.897-0.348,4.168-0.996v25.593H63.661z
				 M59.483-199.606c-2.109,0-4.028-1.059-5.136-2.818c-0.313-0.505-0.897-0.778-1.499-0.705c-0.592,0.073-1.087,0.493-1.26,1.06
				c-0.699,2.369-2.961,4.015-5.492,4.015c-2.819,0-5.254-2.057-5.654-4.78c-0.074-0.484-0.375-0.892-0.818-1.113
				c-0.441-0.218-0.968-0.208-1.41,0.021c-1.272,0.671-2.843,0.588-4.039-0.158c-0.033-0.018-2.724-1.497-1.679-4.33
				c0.355-0.976,0.968-1.812,1.896-2.316c1.163-0.62,2.615-0.629,3.789-0.034c0.451,0.232,0.99,0.232,1.433-0.01
				c0.441-0.227,0.745-0.671,0.788-1.164c0.332-3.396,3.217-5.964,6.727-5.964c3.641,0,6.604,2.778,6.754,6.321
				c0.02,0.535,0.335,1.008,0.818,1.249c0.487,0.239,1.067,0.222,1.518-0.063c0.972-0.606,2.091-0.931,3.241-0.931
				c3.319,0,6.011,2.629,6.011,5.848C65.502-200.687,60.906-199.606,59.483-199.606z M66.698-179.401v-14.931h6.129
				C72.504-188.807,70.359-183.605,66.698-179.401z"/>
		</defs>
		<clipPath id="SVGID_26_">
			<use xlink:href="#SVGID_43_"  overflow="visible"/>
		</clipPath>
		<g clip-path="url(#SVGID_26_)">
			<defs>
				<rect id="SVGID_45_" x="-72.706" y="-662.997" width="558.605" height="993.582"/>
			</defs>
			<clipPath id="SVGID_28_">
				<use xlink:href="#SVGID_45_"  overflow="visible"/>
			</clipPath>
		</g>
	</g>
</g>
</svg>
