<?xml version="1.0" encoding="utf-8"?>
<!-- Generator: Adobe Illustrator 16.0.0, SVG Export Plug-In . SVG Version: 6.00 Build 0)  -->
<!DOCTYPE svg PUBLIC "-//W3C//DTD SVG 1.1//EN" "http://www.w3.org/Graphics/SVG/1.1/DTD/svg11.dtd">
<svg version="1.1" xmlns="http://www.w3.org/2000/svg" xmlns:xlink="http://www.w3.org/1999/xlink" x="0px" y="0px" width="100px"
	 height="100px" viewBox="0 0 100 100" enable-background="new 0 0 100 100" xml:space="preserve">
<g id="cafe">
</g>
<g id="restaurant">
	<g>
		<defs>
			<rect id="SVGID_5_" x="56.506" y="-453.29" width="16.771" height="63.401"/>
		</defs>
		<clipPath id="SVGID_2_">
			<use xlink:href="#SVGID_5_"  overflow="visible"/>
		</clipPath>
		<g clip-path="url(#SVGID_2_)">
			<defs>
				<rect id="SVGID_7_" x="-297.356" y="-906.375" width="573.016" height="1019.206"/>
			</defs>
			<clipPath id="SVGID_4_">
				<use xlink:href="#SVGID_7_"  overflow="visible"/>
			</clipPath>
		</g>
	</g>
	<g>
		<defs>
			<rect id="SVGID_15_" x="28.685" y="-453.927" width="24.168" height="64.015"/>
		</defs>
		<clipPath id="SVGID_6_">
			<use xlink:href="#SVGID_15_"  overflow="visible"/>
		</clipPath>
		<g clip-path="url(#SVGID_6_)">
			<defs>
				<rect id="SVGID_17_" x="-297.356" y="-906.375" width="573.016" height="1019.206"/>
			</defs>
			<clipPath id="SVGID_8_">
				<use xlink:href="#SVGID_17_"  overflow="visible"/>
			</clipPath>
		</g>
	</g>
</g>
<g id="assos">
	<g>
		<defs>
			<path id="SVGID_25_" d="M166.865-411.574c-0.92,0-1.845-0.342-2.55-1.027c-7.044-6.851-7.044-17.996,0-24.845l6.675-6.495
				c3.41-3.315,7.952-5.142,12.779-5.142c4.822,0,9.36,1.827,12.772,5.142c3.41,3.318,5.293,7.735,5.293,12.425
				c0,4.693-1.88,9.105-5.293,12.42c-1.413,1.373-3.69,1.373-5.097,0c-1.415-1.367-1.415-3.589,0-4.957
				c2.046-1.997,3.179-4.646,3.179-7.463c0-2.816-1.131-5.471-3.179-7.464c-4.104-3.986-11.254-3.986-15.355,0l-6.675,6.491
				c-4.229,4.117-4.229,10.811,0,14.931c1.409,1.367,1.409,3.583,0,4.956C168.71-411.916,167.785-411.574,166.865-411.574
				 M162.201-392.982c-4.824,0-9.359-1.832-12.773-5.149c-3.412-3.315-5.293-7.728-5.293-12.418c0-4.693,1.879-9.103,5.291-12.42
				c1.409-1.37,3.689-1.37,5.097,0c1.41,1.372,1.41,3.59,0,4.96c-2.051,1.992-3.181,4.646-3.181,7.464
				c0,2.817,1.13,5.467,3.181,7.46c4.104,3.985,11.251,3.985,15.353,0l6.13-5.957c2.047-1.991,3.178-4.643,3.178-7.46
				c0-2.819-1.13-5.47-3.178-7.466c-1.412-1.369-1.412-3.588,0-4.96c1.41-1.37,3.688-1.37,5.099,0
				c3.41,3.318,5.293,7.731,5.293,12.426c0,4.693-1.877,9.104-5.293,12.416l-6.127,5.958
				C171.563-394.813,167.028-392.982,162.201-392.982"/>
		</defs>
		<clipPath id="SVGID_10_">
			<use xlink:href="#SVGID_25_"  overflow="visible"/>
		</clipPath>
		<g clip-path="url(#SVGID_10_)">
			<defs>
				<rect id="SVGID_27_" x="-295.188" y="-913.64" width="580.709" height="1032.886"/>
			</defs>
			<clipPath id="SVGID_12_">
				<use xlink:href="#SVGID_27_"  overflow="visible"/>
			</clipPath>
		</g>
	</g>
</g>
<g id="culture">
</g>
<g id="detente">
	<g>
		<defs>
			<path id="SVGID_29_" d="M195.26-321.751h-50.52c-1.448,0-2.626,1.158-2.626,2.58v36.926c0,1.422,1.178,2.58,2.626,2.58h6.981
				c0.774,0,1.469-0.33,1.952-0.855c0.479,0.525,1.176,0.855,1.95,0.855h6.981c0.773,0,1.47-0.33,1.952-0.855
				c0.48,0.525,1.178,0.855,1.95,0.855h6.982c0.772,0,1.469-0.33,1.952-0.855c0.479,0.525,1.176,0.855,1.95,0.855h6.981
				c0.773,0,1.469-0.33,1.95-0.855c0.482,0.525,1.178,0.855,1.952,0.855h6.98c1.448,0,2.625-1.158,2.625-2.58v-36.926
				C197.885-320.593,196.706-321.751,195.26-321.751z M152.558-282.245c0,0.453-0.375,0.823-0.836,0.823h-6.981
				c-0.461,0-0.837-0.37-0.837-0.823v-36.926c0-0.453,0.376-0.821,0.837-0.821h5.855v22.355c0,0.321,0.268,0.584,0.595,0.584h1.367
				V-282.245z M163.442-282.245c0,0.453-0.376,0.823-0.835,0.823h-6.983c-0.459,0-0.836-0.37-0.836-0.823v-14.806h1.367
				c0.328,0,0.595-0.265,0.595-0.584v-22.357h4.729v22.355c0,0.321,0.268,0.584,0.594,0.584h1.367v14.808H163.442z M174.326-282.245
				c0,0.453-0.376,0.823-0.835,0.823h-6.983c-0.458,0-0.836-0.37-0.836-0.823v-14.806h1.368c0.327,0,0.595-0.265,0.595-0.584
				v-22.357h5.856c0.459,0,0.835,0.368,0.835,0.821V-282.245z M185.212-282.245c0,0.453-0.377,0.823-0.836,0.823h-6.983
				c-0.459,0-0.837-0.37-0.837-0.823v-36.926c0-0.453,0.378-0.821,0.837-0.821h5.857v22.355c0,0.321,0.267,0.584,0.595,0.584h1.367
				V-282.245z M196.097-282.245c0,0.453-0.378,0.823-0.837,0.823h-6.983c-0.459,0-0.836-0.37-0.836-0.823v-14.806h1.367
				c0.329,0,0.595-0.265,0.595-0.584v-22.357h5.857c0.459,0,0.837,0.368,0.837,0.821V-282.245z"/>
		</defs>
		<clipPath id="SVGID_14_">
			<use xlink:href="#SVGID_29_"  overflow="visible"/>
		</clipPath>
		<g clip-path="url(#SVGID_14_)">
			<defs>
				<rect id="SVGID_31_" x="-125.873" y="-933.729" width="579.683" height="1031.064"/>
			</defs>
			<clipPath id="SVGID_16_">
				<use xlink:href="#SVGID_31_"  overflow="visible"/>
			</clipPath>
		</g>
	</g>
</g>
<g id="bilbio">
	<g>
		<defs>
			<path id="SVGID_33_" d="M38.915-204.937c-5.008,0-10.056,1.773-15.064,5.093c-0.608,0.404-0.947,1.068-0.947,1.732v36.896
				c0,0.771,0.493,1.546,1.249,1.88c0.725,0.332,1.634,0.222,2.279-0.293c6.412-5.241,14.074-5.759,24.321,0.183
				c0.684,0.404,1.555,0.369,2.2,0c5.199-3.062,8.954-4.427,12.444-4.427c3.53-0.036,7.098,1.291,12.025,4.388
				c1.292,0.813,3.303-0.257,3.303-1.73v-36.896c0-0.664-0.342-1.291-0.872-1.694c-4.743-3.357-9.638-5.131-14.647-5.131
				c-4.55,0-9.065,1.549-13.43,4.354C47.602-202.942,43.505-204.937,38.915-204.937 M38.915-200.768
				c3.643,0,7.208,1.181,10.775,3.727v32.355c-8.385-3.907-16.126-3.907-22.499-0.442v-31.727
				C31.327-199.439,35.233-200.768,38.915-200.768 M65.206-200.768c3.645,0,7.364,1.328,11.231,3.874
				c0,14.019,0.037,19.481,0.037,32.248c-3.867-2.032-7.473-3.435-11.077-3.396c-3.683,0-7.361,1.293-11.422,3.356v-32.355
				C57.582-199.036,61.64-200.73,65.206-200.768 M38.421-195.676c-2.886,0-5.768,0.812-8.576,2.435
				c-0.492,0.296-0.682,0.959-0.378,1.438c0.267,0.481,0.987,0.628,1.48,0.368c2.543-1.475,5.006-2.212,7.475-2.212
				c2.466,0,4.929,0.737,7.475,2.212c0.492,0.26,1.174,0.113,1.479-0.368c0.303-0.479,0.115-1.143-0.381-1.438
				C44.188-194.863,41.305-195.676,38.421-195.676 M65.206-195.676c-2.882,0-5.766,0.812-8.61,2.435
				c-0.455,0.296-0.645,0.959-0.342,1.438c0.267,0.481,0.983,0.628,1.442,0.368c2.542-1.475,5.008-2.212,7.471-2.212
				c2.471,0,4.974,0.737,7.512,2.212c0.497,0.26,1.179,0.113,1.482-0.368c0.264-0.479,0.115-1.143-0.378-1.438
				C70.975-194.863,68.09-195.676,65.206-195.676 M38.421-189.404c-2.886,0-5.768,0.775-8.576,2.437
				c-0.492,0.259-0.682,0.957-0.378,1.402c0.267,0.479,0.987,0.661,1.48,0.367c2.502-1.475,4.972-2.214,7.398-2.214
				c2.504,0,5.005,0.739,7.551,2.214c0.492,0.294,1.174,0.112,1.479-0.367c0.303-0.445,0.115-1.144-0.381-1.402
				C44.188-188.629,41.305-189.404,38.421-189.404 M65.206-189.404c-2.882,0-5.766,0.775-8.61,2.437
				c-0.455,0.259-0.645,0.957-0.342,1.402c0.267,0.479,0.983,0.661,1.442,0.367c2.542-1.475,5.008-2.214,7.471-2.214
				c2.471,0,4.974,0.739,7.512,2.214c0.497,0.294,1.179,0.112,1.482-0.367c0.264-0.445,0.115-1.144-0.378-1.402
				C70.975-188.629,68.09-189.404,65.206-189.404 M38.421-183.171c-2.886,0-5.768,0.776-8.576,2.437
				c-0.492,0.296-0.682,0.961-0.378,1.439c0.267,0.442,0.987,0.629,1.48,0.332c2.466-1.438,4.896-2.176,7.321-2.213
				c2.503-0.037,5.047,0.701,7.628,2.213c0.492,0.297,1.174,0.11,1.479-0.332c0.303-0.479,0.115-1.144-0.381-1.439
				C44.188-182.395,41.305-183.171,38.421-183.171 M65.206-183.171c-2.882,0-5.766,0.776-8.61,2.437
				c-0.455,0.296-0.645,0.961-0.342,1.439c0.267,0.442,0.983,0.629,1.442,0.332c2.502-1.438,4.931-2.176,7.359-2.213
				c2.507-0.037,5.01,0.701,7.624,2.213c0.497,0.297,1.179,0.11,1.482-0.332c0.264-0.479,0.115-1.144-0.378-1.439
				C70.975-182.395,68.09-183.171,65.206-183.171 M38.421-176.934c-2.886,0-5.768,0.811-8.576,2.437
				c-0.492,0.291-0.682,0.96-0.378,1.439c0.267,0.477,0.987,0.624,1.48,0.366c2.543-1.515,5.006-2.251,7.512-2.251
				c2.465,0.037,4.892,0.777,7.438,2.251c0.492,0.258,1.174,0.11,1.479-0.366c0.303-0.479,0.115-1.148-0.381-1.439
				C44.188-176.123,41.305-176.934,38.421-176.934 M65.206-176.934c-2.882,0-5.766,0.811-8.61,2.437
				c-0.455,0.291-0.645,0.96-0.342,1.439c0.267,0.477,0.983,0.624,1.442,0.366c2.502-1.438,4.895-2.179,7.286-2.251
				c2.542-0.036,5.083,0.703,7.698,2.251c0.497,0.258,1.179,0.11,1.482-0.366c0.264-0.479,0.115-1.148-0.378-1.439
				C70.975-176.123,68.09-176.934,65.206-176.934"/>
		</defs>
		<clipPath id="SVGID_18_">
			<use xlink:href="#SVGID_33_"  overflow="visible"/>
		</clipPath>
		<g clip-path="url(#SVGID_18_)">
			<defs>
				<rect id="SVGID_35_" x="-359.564" y="-818.866" width="581" height="1033.405"/>
			</defs>
			<clipPath id="SVGID_20_">
				<use xlink:href="#SVGID_35_"  overflow="visible"/>
			</clipPath>
		</g>
	</g>
</g>
<g id="dab">
	<g>
		<ellipse fill="none" stroke="#B8B8B8" stroke-width="2" stroke-miterlimit="10" cx="50" cy="49.67" rx="48.65" ry="47.309"/>
	</g>
	<path fill="#B8B8B8" d="M78.551,27.396H21.448c-0.544,0-0.985,0.441-0.985,0.985v32.831c0,0.542,0.441,0.985,0.985,0.985h11.684
		c-0.359,0.88-0.41,1.741-0.133,2.521c0,0.004,0.001,0.006,0.001,0.008l1.282,3.6c0.006,0.014,0.015,0.023,0.021,0.038
		c0.63,1.689,2.664,2.646,5.554,2.646c0.394,0,0.802-0.02,1.226-0.055c1.446-0.12,2.958-0.443,4.496-0.96
		c0.002,0,0.004-0.002,0.005-0.002c0.005-0.003,0.01,0,0.016-0.003c0.011-0.003,0.021-0.01,0.033-0.015
		c0.008-0.002,0.017-0.004,0.025-0.008c0.091-0.03,0.187-0.062,0.281-0.096c0.891-0.319,1.725-0.698,2.521-1.105
		c1.541,1.414,3.988,2.611,6.974,3.296c0.036,0.014,0.069,0.027,0.106,0.034c0.023,0.006,0.044,0.004,0.067,0.008
		c0.096,0.021,0.189,0.045,0.288,0.065c1.396,0.29,2.782,0.436,4.083,0.436c1.136,0,2.207-0.109,3.167-0.332
		c1.712-0.399,2.949-1.131,3.609-2.108c0.181-0.139,0.316-0.336,0.367-0.578l0.109-0.527c0.002-0.003,0.003-0.01,0.005-0.016
		c0.001-0.004,0-0.009,0.001-0.016l0.776-3.733c0.216-1.044-0.129-2.104-0.902-3.1h11.439c0.546,0,0.986-0.441,0.986-0.984V28.381
		C79.537,27.837,79.097,27.396,78.551,27.396z M32.287,56.362c-0.438-3.102-2.891-5.556-5.992-5.991V39.22
		c3.101-0.436,5.556-2.89,5.992-5.991h35.425c0.436,3.102,2.892,5.556,5.994,5.991v11.151c-3.101,0.436-5.556,2.89-5.993,5.991
		H51.795c-1.947-1.71-6.245-1.816-10.739-0.214c-0.182,0.062-0.368,0.133-0.572,0.214H32.287L32.287,56.362z M66.085,64.895
		c-0.207,0.991-2.104,1.995-5.334,1.995c-1.181,0-2.419-0.133-3.675-0.396c-2.343-0.485-4.443-1.354-5.916-2.446
		c-1.222-0.906-1.861-1.883-1.711-2.61c0.16-0.764,1.145-1.376,2.607-1.712c0.043-0.007,0.087-0.018,0.129-0.029
		c0.761-0.161,1.64-0.254,2.599-0.254c1.182,0,2.418,0.133,3.675,0.393C63.221,60.825,66.412,63.321,66.085,64.895z M41.074,58.244
		c0.209-0.083,0.418-0.163,0.639-0.242c4.286-1.528,7.908-1.207,8.924-0.022c0.026,0.029,0.044,0.059,0.066,0.091
		c-1.759,0.601-2.903,1.628-3.183,2.968l-0.398,1.921c-0.945,0.554-1.989,1.045-3.124,1.447c-4.574,1.63-8.593,1.165-9.143-0.342
		l-0.003-0.009c0-0.003,0-0.003-0.001-0.003c-0.198-0.572,0.079-1.359,0.786-2.218C36.745,60.486,38.711,59.185,41.074,58.244z
		 M36.14,67.66c-0.002-0.006-0.006-0.009-0.008-0.018l-0.204-0.57c0.78,0.222,1.673,0.342,2.657,0.342
		c1.803,0,3.893-0.375,6.074-1.153c0.704-0.252,1.38-0.529,2.025-0.837c0,0.597,0.179,1.196,0.504,1.779
		c-0.427,0.207-0.872,0.399-1.33,0.577l-0.084-0.236c-0.184-0.512-0.747-0.779-1.259-0.597c-0.512,0.182-0.779,0.746-0.598,1.258
		l0.077,0.214c-0.793,0.222-1.572,0.383-2.332,0.486l-0.196-0.554c-0.184-0.512-0.747-0.78-1.259-0.598
		c-0.512,0.183-0.778,0.747-0.596,1.258l0.004,0.014C37.777,68.983,36.433,68.483,36.14,67.66z M62.699,70.354
		c-1.629,0.381-3.667,0.375-5.791,0.002l0.053-0.256c0.109-0.534-0.232-1.055-0.764-1.165c-0.533-0.109-1.055,0.232-1.165,0.766
		l-0.045,0.22c-0.81-0.229-1.562-0.499-2.244-0.797l0.12-0.576c0.11-0.529-0.232-1.051-0.764-1.164
		c-0.534-0.112-1.054,0.232-1.165,0.765l-0.004,0.019c-0.631-0.402-1.148-0.824-1.527-1.239c-0.01-0.011-0.019-0.019-0.028-0.028
		c-0.551-0.612-0.809-1.209-0.704-1.71l0.126-0.611c0.337,0.359,0.731,0.712,1.19,1.053c1.697,1.26,4.072,2.252,6.689,2.794
		c1.388,0.291,2.759,0.435,4.074,0.435c1.866,0,3.459-0.296,4.685-0.831l-0.13,0.626C65.146,69.377,64.174,70.013,62.699,70.354z
		 M77.567,60.227H64.862c-1.186-0.758-2.653-1.409-4.329-1.896h8.068c0.006,0,0.013,0.002,0.02,0.002
		c0.476,0,0.873-0.339,0.963-0.788c0.014-0.063,0.021-0.129,0.021-0.199l0,0c0.002-2.803,2.282-5.082,5.085-5.082
		c0.543,0,0.984-0.44,0.984-0.985V38.313c0-0.544-0.44-0.985-0.984-0.985c-2.804,0-5.085-2.28-5.085-5.084
		c0-0.542-0.44-0.985-0.984-0.985H31.379c-0.543,0-0.984,0.443-0.984,0.985c0,2.804-2.28,5.084-5.084,5.084
		c-0.544,0-0.984,0.441-0.984,0.985v12.964c0,0.545,0.44,0.985,0.984,0.985c2.802,0,5.082,2.279,5.084,5.082l0,0
		c0,0.07,0.006,0.136,0.02,0.199c0.092,0.449,0.489,0.788,0.966,0.788c0.006,0,0.012-0.002,0.019-0.002h5.28
		c-0.878,0.592-1.632,1.235-2.239,1.896H22.432V29.365h55.135V60.227z"/>
</g>
<g id="laverie">
</g>
<g id="impression">
</g>
<g id="restau-u">
</g>
<g id="soins">
</g>
<g id="bar">
</g>
</svg>
