<?xml version="1.0" encoding="utf-8"?>
<!-- Generator: Adobe Illustrator 16.0.0, SVG Export Plug-In . SVG Version: 6.00 Build 0)  -->
<!DOCTYPE svg PUBLIC "-//W3C//DTD SVG 1.1//EN" "http://www.w3.org/Graphics/SVG/1.1/DTD/svg11.dtd">
<svg version="1.1" id="Calque_1" xmlns="http://www.w3.org/2000/svg" xmlns:xlink="http://www.w3.org/1999/xlink" x="0px" y="0px"
	 width="100px" height="100px" viewBox="0 0 100 100" enable-background="new 0 0 100 100" xml:space="preserve">
<g>
	<g>
		
			<ellipse fill="none" stroke="#B8B8B8" stroke-width="2" stroke-miterlimit="10" cx="50.124" cy="49.998" rx="47.983" ry="46.658"/>
	</g>
</g>
<path fill="#B8B8B8" d="M50.003,78.643c-0.134,0-0.266-0.025-0.394-0.08c-14.693-6.301-30.424-22.541-30.424-36.699
	c0-12.882,8.255-18.648,16.438-18.648c5.866,0,12.022,3.188,14.38,9.195c2.356-6.006,8.508-9.195,14.375-9.195
	c8.184,0,16.436,5.767,16.436,18.648c0,14.156-15.73,30.398-30.423,36.699C50.269,78.617,50.136,78.643,50.003,78.643z
	 M35.624,25.206c-7.193,0-14.451,5.148-14.451,16.659c0,13.049,15.108,28.648,28.83,34.7c13.717-6.052,28.826-21.651,28.826-34.7
	c0-11.511-7.258-16.659-14.449-16.659c-6.654,0-13.385,4.356-13.385,12.686c0,0.547-0.443,0.992-0.991,0.992
	c-0.549,0-0.994-0.445-0.994-0.992C49.01,29.562,42.274,25.206,35.624,25.206z M56.5,52.726l-2.996-1.493l3.572-8.926
	c0.225-0.568-0.016-1.212-0.557-1.497c-0.539-0.281-1.207-0.113-1.545,0.396L47.02,53.137c-0.184,0.275-0.246,0.611-0.166,0.939
	c0.077,0.319,0.289,0.594,0.576,0.763l3.058,1.71l-3.58,8.718c-0.233,0.568,0.001,1.219,0.543,1.513
	c0.179,0.088,0.369,0.135,0.559,0.135c0.386,0,0.763-0.189,0.992-0.529l7.953-11.93c0.189-0.285,0.252-0.635,0.16-0.968
	C57.031,53.158,56.809,52.884,56.5,52.726z"/>
</svg>
