<?xml version="1.0" encoding="utf-8"?>
<!-- Generator: Adobe Illustrator 16.0.0, SVG Export Plug-In . SVG Version: 6.00 Build 0)  -->
<!DOCTYPE svg PUBLIC "-//W3C//DTD SVG 1.1//EN" "http://www.w3.org/Graphics/SVG/1.1/DTD/svg11.dtd">
<svg version="1.1" id="Calque_1" xmlns="http://www.w3.org/2000/svg" xmlns:xlink="http://www.w3.org/1999/xlink" x="0px" y="0px"
	 width="100px" height="100px" viewBox="0 0 100 100" enable-background="new 0 0 100 100" xml:space="preserve">
<g>
	<ellipse fill="none" stroke="#B8B8B8" stroke-width="2" stroke-miterlimit="10" cx="49.989" cy="49.671" rx="48.649" ry="47.309"/>
</g>
<path fill="#B8B8B8" d="M40.497,24.363c-1.039,0.011-1.354,0.57-1.745,1.229c-0.195,1.546,0.108,3.063,0.059,4.617
	c-0.034,0.529-0.179,0.995-0.076,0.788c-0.386,0.805-0.818,1.697-1.159,2.462c-0.771,1.388-0.692,3.173-0.493,4.56
	c0.39,1.312,1.051,2.502,1.652,3.751c0.392,0.909,1.618,1.358,2.526,0.942c0.91-0.416,1.331-1.619,0.879-2.499
	c-0.61-1.119-1.273-2.728-1.353-2.864c-0.218-1.281,0.13-2.271,0.175-2.35l1.178-2.445c0.388-0.819,0.392-1.438,0.435-2.152
	c0.018-1.586,0.057-3.337-0.273-4.793C41.754,24.918,41.188,24.39,40.497,24.363z M49.276,24.363
	c-1.042,0.011-1.353,0.57-1.745,1.229c-0.196,1.546,0.108,3.063,0.059,4.617c-0.032,0.529-0.178,0.995-0.079,0.788
	c-0.385,0.805-0.818,1.697-1.153,2.462c-0.77,1.388-0.691,3.173-0.492,4.56c0.387,1.312,1.049,2.502,1.646,3.751
	c0.395,0.909,1.618,1.358,2.528,0.942c0.908-0.416,1.333-1.619,0.881-2.499c-0.614-1.119-1.276-2.728-1.348-2.864
	c-0.221-1.281,0.125-2.271,0.174-2.35l1.174-2.445c0.392-0.819,0.394-1.438,0.433-2.152c0.02-1.586,0.059-3.337-0.274-4.793
	C50.534,24.918,49.969,24.39,49.276,24.363z M58.055,24.363c-1.039,0.011-1.354,0.57-1.746,1.229
	c-0.194,1.546,0.109,3.063,0.06,4.617c-0.03,0.529-0.179,0.995-0.076,0.788c-0.383,0.805-0.817,1.697-1.157,2.462
	c-0.766,1.388-0.687,3.173-0.488,4.56c0.385,1.312,1.049,2.502,1.646,3.751c0.396,0.909,1.616,1.358,2.527,0.942
	c0.914-0.416,1.334-1.619,0.881-2.499c-0.61-1.119-1.276-2.728-1.354-2.864c-0.215-1.281,0.127-2.271,0.182-2.35l1.172-2.445
	c0.391-0.819,0.391-1.438,0.435-2.152c0.02-1.586,0.058-3.337-0.276-4.793C59.311,24.918,58.748,24.39,58.055,24.363z
	 M26.402,44.076c-0.919,0.097-1.688,0.943-1.685,1.851c0,12.892,10.69,23.388,23.834,23.388c6.221,0,11.898-2.364,16.145-6.215
	c4.971-0.904,9.598-2.903,12.761-6.426c1.019-1.148,1.825-2.422,1.825-4c-0.244-4.321-2.891-6.369-6.586-6.757
	c0-1.232-1.252-1.849-2.197-1.841H26.402z M28.674,47.771h39.748c-0.963,10.008-9.416,17.844-19.871,17.844
	C38.09,65.615,29.64,57.779,28.674,47.771z M72.066,49.711c2.231,0.189,3.439,1.283,3.449,2.962c0,0.119-0.209,0.793-0.898,1.578
	c-1.723,1.748-3.637,2.95-5.747,3.865C70.449,55.592,71.561,52.749,72.066,49.711z M27.659,69.908
	c-0.985,0.05-1.837,0.978-1.787,1.943c0.052,0.967,0.995,1.801,1.984,1.748h41.39c0.99,0.017,1.904-0.869,1.904-1.847
	c0-0.976-0.914-1.854-1.904-1.846L27.659,69.908L27.659,69.908z"/>
</svg>
