<?xml version="1.0" encoding="utf-8"?>
<!-- Generator: Adobe Illustrator 16.0.0, SVG Export Plug-In . SVG Version: 6.00 Build 0)  -->
<!DOCTYPE svg PUBLIC "-//W3C//DTD SVG 1.1//EN" "http://www.w3.org/Graphics/SVG/1.1/DTD/svg11.dtd">
<svg version="1.1" id="Calque_1" xmlns="http://www.w3.org/2000/svg" xmlns:xlink="http://www.w3.org/1999/xlink" x="0px" y="0px"
	 width="100px" height="100px" viewBox="0 0 100 100" enable-background="new 0 0 100 100" xml:space="preserve">
<ellipse fill="none" stroke="#B8B8B8" stroke-width="2" stroke-miterlimit="10" cx="50" cy="50.505" rx="48.541" ry="47.201"/>
<path fill="#B8B8B8" stroke="#B8B8B8" stroke-width="0.5" stroke-miterlimit="10" d="M75.26,29.415H24.74
	c-1.448,0-2.626,1.158-2.626,2.58v36.926c0,1.422,1.178,2.58,2.626,2.58h6.981c0.774,0,1.469-0.33,1.952-0.854
	c0.479,0.524,1.176,0.854,1.95,0.854h6.981c0.773,0,1.47-0.33,1.952-0.854c0.48,0.524,1.178,0.854,1.95,0.854h6.982
	c0.771,0,1.469-0.33,1.951-0.854c0.479,0.524,1.177,0.854,1.951,0.854h6.98c0.773,0,1.469-0.33,1.949-0.854
	c0.482,0.524,1.179,0.854,1.951,0.854h6.981c1.448,0,2.625-1.158,2.625-2.58V31.995C77.885,30.573,76.706,29.415,75.26,29.415z
	 M32.558,68.921c0,0.453-0.375,0.823-0.836,0.823H24.74c-0.461,0-0.837-0.37-0.837-0.823V31.995c0-0.453,0.376-0.821,0.837-0.821
	h5.854v22.355c0,0.32,0.268,0.584,0.595,0.584h1.367L32.558,68.921L32.558,68.921z M43.442,68.921c0,0.453-0.376,0.823-0.835,0.823
	h-6.983c-0.459,0-0.836-0.37-0.836-0.823V54.115h1.367c0.328,0,0.595-0.266,0.595-0.584V31.174h4.729v22.355
	c0,0.32,0.268,0.584,0.594,0.584h1.367v14.808H43.442z M54.326,68.921c0,0.453-0.376,0.823-0.835,0.823h-6.983
	c-0.458,0-0.836-0.37-0.836-0.823V54.115h1.368c0.327,0,0.595-0.266,0.595-0.584V31.174h5.856c0.459,0,0.835,0.368,0.835,0.821
	V68.921z M65.212,68.921c0,0.453-0.377,0.823-0.836,0.823h-6.983c-0.459,0-0.836-0.37-0.836-0.823V31.995
	c0-0.453,0.377-0.821,0.836-0.821h5.857v22.355c0,0.32,0.268,0.584,0.595,0.584h1.367V68.921z M76.098,68.921
	c0,0.453-0.379,0.823-0.838,0.823h-6.982c-0.459,0-0.836-0.37-0.836-0.823V54.115h1.367c0.328,0,0.594-0.266,0.594-0.584V31.174
	h5.857c0.459,0,0.838,0.368,0.838,0.821V68.921z"/>
</svg>
