<?xml version="1.0" encoding="utf-8"?>
<!-- Generator: Adobe Illustrator 16.0.0, SVG Export Plug-In . SVG Version: 6.00 Build 0)  -->
<!DOCTYPE svg PUBLIC "-//W3C//DTD SVG 1.1//EN" "http://www.w3.org/Graphics/SVG/1.1/DTD/svg11.dtd">
<svg version="1.1" id="Calque_1" xmlns="http://www.w3.org/2000/svg" xmlns:xlink="http://www.w3.org/1999/xlink" x="0px" y="0px"
	 width="100px" height="100px" viewBox="0 0 100 100" enable-background="new 0 0 100 100" xml:space="preserve">
<ellipse fill="none" stroke="#B8B8B8" stroke-width="2" stroke-miterlimit="10" cx="50" cy="49.246" rx="48.627" ry="47.285"/>
<path fill="#B8B8B8" d="M47.624,57.619c0.833,0.34,1.111,1.268,0.74,2.038s-1.265,1.14-2.036,0.739h-0.031
	c-1.42-0.646-2.746-1.573-3.918-2.777c-5.431-5.398-5.431-14.191,0-19.622l10.892-10.891c5.43-5.429,14.222-5.429,19.62,0
	c5.434,5.398,5.434,14.191,0,19.622l-5.026,5.03L67.4,47.871l3.332-3.331c4.195-4.197,4.195-11.046,0-15.273
	c-4.227-4.196-11.075-4.196-15.271,0L44.539,40.19c-4.196,4.193-4.196,11.043,0,15.271C45.464,56.387,46.513,57.096,47.624,57.619
	L47.624,57.619 M27.106,72.893c-5.429-5.399-5.429-14.192,0-19.624l5.029-5.028l0.463,3.886l-3.332,3.334
	c-4.196,4.196-4.196,11.045,0,15.271c4.227,4.196,11.076,4.196,15.272,0l10.922-10.921c4.196-4.195,4.196-11.044,0-15.271
	c-0.926-0.926-1.975-1.636-3.084-2.16v0.03c-0.834-0.37-1.112-1.296-0.741-2.067c0.37-0.771,1.265-1.141,2.035-0.74h0.031
	c1.419,0.648,2.745,1.574,3.919,2.777c5.43,5.398,5.43,14.192,0,19.623L46.729,72.893C41.299,78.322,32.506,78.322,27.106,72.893z"
	/>
</svg>
