<?xml version="1.0" encoding="utf-8"?>
<!-- Generator: Adobe Illustrator 16.0.0, SVG Export Plug-In . SVG Version: 6.00 Build 0)  -->
<!DOCTYPE svg PUBLIC "-//W3C//DTD SVG 1.1//EN" "http://www.w3.org/Graphics/SVG/1.1/DTD/svg11.dtd">
<svg version="1.1" id="Calque_1" xmlns="http://www.w3.org/2000/svg" xmlns:xlink="http://www.w3.org/1999/xlink" x="0px" y="0px"
	 width="100px" height="100px" viewBox="0 0 100 100" enable-background="new 0 0 100 100" xml:space="preserve">
<g id="cafe">
	<g>
		<g>
			<defs>
				<path id="SVGID_1_" d="M160.201,21.753c-1.039,0.011-1.354,0.57-1.745,1.23c-0.194,1.546,0.108,3.064,0.06,4.617
					c-0.035,0.529-0.18,0.996-0.076,0.788c-0.387,0.805-0.818,1.698-1.16,2.462c-0.771,1.387-0.691,3.173-0.492,4.559
					c0.391,1.312,1.051,2.503,1.652,3.751c0.392,0.91,1.617,1.359,2.525,0.942c0.91-0.415,1.331-1.618,0.879-2.499
					c-0.609-1.119-1.273-2.728-1.353-2.865c-0.218-1.281,0.13-2.271,0.175-2.349l1.178-2.445c0.389-0.82,0.393-1.438,0.436-2.153
					c0.018-1.585,0.057-3.337-0.273-4.792C161.459,22.308,160.893,21.78,160.201,21.753z M168.98,21.753
					c-1.043,0.011-1.354,0.57-1.746,1.23c-0.195,1.546,0.108,3.064,0.06,4.617c-0.032,0.529-0.178,0.996-0.079,0.788
					c-0.385,0.805-0.818,1.698-1.152,2.462c-0.771,1.387-0.691,3.173-0.492,4.559c0.387,1.312,1.049,2.503,1.646,3.751
					c0.396,0.91,1.618,1.359,2.528,0.942c0.908-0.415,1.333-1.618,0.882-2.499c-0.614-1.119-1.276-2.728-1.349-2.865
					c-0.221-1.281,0.125-2.271,0.174-2.349l1.175-2.445c0.392-0.82,0.394-1.438,0.433-2.153c0.02-1.585,0.059-3.337-0.274-4.792
					C170.238,22.308,169.674,21.78,168.98,21.753z M177.76,21.753c-1.039,0.011-1.354,0.57-1.746,1.23
					c-0.195,1.546,0.109,3.064,0.06,4.617c-0.03,0.529-0.179,0.996-0.076,0.788c-0.384,0.805-0.817,1.698-1.157,2.462
					c-0.766,1.387-0.688,3.173-0.488,4.559c0.385,1.312,1.049,2.503,1.646,3.751c0.396,0.91,1.615,1.359,2.527,0.942
					c0.914-0.415,1.334-1.618,0.881-2.499c-0.61-1.119-1.276-2.728-1.354-2.865c-0.215-1.281,0.127-2.271,0.182-2.349l1.172-2.445
					c0.391-0.82,0.391-1.438,0.435-2.153c0.019-1.585,0.058-3.337-0.276-4.792C179.016,22.308,178.453,21.78,177.76,21.753z
					 M146.105,41.466c-0.918,0.097-1.688,0.943-1.685,1.852c0,12.895,10.69,23.39,23.834,23.39c6.222,0,11.897-2.364,16.146-6.214
					c4.971-0.905,9.598-2.904,12.761-6.426c1.019-1.148,1.825-2.42,1.825-4c-0.244-4.323-2.891-6.371-6.586-6.759
					c0-1.232-1.252-1.851-2.197-1.843L146.105,41.466L146.105,41.466z M148.379,45.164h39.748
					c-0.963,10.01-9.416,17.847-19.871,17.847C157.795,63.01,149.346,55.173,148.379,45.164z M191.771,47.105
					c2.231,0.19,3.439,1.284,3.449,2.963c0,0.119-0.209,0.792-0.898,1.579c-1.723,1.748-3.637,2.951-5.747,3.864
					C190.154,52.986,191.266,50.144,191.771,47.105z M147.363,67.303c-0.985,0.049-1.838,0.977-1.787,1.942
					c0.052,0.968,0.994,1.801,1.984,1.749h41.391c0.99,0.017,1.904-0.87,1.904-1.846c0-0.977-0.914-1.855-1.904-1.846H147.363z"/>
			</defs>
			<clipPath id="SVGID_2_">
				<use xlink:href="#SVGID_1_"  overflow="visible"/>
			</clipPath>
		</g>
	</g>
</g>
<g id="restaurant">
	<g>
		<g>
			<defs>
				<rect id="SVGID_3_" x="56.506" y="137.876" width="16.771" height="63.401"/>
			</defs>
			<clipPath id="SVGID_4_">
				<use xlink:href="#SVGID_3_"  overflow="visible"/>
			</clipPath>
		</g>
	</g>
	<g>
		<g>
			<defs>
				<rect id="SVGID_5_" x="28.685" y="137.239" width="24.168" height="64.015"/>
			</defs>
			<clipPath id="SVGID_6_">
				<use xlink:href="#SVGID_5_"  overflow="visible"/>
			</clipPath>
		</g>
	</g>
</g>
<g id="assos">
	<g>
		<g>
			<defs>
				<path id="SVGID_7_" d="M166.865,179.592c-0.92,0-1.846-0.342-2.551-1.027c-7.043-6.851-7.043-17.996,0-24.844l6.676-6.496
					c3.41-3.314,7.951-5.142,12.779-5.142c4.821,0,9.359,1.827,12.771,5.142c3.41,3.318,5.293,7.735,5.293,12.426
					c0,4.692-1.88,9.104-5.293,12.42c-1.413,1.373-3.689,1.373-5.098,0c-1.414-1.367-1.414-3.59,0-4.957
					c2.047-1.997,3.18-4.646,3.18-7.463s-1.131-5.471-3.18-7.465c-4.104-3.985-11.254-3.985-15.354,0l-6.675,6.491
					c-4.229,4.117-4.229,10.812,0,14.931c1.409,1.367,1.409,3.584,0,4.957C168.71,179.25,167.785,179.592,166.865,179.592
					 M162.201,198.184c-4.824,0-9.359-1.832-12.773-5.148c-3.412-3.314-5.293-7.729-5.293-12.418c0-4.693,1.879-9.104,5.291-12.42
					c1.409-1.37,3.689-1.37,5.098,0c1.41,1.371,1.41,3.59,0,4.96c-2.051,1.991-3.182,4.646-3.182,7.464
					c0,2.816,1.131,5.467,3.182,7.46c4.104,3.985,11.25,3.985,15.353,0l6.13-5.957c2.047-1.991,3.178-4.644,3.178-7.46
					c0-2.818-1.129-5.471-3.178-7.466c-1.412-1.369-1.412-3.589,0-4.96c1.41-1.37,3.688-1.37,5.1,0
					c3.41,3.318,5.293,7.73,5.293,12.426c0,4.693-1.877,9.104-5.293,12.416l-6.127,5.958
					C171.562,196.354,167.027,198.184,162.201,198.184"/>
			</defs>
			<clipPath id="SVGID_8_">
				<use xlink:href="#SVGID_7_"  overflow="visible"/>
			</clipPath>
		</g>
	</g>
</g>
<g id="culture">
</g>
<g id="detente">
</g>
<g id="bilbio">
	<g>
		<g>
			<defs>
				<path id="SVGID_9_" d="M38.915,386.229c-5.008,0-10.056,1.773-15.064,5.094c-0.608,0.404-0.947,1.068-0.947,1.732v36.896
					c0,0.771,0.493,1.546,1.249,1.88c0.725,0.332,1.634,0.222,2.279-0.293c6.412-5.241,14.074-5.759,24.321,0.183
					c0.685,0.404,1.556,0.369,2.2,0c5.199-3.062,8.954-4.427,12.443-4.427c3.53-0.036,7.099,1.291,12.025,4.388
					c1.292,0.813,3.303-0.257,3.303-1.729v-36.896c0-0.664-0.342-1.291-0.871-1.693c-4.744-3.357-9.639-5.131-14.647-5.131
					c-4.55,0-9.065,1.549-13.431,4.354C47.602,388.225,43.505,386.229,38.915,386.229 M38.915,390.398
					c3.643,0,7.208,1.181,10.775,3.727v32.355c-8.385-3.907-16.126-3.907-22.499-0.442v-31.728
					C31.327,391.727,35.233,390.398,38.915,390.398 M65.206,390.398c3.646,0,7.364,1.328,11.231,3.873
					c0,14.02,0.037,19.481,0.037,32.248c-3.867-2.031-7.474-3.435-11.078-3.396c-3.683,0-7.36,1.293-11.422,3.356v-32.355
					C57.582,392.13,61.641,390.436,65.206,390.398 M38.421,395.49c-2.886,0-5.768,0.812-8.576,2.435
					c-0.492,0.296-0.682,0.959-0.378,1.438c0.267,0.48,0.987,0.628,1.48,0.367c2.543-1.475,5.006-2.211,7.475-2.211
					c2.466,0,4.929,0.736,7.475,2.211c0.492,0.261,1.174,0.113,1.479-0.367c0.303-0.479,0.115-1.144-0.381-1.438
					C44.188,396.303,41.305,395.49,38.421,395.49 M65.206,395.49c-2.882,0-5.767,0.812-8.61,2.435
					c-0.455,0.296-0.645,0.959-0.342,1.438c0.268,0.48,0.982,0.628,1.441,0.367c2.543-1.475,5.009-2.211,7.472-2.211
					c2.472,0,4.974,0.736,7.513,2.211c0.496,0.261,1.178,0.113,1.481-0.367c0.264-0.479,0.114-1.144-0.378-1.438
					C70.975,396.303,68.09,395.49,65.206,395.49 M38.421,401.762c-2.886,0-5.768,0.775-8.576,2.438
					c-0.492,0.259-0.682,0.957-0.378,1.402c0.267,0.479,0.987,0.66,1.48,0.366c2.502-1.475,4.972-2.214,7.398-2.214
					c2.504,0,5.005,0.739,7.551,2.214c0.492,0.294,1.174,0.112,1.479-0.366c0.303-0.445,0.115-1.145-0.381-1.402
					C44.188,402.537,41.305,401.762,38.421,401.762 M65.206,401.762c-2.882,0-5.767,0.775-8.61,2.438
					c-0.455,0.259-0.645,0.957-0.342,1.402c0.268,0.479,0.982,0.66,1.441,0.366c2.543-1.475,5.009-2.214,7.472-2.214
					c2.472,0,4.974,0.739,7.513,2.214c0.496,0.294,1.178,0.112,1.481-0.366c0.264-0.445,0.114-1.145-0.378-1.402
					C70.975,402.537,68.09,401.762,65.206,401.762 M38.421,407.995c-2.886,0-5.768,0.776-8.576,2.437
					c-0.492,0.297-0.682,0.961-0.378,1.439c0.267,0.441,0.987,0.629,1.48,0.332c2.466-1.438,4.896-2.176,7.321-2.213
					c2.503-0.037,5.047,0.701,7.628,2.213c0.492,0.297,1.174,0.109,1.479-0.332c0.303-0.479,0.115-1.145-0.381-1.439
					C44.188,408.771,41.305,407.995,38.421,407.995 M65.206,407.995c-2.882,0-5.767,0.776-8.61,2.437
					c-0.455,0.297-0.645,0.961-0.342,1.439c0.268,0.441,0.982,0.629,1.441,0.332c2.503-1.438,4.932-2.176,7.359-2.213
					c2.508-0.037,5.01,0.701,7.625,2.213c0.496,0.297,1.178,0.109,1.481-0.332c0.264-0.479,0.114-1.145-0.378-1.439
					C70.975,408.771,68.09,407.995,65.206,407.995 M38.421,414.232c-2.886,0-5.768,0.811-8.576,2.437
					c-0.492,0.291-0.682,0.96-0.378,1.438c0.267,0.478,0.987,0.625,1.48,0.367c2.543-1.516,5.006-2.252,7.512-2.252
					c2.465,0.037,4.892,0.777,7.438,2.252c0.492,0.258,1.174,0.109,1.479-0.367c0.303-0.479,0.115-1.147-0.381-1.438
					C44.188,415.043,41.305,414.232,38.421,414.232 M65.206,414.232c-2.882,0-5.767,0.811-8.61,2.437
					c-0.455,0.291-0.645,0.96-0.342,1.438c0.268,0.478,0.982,0.625,1.441,0.367c2.503-1.438,4.896-2.18,7.287-2.252
					c2.541-0.035,5.082,0.703,7.697,2.252c0.497,0.258,1.18,0.109,1.482-0.367c0.264-0.479,0.115-1.147-0.378-1.438
					C70.975,415.043,68.09,414.232,65.206,414.232"/>
			</defs>
			<clipPath id="SVGID_10_">
				<use xlink:href="#SVGID_9_"  overflow="visible"/>
			</clipPath>
		</g>
	</g>
</g>
<g id="dab">
</g>
<g id="laverie">
</g>
<g id="impression">
</g>
<g id="restau-u">
</g>
<g id="soins">
</g>
<g id="bar">
	<g>
		
			<ellipse fill="none" stroke="#B8B8B8" stroke-width="2" stroke-miterlimit="10" cx="50.042" cy="50.012" rx="46.776" ry="45.485"/>
	</g>
</g>
<path fill="#B8B8B8" d="M73.781,44.928h-7.688v-2.854c1.153-1.479,1.844-3.314,1.844-5.315c0-4.866-4.061-8.818-9.059-8.818
	c-0.979,0-1.947,0.155-2.875,0.46c-1.133-4.078-4.934-7.034-9.455-7.034c-4.438,0-8.197,2.83-9.402,6.826
	c-1.627-0.326-3.359-0.074-4.814,0.715c-1.637,0.878-2.832,2.334-3.35,4.087c-0.518,1.751-0.549,4.585,1.574,6.479v30.7
	c0,2.453,2.043,4.457,4.572,4.457h26.398c2.521,0,4.576-1.992,4.576-4.457v-3.053c0,0,9.21-7.075,9.21-20.728
	C75.302,45.587,74.625,44.928,73.781,44.928z M63.057,70.174c0,0.818-0.689,1.488-1.529,1.488H35.122
	c-0.84,0-1.529-0.67-1.529-1.488V41.395c1.174,0.364,2.475,0.428,3.694,0.155c1.247,3.281,4.499,5.579,8.204,5.579
	c2.982,0,5.708-1.499,7.304-3.837c1.635,1.457,3.779,2.285,6.072,2.285c1.467,0,2.896-0.348,4.168-0.996v25.593H63.057z
	 M58.879,42.608c-2.109,0-4.027-1.059-5.136-2.818c-0.313-0.505-0.897-0.777-1.499-0.705c-0.593,0.073-1.088,0.493-1.261,1.061
	c-0.7,2.369-2.961,4.015-5.493,4.015c-2.818,0-5.254-2.057-5.654-4.78c-0.074-0.483-0.375-0.893-0.817-1.113
	c-0.441-0.217-0.968-0.207-1.409,0.021c-1.272,0.672-2.844,0.588-4.039-0.158c-0.033-0.018-2.725-1.496-1.68-4.329
	c0.355-0.976,0.969-1.812,1.896-2.315c1.163-0.62,2.615-0.629,3.789-0.035c0.45,0.232,0.989,0.232,1.432-0.01
	c0.441-0.227,0.745-0.671,0.789-1.164c0.331-3.396,3.217-5.964,6.727-5.964c3.641,0,6.605,2.778,6.755,6.321
	c0.02,0.535,0.334,1.008,0.817,1.249c0.487,0.239,1.067,0.222,1.519-0.063c0.971-0.605,2.091-0.931,3.24-0.931
	c3.319,0,6.012,2.629,6.012,5.849C64.898,41.528,60.302,42.608,58.879,42.608z M66.094,62.812V47.884h6.129
	C71.9,53.406,69.756,58.609,66.094,62.812z"/>
</svg>
