<?xml version="1.0" encoding="utf-8"?>
<!-- Generator: Adobe Illustrator 16.0.0, SVG Export Plug-In . SVG Version: 6.00 Build 0)  -->
<!DOCTYPE svg PUBLIC "-//W3C//DTD SVG 1.1//EN" "http://www.w3.org/Graphics/SVG/1.1/DTD/svg11.dtd">
<svg version="1.1" id="Calque_1" xmlns="http://www.w3.org/2000/svg" xmlns:xlink="http://www.w3.org/1999/xlink" x="0px" y="0px"
	 width="100px" height="100px" viewBox="0 0 100 100" enable-background="new 0 0 100 100" xml:space="preserve">
<g id="impression">
	<g>
		<ellipse fill="none" stroke="#B8B8B8" stroke-width="2" stroke-miterlimit="10" cx="50.001" cy="50" rx="48.649" ry="47.309"/>
	</g>
	<path fill="#B8B8B8" stroke="#B8B8B8" stroke-miterlimit="10" d="M71.975,33.525h-7.486v-8.232H35.513v8.233h-7.487
		c-3.549,0-6.437,3.417-6.437,7.613v19.042c0,4.196,2.888,7.611,6.437,7.611h4.295c0.311,0,0.563-0.297,0.563-0.666
		c0-0.367-0.253-0.666-0.563-0.666h-4.295c-2.928,0-5.31-2.816-5.31-6.279V41.14c0-3.463,2.382-6.281,5.31-6.281h7.487h28.975h7.486
		c2.928,0,5.311,2.818,5.311,6.281v19.042c0,3.463-2.383,6.279-5.311,6.279H67.68c-0.311,0-0.562,0.299-0.562,0.666
		c0,0.369,0.252,0.667,0.562,0.667h4.295c3.549,0,6.438-3.416,6.438-7.612V41.14C78.411,36.943,75.523,33.525,71.975,33.525z
		 M36.641,33.525v-6.9h26.72v6.9H36.641z"/>
	<path fill="#B8B8B8" stroke="#B8B8B8" stroke-miterlimit="10" d="M60.473,49.994H39.527c-2.213,0-4.015,2.132-4.015,4.748v21.285
		h28.974V54.742C64.486,52.126,62.686,49.994,60.473,49.994z M63.359,74.696h-26.72V54.742c0-1.885,1.297-3.415,2.889-3.415h20.945
		c1.592,0,2.889,1.53,2.889,3.415L63.359,74.696L63.359,74.696z"/>
	<rect x="39.832" y="66.462" fill="#B8B8B8" stroke="#B8B8B8" stroke-miterlimit="10" width="20.336" height="1.332"/>
	<rect x="39.832" y="58.229" fill="#B8B8B8" stroke="#B8B8B8" stroke-miterlimit="10" width="20.336" height="1.332"/>
</g>
</svg>
