<?xml version="1.0" encoding="utf-8"?>
<!-- Generator: Adobe Illustrator 16.0.0, SVG Export Plug-In . SVG Version: 6.00 Build 0)  -->
<!DOCTYPE svg PUBLIC "-//W3C//DTD SVG 1.1//EN" "http://www.w3.org/Graphics/SVG/1.1/DTD/svg11.dtd">
<svg version="1.1" id="Calque_1" xmlns="http://www.w3.org/2000/svg" xmlns:xlink="http://www.w3.org/1999/xlink" x="0px" y="0px"
	 width="100px" height="100px" viewBox="0 0 100 100" enable-background="new 0 0 100 100" xml:space="preserve">
<g id="cafe">
</g>
<g id="restaurant">
	<g>
		<g>
			<defs>
				<rect id="SVGID_1_" x="-63.494" y="-453.29" width="16.771" height="63.401"/>
			</defs>
			<clipPath id="SVGID_2_">
				<use xlink:href="#SVGID_1_"  overflow="visible"/>
			</clipPath>
		</g>
	</g>
	<g>
		<g>
			<defs>
				<rect id="SVGID_3_" x="-91.315" y="-453.927" width="24.168" height="64.015"/>
			</defs>
			<clipPath id="SVGID_4_">
				<use xlink:href="#SVGID_3_"  overflow="visible"/>
			</clipPath>
		</g>
	</g>
</g>
<g id="assos">
	<g>
		<g>
			<defs>
				<path id="SVGID_5_" d="M46.865-411.574c-0.92,0-1.845-0.342-2.55-1.027c-7.044-6.851-7.044-17.996,0-24.845l6.675-6.495
					c3.41-3.315,7.951-5.142,12.779-5.142c4.821,0,9.359,1.827,12.771,5.142c3.41,3.318,5.293,7.735,5.293,12.425
					c0,4.693-1.88,9.105-5.293,12.42c-1.413,1.373-3.689,1.373-5.098,0c-1.414-1.367-1.414-3.589,0-4.957
					c2.047-1.997,3.18-4.646,3.18-7.463c0-2.816-1.131-5.471-3.18-7.464c-4.104-3.986-11.254-3.986-15.354,0l-6.675,6.491
					c-4.229,4.117-4.229,10.812,0,14.931c1.409,1.367,1.409,3.583,0,4.956C48.71-411.916,47.785-411.574,46.865-411.574
					 M42.201-392.982c-4.824,0-9.359-1.832-12.773-5.149c-3.412-3.315-5.293-7.728-5.293-12.418c0-4.693,1.879-9.103,5.291-12.42
					c1.409-1.37,3.689-1.37,5.097,0c1.41,1.372,1.41,3.59,0,4.96c-2.051,1.992-3.181,4.646-3.181,7.464
					c0,2.817,1.13,5.467,3.181,7.46c4.104,3.985,11.251,3.985,15.353,0l6.13-5.957c2.047-1.991,3.178-4.643,3.178-7.46
					c0-2.819-1.129-5.47-3.178-7.466c-1.412-1.369-1.412-3.588,0-4.96c1.41-1.37,3.688-1.37,5.1,0
					c3.41,3.318,5.293,7.73,5.293,12.426c0,4.693-1.877,9.104-5.293,12.416l-6.127,5.958
					C51.562-394.813,47.028-392.982,42.201-392.982"/>
			</defs>
			<clipPath id="SVGID_6_">
				<use xlink:href="#SVGID_5_"  overflow="visible"/>
			</clipPath>
		</g>
	</g>
</g>
<g id="culture">
</g>
<g id="detente">
	<g>
		<g>
			<defs>
				<path id="SVGID_7_" d="M75.26-321.751H24.74c-1.448,0-2.626,1.158-2.626,2.58v36.926c0,1.422,1.178,2.58,2.626,2.58h6.981
					c0.774,0,1.469-0.33,1.952-0.855c0.479,0.525,1.176,0.855,1.95,0.855h6.981c0.773,0,1.47-0.33,1.952-0.855
					c0.48,0.525,1.178,0.855,1.95,0.855h6.982c0.771,0,1.469-0.33,1.951-0.855c0.479,0.525,1.177,0.855,1.951,0.855h6.98
					c0.773,0,1.469-0.33,1.949-0.855c0.482,0.525,1.179,0.855,1.953,0.855h6.979c1.448,0,2.625-1.158,2.625-2.58v-36.926
					C77.885-320.593,76.706-321.751,75.26-321.751z M32.558-282.245c0,0.453-0.375,0.823-0.836,0.823H24.74
					c-0.461,0-0.837-0.37-0.837-0.823v-36.926c0-0.453,0.376-0.821,0.837-0.821h5.855v22.355c0,0.321,0.268,0.584,0.595,0.584h1.367
					L32.558-282.245L32.558-282.245z M43.442-282.245c0,0.453-0.376,0.823-0.835,0.823h-6.983c-0.459,0-0.836-0.37-0.836-0.823
					v-14.806h1.367c0.328,0,0.595-0.265,0.595-0.584v-22.357h4.729v22.355c0,0.321,0.268,0.584,0.594,0.584h1.367v14.808H43.442z
					 M54.326-282.245c0,0.453-0.376,0.823-0.835,0.823h-6.983c-0.458,0-0.836-0.37-0.836-0.823v-14.806h1.368
					c0.327,0,0.595-0.265,0.595-0.584v-22.357h5.856c0.459,0,0.835,0.368,0.835,0.821V-282.245z M65.212-282.245
					c0,0.453-0.377,0.823-0.836,0.823h-6.983c-0.459,0-0.836-0.37-0.836-0.823v-36.926c0-0.453,0.377-0.821,0.836-0.821h5.857
					v22.355c0,0.321,0.268,0.584,0.596,0.584h1.366V-282.245z M76.098-282.245c0,0.453-0.379,0.823-0.838,0.823h-6.982
					c-0.459,0-0.836-0.37-0.836-0.823v-14.806h1.367c0.328,0,0.594-0.265,0.594-0.584v-22.357h5.857
					c0.459,0,0.838,0.368,0.838,0.821V-282.245z"/>
			</defs>
			<clipPath id="SVGID_8_">
				<use xlink:href="#SVGID_7_"  overflow="visible"/>
			</clipPath>
		</g>
	</g>
</g>
<g id="bilbio">
	<g>
		<g>
			<defs>
				<path id="SVGID_9_" d="M-81.085-204.937c-5.008,0-10.056,1.773-15.064,5.093c-0.608,0.404-0.947,1.068-0.947,1.732v36.896
					c0,0.771,0.493,1.546,1.249,1.88c0.725,0.332,1.634,0.222,2.279-0.293c6.412-5.241,14.074-5.759,24.321,0.183
					c0.684,0.404,1.555,0.369,2.2,0c5.199-3.062,8.954-4.427,12.444-4.427c3.53-0.036,7.098,1.291,12.025,4.388
					c1.292,0.813,3.303-0.257,3.303-1.73v-36.896c0-0.664-0.342-1.291-0.872-1.694c-4.743-3.357-9.638-5.131-14.647-5.131
					c-4.55,0-9.065,1.549-13.43,4.354C-72.398-202.942-76.495-204.937-81.085-204.937 M-81.085-200.768
					c3.643,0,7.208,1.181,10.775,3.727v32.355c-8.385-3.907-16.126-3.907-22.499-0.442v-31.727
					C-88.673-199.439-84.767-200.768-81.085-200.768 M-54.794-200.768c3.645,0,7.364,1.328,11.231,3.874
					c0,14.019,0.037,19.481,0.037,32.248c-3.867-2.032-7.473-3.435-11.077-3.396c-3.683,0-7.361,1.293-11.422,3.356v-32.355
					C-62.418-199.036-58.36-200.73-54.794-200.768 M-81.579-195.676c-2.886,0-5.768,0.812-8.576,2.435
					c-0.492,0.296-0.682,0.959-0.378,1.438c0.267,0.48,0.987,0.628,1.48,0.368c2.543-1.475,5.006-2.212,7.475-2.212
					c2.466,0,4.929,0.737,7.475,2.212c0.492,0.26,1.174,0.113,1.479-0.368c0.303-0.479,0.115-1.143-0.381-1.438
					C-75.812-194.863-78.695-195.676-81.579-195.676 M-54.794-195.676c-2.882,0-5.766,0.812-8.61,2.435
					c-0.455,0.296-0.645,0.959-0.342,1.438c0.267,0.48,0.983,0.628,1.442,0.368c2.542-1.475,5.008-2.212,7.471-2.212
					c2.471,0,4.974,0.737,7.512,2.212c0.497,0.26,1.179,0.113,1.482-0.368c0.264-0.479,0.115-1.143-0.378-1.438
					C-49.025-194.863-51.91-195.676-54.794-195.676 M-81.579-189.404c-2.886,0-5.768,0.775-8.576,2.437
					c-0.492,0.259-0.682,0.957-0.378,1.402c0.267,0.479,0.987,0.661,1.48,0.367c2.502-1.475,4.972-2.214,7.398-2.214
					c2.504,0,5.005,0.739,7.551,2.214c0.492,0.294,1.174,0.112,1.479-0.367c0.303-0.445,0.115-1.144-0.381-1.402
					C-75.812-188.629-78.695-189.404-81.579-189.404 M-54.794-189.404c-2.882,0-5.766,0.775-8.61,2.437
					c-0.455,0.259-0.645,0.957-0.342,1.402c0.267,0.479,0.983,0.661,1.442,0.367c2.542-1.475,5.008-2.214,7.471-2.214
					c2.471,0,4.974,0.739,7.512,2.214c0.497,0.294,1.179,0.112,1.482-0.367c0.264-0.445,0.115-1.144-0.378-1.402
					C-49.025-188.629-51.91-189.404-54.794-189.404 M-81.579-183.171c-2.886,0-5.768,0.776-8.576,2.437
					c-0.492,0.296-0.682,0.961-0.378,1.439c0.267,0.442,0.987,0.629,1.48,0.332c2.466-1.438,4.896-2.176,7.321-2.213
					c2.503-0.037,5.047,0.701,7.628,2.213c0.492,0.297,1.174,0.11,1.479-0.332c0.303-0.479,0.115-1.144-0.381-1.439
					C-75.812-182.395-78.695-183.171-81.579-183.171 M-54.794-183.171c-2.882,0-5.766,0.776-8.61,2.437
					c-0.455,0.296-0.645,0.961-0.342,1.439c0.267,0.442,0.983,0.629,1.442,0.332c2.502-1.438,4.931-2.176,7.359-2.213
					c2.507-0.037,5.01,0.701,7.624,2.213c0.497,0.297,1.179,0.11,1.482-0.332c0.264-0.479,0.115-1.144-0.378-1.439
					C-49.025-182.395-51.91-183.171-54.794-183.171 M-81.579-176.934c-2.886,0-5.768,0.811-8.576,2.437
					c-0.492,0.291-0.682,0.96-0.378,1.439c0.267,0.477,0.987,0.624,1.48,0.366c2.543-1.515,5.006-2.251,7.512-2.251
					c2.465,0.037,4.892,0.777,7.438,2.251c0.492,0.258,1.174,0.11,1.479-0.366c0.303-0.479,0.115-1.148-0.381-1.439
					C-75.812-176.123-78.695-176.934-81.579-176.934 M-54.794-176.934c-2.882,0-5.766,0.811-8.61,2.437
					c-0.455,0.291-0.645,0.96-0.342,1.439c0.267,0.477,0.983,0.624,1.442,0.366c2.502-1.438,4.895-2.179,7.286-2.251
					c2.542-0.036,5.083,0.703,7.698,2.251c0.497,0.258,1.179,0.11,1.482-0.366c0.264-0.479,0.115-1.148-0.378-1.439
					C-49.025-176.123-51.91-176.934-54.794-176.934"/>
			</defs>
			<clipPath id="SVGID_10_">
				<use xlink:href="#SVGID_9_"  overflow="visible"/>
			</clipPath>
		</g>
	</g>
</g>
<g id="dab">
</g>
<g id="laverie">
	<g>
		<ellipse fill="none" stroke="#B8B8B8" stroke-width="2" stroke-miterlimit="10" cx="49.989" cy="49.671" rx="48.65" ry="47.309"/>
	</g>
	<path fill="#B8B8B8" d="M66.014,19.644h-31.5c-3.802,0-6.896,3.095-6.896,6.896v45.929c0,3.803,3.095,6.896,6.896,6.896h31.499
		c3.803,0,6.896-3.096,6.896-6.896V26.54C72.908,22.737,69.814,19.644,66.014,19.644z M34.513,21.68h31.499
		c2.68,0,4.859,2.18,4.859,4.86v6.447h-41.22V26.54C29.651,23.859,31.833,21.68,34.513,21.68z M66.014,77.33h-31.5
		c-2.68,0-4.861-2.182-4.861-4.861V35.022h41.22v37.449C70.871,75.148,68.691,77.33,66.014,77.33z"/>
	<path fill="#B8B8B8" d="M33.976,31.096h8.714c1.271,0,2.305-1.032,2.305-2.304v-1.476c0-1.271-1.033-2.306-2.305-2.306h-8.714
		c-1.272,0-2.305,1.033-2.305,2.306v1.476C31.671,30.063,32.703,31.096,33.976,31.096z M33.707,27.316
		c0-0.148,0.119-0.271,0.269-0.271h8.714c0.149,0,0.27,0.12,0.27,0.271v1.476c0,0.146-0.12,0.27-0.27,0.27h-8.714
		c-0.15,0-0.27-0.124-0.27-0.27L33.707,27.316L33.707,27.316z"/>
	<path fill="#B8B8B8" d="M57.488,31.096c1.679,0,3.041-1.365,3.041-3.042c0-1.676-1.363-3.042-3.041-3.042s-3.043,1.366-3.043,3.042
		C54.445,29.73,55.812,31.096,57.488,31.096z M57.488,27.046c0.555,0,1.007,0.453,1.007,1.008c0,0.554-0.452,1.005-1.007,1.005
		s-1.006-0.451-1.006-1.005C56.482,27.499,56.936,27.046,57.488,27.046z"/>
	<path fill="#B8B8B8" d="M50.23,39.665c-8.936,0-16.203,7.27-16.203,16.205c0,8.935,7.268,16.204,16.203,16.204
		s16.206-7.27,16.206-16.204C66.438,46.935,59.166,39.665,50.23,39.665z M50.23,70.038c-7.812,0-14.168-6.354-14.168-14.168
		c0-7.813,6.355-14.168,14.168-14.168s14.168,6.354,14.168,14.168C64.398,63.684,58.043,70.038,50.23,70.038z"/>
	<path fill="#B8B8B8" d="M50.262,43.528c-6.804,0-12.341,5.537-12.341,12.342c0,0.065,0.009,0.13,0.01,0.198
		c-0.003,0.033-0.01,0.066-0.01,0.1c0,0.078,0.01,0.152,0.026,0.225c0.277,6.562,5.688,11.818,12.314,11.818
		c6.805,0,12.342-5.536,12.342-12.341C62.604,49.065,57.066,43.528,50.262,43.528z M50.262,45.565c5.466,0,9.938,4.28,10.271,9.664
		c-1.1,0.172-1.803,0.612-2.385,0.985c-0.648,0.412-1.16,0.741-2.276,0.741c-1.112,0-1.623-0.329-2.274-0.741
		c-0.738-0.476-1.662-1.065-3.371-1.065c-1.709,0-2.631,0.591-3.371,1.065c-0.646,0.412-1.159,0.741-2.273,0.741
		c-1.111,0-1.624-0.329-2.273-0.741c-0.572-0.366-1.255-0.8-2.321-0.979C40.321,49.851,44.794,45.565,50.262,45.565z M50.262,66.175
		c-5.181,0-9.468-3.846-10.186-8.83c0.427,0.136,0.761,0.345,1.137,0.583c0.741,0.478,1.662,1.065,3.371,1.065
		c1.71,0,2.631-0.589,3.371-1.065c0.647-0.414,1.16-0.74,2.271-0.74c1.114,0,1.627,0.326,2.276,0.74
		c0.74,0.475,1.662,1.065,3.37,1.065c1.713,0,2.635-0.591,3.374-1.065c0.396-0.253,0.742-0.473,1.207-0.607
		C59.743,62.316,55.449,66.175,50.262,66.175z"/>
</g>
<g id="impression">
</g>
<g id="restau-u">
</g>
<g id="soins">
</g>
<g id="bar">
</g>
</svg>
