<?xml version="1.0" encoding="utf-8"?>
<!-- Generator: Adobe Illustrator 16.0.0, SVG Export Plug-In . SVG Version: 6.00 Build 0)  -->
<!DOCTYPE svg PUBLIC "-//W3C//DTD SVG 1.1//EN" "http://www.w3.org/Graphics/SVG/1.1/DTD/svg11.dtd">
<svg version="1.1" id="Calque_1" xmlns="http://www.w3.org/2000/svg" xmlns:xlink="http://www.w3.org/1999/xlink" x="0px" y="0px"
	 width="100px" height="100px" viewBox="0 0 100 100" enable-background="new 0 0 100 100" xml:space="preserve">
<g>
	<g>
		<ellipse fill="none" stroke="#B8B8B8" stroke-width="2" stroke-miterlimit="10" cx="50" cy="50" rx="48.65" ry="47.309"/>
	</g>
	<g>
		<g id="restau-u">
			<g>
				<g enable-background="new    ">
					<g>
						<path id="SVGID_37_" fill="#B8B8B8" d="M36.455,60.479l-0.826,19.838v0.045v0.052c0,2.875,2.648,5.215,5.904,5.215
							c3.259,0,5.908-2.34,5.908-5.215v-0.052v-0.045l-0.829-19.838c2.318-1.168,3.81-3.361,3.81-5.797V41.328
							c0-1.607-1.491-2.923-3.312-2.923c-1.158,0-2.207,0.538-2.815,1.363c-0.552-0.825-1.546-1.363-2.761-1.363
							c-1.158,0-2.206,0.538-2.813,1.363c-0.607-0.825-1.602-1.363-2.814-1.363c-1.822,0-3.313,1.314-3.313,2.923v13.304
							C32.648,57.068,34.139,59.311,36.455,60.479z M35.536,41.934c0-0.528,0.441-0.961,0.985-0.961s0.988,0.433,0.988,0.961v8.399
							c0,0.526,0.442,0.959,0.986,0.959h1.036c0.542,0,0.988-0.433,0.988-0.959v-8.399c0-0.528,0.442-0.961,0.987-0.961
							c0.543,0,0.987,0.433,0.987,0.961v8.399c0,0.526,0.445,0.959,0.986,0.959h1.037c0.542,0,0.988-0.433,0.988-0.959v-8.399
							c0-0.528,0.442-0.961,0.984-0.961c0.544,0,0.988,0.433,0.988,0.961v13.102c0,2.112-1.48,3.937-3.456,4.465l0.792,20.83
							c0,1.776-1.483,3.216-3.308,3.216c-1.827,0-3.308-1.439-3.308-3.216l0.788-20.83c-2.023-0.575-3.452-2.353-3.452-4.465V41.934
							H35.536z"/>
					</g>
					<g>
						<defs>
							<path id="SVGID_1_" d="M36.455,60.479l-0.826,19.838v0.045v0.052c0,2.875,2.648,5.215,5.904,5.215
								c3.259,0,5.908-2.34,5.908-5.215v-0.052v-0.045l-0.829-19.838c2.318-1.168,3.81-3.361,3.81-5.797V41.328
								c0-1.607-1.491-2.923-3.312-2.923c-1.158,0-2.207,0.538-2.815,1.363c-0.552-0.825-1.546-1.363-2.761-1.363
								c-1.158,0-2.206,0.538-2.813,1.363c-0.607-0.825-1.602-1.363-2.814-1.363c-1.822,0-3.313,1.314-3.313,2.923v13.304
								C32.648,57.068,34.139,59.311,36.455,60.479z M35.536,41.934c0-0.528,0.441-0.961,0.985-0.961s0.988,0.433,0.988,0.961v8.399
								c0,0.526,0.442,0.959,0.986,0.959h1.036c0.542,0,0.988-0.433,0.988-0.959v-8.399c0-0.528,0.442-0.961,0.987-0.961
								c0.543,0,0.987,0.433,0.987,0.961v8.399c0,0.526,0.445,0.959,0.986,0.959h1.037c0.542,0,0.988-0.433,0.988-0.959v-8.399
								c0-0.528,0.442-0.961,0.984-0.961c0.544,0,0.988,0.433,0.988,0.961v13.102c0,2.112-1.48,3.937-3.456,4.465l0.792,20.83
								c0,1.776-1.483,3.216-3.308,3.216c-1.827,0-3.308-1.439-3.308-3.216l0.788-20.83c-2.023-0.575-3.452-2.353-3.452-4.465
								V41.934H35.536z"/>
						</defs>
						<clipPath id="SVGID_2_">
							<use xlink:href="#SVGID_1_"  overflow="visible"/>
						</clipPath>
						<g clip-path="url(#SVGID_2_)">
							<g>
								<rect id="SVGID_39_" x="32.175" y="38.298" fill="#B8B8B8" width="19.161" height="47.343"/>
							</g>
							<g>
								<defs>
									<rect id="SVGID_3_" x="32.175" y="38.298" width="19.161" height="47.343"/>
								</defs>
								<clipPath id="SVGID_4_">
									<use xlink:href="#SVGID_3_"  overflow="visible"/>
								</clipPath>
								<rect x="26.955" y="32.77" clip-path="url(#SVGID_4_)" fill="#B8B8B8" width="29.104" height="58.496"/>
							</g>
						</g>
					</g>
				</g>
				<g>
					<g>
						<path id="SVGID_41_" fill="#B8B8B8" d="M55.005,67.962V80.43c0,2.799,2.284,5.172,5.068,5.217h0.147
							c2.881,0,5.268-2.271,5.268-5.123v-8.842V57.523V42.5c0-1.983-1.69-3.624-3.727-3.624c-4.771,0-8.646,3.767-8.646,8.406
							v18.022C53.165,66.512,53.907,67.525,55.005,67.962 M61.745,41.727c0.907,0,1.675,0.743,1.675,1.628v14.478v13.64v8.52
							c0,1.675-1.391,3.07-3.16,3.07h-0.095c-1.724-0.045-3.063-1.487-3.063-3.164V67.096c0-0.467-0.384-0.886-0.91-0.886
							c-0.479,0-0.908-0.372-0.908-0.883V47.963C55.329,44.519,58.202,41.727,61.745,41.727"/>
					</g>
					<g>
						<defs>
							<path id="SVGID_5_" d="M55.005,67.962V80.43c0,2.799,2.284,5.172,5.068,5.217h0.147c2.881,0,5.268-2.271,5.268-5.123v-8.842
								V57.523V42.5c0-1.983-1.69-3.624-3.727-3.624c-4.771,0-8.646,3.767-8.646,8.406v18.022
								C53.165,66.512,53.907,67.525,55.005,67.962 M61.745,41.727c0.907,0,1.675,0.743,1.675,1.628v14.478v13.64v8.52
								c0,1.675-1.391,3.07-3.16,3.07h-0.095c-1.724-0.045-3.063-1.487-3.063-3.164V67.096c0-0.467-0.384-0.886-0.91-0.886
								c-0.479,0-0.908-0.372-0.908-0.883V47.963C55.329,44.519,58.202,41.727,61.745,41.727"/>
						</defs>
						<clipPath id="SVGID_6_">
							<use xlink:href="#SVGID_5_"  overflow="visible"/>
						</clipPath>
						<g clip-path="url(#SVGID_6_)">
							<rect x="47.479" y="33.239" fill="#B8B8B8" width="23.646" height="58.042"/>
						</g>
					</g>
				</g>
			</g>
			<g>
				<path fill="#B8B8B8" stroke="#B8B8B8" stroke-width="0.7" stroke-miterlimit="10" d="M64.641,19.32
					c-0.346-0.287-0.758-0.495-1.268-0.671l-11.109-3.783c-1.008-0.346-2.219-0.513-3.434-0.513c-1.213,0-2.424,0.168-3.434,0.513
					l-11.109,3.783c-0.508,0.176-0.922,0.381-1.268,0.671c-0.344,0.288-0.646,0.721-0.646,1.243c0,0.526,0.303,0.97,0.646,1.256
					c0.346,0.286,0.76,0.488,1.268,0.659L45.4,26.265c2.018,0.689,4.844,0.689,6.87,0l11.106-3.786
					c0.508-0.171,0.922-0.37,1.267-0.659c0.346-0.286,0.647-0.729,0.647-1.256C65.289,20.041,64.984,19.608,64.641,19.32z
					 M62.801,20.803l-11.096,3.785c-1.473,0.504-4.268,0.504-5.742,0l-11.1-3.785c-0.236-0.082-0.41-0.164-0.533-0.239
					c0.123-0.072,0.297-0.154,0.533-0.235l11.1-3.784c0.736-0.253,1.803-0.38,2.871-0.38c1.064,0,2.131,0.127,2.871,0.38l11.1,3.784
					c0.236,0.081,0.41,0.163,0.531,0.235C63.211,20.639,63.041,20.721,62.801,20.803z"/>
				<path fill="#B8B8B8" stroke="#B8B8B8" stroke-width="0.7" stroke-miterlimit="10" d="M57.471,28.526v0.689
					c0,0.128-0.07,0.331-0.422,0.627c-0.352,0.299-0.949,0.627-1.727,0.904c-1.559,0.562-3.812,0.927-6.32,0.927h-0.346
					c-2.506,0-4.76-0.365-6.314-0.927c-0.781-0.277-1.381-0.605-1.73-0.904c-0.352-0.296-0.422-0.499-0.422-0.627v-0.689v-2.222
					l-1.77-0.606v2.828v0.689c0,0.798,0.445,1.469,1.039,1.975c0.592,0.506,1.373,0.896,2.283,1.223
					c1.826,0.656,4.236,1.029,6.912,1.029h0.35c2.678,0,5.086-0.373,6.912-1.029c0.912-0.327,1.689-0.72,2.285-1.223
					c0.594-0.506,1.037-1.177,1.037-1.975v-0.689v-2.828l-1.768,0.606V28.526L57.471,28.526z"/>
			</g>
		</g>
	</g>
</g>
</svg>
