<?xml version="1.0" encoding="utf-8"?>
<!-- Generator: Adobe Illustrator 16.0.0, SVG Export Plug-In . SVG Version: 6.00 Build 0)  -->
<!DOCTYPE svg PUBLIC "-//W3C//DTD SVG 1.1//EN" "http://www.w3.org/Graphics/SVG/1.1/DTD/svg11.dtd">
<svg version="1.1" id="Calque_1" xmlns="http://www.w3.org/2000/svg" xmlns:xlink="http://www.w3.org/1999/xlink" x="0px" y="0px"
	 width="55.5px" height="86.714px" viewBox="0 0 55.5 86.714" enable-background="new 0 0 55.5 86.714" xml:space="preserve">
<g id="Calque_1_1_">
</g>
<g id="filters">
	<g id="bar_2_">
	</g>
	<g id="asso_1_">
		<g>
			<g>
				<defs>
					<path id="SVGID_1_" d="M54.329-154.442c-0.763,0-1.526-0.283-2.11-0.85c-5.83-5.669-5.83-14.893,0-20.561l5.523-5.374
						c2.82-2.745,6.581-4.256,10.574-4.256c3.99,0,7.746,1.511,10.568,4.256s4.381,6.399,4.381,10.28
						c0,3.884-1.556,7.535-4.381,10.279c-1.169,1.136-3.054,1.136-4.217,0c-1.171-1.132-1.171-2.971,0-4.103
						c1.693-1.653,2.631-3.844,2.631-6.177c0-2.33-0.938-4.527-2.631-6.176c-3.396-3.3-9.312-3.3-12.707,0l-5.523,5.371
						c-3.5,3.407-3.5,8.945,0,12.354c1.166,1.132,1.166,2.966,0,4.102C55.855-154.726,55.09-154.442,54.329-154.442 M50.469-139.058
						c-3.992,0-7.744-1.517-10.57-4.262c-2.823-2.743-4.379-6.394-4.379-10.275c0-3.885,1.555-7.533,4.377-10.278
						c1.166-1.135,3.054-1.135,4.219,0c1.167,1.135,1.167,2.971,0,4.104c-1.697,1.647-2.633,3.845-2.633,6.176
						c0,2.333,0.936,4.524,2.633,6.175c3.396,3.297,9.312,3.297,12.703,0l5.074-4.93c1.693-1.648,2.629-3.842,2.629-6.175
						c0-2.331-0.935-4.525-2.629-6.177c-1.17-1.133-1.17-2.97,0-4.105c1.166-1.133,3.051-1.133,4.219,0
						c2.822,2.746,4.38,6.397,4.38,10.282c0,3.885-1.554,7.535-4.38,10.275l-5.07,4.932
						C58.216-140.574,54.463-139.058,50.469-139.058"/>
				</defs>
				<clipPath id="SVGID_2_">
					<use xlink:href="#SVGID_1_"  overflow="visible"/>
				</clipPath>
			</g>
		</g>
	</g>
	<g id="biblio">
		<g>
			<g>
				<defs>
					<path id="SVGID_3_" d="M252.461-181.909c-4.109,0-8.252,1.457-12.363,4.179c-0.496,0.333-0.774,0.88-0.774,1.424v30.276
						c0,0.634,0.405,1.271,1.024,1.544c0.596,0.272,1.342,0.181,1.87-0.24c5.263-4.302,11.55-4.727,19.957,0.149
						c0.562,0.331,1.276,0.303,1.808,0c4.265-2.513,7.349-3.633,10.211-3.633c2.896-0.03,5.824,1.06,9.867,3.6
						c1.062,0.669,2.709-0.209,2.709-1.42v-30.276c0-0.544-0.277-1.06-0.711-1.392c-3.894-2.754-7.91-4.211-12.021-4.211
						c-3.732,0-7.439,1.271-11.021,3.574C259.591-180.271,256.229-181.909,252.461-181.909 M252.461-178.487
						c2.99,0,5.915,0.967,8.842,3.059v26.552c-6.88-3.207-13.232-3.207-18.463-0.363v-26.036
						C246.232-177.397,249.439-178.487,252.461-178.487 M274.037-178.487c2.99,0,6.042,1.09,9.215,3.179
						c0,11.505,0.03,15.987,0.03,26.464c-3.173-1.669-6.132-2.819-9.089-2.787c-3.023,0-6.041,1.06-9.375,2.755v-26.552
						C267.779-177.065,271.109-178.458,274.037-178.487 M252.057-174.311c-2.369,0-4.731,0.669-7.037,1.999
						c-0.402,0.244-0.561,0.787-0.311,1.182c0.219,0.395,0.811,0.515,1.214,0.302c2.089-1.211,4.108-1.815,6.134-1.815
						c2.023,0,4.045,0.604,6.135,1.815c0.406,0.213,0.963,0.093,1.215-0.302c0.246-0.395,0.094-0.938-0.314-1.182
						C256.789-173.642,254.423-174.311,252.057-174.311 M274.037-174.311c-2.366,0-4.734,0.669-7.064,1.999
						c-0.375,0.244-0.531,0.787-0.283,1.182c0.221,0.395,0.808,0.515,1.186,0.302c2.085-1.211,4.107-1.815,6.13-1.815
						c2.026,0,4.082,0.604,6.164,1.815c0.408,0.213,0.968,0.093,1.217-0.302c0.218-0.395,0.095-0.938-0.31-1.182
						C278.77-173.642,276.404-174.311,274.037-174.311 M252.057-169.162c-2.369,0-4.731,0.636-7.037,1.999
						c-0.402,0.213-0.561,0.785-0.311,1.149c0.219,0.396,0.811,0.545,1.214,0.303c2.054-1.21,4.079-1.817,6.071-1.817
						c2.056,0,4.107,0.607,6.195,1.817c0.406,0.242,0.965,0.093,1.215-0.303c0.248-0.364,0.095-0.937-0.313-1.149
						C256.789-168.526,254.423-169.162,252.057-169.162 M274.037-169.162c-2.366,0-4.734,0.636-7.064,1.999
						c-0.375,0.213-0.531,0.785-0.283,1.149c0.221,0.396,0.808,0.545,1.186,0.303c2.085-1.21,4.107-1.817,6.13-1.817
						c2.026,0,4.082,0.607,6.164,1.817c0.408,0.242,0.968,0.093,1.217-0.303c0.218-0.364,0.095-0.937-0.31-1.149
						C278.77-168.526,276.404-169.162,274.037-169.162 M252.057-164.047c-2.369,0-4.731,0.636-7.037,1.999
						c-0.402,0.242-0.561,0.788-0.311,1.182c0.219,0.363,0.811,0.516,1.214,0.272c2.022-1.181,4.019-1.785,6.009-1.817
						c2.053-0.029,4.142,0.578,6.26,1.817c0.406,0.243,0.963,0.091,1.215-0.272c0.246-0.394,0.094-0.939-0.314-1.182
						C256.789-163.411,254.423-164.047,252.057-164.047 M274.037-164.047c-2.366,0-4.734,0.636-7.064,1.999
						c-0.375,0.242-0.531,0.788-0.283,1.182c0.221,0.363,0.808,0.516,1.186,0.272c2.052-1.181,4.046-1.785,6.038-1.817
						c2.06-0.029,4.11,0.578,6.256,1.817c0.408,0.243,0.968,0.091,1.217-0.272c0.218-0.394,0.095-0.939-0.31-1.182
						C278.77-163.411,276.404-164.047,274.037-164.047 M252.057-158.929c-2.369,0-4.731,0.664-7.037,1.999
						c-0.402,0.239-0.561,0.788-0.311,1.183c0.219,0.39,0.811,0.512,1.214,0.299c2.089-1.242,4.108-1.847,6.163-1.847
						c2.023,0.031,4.016,0.638,6.104,1.847c0.406,0.213,0.965,0.091,1.215-0.299c0.248-0.395,0.095-0.943-0.313-1.183
						C256.789-158.265,254.423-158.929,252.057-158.929 M274.037-158.929c-2.366,0-4.734,0.664-7.064,1.999
						c-0.375,0.239-0.531,0.788-0.283,1.183c0.221,0.39,0.808,0.512,1.186,0.299c2.052-1.178,4.014-1.786,5.979-1.847
						c2.084-0.029,4.17,0.578,6.315,1.847c0.408,0.213,0.968,0.091,1.217-0.299c0.218-0.395,0.095-0.943-0.31-1.183
						C278.77-158.265,276.404-158.929,274.037-158.929"/>
				</defs>
				<clipPath id="SVGID_4_">
					<use xlink:href="#SVGID_3_"  overflow="visible"/>
				</clipPath>
			</g>
		</g>
	</g>
	<g id="resto_1_">
		<g>
			<g>
				<defs>
					<rect id="SVGID_5_" x="-38.985" y="-190.271" width="14.22" height="53.756"/>
				</defs>
				<clipPath id="SVGID_6_">
					<use xlink:href="#SVGID_5_"  overflow="visible"/>
				</clipPath>
			</g>
		</g>
		<g>
			<g>
				<defs>
					<rect id="SVGID_7_" x="-62.573" y="-190.812" width="20.491" height="54.274"/>
				</defs>
				<clipPath id="SVGID_8_">
					<use xlink:href="#SVGID_7_"  overflow="visible"/>
				</clipPath>
			</g>
		</g>
	</g>
	<g id="snack_1_">
		<g>
			<g>
				<defs>
					<path id="SVGID_9_" d="M156.223-151.313c-4.728,0-8.57-3.701-8.57-8.254c0-4.555,3.846-8.259,8.57-8.259
						c4.729,0,8.571,3.704,8.571,8.259C164.794-155.015,160.95-151.313,156.223-151.313z M156.223-165.78
						c-3.555,0-6.445,2.787-6.445,6.213c0,3.423,2.892,6.208,6.445,6.208c3.557,0,6.447-2.785,6.447-6.208
						C162.67-162.993,159.777-165.78,156.223-165.78z"/>
				</defs>
				<clipPath id="SVGID_10_">
					<use xlink:href="#SVGID_9_"  overflow="visible"/>
				</clipPath>
			</g>
		</g>
		<g>
			<g>
				<defs>
					<path id="SVGID_11_" d="M142.645-141.213h27.154v-35.354h-27.154V-141.213L142.645-141.213z M144.771-143.26h22.904v-31.264
						h-22.904V-143.26z"/>
				</defs>
				<clipPath id="SVGID_12_">
					<use xlink:href="#SVGID_11_"  overflow="visible"/>
				</clipPath>
			</g>
		</g>
		<g>
			<g>
				<defs>
					<path id="SVGID_13_" d="M166.266-137.597H146.18l-2.939-5.663h25.965L166.266-137.597z M147.493-139.644h17.459l0.815-1.569
						h-19.09L147.493-139.644z"/>
				</defs>
				<clipPath id="SVGID_14_">
					<use xlink:href="#SVGID_13_"  overflow="visible"/>
				</clipPath>
			</g>
		</g>
		<g>
			<g>
				<defs>
					<path id="SVGID_15_" d="M169.173-174.521h-25.901l2.896-5.813h20.108L169.173-174.521z M146.646-176.566h19.151l-0.858-1.722
						h-17.436L146.646-176.566z"/>
				</defs>
				<clipPath id="SVGID_16_">
					<use xlink:href="#SVGID_15_"  overflow="visible"/>
				</clipPath>
			</g>
		</g>
		<g>
			<g>
				<defs>
					<path id="SVGID_17_" d="M162.023-179.073l-2.022-0.627l1.86-5.574c0.47-1.645,2.074-2.822,3.89-2.822h8.167v2.044h-8.167
						c-0.862,0-1.626,0.562-1.854,1.364L162.023-179.073z"/>
				</defs>
				<clipPath id="SVGID_18_">
					<use xlink:href="#SVGID_17_"  overflow="visible"/>
				</clipPath>
			</g>
		</g>
	</g>
	<g id="cafe">
		<g>
			<g>
				<defs>
					<path id="SVGID_19_" d="M-153.981-186.026c-0.861,0.01-1.123,0.472-1.446,1.02c-0.163,1.282,0.09,2.54,0.048,3.825
						c-0.028,0.439-0.147,0.825-0.063,0.653c-0.319,0.666-0.678,1.407-0.959,2.04c-0.64,1.15-0.575,2.63-0.41,3.778
						c0.324,1.086,0.871,2.074,1.369,3.108c0.326,0.755,1.342,1.125,2.095,0.779c0.754-0.343,1.102-1.339,0.728-2.068
						c-0.507-0.929-1.055-2.261-1.122-2.375c-0.18-1.061,0.108-1.882,0.146-1.946l0.976-2.025c0.32-0.681,0.324-1.192,0.359-1.785
						c0.015-1.313,0.047-2.764-0.227-3.971C-152.939-185.567-153.409-186.004-153.981-186.026z M-146.707-186.026
						c-0.864,0.01-1.121,0.472-1.447,1.02c-0.162,1.282,0.091,2.54,0.049,3.825c-0.026,0.439-0.147,0.825-0.065,0.653
						c-0.318,0.666-0.678,1.407-0.956,2.04c-0.639,1.15-0.573,2.63-0.409,3.778c0.32,1.086,0.87,2.074,1.364,3.108
						c0.327,0.755,1.341,1.125,2.094,0.779c0.753-0.343,1.106-1.339,0.732-2.068c-0.51-0.929-1.059-2.261-1.119-2.375
						c-0.183-1.061,0.104-1.882,0.144-1.946l0.975-2.025c0.324-0.681,0.326-1.192,0.358-1.785c0.016-1.313,0.048-2.764-0.229-3.971
						C-145.665-185.567-146.132-186.004-146.707-186.026z M-139.432-186.026c-0.861,0.01-1.122,0.472-1.447,1.02
						c-0.162,1.282,0.09,2.54,0.048,3.825c-0.025,0.439-0.147,0.825-0.062,0.653c-0.318,0.666-0.678,1.407-0.96,2.04
						c-0.635,1.15-0.568,2.63-0.404,3.778c0.319,1.086,0.869,2.074,1.364,3.108c0.327,0.755,1.338,1.125,2.094,0.779
						c0.757-0.343,1.105-1.339,0.73-2.068c-0.507-0.929-1.059-2.261-1.122-2.375c-0.178-1.061,0.105-1.882,0.151-1.946l0.971-2.025
						c0.324-0.681,0.324-1.192,0.359-1.785c0.016-1.313,0.048-2.764-0.229-3.971C-138.393-185.567-138.857-186.004-139.432-186.026z
						 M-165.661-169.692c-0.761,0.081-1.398,0.781-1.395,1.535c0,10.685,8.857,19.381,19.749,19.381
						c5.154,0,9.859-1.959,13.377-5.148c4.119-0.75,7.953-2.407,10.573-5.325c0.845-0.951,1.514-2.005,1.514-3.313
						c-0.203-3.582-2.396-5.28-5.457-5.601c0-1.021-1.038-1.535-1.82-1.528L-165.661-169.692L-165.661-169.692z M-163.777-166.628
						h32.936c-0.798,8.295-7.802,14.79-16.465,14.79C-155.975-151.838-162.978-158.333-163.777-166.628z M-127.821-165.019
						c1.85,0.157,2.85,1.064,2.858,2.455c0,0.098-0.174,0.656-0.745,1.309c-1.427,1.448-3.013,2.443-4.763,3.2
						C-129.161-160.146-128.241-162.502-127.821-165.019z M-164.619-148.282c-0.817,0.041-1.523,0.811-1.48,1.608
						c0.042,0.804,0.823,1.493,1.644,1.449h34.297c0.821,0.015,1.579-0.721,1.579-1.528c0-0.809-0.757-1.538-1.579-1.529H-164.619z"
						/>
				</defs>
				<clipPath id="SVGID_20_">
					<use xlink:href="#SVGID_19_"  overflow="visible"/>
				</clipPath>
			</g>
		</g>
	</g>
</g>
<g id="V2">
	<g id="resto">
	</g>
	<g id="bar_1_">
	</g>
	<g id="resto-u">
	</g>
	<g id="asso">
	</g>
	<g id="bar">
	</g>
	<g id="bilbio">
	</g>
	<g id="snack">
	</g>
</g>
<g id="markers_x5F_V3">
	<g id="biblio_1_">
		<g>
			<g>
				<path fill="#CCA18C" stroke="#FFFFFF" stroke-width="2" stroke-miterlimit="10" d="M27.441,82.335l-0.64-0.639
					c-0.079-0.08-6.396-5.917-12.632-14.312C5.695,56.112,1.378,45.878,1.378,37.004c0-14.393,11.673-26.064,26.063-26.064
					s26.063,11.672,26.063,26.064c0,8.875-4.316,19.108-12.712,30.462c-6.235,8.395-12.632,14.23-12.632,14.31L27.441,82.335z"/>
			</g>
		</g>
		<g transform="translate(5.9921265,958.35431)">
			<path fill="#FFFFFF" d="M14.59-935.1c-2.663,0-5.346,0.969-8.009,2.784c-0.323,0.222-0.504,0.585-0.504,0.948v20.173
				c0,0.423,0.263,0.847,0.664,1.029c0.385,0.182,0.869,0.119,1.212-0.162c3.409-2.865,7.483-3.146,12.931,0.101
				c0.364,0.222,0.827,0.202,1.171,0c2.763-1.675,4.761-2.42,6.616-2.42c1.877-0.021,3.772,0.704,6.396,2.399
				c0.687,0.444,1.756-0.142,1.756-0.947c0-9.259,0-10.914,0-20.173c0-0.363-0.182-0.707-0.465-0.928
				c-2.521-1.836-5.123-2.805-7.787-2.805c-2.42,0-4.82,0.848-7.142,2.381C19.21-934.01,17.03-935.1,14.59-935.1z M14.19-933.44
				c2.065,0,4.089,0.688,6.112,2.172v18.875c-4.756-2.281-9.147-2.281-12.761-0.259v-18.508
				C9.886-932.667,12.102-933.44,14.19-933.44z M28.859-933.323c2.084,0,4.209,0.78,6.42,2.276c0,8.241,0.021,11.451,0.021,18.956
				c-2.212-1.193-4.271-2.02-6.332-1.996c-2.105,0-4.208,0.76-6.529,1.973v-19.02C24.503-932.305,26.82-933.302,28.859-933.323z
				 M14.327-930.036c-1.533,0-3.065,0.443-4.559,1.33c-0.263,0.162-0.363,0.525-0.201,0.787c0.141,0.262,0.523,0.343,0.786,0.201
				c1.353-0.807,2.662-1.209,3.974-1.209s2.622,0.402,3.976,1.209c0.262,0.142,0.624,0.061,0.786-0.201
				c0.161-0.262,0.061-0.625-0.202-0.787C17.394-929.593,15.861-930.036,14.327-930.036z M28.568-930.036
				c-1.53,0-3.064,0.443-4.578,1.33c-0.241,0.162-0.342,0.525-0.182,0.787c0.141,0.262,0.523,0.343,0.768,0.201
				c1.352-0.807,2.662-1.209,3.973-1.209c1.312,0,2.645,0.402,3.995,1.209c0.263,0.142,0.625,0.061,0.788-0.201
				c0.141-0.262,0.061-0.625-0.202-0.787C31.638-929.593,30.104-930.036,28.568-930.036z M14.327-926.608
				c-1.533,0-3.065,0.425-4.559,1.332c-0.263,0.142-0.363,0.524-0.201,0.768c0.141,0.262,0.523,0.361,0.786,0.201
				c1.331-0.807,2.644-1.211,3.935-1.211c1.331,0,2.661,0.404,4.015,1.211c0.262,0.16,0.624,0.061,0.786-0.201
				c0.161-0.243,0.061-0.626-0.202-0.768C17.394-926.183,15.861-926.608,14.327-926.608z M28.568-926.608
				c-1.53,0-3.064,0.425-4.578,1.332c-0.241,0.142-0.342,0.524-0.182,0.768c0.141,0.262,0.523,0.361,0.768,0.201
				c1.352-0.807,2.662-1.211,3.973-1.211c1.312,0,2.645,0.404,3.995,1.211c0.263,0.16,0.625,0.061,0.788-0.201
				c0.141-0.243,0.061-0.626-0.202-0.768C31.638-926.183,30.104-926.608,28.568-926.608z M14.327-923.198
				c-1.533,0-3.065,0.423-4.559,1.332c-0.263,0.16-0.363,0.523-0.201,0.786c0.141,0.242,0.523,0.343,0.786,0.182
				c1.312-0.786,2.604-1.19,3.894-1.212c1.33-0.019,2.683,0.385,4.056,1.212c0.262,0.161,0.624,0.061,0.786-0.182
				c0.161-0.263,0.061-0.626-0.202-0.786C17.394-922.775,15.861-923.198,14.327-923.198z M28.568-923.198
				c-1.53,0-3.064,0.423-4.578,1.332c-0.241,0.16-0.342,0.523-0.182,0.786c0.141,0.242,0.523,0.343,0.768,0.182
				c1.33-0.786,2.621-1.19,3.912-1.212c1.334-0.019,2.664,0.385,4.056,1.212c0.263,0.161,0.625,0.061,0.788-0.182
				c0.141-0.263,0.061-0.626-0.202-0.786C31.638-922.775,30.104-923.198,28.568-923.198L28.568-923.198z M14.327-919.789
				c-1.533,0-3.065,0.444-4.559,1.332c-0.263,0.16-0.363,0.524-0.201,0.786c0.141,0.262,0.523,0.343,0.786,0.201
				c1.353-0.827,2.662-1.23,3.994-1.23c1.312,0.021,2.602,0.425,3.955,1.23c0.262,0.142,0.624,0.061,0.786-0.201
				c0.161-0.262,0.061-0.626-0.202-0.786C17.394-919.344,15.861-919.789,14.327-919.789z M28.568-919.789
				c-1.53,0-3.064,0.444-4.578,1.332c-0.241,0.16-0.342,0.524-0.182,0.786c0.141,0.262,0.523,0.343,0.768,0.201
				c1.33-0.786,2.603-1.19,3.873-1.23c1.353-0.021,2.703,0.384,4.095,1.23c0.263,0.142,0.625,0.061,0.788-0.201
				c0.141-0.262,0.061-0.626-0.202-0.786C31.638-919.344,30.104-919.789,28.568-919.789z"/>
		</g>
	</g>
	<g id="asso_2_">
	</g>
	<g id="cafe_1_">
	</g>
	<g id="bar_3_">
	</g>
	<g id="resto_2_">
	</g>
	<g id="snack_2_">
	</g>
	<g id="resto-u_1_">
	</g>
</g>
</svg>
