<?xml version="1.0" encoding="utf-8"?>
<!-- Generator: Adobe Illustrator 16.0.0, SVG Export Plug-In . SVG Version: 6.00 Build 0)  -->
<!DOCTYPE svg PUBLIC "-//W3C//DTD SVG 1.1//EN" "http://www.w3.org/Graphics/SVG/1.1/DTD/svg11.dtd">
<svg version="1.1" xmlns="http://www.w3.org/2000/svg" xmlns:xlink="http://www.w3.org/1999/xlink" x="0px" y="0px" width="55.5px"
	 height="86.714px" viewBox="0 0 55.5 86.714" enable-background="new 0 0 55.5 86.714" xml:space="preserve">
<g id="Calque_1">
</g>
<g id="filters">
	<g id="bar_2_">
	</g>
	<g id="asso_1_">
		<g>
			<defs>
				<path id="SVGID_1_" d="M-16.028-154.442c-0.763,0-1.526-0.283-2.11-0.85c-5.83-5.669-5.83-14.893,0-20.561l5.523-5.374
					c2.821-2.745,6.581-4.256,10.574-4.256c3.991,0,7.746,1.511,10.569,4.256c2.822,2.745,4.381,6.399,4.381,10.28
					c0,3.884-1.556,7.535-4.381,10.279c-1.169,1.136-3.054,1.136-4.217,0c-1.171-1.132-1.171-2.971,0-4.103
					c1.693-1.653,2.631-3.844,2.631-6.177c0-2.33-0.937-4.527-2.631-6.176c-3.396-3.3-9.312-3.3-12.707,0l-5.523,5.371
					c-3.501,3.407-3.501,8.945,0,12.354c1.166,1.132,1.166,2.966,0,4.102C-14.502-154.726-15.268-154.442-16.028-154.442
					 M-19.889-139.058c-3.992,0-7.745-1.517-10.57-4.262c-2.824-2.743-4.38-6.394-4.38-10.275c0-3.885,1.555-7.533,4.378-10.278
					c1.166-1.135,3.053-1.135,4.218,0c1.167,1.135,1.167,2.971,0,4.104c-1.697,1.647-2.633,3.845-2.633,6.176
					c0,2.333,0.936,4.524,2.633,6.175c3.396,3.297,9.312,3.297,12.704,0l5.073-4.93c1.694-1.648,2.629-3.842,2.629-6.175
					c0-2.331-0.934-4.525-2.629-6.177c-1.169-1.133-1.169-2.97,0-4.105c1.167-1.133,3.052-1.133,4.219,0
					c2.822,2.746,4.38,6.397,4.38,10.282s-1.553,7.535-4.38,10.275l-5.07,4.932C-12.142-140.574-15.895-139.058-19.889-139.058"/>
			</defs>
			<clipPath id="SVGID_2_">
				<use xlink:href="#SVGID_1_"  overflow="visible"/>
			</clipPath>
			<g clip-path="url(#SVGID_2_)">
				<defs>
					<rect id="SVGID_3_" x="-398.387" y="-569.912" width="480.548" height="854.733"/>
				</defs>
				<clipPath id="SVGID_4_">
					<use xlink:href="#SVGID_3_"  overflow="visible"/>
				</clipPath>
			</g>
		</g>
	</g>
	<g id="biblio">
		<g>
			<defs>
				<path id="SVGID_5_" d="M182.104-181.909c-4.109,0-8.252,1.457-12.363,4.179c-0.497,0.333-0.775,0.88-0.775,1.424v30.276
					c0,0.634,0.405,1.27,1.025,1.544c0.595,0.272,1.341,0.181,1.87-0.24c5.262-4.302,11.549-4.727,19.957,0.149
					c0.562,0.331,1.276,0.303,1.807,0c4.265-2.513,7.349-3.633,10.212-3.633c2.896-0.03,5.824,1.06,9.867,3.6
					c1.062,0.669,2.709-0.209,2.709-1.42v-30.276c0-0.544-0.278-1.06-0.712-1.392c-3.893-2.754-7.91-4.211-12.021-4.211
					c-3.733,0-7.44,1.271-11.021,3.574C189.233-180.271,185.87-181.909,182.104-181.909 M182.104-178.487
					c2.99,0,5.915,0.967,8.842,3.059v26.552c-6.88-3.207-13.232-3.207-18.463-0.363v-26.036
					C175.876-177.397,179.083-178.487,182.104-178.487 M203.68-178.487c2.991,0,6.042,1.09,9.215,3.179
					c0,11.505,0.03,15.987,0.03,26.464c-3.172-1.669-6.132-2.819-9.089-2.787c-3.023,0-6.041,1.06-9.374,2.755v-26.552
					C197.423-177.065,200.753-178.458,203.68-178.487 M181.699-174.311c-2.369,0-4.732,0.669-7.037,1.999
					c-0.403,0.244-0.561,0.787-0.311,1.182c0.219,0.395,0.81,0.515,1.214,0.302c2.088-1.211,4.108-1.815,6.134-1.815
					c2.023,0,4.045,0.604,6.134,1.815c0.406,0.213,0.964,0.093,1.215-0.302c0.247-0.395,0.094-0.938-0.314-1.182
					C186.432-173.642,184.065-174.311,181.699-174.311 M203.68-174.311c-2.366,0-4.734,0.669-7.065,1.999
					c-0.375,0.244-0.53,0.787-0.282,1.182c0.22,0.395,0.807,0.515,1.185,0.302c2.085-1.211,4.107-1.815,6.13-1.815
					c2.026,0,4.082,0.604,6.164,1.815c0.408,0.213,0.968,0.093,1.217-0.302c0.217-0.395,0.094-0.938-0.31-1.182
					C208.412-173.642,206.047-174.311,203.68-174.311 M181.699-169.162c-2.369,0-4.732,0.636-7.037,1.999
					c-0.403,0.213-0.561,0.785-0.311,1.149c0.219,0.396,0.81,0.545,1.214,0.303c2.053-1.21,4.079-1.817,6.071-1.817
					c2.056,0,4.107,0.607,6.196,1.817c0.406,0.242,0.964,0.093,1.215-0.303c0.247-0.364,0.094-0.937-0.314-1.149
					C186.432-168.526,184.065-169.162,181.699-169.162 M203.68-169.162c-2.366,0-4.734,0.636-7.065,1.999
					c-0.375,0.213-0.53,0.785-0.282,1.149c0.22,0.396,0.807,0.545,1.185,0.303c2.085-1.21,4.107-1.817,6.13-1.817
					c2.026,0,4.082,0.607,6.164,1.817c0.408,0.242,0.968,0.093,1.217-0.303c0.217-0.364,0.094-0.937-0.31-1.149
					C208.412-168.526,206.047-169.162,203.68-169.162 M181.699-164.047c-2.369,0-4.732,0.636-7.037,1.999
					c-0.403,0.242-0.561,0.788-0.311,1.182c0.219,0.363,0.81,0.516,1.214,0.272c2.023-1.181,4.018-1.785,6.008-1.817
					c2.053-0.029,4.142,0.578,6.26,1.817c0.406,0.243,0.964,0.091,1.215-0.272c0.247-0.394,0.094-0.939-0.314-1.182
					C186.432-163.411,184.065-164.047,181.699-164.047 M203.68-164.047c-2.366,0-4.734,0.636-7.065,1.999
					c-0.375,0.242-0.53,0.788-0.282,1.182c0.22,0.363,0.807,0.516,1.185,0.272c2.052-1.181,4.046-1.785,6.038-1.817
					c2.059-0.029,4.11,0.578,6.256,1.817c0.408,0.243,0.968,0.091,1.217-0.272c0.217-0.394,0.094-0.939-0.31-1.182
					C208.412-163.411,206.047-164.047,203.68-164.047 M181.699-158.929c-2.369,0-4.732,0.664-7.037,1.999
					c-0.403,0.239-0.561,0.788-0.311,1.183c0.219,0.39,0.81,0.512,1.214,0.299c2.088-1.242,4.108-1.847,6.163-1.847
					c2.024,0.031,4.016,0.638,6.104,1.847c0.406,0.213,0.964,0.091,1.215-0.299c0.247-0.395,0.094-0.943-0.314-1.183
					C186.432-158.265,184.065-158.929,181.699-158.929 M203.68-158.929c-2.366,0-4.734,0.664-7.065,1.999
					c-0.375,0.239-0.53,0.788-0.282,1.183c0.22,0.39,0.807,0.512,1.185,0.299c2.052-1.178,4.014-1.786,5.978-1.847
					c2.085-0.029,4.171,0.578,6.316,1.847c0.408,0.213,0.968,0.091,1.217-0.299c0.217-0.395,0.094-0.943-0.31-1.183
					C208.412-158.265,206.047-158.929,203.68-158.929"/>
			</defs>
			<clipPath id="SVGID_6_">
				<use xlink:href="#SVGID_5_"  overflow="visible"/>
			</clipPath>
			<g clip-path="url(#SVGID_6_)">
				<defs>
					<rect id="SVGID_7_" x="-144.896" y="-685.708" width="476.781" height="848.029"/>
				</defs>
				<clipPath id="SVGID_8_">
					<use xlink:href="#SVGID_7_"  overflow="visible"/>
				</clipPath>
			</g>
		</g>
	</g>
	<g id="resto_1_">
		<g>
			<defs>
				<rect id="SVGID_9_" x="-109.343" y="-190.271" width="14.22" height="53.756"/>
			</defs>
			<clipPath id="SVGID_10_">
				<use xlink:href="#SVGID_9_"  overflow="visible"/>
			</clipPath>
			<g clip-path="url(#SVGID_10_)">
				<defs>
					<rect id="SVGID_11_" x="-409.366" y="-574.421" width="485.835" height="864.138"/>
				</defs>
				<clipPath id="SVGID_12_">
					<use xlink:href="#SVGID_11_"  overflow="visible"/>
				</clipPath>
			</g>
		</g>
		<g>
			<defs>
				<rect id="SVGID_19_" x="-132.931" y="-190.812" width="20.491" height="54.274"/>
			</defs>
			<clipPath id="SVGID_14_">
				<use xlink:href="#SVGID_19_"  overflow="visible"/>
			</clipPath>
			<g clip-path="url(#SVGID_14_)">
				<defs>
					<rect id="SVGID_21_" x="-409.366" y="-574.421" width="485.835" height="864.138"/>
				</defs>
				<clipPath id="SVGID_16_">
					<use xlink:href="#SVGID_21_"  overflow="visible"/>
				</clipPath>
			</g>
		</g>
	</g>
	<g id="snack_1_">
		<g>
			<defs>
				<path id="SVGID_29_" d="M85.865-151.313c-4.728,0-8.571-3.701-8.571-8.254c0-4.555,3.846-8.259,8.571-8.259
					c4.728,0,8.571,3.704,8.571,8.259C94.437-155.015,90.593-151.313,85.865-151.313z M85.865-165.78
					c-3.555,0-6.446,2.787-6.446,6.213c0,3.423,2.892,6.208,6.446,6.208c3.556,0,6.447-2.785,6.447-6.208
					C92.312-162.993,89.421-165.78,85.865-165.78z"/>
			</defs>
			<clipPath id="SVGID_18_">
				<use xlink:href="#SVGID_29_"  overflow="visible"/>
			</clipPath>
			<g clip-path="url(#SVGID_18_)">
				<defs>
					<rect id="SVGID_31_" x="-58.358" y="-667.749" width="463.469" height="824.355"/>
				</defs>
				<clipPath id="SVGID_20_">
					<use xlink:href="#SVGID_31_"  overflow="visible"/>
				</clipPath>
			</g>
		</g>
		<g>
			<defs>
				<path id="SVGID_33_" d="M72.287-141.213h27.154v-35.354H72.287V-141.213z M74.413-143.26h22.905v-31.264H74.413V-143.26z"/>
			</defs>
			<clipPath id="SVGID_22_">
				<use xlink:href="#SVGID_33_"  overflow="visible"/>
			</clipPath>
			<g clip-path="url(#SVGID_22_)">
				<defs>
					<rect id="SVGID_35_" x="-58.358" y="-667.749" width="463.469" height="824.355"/>
				</defs>
				<clipPath id="SVGID_24_">
					<use xlink:href="#SVGID_35_"  overflow="visible"/>
				</clipPath>
			</g>
		</g>
		<g>
			<defs>
				<path id="SVGID_37_" d="M95.908-137.597H75.822l-2.94-5.663h25.965L95.908-137.597z M77.136-139.644h17.459l0.815-1.569H76.321
					L77.136-139.644z"/>
			</defs>
			<clipPath id="SVGID_26_">
				<use xlink:href="#SVGID_37_"  overflow="visible"/>
			</clipPath>
			<g clip-path="url(#SVGID_26_)">
				<defs>
					<rect id="SVGID_39_" x="-58.358" y="-667.749" width="463.469" height="824.355"/>
				</defs>
				<clipPath id="SVGID_28_">
					<use xlink:href="#SVGID_39_"  overflow="visible"/>
				</clipPath>
			</g>
		</g>
		<g>
			<defs>
				<path id="SVGID_41_" d="M98.815-174.521H72.913l2.896-5.813h20.109L98.815-174.521z M76.289-176.566h19.152l-0.859-1.722H77.147
					L76.289-176.566z"/>
			</defs>
			<clipPath id="SVGID_30_">
				<use xlink:href="#SVGID_41_"  overflow="visible"/>
			</clipPath>
			<g clip-path="url(#SVGID_30_)">
				<defs>
					<rect id="SVGID_43_" x="-58.358" y="-667.749" width="463.469" height="824.355"/>
				</defs>
				<clipPath id="SVGID_32_">
					<use xlink:href="#SVGID_43_"  overflow="visible"/>
				</clipPath>
			</g>
		</g>
		<g>
			<defs>
				<path id="SVGID_45_" d="M91.666-179.073l-2.022-0.627l1.86-5.574c0.47-1.645,2.075-2.822,3.89-2.822h8.167v2.044h-8.167
					c-0.862,0-1.626,0.562-1.854,1.364L91.666-179.073z"/>
			</defs>
			<clipPath id="SVGID_34_">
				<use xlink:href="#SVGID_45_"  overflow="visible"/>
			</clipPath>
			<g clip-path="url(#SVGID_34_)">
				<defs>
					<rect id="SVGID_47_" x="-58.358" y="-667.749" width="463.469" height="824.355"/>
				</defs>
				<clipPath id="SVGID_36_">
					<use xlink:href="#SVGID_47_"  overflow="visible"/>
				</clipPath>
			</g>
		</g>
	</g>
	<g id="cafe">
		<g>
			<defs>
				<path id="SVGID_49_" d="M-224.339-186.026c-0.861,0.01-1.123,0.472-1.446,1.02c-0.163,1.282,0.09,2.54,0.048,3.825
					c-0.028,0.439-0.147,0.825-0.063,0.653c-0.319,0.666-0.678,1.407-0.959,2.04c-0.64,1.15-0.575,2.63-0.41,3.778
					c0.324,1.086,0.871,2.074,1.369,3.108c0.326,0.755,1.342,1.125,2.095,0.779c0.754-0.343,1.102-1.339,0.728-2.068
					c-0.507-0.929-1.055-2.261-1.122-2.375c-0.18-1.061,0.108-1.882,0.146-1.946l0.976-2.025c0.32-0.681,0.324-1.192,0.359-1.785
					c0.015-1.313,0.047-2.764-0.227-3.971C-223.297-185.567-223.766-186.004-224.339-186.026z M-217.064-186.026
					c-0.864,0.01-1.121,0.472-1.447,1.02c-0.162,1.282,0.091,2.54,0.049,3.825c-0.026,0.439-0.147,0.825-0.065,0.653
					c-0.318,0.666-0.678,1.407-0.956,2.04c-0.639,1.15-0.573,2.63-0.409,3.778c0.32,1.086,0.87,2.074,1.364,3.108
					c0.327,0.755,1.341,1.125,2.094,0.779c0.753-0.343,1.106-1.339,0.732-2.068c-0.51-0.929-1.059-2.261-1.119-2.375
					c-0.183-1.061,0.104-1.882,0.144-1.946l0.975-2.025c0.324-0.681,0.326-1.192,0.358-1.785c0.016-1.313,0.048-2.764-0.229-3.971
					C-216.022-185.567-216.489-186.004-217.064-186.026z M-209.789-186.026c-0.861,0.01-1.122,0.472-1.447,1.02
					c-0.162,1.282,0.09,2.54,0.048,3.825c-0.025,0.439-0.147,0.825-0.062,0.653c-0.318,0.666-0.678,1.407-0.96,2.04
					c-0.635,1.15-0.568,2.63-0.404,3.778c0.319,1.086,0.869,2.074,1.364,3.108c0.327,0.755,1.338,1.125,2.094,0.779
					c0.757-0.343,1.105-1.339,0.73-2.068c-0.507-0.929-1.059-2.261-1.122-2.375c-0.178-1.061,0.105-1.882,0.151-1.946l0.971-2.025
					c0.324-0.681,0.324-1.192,0.359-1.785c0.016-1.313,0.048-2.764-0.229-3.971C-208.75-185.567-209.214-186.004-209.789-186.026z
					 M-236.019-169.692c-0.761,0.081-1.398,0.781-1.395,1.535c0,10.685,8.857,19.381,19.749,19.381
					c5.154,0,9.859-1.959,13.377-5.148c4.119-0.75,7.953-2.407,10.573-5.325c0.845-0.951,1.514-2.005,1.514-3.313
					c-0.203-3.582-2.396-5.28-5.457-5.601c0-1.021-1.038-1.535-1.82-1.528H-236.019z M-234.135-166.628h32.936
					c-0.798,8.295-7.802,14.79-16.465,14.79C-226.333-151.838-233.335-158.333-234.135-166.628z M-198.179-165.019
					c1.85,0.157,2.85,1.064,2.858,2.455c0,0.098-0.174,0.656-0.745,1.309c-1.427,1.448-3.013,2.443-4.763,3.2
					C-199.519-160.146-198.598-162.502-198.179-165.019z M-234.977-148.282c-0.817,0.041-1.523,0.811-1.48,1.608
					c0.042,0.804,0.823,1.493,1.644,1.449h34.297c0.821,0.015,1.579-0.721,1.579-1.528c0-0.809-0.757-1.538-1.579-1.529H-234.977z"
					/>
			</defs>
			<clipPath id="SVGID_38_">
				<use xlink:href="#SVGID_49_"  overflow="visible"/>
			</clipPath>
			<g clip-path="url(#SVGID_38_)">
				<defs>
					<rect id="SVGID_51_" x="-413.983" y="-569.706" width="480.312" height="854.296"/>
				</defs>
				<clipPath id="SVGID_40_">
					<use xlink:href="#SVGID_51_"  overflow="visible"/>
				</clipPath>
			</g>
		</g>
	</g>
</g>
<g id="V2">
	<g id="resto">
	</g>
	<g id="bar_1_">
	</g>
	<g id="resto-u">
	</g>
	<g id="asso">
	</g>
	<g id="bar">
	</g>
	<g id="bilbio">
	</g>
	<g id="snack">
	</g>
</g>
<g id="markers_x5F_V3">
	<g id="biblio_1_">
	</g>
	<g id="asso_2_">
	</g>
	<g id="cafe_1_">
		<g>
			<g>
				<path fill="#58585A" stroke="#FFFFFF" stroke-width="2" stroke-miterlimit="10" d="M27.75,82.336l-0.64-0.639
					c-0.079-0.081-6.396-5.917-12.632-14.312C6.004,56.112,1.687,45.878,1.687,37.004c0-14.393,11.673-26.064,26.063-26.064
					s26.063,11.672,26.063,26.064c0,8.874-4.317,19.108-12.712,30.462C34.866,75.86,28.47,81.697,28.47,81.775L27.75,82.336z"/>
			</g>
		</g>
		<g transform="translate(0,-952.36218)">
			<path fill="#FFFFFF" stroke="#FFFFFF" stroke-width="0.7" stroke-miterlimit="10" d="M20.696,973.985
				c0.437,0.596,0.88,1.039,1.099,1.43c0.468,1.123-0.396,1.871-0.888,2.74c-0.309,0.551-0.494,1.275-0.303,2.362
				c0.035,0.257,0.307,0.455,0.562,0.411c0.254-0.045,0.442-0.324,0.387-0.577c-0.165-0.936-0.029-1.327,0.196-1.73
				c0.715-1.089,1.615-2.292,0.872-3.672c-0.313-0.563-0.756-1.007-1.143-1.534c-0.094-0.137-0.259-0.219-0.423-0.211
				C20.561,973.212,20.561,973.694,20.696,973.985L20.696,973.985z M24.55,973.985c0.438,0.596,0.881,1.039,1.099,1.43
				c0.47,1.123-0.396,1.871-0.888,2.74c-0.308,0.551-0.492,1.275-0.302,2.362c0.035,0.257,0.306,0.455,0.562,0.411
				c0.255-0.045,0.442-0.324,0.388-0.577c-0.166-0.936-0.029-1.327,0.196-1.73c0.717-1.089,1.616-2.292,0.873-3.672
				c-0.315-0.563-0.757-1.007-1.144-1.534c-0.093-0.137-0.259-0.219-0.422-0.211C24.415,973.212,24.415,973.694,24.55,973.985
				L24.55,973.985z M28.404,973.985c0.438,0.596,0.882,1.039,1.1,1.43c0.469,1.123-0.396,1.871-0.889,2.74
				c-0.307,0.551-0.491,1.275-0.301,2.362c0.033,0.257,0.307,0.455,0.561,0.411c0.256-0.045,0.443-0.324,0.388-0.577
				c-0.165-0.936-0.03-1.327,0.195-1.73c0.717-1.089,1.617-2.292,0.875-3.672c-0.315-0.563-0.758-1.007-1.146-1.534
				c-0.092-0.137-0.257-0.219-0.422-0.211C28.269,973.212,28.269,973.694,28.404,973.985L28.404,973.985z M13.499,982.835
				c-0.648,0.009-0.856,0.443-0.889,0.993c0,8.702,1.509,13.728,6.882,19.096c0.088,0.096,0.217,0.15,0.346,0.152l11.563-0.029
				c0.126,0.004,0.254-0.049,0.347-0.137c1.432-1.425,2.58-2.833,3.508-4.288v0.119c1.839,0,4.189-0.85,6.143-2.467
				c1.951-1.619,3.493-4.045,3.493-7.164c-0.159-1.597-1.403-2.383-2.756-2.679c-1.249-0.208-2.43-0.196-3.568,0.136
				c0.04-0.875,0.062-1.781,0.062-2.739c0.045-0.399-0.17-0.634-0.393-0.888C29.787,982.86,21.136,982.823,13.499,982.835
				L13.499,982.835z M37.665,983.828c0,8.513-1.371,13.11-6.476,18.255l-11.126,0.029c-5.118-5.171-6.489-9.763-6.489-18.285
				C21.827,983.827,30.337,983.811,37.665,983.828L37.665,983.828z M41.94,987.379c0.943,0.228,1.976,0.786,1.986,1.731
				c0,2.807-1.348,4.95-3.131,6.426c-1.587,1.314-3.526,2.063-5.014,2.213c1.652-2.921,2.45-6.114,2.726-10.143
				C39.677,987.254,40.814,987.147,41.94,987.379z"/>
		</g>
	</g>
	<g id="bar_3_">
	</g>
	<g id="resto_2_">
	</g>
	<g id="snack_2_">
	</g>
	<g id="resto-u_1_">
	</g>
</g>
</svg>
