<?xml version="1.0" encoding="utf-8"?>
<!-- Generator: Adobe Illustrator 16.0.0, SVG Export Plug-In . SVG Version: 6.00 Build 0)  -->
<!DOCTYPE svg PUBLIC "-//W3C//DTD SVG 1.1//EN" "http://www.w3.org/Graphics/SVG/1.1/DTD/svg11.dtd">
<svg version="1.1" id="Calque_1" xmlns="http://www.w3.org/2000/svg" xmlns:xlink="http://www.w3.org/1999/xlink" x="0px" y="0px"
	 width="55.5px" height="86.714px" viewBox="0 0 55.5 86.714" enable-background="new 0 0 55.5 86.714" xml:space="preserve">
<g id="Calque_1_1_">
</g>
<g id="filters">
	<g id="bar_2_">
	</g>
	<g id="asso_1_">
		<g>
			<g>
				<defs>
					<path id="SVGID_1_" d="M126.081-154.442c-0.763,0-1.526-0.283-2.11-0.85c-5.83-5.669-5.83-14.893,0-20.561l5.523-5.374
						c2.82-2.745,6.581-4.256,10.574-4.256c3.99,0,7.746,1.511,10.568,4.256s4.381,6.399,4.381,10.28
						c0,3.884-1.556,7.535-4.381,10.279c-1.169,1.136-3.054,1.136-4.217,0c-1.171-1.132-1.171-2.971,0-4.103
						c1.693-1.653,2.631-3.844,2.631-6.177c0-2.33-0.937-4.527-2.631-6.176c-3.396-3.3-9.312-3.3-12.707,0l-5.523,5.371
						c-3.5,3.407-3.5,8.945,0,12.354c1.166,1.132,1.166,2.966,0,4.102C127.607-154.726,126.842-154.442,126.081-154.442
						 M122.221-139.058c-3.992,0-7.744-1.517-10.57-4.262c-2.823-2.743-4.379-6.394-4.379-10.275c0-3.885,1.555-7.533,4.377-10.278
						c1.166-1.135,3.054-1.135,4.219,0c1.167,1.135,1.167,2.971,0,4.104c-1.697,1.647-2.633,3.845-2.633,6.176
						c0,2.333,0.936,4.524,2.633,6.175c3.396,3.297,9.312,3.297,12.703,0l5.074-4.93c1.693-1.648,2.629-3.842,2.629-6.175
						c0-2.331-0.935-4.525-2.629-6.177c-1.17-1.133-1.17-2.97,0-4.105c1.166-1.133,3.051-1.133,4.219,0
						c2.822,2.746,4.38,6.397,4.38,10.282c0,3.885-1.554,7.535-4.38,10.275l-5.07,4.932
						C129.968-140.574,126.215-139.058,122.221-139.058"/>
				</defs>
				<clipPath id="SVGID_2_">
					<use xlink:href="#SVGID_1_"  overflow="visible"/>
				</clipPath>
			</g>
		</g>
	</g>
	<g id="biblio">
		<g>
			<g>
				<defs>
					<path id="SVGID_3_" d="M324.213-181.909c-4.109,0-8.252,1.457-12.363,4.179c-0.497,0.333-0.774,0.88-0.774,1.424v30.276
						c0,0.634,0.405,1.271,1.024,1.544c0.596,0.272,1.342,0.181,1.87-0.24c5.263-4.302,11.549-4.727,19.957,0.149
						c0.562,0.331,1.276,0.303,1.808,0c4.265-2.513,7.349-3.633,10.212-3.633c2.896-0.03,5.823,1.06,9.867,3.6
						c1.062,0.669,2.709-0.209,2.709-1.42v-30.276c0-0.544-0.278-1.06-0.713-1.392c-3.893-2.754-7.909-4.211-12.021-4.211
						c-3.733,0-7.44,1.271-11.021,3.574C331.343-180.271,327.979-181.909,324.213-181.909 M324.213-178.487
						c2.99,0,5.915,0.967,8.842,3.059v26.552c-6.88-3.207-13.231-3.207-18.463-0.363v-26.036
						C317.985-177.397,321.192-178.487,324.213-178.487 M345.789-178.487c2.991,0,6.042,1.09,9.215,3.179
						c0,11.505,0.03,15.987,0.03,26.464c-3.172-1.669-6.132-2.819-9.089-2.787c-3.023,0-6.041,1.06-9.374,2.755v-26.552
						C339.532-177.065,342.862-178.458,345.789-178.487 M323.809-174.311c-2.368,0-4.731,0.669-7.036,1.999
						c-0.403,0.244-0.562,0.787-0.312,1.182c0.219,0.395,0.811,0.515,1.214,0.302c2.088-1.211,4.108-1.815,6.134-1.815
						c2.023,0,4.045,0.604,6.135,1.815c0.405,0.213,0.964,0.093,1.215-0.302c0.247-0.395,0.094-0.938-0.314-1.182
						C328.541-173.642,326.175-174.311,323.809-174.311 M345.789-174.311c-2.366,0-4.734,0.669-7.065,1.999
						c-0.375,0.244-0.529,0.787-0.281,1.182c0.22,0.395,0.807,0.515,1.185,0.302c2.085-1.211,4.107-1.815,6.13-1.815
						c2.026,0,4.082,0.604,6.164,1.815c0.408,0.213,0.968,0.093,1.217-0.302c0.218-0.395,0.095-0.938-0.31-1.182
						C350.521-173.642,348.156-174.311,345.789-174.311 M323.809-169.162c-2.368,0-4.731,0.636-7.036,1.999
						c-0.403,0.213-0.562,0.785-0.312,1.149c0.219,0.396,0.811,0.545,1.214,0.303c2.053-1.21,4.079-1.817,6.071-1.817
						c2.056,0,4.106,0.607,6.196,1.817c0.405,0.242,0.964,0.093,1.215-0.303c0.247-0.364,0.094-0.937-0.314-1.149
						C328.541-168.526,326.175-169.162,323.809-169.162 M345.789-169.162c-2.366,0-4.734,0.636-7.065,1.999
						c-0.375,0.213-0.529,0.785-0.281,1.149c0.22,0.396,0.807,0.545,1.185,0.303c2.085-1.21,4.107-1.817,6.13-1.817
						c2.026,0,4.082,0.607,6.164,1.817c0.408,0.242,0.968,0.093,1.217-0.303c0.218-0.364,0.095-0.937-0.31-1.149
						C350.521-168.526,348.156-169.162,345.789-169.162 M323.809-164.047c-2.368,0-4.731,0.636-7.036,1.999
						c-0.403,0.242-0.562,0.788-0.312,1.182c0.219,0.363,0.811,0.516,1.214,0.272c2.023-1.181,4.019-1.785,6.008-1.817
						c2.054-0.029,4.143,0.578,6.261,1.817c0.405,0.243,0.964,0.091,1.215-0.272c0.247-0.394,0.094-0.939-0.314-1.182
						C328.541-163.411,326.175-164.047,323.809-164.047 M345.789-164.047c-2.366,0-4.734,0.636-7.065,1.999
						c-0.375,0.242-0.529,0.788-0.281,1.182c0.22,0.363,0.807,0.516,1.185,0.272c2.052-1.181,4.046-1.785,6.038-1.817
						c2.059-0.029,4.11,0.578,6.256,1.817c0.408,0.243,0.968,0.091,1.217-0.272c0.218-0.394,0.095-0.939-0.31-1.182
						C350.521-163.411,348.156-164.047,345.789-164.047 M323.809-158.929c-2.368,0-4.731,0.664-7.036,1.999
						c-0.403,0.239-0.562,0.788-0.312,1.183c0.219,0.39,0.811,0.512,1.214,0.299c2.088-1.242,4.108-1.847,6.163-1.847
						c2.024,0.031,4.016,0.638,6.104,1.847c0.405,0.213,0.964,0.091,1.215-0.299c0.247-0.395,0.094-0.943-0.314-1.183
						C328.541-158.265,326.175-158.929,323.809-158.929 M345.789-158.929c-2.366,0-4.734,0.664-7.065,1.999
						c-0.375,0.239-0.529,0.788-0.281,1.183c0.22,0.39,0.807,0.512,1.185,0.299c2.052-1.178,4.014-1.786,5.979-1.847
						c2.085-0.029,4.171,0.578,6.315,1.847c0.408,0.213,0.968,0.091,1.217-0.299c0.218-0.395,0.095-0.943-0.31-1.183
						C350.521-158.265,348.156-158.929,345.789-158.929"/>
				</defs>
				<clipPath id="SVGID_4_">
					<use xlink:href="#SVGID_3_"  overflow="visible"/>
				</clipPath>
			</g>
		</g>
	</g>
	<g id="resto_1_">
		<g>
			<g>
				<defs>
					<rect id="SVGID_5_" x="32.768" y="-190.271" width="14.219" height="53.756"/>
				</defs>
				<clipPath id="SVGID_6_">
					<use xlink:href="#SVGID_5_"  overflow="visible"/>
				</clipPath>
			</g>
		</g>
		<g>
			<g>
				<defs>
					<rect id="SVGID_7_" x="9.179" y="-190.812" width="20.491" height="54.274"/>
				</defs>
				<clipPath id="SVGID_8_">
					<use xlink:href="#SVGID_7_"  overflow="visible"/>
				</clipPath>
			</g>
		</g>
	</g>
	<g id="snack_1_">
	</g>
	<g id="cafe">
		<g>
			<g>
				<defs>
					<path id="SVGID_9_" d="M-82.229-186.026c-0.861,0.01-1.123,0.472-1.446,1.02c-0.163,1.282,0.09,2.54,0.048,3.825
						c-0.028,0.439-0.147,0.825-0.063,0.653c-0.319,0.666-0.678,1.407-0.959,2.04c-0.64,1.15-0.575,2.63-0.41,3.778
						c0.324,1.086,0.871,2.074,1.369,3.108c0.326,0.755,1.342,1.125,2.095,0.779c0.754-0.343,1.102-1.339,0.728-2.068
						c-0.507-0.929-1.055-2.261-1.122-2.375c-0.18-1.061,0.108-1.882,0.146-1.946l0.976-2.025c0.32-0.681,0.324-1.192,0.359-1.785
						c0.015-1.313,0.047-2.764-0.227-3.971C-81.188-185.567-81.657-186.004-82.229-186.026z M-74.955-186.026
						c-0.864,0.01-1.121,0.472-1.447,1.02c-0.162,1.282,0.091,2.54,0.049,3.825c-0.026,0.439-0.147,0.825-0.065,0.653
						c-0.318,0.666-0.678,1.407-0.956,2.04c-0.639,1.15-0.573,2.63-0.409,3.778c0.32,1.086,0.87,2.074,1.364,3.108
						c0.327,0.755,1.341,1.125,2.094,0.779c0.753-0.343,1.106-1.339,0.732-2.068c-0.51-0.929-1.059-2.261-1.119-2.375
						c-0.183-1.061,0.104-1.882,0.144-1.946l0.975-2.025c0.324-0.681,0.326-1.192,0.358-1.785c0.016-1.313,0.048-2.764-0.229-3.971
						C-73.913-185.567-74.38-186.004-74.955-186.026z M-67.68-186.026c-0.861,0.01-1.122,0.472-1.447,1.02
						c-0.162,1.282,0.09,2.54,0.048,3.825c-0.025,0.439-0.147,0.825-0.062,0.653c-0.318,0.666-0.678,1.407-0.96,2.04
						c-0.635,1.15-0.568,2.63-0.404,3.778c0.319,1.086,0.869,2.074,1.364,3.108c0.327,0.755,1.338,1.125,2.094,0.779
						c0.757-0.343,1.105-1.339,0.73-2.068c-0.507-0.929-1.059-2.261-1.122-2.375c-0.178-1.061,0.105-1.882,0.151-1.946l0.971-2.025
						c0.324-0.681,0.324-1.192,0.359-1.785c0.016-1.313,0.048-2.764-0.229-3.971C-66.641-185.567-67.105-186.004-67.68-186.026z
						 M-93.909-169.692c-0.761,0.081-1.398,0.781-1.395,1.535c0,10.685,8.857,19.381,19.749,19.381
						c5.154,0,9.859-1.959,13.377-5.148c4.119-0.75,7.953-2.407,10.573-5.325c0.845-0.951,1.514-2.005,1.514-3.313
						c-0.203-3.582-2.396-5.28-5.457-5.601c0-1.021-1.038-1.535-1.82-1.528L-93.909-169.692L-93.909-169.692z M-92.025-166.628
						h32.936c-0.798,8.295-7.802,14.79-16.465,14.79C-84.223-151.838-91.226-158.333-92.025-166.628z M-56.069-165.019
						c1.85,0.157,2.85,1.064,2.858,2.455c0,0.098-0.174,0.656-0.745,1.309c-1.427,1.448-3.013,2.443-4.763,3.2
						C-57.409-160.146-56.489-162.502-56.069-165.019z M-92.867-148.282c-0.817,0.041-1.523,0.811-1.48,1.608
						c0.042,0.804,0.823,1.493,1.644,1.449h34.297c0.821,0.015,1.579-0.721,1.579-1.528c0-0.809-0.757-1.538-1.579-1.529H-92.867z"
						/>
				</defs>
				<clipPath id="SVGID_10_">
					<use xlink:href="#SVGID_9_"  overflow="visible"/>
				</clipPath>
			</g>
		</g>
	</g>
</g>
<g id="V2">
	<g id="resto">
	</g>
	<g id="bar_1_">
	</g>
	<g id="resto-u">
	</g>
	<g id="asso">
	</g>
	<g id="bar">
	</g>
	<g id="bilbio">
	</g>
	<g id="snack">
	</g>
</g>
<g id="markers_x5F_V3">
	<g id="biblio_1_">
	</g>
	<g id="asso_2_">
	</g>
	<g id="cafe_1_">
	</g>
	<g id="bar_3_">
	</g>
	<g id="resto_2_">
	</g>
	<g id="snack_2_">
	</g>
	<g id="resto-u_1_">
		<g>
			<g>
				<path fill="#ED595F" stroke="#FFFFFF" stroke-width="2" stroke-miterlimit="10" d="M27.75,82.335l-0.64-0.639
					c-0.079-0.08-6.396-5.917-12.632-14.312C6.004,56.112,1.687,45.878,1.687,37.004c0-14.393,11.673-26.064,26.063-26.064
					c14.391,0,26.062,11.672,26.062,26.064c0,8.875-4.316,19.108-12.711,30.462c-6.235,8.394-12.631,14.23-12.631,14.309
					L27.75,82.335z"/>
			</g>
		</g>
		<g>
			<path fill="#FFFFFF" stroke="#FFFFFF" stroke-width="0.7" stroke-miterlimit="10" d="M35.907,20.921
				c-0.183-0.151-0.401-0.263-0.671-0.354l-5.877-2.003c-0.534-0.183-1.174-0.271-1.816-0.271s-1.283,0.089-1.818,0.271
				l-5.878,2.003c-0.268,0.091-0.487,0.201-0.669,0.354c-0.183,0.152-0.343,0.381-0.343,0.658c0,0.279,0.16,0.512,0.343,0.664
				c0.182,0.152,0.401,0.258,0.67,0.349l5.878,2.003c1.069,0.365,2.564,0.365,3.635,0l5.877-2.003
				c0.269-0.091,0.488-0.196,0.67-0.349c0.183-0.152,0.343-0.385,0.343-0.664C36.25,21.302,36.089,21.073,35.907,20.921z
				 M34.934,21.705l-5.871,2.003c-0.779,0.266-2.259,0.266-3.038,0l-5.872-2.003c-0.126-0.043-0.218-0.087-0.283-0.126
				c0.065-0.038,0.157-0.082,0.283-0.125l5.872-2.002c0.39-0.134,0.954-0.201,1.519-0.201c0.563,0,1.128,0.067,1.519,0.201
				l5.873,2.002c0.125,0.043,0.217,0.087,0.281,0.125C35.15,21.618,35.061,21.662,34.934,21.705z"/>
			<path fill="#FFFFFF" stroke="#FFFFFF" stroke-width="0.7" stroke-miterlimit="10" d="M32.113,25.792v0.364
				c0,0.069-0.037,0.175-0.223,0.332c-0.186,0.158-0.502,0.332-0.914,0.479c-0.824,0.296-2.017,0.49-3.343,0.49H27.45
				c-1.326,0-2.519-0.194-3.341-0.49c-0.413-0.146-0.73-0.32-0.915-0.479c-0.186-0.157-0.223-0.263-0.223-0.332v-0.364v-1.176
				l-0.937-0.321v1.497v0.364c0,0.422,0.235,0.778,0.55,1.045c0.313,0.268,0.726,0.475,1.208,0.647
				c0.967,0.347,2.241,0.545,3.657,0.545h0.185c1.417,0,2.691-0.198,3.657-0.545c0.482-0.173,0.895-0.38,1.209-0.647
				c0.314-0.267,0.549-0.623,0.549-1.045v-0.364v-1.497l-0.936,0.321V25.792L32.113,25.792z"/>
		</g>
		<g>
			<path fill="#FFFFFF" stroke="#FFFFFF" stroke-width="0.7" stroke-miterlimit="10" d="M30.607,46.1v6.532
				c0,1.469,1.164,2.711,2.582,2.734c0.026,0,0.052,0,0.076,0c1.469,0,2.687-1.189,2.687-2.684v-4.635v-7.417v-7.875
				c0-1.038-0.862-1.899-1.9-1.899c-2.432,0-4.405,1.975-4.405,4.405v9.443C29.671,45.339,30.051,45.873,30.607,46.1z M34.13,31.803
				c0.507,0,0.933,0.407,0.933,0.892v7.925v7.463v4.662c0,0.918-0.772,1.682-1.76,1.682c-0.025,0-0.025,0-0.052,0
				c-0.959-0.025-1.704-0.815-1.704-1.732v-7.007c0-0.255-0.214-0.483-0.507-0.483c-0.267,0-0.506-0.203-0.506-0.482v-9.503
				C30.561,33.331,32.16,31.803,34.13,31.803L34.13,31.803z"/>
			<path fill="#FFFFFF" stroke="#FFFFFF" stroke-width="0.7" stroke-miterlimit="10" d="M21.155,42.181l-0.422,10.395v0.023v0.025
				c0,1.506,1.351,2.733,3.011,2.733c1.659,0,3.01-1.228,3.01-2.733v-0.025v-0.023l-0.423-10.395c1.181-0.612,1.94-1.762,1.94-3.039
				v-6.998c0-0.843-0.76-1.532-1.688-1.532c-0.591,0-0.943,0.383-1.254,0.815c-0.281-0.433-0.967-0.815-1.586-0.815
				c-0.591,0-1.126,0.281-1.436,0.716c-0.308-0.435-0.814-0.716-1.434-0.716c-0.929,0-1.688,0.689-1.688,1.532v6.972
				C19.215,40.394,19.976,41.568,21.155,42.181z M20.193,32.333c0-0.276,0.463-0.479,0.793-0.479l0.101,0.026
				c0.332,0,0.745,0.163,0.745,0.439v4.426c0,0.276,0.271,0.486,0.6,0.486l-0.081,0.007c0.33,0,0.563-0.241,0.563-0.519v-4.341
				c0-0.276,0.509-0.544,0.84-0.544l0.074-0.005c0.331,0,1.074,0.201,1.074,0.478l-0.013,4.39c0,0.419,0.344,0.519,0.52,0.519
				l-0.2,0.022c0.33,0,0.624-0.161,0.624-0.438v-4.46c0-0.277,0.463-0.481,0.793-0.481s0.838,0.198,0.838,0.475V39.2
				c0,1.107-0.901,2.062-2.104,2.34l0.482,10.915c0,0.932-0.902,1.686-2.014,1.686l0,0c-1.112,0-2.013-0.754-2.013-1.686
				l0.48-10.915c-1.232-0.301-2.103-1.232-2.103-2.34L20.193,32.333L20.193,32.333z"/>
		</g>
	</g>
</g>
</svg>
