<?xml version="1.0" encoding="utf-8"?>
<!-- Generator: Adobe Illustrator 16.0.0, SVG Export Plug-In . SVG Version: 6.00 Build 0)  -->
<!DOCTYPE svg PUBLIC "-//W3C//DTD SVG 1.1//EN" "http://www.w3.org/Graphics/SVG/1.1/DTD/svg11.dtd">
<svg version="1.1" id="Calque_1" xmlns="http://www.w3.org/2000/svg" xmlns:xlink="http://www.w3.org/1999/xlink" x="0px" y="0px"
	 width="55.5px" height="86.714px" viewBox="0 0 55.5 86.714" enable-background="new 0 0 55.5 86.714" xml:space="preserve">
<g id="markers_x5F_V3">
	<g id="cafe_1_">
		<g>
			<g>
				<path fill="#8BB5C8" stroke="#FFFFFF" stroke-width="2" stroke-miterlimit="10" d="M27.75,82.335l-0.64-0.64
					c-0.079-0.079-6.396-5.917-12.632-14.312C6.004,56.112,1.687,45.878,1.687,37.004c0-14.393,11.673-26.064,26.063-26.064
					c14.391,0,26.062,11.672,26.062,26.064c0,8.875-4.316,19.108-12.711,30.462c-6.235,8.394-12.631,14.229-12.631,14.309
					L27.75,82.335z"/>
			</g>
		</g>
		<path fill="#FFFFFF" d="M36.742,20.858H19.999c-2.021,0-3.666,1.645-3.666,3.667v24.416c0,2.02,1.645,3.666,3.666,3.666h16.744
			c2.021,0,3.667-1.646,3.667-3.666V24.525C40.409,22.503,38.764,20.858,36.742,20.858z M19.999,21.941h16.744
			c1.424,0,2.583,1.159,2.583,2.584v3.428H17.414v-3.428C17.414,23.1,18.574,21.941,19.999,21.941z M36.742,51.525H19.999
			c-1.424,0-2.584-1.158-2.584-2.584V29.034h21.911v19.907C39.325,50.367,38.166,51.525,36.742,51.525z"/>
		<path fill="#FFFFFF" d="M19.713,26.947h4.632c0.676,0,1.225-0.549,1.225-1.224v-0.785c0-0.676-0.549-1.226-1.225-1.226h-4.632
			c-0.676,0-1.226,0.549-1.226,1.226v0.785C18.487,26.397,19.037,26.947,19.713,26.947z M19.57,24.938
			c0-0.079,0.064-0.144,0.144-0.144h4.632c0.079,0,0.143,0.063,0.143,0.144v0.785c0,0.078-0.064,0.142-0.143,0.142h-4.632
			c-0.08,0-0.144-0.064-0.144-0.142V24.938L19.57,24.938z"/>
		<path fill="#FFFFFF" d="M32.211,26.947c0.893,0,1.618-0.725,1.618-1.617s-0.728-1.617-1.618-1.617s-1.617,0.725-1.617,1.617
			S31.32,26.947,32.211,26.947z M32.211,24.794c0.295,0,0.536,0.241,0.536,0.536c0,0.294-0.241,0.533-0.536,0.533
			c-0.294,0-0.534-0.239-0.534-0.533C31.677,25.035,31.917,24.794,32.211,24.794z"/>
		<path fill="#FFFFFF" d="M36.615,26.947c0.892,0,1.615-0.725,1.615-1.617s-0.725-1.617-1.615-1.617
			c-0.893,0-1.618,0.725-1.618,1.617S35.723,26.947,36.615,26.947z M36.615,24.794c0.294,0,0.533,0.241,0.533,0.536
			c0,0.294-0.239,0.533-0.533,0.533c-0.295,0-0.534-0.239-0.534-0.533C36.081,25.035,36.32,24.794,36.615,24.794z"/>
		<path fill="#FFFFFF" d="M28.354,31.502c-4.75,0-8.612,3.864-8.612,8.616c0,4.749,3.864,8.613,8.612,8.613
			c4.75,0,8.613-3.864,8.613-8.613C36.967,35.366,33.104,31.502,28.354,31.502z M28.354,47.649c-4.152,0-7.532-3.378-7.532-7.531
			c0-4.155,3.379-7.533,7.532-7.533s7.533,3.378,7.533,7.533C35.887,44.271,32.506,47.649,28.354,47.649z"/>
		<path fill="#FFFFFF" d="M28.369,33.555c-3.616,0-6.559,2.944-6.559,6.562c0,0.035,0.005,0.069,0.006,0.105
			c-0.002,0.017-0.006,0.035-0.006,0.052c0,0.041,0.006,0.082,0.014,0.119c0.148,3.487,3.023,6.282,6.545,6.282
			c3.617,0,6.561-2.941,6.561-6.559C34.93,36.5,31.988,33.555,28.369,33.555z M28.369,34.639c2.906,0,5.283,2.275,5.461,5.137
			c-0.586,0.091-0.958,0.326-1.27,0.523c-0.344,0.22-0.617,0.395-1.209,0.395c-0.59,0-0.863-0.175-1.209-0.395
			c-0.394-0.253-0.884-0.564-1.793-0.564c-0.908,0-1.396,0.312-1.791,0.564c-0.344,0.22-0.617,0.395-1.209,0.395
			c-0.59,0-0.863-0.175-1.208-0.395c-0.304-0.195-0.667-0.424-1.233-0.519C23.086,36.917,25.464,34.639,28.369,34.639z
			 M28.369,45.595c-2.753,0-5.031-2.046-5.414-4.694c0.228,0.071,0.405,0.183,0.604,0.309c0.394,0.253,0.883,0.566,1.792,0.566
			c0.908,0,1.399-0.312,1.791-0.566c0.345-0.218,0.617-0.393,1.208-0.393c0.592,0,0.863,0.175,1.211,0.393
			c0.394,0.253,0.883,0.566,1.791,0.566s1.4-0.312,1.793-0.566c0.211-0.135,0.396-0.251,0.643-0.322
			C33.409,43.543,31.128,45.595,28.369,45.595z"/>
	</g>
</g>
</svg>
