<?xml version="1.0" encoding="utf-8"?>
<!-- Generator: Adobe Illustrator 16.0.0, SVG Export Plug-In . SVG Version: 6.00 Build 0)  -->
<!DOCTYPE svg PUBLIC "-//W3C//DTD SVG 1.1//EN" "http://www.w3.org/Graphics/SVG/1.1/DTD/svg11.dtd">
<svg version="1.1" xmlns="http://www.w3.org/2000/svg" xmlns:xlink="http://www.w3.org/1999/xlink" x="0px" y="0px" width="55.5px"
	 height="86.714px" viewBox="0 0 55.5 86.714" enable-background="new 0 0 55.5 86.714" xml:space="preserve">
<g id="Calque_1">
</g>
<g id="filters">
	<g id="bar_2_">
	</g>
	<g id="asso_1_">
		<g>
			<defs>
				<path id="SVGID_1_" d="M272.474-154.442c-0.763,0-1.526-0.283-2.11-0.85c-5.83-5.669-5.83-14.893,0-20.561l5.523-5.374
					c2.821-2.745,6.581-4.256,10.574-4.256c3.991,0,7.746,1.511,10.569,4.256c2.822,2.745,4.381,6.399,4.381,10.28
					c0,3.884-1.556,7.535-4.381,10.279c-1.169,1.136-3.054,1.136-4.217,0c-1.171-1.132-1.171-2.971,0-4.103
					c1.693-1.653,2.631-3.844,2.631-6.177c0-2.33-0.937-4.527-2.631-6.176c-3.396-3.3-9.312-3.3-12.707,0l-5.523,5.371
					c-3.501,3.407-3.501,8.945,0,12.354c1.166,1.132,1.166,2.966,0,4.102C274-154.726,273.235-154.442,272.474-154.442
					 M268.614-139.058c-3.992,0-7.745-1.517-10.57-4.262c-2.824-2.743-4.38-6.394-4.38-10.275c0-3.885,1.555-7.533,4.378-10.278
					c1.166-1.135,3.053-1.135,4.218,0c1.167,1.135,1.167,2.971,0,4.104c-1.697,1.647-2.633,3.845-2.633,6.176
					c0,2.333,0.936,4.524,2.633,6.175c3.396,3.297,9.312,3.297,12.704,0l5.073-4.93c1.694-1.648,2.629-3.842,2.629-6.175
					c0-2.331-0.934-4.525-2.629-6.177c-1.169-1.133-1.169-2.97,0-4.105c1.167-1.133,3.052-1.133,4.219,0
					c2.822,2.746,4.38,6.397,4.38,10.282s-1.553,7.535-4.38,10.275l-5.07,4.932C276.361-140.574,272.608-139.058,268.614-139.058"/>
			</defs>
			<clipPath id="SVGID_2_">
				<use xlink:href="#SVGID_1_"  overflow="visible"/>
			</clipPath>
			<g clip-path="url(#SVGID_2_)">
				<defs>
					<rect id="SVGID_3_" x="-109.885" y="-569.912" width="480.548" height="854.733"/>
				</defs>
				<clipPath id="SVGID_4_">
					<use xlink:href="#SVGID_3_"  overflow="visible"/>
				</clipPath>
			</g>
		</g>
	</g>
	<g id="biblio">
	</g>
	<g id="resto_1_">
		<g>
			<defs>
				<rect id="SVGID_9_" x="179.16" y="-190.271" width="14.22" height="53.756"/>
			</defs>
			<clipPath id="SVGID_6_">
				<use xlink:href="#SVGID_9_"  overflow="visible"/>
			</clipPath>
			<g clip-path="url(#SVGID_6_)">
				<defs>
					<rect id="SVGID_11_" x="-120.864" y="-574.421" width="485.835" height="864.138"/>
				</defs>
				<clipPath id="SVGID_8_">
					<use xlink:href="#SVGID_11_"  overflow="visible"/>
				</clipPath>
			</g>
		</g>
		<g>
			<defs>
				<rect id="SVGID_19_" x="155.572" y="-190.812" width="20.491" height="54.274"/>
			</defs>
			<clipPath id="SVGID_10_">
				<use xlink:href="#SVGID_19_"  overflow="visible"/>
			</clipPath>
			<g clip-path="url(#SVGID_10_)">
				<defs>
					<rect id="SVGID_21_" x="-120.864" y="-574.421" width="485.835" height="864.138"/>
				</defs>
				<clipPath id="SVGID_12_">
					<use xlink:href="#SVGID_21_"  overflow="visible"/>
				</clipPath>
			</g>
		</g>
	</g>
	<g id="snack_1_">
	</g>
	<g id="cafe">
		<g>
			<defs>
				<path id="SVGID_49_" d="M64.164-186.026c-0.861,0.01-1.123,0.472-1.446,1.02c-0.163,1.282,0.09,2.54,0.048,3.825
					c-0.028,0.439-0.147,0.825-0.063,0.653c-0.319,0.666-0.678,1.407-0.959,2.04c-0.64,1.15-0.575,2.63-0.41,3.778
					c0.324,1.086,0.871,2.074,1.369,3.108c0.326,0.755,1.342,1.125,2.095,0.779c0.754-0.343,1.102-1.339,0.728-2.068
					c-0.507-0.929-1.055-2.261-1.122-2.375c-0.18-1.061,0.108-1.882,0.146-1.946l0.976-2.025c0.32-0.681,0.324-1.192,0.359-1.785
					c0.015-1.313,0.047-2.764-0.227-3.971C65.206-185.567,64.736-186.004,64.164-186.026z M71.438-186.026
					c-0.864,0.01-1.121,0.472-1.447,1.02c-0.162,1.282,0.091,2.54,0.049,3.825c-0.026,0.439-0.147,0.825-0.065,0.653
					c-0.318,0.666-0.678,1.407-0.956,2.04c-0.639,1.15-0.573,2.63-0.409,3.778c0.32,1.086,0.87,2.074,1.364,3.108
					c0.327,0.755,1.341,1.125,2.094,0.779c0.753-0.343,1.106-1.339,0.732-2.068c-0.51-0.929-1.059-2.261-1.119-2.375
					c-0.183-1.061,0.104-1.882,0.144-1.946l0.975-2.025c0.324-0.681,0.326-1.192,0.358-1.785c0.016-1.313,0.048-2.764-0.229-3.971
					C72.48-185.567,72.013-186.004,71.438-186.026z M78.713-186.026c-0.861,0.01-1.122,0.472-1.447,1.02
					c-0.162,1.282,0.09,2.54,0.048,3.825c-0.025,0.439-0.147,0.825-0.062,0.653c-0.318,0.666-0.678,1.407-0.96,2.04
					c-0.635,1.15-0.568,2.63-0.404,3.778c0.319,1.086,0.869,2.074,1.364,3.108c0.327,0.755,1.338,1.125,2.094,0.779
					c0.757-0.343,1.105-1.339,0.73-2.068c-0.507-0.929-1.059-2.261-1.122-2.375c-0.178-1.061,0.105-1.882,0.151-1.946l0.971-2.025
					c0.324-0.681,0.324-1.192,0.359-1.785c0.016-1.313,0.048-2.764-0.229-3.971C79.752-185.567,79.288-186.004,78.713-186.026z
					 M52.484-169.692c-0.761,0.081-1.398,0.781-1.395,1.535c0,10.685,8.857,19.381,19.749,19.381c5.154,0,9.859-1.959,13.377-5.148
					c4.119-0.75,7.953-2.407,10.573-5.325c0.845-0.951,1.514-2.005,1.514-3.313c-0.203-3.582-2.396-5.28-5.457-5.601
					c0-1.021-1.038-1.535-1.82-1.528H52.484z M54.368-166.628h32.936c-0.798,8.295-7.802,14.79-16.465,14.79
					C62.17-151.838,55.167-158.333,54.368-166.628z M90.324-165.019c1.85,0.157,2.85,1.064,2.858,2.455
					c0,0.098-0.174,0.656-0.745,1.309c-1.427,1.448-3.013,2.443-4.763,3.2C88.984-160.146,89.904-162.502,90.324-165.019z
					 M53.526-148.282c-0.817,0.041-1.523,0.811-1.48,1.608c0.042,0.804,0.823,1.493,1.644,1.449h34.297
					c0.821,0.015,1.579-0.721,1.579-1.528c0-0.809-0.757-1.538-1.579-1.529H53.526z"/>
			</defs>
			<clipPath id="SVGID_14_">
				<use xlink:href="#SVGID_49_"  overflow="visible"/>
			</clipPath>
			<g clip-path="url(#SVGID_14_)">
				<defs>
					<rect id="SVGID_51_" x="-125.481" y="-569.706" width="480.312" height="854.296"/>
				</defs>
				<clipPath id="SVGID_16_">
					<use xlink:href="#SVGID_51_"  overflow="visible"/>
				</clipPath>
			</g>
		</g>
	</g>
</g>
<g id="V2">
	<g id="resto">
	</g>
	<g id="bar_1_">
	</g>
	<g id="resto-u">
	</g>
	<g id="asso">
	</g>
	<g id="bar">
	</g>
	<g id="bilbio">
	</g>
	<g id="snack">
	</g>
</g>
<g id="markers_x5F_V3">
	<g id="biblio_1_">
	</g>
	<g id="asso_2_">
	</g>
	<g id="cafe_1_">
	</g>
	<g id="bar_3_">
	</g>
	<g id="resto_2_">
		<g>
			<g>
				<path fill="#ED585F" stroke="#FFFFFF" stroke-width="2" stroke-miterlimit="10" d="M27.061,82.336l-0.64-0.639
					c-0.08-0.081-6.396-5.917-12.632-14.312C5.313,56.112,0.997,45.878,0.997,37.004c0-14.393,11.673-26.064,26.064-26.064
					s26.063,11.672,26.063,26.064c0,8.874-4.317,19.108-12.712,30.462C34.176,75.86,27.78,81.697,27.78,81.775L27.061,82.336z"/>
			</g>
		</g>
		<g>
			<path fill="#FFFFFF" d="M31.632,41.166v8.346c0,1.875,1.487,3.463,3.299,3.493c0.032,0,0.064,0,0.097,0
				c1.875,0,3.429-1.521,3.429-3.428v-5.921V34.18V24.119c0-1.326-1.1-2.426-2.426-2.426c-3.106,0-5.629,2.522-5.629,5.628v12.065
				C30.435,40.194,30.92,40.875,31.632,41.166z M36.02,23.603c0.592,0,1.091,0.498,1.091,1.09v9.692v9.131v5.703
				c0,1.121-0.904,2.057-2.057,2.057c-0.031,0-0.031,0-0.062,0c-1.122-0.031-1.995-0.997-1.995-2.119v-8.569
				c0-0.312-0.249-0.593-0.592-0.593c-0.312,0-0.592-0.249-0.592-0.592V27.777C31.844,25.472,33.714,23.603,36.02,23.603
				L36.02,23.603z"/>
			<path fill="#FFFFFF" d="M19.557,36.158l-0.539,13.279v0.03v0.033c0,1.925,1.725,3.492,3.845,3.492s3.845-1.567,3.845-3.492
				v-0.033v-0.03l-0.54-13.279c1.509-0.784,2.479-2.253,2.479-3.884v-8.938c0-1.077-0.97-1.957-2.156-1.957
				c-0.754,0-1.437,0.359-1.833,0.913c-0.359-0.554-1.006-0.913-1.796-0.913c-0.755,0-1.438,0.359-1.833,0.913
				c-0.396-0.554-1.043-0.913-1.833-0.913c-1.186,0-2.156,0.88-2.156,1.957v8.905C17.078,33.874,18.049,35.374,19.557,36.158z
				 M18.958,23.74c0-0.353,0.289-0.642,0.643-0.642l0,0c0.354,0,0.643,0.289,0.643,0.642v5.624c0,0.354,0.289,0.643,0.642,0.643
				h0.675c0.354,0,0.643-0.289,0.643-0.643V23.74c0-0.353,0.289-0.642,0.643-0.642l0,0c0.354,0,0.643,0.289,0.643,0.642v5.624
				c0,0.354,0.289,0.643,0.643,0.643h0.675c0.353,0,0.643-0.289,0.643-0.643V23.74c0-0.353,0.289-0.642,0.642-0.642
				c0.354,0,0.643,0.289,0.643,0.642v8.772c0,1.414-0.964,2.635-2.25,2.988l0.515,13.945c0,1.189-0.964,2.153-2.153,2.153l0,0
				c-1.189,0-2.152-0.964-2.152-2.153l0.514-13.945c-1.317-0.385-2.249-1.574-2.249-2.988V23.74L18.958,23.74z"/>
		</g>
	</g>
	<g id="snack_2_">
	</g>
	<g id="resto-u_1_">
	</g>
</g>
</svg>
