<?xml version="1.0" encoding="utf-8"?>
<!-- Generator: Adobe Illustrator 16.0.0, SVG Export Plug-In . SVG Version: 6.00 Build 0)  -->
<!DOCTYPE svg PUBLIC "-//W3C//DTD SVG 1.1//EN" "http://www.w3.org/Graphics/SVG/1.1/DTD/svg11.dtd">
<svg version="1.1" id="Calque_1" xmlns="http://www.w3.org/2000/svg" xmlns:xlink="http://www.w3.org/1999/xlink" x="0px" y="0px"
	 width="55.5px" height="86.714px" viewBox="0 0 55.5 86.714" enable-background="new 0 0 55.5 86.714" xml:space="preserve">
<g id="Calque_1_1_">
</g>
<g id="filters">
	<g id="bar_2_">
	</g>
	<g id="asso_1_">
		<g>
			<g>
				<defs>
					<path id="SVGID_1_" d="M272.475-154.442c-0.764,0-1.526-0.283-2.11-0.85c-5.83-5.669-5.83-14.893,0-20.561l5.522-5.374
						c2.821-2.745,6.581-4.256,10.574-4.256c3.991,0,7.746,1.511,10.569,4.256c2.821,2.745,4.381,6.399,4.381,10.28
						c0,3.884-1.556,7.535-4.381,10.279c-1.169,1.136-3.054,1.136-4.218,0c-1.17-1.132-1.17-2.971,0-4.103
						c1.693-1.653,2.631-3.844,2.631-6.177c0-2.33-0.937-4.527-2.631-6.176c-3.396-3.3-9.312-3.3-12.707,0l-5.522,5.371
						c-3.501,3.407-3.501,8.945,0,12.354c1.166,1.132,1.166,2.966,0,4.102C274-154.726,273.234-154.442,272.475-154.442
						 M268.614-139.058c-3.992,0-7.745-1.517-10.57-4.262c-2.823-2.743-4.38-6.394-4.38-10.275c0-3.885,1.555-7.533,4.378-10.278
						c1.166-1.135,3.054-1.135,4.218,0c1.167,1.135,1.167,2.971,0,4.104c-1.697,1.647-2.633,3.845-2.633,6.176
						c0,2.333,0.936,4.524,2.633,6.175c3.396,3.297,9.312,3.297,12.704,0l5.073-4.93c1.693-1.648,2.629-3.842,2.629-6.175
						c0-2.331-0.934-4.525-2.629-6.177c-1.169-1.133-1.169-2.97,0-4.105c1.167-1.133,3.052-1.133,4.219,0
						c2.822,2.746,4.38,6.397,4.38,10.282c0,3.885-1.553,7.535-4.38,10.275l-5.07,4.932
						C276.361-140.574,272.607-139.058,268.614-139.058"/>
				</defs>
				<clipPath id="SVGID_2_">
					<use xlink:href="#SVGID_1_"  overflow="visible"/>
				</clipPath>
			</g>
		</g>
	</g>
	<g id="biblio">
	</g>
	<g id="resto_1_">
		<g>
			<g>
				<defs>
					<rect id="SVGID_3_" x="179.16" y="-190.271" width="14.22" height="53.756"/>
				</defs>
				<clipPath id="SVGID_4_">
					<use xlink:href="#SVGID_3_"  overflow="visible"/>
				</clipPath>
			</g>
		</g>
		<g>
			<g>
				<defs>
					<rect id="SVGID_5_" x="155.572" y="-190.812" width="20.49" height="54.274"/>
				</defs>
				<clipPath id="SVGID_6_">
					<use xlink:href="#SVGID_5_"  overflow="visible"/>
				</clipPath>
			</g>
		</g>
	</g>
	<g id="snack_1_">
	</g>
	<g id="cafe">
		<g>
			<g>
				<defs>
					<path id="SVGID_7_" d="M64.164-186.026c-0.861,0.01-1.123,0.472-1.446,1.02c-0.163,1.282,0.091,2.54,0.048,3.825
						c-0.027,0.439-0.146,0.825-0.062,0.653c-0.319,0.666-0.678,1.407-0.959,2.04c-0.641,1.15-0.575,2.63-0.41,3.778
						c0.324,1.086,0.871,2.074,1.369,3.108c0.326,0.755,1.342,1.125,2.095,0.779c0.754-0.343,1.103-1.339,0.728-2.068
						c-0.506-0.929-1.055-2.261-1.121-2.375c-0.18-1.061,0.107-1.882,0.146-1.946l0.976-2.025c0.32-0.681,0.324-1.192,0.359-1.785
						c0.016-1.313,0.047-2.764-0.227-3.971C65.206-185.567,64.736-186.004,64.164-186.026z M71.438-186.026
						c-0.863,0.01-1.121,0.472-1.446,1.02c-0.162,1.282,0.091,2.54,0.049,3.825c-0.026,0.439-0.147,0.825-0.065,0.653
						c-0.317,0.666-0.678,1.407-0.955,2.04c-0.64,1.15-0.574,2.63-0.41,3.778c0.32,1.086,0.871,2.074,1.365,3.108
						c0.326,0.755,1.34,1.125,2.094,0.779c0.752-0.343,1.105-1.339,0.731-2.068c-0.51-0.929-1.059-2.261-1.118-2.375
						c-0.184-1.061,0.104-1.882,0.144-1.946l0.975-2.025c0.324-0.681,0.326-1.192,0.358-1.785c0.016-1.313,0.048-2.764-0.229-3.971
						C72.48-185.567,72.014-186.004,71.438-186.026z M78.713-186.026c-0.861,0.01-1.122,0.472-1.447,1.02
						c-0.162,1.282,0.09,2.54,0.049,3.825c-0.025,0.439-0.147,0.825-0.062,0.653c-0.318,0.666-0.678,1.407-0.96,2.04
						c-0.635,1.15-0.567,2.63-0.403,3.778c0.318,1.086,0.868,2.074,1.363,3.108c0.327,0.755,1.338,1.125,2.094,0.779
						c0.758-0.343,1.105-1.339,0.73-2.068c-0.508-0.929-1.059-2.261-1.122-2.375c-0.179-1.061,0.104-1.882,0.151-1.946l0.971-2.025
						c0.324-0.681,0.324-1.192,0.359-1.785c0.016-1.313,0.047-2.764-0.229-3.971C79.752-185.567,79.288-186.004,78.713-186.026z
						 M52.484-169.692c-0.762,0.081-1.398,0.781-1.396,1.535c0,10.685,8.856,19.381,19.749,19.381c5.154,0,9.859-1.959,13.377-5.148
						c4.119-0.75,7.953-2.407,10.573-5.325c0.845-0.951,1.514-2.005,1.514-3.313c-0.202-3.582-2.396-5.28-5.456-5.601
						c0-1.021-1.039-1.535-1.82-1.528L52.484-169.692L52.484-169.692z M54.368-166.628h32.937
						c-0.799,8.295-7.803,14.79-16.466,14.79C62.17-151.838,55.167-158.333,54.368-166.628z M90.324-165.019
						c1.85,0.157,2.85,1.064,2.857,2.455c0,0.098-0.174,0.656-0.744,1.309c-1.428,1.448-3.014,2.443-4.764,3.2
						C88.984-160.146,89.904-162.502,90.324-165.019z M53.525-148.282c-0.816,0.041-1.522,0.811-1.479,1.608
						c0.042,0.804,0.823,1.493,1.644,1.449h34.297c0.822,0.015,1.58-0.721,1.58-1.528c0-0.809-0.758-1.538-1.58-1.529H53.525z"/>
				</defs>
				<clipPath id="SVGID_8_">
					<use xlink:href="#SVGID_7_"  overflow="visible"/>
				</clipPath>
			</g>
		</g>
	</g>
</g>
<g id="V2">
	<g id="resto">
	</g>
	<g id="bar_1_">
	</g>
	<g id="resto-u">
	</g>
	<g id="asso">
	</g>
	<g id="bar">
	</g>
	<g id="bilbio">
	</g>
	<g id="snack">
	</g>
</g>
<g id="markers_x5F_V3">
	<g id="biblio_1_">
	</g>
	<g id="asso_2_">
	</g>
	<g id="cafe_1_">
	</g>
	<g id="bar_3_">
	</g>
	<g id="resto_2_">
		<g>
			<g>
				<path fill="#CD8BB8" stroke="#FFFFFF" stroke-width="2" stroke-miterlimit="10" d="M27.061,82.335l-0.64-0.639
					c-0.08-0.08-6.396-5.917-12.632-14.312C5.313,56.112,0.997,45.878,0.997,37.004c0-14.393,11.673-26.064,26.064-26.064
					s26.063,11.672,26.063,26.064c0,8.875-4.317,19.108-12.712,30.462C34.176,75.86,27.78,81.697,27.78,81.775L27.061,82.335z"/>
			</g>
		</g>
		<path fill="#FFFFFF" stroke="#FFFFFF" stroke-width="0.7" stroke-miterlimit="10" d="M26.683,20.356
			c-0.168,0.033-0.29,0.183-0.287,0.355v8.152c-4.763,0.142-8.818,3.105-10.587,7.289c-0.073,0.181,0.014,0.391,0.196,0.463
			c0.04,0.014,0.083,0.022,0.125,0.024h2.125v7.785H16.13c-0.011-0.003-0.021-0.003-0.032,0c-0.184,0.016-0.322,0.171-0.321,0.354
			v2.124h-1.771c-0.195,0-0.354,0.158-0.354,0.354v3.186c0,0.196,0.158,0.354,0.354,0.354H39.49c0.198,0,0.356-0.158,0.356-0.354
			v-3.186c0-0.195-0.158-0.354-0.356-0.354h-1.768v-2.124c0-0.197-0.159-0.354-0.354-0.354h-2.126V36.64h2.126
			c0.195-0.004,0.351-0.165,0.346-0.362c0-0.041-0.008-0.084-0.024-0.125c-1.768-4.183-5.824-7.147-10.585-7.289v-3.54
			c1.626,0.062,2.271,0.512,3.03,1.018c0.786,0.523,1.717,1.095,3.693,1.095c0.196,0,0.354-0.159,0.354-0.354v-4.247
			c0-0.197-0.158-0.354-0.354-0.354c-1.883,0-2.45-0.461-3.206-0.995c-0.76-0.535-1.691-1.129-3.873-1.129c-0.01,0-0.022,0-0.034,0
			C26.705,20.356,26.694,20.356,26.683,20.356z M27.104,21.086c1.752,0.059,2.421,0.483,3.116,0.974
			c0.697,0.491,1.521,1.033,3.254,1.106v3.54c-1.556-0.061-2.232-0.47-2.953-0.951c-0.756-0.503-1.627-1.072-3.417-1.139V21.086z
			 M26.75,29.559c4.43,0,8.232,2.608,10.043,6.372H16.707C18.518,32.167,22.318,29.559,26.75,29.559z M18.963,36.64h2.123v7.785
			h-2.123V36.64z M21.794,36.64h3.185v7.785h-3.185V36.64z M25.688,36.64h2.125v7.785h-2.125V36.64z M28.52,36.64h3.186v7.785H28.52
			V36.64z M32.413,36.64h2.123v7.785h-2.123V36.64z M16.484,45.131h20.532v2.124c0,0.196,0.156,0.356,0.352,0.356h1.771v2.478H14.36
			v-2.478h1.77c0.196,0,0.354-0.16,0.354-0.356V45.131z"/>
	</g>
	<g id="snack_2_">
	</g>
	<g id="resto-u_1_">
	</g>
</g>
</svg>
