<?xml version="1.0" encoding="utf-8"?>
<!-- Generator: Adobe Illustrator 16.0.0, SVG Export Plug-In . SVG Version: 6.00 Build 0)  -->
<!DOCTYPE svg PUBLIC "-//W3C//DTD SVG 1.1//EN" "http://www.w3.org/Graphics/SVG/1.1/DTD/svg11.dtd">
<svg version="1.1" id="Calque_1" xmlns="http://www.w3.org/2000/svg" xmlns:xlink="http://www.w3.org/1999/xlink" x="0px" y="0px"
	 width="55.5px" height="86.714px" viewBox="0 0 55.5 86.714" enable-background="new 0 0 55.5 86.714" xml:space="preserve">
<g id="Calque_1_1_">
</g>
<g id="filters">
	<g id="bar_2_">
	</g>
</g>
<g id="V2">
	<g id="resto">
	</g>
	<g id="bar_1_">
	</g>
	<g id="resto-u">
	</g>
	<g id="asso">
	</g>
	<g id="bar">
	</g>
	<g id="bilbio">
	</g>
	<g id="snack">
	</g>
</g>
<g id="markers_x5F_V3">
	<g id="biblio_1_">
		<g>
			<g>
				<path fill="#C8BD8B" stroke="#FFFFFF" stroke-width="2" stroke-miterlimit="10" d="M27.441,82.335l-0.64-0.64
					c-0.079-0.079-6.396-5.917-12.632-14.312C5.695,56.112,1.378,45.878,1.378,37.004c0-14.393,11.673-26.064,26.063-26.064
					s26.063,11.672,26.063,26.064c0,8.875-4.316,19.108-12.712,30.462c-6.235,8.395-12.632,14.229-12.632,14.31L27.441,82.335z"/>
			</g>
		</g>
	</g>
	<g id="asso_2_">
	</g>
	<g id="cafe_1_">
	</g>
	<g id="bar_3_">
	</g>
	<g id="resto_2_">
	</g>
	<g id="snack_2_">
	</g>
	<g id="resto-u_1_">
	</g>
</g>
<path fill="#FFFFFF" stroke="#FFFFFF" stroke-width="0.6" stroke-miterlimit="10" d="M39.193,25.894h-3.898v-4.288h-15.09v4.288
	h-3.898c-1.849,0-3.353,1.78-3.353,3.965v9.917c0,2.185,1.503,3.965,3.353,3.965h2.237c0.162,0,0.293-0.155,0.293-0.348
	c0-0.191-0.131-0.347-0.293-0.347h-2.237c-1.525,0-2.765-1.467-2.765-3.271v-9.917c0-1.803,1.24-3.271,2.765-3.271h3.898h15.09
	h3.898c1.525,0,2.766,1.468,2.766,3.271v9.917c0,1.803-1.24,3.271-2.766,3.271h-2.236c-0.16,0-0.293,0.154-0.293,0.347
	s0.133,0.348,0.293,0.348h2.236c1.849,0,3.353-1.78,3.353-3.965v-9.917C42.546,27.674,41.042,25.894,39.193,25.894z M20.792,25.894
	V22.3h13.916v3.594H20.792z"/>
<path fill="#FFFFFF" stroke="#FFFFFF" stroke-width="0.6" stroke-miterlimit="10" d="M33.204,34.47H22.296
	c-1.152,0-2.091,1.11-2.091,2.472v11.087h15.09V36.942C35.295,35.58,34.356,34.47,33.204,34.47z M34.707,47.334H20.792V36.942
	c0-0.98,0.675-1.777,1.504-1.777h10.908c0.829,0,1.504,0.797,1.504,1.777L34.707,47.334L34.707,47.334z"/>
<rect x="22.455" y="43.046" fill="#FFFFFF" stroke="#FFFFFF" stroke-width="0.6" stroke-miterlimit="10" width="10.591" height="0.694"/>
<rect x="22.455" y="38.759" fill="#FFFFFF" stroke="#FFFFFF" stroke-width="0.6" stroke-miterlimit="10" width="10.591" height="0.694"/>
</svg>
