<?xml version="1.0" encoding="utf-8"?>
<!-- Generator: Adobe Illustrator 16.0.0, SVG Export Plug-In . SVG Version: 6.00 Build 0)  -->
<!DOCTYPE svg PUBLIC "-//W3C//DTD SVG 1.1//EN" "http://www.w3.org/Graphics/SVG/1.1/DTD/svg11.dtd">
<svg version="1.1" id="Calque_1" xmlns="http://www.w3.org/2000/svg" xmlns:xlink="http://www.w3.org/1999/xlink" x="0px" y="0px"
	 width="55.5px" height="86.714px" viewBox="0 0 55.5 86.714" enable-background="new 0 0 55.5 86.714" xml:space="preserve">
<g id="Calque_1_1_">
</g>
<g id="filters">
	<g id="bar_2_">
	</g>
	<g id="asso_1_">
		<g>
			<g>
				<defs>
					<path id="SVGID_1_" d="M346.081-154.442c-0.763,0-1.526-0.283-2.11-0.85c-5.83-5.669-5.83-14.893,0-20.561l5.523-5.374
						c2.821-2.745,6.581-4.256,10.574-4.256c3.99,0,7.746,1.511,10.568,4.256s4.381,6.399,4.381,10.28
						c0,3.884-1.556,7.535-4.381,10.279c-1.169,1.136-3.054,1.136-4.217,0c-1.171-1.132-1.171-2.971,0-4.103
						c1.693-1.653,2.631-3.844,2.631-6.177c0-2.33-0.937-4.527-2.631-6.176c-3.396-3.3-9.312-3.3-12.707,0l-5.522,5.371
						c-3.501,3.407-3.501,8.945,0,12.354c1.166,1.132,1.166,2.966,0,4.102C347.607-154.726,346.842-154.442,346.081-154.442
						 M342.221-139.058c-3.992,0-7.745-1.517-10.569-4.262c-2.824-2.743-4.38-6.394-4.38-10.275c0-3.885,1.555-7.533,4.378-10.278
						c1.166-1.135,3.053-1.135,4.218,0c1.167,1.135,1.167,2.971,0,4.104c-1.697,1.647-2.633,3.845-2.633,6.176
						c0,2.333,0.936,4.524,2.633,6.175c3.396,3.297,9.312,3.297,12.704,0l5.072-4.93c1.694-1.648,2.63-3.842,2.63-6.175
						c0-2.331-0.935-4.525-2.63-6.177c-1.169-1.133-1.169-2.97,0-4.105c1.167-1.133,3.053-1.133,4.22,0
						c2.821,2.746,4.38,6.397,4.38,10.282c0,3.885-1.553,7.535-4.38,10.275l-5.07,4.932
						C349.968-140.574,346.215-139.058,342.221-139.058"/>
				</defs>
				<clipPath id="SVGID_2_">
					<use xlink:href="#SVGID_1_"  overflow="visible"/>
				</clipPath>
			</g>
		</g>
	</g>
	<g id="biblio">
	</g>
	<g id="resto_1_">
		<g>
			<g>
				<defs>
					<rect id="SVGID_3_" x="252.768" y="-190.271" width="14.219" height="53.756"/>
				</defs>
				<clipPath id="SVGID_4_">
					<use xlink:href="#SVGID_3_"  overflow="visible"/>
				</clipPath>
			</g>
		</g>
		<g>
			<g>
				<defs>
					<rect id="SVGID_5_" x="229.18" y="-190.812" width="20.49" height="54.274"/>
				</defs>
				<clipPath id="SVGID_6_">
					<use xlink:href="#SVGID_5_"  overflow="visible"/>
				</clipPath>
			</g>
		</g>
	</g>
	<g id="snack_1_">
	</g>
	<g id="cafe">
		<g>
			<g>
				<defs>
					<path id="SVGID_7_" d="M137.771-186.026c-0.861,0.01-1.123,0.472-1.446,1.02c-0.163,1.282,0.09,2.54,0.048,3.825
						c-0.027,0.439-0.146,0.825-0.062,0.653c-0.319,0.666-0.679,1.407-0.959,2.04c-0.641,1.15-0.576,2.63-0.41,3.778
						c0.324,1.086,0.871,2.074,1.369,3.108c0.326,0.755,1.342,1.125,2.094,0.779c0.755-0.343,1.103-1.339,0.729-2.068
						c-0.507-0.929-1.055-2.261-1.121-2.375c-0.181-1.061,0.107-1.882,0.146-1.946l0.976-2.025c0.32-0.681,0.324-1.192,0.359-1.785
						c0.015-1.313,0.047-2.764-0.227-3.971C138.812-185.567,138.343-186.004,137.771-186.026z M145.045-186.026
						c-0.863,0.01-1.121,0.472-1.447,1.02c-0.162,1.282,0.092,2.54,0.049,3.825c-0.025,0.439-0.146,0.825-0.064,0.653
						c-0.318,0.666-0.678,1.407-0.956,2.04c-0.64,1.15-0.573,2.63-0.409,3.778c0.32,1.086,0.87,2.074,1.364,3.108
						c0.327,0.755,1.341,1.125,2.094,0.779c0.753-0.343,1.106-1.339,0.732-2.068c-0.511-0.929-1.06-2.261-1.119-2.375
						c-0.183-1.061,0.104-1.882,0.144-1.946l0.976-2.025c0.323-0.681,0.325-1.192,0.358-1.785c0.016-1.313,0.047-2.764-0.229-3.971
						C146.087-185.567,145.62-186.004,145.045-186.026z M152.32-186.026c-0.861,0.01-1.122,0.472-1.447,1.02
						c-0.162,1.282,0.09,2.54,0.048,3.825c-0.024,0.439-0.147,0.825-0.062,0.653c-0.318,0.666-0.678,1.407-0.961,2.04
						c-0.635,1.15-0.567,2.63-0.403,3.778c0.319,1.086,0.868,2.074,1.364,3.108c0.326,0.755,1.338,1.125,2.094,0.779
						c0.757-0.343,1.105-1.339,0.73-2.068c-0.508-0.929-1.06-2.261-1.123-2.375c-0.178-1.061,0.105-1.882,0.151-1.946l0.972-2.025
						c0.323-0.681,0.323-1.192,0.358-1.785c0.017-1.313,0.048-2.764-0.229-3.971C153.359-185.567,152.895-186.004,152.32-186.026z
						 M126.091-169.692c-0.761,0.081-1.397,0.781-1.396,1.535c0,10.685,8.857,19.381,19.75,19.381c5.154,0,9.859-1.959,13.377-5.148
						c4.119-0.75,7.953-2.407,10.572-5.325c0.846-0.951,1.515-2.005,1.515-3.313c-0.203-3.582-2.396-5.28-5.457-5.601
						c0-1.021-1.038-1.535-1.82-1.528L126.091-169.692L126.091-169.692z M127.975-166.628h32.937
						c-0.798,8.295-7.802,14.79-16.466,14.79C135.777-151.838,128.773-158.333,127.975-166.628z M163.932-165.019
						c1.85,0.157,2.85,1.064,2.857,2.455c0,0.098-0.174,0.656-0.745,1.309c-1.427,1.448-3.013,2.443-4.763,3.2
						C162.591-160.146,163.512-162.502,163.932-165.019z M127.133-148.282c-0.816,0.041-1.523,0.811-1.48,1.608
						c0.043,0.804,0.824,1.493,1.645,1.449h34.297c0.821,0.015,1.579-0.721,1.579-1.528c0-0.809-0.757-1.538-1.579-1.529H127.133z"
						/>
				</defs>
				<clipPath id="SVGID_8_">
					<use xlink:href="#SVGID_7_"  overflow="visible"/>
				</clipPath>
			</g>
		</g>
	</g>
</g>
<g id="V2">
	<g id="resto">
	</g>
	<g id="bar_1_">
	</g>
	<g id="resto-u">
	</g>
	<g id="asso">
	</g>
	<g id="bar">
	</g>
	<g id="bilbio">
	</g>
	<g id="snack">
	</g>
</g>
<g id="markers_x5F_V3">
	<g id="biblio_1_">
	</g>
	<g id="asso_2_">
	</g>
	<g id="cafe_1_">
	</g>
	<g id="bar_3_">
		<g>
			<g>
				<path fill="#DA634D" stroke="#FFFFFF" stroke-width="2" stroke-miterlimit="10" d="M27.75,81.646l-0.64-0.639
					c-0.08-0.082-6.396-5.918-12.632-14.312C6.003,55.421,1.687,45.188,1.687,36.313c0-14.393,11.673-26.064,26.064-26.064
					c14.392,0,26.063,11.672,26.063,26.064c0,8.874-4.317,19.108-12.713,30.462c-6.235,8.395-12.631,14.232-12.631,14.311
					L27.75,81.646z"/>
			</g>
		</g>
		<path fill="#FFFFFF" d="M42.096,33.312h-4.359v-1.659c0.654-0.861,1.046-1.93,1.046-3.096c0-2.832-2.302-5.134-5.134-5.134
			c-0.556,0-1.105,0.092-1.631,0.269c-0.641-2.375-2.793-4.095-5.355-4.095c-2.515,0-4.646,1.648-5.329,3.974
			c-0.921-0.19-1.904-0.043-2.728,0.415c-0.928,0.513-1.604,1.361-1.899,2.38c-0.292,1.02-0.311,2.668,0.891,3.771v17.872
			c0,1.43,1.161,2.594,2.594,2.594h14.958c1.43,0,2.595-1.158,2.595-2.594v-1.775c0,0,5.219-4.12,5.219-12.066
			C42.956,33.695,42.572,33.312,42.096,33.312z M36.018,48.007c0,0.479-0.392,0.869-0.869,0.869H20.185
			c-0.475,0-0.867-0.392-0.867-0.869V31.255c0.665,0.214,1.403,0.249,2.094,0.092c0.707,1.91,2.549,3.247,4.649,3.247
			c1.69,0,3.235-0.874,4.137-2.234c0.928,0.848,2.143,1.331,3.442,1.331c0.83,0,1.641-0.202,2.362-0.58v14.896H36.018z
			 M33.648,31.962c-1.196,0-2.283-0.615-2.912-1.641c-0.178-0.295-0.508-0.452-0.85-0.41c-0.335,0.043-0.615,0.287-0.713,0.617
			c-0.396,1.378-1.679,2.338-3.113,2.338c-1.597,0-2.978-1.198-3.204-2.783c-0.042-0.281-0.214-0.519-0.464-0.647
			s-0.549-0.123-0.799,0.012c-0.72,0.392-1.612,0.343-2.29-0.092c-0.017-0.011-1.543-0.872-0.951-2.521
			c0.201-0.566,0.547-1.055,1.074-1.348c0.66-0.361,1.483-0.367,2.148-0.021c0.255,0.137,0.561,0.137,0.812-0.006
			c0.249-0.132,0.421-0.39,0.445-0.676c0.188-1.977,1.823-3.474,3.812-3.474c2.065,0,3.745,1.617,3.827,3.681
			c0.014,0.312,0.19,0.587,0.465,0.727c0.275,0.139,0.604,0.129,0.859-0.038c0.551-0.352,1.186-0.541,1.837-0.541
			c1.88,0,3.406,1.532,3.406,3.404C37.061,31.333,34.454,31.962,33.648,31.962z M37.736,43.724v-8.692h3.474
			C41.027,38.248,39.812,41.275,37.736,43.724z"/>
	</g>
	<g id="resto_2_">
	</g>
	<g id="snack_2_">
	</g>
	<g id="resto-u_1_">
	</g>
</g>
</svg>
