<?xml version="1.0" encoding="utf-8"?>
<!-- Generator: Adobe Illustrator 16.0.0, SVG Export Plug-In . SVG Version: 6.00 Build 0)  -->
<!DOCTYPE svg PUBLIC "-//W3C//DTD SVG 1.1//EN" "http://www.w3.org/Graphics/SVG/1.1/DTD/svg11.dtd">
<svg version="1.1" id="Calque_1" xmlns="http://www.w3.org/2000/svg" xmlns:xlink="http://www.w3.org/1999/xlink" x="0px" y="0px"
	 width="55.5px" height="86.714px" viewBox="0 0 55.5 86.714" enable-background="new 0 0 55.5 86.714" xml:space="preserve">
<g id="Calque_1_1_">
</g>
<g id="filters">
	<g id="bar_2_">
	</g>
	<g id="cafe">
	</g>
</g>
<g id="V2">
	<g id="resto">
	</g>
	<g id="bar_1_">
	</g>
	<g id="resto-u">
	</g>
	<g id="asso">
	</g>
	<g id="bar">
	</g>
	<g id="bilbio">
	</g>
	<g id="snack">
	</g>
</g>
<g id="markers_x5F_V3">
	<g id="biblio_1_">
	</g>
	<g id="asso_2_">
		<g>
			<g>
				<path fill="#DDDDDC" stroke="#FFFFFF" stroke-width="2" stroke-miterlimit="10" d="M27.75,81.406l-0.64-0.639
					c-0.079-0.081-6.396-5.917-12.632-14.312C6.004,55.183,1.687,44.949,1.687,36.074c0-14.393,11.673-26.064,26.063-26.064
					c14.391,0,26.062,11.672,26.062,26.064c0,8.875-4.316,19.108-12.711,30.462c-6.235,8.395-12.635,14.229-12.635,14.309
					L27.75,81.406z"/>
			</g>
		</g>
	</g>
	<g id="cafe_1_">
	</g>
	<g id="bar_3_">
	</g>
	<g id="resto_2_">
	</g>
	<g id="snack_2_">
	</g>
	<g id="resto-u_1_">
	</g>
</g>
<path fill="#FFFFFF" d="M43.667,22.671H11.833c-0.303,0-0.549,0.245-0.549,0.549v18.3c0,0.303,0.246,0.549,0.549,0.549h6.514
	c-0.2,0.49-0.229,0.971-0.074,1.404c0,0.003,0,0.005,0,0.005l0.714,2.005c0.004,0.009,0.009,0.017,0.013,0.021
	c0.351,0.943,1.485,1.478,3.096,1.478c0.22,0,0.448-0.011,0.684-0.03c0.806-0.066,1.647-0.248,2.507-0.535
	c0,0,0.002-0.002,0.003-0.002c0.002,0,0.004,0,0.008,0c0.006-0.002,0.011-0.006,0.018-0.01c0.005-0.001,0.009-0.002,0.015-0.004
	c0.05-0.018,0.104-0.035,0.157-0.055c0.497-0.178,0.961-0.389,1.405-0.616c0.859,0.79,2.223,1.457,3.887,1.838
	c0.021,0.009,0.038,0.017,0.06,0.021c0.012,0.002,0.025,0.002,0.037,0.004c0.055,0.013,0.105,0.025,0.161,0.037
	c0.776,0.162,1.55,0.242,2.276,0.242c0.633,0,1.229-0.062,1.765-0.186c0.956-0.223,1.646-0.63,2.012-1.176
	c0.101-0.076,0.177-0.188,0.205-0.322l0.062-0.295c0,0,0.002-0.006,0.004-0.008c0-0.002,0-0.006,0-0.008l0.433-2.083
	c0.122-0.582-0.071-1.171-0.503-1.726h6.378c0.306,0,0.549-0.247,0.549-0.55V23.22C44.216,22.916,43.973,22.671,43.667,22.671z
	 M17.875,38.816c-0.244-1.728-1.611-3.097-3.34-3.339v-6.216c1.729-0.242,3.098-1.61,3.341-3.339h19.749
	c0.242,1.729,1.609,3.098,3.341,3.339v6.216c-1.729,0.242-3.097,1.611-3.341,3.339h-8.874c-1.085-0.953-3.482-1.011-5.987-0.119
	c-0.101,0.034-0.204,0.075-0.318,0.119H17.875L17.875,38.816z M36.716,43.572c-0.114,0.552-1.172,1.112-2.973,1.112
	c-0.658,0-1.349-0.073-2.048-0.222c-1.307-0.271-2.479-0.754-3.299-1.362c-0.682-0.505-1.039-1.048-0.955-1.454
	c0.089-0.426,0.639-0.767,1.455-0.954c0.021-0.005,0.049-0.011,0.07-0.018c0.424-0.088,0.914-0.141,1.45-0.141
	c0.658,0,1.349,0.075,2.047,0.219C35.119,41.304,36.898,42.696,36.716,43.572z M22.774,39.866c0.116-0.046,0.233-0.091,0.356-0.135
	c2.389-0.852,4.409-0.673,4.974-0.013c0.015,0.017,0.025,0.033,0.037,0.051c-0.98,0.334-1.619,0.908-1.773,1.654l-0.222,1.07
	c-0.528,0.309-1.109,0.582-1.742,0.807c-2.55,0.911-4.79,0.649-5.097-0.19l-0.001-0.005c0,0,0-0.001-0.001-0.001
	c-0.11-0.318,0.044-0.757,0.438-1.235C20.36,41.116,21.456,40.39,22.774,39.866z M20.023,45.115
	c-0.001-0.005-0.003-0.006-0.004-0.011l-0.114-0.317c0.435,0.123,0.933,0.189,1.48,0.189c1.005,0,2.17-0.209,3.386-0.645
	c0.391-0.14,0.769-0.293,1.128-0.465c0,0.332,0.1,0.668,0.281,0.99c-0.239,0.115-0.486,0.223-0.742,0.323l-0.046-0.132
	c-0.103-0.285-0.417-0.436-0.702-0.332c-0.286,0.1-0.435,0.414-0.334,0.699l0.043,0.119c-0.442,0.125-0.876,0.215-1.3,0.271
	l-0.109-0.309c-0.103-0.285-0.417-0.435-0.702-0.332c-0.284,0.102-0.434,0.416-0.332,0.699l0.003,0.008
	C20.936,45.851,20.187,45.574,20.023,45.115z M34.83,46.617c-0.909,0.211-2.045,0.209-3.229,0l0.029-0.143
	c0.062-0.299-0.13-0.588-0.427-0.648c-0.296-0.062-0.588,0.129-0.647,0.426l-0.026,0.123c-0.451-0.129-0.87-0.279-1.25-0.445
	l0.067-0.32c0.061-0.296-0.131-0.585-0.429-0.646c-0.297-0.063-0.584,0.127-0.647,0.424l-0.002,0.012
	c-0.354-0.225-0.641-0.46-0.852-0.689c-0.006-0.008-0.011-0.012-0.016-0.018c-0.308-0.342-0.45-0.673-0.393-0.953l0.071-0.34
	c0.187,0.201,0.408,0.396,0.664,0.586c0.943,0.702,2.27,1.256,3.729,1.559c0.773,0.162,1.538,0.242,2.271,0.242
	c1.041,0,1.93-0.164,2.611-0.463l-0.072,0.35C36.193,46.072,35.652,46.423,34.83,46.617z M43.118,40.971h-7.082
	c-0.662-0.423-1.479-0.786-2.414-1.058h4.497c0.005,0,0.008,0.001,0.013,0.001c0.265,0,0.486-0.189,0.537-0.44
	c0.008-0.035,0.011-0.071,0.011-0.11c0,0,0,0,0-0.001c0.002-1.562,1.271-2.832,2.836-2.832c0.303,0,0.549-0.245,0.549-0.549v-7.226
	c0-0.302-0.246-0.548-0.549-0.548c-1.563,0-2.836-1.271-2.836-2.834c0-0.302-0.244-0.549-0.548-0.549H17.369
	c-0.303,0-0.549,0.247-0.549,0.549c0,1.563-1.271,2.834-2.834,2.834c-0.303,0-0.549,0.246-0.549,0.548v7.226
	c0,0.304,0.246,0.549,0.549,0.549c1.562,0,2.833,1.271,2.834,2.832c0,0.001,0,0.001,0,0.001c0,0.039,0.004,0.075,0.011,0.11
	c0.051,0.251,0.273,0.44,0.539,0.44c0.003,0,0.007-0.001,0.011-0.001h2.944c-0.49,0.33-0.911,0.689-1.249,1.058h-6.693V23.769
	h30.736L43.118,40.971L43.118,40.971z"/>
</svg>
