<?xml version="1.0" encoding="utf-8"?>
<!-- Generator: Adobe Illustrator 16.0.0, SVG Export Plug-In . SVG Version: 6.00 Build 0)  -->
<!DOCTYPE svg PUBLIC "-//W3C//DTD SVG 1.1//EN" "http://www.w3.org/Graphics/SVG/1.1/DTD/svg11.dtd">
<svg version="1.1" id="Calque_1" xmlns="http://www.w3.org/2000/svg" xmlns:xlink="http://www.w3.org/1999/xlink" x="0px" y="0px"
	 width="55.5px" height="86.714px" viewBox="0 0 55.5 86.714" enable-background="new 0 0 55.5 86.714" xml:space="preserve">
<g id="Calque_1_1_">
</g>
<g id="filters">
	<g id="bar_2_">
	</g>
	<g id="biblio">
	</g>
	<g id="snack_1_">
	</g>
</g>
<g id="V2">
	<g id="resto">
	</g>
	<g id="bar_1_">
	</g>
	<g id="resto-u">
	</g>
	<g id="asso">
	</g>
	<g id="bar">
	</g>
	<g id="bilbio">
	</g>
	<g id="snack">
	</g>
</g>
<g id="markers_x5F_V3">
	<g id="biblio_1_">
	</g>
	<g id="asso_2_">
	</g>
	<g id="cafe_1_">
	</g>
	<g id="bar_3_">
		<g>
			<g>
				<path fill="#CC8B97" stroke="#FFFFFF" stroke-width="2" stroke-miterlimit="10" d="M27.75,81.646l-0.64-0.639
					c-0.08-0.082-6.396-5.918-12.632-14.312C6.003,55.421,1.687,45.188,1.687,36.313c0-14.393,11.673-26.064,26.064-26.064
					c14.392,0,26.063,11.672,26.063,26.064c0,8.874-4.317,19.108-12.713,30.462c-6.235,8.395-12.631,14.232-12.631,14.311
					L27.75,81.646z"/>
			</g>
		</g>
		<path fill="#FFFFFF" stroke="#FFFFFF" stroke-miterlimit="10" d="M31.635,48.524h-7.77c-0.823,0-1.468-0.646-1.468-1.469v-7.483
			h-7.483c-0.822,0-1.468-0.645-1.468-1.468v-7.77c0-0.823,0.646-1.468,1.468-1.468h7.483v-7.482c0-0.824,0.645-1.468,1.468-1.468
			h7.77c0.823,0,1.468,0.644,1.468,1.468v7.482h7.483c0.822,0,1.468,0.645,1.468,1.468v7.77c0,0.823-0.646,1.468-1.468,1.468h-7.483
			v7.483C33.103,47.843,32.458,48.524,31.635,48.524z M14.914,29.369c-0.536,0-0.93,0.429-0.93,0.93v7.77
			c0,0.537,0.429,0.93,0.93,0.93h7.984v7.984c0,0.536,0.43,0.93,0.931,0.93h7.77c0.538,0,0.932-0.429,0.932-0.93v-7.949h7.983
			c0.537,0,0.932-0.429,0.932-0.931v-7.77c0-0.537-0.431-0.93-0.932-0.93h-7.948v-8.02c0-0.538-0.429-0.931-0.931-0.931h-7.77
			c-0.537,0-0.931,0.43-0.931,0.931v7.984H14.914z"/>
	</g>
	<g id="resto_2_">
	</g>
	<g id="snack_2_">
	</g>
	<g id="resto-u_1_">
	</g>
</g>
</svg>
