<?xml version="1.0" encoding="utf-8"?>
<!-- Generator: Adobe Illustrator 16.0.0, SVG Export Plug-In . SVG Version: 6.00 Build 0)  -->
<!DOCTYPE svg PUBLIC "-//W3C//DTD SVG 1.1//EN" "http://www.w3.org/Graphics/SVG/1.1/DTD/svg11.dtd">
<svg version="1.1" id="Calque_1" xmlns="http://www.w3.org/2000/svg" xmlns:xlink="http://www.w3.org/1999/xlink" x="0px" y="0px"
	 width="55.5px" height="86.714px" viewBox="0 0 55.5 86.714" enable-background="new 0 0 55.5 86.714" xml:space="preserve">
<g id="Calque_1_1_">
</g>
<g id="filters">
	<g id="bar_2_">
	</g>
	<g id="asso_1_">
		<g>
			<g>
				<defs>
					<path id="SVGID_1_" d="M-88.315-154.442c-0.763,0-1.526-0.283-2.11-0.85c-5.83-5.669-5.83-14.893,0-20.561l5.523-5.374
						c2.821-2.745,6.581-4.256,10.574-4.256c3.991,0,7.746,1.511,10.569,4.256c2.822,2.745,4.381,6.399,4.381,10.28
						c0,3.884-1.556,7.535-4.381,10.279c-1.169,1.136-3.054,1.136-4.217,0c-1.171-1.132-1.171-2.971,0-4.103
						c1.693-1.653,2.631-3.844,2.631-6.177c0-2.33-0.937-4.527-2.631-6.176c-3.396-3.3-9.312-3.3-12.707,0l-5.523,5.371
						c-3.501,3.407-3.501,8.945,0,12.354c1.166,1.132,1.166,2.966,0,4.102C-86.789-154.726-87.555-154.442-88.315-154.442
						 M-92.176-139.058c-3.992,0-7.745-1.517-10.57-4.262c-2.824-2.743-4.38-6.394-4.38-10.275c0-3.885,1.555-7.533,4.378-10.278
						c1.166-1.135,3.053-1.135,4.218,0c1.167,1.135,1.167,2.971,0,4.104c-1.697,1.647-2.633,3.845-2.633,6.176
						c0,2.333,0.936,4.524,2.633,6.175c3.396,3.297,9.312,3.297,12.704,0l5.073-4.93c1.694-1.648,2.629-3.842,2.629-6.175
						c0-2.331-0.934-4.525-2.629-6.177c-1.169-1.133-1.169-2.97,0-4.105c1.167-1.133,3.052-1.133,4.219,0
						c2.822,2.746,4.38,6.397,4.38,10.282c0,3.885-1.553,7.535-4.38,10.275l-5.07,4.932
						C-84.429-140.574-88.182-139.058-92.176-139.058"/>
				</defs>
				<clipPath id="SVGID_2_">
					<use xlink:href="#SVGID_1_"  overflow="visible"/>
				</clipPath>
			</g>
		</g>
	</g>
	<g id="biblio">
		<g>
			<g>
				<defs>
					<path id="SVGID_3_" d="M109.816-181.909c-4.109,0-8.252,1.457-12.363,4.179c-0.497,0.333-0.775,0.88-0.775,1.424v30.276
						c0,0.634,0.405,1.271,1.025,1.544c0.595,0.272,1.341,0.181,1.87-0.24c5.262-4.302,11.549-4.727,19.956,0.149
						c0.562,0.331,1.277,0.303,1.808,0c4.265-2.513,7.349-3.633,10.212-3.633c2.896-0.03,5.824,1.06,9.867,3.6
						c1.062,0.669,2.709-0.209,2.709-1.42v-30.276c0-0.544-0.277-1.06-0.712-1.392c-3.894-2.754-7.91-4.211-12.021-4.211
						c-3.733,0-7.44,1.271-11.021,3.574C116.945-180.271,113.583-181.909,109.816-181.909 M109.816-178.487
						c2.99,0,5.914,0.967,8.842,3.059v26.552c-6.881-3.207-13.232-3.207-18.463-0.363v-26.036
						C103.589-177.397,106.796-178.487,109.816-178.487 M131.393-178.487c2.991,0,6.043,1.09,9.215,3.179
						c0,11.505,0.031,15.987,0.031,26.464c-3.173-1.669-6.133-2.819-9.09-2.787c-3.023,0-6.041,1.06-9.374,2.755v-26.552
						C125.137-177.065,128.466-178.458,131.393-178.487 M109.412-174.311c-2.369,0-4.732,0.669-7.037,1.999
						c-0.402,0.244-0.561,0.787-0.311,1.182c0.219,0.395,0.81,0.515,1.213,0.302c2.089-1.211,4.109-1.815,6.135-1.815
						c2.023,0,4.045,0.604,6.134,1.815c0.406,0.213,0.964,0.093,1.216-0.302c0.246-0.395,0.094-0.938-0.314-1.182
						C114.145-173.642,111.777-174.311,109.412-174.311 M131.393-174.311c-2.365,0-4.733,0.669-7.064,1.999
						c-0.375,0.244-0.53,0.787-0.282,1.182c0.22,0.395,0.808,0.515,1.185,0.302c2.086-1.211,4.107-1.815,6.131-1.815
						c2.025,0,4.082,0.604,6.164,1.815c0.408,0.213,0.968,0.093,1.217-0.302c0.217-0.395,0.094-0.938-0.311-1.182
						C136.125-173.642,133.76-174.311,131.393-174.311 M109.412-169.162c-2.369,0-4.732,0.636-7.037,1.999
						c-0.402,0.213-0.561,0.785-0.311,1.149c0.219,0.396,0.81,0.545,1.213,0.303c2.054-1.21,4.08-1.817,6.072-1.817
						c2.055,0,4.106,0.607,6.195,1.817c0.406,0.242,0.964,0.093,1.215-0.303c0.247-0.364,0.094-0.937-0.314-1.149
						C114.145-168.526,111.777-169.162,109.412-169.162 M131.393-169.162c-2.365,0-4.733,0.636-7.064,1.999
						c-0.375,0.213-0.53,0.785-0.282,1.149c0.22,0.396,0.808,0.545,1.185,0.303c2.086-1.21,4.107-1.817,6.131-1.817
						c2.025,0,4.082,0.607,6.164,1.817c0.408,0.242,0.968,0.093,1.217-0.303c0.217-0.364,0.094-0.937-0.311-1.149
						C136.125-168.526,133.76-169.162,131.393-169.162 M109.412-164.047c-2.369,0-4.732,0.636-7.037,1.999
						c-0.402,0.242-0.561,0.788-0.311,1.182c0.219,0.363,0.81,0.516,1.213,0.272c2.023-1.181,4.019-1.785,6.009-1.817
						c2.053-0.029,4.142,0.578,6.26,1.817c0.406,0.243,0.964,0.091,1.216-0.272c0.246-0.394,0.094-0.939-0.314-1.182
						C114.145-163.411,111.777-164.047,109.412-164.047 M131.393-164.047c-2.365,0-4.733,0.636-7.064,1.999
						c-0.375,0.242-0.53,0.788-0.282,1.182c0.22,0.363,0.808,0.516,1.185,0.272c2.053-1.181,4.047-1.785,6.039-1.817
						c2.059-0.029,4.109,0.578,6.256,1.817c0.408,0.243,0.968,0.091,1.217-0.272c0.217-0.394,0.094-0.939-0.311-1.182
						C136.125-163.411,133.76-164.047,131.393-164.047 M109.412-158.929c-2.369,0-4.732,0.664-7.037,1.999
						c-0.402,0.239-0.561,0.788-0.311,1.183c0.219,0.39,0.81,0.512,1.213,0.299c2.089-1.242,4.109-1.847,6.164-1.847
						c2.023,0.031,4.016,0.638,6.104,1.847c0.406,0.213,0.964,0.091,1.215-0.299c0.247-0.395,0.094-0.943-0.314-1.183
						C114.145-158.265,111.777-158.929,109.412-158.929 M131.393-158.929c-2.365,0-4.733,0.664-7.064,1.999
						c-0.375,0.239-0.53,0.788-0.282,1.183c0.22,0.39,0.808,0.512,1.185,0.299c2.053-1.178,4.015-1.786,5.979-1.847
						c2.085-0.029,4.171,0.578,6.316,1.847c0.408,0.213,0.968,0.091,1.217-0.299c0.217-0.395,0.094-0.943-0.311-1.183
						C136.125-158.265,133.76-158.929,131.393-158.929"/>
				</defs>
				<clipPath id="SVGID_4_">
					<use xlink:href="#SVGID_3_"  overflow="visible"/>
				</clipPath>
			</g>
		</g>
	</g>
	<g id="resto_1_">
		<g>
			<g>
				<defs>
					<rect id="SVGID_5_" x="-181.63" y="-190.271" width="14.22" height="53.756"/>
				</defs>
				<clipPath id="SVGID_6_">
					<use xlink:href="#SVGID_5_"  overflow="visible"/>
				</clipPath>
			</g>
		</g>
		<g>
			<g>
				<defs>
					<rect id="SVGID_7_" x="-205.218" y="-190.812" width="20.491" height="54.274"/>
				</defs>
				<clipPath id="SVGID_8_">
					<use xlink:href="#SVGID_7_"  overflow="visible"/>
				</clipPath>
			</g>
		</g>
	</g>
	<g id="snack_1_">
		<g>
			<g>
				<defs>
					<path id="SVGID_9_" d="M13.578-151.313c-4.728,0-8.571-3.701-8.571-8.254c0-4.555,3.846-8.259,8.571-8.259
						c4.728,0,8.571,3.704,8.571,8.259C22.149-155.015,18.306-151.313,13.578-151.313z M13.578-165.78
						c-3.555,0-6.446,2.787-6.446,6.213c0,3.423,2.892,6.208,6.446,6.208c3.556,0,6.447-2.785,6.447-6.208
						C20.025-162.993,17.134-165.78,13.578-165.78z"/>
				</defs>
				<clipPath id="SVGID_10_">
					<use xlink:href="#SVGID_9_"  overflow="visible"/>
				</clipPath>
			</g>
		</g>
		<g>
			<g>
				<defs>
					<path id="SVGID_11_" d="M0-141.213h27.154v-35.354H0V-141.213z M2.126-143.26h22.905v-31.264H2.126V-143.26z"/>
				</defs>
				<clipPath id="SVGID_12_">
					<use xlink:href="#SVGID_11_"  overflow="visible"/>
				</clipPath>
			</g>
		</g>
		<g>
			<g>
				<defs>
					<path id="SVGID_13_" d="M23.621-137.597H3.535l-2.94-5.663H26.56L23.621-137.597z M4.849-139.644h17.459l0.815-1.569H4.034
						L4.849-139.644z"/>
				</defs>
				<clipPath id="SVGID_14_">
					<use xlink:href="#SVGID_13_"  overflow="visible"/>
				</clipPath>
			</g>
		</g>
		<g>
			<g>
				<defs>
					<path id="SVGID_15_" d="M26.528-174.521H0.626l2.896-5.813h20.109L26.528-174.521z M4.002-176.566h19.152l-0.859-1.722H4.86
						L4.002-176.566z"/>
				</defs>
				<clipPath id="SVGID_16_">
					<use xlink:href="#SVGID_15_"  overflow="visible"/>
				</clipPath>
			</g>
		</g>
		<g>
			<g>
				<defs>
					<path id="SVGID_17_" d="M19.379-179.073l-2.022-0.627l1.86-5.574c0.47-1.645,2.075-2.822,3.89-2.822h8.167v2.044h-8.167
						c-0.862,0-1.626,0.562-1.854,1.364L19.379-179.073z"/>
				</defs>
				<clipPath id="SVGID_18_">
					<use xlink:href="#SVGID_17_"  overflow="visible"/>
				</clipPath>
			</g>
		</g>
	</g>
	<g id="cafe">
	</g>
</g>
<g id="V2">
	<g id="resto">
	</g>
	<g id="bar_1_">
	</g>
	<g id="resto-u">
	</g>
	<g id="asso">
	</g>
	<g id="bar">
	</g>
	<g id="bilbio">
	</g>
	<g id="snack">
	</g>
</g>
<g id="markers_x5F_V3">
	<g id="biblio_1_">
	</g>
	<g id="asso_2_">
		<g>
			<g>
				<path fill="#8C97C9" stroke="#FFFFFF" stroke-width="2" stroke-miterlimit="10" d="M27.75,81.406l-0.64-0.639
					c-0.079-0.081-6.396-5.917-12.632-14.312C6.004,55.183,1.687,44.949,1.687,36.074c0-14.393,11.673-26.064,26.063-26.064
					c14.391,0,26.062,11.672,26.062,26.064c0,8.875-4.316,19.108-12.711,30.462c-6.235,8.395-12.633,14.23-12.633,14.31
					L27.75,81.406z"/>
			</g>
		</g>
		<path fill="#FFFFFF" stroke="#FFFFFF" stroke-width="0.5" stroke-miterlimit="10" d="M26.526,39.98
			c0.429,0.174,0.572,0.65,0.382,1.047c-0.191,0.398-0.652,0.59-1.05,0.383h-0.016c-0.732-0.334-1.416-0.811-2.02-1.43
			c-2.799-2.783-2.799-7.315,0-10.113l5.612-5.613c2.799-2.799,7.33-2.799,10.112,0c2.798,2.783,2.798,7.314,0,10.112l-2.592,2.592
			l-0.237-2.003l1.717-1.718c2.162-2.162,2.162-5.692,0-7.87c-2.18-2.162-5.707-2.162-7.871,0l-5.628,5.629
			c-2.162,2.162-2.162,5.691,0,7.869C25.413,39.343,25.954,39.709,26.526,39.98L26.526,39.98 M15.952,47.846
			c-2.798-2.78-2.798-7.31,0-10.108l2.592-2.592l0.239,2.003l-1.718,1.717c-2.162,2.162-2.162,5.69,0,7.869
			c2.178,2.162,5.708,2.162,7.87,0l5.629-5.625c2.162-2.164,2.162-5.693,0-7.872c-0.479-0.478-1.019-0.843-1.59-1.112v0.016
			c-0.431-0.191-0.574-0.668-0.383-1.065c0.19-0.397,0.652-0.589,1.049-0.382h0.018c0.73,0.334,1.415,0.811,2.02,1.432
			c2.799,2.782,2.799,7.314,0,10.111l-5.613,5.609C23.266,50.644,18.734,50.644,15.952,47.846z"/>
	</g>
	<g id="cafe_1_">
	</g>
	<g id="bar_3_">
	</g>
	<g id="resto_2_">
	</g>
	<g id="snack_2_">
	</g>
	<g id="resto-u_1_">
	</g>
</g>
</svg>
