<?xml version="1.0" encoding="utf-8"?>
<!-- Generator: Adobe Illustrator 16.0.0, SVG Export Plug-In . SVG Version: 6.00 Build 0)  -->
<!DOCTYPE svg PUBLIC "-//W3C//DTD SVG 1.1//EN" "http://www.w3.org/Graphics/SVG/1.1/DTD/svg11.dtd">
<svg version="1.1" id="Calque_1" xmlns="http://www.w3.org/2000/svg" xmlns:xlink="http://www.w3.org/1999/xlink" x="0px" y="0px"
	 width="55.5px" height="86.714px" viewBox="0 0 55.5 86.714" enable-background="new 0 0 55.5 86.714" xml:space="preserve">
<g id="Calque_1_1_">
</g>
<g id="filters">
	<g id="bar_2_">
	</g>
	<g id="asso_1_">
		<g>
			<g>
				<defs>
					<path id="SVGID_1_" d="M272.475-154.442c-0.764,0-1.526-0.283-2.11-0.85c-5.83-5.669-5.83-14.893,0-20.561l5.522-5.374
						c2.821-2.745,6.581-4.256,10.574-4.256c3.991,0,7.746,1.511,10.569,4.256c2.821,2.745,4.381,6.399,4.381,10.28
						c0,3.884-1.556,7.535-4.381,10.279c-1.169,1.136-3.054,1.136-4.218,0c-1.17-1.132-1.17-2.971,0-4.103
						c1.693-1.653,2.632-3.844,2.632-6.177c0-2.33-0.938-4.527-2.632-6.176c-3.396-3.3-9.312-3.3-12.707,0l-5.522,5.371
						c-3.501,3.407-3.501,8.945,0,12.354c1.166,1.132,1.166,2.966,0,4.102C274-154.726,273.234-154.442,272.475-154.442
						 M268.614-139.058c-3.992,0-7.745-1.517-10.57-4.262c-2.824-2.743-4.38-6.394-4.38-10.275c0-3.885,1.555-7.533,4.378-10.278
						c1.166-1.135,3.053-1.135,4.218,0c1.167,1.135,1.167,2.971,0,4.104c-1.697,1.647-2.633,3.845-2.633,6.176
						c0,2.333,0.936,4.524,2.633,6.175c3.396,3.297,9.312,3.297,12.704,0l5.073-4.93c1.693-1.648,2.629-3.842,2.629-6.175
						c0-2.331-0.934-4.525-2.629-6.177c-1.169-1.133-1.169-2.97,0-4.104c1.167-1.133,3.052-1.133,4.219,0
						c2.822,2.746,4.38,6.396,4.38,10.282s-1.553,7.535-4.38,10.275l-5.07,4.932C276.361-140.574,272.607-139.058,268.614-139.058"
						/>
				</defs>
				<clipPath id="SVGID_2_">
					<use xlink:href="#SVGID_1_"  overflow="visible"/>
				</clipPath>
			</g>
		</g>
	</g>
	<g id="biblio">
	</g>
	<g id="resto_1_">
		<g>
			<g>
				<defs>
					<rect id="SVGID_3_" x="179.16" y="-190.271" width="14.22" height="53.756"/>
				</defs>
				<clipPath id="SVGID_4_">
					<use xlink:href="#SVGID_3_"  overflow="visible"/>
				</clipPath>
			</g>
		</g>
		<g>
			<g>
				<defs>
					<rect id="SVGID_5_" x="155.572" y="-190.812" width="20.49" height="54.274"/>
				</defs>
				<clipPath id="SVGID_6_">
					<use xlink:href="#SVGID_5_"  overflow="visible"/>
				</clipPath>
			</g>
		</g>
	</g>
	<g id="snack_1_">
	</g>
	<g id="cafe">
		<g>
			<g>
				<defs>
					<path id="SVGID_7_" d="M64.164-186.026c-0.861,0.01-1.123,0.472-1.446,1.02c-0.163,1.282,0.091,2.54,0.048,3.825
						c-0.027,0.439-0.146,0.825-0.062,0.653c-0.319,0.666-0.678,1.407-0.959,2.04c-0.641,1.15-0.575,2.63-0.41,3.778
						c0.324,1.086,0.871,2.074,1.369,3.108c0.326,0.755,1.342,1.125,2.095,0.779c0.754-0.343,1.103-1.339,0.728-2.068
						c-0.506-0.929-1.055-2.261-1.121-2.375c-0.18-1.061,0.107-1.882,0.146-1.946l0.976-2.025c0.32-0.681,0.324-1.192,0.359-1.785
						c0.016-1.313,0.047-2.764-0.227-3.971C65.206-185.567,64.736-186.004,64.164-186.026z M71.438-186.026
						c-0.863,0.01-1.121,0.472-1.446,1.02c-0.162,1.282,0.091,2.54,0.049,3.825c-0.026,0.439-0.147,0.825-0.065,0.653
						c-0.317,0.666-0.678,1.407-0.955,2.04c-0.64,1.15-0.574,2.63-0.41,3.778c0.32,1.086,0.871,2.074,1.365,3.108
						c0.326,0.755,1.34,1.125,2.094,0.779c0.752-0.343,1.105-1.339,0.731-2.068c-0.51-0.929-1.059-2.261-1.118-2.375
						c-0.184-1.061,0.104-1.882,0.144-1.946l0.975-2.025c0.324-0.681,0.326-1.192,0.358-1.785c0.016-1.313,0.048-2.764-0.229-3.971
						C72.48-185.567,72.014-186.004,71.438-186.026z M78.713-186.026c-0.861,0.01-1.122,0.472-1.447,1.02
						c-0.162,1.282,0.09,2.54,0.049,3.825c-0.025,0.439-0.147,0.825-0.062,0.653c-0.318,0.666-0.678,1.407-0.96,2.04
						c-0.635,1.15-0.567,2.63-0.403,3.778c0.318,1.086,0.868,2.074,1.363,3.108c0.327,0.755,1.338,1.125,2.094,0.779
						c0.758-0.343,1.105-1.339,0.73-2.068c-0.508-0.929-1.059-2.261-1.122-2.375c-0.179-1.061,0.104-1.882,0.151-1.946l0.971-2.025
						c0.324-0.681,0.324-1.192,0.359-1.785c0.016-1.313,0.047-2.764-0.229-3.971C79.752-185.567,79.288-186.004,78.713-186.026z
						 M52.484-169.692c-0.762,0.081-1.398,0.781-1.396,1.535c0,10.685,8.856,19.381,19.749,19.381c5.154,0,9.859-1.959,13.377-5.148
						c4.119-0.75,7.953-2.407,10.573-5.325c0.845-0.951,1.514-2.005,1.514-3.313c-0.202-3.582-2.396-5.28-5.457-5.601
						c0-1.021-1.038-1.535-1.819-1.528L52.484-169.692L52.484-169.692z M54.368-166.628h32.937
						c-0.799,8.295-7.803,14.79-16.466,14.79C62.17-151.838,55.167-158.333,54.368-166.628z M90.324-165.019
						c1.85,0.157,2.85,1.064,2.857,2.455c0,0.098-0.174,0.656-0.744,1.309c-1.428,1.448-3.014,2.443-4.764,3.2
						C88.984-160.146,89.904-162.502,90.324-165.019z M53.525-148.282c-0.816,0.041-1.522,0.812-1.479,1.608
						c0.042,0.804,0.823,1.493,1.644,1.449h34.297c0.822,0.015,1.58-0.721,1.58-1.528c0-0.809-0.758-1.538-1.58-1.529H53.525z"/>
				</defs>
				<clipPath id="SVGID_8_">
					<use xlink:href="#SVGID_7_"  overflow="visible"/>
				</clipPath>
			</g>
		</g>
	</g>
</g>
<g id="V2">
	<g id="resto">
	</g>
	<g id="bar_1_">
	</g>
	<g id="resto-u">
	</g>
	<g id="asso">
	</g>
	<g id="bar">
	</g>
	<g id="bilbio">
	</g>
	<g id="snack">
	</g>
</g>
<g id="markers_x5F_V3">
	<g id="biblio_1_">
	</g>
	<g id="asso_2_">
	</g>
	<g id="cafe_1_">
	</g>
	<g id="bar_3_">
	</g>
	<g id="resto_2_">
		<g>
			<g>
				<path fill="#97CC8B" stroke="#FFFFFF" stroke-width="2" stroke-miterlimit="10" d="M27.061,82.335l-0.64-0.639
					c-0.08-0.08-6.396-5.916-12.632-14.312C5.313,56.113,0.997,45.878,0.997,37.004c0-14.393,11.673-26.064,26.064-26.064
					s26.063,11.672,26.063,26.064c0,8.875-4.317,19.109-12.712,30.462C34.176,75.86,27.78,81.697,27.78,81.775L27.061,82.335z"/>
			</g>
		</g>
	</g>
	<g id="snack_2_">
	</g>
	<g id="resto-u_1_">
	</g>
</g>
<path fill="#FFFFFF" d="M27.751,53.563c-0.073,0-0.146-0.015-0.215-0.044c-8.028-3.443-16.624-12.316-16.624-20.052
	c0-7.038,4.511-10.189,8.982-10.189c3.205,0,6.569,1.742,7.857,5.024c1.287-3.282,4.649-5.024,7.854-5.024
	c4.472,0,8.982,3.151,8.982,10.189c0,7.735-8.596,16.608-16.624,20.052C27.896,53.548,27.823,53.563,27.751,53.563z M19.894,24.365
	c-3.93,0-7.896,2.814-7.896,9.103c0,7.13,8.255,15.653,15.752,18.959c7.495-3.306,15.751-11.829,15.751-18.959
	c0-6.289-3.966-9.103-7.896-9.103c-3.635,0-7.312,2.381-7.312,6.932c0,0.299-0.243,0.542-0.542,0.542
	c-0.3,0-0.543-0.243-0.543-0.542C27.208,26.746,23.528,24.365,19.894,24.365z M31.301,39.403l-1.637-0.817l1.951-4.877
	c0.123-0.31-0.007-0.662-0.304-0.818c-0.294-0.154-0.658-0.062-0.844,0.216l-4.346,6.519c-0.101,0.151-0.134,0.335-0.091,0.514
	c0.042,0.175,0.158,0.325,0.315,0.416l1.67,0.935l-1.955,4.763c-0.127,0.311,0.001,0.665,0.297,0.826
	c0.097,0.049,0.201,0.074,0.305,0.074c0.211,0,0.417-0.103,0.542-0.29l4.345-6.517c0.104-0.156,0.138-0.347,0.088-0.528
	C31.592,39.639,31.469,39.488,31.301,39.403z"/>
</svg>
