<?xml version="1.0" encoding="utf-8"?>
<!-- Generator: Adobe Illustrator 16.0.0, SVG Export Plug-In . SVG Version: 6.00 Build 0)  -->
<!DOCTYPE svg PUBLIC "-//W3C//DTD SVG 1.1//EN" "http://www.w3.org/Graphics/SVG/1.1/DTD/svg11.dtd">
<svg version="1.1" id="Calque_1" xmlns="http://www.w3.org/2000/svg" xmlns:xlink="http://www.w3.org/1999/xlink" x="0px" y="0px"
	 width="55.5px" height="86.714px" viewBox="0 0 55.5 86.714" enable-background="new 0 0 55.5 86.714" xml:space="preserve">
<g id="Calque_1_1_">
</g>
<g id="filters">
	<g id="bar_2_">
	</g>
	<g id="snack_1_">
	</g>
</g>
<g id="V2">
	<g id="resto">
	</g>
	<g id="bar_1_">
	</g>
	<g id="resto-u">
	</g>
	<g id="asso">
	</g>
	<g id="bar">
	</g>
	<g id="bilbio">
	</g>
	<g id="snack">
	</g>
</g>
<g id="markers_x5F_V3">
	<g id="biblio_1_">
	</g>
	<g id="asso_2_">
	</g>
	<g id="cafe_1_">
	</g>
	<g id="bar_3_">
	</g>
	<g id="resto_2_">
	</g>
	<g id="snack_2_">
	</g>
	<g id="resto-u_1_">
		<g>
			<g>
				<path fill="#8BCCC0" stroke="#FFFFFF" stroke-width="2" stroke-miterlimit="10" d="M27.75,82.335l-0.64-0.64
					c-0.079-0.079-6.396-5.917-12.632-14.312C6.004,56.112,1.687,45.878,1.687,37.004c0-14.393,11.673-26.064,26.063-26.064
					c14.391,0,26.062,11.672,26.062,26.064c0,8.875-4.316,19.108-12.711,30.462c-6.235,8.394-12.631,14.229-12.631,14.309
					L27.75,82.335z"/>
			</g>
		</g>
		<g>
			<defs>
				<path id="SVGID_1_" d="M40.581,25.222H14.923c-0.736,0-1.333,0.588-1.333,1.311v18.747c0,0.722,0.598,1.31,1.333,1.31h3.545
					c0.393,0,0.746-0.167,0.992-0.435c0.243,0.268,0.597,0.435,0.99,0.435h3.545c0.393,0,0.747-0.167,0.992-0.435
					c0.243,0.268,0.598,0.435,0.989,0.435h3.546c0.394,0,0.747-0.167,0.992-0.435c0.243,0.268,0.598,0.435,0.991,0.435h3.547
					c0.393,0,0.746-0.167,0.99-0.435c0.245,0.268,0.599,0.435,0.991,0.435h3.545c0.735,0,1.333-0.588,1.333-1.31V26.532
					C41.913,25.81,41.314,25.222,40.581,25.222z M18.893,45.279c0,0.229-0.19,0.417-0.425,0.417h-3.545
					c-0.234,0-0.425-0.188-0.425-0.417V26.532c0-0.23,0.191-0.417,0.425-0.417h2.974v11.351c0,0.163,0.136,0.296,0.302,0.296h0.694
					V45.279z M24.419,45.279c0,0.229-0.191,0.417-0.423,0.417H20.45c-0.233,0-0.424-0.188-0.424-0.417v-7.515h0.694
					c0.166,0,0.302-0.135,0.302-0.297V26.115h2.402v11.351c0,0.163,0.136,0.296,0.301,0.296h0.695V45.279L24.419,45.279z
					 M29.947,45.279c0,0.229-0.19,0.417-0.424,0.417h-3.547c-0.232,0-0.424-0.188-0.424-0.417v-7.515h0.695
					c0.167,0,0.302-0.135,0.302-0.297V26.115h2.975c0.233,0,0.424,0.188,0.424,0.417V45.279z M35.478,45.279
					c0,0.229-0.19,0.417-0.424,0.417h-3.548c-0.233,0-0.426-0.188-0.426-0.417V26.532c0-0.23,0.192-0.417,0.426-0.417h2.976v11.351
					c0,0.163,0.135,0.296,0.303,0.296h0.693V45.279z M41.005,45.279c0,0.229-0.191,0.417-0.424,0.417h-3.547
					c-0.233,0-0.424-0.188-0.424-0.417v-7.515h0.693c0.168,0,0.303-0.135,0.303-0.297V26.115h2.975c0.232,0,0.424,0.188,0.424,0.417
					V45.279z"/>
			</defs>
			<use xlink:href="#SVGID_1_"  overflow="visible" fill-rule="evenodd" clip-rule="evenodd" fill="#FFFFFF"/>
			<clipPath id="SVGID_2_">
				<use xlink:href="#SVGID_1_"  overflow="visible"/>
			</clipPath>
			<g clip-path="url(#SVGID_2_)">
				<defs>
					<rect id="SVGID_3_" x="-122.49" y="-285.533" width="294.359" height="523.557"/>
				</defs>
				<use xlink:href="#SVGID_3_"  overflow="visible" fill="#FFFFFF"/>
				<clipPath id="SVGID_4_">
					<use xlink:href="#SVGID_3_"  overflow="visible"/>
				</clipPath>
				<rect x="9.666" y="21.296" clip-path="url(#SVGID_4_)" fill="#FFFFFF" width="36.171" height="29.218"/>
			</g>
		</g>
	</g>
</g>
</svg>
