<?xml version="1.0" encoding="utf-8"?>
<!-- Generator: Adobe Illustrator 16.0.0, SVG Export Plug-In . SVG Version: 6.00 Build 0)  -->
<!DOCTYPE svg PUBLIC "-//W3C//DTD SVG 1.1//EN" "http://www.w3.org/Graphics/SVG/1.1/DTD/svg11.dtd">
<svg version="1.1" xmlns="http://www.w3.org/2000/svg" xmlns:xlink="http://www.w3.org/1999/xlink" x="0px" y="0px"
	 width="87.832px" height="96.582px" viewBox="0 0 87.832 96.582" enable-background="new 0 0 87.832 96.582" xml:space="preserve">
<g id="Calque_1">
</g>
<g id="V2">
	<g id="resto">
	</g>
	<g id="bar_1_">
	</g>
	<g id="resto-u">
	</g>
	<g id="asso">
	</g>
	<g id="bar">
	</g>
	<g id="bilbio">
		<path fill="#9A5C3C" stroke="#FFFFFF" stroke-width="3" stroke-miterlimit="10" d="M43.915,94.307
			c-0.477,0-5.039-12.695-6.33-12.902C18.604,78.373,4.101,61.926,4.101,42.09c0-21.988,17.826-39.814,39.814-39.814
			c21.99,0,39.816,17.826,39.816,39.814c0,20.023-14.781,36.594-34.029,39.396C48.581,81.65,44.386,94.307,43.915,94.307"/>
		<g transform="translate(5.9921265,958.35431)">
			<path fill="#FFFFFF" d="M27.134-936.506c-4.188,0-8.408,1.524-12.596,4.379c-0.511,0.349-0.794,0.92-0.794,1.491v31.732
				c0,0.663,0.412,1.331,1.046,1.618c0.604,0.284,1.366,0.188,1.906-0.253c5.36-4.508,11.77-4.951,20.338,0.155
				c0.573,0.349,1.302,0.32,1.842,0c4.348-2.633,7.487-3.806,10.406-3.806c2.954-0.03,5.936,1.107,10.059,3.775
				c1.079,0.699,2.763-0.223,2.763-1.49c0-14.565,0-17.167,0-31.732c0-0.571-0.287-1.111-0.729-1.459
				c-3.967-2.887-8.061-4.411-12.252-4.411c-3.805,0-7.581,1.333-11.231,3.745C34.401-934.791,30.972-936.506,27.134-936.506z
				 M26.504-933.894c3.249,0,6.432,1.081,9.615,3.416v29.688c-7.48-3.588-14.389-3.588-20.071-0.404v-29.113
				C19.734-932.677,23.221-933.894,26.504-933.894z M49.581-933.71c3.276,0,6.62,1.227,10.097,3.58
				c0,12.963,0.035,18.012,0.035,29.816c-3.479-1.877-6.72-3.175-9.959-3.14c-3.312,0-6.618,1.193-10.271,3.103v-29.915
				C42.727-932.11,46.373-933.677,49.581-933.71z M26.722-928.54c-2.412,0-4.821,0.697-7.171,2.093
				c-0.413,0.254-0.571,0.826-0.316,1.237c0.221,0.412,0.824,0.539,1.237,0.316c2.127-1.27,4.186-1.9,6.25-1.9
				c2.062,0,4.125,0.631,6.254,1.9c0.411,0.223,0.981,0.096,1.235-0.316c0.255-0.411,0.096-0.983-0.318-1.237
				C31.545-927.843,29.134-928.54,26.722-928.54z M49.122-928.54c-2.406,0-4.821,0.697-7.2,2.093
				c-0.381,0.254-0.54,0.826-0.285,1.237c0.221,0.412,0.823,0.539,1.206,0.316c2.125-1.27,4.186-1.9,6.248-1.9
				c2.064,0,4.158,0.631,6.283,1.9c0.413,0.223,0.983,0.096,1.24-0.316c0.221-0.411,0.096-0.983-0.317-1.237
				C53.949-927.843,51.535-928.54,49.122-928.54z M26.722-923.148c-2.412,0-4.821,0.669-7.171,2.095
				c-0.413,0.224-0.571,0.825-0.316,1.209c0.221,0.411,0.824,0.566,1.237,0.315c2.094-1.27,4.158-1.905,6.189-1.905
				c2.092,0,4.186,0.636,6.314,1.905c0.411,0.251,0.981,0.096,1.235-0.315c0.255-0.384,0.096-0.985-0.318-1.209
				C31.545-922.479,29.134-923.148,26.722-923.148z M49.122-923.148c-2.406,0-4.821,0.669-7.2,2.095
				c-0.381,0.224-0.54,0.825-0.285,1.209c0.221,0.411,0.823,0.566,1.206,0.315c2.125-1.27,4.186-1.905,6.248-1.905
				c2.064,0,4.158,0.636,6.283,1.905c0.413,0.251,0.983,0.096,1.24-0.315c0.221-0.384,0.096-0.985-0.317-1.209
				C53.949-922.479,51.535-923.148,49.122-923.148z M26.722-917.784c-2.412,0-4.821,0.664-7.171,2.096
				c-0.413,0.252-0.571,0.823-0.316,1.236c0.221,0.381,0.824,0.539,1.237,0.284c2.062-1.235,4.096-1.872,6.125-1.905
				c2.092-0.029,4.219,0.605,6.379,1.905c0.411,0.255,0.981,0.097,1.235-0.284c0.255-0.413,0.096-0.984-0.318-1.236
				C31.545-917.12,29.134-917.784,26.722-917.784z M49.122-917.784c-2.406,0-4.821,0.664-7.2,2.096
				c-0.381,0.252-0.54,0.823-0.285,1.236c0.221,0.381,0.823,0.539,1.206,0.284c2.094-1.235,4.125-1.872,6.154-1.905
				c2.096-0.029,4.189,0.605,6.377,1.905c0.413,0.255,0.983,0.097,1.24-0.284c0.221-0.413,0.096-0.984-0.317-1.236
				C53.949-917.12,51.535-917.784,49.122-917.784L49.122-917.784z M26.722-912.422c-2.412,0-4.821,0.699-7.171,2.096
				c-0.413,0.251-0.571,0.824-0.316,1.235c0.221,0.412,0.824,0.54,1.237,0.317c2.127-1.302,4.186-1.936,6.283-1.936
				c2.061,0.032,4.092,0.667,6.221,1.936c0.411,0.223,0.981,0.095,1.235-0.317c0.255-0.411,0.096-0.984-0.318-1.235
				C31.545-911.722,29.134-912.422,26.722-912.422z M49.122-912.422c-2.406,0-4.821,0.699-7.2,2.096
				c-0.381,0.251-0.54,0.824-0.285,1.235c0.221,0.412,0.823,0.54,1.206,0.317c2.094-1.236,4.094-1.873,6.092-1.936
				c2.127-0.032,4.252,0.603,6.439,1.936c0.413,0.223,0.983,0.095,1.24-0.317c0.221-0.411,0.096-0.984-0.317-1.235
				C53.949-911.722,51.535-912.422,49.122-912.422z"/>
		</g>
	</g>
	<g id="snack">
	</g>
</g>
</svg>
